<svg width="56" height="56" viewBox="0 0 56 56" fill="none" xmlns="http://www.w3.org/2000/svg">
<rect width="56" height="56" rx="28" fill="#006F62"/>
<path d="M25.3555 33.2565C25.1856 33.2572 25.0167 33.2319 24.8545 33.1815C18.9537 31.564 18.2975 31.387 18.2194 31.3617C16.9202 30.9677 16.6603 30.5379 16.4598 30.0166C16.4598 30.0166 16.355 29.7369 16.1204 29.6675L8.0078 27.2759C7.66107 27.1691 7.46051 27.0639 7.31843 26.7865C6.87345 26.0002 6.87264 25.9986 6.87183 25.9961C6.84935 25.9519 6.81686 25.9136 6.77694 25.8842C6.73703 25.8549 6.69082 25.8354 6.64203 25.8273C5.98511 25.7384 5.79672 25.373 5.71472 25.2163L5.35338 24.5801C5.33253 24.5354 5.30167 24.4962 5.26322 24.4655C5.22476 24.4348 5.17974 24.4134 5.1317 24.4031C4.76143 24.3786 4.57305 24.2775 4.41634 24.0181C4.41634 24.0181 4.06638 23.4341 4.0615 23.4243C3.86825 23.067 3.93646 22.8093 4.02739 22.6559C4.15732 22.4389 4.38061 22.3239 4.69161 22.3125H24.0925C24.6609 22.3125 25.1237 22.4871 25.4664 22.8321C25.7194 23.094 25.8927 23.4232 25.9658 23.7807C25.9658 23.7807 25.9991 23.8085 26.0835 23.8085H29.917C30.003 23.8085 30.0323 23.784 30.0363 23.775C30.1099 23.4184 30.2835 23.0904 30.5365 22.8297C30.8792 22.4871 31.3412 22.3125 31.9104 22.3125H51.3049C51.4389 22.3199 51.7832 22.3386 51.974 22.6567C52.0321 22.7556 52.0626 22.8682 52.0625 22.983C52.0588 23.1354 52.0169 23.2843 51.9407 23.4161L51.5834 24.014C51.4267 24.2726 51.2391 24.3738 50.8672 24.3982C50.8188 24.4094 50.7735 24.4316 50.7349 24.4632C50.6963 24.4947 50.6655 24.5347 50.6447 24.5801L50.2834 25.218C50.2022 25.373 50.0098 25.7408 49.3512 25.8297C49.3022 25.839 49.256 25.8596 49.2163 25.8901C49.1767 25.9206 49.1447 25.96 49.1231 26.0051L48.6789 26.7906C48.5384 27.0639 48.3362 27.1691 47.9895 27.28L39.8808 29.6692C39.651 29.7369 39.5519 29.9889 39.5414 30.0175C39.3546 30.5183 39.094 30.9653 37.7834 31.3625L34.4623 32.2729L31.4312 33.1032C31.2761 33.1457 31.1949 33.1685 31.1494 33.1766C31.0609 33.2068 30.2611 33.4507 29.657 32.8651L28.098 31.3707C28.0852 31.3574 28.07 31.3469 28.0531 31.3397C28.0362 31.3325 28.018 31.3287 27.9997 31.3287C27.9814 31.3287 27.9632 31.3325 27.9463 31.3397C27.9294 31.3469 27.9142 31.3574 27.9015 31.3707L26.344 32.8675C26.2127 32.9944 26.0577 33.0941 25.8881 33.1609C25.7184 33.2276 25.5372 33.2601 25.355 33.2566L25.3555 33.2565ZM28.6927 31.2353L29.7695 32.268C29.8889 32.3968 30.0206 32.5137 30.1625 32.6171C30.1065 32.5142 30.064 32.4046 30.0358 32.2908L29.7232 31.1587C29.3854 31.1929 29.0403 31.2198 28.6927 31.2353V31.2353ZM26.2778 31.1537L25.9644 32.2883C25.9369 32.402 25.8948 32.5117 25.8394 32.6146C25.894 32.5817 25.9447 32.5425 25.9904 32.498L27.3074 31.2353C26.9607 31.2206 26.6148 31.1928 26.2778 31.1553L26.2778 31.1537ZM30.1535 31.0974L30.4547 32.1864C30.4547 32.1937 30.5262 32.5053 30.7357 32.6334C30.7846 32.6611 30.8384 32.6789 30.8942 32.6856C30.9499 32.6923 31.0065 32.6879 31.0605 32.6725L32.5976 32.2508C32.4895 32.1389 32.3959 32.0136 32.3191 31.8781L31.6792 30.7891C31.1767 30.9205 30.6674 31.0239 30.1535 31.0991L30.1535 31.0974ZM23.4025 32.2524L24.9404 32.6717C24.9944 32.6871 25.0509 32.6916 25.1067 32.6849C25.1625 32.6781 25.2163 32.6604 25.2652 32.6325C25.4739 32.5053 25.5453 32.1913 25.5461 32.188L25.8466 31.1015C25.3325 31.0276 24.8229 30.9255 24.32 30.7956L23.9408 31.4408L23.6818 31.8804C23.6044 32.0156 23.5106 32.1405 23.4025 32.2524L23.4025 32.2524ZM32.1098 30.6708L32.6944 31.6651C32.7837 31.8283 33.0151 32.117 33.1686 32.0966L34.9128 31.6186C34.8349 31.5627 34.7618 31.5002 34.6943 31.4318L33.4942 30.174C33.0422 30.3651 32.58 30.531 32.1097 30.6708L32.1098 30.6708ZM22.8328 32.1007C22.9895 32.1195 23.2193 31.8291 23.3086 31.6676L23.8916 30.6758C23.4228 30.5354 22.962 30.3693 22.5112 30.1782L21.4077 31.3349C21.3639 31.3805 21.3338 31.4164 21.3103 31.4336C21.243 31.5023 21.17 31.5651 21.0919 31.6212L22.8328 32.1007ZM20.374 31.427C20.6055 31.48 20.9091 31.2288 20.9968 31.1366L22.0898 29.9947C21.7187 29.8226 21.35 29.6301 20.9911 29.4237L18.9328 30.8935C18.8865 30.9279 18.8382 30.9595 18.7882 30.9882L20.374 31.427ZM33.9125 29.9889L35.0046 31.1309C35.0932 31.2239 35.3985 31.4759 35.6291 31.4205L37.2133 30.9865C37.164 30.9586 37.1166 30.9275 37.0712 30.8935L35.0111 29.4138C34.6547 29.6227 34.2861 29.8168 33.9125 29.9889L33.9125 29.9889ZM28.2156 27.3192V30.8177C28.6857 30.8112 29.1526 30.7826 29.6073 30.7362L28.6646 27.3193L28.2156 27.3192ZM26.3951 30.7329C26.8514 30.7818 27.3191 30.8145 27.786 30.8145V27.3193H27.341L26.3951 30.7329ZM17.9771 30.7411C18.2833 30.8357 18.6625 30.5575 18.6787 30.5461L20.5909 29.1709C20.202 28.9262 19.8179 28.6554 19.4485 28.3666L17.3291 29.3633C17.2869 29.3829 17.2544 29.3984 17.2292 29.4082C17.0899 29.4775 16.9438 29.5322 16.7932 29.5713C16.8544 29.6561 16.9038 29.7489 16.9402 29.847C17.053 30.1342 17.17 30.4343 17.9771 30.741L17.9771 30.7411ZM35.4115 29.1708L37.3286 30.551C37.3343 30.5559 37.7184 30.8405 38.0277 30.7451C38.8348 30.4392 38.9526 30.1382 39.0655 29.8478C39.1009 29.7502 39.1487 29.6576 39.2076 29.5721C39.0583 29.5331 38.9135 29.4784 38.7756 29.409L36.5531 28.3649C36.1869 28.6537 35.8029 28.9237 35.4115 29.1708L35.4115 29.1708ZM29.1104 27.3192L30.0385 30.6791C30.5145 30.6121 30.9867 30.5198 31.453 30.4025L29.6398 27.3193L29.1104 27.3192ZM24.5486 30.4033C25.0141 30.5203 25.4854 30.6123 25.9607 30.679L26.888 27.3192H26.3667L24.5486 30.4033ZM22.828 29.8389C23.2496 30.011 23.6801 30.1605 24.1175 30.2867L25.8633 27.3192H25.2299L22.828 29.8389ZM30.136 27.3192L31.8882 30.2867C32.3259 30.1606 32.7565 30.0114 33.1785 29.8397L30.7726 27.3192L30.136 27.3192ZM31.3613 27.3192L33.5942 29.6586C33.9434 29.5004 34.2884 29.3258 34.623 29.1374L32.0977 27.3192L31.3613 27.3192ZM21.3737 29.1374C21.7099 29.3258 22.0549 29.5012 22.4025 29.6578L24.6354 27.3193H23.9046L21.3737 29.1374ZM36.9228 28.0656L38.9618 29.024C39.0844 29.086 39.4855 29.2451 39.7429 29.1749L41.7323 28.5934L37.7235 27.347C37.4661 27.5966 37.1981 27.838 36.9228 28.0656V28.0656ZM16.2576 29.1758C16.4874 29.2378 16.8593 29.1146 17.0396 29.0233L19.0761 28.0656C18.8057 27.8389 18.5385 27.5983 18.2795 27.347L14.2682 28.5934L14.8577 28.7671L16.2576 29.1758ZM32.8362 27.3193L35.0326 28.8985C35.4037 28.6709 35.7634 28.4237 36.1142 28.1643L34.3245 27.3193H32.8362ZM19.8879 28.1603C20.2395 28.4254 20.6024 28.6734 20.9703 28.8944L23.1626 27.3153H21.6775L19.8879 28.1603ZM13.1689 28.2672C13.5563 28.3699 14.0686 28.2027 14.0906 28.1954L17.9353 27.0045C17.7851 26.8487 17.6357 26.688 17.4896 26.5232L11.5076 27.7566L11.4702 27.7631L13.1689 28.2672ZM41.9013 28.1921L41.9159 28.197C41.9378 28.2043 42.4477 28.3699 42.8351 28.2663L44.5321 27.7663L38.5136 26.5216C38.3707 26.6847 38.2213 26.8438 38.0678 27.002L41.9013 28.1921ZM35.3385 27.3194L36.4939 27.8593C36.5987 27.7737 36.9073 27.5176 37.1281 27.3161L35.3385 27.3194ZM18.8803 27.3194C19.1012 27.5159 19.4057 27.7753 19.5088 27.8618L20.6634 27.3194H18.8803ZM44.6206 27.3414C44.8187 27.383 45.4529 27.4825 45.7622 27.4001L47.3465 26.9327L39.1014 25.8201C39.0153 25.9289 38.9268 26.0376 38.8359 26.1464L40.8261 26.5542C43.9344 27.1962 44.5093 27.3144 44.623 27.3422L44.6206 27.3414ZM10.2364 27.4009C10.5482 27.4825 11.1783 27.383 11.3732 27.3414L17.1668 26.1464C17.0807 26.0428 16.993 25.9351 16.9021 25.8201L8.65315 26.9327L10.2364 27.4009ZM18.5814 24.2777V26.9621H37.4849V24.2777H18.5814ZM37.8645 26.3511V26.7092L38.1406 26.409L37.8645 26.3511ZM17.9265 26.409L18.2034 26.7068V26.3519L17.9265 26.409ZM7.74754 26.5094C7.76216 26.5257 7.84904 26.6056 8.12431 26.5681L16.5992 25.4262C16.5202 25.3207 16.4422 25.2119 16.3653 25.0999L7.29704 25.7117C7.30597 25.7263 7.31409 25.7418 7.32221 25.7573L7.74754 26.5094ZM39.404 25.427L47.8783 26.5689C48.156 26.6064 48.2413 26.5257 48.2551 26.5102L48.6156 25.8683C48.6424 25.8209 48.6619 25.7867 48.6781 25.7622C48.6871 25.7443 48.6976 25.7263 48.7073 25.7092L39.6384 25.104C39.5642 25.2084 39.4863 25.316 39.4045 25.427L39.404 25.427ZM37.8613 25.9702L38.4256 26.0828C38.5068 25.9857 38.6359 25.8316 38.7163 25.7337L37.8645 25.6179L37.8613 25.9702ZM17.3536 25.7329C17.4348 25.8332 17.5444 25.967 17.6264 26.0591L18.2062 25.9433V25.6138L17.3536 25.7329ZM37.8645 25.2329L39.0013 25.3829C39.0768 25.2842 39.1767 25.1382 39.2449 25.0404L37.8645 24.9482L37.8645 25.2329ZM16.8242 25.0404C16.8964 25.1391 16.9914 25.2696 17.0678 25.3666L18.2045 25.2157V24.9482L16.8242 25.0404ZM6.49669 25.272C6.67127 25.3136 7.03424 25.2932 7.22345 25.272L16.0741 24.6823C15.9956 24.5632 15.9193 24.4444 15.8451 24.3258H5.79611C5.85539 24.4229 5.92684 24.5518 6.00074 24.6855C6.05757 24.7867 6.11441 24.8895 6.16313 24.9767C6.19443 25.0471 6.24043 25.1099 6.29801 25.1609C6.3556 25.2118 6.42342 25.2497 6.49687 25.272L6.49669 25.272ZM39.927 24.6782L48.7777 25.2679C48.9718 25.2908 49.3355 25.3112 49.5085 25.2679C49.5811 25.2454 49.6481 25.2076 49.705 25.157C49.7618 25.1063 49.8072 25.044 49.8382 24.9743L50.2068 24.3217H40.1565C40.0829 24.4419 40.0063 24.5607 39.9267 24.6782L39.927 24.6782ZM37.8638 24.564L39.5048 24.6668C39.5787 24.5591 39.6883 24.3894 39.7573 24.2818H37.8646L37.8638 24.564ZM16.3126 24.2842C16.3825 24.3927 16.4888 24.5567 16.5627 24.6643L18.2037 24.5616V24.2842L16.3126 24.2842ZM51.2947 22.8258H41.6317C41.0211 22.8258 40.6711 23.4367 40.6573 23.4628C40.5826 23.6031 40.5022 23.7467 40.4137 23.8919H50.8379C51.0733 23.8764 51.0953 23.8405 51.1481 23.754L51.4948 23.1749C51.5289 23.1179 51.5492 23.0536 51.554 22.9873C51.555 22.9634 51.5488 22.9398 51.5362 22.9196C51.4923 22.8478 51.4087 22.8298 51.2942 22.8258L51.2947 22.8258ZM30.5335 23.8919H39.9161C40.0436 23.6806 40.1654 23.4669 40.2782 23.2565C40.3694 23.0967 40.4838 22.9516 40.6177 22.8258H31.9104C31.4817 22.8258 31.1406 22.9498 30.897 23.1953C30.7126 23.3882 30.5864 23.6298 30.5333 23.8919L30.5335 23.8919ZM16.0854 23.8919H25.4674C25.4144 23.6295 25.2882 23.3876 25.1036 23.1945C24.86 22.9498 24.5189 22.8258 24.091 22.8258H15.3837C15.5173 22.9519 15.6317 23.097 15.7231 23.2565C15.7231 23.2565 15.9416 23.6513 16.0853 23.8919L16.0854 23.8919ZM5.16833 23.8919H15.5854C15.5042 23.7459 15.423 23.6015 15.3418 23.4612C15.3418 23.4571 14.9699 22.8258 14.3675 22.8258H4.70317C4.45389 22.8258 4.44902 22.9506 4.4474 22.9889C4.45071 23.0552 4.47145 23.1193 4.50749 23.1749L4.79655 23.657C4.82091 23.6978 4.83878 23.7288 4.85096 23.7532C4.91186 23.8503 4.93459 23.8748 5.16845 23.8919L5.16833 23.8919Z" fill="#F5FBFD"/>
<path d="M20.2598 26.554L20.2509 26.5295C20.1608 26.2725 20.0796 26.0613 19.9992 25.8769H19.4308L19.4243 25.8949C19.3431 26.0947 19.2619 26.3027 19.1977 26.5172L19.1864 26.5547H18.8851L19.7142 24.6934H19.8409L20.6399 26.5539L20.2598 26.554ZM19.9155 25.664L19.719 25.2081L19.525 25.664H19.9155Z" fill="#F5FBFD"/>
<path d="M21.1433 26.5816C21.0199 26.5816 20.799 26.531 20.6959 26.4184L20.6829 26.4038V26.3785L20.7414 26.106H20.8405L20.851 26.124C20.9582 26.301 21.0589 26.3687 21.2156 26.3687C21.2556 26.368 21.2952 26.3592 21.3318 26.343C21.3685 26.3267 21.4015 26.3033 21.429 26.274C21.4566 26.2448 21.478 26.2103 21.4921 26.1726C21.5062 26.135 21.5127 26.0949 21.5112 26.0546C21.5112 25.8687 21.3585 25.8099 21.1815 25.739C20.9793 25.6574 20.7276 25.5595 20.7276 25.2259C20.7276 24.8923 20.9663 24.6908 21.3366 24.6908C21.4792 24.6884 21.6182 24.736 21.7296 24.8254L21.7475 24.8417V24.8727L21.6663 25.1231H21.5664L21.5574 25.0987C21.5404 25.0416 21.5052 24.9917 21.4573 24.9566C21.4093 24.9216 21.3512 24.9033 21.2919 24.9045C21.2583 24.9018 21.2245 24.9061 21.1927 24.9172C21.1609 24.9283 21.1317 24.9459 21.1069 24.9689C21.0822 24.9919 21.0625 25.0198 21.0491 25.0508C21.0356 25.0819 21.0287 25.1154 21.0288 25.1492C21.0288 25.3352 21.1864 25.394 21.3682 25.4698C21.5794 25.5514 21.8181 25.6476 21.8181 25.9592C21.8181 26.3246 21.5388 26.5816 21.1433 26.5816L21.1433 26.5816Z" fill="#F5FBFD"/>
<path d="M22.43 26.554V24.9544C22.2672 24.9555 22.1046 24.9653 21.9428 24.9838L21.8843 24.9911V24.7277H23.2785V24.9919L23.2184 24.9838C23.0645 24.9656 22.9097 24.9558 22.7548 24.9544V26.554L22.43 26.554Z" fill="#F5FBFD"/>
<path d="M24.184 26.5816C23.601 26.5816 23.2095 26.2031 23.2095 25.6395C23.2095 25.0758 23.6155 24.69 24.1896 24.69C24.6882 24.69 25.1916 24.9722 25.1916 25.6019C25.1908 26.1884 24.7864 26.5816 24.184 26.5816V26.5816ZM24.2132 24.8785C23.8072 24.8785 23.5595 25.1819 23.5595 25.6697C23.5595 26.1094 23.8072 26.3932 24.1913 26.3932C24.2727 26.3949 24.3535 26.3792 24.4284 26.3472C24.5033 26.3151 24.5705 26.2674 24.6257 26.2072C24.76 26.0551 24.8363 25.86 24.8409 25.6566V25.6232C24.8409 25.4217 24.8157 25.2578 24.6931 25.1003C24.6347 25.0297 24.5613 24.9731 24.4782 24.9347C24.3952 24.8963 24.3046 24.8771 24.2132 24.8785V24.8785Z" fill="#F5FBFD"/>
<path d="M26.8533 26.5539H26.846L26.7007 26.3835C26.7007 26.3835 25.9147 25.5099 25.6857 25.2562V26.5539H25.4421V24.7276H25.6158L26.7526 25.9658V24.7276H26.9962V26.5539L26.8533 26.5539Z" fill="#F5FBFD"/>
<path d="M29.7596 26.554L29.7548 26.5058C29.7296 26.2073 29.6849 25.6901 29.6476 25.3721C29.395 25.8272 29.2083 26.1796 29.0719 26.4953L29.0589 26.5271H28.9647L28.8129 26.2131C28.7146 26.0116 28.4881 25.5817 28.3866 25.3811L28.3727 25.5018C28.3264 25.8332 28.2966 26.1667 28.2834 26.501V26.5541H27.9903L28 26.4929C28.065 26.0891 28.2152 25.0377 28.2396 24.78L28.2444 24.7327H28.3898L28.4003 24.7531C28.5936 25.1381 28.8153 25.5688 29.0646 25.9954L29.3236 25.5206L29.7564 24.7327H29.8879L29.8928 24.78C29.9691 25.5141 30.0357 26.0729 30.095 26.4929L30.1015 26.5541L29.7596 26.554Z" fill="#F5FBFD"/>
<path d="M31.5456 26.5539L31.5367 26.5295C31.4506 26.2848 31.367 26.0653 31.285 25.8769H30.7166L30.7109 25.8908C30.6297 26.098 30.5485 26.3035 30.4835 26.5172L30.4705 26.5547H30.1709L31.0024 24.6901H31.1185L31.1388 24.7121L31.9256 26.5539L31.5456 26.5539ZM31.2021 25.664L31.0048 25.2081L30.8116 25.664H31.2021Z" fill="#F5FBFD"/>
<path d="M33.0244 26.554L33.005 26.5385L32.8426 26.315C32.6509 26.0646 32.5779 25.9699 32.5527 25.9292L32.3684 25.7122H32.3505V26.5539H32.0257V24.7276H32.6087C33.0147 24.7276 33.2177 24.8736 33.2177 25.1624C33.2177 25.4071 33.0423 25.5947 32.7443 25.6722L33.4442 26.5539L33.0244 26.554ZM32.3505 25.514H32.4171C32.4819 25.5148 32.5466 25.5093 32.6103 25.4976C32.6861 25.4898 32.7563 25.4542 32.8075 25.3976C32.8588 25.341 32.8874 25.2674 32.888 25.1909C32.8907 25.1583 32.8868 25.1254 32.8765 25.0943C32.8663 25.0632 32.8499 25.0344 32.8284 25.0098C32.8069 24.9851 32.7807 24.9651 32.7513 24.9508C32.722 24.9365 32.69 24.9283 32.6574 24.9267C32.6098 24.9202 32.5618 24.9175 32.5137 24.9185C32.4585 24.9185 32.4 24.9185 32.3513 24.9226L32.3505 25.514Z" fill="#F5FBFD"/>
<path d="M33.8886 26.554V24.9544C33.7258 24.9555 33.5631 24.9653 33.4014 24.9838L33.3429 24.9911V24.7277H34.7403V24.9919L34.6811 24.9838C34.5271 24.9656 34.3724 24.9558 34.2174 24.9544V26.554L33.8886 26.554Z" fill="#F5FBFD"/>
<path d="M34.9064 24.7277H35.2176V26.5523H34.9064V24.7277Z" fill="#F5FBFD"/>
<path d="M36.9612 26.5539L36.8159 26.3835L35.8008 25.2562V26.5539H35.5573V24.7276H35.731L36.8678 25.9658V24.7276H37.1114V26.5539L36.9612 26.5539Z" fill="#F5FBFD"/>
</svg>
