<svg width="128" height="72" viewBox="0 0 128 72" fill="none" xmlns="http://www.w3.org/2000/svg">
<path fill-rule="evenodd" clip-rule="evenodd" d="M37.6535 55.7416C37.6535 56.4216 37.6535 57.0581 37.6535 57.7207C36.9822 57.7207 36.3545 57.7207 35.6831 57.7207C35.6744 57.555 35.657 57.4068 35.657 57.2586C35.6483 55.5846 35.6395 53.902 35.6221 52.2193C35.6134 51.6352 35.718 51.0423 35.2646 50.4843C35.4565 50.4756 35.5872 50.4582 35.7093 50.4582C37.6971 50.4582 39.6849 50.4756 41.664 50.4494C43.0241 50.432 44.0267 51.4085 44.2447 52.3937C44.3755 52.9691 44.358 53.5358 44.175 54.0938C43.9483 54.7651 43.4862 55.2185 42.7974 55.5236C43.3031 56.2734 43.8785 56.9273 44.4191 57.6684C44.3232 57.6945 44.2621 57.7207 44.1924 57.7207C43.6431 57.7207 43.0939 57.712 42.5359 57.7294C42.3266 57.7294 42.2133 57.6422 42.1 57.4853C41.7512 56.9796 41.385 56.4827 41.045 55.9683C40.9055 55.7677 40.7486 55.6893 40.5045 55.6893C39.6762 55.7067 38.8392 55.698 38.0023 55.698C37.9151 55.7241 37.8192 55.7329 37.6535 55.7416ZM37.6884 54.1984C38.4643 54.1984 39.188 54.1984 39.9203 54.1984C40.4173 54.1984 40.923 54.2071 41.4199 54.1897C42.0041 54.1722 42.3354 53.8235 42.3789 53.2481C42.44 52.4547 42.0564 52.0362 41.263 52.0362C40.1732 52.0275 39.0834 52.0362 37.9935 52.0362C37.8976 52.0362 37.793 52.0537 37.6797 52.0624C37.6884 52.7773 37.6884 53.4573 37.6884 54.1984Z" fill="black"/>
<path fill-rule="evenodd" clip-rule="evenodd" d="M82.5026 57.7478C81.901 57.7478 81.3256 57.7565 80.7589 57.7391C80.6455 57.7304 80.5235 57.5996 80.4276 57.5037C79.3726 56.44 78.3264 55.3677 77.2802 54.2953C76.914 53.9204 76.5478 53.5455 76.1729 53.1706C76.0858 53.0834 75.9899 52.9962 75.8329 52.848C75.8068 54.5132 75.8416 56.1 75.8155 57.7217C75.1616 57.7217 74.5426 57.7217 73.8713 57.7217C73.8625 57.5647 73.8538 57.4165 73.8538 57.277C73.8538 55.5856 73.8538 53.8942 73.8538 52.2028C73.8538 52.0372 73.8625 51.8715 73.8538 51.7059C73.8364 51.27 73.9236 50.7904 73.4092 50.5027C73.4353 50.4853 73.4528 50.4679 73.4789 50.4504C73.54 50.4417 73.5923 50.4243 73.6533 50.4243C74.2897 50.4243 74.9349 50.433 75.5714 50.4155C75.7632 50.4068 75.8765 50.5115 75.9986 50.6335C76.8268 51.4792 77.6464 52.3162 78.4746 53.1532C79.1024 53.7896 79.7301 54.4348 80.3578 55.0712C80.445 55.1584 80.5409 55.2369 80.6717 55.3589C80.7502 54.9056 80.7066 54.5045 80.7066 54.1035C80.7153 53.6937 80.7066 53.2839 80.7066 52.8742C80.7066 52.4818 80.7066 52.0808 80.7066 51.6797C80.7066 51.27 80.7066 50.8689 80.7066 50.4417C81.3256 50.4417 81.9097 50.4417 82.5113 50.4417C82.5026 52.8742 82.5026 55.2805 82.5026 57.7478Z" fill="black"/>
<path fill-rule="evenodd" clip-rule="evenodd" d="M92.7293 53.8836C92.7293 54.7904 92.7381 55.6361 92.7293 56.4818C92.7293 56.63 92.6857 56.7869 92.6421 56.9351C92.5375 57.2926 92.3108 57.5454 91.9447 57.6326C91.6308 57.7024 91.3169 57.7459 90.9944 57.7547C89.4861 57.7634 87.969 57.7634 86.4607 57.7547C86.1469 57.7547 85.8243 57.7024 85.5104 57.6326C85.1617 57.5541 84.9176 57.3187 84.8391 56.97C84.7693 56.6736 84.7083 56.3684 84.7083 56.0633C84.6909 54.7555 84.6996 53.4477 84.7083 52.1399C84.7083 51.861 84.7519 51.582 84.8129 51.303C84.9001 50.8758 85.1791 50.6055 85.615 50.5183C85.8243 50.4747 86.0422 50.4311 86.2602 50.4311C87.9167 50.4224 89.5645 50.4311 91.221 50.4311C91.3257 50.4311 91.4303 50.4311 91.5262 50.4486C92.3283 50.5445 92.677 50.9106 92.7468 51.7127C92.7642 51.8784 92.7468 52.044 92.7468 52.262C92.1365 52.3928 91.5262 52.5236 90.8723 52.6631C90.8549 52.4015 90.8461 52.1748 90.8374 51.9133C90.7415 51.9045 90.6369 51.8784 90.541 51.8784C89.4163 51.8784 88.2829 51.8784 87.1582 51.8784C86.7049 51.8784 86.5915 51.9917 86.5915 52.4451C86.5915 53.4216 86.5915 54.3893 86.5915 55.3658C86.5915 55.4791 86.5915 55.6012 86.6177 55.7058C86.6874 56.0022 86.8879 56.1941 87.1756 56.1941C88.3788 56.2028 89.582 56.1941 90.82 56.1941C90.8723 55.8104 90.8374 55.4443 90.8461 55.0345C90.541 55.0171 90.2533 54.9822 89.9656 54.9996C89.5558 55.0345 89.3204 54.8688 89.2071 54.4852C89.146 54.2847 89.0414 54.0929 88.9455 53.8749C90.2184 53.8836 91.4564 53.8836 92.7293 53.8836Z" fill="black"/>
<path fill-rule="evenodd" clip-rule="evenodd" d="M66.3979 52.8042C65.7353 52.9263 65.125 53.0396 64.4624 53.153C64.4624 52.7257 64.4624 52.3509 64.4624 51.9411C64.3142 51.9324 64.2096 51.9062 64.0962 51.9062C62.9977 51.9062 61.8905 51.9062 60.7919 51.9062C60.7309 51.9062 60.6612 51.9062 60.6001 51.9149C60.3211 51.9411 60.1991 52.0544 60.1991 52.3334C60.1904 53.4232 60.1904 54.513 60.2078 55.6029C60.2165 56.0126 60.4606 56.248 60.8617 56.2567C62.0125 56.2655 63.1634 56.2567 64.3229 56.2567C64.3491 56.2567 64.3665 56.2393 64.445 56.2132C64.445 55.7772 64.445 55.3239 64.445 54.8269C65.1076 54.9664 65.7179 55.0972 66.3631 55.2367C66.3631 55.8208 66.4241 56.3962 66.2672 56.9542C66.1625 57.3291 65.9271 57.5907 65.5435 57.6779C65.2558 57.7389 64.9681 57.7912 64.6717 57.7999C63.1198 57.8086 61.5766 57.8174 60.0247 57.7999C59.7108 57.7999 59.3883 57.7302 59.0831 57.6604C58.7605 57.582 58.5426 57.3553 58.4641 57.0414C58.3856 56.7363 58.3333 56.4137 58.3246 56.0998C58.3072 54.792 58.3072 53.4843 58.3246 52.1852C58.3246 51.8801 58.3856 51.5749 58.4554 51.2785C58.5338 50.9297 58.778 50.6943 59.1267 50.6072C59.4231 50.5374 59.7283 50.4764 60.0334 50.4764C61.5853 50.4589 63.1285 50.4677 64.6804 50.4764C64.9245 50.4764 65.1686 50.5112 65.404 50.5548C65.8923 50.6507 66.2236 50.9297 66.2933 51.4354C66.3543 51.8626 66.3631 52.316 66.3979 52.8042Z" fill="black"/>
<path fill-rule="evenodd" clip-rule="evenodd" d="M46.4219 57.7558C46.5265 57.5465 46.5875 57.4245 46.6486 57.3024C47.6163 55.5151 48.5928 53.7278 49.5693 51.9405C49.6216 51.8359 49.6826 51.74 49.7349 51.6354C49.9267 51.2954 50.0749 50.9466 49.8918 50.4932C50.8073 50.4671 51.6791 50.4671 52.5684 50.4932C53.8936 52.8908 55.2101 55.271 56.5441 57.6947C56.4394 57.7209 56.3697 57.747 56.2999 57.747C55.7768 57.747 55.2537 57.747 54.7219 57.7558C54.5475 57.7558 54.4429 57.6947 54.3557 57.5378C54.1552 57.1367 53.9372 56.7531 53.728 56.3608C52.1674 56.3608 50.6329 56.3608 49.0723 56.3608C48.8805 56.7357 48.6712 57.1106 48.4969 57.4855C48.401 57.6947 48.2702 57.7558 48.0522 57.7558C47.5378 57.747 47.0147 57.7558 46.4219 57.7558ZM52.952 54.8438C52.4464 53.8412 51.9756 52.8908 51.435 51.8969C50.9032 52.917 50.4062 53.8586 49.8918 54.8438C50.9293 54.8438 51.8971 54.8438 52.952 54.8438Z" fill="black"/>
<path fill-rule="evenodd" clip-rule="evenodd" d="M71.0868 57.7291C70.4417 57.7291 69.8139 57.7291 69.1426 57.7291C69.1426 57.5634 69.1426 57.4152 69.1426 57.267C69.1339 55.5669 69.1252 53.8668 69.1165 52.1579C69.1077 51.6 69.1949 51.0245 68.7852 50.545C69.1077 50.4578 70.6771 50.4404 71.0956 50.5189C71.0868 52.899 71.0868 55.2879 71.0868 57.7291Z" fill="black"/>
<path d="M9.33586 43.0816C9.24867 43.0816 9.17021 43.038 9.13533 42.977C9.09174 42.8985 9.10046 42.8026 9.15277 42.698L9.70204 41.739C9.78922 41.582 9.98103 41.46 10.1467 41.46H118.657C118.744 41.46 118.823 41.4948 118.858 41.5646C118.901 41.643 118.893 41.739 118.84 41.8436L118.291 42.8026C118.204 42.9595 118.012 43.0816 117.846 43.0816H9.33586Z" fill="white"/>
<path d="M118.656 41.5642C118.778 41.5642 118.822 41.6688 118.752 41.7909L118.203 42.7499C118.133 42.872 117.976 42.9766 117.845 42.9766H9.34372C9.22166 42.9766 9.17807 42.872 9.24782 42.7499L9.79708 41.7909C9.86683 41.6688 10.0238 41.5642 10.1545 41.5642H118.656ZM118.656 41.355H10.1458C9.9453 41.355 9.71862 41.4945 9.614 41.6863L9.06473 42.6453C8.98626 42.7761 8.97755 42.9156 9.04729 43.0289C9.10832 43.1336 9.21295 43.1859 9.34372 43.1859H117.854C118.055 43.1859 118.281 43.0464 118.386 42.8546L118.935 41.8955C119.014 41.7648 119.022 41.6253 118.953 41.5119C118.9 41.416 118.787 41.355 118.656 41.355Z" fill="white"/>
<path d="M45.2032 42.7507C45.1335 42.8727 44.9765 42.9773 44.8458 42.9773H9.34403C9.22198 42.9773 9.17838 42.8727 9.24813 42.7507L9.7974 41.7916C9.86714 41.6696 10.0241 41.5649 10.1549 41.5649H45.6566C45.7786 41.5649 45.8222 41.6696 45.7525 41.7916L45.2032 42.7507Z" fill="#135740"/>
<path d="M118.201 42.7507C118.132 42.8727 117.975 42.9773 117.844 42.9773H82.3421C82.22 42.9773 82.1764 42.8727 82.2462 42.7507L82.7954 41.7916C82.8652 41.6696 83.0221 41.5649 83.1529 41.5649H118.655C118.777 41.5649 118.82 41.6696 118.751 41.7916L118.201 42.7507Z" fill="#9C2135"/>
<path fill-rule="evenodd" clip-rule="evenodd" d="M81.1778 25.0087C81.8491 24.8169 82.4855 24.6251 83.122 24.4594C83.9938 24.2415 84.8744 24.0409 85.7637 23.8579C85.9991 23.8055 86.2432 23.8055 86.4873 23.8317C86.9581 23.8753 87.1586 24.0933 87.1935 24.5728C87.2022 24.6425 87.211 24.721 87.2197 24.843C87.4638 24.782 87.6818 24.7384 87.8997 24.6774C88.7541 24.4333 89.6085 24.1717 90.463 23.9363C90.7768 23.8491 91.1168 23.8143 91.4394 23.8055C92.0497 23.7881 92.2677 24.0322 92.2677 24.6338C92.2677 24.6948 92.2677 24.7559 92.2677 24.8605C92.4769 24.8082 92.6513 24.7559 92.8344 24.7035C93.8893 24.4246 94.9443 24.1368 96.0079 23.8579C96.2956 23.7794 96.5921 23.7794 96.8711 23.9014C97.1675 24.0322 97.3244 24.2589 97.2547 24.5728C97.1936 24.843 97.0977 25.122 96.9408 25.34C96.6008 25.8108 96.2085 26.2554 95.8336 26.7001C95.511 27.0924 95.1709 27.476 94.8571 27.8771C94.7525 28.0166 94.674 28.1822 94.613 28.3479C94.5432 28.5571 94.6042 28.6705 94.8309 28.6966C95.0663 28.7228 95.3192 28.7315 95.5546 28.7053C96.1997 28.6356 96.8275 28.4612 97.4203 28.1909C97.5685 28.1212 97.6644 28.0427 97.7167 27.8771C98.3358 26.0636 99.6261 24.8779 101.291 24.0409C102.233 23.5701 103.227 23.2476 104.299 23.2824C104.552 23.2911 104.805 23.3435 105.04 23.4306C105.459 23.5876 105.598 23.9189 105.494 24.3548C105.372 24.8692 105.075 25.279 104.709 25.6451C104.16 26.1857 103.523 26.6129 102.826 26.9442C102.067 27.3017 101.283 27.5981 100.507 27.9294C100.463 27.9468 100.411 27.9643 100.35 27.9904C100.428 28.2433 100.629 28.3915 100.821 28.5222C101.213 28.7838 101.649 28.9146 102.111 28.9495C103.018 29.0279 103.881 28.8274 104.726 28.5048C104.77 28.4874 104.822 28.4612 104.866 28.4438C105.372 28.2956 105.685 28.0253 105.869 27.4847C106.148 26.6478 106.767 26.0113 107.429 25.4446C108.615 24.4333 109.949 23.7271 111.483 23.4045C112.024 23.2911 112.564 23.2476 113.114 23.3522C113.951 23.5178 114.482 23.9799 114.648 24.843C114.657 24.8954 114.674 24.9389 114.692 24.9825C115.764 24.8692 116.775 23.9276 116.906 22.8901C117.237 22.8203 117.586 22.8552 117.952 22.8727C117.961 23.1778 117.839 23.4045 117.726 23.6225C117.185 24.66 116.322 25.3313 115.258 25.7323C114.735 25.9241 114.369 26.1857 114.09 26.6914C113.593 27.5806 112.791 28.2171 111.954 28.7925C111.039 29.4115 110.062 29.8911 108.981 30.1352C108.414 30.2572 107.848 30.3095 107.272 30.1962C106.514 30.048 105.973 29.6382 105.659 28.932C105.642 28.8971 105.624 28.871 105.59 28.8012C105.441 28.871 105.293 28.932 105.145 29.0018C104.055 29.4987 102.93 29.9085 101.753 30.1352C101.012 30.2747 100.263 30.3357 99.5128 30.1962C98.763 30.048 98.1614 29.6818 97.7691 29.0105C97.7429 28.9669 97.708 28.932 97.6732 28.8797C97.0803 29.0977 96.4962 29.3156 95.912 29.5162C94.9007 29.8649 93.8806 30.1875 92.8082 30.2834C92.4682 30.3095 92.1195 30.3008 91.7882 30.2311C91.1343 30.0916 90.864 29.4203 91.2389 28.8623C91.5179 28.4351 91.8492 28.0427 92.1631 27.6504C92.4508 27.2929 92.7646 26.9529 93.0524 26.5955C93.1831 26.4298 93.3139 26.2467 93.4011 26.0549C93.5144 25.8108 93.4273 25.6713 93.157 25.619C93.0611 25.6016 92.9477 25.6016 92.8518 25.619C92.4421 25.7149 92.0323 25.7934 91.6312 25.9241C91.4743 25.9764 91.3261 26.1072 91.2215 26.238C90.2276 27.415 89.2336 28.6007 88.2572 29.7864C87.9607 30.1526 87.6033 30.327 87.1325 30.3008C86.6355 30.2747 86.1386 30.3008 85.6416 30.2921C85.4934 30.2921 85.3278 30.3095 85.2406 30.0916C85.319 29.9782 85.3888 29.83 85.4934 29.708C86.3042 28.7402 87.1151 27.7725 87.9259 26.8047C88.0915 26.6042 88.2659 26.3862 88.388 26.1508C88.5972 25.7672 88.4577 25.558 88.0305 25.5667C87.4464 25.5754 86.9145 25.7934 86.3827 26.0113C86.2694 26.0636 86.1822 26.2031 86.095 26.3077C85.1272 27.4586 84.1595 28.6094 83.2092 29.769C82.8953 30.1439 82.5378 30.3183 82.0496 30.2921C81.5701 30.266 81.0819 30.2834 80.5936 30.2834C80.4454 30.2834 80.2798 30.3008 80.1839 30.0654C80.3582 29.8387 80.55 29.5859 80.7506 29.3505C81.5178 28.4263 82.2937 27.5196 83.0522 26.5955C83.1481 26.4821 83.2353 26.3513 83.2964 26.2118C83.4271 25.8893 83.2964 25.6713 82.9563 25.6539C82.7035 25.6364 82.4507 25.6539 82.1978 25.6887C82.006 25.7062 81.8229 25.7759 81.6398 25.8108C81.2039 25.898 80.8813 26.0811 80.6634 26.5344C80.3408 27.2232 79.7741 27.7376 79.1899 28.2171C78.0827 29.1238 76.8534 29.8039 75.4497 30.1265C74.9004 30.2572 74.3425 30.2921 73.7845 30.1962C73.1219 30.0741 72.6075 29.7428 72.2587 29.1587C72.2239 29.1064 72.189 29.0541 72.1367 28.9843C71.7879 29.1151 71.4479 29.2546 71.0992 29.3679C69.8786 29.7864 68.6406 30.1352 67.3502 30.1962C66.984 30.2136 66.6091 30.1875 66.2517 30.1003C65.6501 29.9521 65.4496 29.4115 65.7722 28.8797C65.9029 28.6617 66.0773 28.4699 66.243 28.2781C66.8184 27.6155 67.4025 26.9529 67.9692 26.2816C68.1959 26.0113 68.4052 25.7149 68.6057 25.4185C68.7103 25.2615 68.7713 25.0872 68.8847 24.8518C68.6929 24.8692 68.5708 24.8779 68.4575 24.8954C67.4984 25.0697 66.7225 24.782 66.1558 23.9799C66.1383 23.9625 66.1209 23.945 66.0773 23.9102C66.0163 23.9799 65.9465 24.0409 65.8942 24.1194C64.9526 25.401 63.9762 26.6652 62.8253 27.7725C61.9012 28.6617 60.8724 29.4115 59.6518 29.8475C58.1348 30.388 56.6265 30.3095 55.1182 29.8213C54.8043 29.7167 54.4904 29.5946 54.194 29.4726C53.7668 29.2982 53.7494 29.211 54.0981 28.9146C54.6299 28.4525 55.153 27.9904 55.6761 27.5283C55.8505 27.3801 56.0074 27.2145 56.1731 27.0575C56.4695 26.7698 56.4695 26.7698 56.8183 26.9616C57.4198 27.3017 58.065 27.476 58.7625 27.3976C59.3902 27.3278 59.9744 27.1011 60.5149 26.7873C61.317 26.3252 62.0145 25.741 62.6771 25.0959C63.8977 23.9102 64.9613 22.5937 66.0512 21.2946C66.9404 20.231 67.8472 19.176 68.7713 18.1385C69.1549 17.7113 69.5996 17.3451 70.0094 16.9528C70.0791 16.8831 70.1576 16.8133 70.2884 16.6912C69.7652 16.5866 69.3119 16.4646 68.8498 16.4035C67.0276 16.1594 65.2403 16.3163 63.5054 16.9354C62.433 17.319 61.4304 17.8508 60.5759 18.618C60.1923 18.9668 59.861 19.3504 59.5995 19.795C58.5707 21.5649 59.9831 23.0645 61.4304 23.1255C61.657 23.1342 61.875 23.1429 62.1627 23.1517C62.093 23.2737 62.0755 23.3609 62.0145 23.4132C61.4827 23.9014 60.9421 24.3984 60.4016 24.8779C60.3318 24.9389 60.1923 24.9738 60.0877 24.9651C59.303 24.8692 58.562 24.6425 57.943 24.1456C57.0711 23.4394 56.8706 22.5152 57.1409 21.4603C57.4024 20.4315 57.9865 19.5858 58.7015 18.8273C59.7215 17.7287 60.9421 16.9092 62.2935 16.2815C64.5167 15.2527 66.8533 14.8604 69.2857 15.0434C70.0965 15.1045 70.8986 15.2788 71.7007 15.4271C71.8751 15.4619 72.0233 15.4707 72.1628 15.3486C72.4331 15.1219 72.7382 15.0522 73.087 15.0783C73.3747 15.1045 73.6624 15.087 73.9501 15.087C73.9588 15.1132 73.9763 15.1394 73.985 15.1742C73.6624 15.4009 73.3398 15.6363 72.9737 15.8891C73.1219 15.9763 73.2265 16.0461 73.3398 16.1071C74.0983 16.5343 74.7086 17.1272 75.1271 17.8944C75.9031 19.3155 75.7374 20.9284 74.6825 22.1665C73.9152 23.0645 72.9301 23.6312 71.849 24.0497C71.413 24.2153 70.9684 24.3635 70.4976 24.5205C70.7156 25.1743 70.5063 25.7498 70.236 26.3252C70.053 26.7001 69.8524 27.075 69.6693 27.4499C69.5822 27.6242 69.5037 27.7986 69.4427 27.973C69.2944 28.4351 69.4688 28.6879 69.957 28.7141C70.1227 28.7228 70.2971 28.7315 70.454 28.6879C70.9422 28.5484 71.4218 28.3828 71.9013 28.2258C72.0408 28.1822 72.128 28.095 72.1715 27.9381C72.4244 27.0575 72.9562 26.3426 73.6101 25.7236C74.8481 24.5553 76.2954 23.7619 77.9694 23.4045C78.4925 23.2911 79.0243 23.2476 79.5648 23.3522C80.4018 23.5091 80.9511 23.9538 81.1167 24.8169C81.1167 24.8605 81.1516 24.9215 81.1778 25.0087ZM71.3346 17.2144C69.6693 18.836 68.3441 20.6843 67.0276 22.585C68.1436 22.3234 69.0939 22.5762 69.8786 23.3696C70.6109 23.0296 71.2387 22.5937 71.7879 22.0618C72.2151 21.6521 72.5726 21.19 72.7993 20.6407C73.1655 19.7602 73.0434 18.9493 72.4593 18.1995C72.1541 17.8072 71.7879 17.5021 71.3346 17.2144ZM113.68 25.0784C113.689 24.5466 113.436 24.2676 112.939 24.1979C112.582 24.1456 112.224 24.1717 111.884 24.3025C110.524 24.8343 109.495 25.741 108.789 27.0052C108.676 27.2145 108.597 27.4499 108.554 27.6853C108.467 28.1909 108.737 28.5484 109.234 28.653C109.635 28.7402 110.019 28.6443 110.393 28.5135C110.995 28.3043 111.501 27.9555 112.006 27.5807C112.242 27.3976 112.381 27.197 112.416 26.8919C112.486 26.299 112.808 25.8718 113.323 25.6103C113.611 25.4708 113.706 25.2877 113.68 25.0784ZM79.0679 24.163C78.9371 24.1717 78.8063 24.1804 78.6843 24.1979C78.5622 24.224 78.4401 24.2589 78.3181 24.3025C76.9667 24.8343 75.9379 25.7498 75.2317 27.0227C75.1184 27.2319 75.0487 27.476 75.0138 27.7027C74.9353 28.1997 75.1881 28.531 75.6764 28.6443C75.999 28.7228 76.3128 28.6617 76.618 28.5833C77.2632 28.4089 77.8124 28.0427 78.353 27.6591C78.6494 27.4412 78.8499 27.197 78.8674 26.8221C78.8674 26.7524 78.9022 26.6739 78.9284 26.6042C79.0766 26.1247 79.4166 25.8108 79.8351 25.5667C79.9397 25.5056 80.0531 25.4185 80.0879 25.3138C80.2798 24.7297 79.9833 24.2763 79.3643 24.1892C79.2684 24.1717 79.1638 24.1717 79.0679 24.163ZM100.306 27.2232C100.733 27.0575 101.117 26.9355 101.483 26.7785C102.294 26.4211 103.052 25.9852 103.602 25.279C103.802 25.0087 103.959 24.6948 104.081 24.381C104.177 24.1543 104.055 24.0409 103.811 24.0845C102.835 24.2502 101.954 24.6076 101.256 25.3313C100.777 25.837 100.446 26.4298 100.306 27.2232ZM68.8236 23.823C68.4749 23.1342 67.3241 22.9686 66.8794 23.5178C67.3328 24.0758 68.1262 24.2066 68.8236 23.823Z" fill="white"/>
<path fill-rule="evenodd" clip-rule="evenodd" d="M53.8592 26.8122C53.6413 27.0651 53.4407 27.3528 53.1966 27.5794C51.9063 28.8 50.398 29.6021 48.663 29.977C47.983 30.1252 47.2855 30.2124 46.588 30.256C46.1521 30.2822 45.6987 30.2037 45.2628 30.1165C44.853 30.0381 44.5043 29.8201 44.3212 29.4626C43.7109 29.6545 43.1529 29.8724 42.5775 30.0119C41.8103 30.2124 41.0256 30.2647 40.2322 30.0817C39.4999 29.9073 38.9768 29.5324 38.846 28.739C38.846 28.7129 38.8198 28.6954 38.7762 28.6431C37.5469 28.7913 36.2915 28.8 35.0186 28.5385C34.6524 28.9395 34.2775 29.3406 33.9113 29.7504C32.6907 31.1017 31.4614 32.4444 30.0926 33.6562C28.9418 34.6676 27.7212 35.5917 26.3262 36.2456C25.3933 36.6816 24.4169 36.9606 23.3881 36.9867C21.9844 37.0129 20.7464 36.5595 19.5781 35.6789C19.8658 35.4348 20.1361 35.2081 20.3802 34.9989C20.7725 35.2256 21.1213 35.4784 21.5049 35.6441C22.5511 36.08 23.5973 35.9928 24.6174 35.5394C25.4456 35.1645 26.1606 34.6414 26.7709 33.9875C28.3751 32.2787 29.9618 30.5525 31.5486 28.8262C31.5835 28.7913 31.6096 28.7477 31.6707 28.6518C31.5312 28.6867 31.4353 28.7041 31.3481 28.7303C29.8834 29.2098 28.4187 29.6806 26.9016 29.9509C26.2913 30.0555 25.6636 30.0904 25.0446 30.1427C24.8441 30.1601 24.6348 30.1165 24.443 30.0817C23.8327 29.9683 23.6235 29.7242 23.5886 29.0877C23.1614 29.2272 22.7429 29.3667 22.3244 29.4975C21.3044 29.8201 20.2756 30.1078 19.2032 30.1863C18.8632 30.2124 18.5144 30.195 18.1744 30.1514C17.5903 30.0642 17.3636 29.8114 17.3026 29.1924C17.2067 29.2272 17.1195 29.2534 17.0323 29.2883C15.8815 29.7852 14.6957 30.1514 13.4316 30.2386C12.9172 30.2735 12.4115 30.2212 11.9233 30.0468C10.5806 29.5673 9.84825 28.2595 10.0836 26.8122C10.2929 25.5393 10.8596 24.4146 11.6268 23.3946C14.1552 20.0467 17.4857 17.9193 21.6008 17.0388C22.2895 16.8906 23.0132 16.8383 23.7194 16.7947C24.6174 16.7336 25.6113 16.8906 26.5965 17.4137C26.6226 17.405 26.6575 17.405 26.6662 17.3962C26.9975 16.9778 27.4422 16.8731 27.9566 16.908C28.5669 16.9429 29.1772 16.9167 29.7875 16.9167C29.8746 16.9167 29.9705 16.908 30.0577 16.9254C30.2234 16.9516 30.267 17.0475 30.1798 17.1957C30.1275 17.2829 30.0577 17.3614 29.9967 17.4398C28.7151 18.9394 27.4335 20.4477 26.1518 21.9473C24.7743 23.5689 23.4055 25.1993 22.0367 26.8297C21.8362 27.0738 21.6618 27.344 21.4874 27.6056C21.4351 27.6754 21.3915 27.7538 21.3567 27.841C21.2869 28.0154 21.1736 28.1985 21.3044 28.3815C21.4439 28.5646 21.6618 28.5036 21.8362 28.4775C22.0454 28.4513 22.2634 28.399 22.4639 28.3205C23.2311 28.0067 23.9897 27.6928 24.7482 27.3528C24.8964 27.283 25.0272 27.1348 25.1405 27.004C26.457 25.426 27.8258 23.9002 29.2905 22.4617C30.7988 20.9795 32.3943 19.5846 34.1729 18.4337C35.0098 17.8932 35.873 17.4137 36.832 17.1172C37.2331 16.9952 37.6515 16.9167 38.07 16.9342C38.6455 16.9603 38.8721 17.2655 38.6978 17.8234C38.6193 18.0763 38.506 18.3291 38.349 18.5384C37.9218 19.1051 37.4946 19.6805 36.9889 20.1862C35.2104 21.9822 33.1877 23.4643 30.886 24.5193C30.5285 24.6849 30.1536 24.8244 29.7875 24.9552C29.6131 25.0162 29.4823 25.1034 29.369 25.2603C28.8371 26.0188 28.2879 26.7773 27.7473 27.5359C27.6514 27.6666 27.5642 27.8148 27.5032 27.9631C27.4073 28.2072 27.4858 28.338 27.7386 28.4251C28.0874 28.5385 28.4274 28.4513 28.7587 28.3815C29.8834 28.1636 30.9645 27.78 32.0455 27.3876C32.0717 27.3789 32.0804 27.3528 32.124 27.3179C32.0717 27.2046 32.002 27.0912 31.9584 26.9604C31.7404 26.4112 32.0543 25.9665 32.6384 26.0188C32.8738 26.0363 33.1005 26.1409 33.3272 26.2281C33.4579 26.2804 33.5713 26.3589 33.7108 26.446C33.8067 26.3414 33.9026 26.2368 33.9985 26.1322C35.4196 24.5193 36.8843 22.9325 38.4536 21.4591C39.8486 20.1513 41.3133 18.922 42.9873 17.9717C43.7894 17.5183 44.6263 17.1521 45.5418 16.9865C45.7859 16.9429 46.0475 16.9254 46.3003 16.9516C46.7449 17.0039 46.9542 17.3003 46.8321 17.7363C46.7624 18.0065 46.6578 18.2768 46.5008 18.4948C46.1085 19.0353 45.7074 19.5933 45.2366 20.0728C43.5976 21.7729 41.7405 23.1853 39.6306 24.2664C39.1598 24.5105 38.6455 24.6762 38.1572 24.8941C38.0352 24.9465 37.8957 25.0162 37.8172 25.1121C37.1982 25.8706 36.5879 26.6378 35.9776 27.4051C35.9514 27.4312 35.9427 27.4748 35.9166 27.5359C36.8756 27.8497 37.8608 27.8846 38.8634 27.9369C38.907 27.8497 38.9419 27.7713 38.968 27.6928C39.3691 26.5855 40.1189 25.7486 41.0082 25.0249C42.1852 24.0746 43.5278 23.4992 45.0274 23.3161C45.5331 23.2551 46.0475 23.2638 46.5444 23.3771C47.0414 23.4905 47.4773 23.7172 47.7999 24.1967C48.2271 23.7433 48.7763 23.7346 49.3343 23.752C49.6918 23.7607 50.0493 23.7433 50.4067 23.7607C50.5288 23.7695 50.6595 23.8218 50.8514 23.8654C50.6595 24.1182 50.5288 24.31 50.3806 24.5018C49.6133 25.4521 48.8374 26.4024 48.0702 27.3528C47.8783 27.5882 47.7214 27.8584 47.5645 28.1113C47.5034 28.2159 47.4599 28.3467 47.425 28.4687C47.3116 28.9221 47.486 29.1749 47.9481 29.1749C48.2532 29.1749 48.5584 29.1401 48.8548 29.0703C49.9621 28.7826 50.9821 28.2856 51.8714 27.5533C52.1068 27.3615 52.3073 27.1261 52.5079 26.8994C52.6125 26.7686 52.7171 26.6989 52.8915 26.7076C53.1966 26.7163 53.4931 26.7076 53.7982 26.7076C53.8244 26.7425 53.8418 26.7773 53.8592 26.8122ZM23.7281 17.7188C23.7281 17.7363 23.7194 17.7537 23.7194 17.7711C23.606 17.7711 23.4927 17.7624 23.3794 17.7711C23.3009 17.7711 23.2311 17.7973 23.1527 17.806C22.0803 17.9629 21.0951 18.364 20.1448 18.8609C18.3924 19.7938 16.8841 21.0406 15.5327 22.4791C14.8004 23.2638 14.1203 24.092 13.6757 25.0772C13.4926 25.4609 13.3531 25.8793 13.2833 26.3065C13.1787 26.9168 13.3705 27.4487 13.9111 27.7974C14.4167 28.12 14.9922 28.2769 15.585 28.2072C16.9887 28.0415 18.1744 27.3702 19.0986 26.3676C20.912 24.3885 22.6383 22.3222 24.3994 20.2908C24.7046 19.9333 24.9748 19.5497 25.1405 19.0963C25.3236 18.5732 25.1405 18.1199 24.6174 17.9281C24.3297 17.8147 24.0245 17.7799 23.7281 17.7188ZM45.8557 24.1356C45.6551 24.1705 45.4546 24.1967 45.2628 24.2577C43.9463 24.6675 42.9262 25.487 42.1677 26.6204C41.9585 26.9343 41.8015 27.2917 41.7056 27.6579C41.4964 28.4949 42.0544 28.9134 42.7955 28.8175C43.1704 28.7739 43.5365 28.6431 43.8853 28.5036C44.2514 28.3554 44.6176 28.1985 44.8705 27.8759C45.4895 27.0999 46.1085 26.324 46.7188 25.5393C46.8234 25.4085 46.8844 25.2167 46.8844 25.0511C46.9106 24.4757 46.5008 24.1269 45.8557 24.1356ZM38.7762 23.5864C38.7937 23.6125 38.8024 23.6387 38.8198 23.6648C39.2209 23.5951 39.5871 23.4207 39.9445 23.2376C41.5923 22.4007 42.9698 21.2324 44.173 19.8461C44.3997 19.5846 44.574 19.262 44.7397 18.9481C44.8182 18.8086 44.853 18.6343 44.8705 18.4773C44.8966 18.1722 44.7397 18.0588 44.4433 18.1635C44.3474 18.1983 44.2602 18.2507 44.173 18.3117C43.9201 18.4861 43.6673 18.6517 43.4232 18.8348C42.1503 19.82 41.0343 20.9708 39.9707 22.174C39.5783 22.6361 39.186 23.1156 38.7762 23.5864ZM30.6332 23.5951C30.6506 23.6212 30.668 23.6561 30.6767 23.6823C30.8773 23.6125 31.0865 23.5602 31.2783 23.473C33.2225 22.6273 34.8006 21.3021 36.152 19.6979C36.3874 19.4102 36.5356 19.044 36.6925 18.6953C36.771 18.5296 36.8146 18.303 36.6315 18.1635C36.4658 18.0414 36.2827 18.1373 36.1345 18.2332C35.8381 18.425 35.5417 18.6255 35.254 18.8435C33.9723 19.8374 32.8564 21.0057 31.784 22.2263C31.4004 22.6797 31.0168 23.1417 30.6332 23.5951Z" fill="white"/>
</svg>
