<svg width="128" height="72" viewBox="0 0 128 72" fill="none" xmlns="http://www.w3.org/2000/svg">
<path d="M30.3574 5.91828C30.1837 5.84386 29.955 5.7722 29.6738 5.7033C29.4478 5.64817 29.2687 5.59305 29.1419 5.54068C29.0179 5.48831 28.9242 5.42216 28.8608 5.33947C28.8001 5.25954 28.767 5.1493 28.767 5.017C28.767 4.82131 28.8332 4.66971 28.9655 4.55672C29.1006 4.44371 29.2962 4.38583 29.5443 4.38583C30.1562 4.38583 30.4511 4.67247 30.4511 5.25681V5.29815H30.8756V5.25681C30.8756 4.84613 30.7598 4.5292 30.5366 4.31971C30.3133 4.10749 29.9798 4 29.5444 4C29.3018 4 29.0841 4.0441 28.9049 4.12954C28.723 4.21498 28.5824 4.33625 28.4887 4.4906C28.3923 4.64219 28.3454 4.8241 28.3454 5.02255C28.3454 5.25683 28.395 5.44425 28.4942 5.58482C28.5935 5.72263 28.7313 5.83288 28.9022 5.90729C29.0675 5.98171 29.2935 6.05337 29.5719 6.12228C29.8117 6.18567 29.9991 6.24355 30.1314 6.29592C30.2582 6.34829 30.3547 6.41444 30.4208 6.49712C30.4869 6.57705 30.5201 6.69006 30.5201 6.82787C30.5201 7.05112 30.4456 7.22476 30.2968 7.34328C30.148 7.46731 29.9247 7.52794 29.6381 7.52794C29.3376 7.52794 29.1006 7.45077 28.9352 7.29643C28.7726 7.14484 28.6899 6.90229 28.6899 6.57983V6.53849H28.271V6.57983C28.271 7.01255 28.3923 7.34603 28.6293 7.57485C28.8663 7.80362 29.2053 7.91938 29.6381 7.91938C30.035 7.91938 30.3547 7.82016 30.5862 7.62446C30.8233 7.42602 30.9418 7.15591 30.9418 6.82242C30.9418 6.58263 30.8867 6.3897 30.7819 6.24637C30.6744 6.10305 30.5311 5.9928 30.3575 5.91839" fill="white"/>
<path d="M39.3535 6.54699C39.3149 6.84466 39.1964 7.08445 39.0035 7.26083C38.8106 7.43447 38.5653 7.52266 38.2759 7.52266C38.0361 7.52266 37.8239 7.45928 37.6475 7.338C37.4711 7.21397 37.3333 7.03206 37.2368 6.80054C37.1431 6.56626 37.0935 6.28237 37.0935 5.9599C37.0935 5.63743 37.1431 5.35353 37.2368 5.11926C37.3333 4.88775 37.4711 4.70583 37.6502 4.5818C37.8294 4.46053 38.0416 4.39714 38.2869 4.39714C38.5791 4.39714 38.8244 4.48534 39.0118 4.65346C39.1992 4.8271 39.3067 5.05862 39.3343 5.35078L39.3371 5.38661H39.7699L39.767 5.34527C39.7533 5.08894 39.6844 4.85742 39.5631 4.65346C39.4418 4.45226 39.2709 4.28965 39.0504 4.17388C38.8327 4.05812 38.5764 4.00024 38.287 4.00024C37.9535 4.00024 37.6613 4.08017 37.416 4.23728C37.1707 4.39714 36.9805 4.6259 36.851 4.91806C36.7214 5.21022 36.6553 5.56026 36.6553 5.95993C36.6553 6.35958 36.7214 6.70962 36.851 7.0018C36.9805 7.29395 37.1707 7.52272 37.4132 7.68258C37.6558 7.83968 37.9479 7.91961 38.276 7.91961C38.5571 7.91961 38.8107 7.86449 39.0312 7.75149C39.2489 7.63848 39.4253 7.47862 39.5521 7.27467C39.6789 7.07071 39.7588 6.82816 39.7863 6.55807L39.792 6.51397H39.3593L39.3535 6.54699Z" fill="white"/>
<path d="M47.7858 6.43394C47.7858 6.795 47.7004 7.07062 47.5377 7.25256C47.3751 7.43172 47.1408 7.52267 46.8404 7.52267C46.54 7.52267 46.303 7.43171 46.1403 7.25256C45.975 7.07065 45.8923 6.79503 45.8923 6.43394V4.06909H45.4761V6.43944C45.4761 6.91627 45.5946 7.28558 45.8261 7.53642C46.0604 7.78999 46.4022 7.91953 46.8404 7.91953C47.2814 7.91953 47.6232 7.79275 47.8547 7.53918C48.0862 7.28836 48.202 6.91903 48.202 6.43945V4.0691H47.7858V6.43394Z" fill="white"/>
<path d="M55.0529 4.06911H53.9312V7.85339H55.0529C55.6648 7.85339 56.1444 7.68527 56.4806 7.36003C56.8141 7.03205 56.985 6.56074 56.985 5.95986C56.985 5.35901 56.8141 4.88772 56.4806 4.5597C56.1443 4.23446 55.662 4.06909 55.0529 4.06909V4.06911ZM56.5468 5.95986C56.5468 6.44219 56.4172 6.817 56.1609 7.07609C55.9046 7.33519 55.5297 7.46472 55.0529 7.46472H54.3473V4.45497H55.0529C55.5298 4.45497 55.9046 4.5845 56.1609 4.84359C56.4172 5.10267 56.5468 5.47752 56.5468 5.95983" fill="white"/>
<path d="M63.2656 6.1032H65.1343V5.71733H63.2656V4.45496H65.2335V4.06909H62.8467V7.85062H65.2942V7.46475H63.2657L63.2656 6.1032Z" fill="white"/>
<path d="M73.3842 6.2189C73.3236 6.14173 73.2464 6.08385 73.1499 6.03975C73.3263 5.98187 73.4751 5.87989 73.5881 5.73105C73.7259 5.55742 73.7948 5.34518 73.7948 5.09713C73.7948 4.76638 73.6846 4.51006 73.4641 4.33093C73.2491 4.15729 72.9183 4.06909 72.4856 4.06909H71.3584V7.85062H71.7773V6.21895H72.5022C72.6979 6.21895 72.8495 6.26029 72.9487 6.34022C73.0507 6.42015 73.1416 6.5745 73.2188 6.795L73.5799 7.85062H74.0346L73.6267 6.7178C73.5413 6.48628 73.4613 6.31815 73.3842 6.21893V6.2189ZM73.3677 5.11095C73.3677 5.32869 73.296 5.50233 73.1527 5.63463C73.0121 5.76417 72.7916 5.83307 72.5077 5.83307H71.7773V4.45499H72.4801C73.0755 4.45499 73.3676 4.66998 73.3676 5.11097" fill="white"/>
<path d="M81.0957 7.85086H81.5147V4.06934H81.0957V7.85086Z" fill="white"/>
<path d="M90.1837 4.06909H89.6683L88.1689 7.85337H88.6182L89.0812 6.65444H90.7652L91.2173 7.82585L91.2283 7.85341H91.6775L90.1837 4.06909ZM89.9219 4.47977L90.4842 5.93229L90.6109 6.26303H89.2328L89.3624 5.93229C89.536 5.48854 89.7152 5.02829 89.8916 4.55971L89.9219 4.47977Z" fill="white"/>
<path d="M70.209 48.0362C70.4516 48.2897 70.7437 48.3697 71.0772 48.2512V52.6473C71.0772 52.6473 71.0772 52.6391 70.5618 52.6391C66.6701 52.5509 63.0734 51.2637 60.1269 49.1276C61.7282 47.6338 63.5005 45.2882 64.5478 42.9896C65.2148 43.0116 66.0417 43.0006 67.1552 42.8711C67.7257 42.8049 68.062 42.7994 68.6325 42.7774C68.864 42.7691 69.2802 42.6313 69.2168 42.2041C69.181 41.9477 69.0432 41.5949 68.9358 41.3193C68.809 40.9969 69.2251 40.8122 69.3877 41.0658C69.4814 41.2146 69.6854 41.6969 69.7543 41.8568C69.8894 42.1655 70.2532 42.5321 70.5178 42.725C70.7438 42.8904 70.9891 43.0199 71.2537 43.1164C71.7856 43.3066 72.2515 43.6153 72.6594 44.0039C72.7862 44.1252 72.8992 44.263 73.0039 44.4035C73.3705 44.8831 73.4724 45.1201 72.9653 45.6962C72.5078 46.2171 71.951 46.5313 71.2703 46.6278C70.8127 46.6912 70.46 46.5423 70.2642 46.0986C70.2284 46.0186 70.1843 45.9415 70.1402 45.8643C70.0548 45.7127 69.9721 45.5556 69.8729 45.4095C69.7323 45.2 69.5366 45.0815 69.2748 45.1229C68.8531 45.1863 68.4341 45.2524 68.0151 45.3324C67.9435 45.3461 67.7698 45.4591 67.8167 45.4977C68.0399 45.8836 68.2852 46.2337 68.5691 46.5506C68.7042 46.7022 68.8668 46.7739 69.0763 46.7656C69.4842 46.7491 69.5007 46.7656 69.6689 47.1349C69.7488 47.3086 69.826 47.485 69.9224 47.6476C70.0024 47.7854 70.0988 47.9177 70.2091 48.0362L70.209 48.0362ZM71.747 44.4283C71.3722 44.4421 71.0056 44.511 70.6198 44.602C70.6336 44.941 70.7521 45.2221 70.8789 45.4977C70.9919 45.7402 71.1049 45.8064 71.3667 45.7733C71.51 45.754 71.6561 45.7099 71.7829 45.6438C72.0365 45.5005 72.1274 45.2524 72.0613 44.9658C72.0172 44.7756 71.9235 44.613 71.7471 44.4283L71.747 44.4283ZM82.4579 38.9407C82.3559 38.6209 82.1713 38.3646 81.9039 38.1634C81.6807 37.998 81.4602 37.8299 81.2286 37.6728C81.1322 37.6066 81.0192 37.5708 80.9089 37.5267C80.7683 37.4688 80.6498 37.5157 80.5589 37.6314C80.4789 37.7362 80.4128 37.8519 80.3301 37.9567C80.2309 38.0862 80.0958 38.122 79.9387 38.0752C79.7954 38.0338 79.721 37.9208 79.7155 37.7362C79.7127 37.6618 79.7127 37.5846 79.7293 37.5157C79.8533 37.0251 80.0572 36.5731 80.3687 36.1734C80.4128 36.1156 80.4679 36.0659 80.5258 36.0218C80.6774 35.9061 80.8207 35.9116 80.9668 36.0273C81.4932 36.5593 81.9425 36.9838 82.4221 37.3723C82.9402 37.7913 83.0808 38.3921 83.1718 39.0013C83.1552 39.0895 83.1525 39.1639 83.1277 39.23C83.0891 39.332 83.0091 39.3954 82.8934 39.4037C82.7886 39.4119 82.6811 39.4009 82.6232 39.2989C82.5599 39.1859 82.4992 39.0647 82.4579 38.9406V38.9407ZM81.3857 41.7961C81.5869 41.7409 81.722 41.8539 81.7523 42.0607C81.7633 42.1489 81.7633 42.2343 81.7661 42.2756C81.7661 42.86 81.6034 43.1384 80.9117 43.188C80.6223 43.1714 80.5368 43.0943 80.5093 42.9454C80.4459 42.5678 80.5589 42.2454 80.8676 42.0221C81.0164 41.9118 81.2038 41.8485 81.3857 41.7961V41.7961ZM101.693 15.6011L97.3853 27.5545H91.8894V34.1225C91.8838 34.2989 91.8922 34.4753 91.8894 34.6517C91.8205 44.4502 83.9459 52.3959 74.2194 52.6329L73.3126 52.6467V47.1949L73.6433 47.0488C73.9189 46.9331 74.156 46.7704 74.3103 46.5031C74.4839 46.2082 74.7402 46.0897 75.0848 46.0924C75.5589 46.0952 75.6471 46.007 75.738 45.5577C75.8207 45.0671 75.8841 44.6592 75.9696 44.2567C76.0495 43.8791 76.0081 43.5236 75.7987 43.1984C75.4293 42.6168 75.06 42.0325 74.6741 41.462C74.4068 41.0706 74.2662 41.0513 73.9023 41.3793L74.2358 41.9994C74.5004 42.3688 74.7705 42.7381 75.0269 43.1157C75.1096 43.2342 75.184 43.372 75.206 43.5098C75.3025 44.0941 75.2143 44.6536 74.9332 45.1746C74.8973 45.238 74.8091 45.2738 74.7264 45.3344C74.6796 45.238 74.6327 45.1773 74.619 45.1112C74.5969 44.9789 74.5831 44.8466 74.5859 44.7143C74.5859 44.2264 74.4287 43.802 74.12 43.4162C73.7424 42.9476 73.3924 42.457 73.0397 41.9691C72.6951 41.4978 72.7392 40.9989 73.1554 40.5828C73.3346 40.4092 73.522 40.2438 73.7067 40.0729C73.963 39.8414 74.1532 39.5658 74.2689 39.2433C74.3599 38.9952 74.4426 38.7416 74.5004 38.4853C74.641 37.8514 74.6796 37.2064 74.6713 36.556L74.677 36.0709C74.677 35.9496 74.7211 35.8421 74.8065 35.7539C74.9443 35.6133 75.1565 35.6244 75.2613 35.7925C75.3219 35.889 75.3715 35.9992 75.3963 36.1122C75.5231 36.6745 75.592 37.2423 75.5286 37.8183C75.4487 38.5377 75.3026 39.2378 75.0849 39.9268C75.0408 40.0619 74.9664 40.1914 74.9994 40.3678C75.1124 40.3678 75.2117 40.3789 75.3109 40.3678C75.5149 40.343 75.7188 40.3017 75.9228 40.2769C76.6173 40.1997 77.2209 39.9379 77.7087 39.4225C77.932 39.1882 78.1773 38.976 78.4143 38.7527C78.5053 38.6673 78.6101 38.6259 78.7341 38.6783C78.8499 38.7279 78.9188 38.8547 78.8802 39.0118C78.8416 39.1827 78.7919 39.3536 78.7148 39.5107C78.588 39.7753 78.4474 40.0343 78.2875 40.2796C77.9485 40.7978 77.6619 41.3408 77.4442 41.9223C77.3119 42.2806 77.1575 42.6306 77.0335 42.9889C76.9095 43.3528 76.9977 43.4547 77.3643 43.4079C77.6564 43.372 77.7363 43.4354 77.7556 43.7248C77.7639 43.8406 77.7528 43.9591 77.7556 44.0749C77.7585 44.2072 77.7556 44.3422 77.7776 44.4718C77.8686 44.9982 78.4446 45.3345 78.9435 45.1498C79.1778 45.0616 79.3983 44.9431 79.6187 44.8273C79.7869 44.7364 79.944 44.6261 80.1066 44.5241C80.5586 44.2375 81.052 44.0556 81.5895 44.0115C81.81 43.9949 82.0305 43.9949 82.251 44.0005C82.6313 44.0142 82.9345 43.8737 83.1798 43.5843C83.3121 43.4299 83.4499 43.2728 83.6043 43.1378C83.8661 42.9035 84.0618 42.887 84.3622 43.0744C84.5992 43.2205 84.8252 43.3886 85.054 43.5485C85.415 43.802 85.7927 44.0308 86.2006 44.2017C86.5699 44.356 86.953 44.4525 87.3582 44.4111C87.4105 44.4029 87.4574 44.3781 87.5511 44.345C87.4546 44.2568 87.3968 44.1934 87.3306 44.1438C87.1459 44.0005 86.942 43.8764 86.7683 43.7193C86.5203 43.4933 86.2722 43.259 86.0545 43.0027C85.7789 42.6803 85.5281 42.3357 85.2717 41.994C85.1201 41.7955 84.9685 41.5971 84.839 41.3848C84.7756 41.2773 84.7425 41.1395 84.7343 41.0127C84.7205 40.8364 84.8941 40.7123 85.0622 40.7757C85.1835 40.8226 85.3048 40.8915 85.3985 40.9769C85.7458 41.2966 86.0848 41.6219 86.4211 41.9499C86.6305 42.1566 86.8234 42.3798 87.0356 42.581C87.281 42.8153 87.5511 43.0193 87.8818 43.124C88.2401 43.2342 88.4358 43.2315 88.8796 43.0606C88.9292 43 88.6508 42.8732 88.6508 42.8732C87.7165 42.3991 87.0246 41.7625 86.4155 40.908C85.9966 40.3182 85.6576 39.6842 85.3599 39.0282C85.0154 38.2648 84.7618 37.4655 84.4806 36.6772C84.1389 35.7235 83.7944 34.7727 83.436 33.8245C83.199 33.1989 82.8241 32.6559 82.4052 32.1377C81.8512 31.457 81.1704 30.925 80.4566 30.4289C79.7317 29.9217 78.9545 29.511 78.1828 29.0811C76.8984 28.37 75.5561 27.7663 74.3213 26.9643C74.1091 26.8403 74.0099 26.7907 73.9107 26.7493C73.8638 26.73 73.6957 26.6639 73.522 26.6198L73.3126 26.5812V15.6008L101.693 15.6011ZM73.6349 30.4516C73.5439 30.38 73.4585 30.2945 73.3923 30.2008C73.2903 30.0575 73.2904 29.8976 73.3758 29.7433C73.4613 29.5917 73.5991 29.5145 73.7755 29.5173C73.8471 29.52 73.9243 29.5256 73.9905 29.5531C74.1393 29.611 74.2936 29.6661 74.4286 29.7516C75.0819 30.1705 75.6056 30.7163 75.9859 31.3915C76.154 31.6892 76.2422 32.0227 76.245 32.2845C76.2285 32.3975 76.245 32.5408 76.0934 32.607C75.9859 32.6511 75.8701 32.6042 75.7737 32.4443C75.363 31.758 74.7677 31.2674 74.1283 30.8182C73.9601 30.6997 73.792 30.5811 73.6349 30.4516V30.4516ZM58.2495 47.5706C57.9546 47.849 57.6515 48.1191 57.34 48.3781C57.0258 48.64 56.7033 48.888 56.3725 49.1278C53.3214 51.3383 49.573 52.6475 45.5241 52.6475C35.3121 52.6475 27.0024 44.335 27.0024 34.123C27.0024 23.9082 35.3121 15.6013 45.5241 15.6013C49.573 15.6013 53.3216 16.905 56.3725 19.1182C53.5447 21.8689 51.4885 25.4107 50.5679 29.3853C49.3028 28.0403 47.5113 27.1996 45.5241 27.1996C41.7067 27.1996 38.6005 30.3058 38.6005 34.1231C38.6005 37.9405 41.7067 41.0467 45.5241 41.0467C47.5113 41.0467 49.3029 40.2061 50.5679 38.861C50.94 38.4669 51.2653 38.0286 51.5381 37.5518C52.1169 36.5403 52.4505 35.3717 52.4505 34.1231C52.4505 28.8312 54.6803 24.0522 58.2495 20.6731C58.5445 20.3948 58.8476 20.1274 59.1591 19.8684C59.4733 19.6065 59.7958 19.3585 60.1265 19.1187C63.1776 16.9054 66.9041 15.6017 71.0794 15.6017L71.0765 26.9328C71.0765 26.9328 70.9911 27.0182 70.8423 27.0816C70.7762 27.1092 70.4592 27.2139 70.2056 27.2415C68.5298 27.4261 67.0305 28.2144 65.9307 29.3858C65.5587 29.7799 65.2334 30.2209 64.9606 30.6923C64.3818 31.7066 64.0482 32.8752 64.0482 34.1238C64.0482 39.4129 61.8184 44.1946 58.2491 47.5716" fill="white"/>
<path d="M65.9895 60.3657L65.2729 62.3556H63.4345V67.9039H61.439L61.4418 62.3556H59.6034L58.8896 60.3657H65.9895ZM58.2033 65.506H54.9427L54.0801 67.9039H53.4957L56.2023 60.3654H56.941L59.6503 67.9039H59.066L58.2033 65.506ZM56.5716 60.9693L55.1356 64.9658H58.0076L56.5716 60.9693ZM83.7368 64.7563H85.1838C85.5173 64.7563 85.8012 64.6406 86.0354 64.4063C86.2697 64.172 86.3882 63.8881 86.3882 63.5574C86.3882 63.2267 86.2697 62.9428 86.0354 62.7085C85.8012 62.4743 85.5172 62.3557 85.1838 62.3557H83.7368V64.7563ZM87.4439 61.3001C88.0668 61.923 88.3782 62.6782 88.3782 63.5574C88.3782 64.5634 87.9868 65.3876 87.2068 66.027L88.3202 67.904H86.0023L85.3215 66.7464L85.1837 66.752H83.7367V67.9041H81.7439V60.3656H85.1837C86.0657 60.3656 86.8208 60.6771 87.4437 61.2999L87.4439 61.3001ZM44.1771 61.5065C43.783 61.1124 43.3006 60.9139 42.7411 60.9139H40.1006V64.9683H42.7411C43.3006 64.9683 43.783 64.7671 44.1771 64.3702C44.5712 63.9761 44.7697 63.4965 44.7697 62.9397C44.7697 62.3802 44.5712 61.9007 44.1771 61.5065V61.5065ZM44.5547 61.1289C45.0563 61.6251 45.3099 62.2369 45.3099 62.9398C45.3099 63.6426 45.0563 64.2545 44.5547 64.7533C44.0586 65.255 43.4467 65.5085 42.7411 65.5085H40.1007V67.9036H39.5605V60.368H42.7411C43.4467 60.368 44.0586 60.6271 44.5547 61.1287L44.5547 61.1289ZM68.9306 62.9146L68.1588 65.2133H69.6941L68.9306 62.9146ZM67.9356 60.3651H69.9256L72.6404 67.9036H70.6367L70.328 67.0409H67.5332L67.219 67.9036H65.2208L67.9356 60.3651ZM34.8527 67.3632H38.6287V67.9034H34.3125V60.3621H34.8527L34.8527 67.3632ZM51.8306 60.3624H52.3708V67.9037H51.8306V65.503H46.9466V67.9037H46.4064V60.3624H46.9466V64.9625H51.8306V60.3624ZM89.8356 60.3652H91.8256V67.9009H89.8356V60.3652ZM80.076 60.3652V64.5326C80.076 66.4481 78.5242 67.9999 76.6059 67.9999C74.6903 67.9999 73.1385 66.4482 73.1385 64.5326V60.3652H75.1285V64.5326C75.1285 65.3484 75.79 66.0099 76.6059 66.0099C77.4245 66.0099 78.0859 65.3484 78.0859 64.5326V60.3652H80.076ZM30.0787 60.9688L28.6427 64.9653H31.5147L30.0787 60.9688ZM31.7076 65.5055H28.447L27.5871 67.9034H27L29.7093 60.3649H30.448L33.1573 67.9034H32.5702L31.7076 65.5055Z" fill="white"/>
</svg>
