<svg width="128" height="72" viewBox="0 0 128 72" fill="none" xmlns="http://www.w3.org/2000/svg">
<path d="M38.3486 61.313H39.2647V58.464H42.4912V57.6372H39.2647V55.7065H42.7847V54.8798H38.3486V61.313ZM45.6157 55.6687H47.2225V61.3117H48.1404V54.878H45.6157V55.6687ZM52.0955 54.6862C51.4492 54.6862 50.9806 55.1103 50.9806 55.8016C50.9806 56.4862 51.4487 56.9165 52.0955 56.9165C52.7423 56.9165 53.2105 56.4862 53.2105 55.8016C53.2105 55.1103 52.7362 54.6862 52.0955 54.6862ZM52.0955 56.7194C51.5719 56.7194 51.1817 56.3762 51.1817 55.8016C51.1817 55.2269 51.5719 54.8776 52.0955 54.8776C52.6191 54.8776 52.9989 55.223 52.9989 55.8016C52.9989 56.3802 52.6152 56.7194 52.0955 56.7194Z" fill="black"/>
<path d="M52.589 55.5658C52.589 55.3198 52.428 55.1966 52.1165 55.1966H51.6325V56.4075H51.8996V55.956H52.0668L52.3233 56.4079H52.6137L52.3343 55.9116C52.411 55.8936 52.4788 55.8489 52.5257 55.7856C52.5725 55.7223 52.5955 55.6444 52.5904 55.5658H52.589ZM52.1279 55.7378H51.8996V55.4153H52.1284C52.2555 55.4153 52.3127 55.4769 52.3127 55.5706C52.3127 55.6762 52.2555 55.7378 52.1284 55.7378H52.1279ZM58.6144 55.7074H60.8382V61.3122H61.7538V55.707H63.9758V54.8776H58.6135L58.6144 55.7074ZM66.999 61.3135H71.4338V60.4836H67.9169V58.464H71.1412V57.6373H67.9173V55.7061H71.4338V54.8794H66.9986L66.999 61.3135ZM76.4093 54.882L74.1178 61.3144H75.0933L75.678 59.627H78.4654L79.0484 61.3144H80.0239L77.7236 54.882H76.4093ZM75.9693 58.798L77.0693 55.6199L78.1693 58.798H75.9693ZM86.4985 60.62L84.6668 54.8811H83.0964V61.3135H84.0138V55.736L85.7945 61.3117H87.1981L89.0021 55.6687V61.3117H89.92V54.8794H88.3302L86.4985 60.62ZM9 46.8784H12.0039L13.5905 45.0881H22.2092L23.7985 46.8784H26.802L17.9008 37.1544L9 46.8784ZM15.116 43.391L17.9034 40.2538L20.6912 43.3914L15.116 43.391ZM74.1468 37.4571H71.6028V46.8824H74.1468V37.4571ZM95.3284 43.2695L84.7988 37.4523H82.2274V46.8775H84.585V39.9154L97.7115 47.1464V37.4523H95.3284V43.2695ZM34.8161 37.4571H32.2698V46.8824H43.8379L44.5502 45.1862H34.8152L34.8161 37.4571ZM108.335 45.1853V42.936H118.663V41.2403H108.335V39.152H118.663V37.4558H105.791V46.8811H118.527L119 45.1849L108.335 45.1853ZM60.7893 37.4571H49.8976V46.8824H52.4425V43.7315H60.6705C63.7276 43.7315 64.9126 42.4516 64.9126 40.5543C64.9126 38.7226 63.6194 37.4571 60.7915 37.4571H60.7893ZM60.1852 42.0331H52.4425V39.152H60.1716C61.7067 39.152 62.1771 39.6228 62.1771 40.6212C62.1771 41.4946 61.5171 42.0331 60.1848 42.0331" fill="black"/>
<path d="M55.9054 69.0403L53.8643 70.6521H61.243L63.2846 69.0386L55.9054 69.0403Z" fill="#2173B8"/>
<path d="M63.2856 69.0403L61.2427 70.6521H64.6853L66.727 69.0386L63.2856 69.0403Z" fill="#FFFFFD"/>
<path d="M66.732 69.0402L64.6904 70.6536H72.0969L74.1385 69.0402H66.732Z" fill="#E12319"/>
<path d="M47.7745 7.04603V15.8183C47.5313 14.9667 47.1776 14.1506 46.7224 13.3908C45.8758 11.9808 44.7044 10.7935 43.3058 9.92803L43.279 9.89679L27.3066 1V3.28272L23.8394 1.45936V18.9137C23.8363 20.2701 24.1037 21.6134 24.626 22.8652C25.1483 24.117 25.9149 25.2521 26.8811 26.2041C28.1914 27.5009 29.8226 28.4267 31.6079 28.8867C33.3931 29.3468 35.2685 29.3246 37.0424 28.8225C37.3236 28.8458 37.5968 28.8568 37.8692 28.8568C40.1017 28.8612 42.2752 28.1398 44.0621 26.8014C45.8489 25.4629 47.1523 23.5799 47.7758 21.4362V28.7895H60.4302C61.7874 28.7901 63.114 28.3858 64.2401 27.6282C65.3662 26.8706 66.2407 25.7943 66.7516 24.5369L68.2476 28.7895H76.7554L77.3274 26.6595L77.8994 28.7895H86.4016L90.5336 17.0353H90.637V28.7895H101.392V17.0353H104.724V7.04735H82.9278L82.0614 9.49199L81.404 7.04823H73.2429L72.586 9.49023L71.7205 7.04823L47.7745 7.04603Z" fill="white"/>
<path d="M102.526 9.18401H91.6933L89.7296 14.772H92.8378V26.5275H99.1931V14.772H102.525L102.526 9.18401ZM84.4826 9.18401L81.7731 16.8246L79.7183 9.18401H74.9302L72.8754 16.8246L70.1668 9.18401H63.7071L69.8038 26.5275H75.0648L77.3234 18.0874L79.5819 26.5275H84.843L90.9431 9.18401H84.4826ZM61.9317 17.6245C62.5927 17.2171 63.1385 16.6475 63.5176 15.9699C63.8966 15.2922 64.0962 14.529 64.0974 13.7525C64.0974 11.2304 62.0369 9.18489 59.4946 9.18489H49.9752V26.5275H60.4296C62.9763 26.5275 65.0412 24.4784 65.0412 21.9515C65.0412 19.9468 63.7406 18.244 61.9317 17.625V17.6245ZM55.3031 13.4854H57.0046C57.5115 13.4854 57.9229 14.0077 57.9229 14.651C57.9229 15.2943 57.5115 15.8166 57.0046 15.8166H55.3031V13.4854ZM57.9018 22.721H55.3194V20.184H57.9018C58.4685 20.184 58.9287 20.752 58.9287 21.4521C58.9287 22.1521 58.4685 22.7193 57.9018 22.7193V22.721ZM41.8673 11.5706L41.8602 11.5622L29.5072 4.68018V6.86213L26.04 5.03833V18.8517C26.04 23.3256 29.6951 26.9538 34.2056 26.9538C35.0955 26.9537 35.9794 26.8092 36.8231 26.5262C37.1698 26.5709 37.519 26.5938 37.8686 26.5948C42.3416 26.5948 45.9676 22.996 45.9676 18.5578C45.9676 15.5658 44.3159 12.953 41.8677 11.5706H41.8673ZM34.2056 25.7218C30.382 25.7218 27.2826 22.6462 27.2826 18.8517V7.05309L31.1436 9.18401V18.8512C31.1436 20.5298 32.5146 21.8899 34.2056 21.8899C35.8965 21.8899 37.2675 20.5298 37.2675 18.8512C37.2658 18.1927 37.0504 17.5526 36.6536 17.027C36.2569 16.5015 35.7003 16.1188 35.0675 15.9367V12.0356C38.4846 12.4567 41.1303 15.3471 41.1303 18.8517C41.1303 22.6462 38.03 25.7218 34.2078 25.7218" fill="#005CA9"/>
</svg>
