<svg width="128" height="72" viewBox="0 0 128 72" fill="none" xmlns="http://www.w3.org/2000/svg">
<path d="M65.0596 35.9827C65.0596 40.6886 65.0922 47.9629 65.2734 54.1204H65.3131C65.4944 47.9642 65.5289 40.3672 65.5289 35.6786C65.5289 33.9439 65.5238 25.1449 65.3131 18H65.2734C65.1287 22.9165 65.0596 29.3059 65.0596 35.9827V35.9827Z" fill="#D0DB25"/>
<path d="M33.0986 33.5437C26.8463 33.5437 17.181 33.5757 9 33.7569V33.7973C17.1804 33.9785 27.2735 34.0131 33.5065 34.0131C35.8118 34.0131 47.5019 34.0073 56.9956 33.7973V33.7569C50.459 33.6122 41.9699 33.5437 33.0986 33.5437Z" fill="#D0DB25"/>
<path d="M54.3432 20.0364H36.5942C36.274 20.0364 35.8258 20.0306 35.35 20.5058C34.9018 20.954 35.035 21.4022 34.2922 21.4022H31.7026C30.9605 21.4022 31.0962 20.9585 30.6454 20.5058C30.1697 20.0306 29.7214 20.0364 29.4012 20.0364H11.6516C11.0433 20.0364 10.7775 20.5768 11.067 21.0609L11.3871 21.595C11.5581 21.8883 11.7841 21.9337 11.9493 21.9664C12.1024 21.9971 12.194 22.0157 12.3124 22.2225L12.5942 22.7181C12.8112 23.1203 13.0725 23.1677 13.264 23.2035C13.4177 23.233 13.5547 23.2451 13.7436 23.5877C13.9479 23.9598 14.2238 24.4298 14.8712 24.6225L21.502 26.5563C22.1916 26.7798 22.3677 27.0321 22.5713 27.3248C22.6776 27.4778 23.0068 28.0291 23.9001 28.2718L30.2055 29.9758C30.7972 30.1352 31.2108 29.9117 31.4977 29.6556L32.6414 28.5728C32.9353 28.2949 33.0602 28.2949 33.3534 28.5728L34.4971 29.6556C34.7846 29.9117 35.1976 30.1359 35.7893 29.9758L42.0947 28.2718C42.9912 28.0311 43.3172 27.4778 43.4241 27.3248C43.6277 27.0321 43.8032 26.7798 44.4928 26.5563L51.1242 24.6225C51.7716 24.4304 52.0476 23.9598 52.2519 23.5877C52.4408 23.2445 52.5778 23.2323 52.7315 23.2035C52.9236 23.1677 53.1842 23.1177 53.4013 22.7149L53.683 22.2193C53.8009 22.0125 53.8931 21.9939 54.0455 21.9632C54.2107 21.9305 54.4367 21.885 54.6083 21.5918L54.9285 21.0577C55.2179 20.5768 54.9522 20.0364 54.3432 20.0364ZM11.6606 21.1352L11.4685 20.815C11.4102 20.7183 11.373 20.5032 11.6477 20.5032H29.4012C29.7592 20.5032 30.1632 20.4987 30.5539 21.1775C30.6088 21.2787 30.6713 21.3757 30.7408 21.4675H12.7504C12.0185 21.4675 11.877 21.4714 11.6618 21.1358L11.6606 21.1352ZM23.1752 21.8281H42.8196V24.9062H23.1752V21.8281ZM13.0687 22.5869C12.9028 22.4204 12.794 22.0746 12.6435 21.8703L22.8249 21.8281V22.2763L14.2078 22.7764C13.5412 22.8206 13.2653 22.7828 13.0687 22.5843V22.5869ZM14.4019 23.7606C14.3085 23.6361 14.2254 23.5041 14.1534 23.3662C14.1194 23.3034 14.0818 23.2427 14.0407 23.1843C14.1649 23.1773 14.188 23.1741 14.4179 23.16L22.8217 22.6413V23.1203L16.182 23.8304C15.2855 23.9258 14.6778 24.0603 14.4019 23.7574V23.7606ZM16.677 24.6622L15.4674 24.31C16.2729 24.2133 22.8204 23.4827 22.8204 23.4827V24.0167L18.5622 24.7C18.0729 24.7794 17.4793 24.8767 16.6757 24.6635L16.677 24.6622ZM19.6296 25.5222L18.2849 25.1297C18.413 25.1124 18.4885 25.0989 18.63 25.0752L22.8268 24.376V24.9523L21.2458 25.4005C21.2324 25.4044 20.261 25.6957 19.6315 25.5235L19.6296 25.5222ZM21.6358 26.1081L20.861 25.8821C21.0258 25.8507 21.1889 25.811 21.3496 25.763L23.0657 25.2609H24.9867L23.2111 26.0876C22.645 26.3085 22.1423 26.2419 21.6377 26.1081L21.6358 26.1081ZM23.4012 27.5386C23.1867 27.392 23.0759 27.2325 22.953 27.0597C22.8475 26.8956 22.7224 26.745 22.5803 26.6114C22.7213 26.6024 22.8612 26.581 22.9985 26.5474C23.2265 26.4765 23.4501 26.3923 23.6683 26.2951L25.8038 25.2571H27.2247L24.4322 27.2402C24.0025 27.5188 23.6606 27.6244 23.4012 27.5374V27.5386ZM25.5099 28.2225L24.1421 27.853C24.3213 27.7779 24.4929 27.6857 24.6544 27.5777C24.7965 27.4848 24.6326 27.6014 27.8766 25.2597H29.0651L26.8764 27.5009C26.4922 27.8953 26.0695 28.3333 25.5124 28.2251L25.5099 28.2225ZM27.673 28.8091L26.3859 28.4607C26.7387 28.2558 27.0493 27.912 27.1703 27.7864L29.6036 25.2622H30.673L28.7321 28.2878C28.4119 28.7707 28.0469 28.875 27.6704 28.8065L27.673 28.8091ZM29.9282 29.4161L28.5579 29.046C28.7776 28.9026 28.9614 28.7107 29.0952 28.4851L31.127 25.2597H32.0478C32.0478 25.2597 30.8548 28.7553 30.7716 28.9314C30.534 29.4437 30.2593 29.4827 29.9282 29.4161ZM34.8102 29.3073L33.6755 28.2328C33.1998 27.7845 32.7951 27.7845 32.3199 28.2328L31.1852 29.3073C31.1068 29.3788 31.0186 29.439 30.9233 29.4859C31.1334 29.2298 31.2557 28.8616 31.3351 28.6215L32.4595 25.2597H33.5353L34.6597 28.6215C34.7423 28.8693 34.864 29.2291 35.0721 29.4859C34.9768 29.439 34.8887 29.3788 34.8102 29.3073V29.3073ZM36.0666 29.4161C35.7342 29.4801 35.4614 29.4437 35.2232 28.9314C35.1406 28.754 33.9477 25.2597 33.9477 25.2597H34.8698L36.9016 28.4851C37.0351 28.7109 37.219 28.9028 37.4388 29.046L36.0666 29.4161ZM38.3276 28.8065C37.9505 28.875 37.5855 28.7707 37.2653 28.2878L35.3244 25.2597H36.3944L38.8277 27.7839C38.9487 27.912 39.2593 28.2533 39.6121 28.4582L38.3276 28.8065ZM40.4875 28.2225C39.931 28.3307 39.509 27.8927 39.1242 27.4983L36.9355 25.2571H38.124C38.124 25.2571 41.204 27.4823 41.3462 27.5751C41.5077 27.6831 41.6793 27.7753 41.8585 27.8505L40.4875 28.2225ZM43.0425 27.0584C42.9221 27.2313 42.8113 27.3907 42.5942 27.5374C42.3381 27.6219 41.9929 27.5188 41.5633 27.2402C41.441 27.1615 38.7675 25.2597 38.7675 25.2597H40.1891C40.1891 25.2597 41.8322 26.0703 42.324 26.2976C42.5981 26.4257 42.9528 26.5884 43.4126 26.6114C43.2703 26.7449 43.1452 26.8954 43.0399 27.0597L43.0425 27.0584ZM44.3641 26.1081C43.8589 26.2426 43.3569 26.3085 42.7908 26.0876C42.5865 26.0089 41.0151 25.2609 41.0151 25.2609H42.9362L44.6523 25.763C44.813 25.8109 44.9761 25.8507 45.1409 25.8821L44.366 26.1081L44.3641 26.1081ZM46.371 25.5235C45.7415 25.6957 44.7567 25.4005 44.7567 25.4005L43.175 24.9523V24.376L47.3718 25.0752C47.5133 25.0989 47.5927 25.1124 47.717 25.1297L46.3722 25.5222L46.371 25.5235ZM49.3217 24.6622C48.518 24.8754 47.9238 24.7781 47.4346 24.6987L43.1731 24.0167V23.4827L50.5268 24.31L49.3185 24.6622L49.3217 24.6622ZM51.8388 23.363C51.7678 23.5018 51.6858 23.6348 51.5936 23.7606C51.3176 24.0635 50.7067 23.929 49.8128 23.8336L43.1731 23.1203V22.6387L51.5769 23.1574C51.8075 23.1715 51.8331 23.1747 51.9541 23.1817C51.9126 23.2401 51.8741 23.3006 51.8388 23.363V23.363ZM52.7994 22.6451C52.4747 22.8526 52.1065 22.7924 51.0122 22.729L43.1763 22.2744V21.8261L53.3539 21.8703C53.1458 22.1623 53.0869 22.4607 52.7994 22.6432V22.6451ZM54.5283 20.815L54.3362 21.1352C54.1191 21.4714 53.9769 21.4675 53.2476 21.4669H35.254C35.3237 21.3752 35.3862 21.2782 35.441 21.1768C35.8303 20.4981 36.2343 20.5025 36.5936 20.5025H54.3483C54.6231 20.5025 54.5859 20.7177 54.527 20.8144L54.5283 20.815ZM34.4779 24.2902C34.4324 23.735 34.4004 23.4071 34.3754 23.1843C34.1742 23.5344 33.9915 23.8947 33.8279 24.2639H33.7082C33.4098 23.655 33.3746 23.5852 33.2894 23.4257C33.2619 23.3738 33.2254 23.3098 33.169 23.1958C33.144 23.4155 33.0986 23.8477 33.0666 24.2902H32.7566C32.845 23.6498 32.9859 22.5612 32.9974 22.471H33.1837C33.1837 22.471 33.6237 23.3495 33.8158 23.6806C34.0386 23.2727 34.1833 22.9807 34.4702 22.471H34.6386C34.6687 22.7329 34.7667 23.5659 34.8557 24.2902H34.4779ZM40.0886 22.471H39.7268V24.2902H40.0886V22.471ZM39.0064 24.2902V22.7399C39.1874 22.7412 39.3681 22.7541 39.5475 22.7783V22.471H38.0811V22.777C38.269 22.7544 38.4579 22.742 38.6471 22.7399V24.2902H39.0064ZM27.6461 24.2902V22.7399C27.8271 22.7412 28.0078 22.754 28.1872 22.7783V22.471H26.7208V22.777C26.9086 22.7544 27.0976 22.7421 27.2868 22.7399V24.2902H27.6461ZM31.8557 24.2902V22.471H31.572V23.6453L30.4873 22.471H30.2856V24.2902H30.5711V23.0601L31.6725 24.2902H31.8557ZM25.5214 23.7779V24.1839C25.6665 24.2856 25.8399 24.3391 26.017 24.3369C26.4089 24.3369 26.7566 24.1166 26.7566 23.7414C26.7579 23.6418 26.7289 23.5443 26.6734 23.4616C26.6179 23.3789 26.5387 23.315 26.4461 23.2784C26.2181 23.1747 26.0695 23.1504 25.969 23.0658C25.7891 22.9141 25.9351 22.6714 26.1803 22.6714C26.2546 22.6714 26.4365 22.6912 26.4877 22.8731H26.6222V22.5401C26.4807 22.4696 26.3256 22.4304 26.1675 22.4255C26.0238 22.424 25.8834 22.4689 25.7673 22.5536C25.4894 22.7566 25.4125 23.1689 25.8064 23.4059C26.0529 23.5538 26.391 23.5339 26.3993 23.8061C26.4051 24.0065 26.2136 24.0808 26.0708 24.0808C25.7859 24.0808 25.6962 23.8291 25.6725 23.7785L25.5214 23.7779ZM25.5118 24.2902L24.7146 22.4332H24.5635L23.7368 24.2902H24.0781C24.128 24.1164 24.187 23.9455 24.2548 23.7779H24.9022C24.9835 23.977 25.0463 24.1557 25.0943 24.2902H25.5118ZM24.3553 23.5397C24.395 23.4481 24.4014 23.4315 24.5795 23.0114C24.7536 23.4116 24.7671 23.4398 24.8068 23.5397H24.3553ZM30.0499 23.3802C30.0499 22.7399 29.5722 22.4095 29.1054 22.4095C28.6386 22.4095 28.1609 22.7361 28.1609 23.3802C28.1609 24.0244 28.6386 24.3516 29.1067 24.3516C29.5748 24.3516 30.0512 24.0244 30.0512 23.3802H30.0499ZM29.1067 24.1115C28.8192 24.1115 28.5605 23.8413 28.5605 23.3802C28.5605 22.9006 28.8352 22.649 29.1067 22.649C29.3782 22.649 29.6529 22.9006 29.6529 23.3802C29.6529 23.8599 29.3775 24.1115 29.1067 24.1115ZM36.7908 24.2902H37.1494V23.5403H37.239L37.8467 24.2895H38.295L37.6098 23.4904C37.7 23.4578 37.7822 23.4065 37.8512 23.3399C37.8984 23.2931 37.9358 23.2375 37.9613 23.1761C37.9869 23.1148 38 23.049 38 22.9826C38 22.9162 37.9869 22.8504 37.9613 22.7891C37.9358 22.7277 37.8984 22.6721 37.8512 22.6253C37.7449 22.5196 37.6226 22.4582 37.3114 22.4582C37.3114 22.4582 36.8952 22.462 36.7882 22.4697L36.7908 24.2902ZM37.1481 22.6893C37.1891 22.6836 37.2303 22.6807 37.2717 22.6804C37.6412 22.6804 37.6527 22.9563 37.6527 22.9928C37.6527 23.1849 37.483 23.3578 37.1481 23.3002V22.6893ZM36.6999 24.2902L35.9026 22.4332H35.7515L34.9248 24.2902H35.2661C35.3161 24.1164 35.3751 23.9455 35.4429 23.7779H36.0864C36.1677 23.977 36.2305 24.1557 36.2785 24.2902H36.6999ZM35.5396 23.5397C35.5793 23.4481 35.5863 23.4315 35.7643 23.0114C35.9379 23.4116 35.9519 23.4398 35.991 23.5397H35.5396ZM42.0262 24.2902V22.471H41.7419V23.6453L40.6578 22.471H40.4555V24.2902H40.7417V23.0601L41.8425 24.2902H42.0262Z" fill="white"/>
<path d="M29.6788 49.1348H29.4527L28.0747 52.2283H28.6011C28.6858 51.9352 28.7861 51.6469 28.9014 51.3644H30.0258C30.1635 51.7 30.2698 52.0048 30.3505 52.2283H31.0081L29.6788 49.1348ZM29.4655 50.0312C29.7991 50.7997 29.8036 50.7997 29.8818 51.0039H29.0493C29.137 50.8009 29.1383 50.7965 29.4623 50.0312" fill="white"/>
<path d="M50.6804 49.1348H50.4537L49.0757 52.2283H49.6027C49.6871 51.9351 49.7874 51.6468 49.903 51.3644H51.0274C51.1645 51.7 51.2708 52.0048 51.3521 52.2283H52.0091L50.6804 49.1348ZM50.4665 50.0312C50.8001 50.7997 50.8046 50.7997 50.8834 51.0039H50.0509C50.138 50.8009 50.1393 50.7965 50.4633 50.0312" fill="white"/>
<path d="M21.7731 52.2282C21.6937 51.2677 21.6367 50.6914 21.5938 50.3072C21.0745 51.2421 20.8484 51.6986 20.6384 52.1814H20.4617C19.9366 51.1089 19.8815 51.0045 19.7605 50.7772C19.708 50.6786 19.6497 50.5691 19.5229 50.3238C19.5005 50.5159 19.4057 51.3624 19.343 52.2263H18.8691C19.0196 51.1377 19.2572 49.3012 19.2706 49.1949H19.5517C19.5946 49.28 19.6363 49.3627 19.676 49.4433C20.0237 50.1375 20.2977 50.6856 20.6307 51.2549L20.6352 51.2626L20.6403 51.2542C20.7902 50.9795 20.9266 50.7227 21.0585 50.4743C21.2621 50.0901 21.4734 49.6918 21.7532 49.1936H22.0062C22.0171 49.2897 22.1887 50.7874 22.3667 52.225L21.7731 52.2282Z" fill="white"/>
<path d="M55.1265 52.2282C55.0477 51.2677 54.9907 50.6914 54.9478 50.3072C54.4285 51.2421 54.2024 51.6986 53.9924 52.1814H53.8182C53.2932 51.1089 53.2381 51.0045 53.1171 50.7772C53.0646 50.6786 53.0063 50.5691 52.8795 50.3238C52.8571 50.5159 52.7617 51.3624 52.6996 52.2263H52.2231C52.3736 51.1377 52.6112 49.3012 52.6246 49.1949H52.9057L53.03 49.4433C53.3777 50.1375 53.6518 50.6856 53.9847 51.2549L53.9892 51.2626L53.9937 51.2542C54.1442 50.9795 54.2805 50.7227 54.4125 50.4743C54.6161 50.0901 54.8274 49.6918 55.1072 49.1936H55.3608C55.3723 49.2897 55.5439 50.7874 55.722 52.225L55.1265 52.2282Z" fill="white"/>
<path d="M14.042 52.332C13.6363 52.3378 13.244 52.1867 12.9471 51.91C12.6909 51.6667 12.4668 51.2767 12.4668 50.7126C12.4668 50.1485 12.6903 49.7579 12.9471 49.5152C13.244 49.2386 13.6363 49.0874 14.042 49.0932C14.4262 49.0932 15.1639 49.2533 15.4854 50.023C15.5735 50.242 15.617 50.4765 15.6134 50.7126C15.6134 51.2774 15.39 51.6674 15.1332 51.91C14.8365 52.1866 14.4444 52.3377 14.0388 52.332H14.042ZM14.0388 51.9709C14.5082 51.9709 14.984 51.5386 14.984 50.7126C14.984 49.8866 14.5082 49.4543 14.0388 49.4543C13.5707 49.4543 13.0982 49.8866 13.0982 50.7126C13.0982 51.5386 13.5739 51.9709 14.044 51.9709H14.0388Z" fill="white"/>
<path d="M34.0687 52.332C33.6632 52.3378 33.2711 52.1866 32.9744 51.91C32.7183 51.6667 32.4941 51.2768 32.4941 50.7126C32.4941 50.1485 32.717 49.7579 32.9744 49.5152C33.271 49.2385 33.6632 49.0873 34.0687 49.0932C34.4529 49.0932 35.1913 49.2533 35.5127 50.023C35.6008 50.242 35.6444 50.4765 35.6408 50.7126C35.6408 51.2774 35.4179 51.6674 35.1612 51.91C34.8643 52.1867 34.4719 52.3378 34.0662 52.332H34.0687ZM34.0662 51.9709C34.5362 51.9709 35.012 51.5387 35.012 50.7126C35.012 49.8866 34.5362 49.4543 34.0662 49.4543C33.5968 49.4543 33.121 49.8866 33.121 50.7126C33.121 51.5387 33.5968 51.9709 34.0662 51.9709Z" fill="white"/>
<path d="M16.1553 49.1928C16.3205 49.1826 17.0101 49.1755 17.0172 49.1755C17.5359 49.1755 17.7388 49.2767 17.9137 49.4522C17.9938 49.5307 18.0568 49.6249 18.0987 49.7289C18.1407 49.833 18.1608 49.9445 18.1576 50.0567C18.1511 50.2712 18.0635 50.4754 17.9124 50.6278C17.7896 50.7447 17.643 50.8336 17.4827 50.8885L18.6225 52.2274H17.9284L16.9038 50.9621H16.7181V52.2293H16.1559L16.1553 49.1928ZM16.9455 49.5079C16.87 49.5083 16.7947 49.514 16.7201 49.5252H16.7156V50.5971H16.7194C16.7957 50.6114 16.873 50.6189 16.9506 50.6195C17.4052 50.6195 17.6121 50.3282 17.6121 50.0579C17.6105 49.9181 17.5558 49.7842 17.459 49.6833C17.3431 49.5668 17.1702 49.5079 16.9467 49.5079" fill="white"/>
<path d="M26.1421 52.2276V49.1956H26.7043V51.8261H27.9575L27.9568 52.2276H26.1421Z" fill="white"/>
<path d="M41.8104 49.3159H41.5786V49.1956H42.194V49.3159H41.959V49.9851H41.8104V49.3159Z" fill="white"/>
<path d="M42.9958 49.6631C42.9913 49.5613 42.9849 49.4384 42.9862 49.3314H42.9823C42.9561 49.4275 42.9221 49.5344 42.8863 49.6337L42.7678 49.9756H42.6481L42.5392 49.6382C42.5078 49.5376 42.479 49.43 42.4573 49.3314C42.4541 49.4345 42.4489 49.56 42.4432 49.6676L42.4246 49.9878H42.2856L42.3401 49.1982H42.5373L42.6436 49.5184C42.6731 49.6106 42.698 49.7048 42.7185 49.7925H42.7224C42.7441 49.7067 42.7717 49.6093 42.803 49.5171L42.9157 49.2008H43.1123L43.1591 49.9903H43.0144L42.9958 49.6631Z" fill="white"/>
<path d="M38.5199 52.2282C38.3919 52.0668 37.489 51.0704 36.6252 50.115V52.2282H36.1865V49.1968H36.4964L38.3611 51.2171V49.1968H38.7972V52.2282H38.5199Z" fill="white"/>
<path d="M45.1476 52.2282V49.6072C44.8278 49.6099 44.5085 49.63 44.1909 49.6674V49.1968H46.6242V49.6693C46.3209 49.6284 46.0152 49.607 45.7092 49.6053V52.2256L45.1476 52.2282Z" fill="white"/>
<path d="M40.037 51.8254V50.8469H41.1192V50.4781H40.037V49.5816C40.2931 49.5816 40.6549 49.5816 41.2716 49.6194V49.1917H39.4741V52.223H41.3215V51.7818C40.9143 51.8055 40.4442 51.8254 40.037 51.8254Z" fill="white"/>
<path d="M47.5822 51.8254V50.8469H48.6651V50.4781H47.5822V49.5816C47.8384 49.5816 48.2002 49.5816 48.8175 49.6194V49.1917H47.02V52.223H48.8674V51.7818C48.4595 51.8055 47.9895 51.8254 47.5822 51.8254Z" fill="white"/>
<path d="M24.9726 49.1956C24.9931 50.361 24.9835 50.822 24.9835 50.822C24.9835 51.2005 24.9605 51.8831 24.2273 51.8831C23.9679 51.8831 23.4486 51.8402 23.4486 50.9763C23.4486 50.1932 23.4678 49.2308 23.4685 49.1956H22.8774V50.9738C22.8774 52.2167 23.8789 52.2692 24.128 52.2692C24.8452 52.2692 25.4087 51.9426 25.4215 50.9501L25.4254 49.1956H24.9726Z" fill="white"/>
<path d="M12.1166 49.6305V49.1982H10.2725V52.2303H10.8353V50.9252H11.9777V50.527H10.8353V49.5863C11.4014 49.5863 11.7318 49.6023 12.116 49.6279" fill="white"/>
<path d="M56.8333 37.1938C56.8333 37.3116 56.7983 37.4268 56.7329 37.5248C56.6674 37.6228 56.5744 37.6992 56.4656 37.7444C56.3567 37.7896 56.2369 37.8014 56.1213 37.7785C56.0057 37.7556 55.8995 37.699 55.816 37.6158C55.7326 37.5325 55.6757 37.4264 55.6526 37.3108C55.6294 37.1953 55.6411 37.0755 55.686 36.9665C55.7309 36.8575 55.8071 36.7643 55.905 36.6987C56.0029 36.633 56.118 36.5978 56.2358 36.5976C56.394 36.5978 56.5457 36.6606 56.6577 36.7723C56.7696 36.884 56.8328 37.0356 56.8333 37.1938V37.1938ZM56.7526 37.1938C56.7515 37.0927 56.7205 36.9942 56.6635 36.9107C56.6065 36.8273 56.5261 36.7625 56.4324 36.7246C56.3387 36.6867 56.2359 36.6774 56.1369 36.6978C56.0379 36.7182 55.9472 36.7674 55.8761 36.8393C55.805 36.9112 55.7568 37.0025 55.7375 37.1017C55.7182 37.2009 55.7287 37.3036 55.7676 37.3969C55.8066 37.4901 55.8722 37.5698 55.9563 37.6258C56.0404 37.6819 56.1393 37.7118 56.2403 37.7118C56.3767 37.7101 56.5069 37.6548 56.6027 37.5579C56.6986 37.4609 56.7524 37.3301 56.7526 37.1938V37.1938ZM56.3453 37.245L56.5253 37.5216H56.385L56.223 37.2584H56.1289V37.5216H56.0149V36.8627H56.2634C56.2897 36.8623 56.3158 36.867 56.3403 36.8767C56.3648 36.8864 56.3871 36.9008 56.4061 36.9191C56.425 36.9374 56.4401 36.9593 56.4505 36.9835C56.461 37.0076 56.4666 37.0336 56.467 37.0599C56.4692 37.1001 56.4583 37.1399 56.4359 37.1732C56.4135 37.2066 56.3808 37.2318 56.3428 37.245H56.3453ZM56.1289 37.1592H56.2512C56.264 37.1597 56.2768 37.1576 56.2889 37.1531C56.3009 37.1486 56.3119 37.1417 56.3212 37.1329C56.3305 37.124 56.3379 37.1134 56.3431 37.1017C56.3482 37.0899 56.3509 37.0772 56.3511 37.0644C56.3509 37.0517 56.3481 37.0392 56.3429 37.0276C56.3377 37.016 56.3302 37.0056 56.3208 36.997C56.3115 36.9884 56.3005 36.9817 56.2886 36.9775C56.2766 36.9732 56.2639 36.9714 56.2512 36.9722H56.1289V37.1592ZM34.4853 38.5333H35.3818V43.9122H34.4853V38.5333ZM31.2042 38.4136C30.6317 38.4128 30.0768 38.6118 29.6354 38.9765V38.5333H28.7389V43.9122H29.6354V40.8776C29.6354 40.4616 29.8007 40.0625 30.0949 39.7683C30.3891 39.4741 30.7881 39.3088 31.2042 39.3088C31.6203 39.3088 32.0193 39.4741 32.3136 39.7683C32.6078 40.0625 32.7731 40.4616 32.7731 40.8776V43.9097H33.6695V40.8783C33.6695 40.2246 33.4099 39.5977 32.9476 39.1355C32.4854 38.6733 31.8585 38.4136 31.2049 38.4136H31.2042ZM26.9485 38.5321H27.845V43.706C27.845 45.2557 26.4913 46.512 25.039 46.512C23.7 46.512 22.7171 45.6949 22.3668 44.5667H23.3274C23.6245 45.1891 24.2059 45.6155 25.0364 45.6155C25.9925 45.6155 26.9459 44.7607 26.9459 43.706V43.2732C26.5459 43.6448 26.046 43.8915 25.5077 43.9832C24.9695 44.0749 24.4161 44.0074 23.9156 43.7892C23.4151 43.571 22.9891 43.2114 22.69 42.7546C22.3908 42.2979 22.2314 41.7637 22.2314 41.2177C22.2314 40.6716 22.3908 40.1375 22.69 39.6807C22.9891 39.2239 23.4151 38.8643 23.9156 38.6461C24.4161 38.4279 24.9695 38.3605 25.5077 38.4521C26.046 38.5438 26.5459 38.7906 26.9459 39.1622L26.9485 38.5321ZM26.9485 41.2215C26.9485 40.8438 26.8365 40.4747 26.6267 40.1606C26.4169 39.8466 26.1186 39.6019 25.7697 39.4574C25.4208 39.3128 25.0369 39.275 24.6665 39.3487C24.2961 39.4224 23.9558 39.6042 23.6888 39.8713C23.4217 40.1383 23.2399 40.4786 23.1662 40.849C23.0925 41.2194 23.1303 41.6033 23.2749 41.9522C23.4194 42.3012 23.6641 42.5994 23.9781 42.8092C24.2922 43.019 24.6613 43.131 25.039 43.131C25.5454 43.131 26.0311 42.9298 26.3892 42.5717C26.7473 42.2136 26.9485 41.7279 26.9485 41.2215V41.2215ZM13.078 39.3094C13.4411 39.3099 13.7965 39.4137 14.1026 39.6088C14.4088 39.8038 14.6531 40.082 14.807 40.4108H15.763C15.569 39.766 15.1495 39.2124 14.5812 38.8512C14.0129 38.4899 13.3337 38.3451 12.6674 38.4432C12.0012 38.5412 11.3925 38.8756 10.9523 39.3853C10.5122 39.8949 10.27 40.5459 10.27 41.2193C10.27 41.8927 10.5122 42.5436 10.9523 43.0533C11.3925 43.5629 12.0012 43.8973 12.6674 43.9953C13.3337 44.0934 14.0129 43.9486 14.5812 43.5873C15.1495 43.2261 15.569 42.6725 15.763 42.0277H14.8089C14.664 42.338 14.4384 42.6036 14.1557 42.7967C13.873 42.9899 13.5436 43.1035 13.2019 43.1257C12.8602 43.1479 12.5188 43.0778 12.2135 42.9228C11.9082 42.7679 11.6501 42.5336 11.4664 42.2447C11.2826 41.9558 11.1799 41.6228 11.1689 41.2806C11.158 40.9383 11.2393 40.5995 11.4042 40.2994C11.5692 39.9993 11.8117 39.7491 12.1065 39.575C12.4014 39.4008 12.7376 39.3091 13.08 39.3094H13.078ZM21.8001 41.2189C21.8003 41.774 21.6358 42.3166 21.3275 42.7781C21.0192 43.2396 20.581 43.5994 20.0683 43.8119C19.5555 44.0243 18.9913 44.0799 18.4469 43.9717C17.9025 43.8634 17.4025 43.5962 17.01 43.2037C16.6176 42.8112 16.3503 42.3112 16.2421 41.7668C16.1338 41.2225 16.1894 40.6582 16.4019 40.1455C16.6144 39.6327 16.9741 39.1945 17.4356 38.8862C17.8972 38.578 18.4398 38.4135 18.9948 38.4136C19.7388 38.4136 20.4524 38.7092 20.9785 39.2353C21.5046 39.7614 21.8001 40.4749 21.8001 41.2189V41.2189ZM20.9037 41.2189C20.9037 40.8413 20.7917 40.472 20.5818 40.158C20.372 39.844 20.0737 39.5992 19.7248 39.4547C19.3758 39.3102 18.9918 39.2724 18.6214 39.3462C18.251 39.4199 17.9107 39.6018 17.6437 39.8689C17.3767 40.1361 17.1949 40.4764 17.1213 40.8468C17.0477 41.2173 17.0856 41.6012 17.2302 41.9501C17.3748 42.299 17.6197 42.5972 17.9338 42.8069C18.2479 43.0167 18.6171 43.1286 18.9948 43.1284C19.5011 43.1283 19.9867 42.927 20.3446 42.5689C20.7026 42.2109 20.9037 41.7253 20.9037 41.2189ZM50.2192 38.4136C49.6468 38.4126 49.0921 38.6117 48.651 38.9765V38.534H47.7545V43.9129H48.651V40.8776C48.651 40.4616 48.8163 40.0625 49.1105 39.7683C49.4047 39.4741 49.8037 39.3088 50.2198 39.3088C50.6359 39.3088 51.0349 39.4741 51.3292 39.7683C51.6234 40.0625 51.7887 40.4616 51.7887 40.8776V43.9097H52.6851V40.8783C52.6851 40.2246 52.4255 39.5977 51.9633 39.1355C51.501 38.6733 50.8741 38.4136 50.2205 38.4136H50.2192ZM45.9635 38.5353H46.86V43.9103H45.9635V43.2751C45.6286 43.5859 45.2229 43.8102 44.7816 43.9286C44.3403 44.0469 43.8768 44.0557 43.4314 43.9541C42.9859 43.8525 42.572 43.6437 42.2256 43.3458C41.8793 43.0478 41.6109 42.6698 41.4439 42.2446C41.2768 41.8193 41.2162 41.3597 41.2672 40.9057C41.3182 40.4516 41.4794 40.017 41.7366 39.6394C41.9939 39.2618 42.3394 38.9528 42.7433 38.7392C43.1472 38.5255 43.5971 38.4138 44.054 38.4136C44.7625 38.4128 45.4449 38.6807 45.9635 39.1634V38.5353ZM45.9635 41.2196C45.9635 40.8419 45.8515 40.4727 45.6417 40.1587C45.4318 39.8447 45.1336 39.6 44.7847 39.4554C44.4358 39.3109 44.0519 39.2731 43.6814 39.3468C43.311 39.4205 42.9708 39.6023 42.7037 39.8694C42.4367 40.1364 42.2548 40.4767 42.1812 40.8471C42.1075 41.2175 42.1453 41.6014 42.2898 41.9503C42.4343 42.2992 42.6791 42.5975 42.9931 42.8073C43.3071 43.0171 43.6763 43.1291 44.054 43.1291C44.5604 43.1291 45.0461 42.9279 45.4042 42.5698C45.7623 42.2117 45.9635 41.726 45.9635 41.2196V41.2196ZM55.6813 39.4266V38.5301H54.336V37.0638H53.4395V42.1148C53.4395 42.5903 53.6284 43.0464 53.9646 43.3826C54.3009 43.7188 54.7569 43.9077 55.2324 43.9077H55.6807V43.0113H55.2324C54.9947 43.0113 54.7666 42.9168 54.5985 42.7487C54.4304 42.5806 54.336 42.3525 54.336 42.1148V39.4253L55.6813 39.4266ZM34.9336 36.5938C34.8158 36.5938 34.7007 36.6287 34.6027 36.6941C34.5048 36.7595 34.4285 36.8526 34.3834 36.9614C34.3383 37.0702 34.3265 37.1899 34.3495 37.3054C34.3725 37.421 34.4292 37.5271 34.5125 37.6104C34.5958 37.6936 34.7019 37.7504 34.8174 37.7733C34.9329 37.7963 35.0527 37.7845 35.1615 37.7395C35.2703 37.6944 35.3633 37.6181 35.4287 37.5201C35.4942 37.4222 35.5291 37.3071 35.5291 37.1893C35.5292 37.111 35.5138 37.0336 35.4839 36.9613C35.454 36.889 35.4102 36.8233 35.3549 36.768C35.2995 36.7127 35.2339 36.6688 35.1616 36.6389C35.0893 36.609 35.0118 36.5937 34.9336 36.5938V36.5938ZM40.7658 38.534H36.2834V39.4305H39.6081L36.2885 43.0164V43.9129H40.7709V43.0164H37.4456L40.7645 39.4305L40.7658 38.534Z" fill="white"/>
<path d="M115.368 32.4468C114.646 32.4431 113.938 32.6541 113.335 33.0529C112.733 33.4517 112.262 34.0205 111.983 34.6871C111.704 35.3537 111.629 36.0882 111.768 36.7974C111.906 37.5066 112.252 38.1587 112.762 38.671C113.272 39.1834 113.922 39.5328 114.631 39.6752C115.339 39.8175 116.074 39.7463 116.742 39.4706C117.41 39.1949 117.981 38.7271 118.383 38.1265C118.785 37.5259 119 36.8195 119 36.0968C118.997 35.1328 118.614 34.2088 117.934 33.5254C117.254 32.842 116.332 32.4544 115.368 32.4468V32.4468ZM115.368 38.0902C115.105 38.0949 114.844 38.0472 114.599 37.9498C114.355 37.8524 114.132 37.7073 113.945 37.5229C113.757 37.3386 113.608 37.1187 113.506 36.8761C113.404 36.6334 113.352 36.373 113.352 36.1099C113.352 35.8468 113.404 35.5864 113.506 35.3438C113.608 35.1011 113.757 34.8812 113.945 34.6969C114.132 34.5125 114.355 34.3674 114.599 34.27C114.844 34.1726 115.105 34.1249 115.368 34.1296C115.891 34.13 116.391 34.3376 116.761 34.7069C117.13 35.0762 117.338 35.577 117.338 36.0993C117.338 37.1879 116.456 38.0902 115.368 38.0902Z" fill="white"/>
<path d="M101.994 32.3654C101.215 32.3659 100.442 32.5121 99.7159 32.7964C99.1825 32.4884 98.669 32.3654 97.93 32.3654C96.9463 32.3596 95.9686 32.519 95.0376 32.8367L94.8525 32.9008V39.609H96.6782V34.1091C97.0075 33.995 97.3542 33.9393 97.7027 33.9445C98.6049 33.9445 98.872 34.2327 98.872 35.1759V39.609H100.718V35.053C100.718 34.6431 100.698 34.3755 100.637 34.1296C101.006 34.0073 101.294 33.9445 101.621 33.9445C102.484 33.9445 102.873 34.3351 102.873 35.1759V39.609H104.7V35.0306C104.7 34.1277 104.556 33.5949 104.146 33.1422C103.693 32.6498 102.934 32.3635 101.992 32.3635" fill="white"/>
<path d="M109.313 38.1632C108.096 38.1632 107.398 37.4082 107.398 36.0884C107.398 34.7367 108.103 33.9619 109.331 33.9619C109.832 33.9466 110.322 34.1077 110.715 34.4171L111.488 33.0916C111.168 32.8362 110.798 32.6502 110.403 32.5454C109.928 32.4026 109.233 32.3809 109.233 32.3809C107.037 32.3809 105.564 33.9049 105.564 36.1685C105.564 38.3456 106.962 39.7506 109.129 39.7506C109.129 39.7506 110.58 39.8146 111.555 38.9111L110.645 37.7431C110.151 38.0575 109.812 38.1632 109.313 38.1632Z" fill="white"/>
<path d="M85.5056 32.427C82.8981 32.427 81.6885 33.5758 81.6885 36.018V39.6091H83.5551V35.9976C83.5551 34.7662 84.2537 34.0074 85.341 34.0074C85.6945 34.0101 86.0461 34.0583 86.3873 34.1508L86.8183 32.5301C86.3834 32.4672 85.9449 32.4328 85.5056 32.427Z" fill="white"/>
<path d="M93.7852 35.813V39.609H91.284C89.5602 39.609 88.8014 39.4854 87.8985 38.8905C87.118 38.3565 86.687 37.3537 86.687 36.0378C86.687 34.232 87.8768 32.4058 90.5035 32.4058C92.6377 32.4058 93.7871 33.5968 93.7871 35.813H93.7852ZM91.9602 36.0173C91.9602 34.6418 91.4268 33.9682 90.3594 33.9682C89.2708 33.9682 88.5741 34.7686 88.5741 35.9782C88.5741 37.4357 89.2708 38.0728 90.8307 38.0728H91.959L91.9602 36.0173Z" fill="white"/>
<path d="M80.6729 35.8124V39.609H78.1896C76.4665 39.609 75.7057 39.4854 74.8041 38.8905C74.0242 38.3565 73.5933 37.3537 73.5933 36.0378C73.5933 34.232 74.783 32.4058 77.4097 32.4058C79.5433 32.4058 80.6755 33.5968 80.6755 35.8124H80.6729ZM78.7871 36.0173C78.7871 34.622 78.2947 33.9682 77.2074 33.9682C76.1201 33.9682 75.4221 34.7686 75.4221 35.9782C75.4221 37.4357 76.1201 38.0728 77.6786 38.0728H78.7871V36.0173Z" fill="white"/>
</svg>
