<svg width="128" height="72" viewBox="0 0 128 72" fill="none" xmlns="http://www.w3.org/2000/svg">
<path d="M87.1691 9.4205V10.6393L63.5834 6.49228L40 10.6393V9.4205L63.5835 5.24561L87.1691 9.4205Z" fill="white"/>
<path d="M87.1691 8.1727V9.42084L63.5834 5.24594L40 9.42084V8.1727L63.5834 4L87.1691 8.1727Z" fill="#0D8922"/>
<path d="M87.1691 10.6392L63.5834 6.49292L40 10.6392V14.8464L40.2054 14.7312C40.288 14.6836 48.6563 10.0291 63.6309 10.0291C78.6049 10.0291 86.8766 14.6858 86.9592 14.7312L87.1595 14.8478L87.1691 10.6392Z" fill="#ED1C24"/>
<path d="M63.631 10.8435C77.1516 10.8435 85.0688 14.6598 86.3496 15.3286V27.4404C86.3087 34.2231 84.7345 40.9088 81.7448 46.9971C75.0557 60.9203 64.9937 66.3859 63.5842 67.1009C62.1748 66.3859 52.1032 60.9203 45.4156 46.9971C42.4263 40.9086 40.8519 34.2231 40.8101 27.4404V15.3301C42.1055 14.662 50.1053 10.8435 63.631 10.8435" fill="#FFF200"/>
<path d="M63.6309 10.8435C77.1516 10.8435 85.0688 14.6598 86.3496 15.3286V27.4405C86.3087 34.2232 84.7345 40.9088 81.7447 46.9972C75.0557 60.9203 64.9936 66.3859 63.5842 67.1009C62.1747 66.3859 52.1031 60.9203 45.4156 46.9972C42.4263 40.9086 40.8519 34.2231 40.81 27.4405V15.3302C42.1054 14.6621 50.1052 10.8436 63.6309 10.8436V10.8435ZM40.2054 14.731L40 14.8461V27.4405C40.0409 34.3446 41.6426 41.15 44.6853 47.3476C51.9862 62.5528 63.302 67.8695 63.4168 67.9215L63.5842 68L63.7516 67.9215C63.8649 67.8695 75.1726 62.5498 82.4736 47.3477C85.5173 41.1504 87.1196 34.3448 87.1603 27.4405V14.8476L86.9592 14.731C86.8766 14.6855 78.6049 10.0295 63.6309 10.0295C48.6563 10.0295 40.288 14.6833 40.2054 14.731" fill="#0A0A0A"/>
<path d="M57.8244 54.0562C56.7088 53.6221 56.0677 53.383 56.0531 52.855C56.0465 51.9625 57.1694 52.1767 57.426 52.2684C58.2591 52.5185 58.9664 53.0755 59.4049 53.8267C59.4049 53.8267 59.1651 52.4004 59.1118 52.1298C59.0591 51.8621 58.8983 51.8944 58.815 51.9046C58.6475 51.9164 58.6403 52.2126 58.6403 52.2126C58.6403 52.2126 55.0443 50.6976 55.0443 53.0692C55.0443 54.1795 56.2271 54.3628 56.752 54.64C57.8178 55.2054 59.16 55.5405 59.274 56.3883C59.3778 57.1458 58.7016 57.9928 57.2417 57.9928C56.7628 57.995 56.2981 57.8305 55.9272 57.5276C55.5563 57.2247 55.3022 56.8022 55.2087 56.3325C55.2642 56.0605 55.5333 56.2233 55.7511 56.2233C55.8304 56.2209 55.9078 56.1987 55.9763 56.1587C56.0447 56.1186 56.102 56.062 56.1429 55.9941C56.1838 55.9261 56.207 55.849 56.2103 55.7697C56.2136 55.6905 56.197 55.6116 56.1619 55.5405C56.026 55.1958 54.8994 55.1672 54.8994 56.3186C54.8994 57.9473 56.5128 58.4394 57.2146 58.4394C57.7642 58.4858 58.3127 58.3386 58.7652 58.0234C59.2178 57.7082 59.5459 57.2447 59.6929 56.7131C60.0386 55.1672 59.2871 54.6326 57.8243 54.0562L57.8244 54.0562ZM72.6258 52.7362C73.3172 52.6845 74.0054 52.5981 74.6881 52.4773C75.2767 52.3109 75.8287 52.0352 76.3154 51.6648C75.523 51.9265 74.6975 52.0741 73.8635 52.1033C73.1957 52.2082 72.5149 52.1971 71.8509 52.0703C71.0521 51.8401 70.2123 51.7898 69.3917 51.9229C69.04 51.9581 68.7097 52.1084 68.4522 52.3506C68.1947 52.5927 68.0243 52.9131 67.9676 53.262C67.885 53.7863 68.4933 54.0965 69.0072 53.9682C69.1839 53.9031 69.3421 53.7958 69.4678 53.6556C69.5936 53.5153 69.6831 53.3465 69.7287 53.1637C69.5128 53.3299 69.2649 53.4497 69.0006 53.5158C68.6285 53.5832 68.4348 53.3221 68.5408 53.0589C68.5991 52.8792 68.7088 52.7206 68.8565 52.6027C69.0041 52.4849 69.1831 52.413 69.3712 52.3959C69.8384 52.3349 70.3114 52.3325 70.7792 52.3886C71.4876 52.4575 71.8444 52.5866 71.6543 52.9173C71.3145 53.3191 71.0373 53.7698 70.8319 54.2542C70.6769 54.6326 70.7164 54.8233 70.4612 54.8233C70.2095 54.7837 69.9523 54.8437 69.7441 54.9905C69.6534 55.0679 69.5822 55.1655 69.5361 55.2754C69.49 55.3853 69.4704 55.5045 69.4787 55.6234C69.5663 55.4922 69.6884 55.3878 69.8316 55.3215C69.9748 55.2553 70.1334 55.2298 70.2902 55.2479C70.4261 55.2479 70.3384 55.5999 70.2024 55.8793C70.0694 56.1558 69.3859 58.0001 67.9537 58.0001C67.7292 58.0084 67.5054 57.9699 67.2967 57.8869C67.0879 57.804 66.8987 57.6784 66.7411 57.5183C66.5835 57.3582 66.461 57.1669 66.3815 56.9569C66.3019 56.7468 66.267 56.5224 66.2789 56.298C66.4266 55.927 66.6861 56.2643 66.9873 56.1807C67.0733 56.1617 67.1521 56.1186 67.2146 56.0564C67.277 55.9943 67.3204 55.9156 67.3397 55.8297C67.359 55.7437 67.3535 55.6541 67.3237 55.5712C67.2939 55.4883 67.2411 55.4156 67.1715 55.3616C66.2599 54.7338 65.3936 56.2775 66.3418 57.6349C67.238 58.9293 68.6621 58.4394 69.4049 58.0478C70.0374 57.6411 70.5289 57.0489 70.8121 56.3523C71.0614 55.8456 71.2829 55.2816 71.2829 55.2816C71.5493 55.282 71.8142 55.2425 72.0688 55.1643C72.3234 55.0498 72.5317 54.8523 72.6595 54.604C72.2792 54.7595 71.8652 54.8141 71.4576 54.7624C71.3502 54.7624 71.6016 54.2308 71.8385 53.7695C72.0062 53.3622 72.2777 53.006 72.6258 52.7362" fill="#0A0A0A"/>
<path d="M62.6129 14.1465C62.6356 14.148 62.9229 14.0116 62.9229 14.0116C62.9129 13.9109 62.895 13.8111 62.8695 13.7131C62.8643 13.7043 62.2451 12.9783 62.2451 12.9783L62.2152 12.9431L62.2035 12.9893L62.1392 13.2827C62.1392 13.279 61.9396 13.7557 61.9396 13.7557L61.9301 13.774L62.3475 13.9888L62.6129 14.1465L62.6129 14.1465ZM77.6994 29.2027C77.6702 29.1668 77.646 29.1639 77.6314 29.169C77.6175 29.1734 77.5963 29.1866 77.592 29.2313C77.5664 29.4176 77.3332 29.8987 77.1446 29.9698C76.8009 30.1726 76.5475 30.4989 76.4362 30.8821C76.3631 31.0478 76.2922 31.2069 76.2373 31.2099C76.2117 31.2113 76.1869 31.1864 76.1569 31.1314C75.9888 30.6424 75.9888 30.1112 76.1569 29.6222L76.184 29.5005C76.3805 28.9986 76.6725 28.5396 77.0437 28.1489L77.1731 27.9942C77.3413 27.6355 77.4138 27.2393 77.3836 26.8443C77.3789 26.8428 77.3738 26.8429 77.3692 26.8446C77.3645 26.8463 77.3606 26.8496 77.358 26.8538L77.3478 26.8685L77.3434 26.8677V26.8707C77.326 26.8852 77.3149 26.906 77.3127 26.9286C76.9816 27.5237 76.5215 28.0371 75.9661 28.4312C75.7756 28.621 75.6033 28.8282 75.4515 29.0501C75.381 29.1618 75.2971 29.2642 75.2015 29.3552C75.0459 28.6698 75.1676 27.9507 75.5399 27.3547L75.6196 27.2029C75.8976 26.5582 76.3239 25.9883 76.8639 25.5396C76.8711 25.5281 76.874 25.5143 76.8722 25.5008C76.8703 25.4872 76.8637 25.4748 76.8536 25.4656C76.8207 25.4377 76.7593 25.4509 76.6592 25.5001L76.6051 25.5279C75.8291 25.883 75.1908 26.4823 74.7877 27.2344C74.4187 27.9621 74.2228 28.7652 74.2153 29.5811C74.2071 29.8556 74.2442 30.1296 74.325 30.3921C74.5887 31.1809 74.8102 31.9831 74.9887 32.7953C75.0562 33.5087 75.0826 34.2254 75.0677 34.9418C75.0677 35.2857 75.0662 35.5248 75.0662 35.5351L74.8879 36.1026C74.7283 36.5648 74.4487 36.9763 74.0779 37.295C73.6459 37.7408 73.1157 38.0793 72.5295 38.2836C72.3188 38.3209 72.1025 38.3103 71.8964 38.2528C71.8964 37.3984 70.4387 35.4126 69.6938 34.7577C68.9526 34.0882 68.1481 33.4923 67.2916 32.9786C66.2382 32.3355 65.0692 29.6441 65.0568 29.617L64.9545 29.2533C64.9545 29.2533 64.8974 28.5265 64.8821 28.3381C64.9208 28.3593 64.9683 28.3901 64.9683 28.3901L65.328 28.6006C65.3317 28.6014 65.7389 28.7575 65.7389 28.7575C65.744 28.7612 66.2798 28.8653 66.2798 28.8653L66.5788 29.0208L66.8581 29.2019L67.2916 29.5151L67.7353 29.749C67.7448 29.7505 68.2683 29.7776 68.2683 29.7776L68.2792 29.7343L67.671 29.4498C67.671 29.4395 67.4532 29.064 67.4532 29.064L67.198 28.6988C67.1885 28.6922 66.883 28.5082 66.883 28.5082C66.8742 28.5045 66.4955 28.4517 66.4933 28.4517C66.4933 28.4503 66.4158 28.382 66.3756 28.3476C66.4099 28.3285 66.475 28.2874 66.475 28.2874C66.475 28.2926 66.8932 28.341 66.8946 28.341C66.8946 28.3454 67.2653 28.5991 67.2653 28.5991L67.671 28.913C67.6783 28.9174 68.057 29.0633 68.057 29.0633L68.1053 29.0839L67.9415 28.6497C67.9357 28.6416 67.6257 28.3534 67.6257 28.3534L67.1659 27.9611C67.1644 27.9574 66.8062 27.7741 66.8062 27.7741C66.8018 27.7719 66.4195 27.6428 66.4195 27.6428L66.0159 27.3832L66.0239 27.3319C66.0729 27.3502 66.5817 27.5556 66.5817 27.5556L67.0701 27.6883L67.4758 27.8445L68.0592 28.1298C68.0643 28.1327 68.5512 28.2383 68.5512 28.2383C68.5577 28.2383 69.1462 28.1327 69.1462 28.1327C69.1564 28.1283 69.7179 27.7367 69.7179 27.7367C69.7252 27.7257 69.829 27.4925 69.829 27.4925L69.8517 27.439L69.6689 27.5145L69.1579 27.7741L68.8063 27.8511L68.4064 27.7719H68.4078C68.4078 27.7682 68.0855 27.4661 68.0855 27.4661L67.6256 27.021L67.2126 26.8076C67.206 26.8061 66.7221 26.7269 66.7221 26.7269C66.7221 26.7254 66.4275 26.5766 66.4231 26.5729C66.4245 26.5729 66.4245 26.5678 66.4245 26.559C66.4245 26.5238 66.4172 26.4461 66.4128 26.4086C66.4647 26.4145 67.0218 26.4607 67.0218 26.4607C67.0262 26.4607 67.6885 26.4079 67.6885 26.4079L68.0643 26.4842L68.4451 26.6426L68.8348 26.6954L68.9042 26.7056L68.47 26.2884C68.4663 26.2854 68.0335 25.9723 68.0335 25.9723C68.0284 25.9708 67.6709 25.8395 67.6709 25.8395C67.6643 25.8373 67.0671 25.7875 67.0547 25.7875C67.0598 25.7853 67.0605 25.7757 67.0605 25.7603C67.0605 25.7259 67.0547 25.6731 67.0517 25.6459C67.089 25.6386 67.3332 25.599 67.3332 25.599L67.7835 25.7024L68.2112 25.9605C68.217 25.962 68.6747 26.1189 68.6747 26.1189C68.6863 26.1189 69.3479 26.0155 69.3479 26.0155L69.3881 26.0097L69.1871 25.7427C69.1761 25.7332 68.845 25.6305 68.8421 25.6305L68.5694 25.4237L68.1607 25.1355C68.1556 25.1326 67.85 25.0292 67.85 25.0292C67.8427 25.027 67.3624 24.9507 67.3617 24.9507C67.3617 24.9448 67.1234 24.727 67.119 24.7219C67.1318 24.6859 67.1414 24.6489 67.1475 24.6112L67.4012 24.6816L67.7287 24.8385L68.1936 24.9852L68.0927 24.7791C68.0854 24.774 67.9114 24.5907 67.9114 24.5907C67.9114 24.5907 67.7981 24.4447 67.7513 24.3853C67.7835 24.3787 67.8215 24.3685 67.8215 24.3685C67.8215 24.3743 68.3164 24.6288 68.3164 24.6288C68.3201 24.6288 68.6988 24.7616 68.7025 24.7616L69 25.041C69.0051 25.0453 69.5673 25.3636 69.5673 25.3636L69.6228 25.3967L69.5212 25.1202C69.519 25.1143 69.212 24.722 69.212 24.722L68.9576 24.282C68.9561 24.2761 68.4948 23.8075 68.4948 23.8075C68.4897 23.8016 67.9041 23.4877 67.9041 23.4877L67.6783 23.2318L67.2703 22.8116C67.2703 22.8057 67.2287 22.6642 67.206 22.5901C67.2754 22.6129 67.6044 22.7214 67.6044 22.7214L68.0642 22.8512L68.391 23.0573L68.6637 23.3924C68.6739 23.399 69.1067 23.5838 69.1067 23.5838C69.1148 23.5853 70.2172 23.7275 70.2172 23.7275L70.28 23.7356L69.9774 23.4159C69.9686 23.41 69.3823 23.1475 69.3823 23.1475L69.03 22.8901C69.03 22.8842 68.8319 22.5285 68.8319 22.5285L68.6264 22.1633C68.6228 22.1574 68.2924 21.8458 68.2924 21.8458C68.288 21.8414 67.8786 21.606 67.8786 21.606L67.475 21.2686C67.475 21.2664 67.3771 21.0626 67.3142 20.9284C67.4187 21.0281 67.5935 21.2005 67.5935 21.2005L68.1322 21.6713C68.1381 21.6749 68.5475 21.8583 68.5475 21.8583L68.8962 22.1413L69.3041 22.5579C69.318 22.5659 69.9555 22.6547 69.9555 22.6547L70.0329 22.6664L69.3867 22.1061C69.3867 22.0944 69.242 21.6456 69.242 21.6456C69.2368 21.6361 68.9035 21.3215 68.9035 21.3215L68.7266 21.1147C68.7266 21.1095 68.5526 20.5749 68.5526 20.5749C68.5475 20.5647 68.1878 20.2009 68.1878 20.2009C68.1878 20.1965 67.6044 19.6524 67.6044 19.6502V19.6472C67.6044 19.6399 67.5839 19.5563 67.5715 19.502L67.676 19.5563L68.2112 19.868C68.217 19.8724 68.8552 20.0557 68.8552 20.0557L69.5197 20.2126L70.2881 20.3373L70.1068 19.9692C70.0951 19.9574 69.7127 19.8012 69.7127 19.8012L69.3589 19.5944C69.3538 19.5908 68.9217 19.4089 68.9217 19.4089L68.5409 19.2527C68.5409 19.2483 68.2923 18.9286 68.1556 18.7518C68.2879 18.8406 68.4897 18.9799 68.4897 18.9799C68.5007 18.9836 68.8347 19.0107 68.8347 19.0107H69.8816L70.3056 19.2432L70.6667 19.6348L70.715 19.6869L70.6697 19.2461C70.6653 19.2329 70.4365 18.9462 70.4365 18.9462C70.4313 18.9411 69.8173 18.5993 69.8173 18.5993C69.8129 18.5993 69.3289 18.4153 69.3289 18.4153C69.3245 18.4153 68.5906 18.284 68.5855 18.284V18.2832C68.5855 18.2759 68.4451 18.1072 68.4451 18.1072L67.9078 17.61C67.9041 17.6071 67.6468 17.4758 67.6468 17.4758C67.6468 17.4744 67.5642 17.3893 67.5159 17.338H67.7908L68.2112 17.5961C68.217 17.5976 68.7777 17.7802 68.7777 17.7802C68.7821 17.7809 69.4963 17.885 69.4963 17.885C69.4963 17.8924 69.7617 18.193 69.7617 18.193C69.7676 18.1952 70.1513 18.4306 70.1513 18.4306C70.1609 18.4343 70.5936 18.5098 70.5936 18.5098L70.6543 18.5201L69.7471 17.4033C69.7398 17.3989 69.3055 17.1635 69.3055 17.1635C69.3019 17.1605 68.7938 17.0036 68.7938 17.0036C68.7938 16.9977 68.3435 16.4873 68.3435 16.4873C68.3391 16.4814 67.7755 16.1426 67.7755 16.1426C67.7711 16.1404 67.4458 16.0612 67.3683 16.0436C67.3939 16.0026 67.4772 15.8625 67.4772 15.8603C67.4787 15.8654 67.9282 15.6616 67.9282 15.6616L68.5855 15.534C68.6137 15.4782 68.6369 15.42 68.6549 15.3602C68.5634 15.2839 68.467 15.2138 68.3661 15.1504C68.3603 15.1482 68.0284 15.0434 68.0284 15.0434C67.9602 15.0748 67.8941 15.1103 67.8303 15.1497L67.2791 15.1717L66.6204 15.0155L65.9434 14.445C65.9383 14.4428 65.632 14.2873 65.632 14.2873C65.6233 14.2844 64.5055 14.1538 64.5011 14.1538C64.5011 14.1384 64.2372 13.7461 64.2372 13.7461C64.2357 13.7417 63.879 13.3516 63.879 13.3516C63.8775 13.3479 63.4199 12.9358 63.4199 12.9358L63.4053 12.9651L63.2525 13.3054L63.1012 13.5364V13.5437C63.1012 13.5855 63.1231 13.8128 63.1231 13.8128C63.1304 13.8268 63.2788 13.9808 63.281 13.9837C63.2737 13.9837 63.224 14.2199 63.224 14.2221C63.2225 14.2067 62.6106 14.2309 62.6106 14.2309C62.6106 14.2272 62.1084 13.9977 62.1084 13.9977L61.7246 13.8664C61.7158 13.8664 60.8218 13.8921 60.8218 13.8921C60.8042 13.9031 60.6507 14.1377 60.6507 14.1377L60.6317 14.1678L61.0243 14.225C61.0243 14.2272 61.0813 14.2639 61.1149 14.2844C61.0835 14.3108 61.014 14.3672 61.014 14.3672C61.014 14.3621 60.4658 14.3364 60.4658 14.3364C60.4577 14.3372 60.0747 14.4941 60.0747 14.4941L60.0352 14.5117L60.2252 14.6393C60.2362 14.6445 61.0535 14.6701 61.0535 14.6701C61.0543 14.6709 61.6559 14.8263 61.6596 14.8271C61.6596 14.8359 61.7758 15.0009 61.7758 15.0009C61.7758 15.0009 61.8577 15.116 61.8876 15.1622C61.8489 15.1842 61.6281 15.3067 61.6281 15.3067C61.6318 15.3052 60.8905 15.6198 60.8905 15.6198L59.359 16.4815L58.3487 16.6318C58.3429 16.6333 57.9554 16.8511 57.9554 16.8511C57.9466 16.8562 57.6374 17.2875 57.6374 17.2875C57.633 17.2911 57.4576 17.8294 57.4576 17.8294C57.4437 18.7417 57.4802 18.7629 57.4941 18.771C57.5666 18.818 57.6489 18.8478 57.7347 18.8581C57.8205 18.8684 57.9075 18.8589 57.989 18.8304C58.3031 18.693 58.6314 18.5906 58.9679 18.5253C59.0936 18.4997 59.1536 18.5452 59.1646 18.5921C59.1785 18.6434 59.1404 18.7131 59.0454 18.7395L58.9935 18.7556C58.5476 18.8766 58.0936 19.024 58.1075 19.1963L58.1872 19.3276C58.5069 19.4369 58.8532 19.4413 59.1756 19.3401L59.4621 19.2609C59.7069 19.1663 59.9681 19.1214 60.2305 19.1289C60.3715 19.1543 60.5075 19.2023 60.6333 19.2712C60.8653 19.3984 61.1217 19.4749 61.3855 19.4956C61.7147 19.5024 62.0404 19.5643 62.349 19.6789C62.4 19.862 62.3962 20.056 62.338 20.237L62.3081 20.402C62.1531 21.8159 60.5799 23.4116 59.8233 24.1787C59.6883 24.3015 59.5647 24.4362 59.4541 24.5813L59.3671 24.7815C59.3442 24.88 59.2984 24.9717 59.2335 25.0493C59.1686 25.1268 59.0864 25.1881 58.9935 25.2281C58.6981 25.3983 58.4172 25.5926 58.1536 25.8089C57.7383 26.1797 57.2651 26.4802 56.7529 26.6984C56.1083 26.3983 55.4973 26.0305 54.9304 25.6013C53.518 24.2307 52.9281 24.5123 52.575 24.6788L52.518 24.7052C52.0976 24.8966 51.6561 26.0941 51.6151 26.3508L51.4448 27.0885L51.3139 27.6305C51.2752 27.8116 51.1012 28.2619 50.9345 28.6975L50.5946 29.6442C50.5115 29.9097 50.4101 30.1692 50.2912 30.4208L50.1399 30.7889C50.0184 31.7919 50.0438 32.8073 50.2152 33.803L50.2247 33.8125L50.2605 33.8228C50.4418 33.8045 50.8366 33.3974 51.0244 33.2009L51.0683 33.1562C51.2481 32.9345 51.3625 32.6671 51.3987 32.384C51.3826 32.1645 51.3442 31.9473 51.284 31.7357C51.1047 31.1235 51.0659 30.4788 51.1706 29.8495L51.1896 29.6904C51.2506 29.4863 51.3682 29.3037 51.5289 29.1639L51.7343 28.927C51.8223 28.8128 51.9428 28.7279 52.0801 28.6835L52.2621 28.5801L52.2884 28.5508C52.4712 28.3857 52.6127 28.18 52.7014 27.9502L52.8747 27.2L52.9113 27.0012C52.9131 26.9847 52.9201 26.9692 52.9313 26.9568C52.9424 26.9445 52.9571 26.9359 52.9734 26.9323C53.0148 26.9292 53.0564 26.9365 53.0943 26.9536C53.1322 26.9706 53.1653 26.9968 53.1905 27.0298L54.4399 28.4841C54.6901 28.6723 54.9091 28.8988 55.0891 29.1551V29.1602L55.0803 29.1617C54.6751 29.1233 54.2737 29.0521 53.8799 28.949C52.6832 28.5977 52.1371 28.6601 51.7153 29.1888C51.235 29.7931 51.3863 31.6484 51.4836 31.8516C51.5757 32.0363 52.0121 34.295 52.0333 34.5964C52.0468 34.9261 52.1332 35.2487 52.2863 35.541L52.3177 35.5747C52.5995 35.8219 52.8083 36.1414 52.9215 36.4987C53.1871 37.1623 53.64 37.7343 54.2249 38.1451C54.2503 38.1529 54.2773 38.1544 54.3034 38.1494C54.3295 38.1444 54.354 38.1331 54.3747 38.1165C54.6343 37.9309 54.7512 37.0318 54.7666 36.6512C54.7846 36.3038 54.6648 35.9634 54.4332 35.7038L54.3638 35.607C54.2268 35.456 54.0443 35.3538 53.844 35.3158C53.779 35.2975 53.689 35.2762 53.689 35.2564C53.689 35.2483 53.6693 34.5546 53.4493 34.4211C53.2376 34.1158 53.1107 33.7598 53.0816 33.3893C53.05 33.0025 52.9666 32.6217 52.8337 32.2571C52.6696 31.8974 52.6052 31.5003 52.6473 31.1072C52.653 31.0475 52.6796 30.9917 52.7224 30.9497C52.7652 30.9077 52.8215 30.8822 52.8813 30.8777C52.9488 30.8645 53.0184 30.8669 53.0849 30.8845C53.1513 30.9022 53.2129 30.9347 53.265 30.9796C53.8045 31.4007 54.3923 31.756 55.0159 32.0378C55.3589 32.2176 55.6748 32.4447 55.9546 32.7125C56.1207 32.8656 56.3011 33.0023 56.4933 33.1209C56.8182 33.1999 57.1528 33.2318 57.4868 33.2155C57.6301 33.2122 57.7734 33.2207 57.9152 33.2412C57.7653 33.3021 57.7668 33.5668 57.7778 33.6511C57.9328 34.7438 61.8987 37.749 62.2035 37.9184C62.8402 38.4264 63.4234 38.9979 63.9441 39.6242C64.0663 39.7726 64.1385 39.9559 64.1503 40.1478C64.1405 40.2717 64.1564 40.3962 64.1969 40.5137C64.2374 40.6311 64.3016 40.739 64.3857 40.8305C64.4586 40.9201 64.5492 40.9936 64.6518 41.0465C64.7545 41.0994 64.867 41.1305 64.9822 41.1378C65.1599 41.1378 65.2776 40.9809 65.3646 40.8657L65.3813 40.8393C65.7462 40.4212 65.9684 39.8977 66.0159 39.3448C66.0619 38.6085 66.4011 38.3145 66.5093 38.2954C66.5598 38.2859 66.5949 38.3005 66.608 38.3335C66.6205 38.3687 66.6044 38.423 66.5393 38.4677C66.3613 38.6916 66.2455 38.9585 66.2038 39.2414L66.165 39.5986C66.1873 39.909 66.0859 40.2156 65.8828 40.4514C65.31 41.2249 64.9759 42.1489 64.9215 43.1098C64.9613 44.2489 65.3067 45.3563 65.9216 46.316L65.9735 46.4142L66.1716 46.7486C66.3894 47.0526 66.5645 47.3849 66.6921 47.7364C66.6607 48.003 66.5392 48.2509 66.3478 48.439C65.8276 49.0997 65.266 49.7268 64.6664 50.3163C64.5776 50.3081 64.4882 50.3199 64.4046 50.3511C64.3211 50.3822 64.2456 50.4317 64.1839 50.496L63.9763 50.6537C63.8305 50.742 63.7227 50.8813 63.6736 51.0445C63.6483 51.1366 63.592 51.2172 63.5143 51.2726L63.4353 51.3276C63.4192 51.3401 63.3732 51.4032 62.8819 51.8982C62.6238 52.1226 62.4229 52.4053 62.2959 52.7228C62.1689 53.0404 62.1194 53.3836 62.1516 53.7241C62.1765 53.9199 62.3475 53.9888 62.849 54.0131C63.5243 53.8814 64.129 53.5094 64.5509 52.9658L64.5684 52.8676C64.6101 52.63 64.6854 52.2303 64.8163 52.1738C65.0521 52.0022 65.2614 51.7969 65.4376 51.5644L65.4778 51.5248C65.5604 51.421 65.6137 51.2969 65.6321 51.1655C65.6473 51.0711 65.6816 50.9807 65.733 50.9C65.7861 50.8412 65.8526 50.796 65.9267 50.7681C66.0395 50.7222 66.1411 50.6525 66.2245 50.5638C66.3079 50.4751 66.3712 50.3694 66.41 50.254C66.8446 49.7112 67.372 49.2499 67.9678 48.8914C68.1828 48.7529 68.3849 48.5954 68.5717 48.4206C68.6636 48.2665 68.7078 48.0887 68.6989 47.9095C68.714 47.6669 68.6337 47.4279 68.4752 47.2436C68.2454 46.9311 68.0742 46.5796 67.97 46.206V46.2001C67.97 46.118 67.9634 45.9684 67.9495 45.6875C67.9483 45.6748 67.9478 45.6621 67.9481 45.6493C67.9481 44.9116 69.0432 44.19 69.5176 43.8776L69.7318 43.7265C71.4461 42.2115 71.7817 41.0587 71.8445 40.7426L71.8804 40.3627C71.8914 40.0987 71.8987 39.8501 72.0573 39.8164C72.1011 39.8165 72.1443 39.8267 72.1835 39.8463C72.2227 39.8659 72.2568 39.8943 72.2832 39.9293C72.3121 39.9577 72.3325 39.9937 72.342 40.033C72.3516 40.0724 72.3499 40.1137 72.3373 40.1522C72.2605 40.3642 72.232 42.5026 72.232 42.592C72.2379 42.6074 72.4177 42.8164 72.4177 42.8164L72.4499 42.8554L72.4586 42.8055C72.4608 42.7813 72.5603 42.1983 72.5603 41.9915C72.6365 41.5552 72.7921 41.1367 73.0193 40.7565C73.0198 40.7602 73.021 40.7637 73.023 40.7668C73.0934 41.0386 73.1274 41.3185 73.1239 41.5992C73.1469 41.9244 73.0693 42.2488 72.9017 42.5283C72.6515 42.8839 72.451 43.272 72.3058 43.6819L72.1838 43.9657C72.1701 44.005 72.1639 44.0465 72.1655 44.0881C72.1793 44.4191 72.2575 44.7442 72.3958 45.0451C72.4207 45.0693 72.4389 45.0693 72.4535 45.0634C72.4821 45.0525 72.5106 45.0151 72.5106 44.7885C72.5479 44.2126 72.8108 43.6748 73.2423 43.2917C73.5207 43.0082 73.7343 42.6677 73.8684 42.2938C74.0026 41.9198 74.0541 41.5212 74.0194 41.1254C74.0195 40.8006 73.9923 40.4763 73.9383 40.1559C73.9354 40.1479 73.6393 39.7174 73.6327 39.7079C73.6466 39.7145 73.7285 39.6463 73.757 39.6243C73.784 39.658 74.0735 40.0459 74.0735 40.0459C74.1543 40.1502 74.2139 40.2693 74.249 40.3965C74.2488 40.7236 74.2878 41.0496 74.3652 41.3674L74.3762 41.421C74.4872 41.769 74.6157 42.1112 74.7615 42.4462L74.7951 42.5268L74.8046 42.4388C74.8335 42.1938 74.8335 41.9461 74.8046 41.7011C74.7899 41.4754 74.8053 41.2487 74.8506 41.0272L74.9062 40.4515C74.9327 40.0911 74.8523 39.7309 74.6752 39.416L74.5904 39.2884C74.5629 39.2537 74.5416 39.2145 74.5275 39.1725L74.5904 39.1439C75.079 38.9793 75.5289 38.7166 75.9124 38.372C76.2959 38.0273 76.605 37.608 76.8208 37.1397C77.0145 36.6092 77.1097 36.0478 77.1015 35.4831C77.1128 34.8125 77.0443 34.1429 76.8976 33.4884C76.8067 33.113 76.7927 32.7231 76.8566 32.3422L76.899 31.6389C76.9324 31.2007 77.1074 30.7853 77.3976 30.4553L77.6878 30.0029C77.7595 29.8821 77.7983 29.7448 77.8003 29.6044C77.8024 29.464 77.7676 29.3256 77.6995 29.2028L77.6994 29.2027ZM63.8483 46.6261L64.4376 46.9077C64.6369 47.0019 64.8647 47.0163 65.0743 46.9481C65.29 46.7798 65.451 46.5514 65.5371 46.2917C65.5539 46.2427 65.5584 46.1903 65.5501 46.1391C65.5418 46.0879 65.521 46.0396 65.4895 45.9984C65.127 45.303 64.8621 44.561 64.7022 43.7932C64.675 43.291 64.6963 42.7873 64.7658 42.2891C64.8087 42.006 64.826 41.7196 64.8177 41.4334C64.776 41.3145 64.6005 41.2001 64.3958 41.0703L64.0735 40.8518C64.004 40.7817 63.951 40.6971 63.9184 40.604C63.8858 40.5109 63.8743 40.4116 63.8849 40.3135L63.8512 39.9916C63.3617 39.2673 62.7453 38.6375 62.0317 38.1326C61.6925 38.1091 61.604 38.4824 61.5821 38.7061C61.6419 39.1259 61.7341 39.5405 61.8577 39.9461L62.0075 40.5746C62.3877 41.8023 62.9419 42.9692 63.6531 44.0396L63.8637 44.3989C63.9572 44.6094 63.9199 44.7737 63.7577 44.8646C63.0301 44.898 62.3013 44.8304 61.5923 44.6637C61.2647 44.5747 60.9442 44.4617 60.6332 44.3256C60.3277 44.1809 60.0052 44.0752 59.6733 44.011C59.5184 43.9937 59.3618 44.0215 59.2223 44.0909L59.0746 44.1313L58.9284 44.0851C58.472 43.8966 57.9854 43.7915 57.4919 43.7749C56.1534 43.6495 56.0525 43.9201 55.9984 44.0645C55.9311 44.2515 56.7521 45.1242 56.8976 45.2401C57.2385 45.468 57.6437 45.5803 58.0533 45.5606C58.4469 45.4914 58.8444 45.4458 59.2434 45.4242L59.3794 45.5085L59.5088 45.6002C59.8702 45.6565 60.2347 45.6903 60.6003 45.7014C60.8612 45.7153 61.547 45.8576 62.047 45.9617L62.6077 46.0768C63.037 46.222 63.4522 46.4059 63.8483 46.6261" fill="#0A0A0A"/>
<path d="M62.8845 45.4545L62.9042 45.4244C62.9401 45.277 62.2031 45.0482 61.8113 44.9463C61.4399 44.8187 61.0458 44.771 60.6548 44.8062L60.6453 44.8099L60.627 44.8421C60.5912 44.9881 61.3273 45.2169 61.7192 45.3195C62.0919 45.4431 62.4857 45.4902 62.8771 45.4581L62.8845 45.4545ZM59.771 44.4087C59.6481 44.4087 59.5509 44.4747 59.5509 44.5605C59.5509 44.6419 59.6481 44.7109 59.771 44.7109C59.8887 44.7109 59.9866 44.6419 59.9866 44.5605C59.9866 44.4769 59.8887 44.4087 59.771 44.4087ZM57.2182 44.2298C57.0456 44.2298 56.9045 44.3288 56.9045 44.4505C56.9045 44.5759 57.0456 44.6705 57.2182 44.6705C57.3929 44.6705 57.5325 44.5759 57.5325 44.4505C57.5325 44.3288 57.3929 44.2298 57.2182 44.2298ZM63.2441 52.6199C63.1167 52.6406 63.0008 52.7062 62.9174 52.8047C62.8185 52.8911 62.7537 53.0099 62.7346 53.1399C62.7335 53.1549 62.7358 53.17 62.7412 53.1841C62.7466 53.1982 62.7551 53.2108 62.766 53.2213L62.8472 53.2535C62.9752 53.2333 63.0916 53.1674 63.1747 53.068C63.3363 52.9023 63.3999 52.7278 63.3268 52.65L63.2441 52.6199ZM64.3955 50.953C64.2833 50.9761 64.1821 51.0363 64.1082 51.1239C63.9862 51.2464 63.8962 51.4165 63.9635 51.4869L64.0271 51.5097C64.1406 51.4877 64.2429 51.4271 64.3166 51.3381C64.4365 51.2149 64.5286 51.0477 64.4591 50.978L64.3955 50.953ZM67.0222 48.5206L66.998 48.514C66.6183 48.7294 66.2797 49.0105 65.998 49.3441C65.9621 49.3808 65.0879 50.282 65.2033 50.3979L65.2085 50.4045L65.237 50.4118C65.6161 50.1964 65.9546 49.9162 66.237 49.5839C66.2743 49.545 67.1523 48.6474 67.0309 48.5272L67.0222 48.5206ZM64.3853 45.0269C64.3584 45.0255 64.3315 45.0295 64.3062 45.0388C64.2809 45.0481 64.2578 45.0624 64.2382 45.081C64.2187 45.0995 64.2031 45.1218 64.1924 45.1466C64.1818 45.1713 64.1763 45.198 64.1763 45.2249C64.1763 45.2519 64.1818 45.2785 64.1924 45.3033C64.2031 45.328 64.2187 45.3504 64.2382 45.3689C64.2578 45.3874 64.2809 45.4018 64.3062 45.4111C64.3315 45.4203 64.3584 45.4244 64.3853 45.4229C64.4121 45.4242 64.4389 45.42 64.464 45.4106C64.4891 45.4013 64.5121 45.3869 64.5315 45.3684C64.5509 45.3499 64.5663 45.3276 64.5769 45.3029C64.5874 45.2783 64.5929 45.2518 64.5929 45.2249C64.5929 45.1981 64.5874 45.1716 64.5769 45.1469C64.5663 45.1223 64.5509 45.1 64.5315 45.0815C64.5121 45.063 64.4891 45.0486 64.464 45.0392C64.4389 45.0298 64.4121 45.0257 64.3853 45.0269V45.0269ZM68.0047 47.9126C67.9734 47.912 67.9423 47.9177 67.9132 47.9292C67.8842 47.9408 67.8577 47.9581 67.8353 47.98C67.813 48.0019 67.7953 48.028 67.7832 48.0569C67.771 48.0857 67.7648 48.1167 67.7648 48.148C67.7648 48.1793 67.771 48.2103 67.7832 48.2391C67.7953 48.268 67.813 48.2942 67.8353 48.3161C67.8577 48.338 67.8842 48.3552 67.9132 48.3668C67.9423 48.3784 67.9734 48.384 68.0047 48.3834C68.0359 48.3839 68.0669 48.3782 68.0959 48.3665C68.1248 48.3549 68.1512 48.3377 68.1735 48.3157C68.1957 48.2938 68.2134 48.2677 68.2254 48.2389C68.2375 48.2101 68.2437 48.1792 68.2437 48.148C68.2437 48.1168 68.2375 48.0859 68.2254 48.0571C68.2134 48.0283 68.1957 48.0022 68.1735 47.9803C68.1512 47.9584 68.1248 47.9411 68.0959 47.9295C68.0669 47.9179 68.0359 47.9121 68.0047 47.9126ZM66.4673 46.2084L66.4783 46.1438C66.4812 46.1049 66.5974 45.2088 66.3226 44.8627C66.294 44.8254 66.2582 44.7942 66.2172 44.7713C66.1762 44.7483 66.131 44.734 66.0842 44.7292C66.0522 44.723 66.0191 44.7265 65.989 44.7392C65.959 44.7518 65.9334 44.7731 65.9154 44.8003C65.748 45.0724 66.4044 46.1071 66.4337 46.1533L66.4673 46.2084ZM65.5074 42.9927C65.5155 43.0022 65.5352 43.0403 65.5681 43.0374H65.5813L65.6069 43.0007L65.8167 42.3554L65.9819 41.9264L66.1222 41.6015C66.1639 41.493 66.1639 41.4182 66.1222 41.3771C66.055 41.3148 65.9154 41.3661 65.8993 41.372C65.8861 41.3823 65.5031 42.0254 65.5031 42.0254C65.4285 42.1562 65.3925 42.3055 65.3993 42.4559C65.3952 42.6406 65.4321 42.8239 65.5074 42.9927H65.5074ZM54.0264 36.9309C53.9816 36.9322 53.9382 36.9466 53.9015 36.9724C53.8649 36.9982 53.8367 37.0342 53.8204 37.076C53.8041 37.1177 53.8004 37.1634 53.8099 37.2072C53.8194 37.251 53.8416 37.291 53.8736 37.3223C53.9057 37.3536 53.9463 37.3747 53.9904 37.3831C54.0344 37.3915 54.0799 37.3867 54.1212 37.3693C54.1626 37.352 54.1979 37.3228 54.2227 37.2856C54.2476 37.2483 54.2609 37.2045 54.2611 37.1597C54.2601 37.0983 54.2348 37.0398 54.1909 36.997C54.1469 36.9541 54.0878 36.9303 54.0264 36.9309V36.9309ZM50.63 32.5785C50.5787 32.5767 50.5288 32.5953 50.4913 32.6302C50.4537 32.6651 50.4316 32.7135 50.4297 32.7648C50.433 32.8148 50.4558 32.8616 50.4933 32.8949C50.5308 32.9283 50.5799 32.9455 50.63 32.943C50.6803 32.9455 50.7296 32.9283 50.7674 32.895C50.8052 32.8617 50.8286 32.815 50.8325 32.7648C50.83 32.7134 50.8073 32.665 50.7694 32.6301C50.7315 32.5953 50.6815 32.5767 50.63 32.5785V32.5785ZM52.0117 31.7755L52.0044 31.7704L51.9649 31.766C51.8274 31.7975 51.9239 32.3981 51.9941 32.7127C52.0371 33.0196 52.1508 33.3123 52.326 33.5678L52.3341 33.5729L52.3721 33.5773C52.511 33.5443 52.4123 32.943 52.3406 32.6306C52.3019 32.3231 52.189 32.0296 52.0117 31.7755V31.7755ZM52.1294 29.6518C52.2302 29.5154 52.2514 29.3621 52.1754 29.3042L52.0862 29.2851C51.9929 29.3085 51.9122 29.3671 51.8611 29.4486C51.7595 29.5835 51.7404 29.7375 51.815 29.7955L51.902 29.8131C51.9957 29.7906 52.0772 29.7328 52.1293 29.6517L52.1294 29.6518ZM51.8691 27.7069C52.0557 27.5181 52.1866 27.2813 52.2471 27.0227C52.3721 26.648 52.4401 26.2454 52.3173 26.2021L52.2617 26.2065C52.0746 26.3962 51.9434 26.6337 51.8823 26.8929C51.7551 27.2692 51.6901 27.671 51.8085 27.7128L51.8691 27.7069ZM53.0286 25.1651C52.8385 25.1651 52.6857 25.2575 52.6857 25.3705C52.6857 25.4849 52.8385 25.5758 53.0286 25.5758C53.223 25.5758 53.3758 25.4849 53.3758 25.3705C53.3758 25.2576 53.223 25.1651 53.0286 25.1651ZM56.6194 27.5023C56.3481 27.75 56.1503 28.0677 56.0478 28.4204C55.9219 28.7154 55.8439 29.0286 55.8167 29.3481C55.8167 29.4515 55.8387 29.5248 55.8899 29.5468L55.9659 29.541C56.2369 29.2927 56.4353 28.9753 56.5398 28.6229C56.665 28.3274 56.7429 28.0141 56.7708 27.6945C56.7708 27.5896 56.7474 27.5177 56.6991 27.4979L56.6194 27.5023ZM54.6602 27.7758L54.7143 27.7524C54.7838 27.6754 54.6252 27.4546 54.4322 27.2779C54.3165 27.1469 54.1621 27.0562 53.9913 27.019L53.9387 27.0418C53.9277 27.0554 53.922 27.0726 53.9226 27.0902C53.9752 27.26 54.0791 27.4094 54.2201 27.5177C54.336 27.6479 54.49 27.7382 54.6602 27.7758H54.6602ZM54.8466 31.0399C54.5021 30.8605 54.1343 30.73 53.7537 30.652L53.7362 30.6945L54.4987 31.2724C54.6251 31.3751 55.1807 31.7205 55.3598 31.5797C55.3711 31.5708 55.38 31.5594 55.3858 31.5464C55.3917 31.5334 55.3943 31.5191 55.3935 31.5049C55.3891 31.3993 55.1983 31.2614 54.8466 31.0399V31.0399ZM62.5299 37.3386C62.5123 37.3151 60.5502 35.1833 60.1277 34.6245C59.6949 34.0518 59.488 34.007 59.2782 34.1251C59.2628 34.1341 59.2498 34.1467 59.2401 34.1617C59.2305 34.1768 59.2245 34.1939 59.2227 34.2116C59.1927 34.4456 59.6818 35.0088 60.1101 35.4209C60.7089 36.001 62.4809 37.3591 62.4977 37.373L62.5299 37.3386ZM70.8301 39.4088L70.8192 39.4059L70.8119 39.4088C70.7267 39.4523 70.6607 39.5261 70.6269 39.6156C70.6203 39.6568 70.6224 39.6989 70.6331 39.7392C70.6438 39.7795 70.6629 39.8171 70.6891 39.8495L70.7373 39.9383L70.7563 40.1084L70.787 40.3643C70.7952 40.3904 70.8117 40.413 70.8341 40.4288C70.8564 40.4446 70.8833 40.4526 70.9106 40.4516C70.9505 40.4472 70.9881 40.4301 71.0176 40.4028C71.047 40.3754 71.067 40.3393 71.0743 40.2998C71.1128 40.1129 71.1295 39.9222 71.124 39.7314C71.124 39.5026 70.8411 39.4132 70.8301 39.4087V39.4088ZM65.4804 36.4768C65.4979 36.4922 65.5194 36.5023 65.5425 36.5059C65.5655 36.5096 65.5891 36.5066 65.6105 36.4974C65.6489 36.483 65.6824 36.4581 65.7072 36.4256C65.7321 36.393 65.7472 36.3541 65.7509 36.3133C65.7833 36.1493 65.8622 35.9981 65.9782 35.8777C66.045 35.8014 66.0799 35.7023 66.0755 35.6009C66.0712 35.4996 66.0279 35.4038 65.9548 35.3336L65.7896 35.2683C65.7181 35.2752 65.6513 35.3072 65.601 35.3585C65.5944 35.3717 65.4402 36.1542 65.4402 36.1542V36.1528C65.4248 36.1975 65.4102 36.4087 65.4804 36.4769L65.4804 36.4768ZM75.8085 33.237L75.7625 33.2451C75.7639 33.2532 75.7742 33.5964 75.7742 34.0364C75.7944 34.6679 75.7501 35.2999 75.6419 35.9225C75.4163 36.4158 75.1352 36.8818 74.8041 37.3115L74.4174 37.8923C74.4058 37.9126 74.3998 37.9356 74.3998 37.959C74.4003 37.9881 74.4079 38.0167 74.4219 38.0423C74.4359 38.0678 74.4559 38.0896 74.4802 38.1057C74.5197 38.1321 74.6601 38.2017 74.8553 37.9663L75.1031 37.7038C75.5891 37.2584 75.9452 36.6894 76.1332 36.0575C76.449 35.063 75.8144 33.2547 75.8086 33.237L75.8085 33.237ZM65.7852 32.7362C66.0937 32.8806 66.2027 32.9312 66.248 32.9466L66.2502 32.9496L66.2531 32.9481C66.2743 32.9547 66.2809 32.954 66.286 32.9444L66.2655 32.9195L66.2721 32.91L66.2531 32.899C65.523 31.9439 64.9515 30.8774 64.5607 29.7405C64.5491 29.5734 64.4728 29.4174 64.348 29.3056C64.3073 29.2848 64.2625 29.2735 64.2168 29.2723C64.1711 29.2712 64.1258 29.2803 64.0841 29.299C64.0708 29.3029 64.0588 29.3103 64.0493 29.3203C64.0398 29.3304 64.0332 29.3428 64.03 29.3562C64.0187 29.3882 64.0142 29.4222 64.0169 29.456C64.1178 30.0746 64.3136 30.6739 64.5973 31.2328C65.3839 32.5155 65.7706 32.7288 65.7852 32.7362V32.7362ZM62.856 27.9996C62.8878 27.9764 62.9125 27.9449 62.9273 27.9085C62.9422 27.8721 62.9466 27.8323 62.94 27.7935C62.9196 27.4063 62.8143 27.3623 62.6016 27.3623C62.5113 27.3669 62.4254 27.4022 62.358 27.4623C62.2905 27.5225 62.2457 27.6039 62.2309 27.693C62.2309 27.7986 62.3077 27.8903 62.4575 27.9673C62.5171 28.0026 62.584 28.0239 62.653 28.0295C62.7221 28.0351 62.7915 28.0248 62.856 27.9996V27.9996ZM59.3396 26.2066L59.5984 26.1596C59.9265 26.0795 60.2618 26.0325 60.5992 26.0195C60.9048 26.0298 61.2064 26.091 61.4918 26.2007C61.7133 26.2755 61.823 26.3077 61.8676 26.2601C61.8931 26.23 61.8763 26.1867 61.8624 26.1552C61.7952 26.0107 61.502 25.5363 60.548 25.5135C60.3115 25.5133 60.0779 25.566 59.8643 25.6678C59.6508 25.7695 59.4628 25.9178 59.314 26.1017C59.2921 26.1376 59.2855 26.1647 59.2965 26.1846L59.3067 26.1992L59.3396 26.2066ZM64.9029 26.5454C65.006 26.5454 65.0922 26.4823 65.0922 26.4024C65.0922 26.3246 65.006 26.2601 64.9029 26.2601C64.7984 26.2601 64.7135 26.3246 64.7135 26.4024C64.7135 26.4823 64.7983 26.5454 64.9029 26.5454ZM65.0937 26.1552C65.2019 26.1552 65.2903 26.0922 65.2903 26.0129C65.2903 25.9337 65.2034 25.8714 65.0937 25.8714C64.9818 25.8714 64.8948 25.9337 64.8948 26.0129C64.8948 26.0922 64.9848 26.1552 65.0937 26.1552ZM65.2918 25.7482C65.3172 25.7545 65.3438 25.7549 65.3694 25.7495C65.395 25.744 65.4191 25.7328 65.4397 25.7166C65.4604 25.7005 65.477 25.6798 65.4885 25.6563C65.5 25.6327 65.506 25.6069 65.506 25.5806C65.506 25.5544 65.5 25.5286 65.4885 25.505C65.477 25.4815 65.4604 25.4608 65.4397 25.4447C65.4191 25.4285 65.395 25.4173 65.3694 25.4118C65.3438 25.4063 65.3172 25.4068 65.2918 25.4131C65.2664 25.407 65.24 25.4067 65.2146 25.4123C65.1891 25.4178 65.1652 25.4291 65.1448 25.4452C65.1243 25.4614 65.1077 25.4819 65.0963 25.5054C65.085 25.5288 65.079 25.5546 65.079 25.5806C65.079 25.6067 65.085 25.6324 65.0963 25.6559C65.1077 25.6794 65.1243 25.6999 65.1448 25.7161C65.1652 25.7322 65.1891 25.7435 65.2146 25.749C65.24 25.7546 65.2664 25.7543 65.2918 25.7482V25.7482ZM65.4665 24.8183C65.4289 24.8208 65.3928 24.8341 65.3627 24.8568C65.3325 24.8794 65.3097 24.9104 65.2969 24.9458C65.2841 24.9812 65.2819 25.0197 65.2906 25.0563C65.2993 25.093 65.3185 25.1263 65.3459 25.1522C65.3733 25.1781 65.4076 25.1955 65.4447 25.2022C65.4818 25.2088 65.52 25.2045 65.5547 25.1898C65.5894 25.1751 65.619 25.1505 65.64 25.1192C65.6609 25.0879 65.6723 25.0511 65.6726 25.0134C65.6711 24.9602 65.6486 24.9098 65.6099 24.8732C65.5713 24.8367 65.5197 24.8169 65.4665 24.8183V24.8183ZM65.8371 24.4517C65.8341 24.3977 65.8099 24.3472 65.7698 24.3111C65.7297 24.2749 65.6769 24.2561 65.6229 24.2588C65.5958 24.2558 65.5683 24.2585 65.5423 24.2668C65.5163 24.2751 65.4923 24.2888 65.472 24.307C65.4516 24.3252 65.4353 24.3475 65.4242 24.3724C65.413 24.3974 65.4073 24.4244 65.4073 24.4517C65.4073 24.479 65.413 24.506 65.4242 24.5309C65.4353 24.5558 65.4516 24.5781 65.472 24.5963C65.4923 24.6145 65.5163 24.6282 65.5423 24.6365C65.5683 24.6449 65.5958 24.6476 65.6229 24.6445C65.6497 24.646 65.6764 24.6421 65.7017 24.6332C65.7269 24.6243 65.7502 24.6105 65.7701 24.5926C65.79 24.5747 65.8061 24.553 65.8176 24.5288C65.8292 24.5046 65.8358 24.4784 65.8371 24.4517V24.4517ZM66.0521 23.8342C66.041 23.7725 66.0085 23.7166 65.9604 23.6764C65.9123 23.6361 65.8516 23.6141 65.7889 23.6141C65.7262 23.6141 65.6654 23.6361 65.6173 23.6764C65.5692 23.7166 65.5368 23.7725 65.5257 23.8342C65.5373 23.8955 65.57 23.9508 65.618 23.9905C65.6661 24.0303 65.7265 24.0521 65.7889 24.0521C65.8512 24.0521 65.9117 24.0303 65.9597 23.9905C66.0077 23.9508 66.0404 23.8955 66.0521 23.8342V23.8342ZM66.1676 23.1969C66.18 23.1455 66.1761 23.0915 66.1565 23.0424C66.1368 22.9933 66.1023 22.9516 66.0578 22.923C66.0132 22.8945 65.9609 22.8805 65.9081 22.8831C65.8552 22.8856 65.8045 22.9046 65.763 22.9374C65.7215 22.9701 65.6912 23.015 65.6764 23.0658C65.6616 23.1166 65.663 23.1707 65.6804 23.2207C65.6978 23.2706 65.7303 23.3139 65.7735 23.3445C65.8167 23.3751 65.8683 23.3914 65.9212 23.3913C65.9793 23.3966 66.0373 23.3794 66.0832 23.3433C66.129 23.3071 66.1592 23.2547 66.1676 23.1969V23.1969ZM66.3839 22.6895C66.3839 22.5787 66.2355 22.4951 66.0447 22.4951C65.8576 22.4951 65.707 22.5787 65.707 22.6895C65.707 22.7973 65.8576 22.8838 66.0447 22.8838C66.2355 22.8838 66.3839 22.7973 66.3839 22.6895ZM65.8737 22.0874C65.8737 22.1886 65.998 22.2715 66.1624 22.2715C66.324 22.2715 66.4483 22.1886 66.4483 22.0874C66.4483 21.9832 66.324 21.9026 66.1624 21.9026C65.998 21.9026 65.8737 21.9832 65.8737 22.0874ZM65.8861 21.7544C65.9662 21.8034 66.0619 21.8199 66.1537 21.8006C66.3203 21.7772 66.438 21.6855 66.4242 21.5902L66.3752 21.5124C66.2956 21.463 66.2 21.4462 66.1083 21.4655C65.9431 21.4875 65.8232 21.5814 65.8371 21.6767L65.8861 21.7544ZM66.1632 21.2118C66.3123 21.1993 66.422 21.1172 66.4125 21.0226L66.3642 20.9361C66.2973 20.8895 66.2154 20.8696 66.1347 20.8803C65.9899 20.892 65.8839 20.9705 65.8839 21.0607V21.071L65.9329 21.1539C65.9655 21.1783 66.0027 21.1961 66.0422 21.206C66.0817 21.2159 66.1229 21.2179 66.1632 21.2118V21.2118ZM66.2443 20.2738C66.112 20.2738 66.0053 20.3516 66.0053 20.4506C66.0053 20.5481 66.112 20.6266 66.2443 20.6266C66.3752 20.6266 66.4812 20.5481 66.4812 20.4506C66.4812 20.3516 66.3751 20.2738 66.2443 20.2738ZM66.2355 19.7143C66.2041 19.7219 66.1754 19.7382 66.1528 19.7613C66.1302 19.7844 66.1145 19.8134 66.1076 19.845C66.1006 19.8765 66.1027 19.9094 66.1136 19.9399C66.1245 19.9704 66.1437 19.9971 66.1691 20.0172C66.1945 20.0372 66.225 20.0497 66.2572 20.0532C66.2893 20.0567 66.3218 20.0511 66.3509 20.0371C66.38 20.023 66.4046 20.001 66.4218 19.9736C66.439 19.9463 66.4482 19.9146 66.4483 19.8822C66.4422 19.8318 66.4165 19.7858 66.3766 19.7543C66.3367 19.7229 66.286 19.7085 66.2355 19.7143V19.7143ZM66.2443 19.2714C66.2159 19.2778 66.1899 19.2922 66.1693 19.3128C66.1486 19.3334 66.1342 19.3593 66.1277 19.3877C66.1212 19.4161 66.1228 19.4458 66.1324 19.4733C66.1419 19.5008 66.1591 19.5251 66.1818 19.5433C66.2045 19.5615 66.2319 19.573 66.2609 19.5764C66.2898 19.5797 66.3191 19.5748 66.3454 19.5623C66.3717 19.5497 66.394 19.53 66.4096 19.5054C66.4252 19.4808 66.4335 19.4523 66.4337 19.4232C66.428 19.3782 66.4051 19.3373 66.3697 19.3089C66.3344 19.2806 66.2894 19.2671 66.2443 19.2714V19.2714ZM66.0901 18.9186C66.0905 18.9401 66.0951 18.9613 66.1037 18.981C66.1123 19.0007 66.1247 19.0185 66.1401 19.0335C66.1556 19.0484 66.1739 19.0601 66.1939 19.0679C66.2139 19.0758 66.2353 19.0796 66.2567 19.0792C66.2779 19.0795 66.2989 19.0755 66.3185 19.0676C66.3381 19.0597 66.356 19.048 66.371 19.0331C66.3861 19.0182 66.398 19.0005 66.4062 18.981C66.4143 18.9615 66.4185 18.9405 66.4185 18.9194C66.4185 18.8982 66.4143 18.8773 66.4062 18.8577C66.398 18.8382 66.3861 18.8205 66.371 18.8056C66.356 18.7908 66.3381 18.779 66.3185 18.7711C66.2989 18.7632 66.2779 18.7592 66.2567 18.7595C66.2136 18.7586 66.1718 18.7749 66.1406 18.8047C66.1093 18.8345 66.0912 18.8755 66.0901 18.9186V18.9186ZM66.1698 18.2557C66.1386 18.2568 66.1085 18.267 66.0831 18.2851C66.0577 18.3032 66.0382 18.3284 66.0271 18.3575C66.0159 18.3866 66.0135 18.4183 66.0202 18.4488C66.027 18.4792 66.0425 18.507 66.0649 18.5286C66.0873 18.5503 66.1156 18.5649 66.1462 18.5706C66.1769 18.5764 66.2085 18.5729 66.2372 18.5608C66.2659 18.5487 66.2904 18.5284 66.3077 18.5024C66.3249 18.4765 66.3342 18.446 66.3342 18.4148C66.3341 18.3935 66.3296 18.3725 66.3212 18.3529C66.3129 18.3333 66.3006 18.3156 66.2853 18.3008C66.27 18.286 66.2519 18.2744 66.2321 18.2666C66.2122 18.2589 66.191 18.2552 66.1698 18.2557V18.2557ZM63.3538 20.9647L63.2748 20.9559C63.0665 21.0101 62.7105 21.6269 62.4612 22.0837L62.4158 22.1622L61.6665 23.5717L61.4333 24.0205C61.42 24.0424 61.4149 24.0683 61.4187 24.0936C61.4226 24.119 61.4353 24.1421 61.4545 24.1591C61.4778 24.1821 61.5088 24.1956 61.5414 24.1971C61.5741 24.1986 61.6062 24.1879 61.6314 24.1671C61.9384 23.911 62.2049 23.6099 62.4217 23.2739L62.7039 22.886C62.9114 22.6399 63.082 22.365 63.2105 22.0698L63.2529 21.962C63.5395 21.2191 63.5841 21.1055 63.3538 20.9647ZM64.318 19.0008C64.3035 18.974 64.2794 18.9536 64.2507 18.9436C64.2219 18.9336 64.1904 18.9346 64.1623 18.9465L64.0278 19.0462C63.9373 19.1337 63.8312 19.2034 63.7149 19.2516C63.4671 19.3168 63.1316 19.4283 63.1111 19.5999V19.6212C63.1101 19.6384 63.1132 19.6556 63.1204 19.6714C63.1275 19.6871 63.1384 19.7008 63.152 19.7114C63.2456 19.7877 63.4737 19.7429 63.6389 19.6806C63.8667 19.5954 64.0736 19.4623 64.2457 19.2904C64.3677 19.179 64.3619 19.0675 64.318 19.0008ZM63.0782 19.0961C63.0751 19.1224 63.0799 19.149 63.0918 19.1726C63.1038 19.1962 63.1224 19.2158 63.1455 19.2289C63.1849 19.2435 63.2282 19.2436 63.2677 19.2292C63.3072 19.2149 63.3403 19.1869 63.3611 19.1504L63.5519 18.9847C63.6721 18.9053 63.78 18.8087 63.8721 18.6979C63.9664 18.5747 63.9262 18.4992 63.8918 18.4677C63.86 18.4378 63.82 18.418 63.777 18.4108C63.7339 18.4036 63.6897 18.4094 63.6499 18.4273L63.595 18.464C63.383 18.5791 63.2111 18.7562 63.1023 18.9715C63.0876 19.0115 63.0795 19.0536 63.0782 19.0961V19.0961ZM62.1103 18.5798L61.8427 18.769L61.823 18.7902C61.8045 18.8022 61.7913 18.8209 61.7861 18.8423C61.7809 18.8637 61.7842 18.8863 61.7952 18.9054L61.8274 18.9516L61.8983 18.9362L62.0006 18.9003L62.1498 18.8739C62.285 18.8728 62.4171 18.8325 62.5299 18.758L62.6286 18.5952L62.7748 18.359C62.8465 18.2821 62.8486 18.2271 62.8384 18.1977C62.8335 18.1832 62.8245 18.1705 62.8126 18.1609C62.8007 18.1513 62.7863 18.1452 62.7712 18.1434C62.747 18.1388 62.7221 18.1409 62.6991 18.1496C62.6762 18.1583 62.656 18.1731 62.641 18.1926C62.4715 18.3315 62.2943 18.4608 62.1103 18.5798L62.1103 18.5798ZM59.6591 18.56C59.7042 18.5595 59.7472 18.5411 59.7787 18.5089C59.8102 18.4768 59.8277 18.4334 59.8272 18.3884C59.8264 18.3554 59.8159 18.3235 59.7971 18.2965C59.7782 18.2696 59.7518 18.2488 59.7212 18.2367C59.6906 18.2246 59.6571 18.2219 59.6249 18.2287C59.5927 18.2356 59.5633 18.2518 59.5402 18.2753C59.5172 18.2988 59.5016 18.3286 59.4954 18.3609C59.4892 18.3932 59.4926 18.4267 59.5053 18.457C59.518 18.4874 59.5394 18.5134 59.5667 18.5317C59.5941 18.55 59.6262 18.5598 59.6591 18.56V18.56ZM58.8981 17.4526C58.8594 17.4893 58.8762 17.5678 58.8871 17.6308L58.8937 17.6748L58.8871 17.7012C58.8805 17.7128 58.877 17.726 58.877 17.7394C58.877 17.7527 58.8805 17.7659 58.8871 17.7775C58.901 17.801 58.9412 17.812 59.0078 17.812C59.0904 17.8134 59.0999 17.8039 59.1291 17.7291L59.151 17.6719C59.1603 17.6509 59.1653 17.6283 59.1655 17.6053C59.1658 17.5824 59.1613 17.5596 59.1525 17.5384C59.1302 17.5097 59.1024 17.4859 59.0705 17.4684C59.0387 17.4508 59.0037 17.44 58.9675 17.4365C58.9556 17.4327 58.9428 17.4323 58.9306 17.4351C58.9184 17.4379 58.9072 17.444 58.8981 17.4526L58.8981 17.4526ZM58.2541 17.3786C58.2068 17.3784 58.1603 17.3906 58.1192 17.4138C58.078 17.4371 58.0436 17.4707 58.0194 17.5113L57.9617 17.578C57.9125 17.6411 57.8768 17.7136 57.8567 17.7911C57.8365 17.8685 57.8325 17.9492 57.8447 18.0283C57.8483 18.0928 57.8681 18.2109 57.9324 18.2505C58.0552 18.3253 58.113 18.2725 58.2395 18.1522C58.2475 18.1442 58.3367 18.0694 58.3367 18.0694C58.4808 17.9774 58.5832 17.8326 58.6218 17.666C58.627 17.6331 58.6249 17.5994 58.6157 17.5673C58.6065 17.5353 58.5903 17.5056 58.5684 17.4805C58.5254 17.4434 58.4755 17.4153 58.4215 17.3978C58.3675 17.3803 58.3106 17.3737 58.2541 17.3786L58.2541 17.3786ZM59.9969 16.9496L60.0495 16.9334L60.4779 16.7655L61.1007 16.3563C61.1175 16.3438 61.2798 16.2192 61.2462 16.1414C61.2243 16.0893 61.1424 16.0974 61.0832 16.1084C60.9026 16.1538 60.7284 16.2218 60.5649 16.3108L60.3119 16.4296L60.2016 16.4758C59.8163 16.6349 59.5027 16.7779 59.5604 16.9254C59.5955 17.0119 59.7585 17.0214 59.9969 16.9495V16.9496ZM62.4846 17.1637C62.5148 17.162 62.5444 17.1539 62.5713 17.1398C62.5981 17.1258 62.6217 17.1062 62.6403 17.0823C62.689 16.9998 62.7152 16.906 62.7162 16.8103C62.7172 16.7145 62.6931 16.6202 62.6461 16.5367C62.6105 16.4547 62.5539 16.3835 62.4821 16.3304C62.4102 16.2772 62.3256 16.2439 62.2368 16.2338L62.2375 16.2353L62.2032 16.2294L61.9057 16.2551C61.8326 16.269 61.764 16.3003 61.7055 16.3462C61.6469 16.3921 61.6003 16.4514 61.5694 16.5191C61.5591 16.5444 61.5566 16.5721 61.562 16.5989C61.5675 16.6256 61.5807 16.6502 61.6001 16.6694C61.8273 16.9335 62.1407 17.1086 62.4847 17.1637L62.4846 17.1637ZM65.751 16.899C65.7714 16.8352 65.7904 16.7758 65.759 16.7428C65.7305 16.7149 65.6808 16.7171 65.5938 16.7486C65.4732 16.8101 65.3725 16.9046 65.3035 17.021C65.2345 17.1375 65.2001 17.2712 65.2041 17.4065L65.1946 17.4768C65.1749 17.5788 65.2275 17.6162 65.2597 17.6264C65.3235 17.6356 65.3886 17.6282 65.4487 17.6048C65.5088 17.5814 65.5618 17.5429 65.6026 17.4929C65.6508 17.413 65.9162 17.3411 66.1121 17.2869L66.1867 17.267C66.2751 17.2406 66.3226 17.2084 66.33 17.16C66.338 17.0991 66.2707 17.0426 66.2086 17.0082C66.1538 16.9737 66.0719 16.9964 65.9834 17.0228C65.9087 17.0545 65.8259 17.0622 65.7466 17.0448C65.7137 17.0302 65.7261 16.9744 65.751 16.8989V16.899ZM65.3737 15.4241C65.3483 15.4391 65.3283 15.4619 65.3167 15.4891C65.3051 15.5163 65.3026 15.5464 65.3094 15.5752L65.3211 15.6214C65.3357 15.6764 65.3416 15.6867 65.3905 15.6933L65.4804 15.7087C65.5445 15.7211 65.6108 15.715 65.6715 15.6911C65.7323 15.6672 65.7849 15.6265 65.8233 15.5737C65.8372 15.5437 65.8482 15.485 65.7685 15.43C65.7103 15.3908 65.6421 15.3694 65.572 15.3683C65.5019 15.3673 65.433 15.3867 65.3737 15.4241L65.3737 15.4241ZM65.2297 15.0025L65.3511 15.0655C65.3604 15.0864 65.3744 15.1049 65.392 15.1195C65.4097 15.1341 65.4304 15.1445 65.4527 15.1499C65.4779 15.1554 65.5041 15.155 65.5292 15.1488C65.5543 15.1426 65.5777 15.1306 65.5974 15.1139C65.6288 15.0897 65.6362 15.0435 65.6172 14.9819C65.5998 14.9278 65.5675 14.8797 65.5238 14.8432C65.4802 14.8067 65.4272 14.7834 65.3708 14.7759C65.2275 14.7759 65.0981 14.7913 65.0981 14.8991C65.0981 14.9577 65.1661 14.9797 65.2297 15.0025V15.0025ZM62.7376 16.0343C62.8249 16.0581 62.918 16.0476 62.9978 16.005C63.1426 15.939 63.2266 15.8209 63.1923 15.7387L63.1236 15.6778C63.0376 15.6549 62.9462 15.6654 62.8677 15.7072C62.7427 15.7622 62.6637 15.8531 62.6637 15.9331C62.6631 15.9471 62.6663 15.9611 62.6732 15.9734L62.7376 16.0343Z" fill="white"/>
</svg>
