<svg width="128" height="72" viewBox="0 0 128 72" fill="none" xmlns="http://www.w3.org/2000/svg">
<path fill-rule="evenodd" clip-rule="evenodd" d="M60.966 37.5394V29.8272H72.1085V37.5394H74.8556V20.8948H72.1085V27.4593H60.966V20.8948H58.2109V37.5394H60.966ZM85.0269 34.5962C84.1411 35.1831 82.9441 35.5066 81.6574 35.5066C80.019 35.5066 78.9176 34.7967 78.9176 33.7408C78.9176 32.6596 79.6702 32.1451 81.6017 31.9048L84.2598 31.5864C85.3178 31.4576 85.9923 31.3266 86.4178 31.035L86.4185 32.2804C86.4185 33.1792 85.925 34.0006 85.0269 34.5962V34.5962ZM86.6088 35.7722C86.8824 37.0763 87.8239 37.2651 88.8103 37.2651C89.4276 37.2651 90.139 37.2123 90.6665 37.1269L90.7765 37.1088L90.7758 35.2504L90.6188 35.2808C90.3966 35.3235 90.0709 35.3691 89.8213 35.3691C89.1627 35.3691 88.8935 35.1086 88.8928 34.4703L88.8913 28.0382C88.8906 24.9713 85.2548 24.5132 83.0889 24.5132C79.1238 24.5132 77.1402 25.8686 76.8428 28.7785L76.8283 28.9182H79.3113L79.3163 28.7959C79.3735 27.282 80.577 26.5467 82.9955 26.5467C85.3938 26.5467 86.4163 27.0945 86.4171 28.3805C86.4171 29.3162 85.765 29.5485 84.3944 29.6904L81.7124 29.9647C77.819 30.3692 76.3022 31.4467 76.3029 33.8088C76.3029 34.9305 76.8052 37.5394 81.4461 37.5394C83.188 37.5394 85.4792 36.9843 86.6088 35.7722V35.7722ZM101.616 32.2804C101.616 33.1792 101.122 34.0006 100.224 34.5962C99.3384 35.1831 98.1414 35.5066 96.8547 35.5066C95.2163 35.5066 94.1148 34.7967 94.1148 33.7408C94.1148 32.6596 94.8675 32.1451 96.799 31.9048L99.4578 31.5864C100.514 31.4576 101.19 31.3266 101.615 31.035L101.616 32.2804V32.2804ZM105.816 35.2808C105.553 35.3329 105.286 35.3624 105.019 35.3691C104.36 35.3691 104.091 35.1086 104.091 34.4703L104.089 28.0382C104.088 24.9713 100.453 24.5132 98.2861 24.5132C94.3218 24.5132 92.3375 25.8686 92.0401 28.7785L92.0256 28.9189H94.5085L94.5136 28.7959C94.5708 27.282 95.7742 26.5467 98.1928 26.5467C100.591 26.5467 101.614 27.0945 101.615 28.3812C101.615 29.3162 100.963 29.5485 99.5924 29.6911L96.9097 29.9647C93.0163 30.3692 91.4995 31.4467 91.5002 33.8088C91.5002 34.9305 92.0024 37.5394 96.6434 37.5394C98.3853 37.5394 100.676 36.9843 101.806 35.7722C102.08 37.0763 103.021 37.2651 104.008 37.2651C104.625 37.2651 105.336 37.2123 105.864 37.1269L105.974 37.1088L105.973 35.2504L105.816 35.2808V35.2808ZM106.697 33.1112L106.707 33.2473C106.914 36.0957 109.001 37.5394 112.912 37.5394C114.797 37.5394 116.28 37.1964 117.323 36.5212C118.436 35.799 119.001 34.725 119 33.3298C119 31.4793 117.647 30.4321 114.74 30.0334L111.522 29.5999C109.954 29.3785 109.657 28.9522 109.657 28.2437C109.657 27.6554 109.975 27.2089 110.603 26.9165C111.117 26.6777 111.846 26.5467 112.658 26.5467C115.102 26.5467 116.035 27.6395 116.094 28.6613L116.1 28.7814H118.625L118.613 28.6432C118.378 25.9801 116.272 24.5132 112.681 24.5132C111.011 24.5132 109.618 24.8743 108.649 25.5567C107.659 26.2543 107.137 27.2704 107.137 28.4949C107.137 30.4633 108.81 31.5683 110.467 31.7905L114.209 32.292C115.995 32.5395 116.343 33.0186 116.343 33.7632C116.344 34.0838 116.23 34.5434 115.684 34.9088C115.091 35.3054 114.135 35.5066 112.843 35.5066C110.178 35.5066 109.228 34.3342 109.227 33.2386V33.1112H106.697Z" fill="#E6002D"/>
<path fill-rule="evenodd" clip-rule="evenodd" d="M66.1707 40.4341H58.2109V51.2893H59.9405V46.5586H65.8805L65.879 44.9274H59.9405V42.0653H66.1714L66.1707 40.4341ZM71.1554 40.4341L71.1453 40.5571C71.0396 41.7642 70.0228 42.3764 68.1203 42.3764H67.6188L67.6195 43.8006H70.7964L70.7993 51.2893H72.6845L72.6787 40.4341H71.1554ZM87.1581 42.0653V40.4341H77.7503L77.751 42.0653H81.5764V51.2893H83.3378V42.0653H87.1581ZM90.8467 44.7335C92.1349 44.7335 93.0677 45.4159 93.3145 46.5238H88.2813C88.5317 45.447 89.5434 44.7335 90.8467 44.7335ZM90.9176 43.3288C89.513 43.3288 88.3486 43.7384 87.5525 44.5142C86.831 45.2162 86.4337 46.209 86.4344 47.309C86.4359 49.7269 88.1966 51.2893 90.9213 51.2893C92.3469 51.2893 94.1438 50.6286 94.9094 48.7738L94.9789 48.6037H93.1878L93.1538 48.6761C92.6328 49.7667 91.3685 49.8846 90.8496 49.8846C89.6903 49.8846 88.4057 49.1711 88.2255 47.846H95.1186V47.5435C95.1164 44.4353 92.9476 43.3288 90.9176 43.3288V43.3288ZM101.844 48.066C101.844 48.5928 101.559 49.0755 101.04 49.4251C100.522 49.7746 99.8211 49.9664 99.0677 49.9664C98.124 49.9664 97.4901 49.5575 97.4901 48.9474C97.4894 48.3178 97.9098 48.0291 99.0395 47.8865L100.617 47.694C101.194 47.6224 101.582 47.5493 101.844 47.4002V48.066H101.844ZM104.375 49.8318C104.223 49.8629 104.068 49.8803 103.912 49.8839C103.55 49.8839 103.409 49.7449 103.408 49.3889V45.5049C103.408 43.611 101.219 43.3288 99.9159 43.3288C97.5342 43.3288 96.3409 44.161 96.1629 45.9471L96.1484 46.0831H97.7209L97.7253 45.9637C97.7579 45.0808 98.4562 44.651 99.8601 44.651C101.25 44.651 101.843 44.9687 101.843 45.7119C101.843 46.2431 101.486 46.3704 100.686 46.4551L99.0938 46.6215C96.7838 46.8654 95.8416 47.5515 95.8423 48.9894C95.8423 49.6813 96.1462 51.2893 98.9425 51.2893C99.9557 51.2893 101.28 50.9694 101.979 50.2711C102.174 51.0157 102.755 51.1243 103.312 51.1243C103.679 51.1243 104.104 51.0917 104.421 51.0396L104.526 51.0222V49.8014L104.375 49.8311V49.8318ZM119 46.086C118.999 43.9092 117.135 43.3288 116.034 43.3288C114.75 43.3288 113.79 43.7399 113.027 44.6198C112.453 43.7854 111.554 43.3288 110.477 43.3288C109.756 43.3288 108.484 43.4866 107.656 44.4831V43.5843H105.974V51.2893H107.659L107.657 46.8683C107.657 46.2221 107.896 45.6829 108.349 45.3095C108.764 44.9672 109.343 44.7791 109.979 44.7791C110.739 44.7791 111.646 45.0649 111.647 46.4276L111.649 51.2893H113.331V46.6548C113.331 46.0426 113.559 45.5642 114.015 45.2342C114.419 44.9404 115 44.7783 115.65 44.7783C116.411 44.7783 117.317 45.0649 117.318 46.4276L117.321 51.2893H119V46.086Z" fill="black"/>
<path fill-rule="evenodd" clip-rule="evenodd" d="M31.6382 50.0424C27.8845 50.0424 24.4977 48.5291 22.0046 46.073H25.877C25.877 46.073 37.0058 26.2434 37.0448 26.1646C37.0991 26.0835 37.0716 26.0307 36.9942 26.0307H32.4524C32.3605 26.0307 32.3467 26.0582 32.3214 26.0973C32.2946 26.1371 26.0471 37.1406 26.0471 37.1406H17.884C17.8574 36.7917 17.8446 36.4419 17.8456 36.092C17.8456 28.3935 24.0128 22.1409 31.639 22.1409C35.5229 22.1409 39.0407 23.7742 41.5476 26.4026C40.4592 28.2611 35.5758 36.6485 34.9201 37.8701C34.5395 36.9799 32.7802 37.1536 31.8749 37.1392C31.4805 37.8028 29.6315 41.3343 29.6315 41.3343C29.6315 41.3343 30.6533 41.3213 31.5724 41.3343C32.4654 41.3488 32.5711 42.2896 32.2165 42.8873C31.8611 43.4851 30.4036 46.0715 30.4036 46.0715H35.0902C35.0902 46.0715 40.8398 35.9183 44.1072 30.1455C44.9831 32.0053 45.4352 34.0363 45.4308 36.092C45.4308 43.7912 39.2506 50.0416 31.6375 50.0416L31.6382 50.0424ZM18.8559 41.335H23.6191L21.3215 45.3565C20.2847 44.1601 19.4515 42.8015 18.8552 41.335H18.8559ZM31.6375 18C21.7549 18 13.7503 26.098 13.7503 36.0927C13.7503 36.4502 13.7619 36.7947 13.7756 37.1406H11.4396C11.3086 37.1406 11.2428 37.2202 11.1899 37.3143C11.1509 37.4069 9.0768 41.097 9.02397 41.1896C8.98489 41.2822 8.98489 41.335 9.09055 41.335H14.5109C16.7283 48.7672 23.554 54.184 31.6375 54.184C41.5215 54.184 49.5269 46.086 49.5269 36.0927C49.5269 26.0973 41.5215 18 31.6382 18" fill="#E6002D"/>
<path fill-rule="evenodd" clip-rule="evenodd" d="M73.397 41.1106C73.4259 41.1106 73.4549 41.1092 73.4809 41.107C73.5051 41.1058 73.5288 41.1004 73.5511 41.0911C73.5711 41.0822 73.5879 41.0676 73.5996 41.0491C73.6131 41.0254 73.6197 40.9983 73.6184 40.971C73.6184 40.942 73.6126 40.9203 73.6018 40.9029C73.5915 40.8864 73.577 40.8729 73.5598 40.8639C73.541 40.8544 73.5207 40.8483 73.4997 40.8458C73.4777 40.8425 73.4554 40.8408 73.4332 40.8407H73.2602V41.1106H73.3977H73.397ZM73.4549 40.7343C73.5547 40.7343 73.6286 40.7546 73.677 40.7944C73.7255 40.8342 73.7494 40.8957 73.7494 40.9768C73.7494 41.0527 73.7277 41.1085 73.6857 41.1439C73.6408 41.1807 73.5858 41.2029 73.528 41.2076L73.7682 41.581H73.6278L73.3992 41.2163H73.2602V41.581H73.1299V40.7343H73.4549V40.7343ZM72.8607 41.4016C72.8957 41.494 72.9536 41.576 73.0289 41.64C73.1041 41.704 73.1944 41.7479 73.2913 41.7676C73.3881 41.7872 73.4884 41.782 73.5827 41.7524C73.677 41.7229 73.7622 41.6699 73.8305 41.5984C73.8847 41.5415 73.9275 41.4747 73.9564 41.4016C73.9869 41.3229 74.0022 41.2391 74.0013 41.1548C74.0013 41.0679 73.9868 40.9876 73.9564 40.9123C73.8982 40.7676 73.7858 40.6512 73.643 40.5881C73.5698 40.5561 73.4907 40.5398 73.4107 40.5404C73.2922 40.5394 73.1761 40.5744 73.0779 40.6408C72.9797 40.7073 72.904 40.8019 72.8607 40.9123C72.8304 40.9895 72.8152 41.0718 72.8159 41.1548C72.8159 41.2438 72.8303 41.3263 72.8607 41.4016ZM72.7428 40.8696C72.8184 40.6942 72.9604 40.5558 73.1377 40.4846C73.3151 40.4134 73.5134 40.4152 73.6893 40.4897C73.8208 40.5442 73.933 40.6365 74.0119 40.7549C74.0907 40.8733 74.1326 41.0125 74.1322 41.1548C74.1336 41.2514 74.1153 41.3473 74.0786 41.4367C74.0419 41.5262 73.9876 41.6072 73.9188 41.6751C73.7833 41.8082 73.6007 41.8824 73.4107 41.8814C73.2197 41.8825 73.0359 41.8084 72.8991 41.6751C72.7953 41.572 72.7248 41.4401 72.697 41.2964C72.6691 41.1528 72.685 41.0041 72.7428 40.8696V40.8696Z" fill="black"/>
</svg>
