<svg width="128" height="72" viewBox="0 0 128 72" fill="none" xmlns="http://www.w3.org/2000/svg">
<path d="M67.1634 41.7679C67.1634 42.2582 66.9484 42.6108 66.2861 42.6108H62.0286C61.4867 42.6108 61.1685 42.456 61.1685 41.9486C61.1685 41.4411 61.3835 41.1831 62.0286 41.1831H67.1634V41.7679ZM85.9308 39.7553V39.1876C85.9308 38.6802 86.1458 38.3447 86.8339 38.3447H91.0914C91.6762 38.3447 91.9687 38.5168 91.9687 39.0672C91.9687 39.5317 91.7364 39.7467 91.1258 39.7467H85.9308V39.7553ZM97.1035 35.9881V44.9675H101.404V38.4307H104.922C106.109 38.4307 106.719 38.8006 106.719 39.9531V44.9761H111.011V39.6005C111.011 37.0804 109.627 35.9881 105.696 35.9881H97.1035ZM86.5156 35.9881C83.058 35.9881 81.6733 37.1406 81.6733 39.7381V41.5185C81.6733 43.7634 83.058 44.9761 86.1802 44.9761H95.2801V42.6108H87.0403C86.2232 42.6108 85.948 42.3786 85.948 41.7679V41.3981H92.4503C94.6952 41.3981 95.9681 40.6928 95.9681 39.0156V38.6028C95.9681 37.0804 95.2112 35.9881 91.401 35.9881H86.5156V35.9881ZM72.711 44.9675H77.0029V39.0672C77.0029 38.6802 77.1578 38.4221 77.691 38.4221H81.0282V35.9795H76.2461C73.6916 35.9795 72.711 36.9342 72.711 38.534V44.9675ZM58.0292 35.9881V38.3533H66.0969C66.8968 38.3533 67.172 38.6286 67.172 39.2134V39.5575H60.6869C57.9689 39.5575 57.1518 40.6756 57.1518 42.0948V42.4474C57.1518 44.417 58.7344 44.9675 61.8394 44.9675H66.6043C69.9845 44.9675 71.4467 44.202 71.4467 41.5529V39.4629C71.4467 37.218 70.0619 35.9881 66.914 35.9881H58.0292V35.9881ZM32.3294 40.9852C32.3294 43.815 33.7744 44.9675 37.5072 44.9675H45.6867V42.542H38.1265C37.232 42.542 36.6213 42.1292 36.6213 40.839V40.0563C36.6213 38.9038 37.1889 38.4135 38.1093 38.4135H45.6867V35.9709H37.3868C33.7141 35.9709 32.3294 37.5104 32.3294 39.9703V40.9852ZM46.9769 34.5603V44.9675H56.309V42.5248H51.2688V34.5603H46.9769ZM20.1676 40.3832V34.5603H17.7421C16.2369 34.5603 15.3768 35.1624 14.4823 35.8677L3 44.9675H8.1778L15.7983 38.8006V44.9675H19.3677L26.7473 38.7576V44.9675H31.1252V34.5603H28.7428C27.4526 34.5603 26.5581 35.085 25.655 35.8332L20.1676 40.3832Z" fill="black"/>
<path d="M121.341 27C118.941 27 115.561 27.7139 111.906 29.0556C108.637 30.2426 105.498 31.7908 102.565 33.6572C104.474 32.8745 108.25 31.9886 111.364 31.9886C115.561 31.9886 118.554 33.597 114.133 39.2306C127.147 30.7156 126.794 27.0086 121.341 27Z" fill="black"/>
</svg>
