<svg width="128" height="72" viewBox="0 0 128 72" fill="none" xmlns="http://www.w3.org/2000/svg">
<path d="M42.9521 36.1638C42.9521 45.4429 35.4429 52.9521 26.1638 52.9521C16.8846 52.9521 9.37549 45.4429 9.37549 36.1638C9.37549 26.8846 16.8846 19.3755 26.1638 19.3755C35.4429 19.3755 42.9521 26.8846 42.9521 36.1638V36.1638ZM26.1638 20.3946C17.421 20.3946 10.3946 27.421 10.3946 36.1638C10.3946 44.9066 17.4746 51.933 26.1638 51.933C34.9066 51.933 41.933 44.8529 41.933 36.1638C41.933 27.421 34.9066 20.3946 26.1638 20.3946V20.3946Z" fill="url(#paint0_linear_509_2186)"/>
<path d="M26.1637 20.3945C17.4209 20.3945 10.3945 27.4209 10.3945 36.1637C10.3945 44.9065 17.4746 51.9329 26.1637 51.9329C34.9065 51.9329 41.9329 44.8529 41.9329 36.1637C41.9329 27.4209 34.9065 20.3945 26.1637 20.3945V20.3945ZM26.1637 50.9138C18.0109 50.9138 11.4136 44.3165 11.4136 36.1637C11.4136 28.0109 18.0109 21.4136 26.1637 21.4136C34.3165 21.4136 40.9138 28.0109 40.9138 36.1637C40.9138 44.3165 34.3165 50.9138 26.1637 50.9138Z" fill="url(#paint1_linear_509_2186)"/>
<path d="M26.1637 52.952C35.4429 52.952 42.952 45.4429 42.952 36.1637C42.952 26.8846 35.4429 19.3755 26.1637 19.3755C16.8846 19.3755 9.37546 26.8846 9.37546 36.1637C9.37546 45.4429 16.8846 52.952 26.1637 52.952V52.952ZM26.1637 19C35.6038 19 43.3275 26.7237 43.3275 36.1637C43.3275 45.6038 35.6038 53.3275 26.1637 53.3275C16.7237 53.3275 9 45.6038 9 36.1637C9 26.7237 16.7237 19 26.1637 19Z" fill="url(#paint2_linear_509_2186)"/>
<path d="M10.1797 36.2173C10.1797 27.4209 17.3134 20.1799 26.1634 20.1799C35.0135 20.1799 42.1472 27.3672 42.1472 36.2173C42.1472 45.0137 35.0135 52.1474 26.1634 52.1474C17.3134 52.1474 10.1797 45.0137 10.1797 36.2173V36.2173ZM15.1679 25.1681C12.3252 28.0109 10.5551 31.9264 10.5551 36.2173C10.5551 40.5082 12.3252 44.4237 15.1143 47.2128C17.957 50.0019 21.8725 51.772 26.1634 51.772C30.4544 51.772 34.3698 50.0556 37.159 47.2128C40.0017 44.4237 41.7181 40.5082 41.7181 36.2173C41.7181 31.9264 39.9481 28.0109 37.159 25.1681C34.3698 22.3254 30.4544 20.5554 26.1634 20.5554C21.8725 20.5554 17.957 22.3254 15.1679 25.1681Z" fill="white"/>
<path d="M26.1636 50.9676C22.1945 50.9676 18.4935 49.4121 15.7044 46.623C12.9153 43.8339 11.3599 40.133 11.3599 36.1638C11.3599 32.1947 12.9153 28.4938 15.7044 25.7047C18.4935 22.9156 22.1945 21.3601 26.1636 21.3601C30.1327 21.3601 33.8336 22.9156 36.6228 25.7047C39.4119 28.4938 40.9673 32.1947 40.9673 36.1638C40.9673 40.133 39.4119 43.8339 36.6228 46.623C33.8336 49.4121 30.1327 50.9676 26.1636 50.9676ZM26.1636 50.5385C29.9718 50.5385 33.6191 49.0366 36.3009 46.3548C39.0364 43.6193 40.4846 40.0257 40.4846 36.2175C40.4846 32.4093 38.9828 28.762 36.3009 26.0801C33.5655 23.3447 29.9718 21.8965 26.1636 21.8965C22.3554 21.8965 18.7081 23.3983 16.0263 26.0801C13.2908 28.7083 11.789 32.3556 11.789 36.1638C11.789 39.972 13.2908 43.6193 15.9726 46.3012C18.7081 49.0366 22.3554 50.5385 26.1636 50.5385V50.5385Z" fill="url(#paint3_linear_509_2186)"/>
<path d="M39.1975 43.1365C38.9293 42.922 28.5774 34.7155 28.5774 34.7155L26.1638 20.9309C26.0029 20.9845 25.7883 21.1455 25.6811 21.36L23.9647 34.7692L13.291 42.9756C13.291 42.9756 13.0764 43.2438 12.9692 43.4047C12.9155 43.512 12.9155 43.6729 12.9155 43.8338L26.1102 38.4165L39.3048 43.8338C39.4121 43.5656 39.3048 43.2974 39.1975 43.1365V43.1365Z" fill="white"/>
<path d="M26.2708 36.5929L26.1636 39.0602L38.2855 43.9412C38.7146 44.1557 39.0364 44.0484 39.3582 43.8339L26.4318 36.5393C26.3781 36.4857 26.2708 36.5393 26.2708 36.5929Z" fill="#565F64"/>
<path d="M26.271 36.5929C26.271 36.5929 26.9683 37.8266 27.7728 38.6848C28.8992 39.9184 30.401 40.7766 30.401 40.7766L38.2856 43.9412C38.7147 44.1557 39.0365 44.0484 39.3583 43.8339L26.4319 36.5393C26.3783 36.4857 26.271 36.5393 26.271 36.5929V36.5929Z" fill="url(#paint4_linear_509_2186)"/>
<path d="M39.3047 43.351C39.3047 43.2974 39.2511 43.2438 39.1975 43.1365L28.1483 35.0374L26.6465 36.0028C26.6465 36.0028 26.7538 36.0565 26.8074 36.0028C26.9683 35.9492 27.2901 35.8955 27.6119 36.0028C27.8801 36.1101 39.3047 43.4047 39.3047 43.4047V43.351Z" fill="#A4AAAE" fill-opacity="0.6"/>
<path d="M38.9294 42.8684L28.6312 34.7156L28.1484 35.0374L39.1976 43.1902C39.144 43.0829 39.0367 42.9756 38.9294 42.8684Z" fill="#333E46"/>
<path d="M26.4322 35.7883L26.3785 35.842C26.3785 35.842 26.3785 35.9493 26.4858 35.8956C26.5394 35.842 28.0949 35.0374 28.6313 34.7156L26.754 21.8428C26.7004 21.3601 26.4858 21.1455 26.1104 20.9846L26.3249 35.8956L26.4322 35.7883Z" fill="#565F64"/>
<path d="M25.5199 21.8427V22.54L24.3398 34.3937C24.3398 34.5546 24.3935 34.7155 24.5544 34.8228L25.2517 35.3591L25.7344 22.2718L25.788 21.2527C25.6271 21.36 25.5735 21.5745 25.5199 21.8427V21.8427Z" fill="#A4AAAE" fill-opacity="0.6"/>
<path d="M24.8766 35.5737L24.2329 35.0374L13.3447 42.9219C13.3447 42.9219 13.0229 43.1365 12.9692 43.351L13.3447 43.1365L24.7693 35.9492C24.9839 35.8419 25.0375 35.7346 24.8766 35.5737V35.5737Z" fill="#A4AAAE" fill-opacity="0.6"/>
<path d="M26.0029 36.5929C26.0029 36.5393 25.9492 36.4857 25.8956 36.5393L12.9155 43.8875C13.2373 44.1021 13.5592 44.1557 13.9883 43.9948L26.1102 39.1139L26.0029 36.5929Z" fill="#565F64"/>
<path d="M26.3784 35.842L26.4321 35.7884L26.3784 35.842C26.3784 35.842 26.3784 35.8957 26.4321 35.8957H26.4857C26.5393 35.842 28.0948 35.0375 28.6312 34.7156L28.4166 33.1602L26.7539 21.8428C26.7539 21.6283 26.7002 21.4674 26.593 21.3601C26.593 21.3601 27.3975 32.1947 27.3975 33.3747C27.3975 34.9302 26.3784 35.842 26.3784 35.842V35.842Z" fill="url(#paint5_linear_509_2186)"/>
<path d="M26.0029 36.5929C26.0029 36.5393 25.9492 36.4857 25.8956 36.5393L12.9155 43.8875C13.2373 44.1021 13.5592 44.1557 13.9883 43.9948L26.1102 39.1139L26.0029 36.5929Z" fill="url(#paint6_linear_509_2186)"/>
<path d="M13.988 43.9411L26.1098 39.0602L26.0026 36.7002C25.788 37.3438 25.4126 38.0411 24.3935 38.5775C23.6426 39.0066 16.4552 42.5466 13.8807 43.7802C13.7198 43.8875 13.5052 43.9411 13.3979 43.9948C13.6125 44.1021 13.7734 44.0484 13.988 43.9411Z" fill="url(#paint7_linear_509_2186)"/>
<path d="M26.4322 35.7883L26.3785 35.842C26.3785 35.842 26.3785 35.9493 26.4858 35.8956C26.5394 35.842 28.0949 35.0374 28.6313 34.7156L26.754 21.8428C26.7004 21.3601 26.4858 21.1455 26.1104 20.9846L26.3249 35.8956L26.4322 35.7883Z" fill="url(#paint8_linear_509_2186)"/>
<path d="M26.4322 35.7883L26.3785 35.842C26.3785 35.842 26.3785 35.9493 26.4858 35.8956C26.5394 35.842 28.0949 35.0374 28.6313 34.7156L26.754 21.8428C26.7004 21.3601 26.4858 21.1455 26.1104 20.9846L26.3249 35.8956L26.4322 35.7883Z" fill="url(#paint9_linear_509_2186)"/>
<path d="M11.7355 42.8147C11.36 41.9565 9.21458 37.7728 11.5746 29.7273H10.6628C10.18 31.3364 9.80458 32.3019 9.59004 33.75C9.59004 33.75 9.48276 34.2864 9.42912 34.8764C9.37549 35.4664 9.37549 35.7882 9.37549 36.1637C9.37549 39.3819 10.18 41.2592 10.18 41.2592C11.0382 43.941 12.5401 46.3547 14.5782 48.1783C16.3483 49.7338 19.0837 50.9138 21.3365 51.3429C20.961 51.2893 14.5246 48.5538 11.7355 42.8147V42.8147Z" fill="url(#paint10_linear_509_2186)"/>
<path d="M26.3782 36.4856H25.8955C25.9491 36.4856 26.0028 36.4856 26.0028 36.5392L26.1101 39.0065H26.1637L26.271 36.5392C26.271 36.4856 26.3246 36.432 26.3782 36.4856V36.4856Z" fill="url(#paint11_linear_509_2186)"/>
<path d="M31.5272 20.2336C37.1591 22.3791 42.4691 28.2791 42.4691 35.7347C42.4691 44.7456 35.2818 52.0938 26.1636 52.0938V52.952C35.2818 52.952 42.9519 45.4429 42.9519 36.1637C42.9519 28.7619 38.2318 22.54 31.5272 20.2336V20.2336Z" fill="url(#paint12_linear_509_2186)"/>
<path d="M40.5385 29.8345C36.7839 21.199 28.3093 20.7162 27.8266 20.6626H27.7729C34.263 21.8426 38.393 26.0799 39.8412 30.5318V30.5854C40.4848 32.3018 40.8067 34.1254 40.8603 36.11C40.9139 37.9873 40.4849 40.0791 39.6803 42.01C39.6267 42.2782 39.573 42.6 39.5194 42.6H40.3776C42.9521 37.7727 41.8258 32.8918 40.5385 29.8345V29.8345Z" fill="url(#paint13_linear_509_2186)"/>
<path d="M10.1797 36.2173C10.1797 27.4209 17.3134 20.1799 26.1634 20.1799C35.0135 20.1799 42.1472 27.3672 42.1472 36.2173C42.1472 45.0137 35.0135 52.1474 26.1634 52.1474C17.3134 52.1474 10.1797 45.0137 10.1797 36.2173V36.2173ZM15.1679 25.1681C12.3252 28.0109 10.5551 31.9264 10.5551 36.2173C10.5551 40.5082 12.3252 44.4237 15.1143 47.2128C17.957 50.0019 21.8725 51.772 26.1634 51.772C30.4544 51.772 34.3698 50.0556 37.159 47.2128C40.0017 44.4237 41.7181 40.5082 41.7181 36.2173C41.7181 31.9264 39.9481 28.0109 37.159 25.1681C34.3698 22.3254 30.4544 20.5554 26.1634 20.5554C21.8725 20.5554 17.957 22.3254 15.1679 25.1681Z" fill="#FBFBFB"/>
<path d="M13.2373 43.0293L24.1792 35.1447C24.7692 35.4666 25.7347 35.8957 25.8419 35.8957C25.9492 35.9493 25.9492 35.842 25.9492 35.842L24.6083 34.7156C24.4474 34.6084 24.3937 34.4475 24.3937 34.2866L25.681 21.3601C25.6274 21.4137 25.6274 21.521 25.5737 21.5747C25.5201 21.6819 25.5201 21.7356 25.5201 21.8428L23.6428 34.7693L13.3446 42.8684C13.2909 42.9221 13.2373 42.9757 13.2373 43.0293V43.0293Z" fill="#333F47"/>
<path fill-rule="evenodd" clip-rule="evenodd" d="M107.555 31.4105H118.547C118.726 31.4105 118.874 31.2625 118.874 31.0837V28.3396C118.874 28.1608 118.726 28.0128 118.547 28.0128H113.145C112.966 28.0128 112.818 28.1608 112.818 28.3396V28.836C112.818 29.0148 112.966 29.1628 113.145 29.1628H116.694C116.752 29.1628 116.802 29.2122 116.802 29.2707V29.8011C116.802 29.8597 116.752 29.909 116.694 29.909H109.63C109.451 29.909 109.303 29.761 109.303 29.5822V27.5472C109.303 27.3684 109.451 27.2204 109.63 27.2204H118.55C118.729 27.2204 118.877 27.0724 118.877 26.8935V26.1474C118.877 25.9686 118.729 25.8206 118.55 25.8206H107.558C107.379 25.8206 107.231 25.9686 107.231 26.1474V31.0806C107.228 31.2625 107.376 31.4105 107.555 31.4105ZM104.478 31.4105H105.896C106.075 31.4105 106.223 31.2625 106.223 31.0837V26.1505C106.223 25.9716 106.075 25.8236 105.896 25.8236H104.302C104.237 25.8236 104.179 25.8391 104.123 25.8761L100.235 28.4136C100.124 28.4845 99.9885 28.4845 99.8775 28.4136L95.9894 25.8761C95.9339 25.8391 95.8784 25.8236 95.8106 25.8236H94.2166C94.0377 25.8236 93.8897 25.9716 93.8897 26.1505V31.0837C93.8897 31.2625 94.0377 31.4105 94.2166 31.4105H95.6349C95.8137 31.4105 95.9617 31.2625 95.9617 31.0837V28.1114C95.9617 28.0559 95.9894 28.0066 96.0388 27.9789C96.0881 27.9511 96.1467 27.9542 96.1929 27.9819L99.2022 29.8689C99.2577 29.9028 99.3101 29.9182 99.3749 29.9182H100.725C100.79 29.9182 100.846 29.9028 100.898 29.8689L103.907 27.9819C103.957 27.9511 104.012 27.9511 104.061 27.9789C104.111 28.0066 104.142 28.0559 104.142 28.1114V31.0837C104.151 31.2625 104.299 31.4105 104.478 31.4105V31.4105ZM92.5608 31.4105H91.1425C90.9637 31.4105 90.8157 31.2625 90.8157 31.0837V30.2142C90.8157 30.1556 90.7664 30.1063 90.7078 30.1063H83.2493C83.1445 30.1063 83.0551 30.1495 82.9903 30.2327L82.2103 31.241C82.1239 31.352 82.0037 31.4105 81.865 31.4105H79.9163C79.8577 31.4105 79.8053 31.3797 79.7807 31.3242C79.7529 31.2718 79.7591 31.2101 79.7961 31.1639L83.8259 25.9501C83.8907 25.8668 83.9801 25.8236 84.0849 25.8236H92.5608C92.7397 25.8236 92.8877 25.9716 92.8877 26.1505V31.0837C92.8877 31.2625 92.7428 31.4105 92.5608 31.4105V31.4105ZM90.8157 28.5585V27.3344C90.8157 27.2759 90.7664 27.2265 90.7078 27.2265H85.4231C85.3521 27.2265 85.2936 27.2574 85.2504 27.3098L84.31 28.5277C84.2884 28.5554 84.2853 28.5893 84.3007 28.6202C84.3162 28.651 84.3439 28.6695 84.3778 28.6695H90.7078C90.7664 28.6664 90.8157 28.6171 90.8157 28.5585ZM66.3376 31.4105H61.6602C61.6017 31.4105 61.5492 31.3797 61.5246 31.3242C61.4968 31.2718 61.503 31.2101 61.54 31.1639L65.5698 25.9501C65.6346 25.8668 65.724 25.8236 65.8288 25.8236H70.4599C70.5277 25.8236 70.5863 25.8606 70.6172 25.9223C70.648 25.984 70.6387 26.0518 70.5987 26.1073L66.5966 31.2841C66.5318 31.3674 66.4424 31.4105 66.3376 31.4105V31.4105ZM69.7384 31.4105H67.5246C67.466 31.4105 67.4136 31.3797 67.389 31.3242C67.3612 31.2718 67.3674 31.2101 67.4044 31.1639L71.4342 25.9501C71.499 25.8668 71.5884 25.8236 71.6932 25.8236H73.8638C73.9317 25.8236 73.9903 25.8606 74.0211 25.9223C74.0519 25.984 74.0427 26.0518 74.0026 26.1073L70.0005 31.2841C69.9327 31.3674 69.8433 31.4105 69.7384 31.4105V31.4105ZM72.7878 31.4105H71.0766C71.018 31.4105 70.9656 31.3797 70.9409 31.3242C70.9131 31.2718 70.9193 31.2101 70.9563 31.1639L74.9862 25.9501C75.0509 25.8668 75.1403 25.8236 75.2452 25.8236H76.9101C76.978 25.8236 77.0365 25.8606 77.0674 25.9223C77.0982 25.984 77.092 26.0518 77.0489 26.1073L73.0468 31.2841C72.982 31.3674 72.8926 31.4105 72.7878 31.4105V31.4105ZM75.5411 31.4105H74.3479C74.2893 31.4105 74.2369 31.3797 74.2123 31.3242C74.1845 31.2718 74.1907 31.2101 74.2277 31.1639L78.2575 25.9501C78.3223 25.8668 78.4117 25.8236 78.5165 25.8236H79.6666C79.7344 25.8236 79.793 25.8606 79.8238 25.9223C79.8547 25.984 79.8454 26.0518 79.8053 26.1073L75.8032 31.2841C75.7354 31.3674 75.646 31.4105 75.5411 31.4105V31.4105ZM78.1804 31.4105H77.3017C77.2431 31.4105 77.1907 31.3797 77.166 31.3242C77.1383 31.2718 77.1445 31.2101 77.1815 31.1639L81.2113 25.9501C81.276 25.8668 81.3655 25.8236 81.4703 25.8236H82.3028C82.3706 25.8236 82.4292 25.8606 82.46 25.9223C82.4909 25.984 82.4816 26.0518 82.4415 26.1073L78.4394 31.2841C78.3747 31.3674 78.2853 31.4105 78.1804 31.4105V31.4105Z" fill="black"/>
<path d="M57.809 34.4939C57.4915 34.2966 56.8686 34.2041 55.9067 34.2041H51.7227V39.8311H52.6137V37.6728H55.9067C56.8717 37.6728 57.4946 37.5803 57.809 37.386C58.1328 37.1887 58.2962 36.8218 58.2962 36.3007V35.5823C58.2993 35.0613 58.1359 34.6943 57.809 34.4939ZM57.3558 35.7951V36.0572C57.3558 36.4056 57.2787 36.6337 57.1307 36.7324C56.9704 36.8403 56.6312 36.8958 56.1194 36.8958H52.6168V34.9564H56.1194C56.6312 34.9564 56.9735 35.0119 57.1307 35.1198C57.2787 35.2216 57.3558 35.4497 57.3558 35.7951V35.7951Z" fill="black"/>
<path d="M61.0216 34.9718H66.1183V34.2041H60.146V39.8311H66.1183V39.0634H61.0216V37.2966H65.9056V36.5289H61.0216V34.9718Z" fill="black"/>
<path d="M67.4072 34.9718H70.3333V39.8311H71.2243V34.9718H74.1473V34.2041H67.4072V34.9718Z" fill="black"/>
<path d="M82.0097 34.4908C81.689 34.2965 81.0662 34.2009 80.1011 34.2009H75.8062V39.8279H76.6972V37.6819H80.1998C80.9429 37.6819 81.2235 37.7775 81.3283 37.8608C81.4763 37.9749 81.5503 38.1999 81.5503 38.5298V39.8279H82.4414V38.3942C82.4414 38.0581 82.3519 37.7868 82.1731 37.5925C82.0621 37.4723 81.9172 37.3798 81.7415 37.3212C81.9696 37.2472 82.1392 37.1516 82.2533 37.0345C82.4198 36.8618 82.503 36.5936 82.503 36.2359V35.5822C82.5061 35.0581 82.3396 34.6912 82.0097 34.4908V34.4908ZM81.575 35.795V36.0571C81.575 36.3962 81.4979 36.6244 81.3499 36.7292C81.1895 36.8402 80.8504 36.8957 80.3416 36.8957H76.7003V34.9563H80.3416C80.8504 34.9563 81.1895 35.0118 81.3499 35.1259C81.4979 35.2338 81.575 35.4589 81.575 35.795Z" fill="black"/>
<path d="M91.3798 34.534C91.1825 34.3891 90.9235 34.2873 90.6028 34.2256C90.2914 34.1671 89.8166 34.1362 89.1938 34.1362H87.2205C86.5977 34.1362 86.1228 34.1671 85.8114 34.2256C85.4939 34.2873 85.2318 34.3891 85.0344 34.534C84.8124 34.6974 84.6521 34.9225 84.5534 35.2061C84.4579 35.4836 84.4116 35.8567 84.4116 36.3192V37.8115C84.4116 38.2339 84.461 38.5823 84.5565 38.8444C84.6552 39.1126 84.8186 39.3316 85.0437 39.498C85.2441 39.643 85.5031 39.7478 85.8145 39.8064C86.1198 39.865 86.5977 39.8927 87.2297 39.8927H89.1938C89.832 39.8927 90.3099 39.8619 90.6152 39.8064C90.9266 39.7478 91.1825 39.643 91.3798 39.498C91.5957 39.3408 91.756 39.1188 91.8547 38.8413C91.9533 38.57 92.0027 38.2123 92.0027 37.7776V36.2544C92.0027 35.8228 91.9533 35.4682 91.8547 35.1938C91.756 34.9132 91.5957 34.6912 91.3798 34.534V34.534ZM89.5422 39.1065H86.8721C86.499 39.1065 86.2123 39.0756 86.0118 39.0171C85.8207 38.9616 85.6727 38.866 85.5679 38.7365C85.4908 38.644 85.4353 38.5299 85.4044 38.4035C85.3705 38.2678 85.3551 38.0366 85.3551 37.719V36.2822C85.3551 35.9646 85.3705 35.7334 85.4044 35.5977C85.4353 35.4682 85.4908 35.3572 85.5679 35.2647C85.6727 35.1352 85.8238 35.0427 86.0118 34.9872C86.2092 34.9286 86.499 34.8978 86.8721 34.8978H89.5422C89.9153 34.8978 90.202 34.9286 90.3994 34.9872C90.5874 35.0427 90.7385 35.1383 90.8433 35.2647C90.9143 35.3541 90.9667 35.462 90.9975 35.5823C91.0314 35.7118 91.0468 35.9184 91.0468 36.1989V37.8053C91.0468 38.0828 91.0314 38.2894 90.9975 38.4189C90.9667 38.5422 90.9143 38.6501 90.8433 38.7396C90.7385 38.8691 90.5874 38.9616 90.3994 39.0201C90.202 39.0756 89.9153 39.1065 89.5422 39.1065Z" fill="black"/>
<path d="M101.431 34.2041H100.543V38.9493L95.3139 34.2041H94.0498V39.8311H94.944V35.0119L100.25 39.8311H101.431V34.2041Z" fill="black"/>
<path d="M106.343 34.2041L102.815 39.8311H103.839L104.591 38.6255H109.201L109.975 39.8311H110.94L107.403 34.2041H106.343ZM105.051 37.8917L106.882 34.9749L108.745 37.8917H105.051Z" fill="black"/>
<path d="M118.867 37.2874C118.774 37.0747 118.617 36.9051 118.398 36.7879C118.25 36.7047 118.053 36.6461 117.809 36.6091C117.572 36.5752 117.217 36.5567 116.752 36.5567H114.631C113.992 36.5567 113.573 36.495 113.379 36.3717C113.194 36.2545 113.104 36.0387 113.104 35.7119C113.104 35.3912 113.197 35.1785 113.385 35.0644C113.585 34.9441 113.989 34.8825 114.584 34.8825H116.598C117.18 34.8825 117.566 34.9411 117.739 35.0582C117.902 35.1692 117.982 35.3912 117.982 35.7211V35.8845H118.845V35.6471C118.845 35.3727 118.811 35.1415 118.744 34.9596C118.676 34.7715 118.565 34.6173 118.417 34.5001C118.241 34.3645 117.998 34.2689 117.692 34.2165C117.396 34.1641 116.872 34.1394 116.138 34.1394H114.797C113.804 34.1394 113.138 34.2535 112.759 34.4909C112.374 34.7314 112.176 35.1538 112.176 35.7427C112.176 36.3193 112.349 36.7324 112.688 36.9729C113.024 37.2104 113.582 37.3275 114.393 37.3275H116.888C117.393 37.3275 117.729 37.3861 117.883 37.5033C118.031 37.6143 118.105 37.8332 118.105 38.1508C118.105 38.5392 117.998 38.7921 117.779 38.9247C117.547 39.0634 117.036 39.1343 116.252 39.1343H114.711C114.06 39.1343 113.616 39.0696 113.385 38.9432C113.166 38.8229 113.061 38.6102 113.061 38.2957C113.061 38.2587 113.064 38.1878 113.07 38.0829L113.086 37.8918H112.226L112.213 37.9565C112.21 37.975 112.207 37.9997 112.207 38.0305C112.198 38.197 112.195 38.3142 112.195 38.382C112.195 38.9216 112.377 39.3162 112.737 39.5506C113.092 39.7818 113.659 39.8959 114.476 39.8959H116.481C117.424 39.8959 118.065 39.7726 118.435 39.5228C118.808 39.2669 119 38.8198 119 38.1877C119.003 37.7993 118.956 37.4971 118.867 37.2874V37.2874Z" fill="black"/>
<path d="M63.368 44.4899V44.7952H61.7V46.7592H61.3516V42.6677H63.4914V42.973H61.7V44.4869H63.368V44.4899Z" fill="black"/>
<path d="M67.6845 44.7088C67.6845 45.9545 67.0216 46.8239 66.0842 46.8239C65.1223 46.8239 64.4717 45.9575 64.4717 44.6842C64.4717 43.4693 65.1469 42.5999 66.0781 42.5999C67.0216 42.5999 67.6845 43.4724 67.6845 44.7088V44.7088ZM64.8478 44.6903C64.8478 45.7633 65.3504 46.5125 66.075 46.5125C66.7934 46.5125 67.3021 45.7633 67.3021 44.7088C67.3021 43.6605 66.7934 42.9113 66.075 42.9113C65.3658 42.9113 64.8478 43.6605 64.8478 44.6903Z" fill="black"/>
<path d="M69.5901 42.6677C70.2222 42.6677 70.4072 42.6862 70.6754 42.7787C71.0978 42.9144 71.363 43.2998 71.363 43.79C71.363 44.3296 71.0701 44.6965 70.4812 44.8939L71.6035 46.7592H71.1749L70.0773 44.9432H69.3157V46.7592H68.9673V42.6677H69.5901ZM69.6024 44.6349C70.142 44.6349 70.2777 44.6225 70.4843 44.5485C70.8018 44.4375 70.9807 44.1631 70.9807 43.7808C70.9807 43.4324 70.8203 43.1734 70.5521 43.0624C70.3548 42.9884 70.1913 42.9699 69.6086 42.9699H69.3157V44.6318H69.6024V44.6349Z" fill="black"/>
<path d="M73.3116 42.6677L74.545 46.3677L75.7783 42.6677H76.3425V46.7592H75.9941V42.9884L74.7238 46.7592H74.3754L73.0989 42.9884V46.7592H72.7505V42.6677H73.3116Z" fill="black"/>
<path d="M78.106 42.6677V45.0973C78.1122 45.8343 78.1245 45.9453 78.2602 46.1333C78.4205 46.3738 78.7504 46.5126 79.142 46.5126C79.5829 46.5126 79.9344 46.3399 80.0793 46.0532C80.1718 45.8743 80.178 45.7726 80.1842 45.0973V42.6677H80.5326V45.1035C80.5326 45.7726 80.5264 45.8528 80.4524 46.0593C80.2797 46.5434 79.7957 46.8271 79.1389 46.8271C78.55 46.8271 78.103 46.5989 77.8933 46.2012C77.7885 45.9977 77.7515 45.7973 77.7515 45.4026V42.6677H78.106Z" fill="black"/>
<path d="M82.3056 42.6676V46.4508H84.0476V46.7561H81.9448V42.6646H82.3056V42.6676Z" fill="black"/>
<path d="M86.6467 42.637L88.065 46.7593H87.6981L87.3003 45.6H85.731L85.3271 46.7593H84.9663L86.3846 42.637H86.6467ZM86.511 43.1334L85.8235 45.2917H87.1924L86.511 43.1334Z" fill="black"/>
<path d="M94.1019 44.7088C94.1019 45.9545 93.439 46.8239 92.5017 46.8239C91.5397 46.8239 90.8892 45.9575 90.8892 44.6842C90.8892 43.4693 91.5644 42.5999 92.4955 42.5999C93.439 42.5999 94.1019 43.4724 94.1019 44.7088V44.7088ZM91.2684 44.6903C91.2684 45.7633 91.771 46.5125 92.4955 46.5125C93.2139 46.5125 93.7227 45.7633 93.7227 44.7088C93.7227 43.6605 93.2139 42.9113 92.4955 42.9113C91.7833 42.9113 91.2684 43.6605 91.2684 44.6903Z" fill="black"/>
<path d="M95.7672 42.6677L97.8269 46.2505V42.6677H98.1506V46.7592H97.7467L95.7117 43.1888V46.7592H95.3818V42.6677H95.7672Z" fill="black"/>
<path d="M101.641 44.4899V44.7951H99.9729V46.4508H101.789V46.7561H99.6245V42.6646H101.764V42.9698H99.9729V44.4837H101.641V44.4899Z" fill="black"/>
<path d="M107.03 42.6677V42.973H105.976V46.7562H105.628V42.973H104.567V42.6677H107.03Z" fill="black"/>
<path d="M110.132 44.4899V44.7951H108.464V46.4508H110.28V46.7561H108.116V42.6646H110.256V42.9698H108.464V44.4837H110.132V44.4899Z" fill="black"/>
<path d="M112.811 42.637L114.23 46.7593H113.863L113.465 45.6H111.896L111.492 46.7593H111.131L112.549 42.637H112.811ZM112.676 43.1334L111.988 45.2917H113.357L112.676 43.1334Z" fill="black"/>
<path d="M115.877 42.6677L117.11 46.3677L118.343 42.6677H118.907V46.7592H118.559V42.9884L117.289 46.7592H116.94L115.664 42.9884V46.7592H115.315V42.6677H115.877Z" fill="black"/>
<defs>
<linearGradient id="paint0_linear_509_2186" x1="13.291" y1="25.3828" x2="39.0366" y2="46.9448" gradientUnits="userSpaceOnUse">
<stop stop-color="white"/>
<stop offset="0.1" stop-color="#CDD0D0"/>
<stop offset="0.2" stop-color="#A5ACAF"/>
<stop offset="0.3" stop-color="#98A0A4"/>
<stop offset="0.4" stop-color="#828A8F"/>
<stop offset="0.5" stop-color="#667075"/>
<stop offset="0.6" stop-color="#535C63"/>
<stop offset="0.7" stop-color="#475158"/>
<stop offset="0.8" stop-color="#434D54"/>
<stop offset="1" stop-color="#475157"/>
</linearGradient>
<linearGradient id="paint1_linear_509_2186" x1="14.0955" y1="26.0264" x2="38.232" y2="46.3011" gradientUnits="userSpaceOnUse">
<stop stop-color="#0B1F2A"/>
<stop offset="0.2" stop-color="#333F47"/>
<stop offset="0.5" stop-color="#81898D"/>
<stop offset="0.7" stop-color="#B3B8B8"/>
<stop offset="0.8" stop-color="#DEE0DD"/>
<stop offset="1" stop-color="#FBFBFB"/>
</linearGradient>
<linearGradient id="paint2_linear_509_2186" x1="32.0493" y1="52.3121" x2="20.3029" y2="20.0229" gradientUnits="userSpaceOnUse">
<stop stop-color="#E1E3E1" stop-opacity="0.4"/>
<stop offset="0.1" stop-color="#C1C5C4" stop-opacity="0.4"/>
<stop offset="0.3" stop-color="#9BA1A2" stop-opacity="0.4"/>
<stop offset="0.5" stop-color="#7D8487" stop-opacity="0.4"/>
<stop offset="0.7" stop-color="#687074" stop-opacity="0"/>
<stop offset="0.8" stop-color="#5B6469" stop-opacity="0"/>
<stop offset="1" stop-color="#576065" stop-opacity="0"/>
</linearGradient>
<linearGradient id="paint3_linear_509_2186" x1="18.7617" y1="23.3447" x2="33.5655" y2="48.983" gradientUnits="userSpaceOnUse">
<stop stop-color="#E1E3E1" stop-opacity="0.4"/>
<stop offset="0.1" stop-color="#C1C5C4" stop-opacity="0.4"/>
<stop offset="0.3" stop-color="#9BA1A2" stop-opacity="0.4"/>
<stop offset="0.5" stop-color="#7D8487" stop-opacity="0.4"/>
<stop offset="0.7" stop-color="#687074" stop-opacity="0"/>
<stop offset="0.8" stop-color="#5B6469" stop-opacity="0"/>
<stop offset="1" stop-color="#576065" stop-opacity="0"/>
</linearGradient>
<linearGradient id="paint4_linear_509_2186" x1="32.8683" y1="40.133" x2="31.9565" y2="41.6348" gradientUnits="userSpaceOnUse">
<stop stop-color="#27343C"/>
<stop offset="1" stop-color="#00111E" stop-opacity="0"/>
</linearGradient>
<linearGradient id="paint5_linear_509_2186" x1="30.2403" y1="34.6084" x2="28.7384" y2="32.1947" gradientUnits="userSpaceOnUse">
<stop stop-color="#02131F"/>
<stop offset="0.1" stop-color="#02131F"/>
<stop offset="0.9" stop-color="#02131F" stop-opacity="0"/>
<stop offset="1" stop-color="#02131F" stop-opacity="0"/>
</linearGradient>
<linearGradient id="paint6_linear_509_2186" x1="26.1638" y1="38.5239" x2="23.9111" y2="39.1675" gradientUnits="userSpaceOnUse">
<stop stop-color="#02131F" stop-opacity="0.8"/>
<stop offset="0.2" stop-color="#02131F" stop-opacity="0.8"/>
<stop offset="0.9" stop-color="#02131F" stop-opacity="0"/>
<stop offset="1" stop-color="#02131F" stop-opacity="0"/>
</linearGradient>
<linearGradient id="paint7_linear_509_2186" x1="20.1562" y1="41.4739" x2="19.8344" y2="40.6693" gradientUnits="userSpaceOnUse">
<stop stop-color="#02131F" stop-opacity="0.8"/>
<stop offset="0.1" stop-color="#02131F" stop-opacity="0.8"/>
<stop offset="1" stop-color="#02131F" stop-opacity="0"/>
</linearGradient>
<linearGradient id="paint8_linear_509_2186" x1="28.0949" y1="28.2256" x2="26.2713" y2="28.4401" gradientUnits="userSpaceOnUse">
<stop stop-color="#02131F"/>
<stop offset="0.3" stop-color="#02131F"/>
<stop offset="0.8" stop-color="#02131F" stop-opacity="0"/>
<stop offset="1" stop-color="#02131F" stop-opacity="0"/>
</linearGradient>
<linearGradient id="paint9_linear_509_2186" x1="28.1485" y1="28.1719" x2="26.9149" y2="28.3328" gradientUnits="userSpaceOnUse">
<stop stop-color="#27343C"/>
<stop offset="0.4" stop-color="#27343C"/>
<stop offset="1" stop-color="#3B474E" stop-opacity="0"/>
</linearGradient>
<linearGradient id="paint10_linear_509_2186" x1="8.78548" y1="36.6464" x2="23.7501" y2="45.2819" gradientUnits="userSpaceOnUse">
<stop stop-color="#25323B" stop-opacity="0"/>
<stop offset="0.1" stop-color="#27343C"/>
<stop offset="1" stop-color="#27343C"/>
</linearGradient>
<linearGradient id="paint11_linear_509_2186" x1="26.1637" y1="39.0602" x2="26.1637" y2="36.4856" gradientUnits="userSpaceOnUse">
<stop stop-color="#A5ABAF"/>
<stop offset="0.3" stop-color="#A5ABAF"/>
<stop offset="1" stop-color="#A5ABAF" stop-opacity="0"/>
</linearGradient>
<linearGradient id="paint12_linear_509_2186" x1="34.5845" y1="20.2336" x2="34.5845" y2="52.952" gradientUnits="userSpaceOnUse">
<stop stop-color="#6B7378"/>
<stop offset="0.2" stop-color="#333F47"/>
<stop offset="0.5" stop-color="#27343C"/>
<stop offset="0.8" stop-color="#333F47"/>
<stop offset="1" stop-color="#434D54"/>
</linearGradient>
<linearGradient id="paint13_linear_509_2186" x1="39.7339" y1="23.3444" x2="32.493" y2="33.9645" gradientUnits="userSpaceOnUse">
<stop stop-color="#27343C"/>
<stop offset="0.7" stop-color="#49545B"/>
<stop offset="0.8" stop-color="white" stop-opacity="0"/>
<stop offset="1" stop-color="white" stop-opacity="0"/>
</linearGradient>
</defs>
</svg>
