<svg width="128" height="72" viewBox="0 0 128 72" fill="none" xmlns="http://www.w3.org/2000/svg">
<path d="M67.0719 37.6195H70.2693V51.7063H67.0719V37.6195ZM60.7738 46.9921L60.6918 47.118C59.7899 48.4942 58.7651 49.0828 57.263 49.0828C54.9206 49.0828 53.2312 47.2322 53.2312 44.6907C53.2312 42.1492 54.8884 40.3338 57.263 40.3338C57.9052 40.3121 58.5417 40.4612 59.1075 40.7657C59.6733 41.0702 60.1482 41.5193 60.4839 42.0672L60.5659 42.2019L62.9786 40.489L62.9024 40.369C61.658 38.4189 59.8192 37.4731 57.263 37.4731C53.1316 37.4731 50.0162 40.5739 50.0162 44.6819C50.0162 48.79 53.1316 51.9112 57.263 51.9112C59.8104 51.9112 61.8454 50.8337 63.1513 48.7987L63.2274 48.6787L60.7738 46.9921ZM105.889 44.1871V44.0495H99.1543V46.8165H102.56C102.199 47.9877 100.976 49.1003 98.9376 49.1003C96.563 49.1003 94.8384 47.244 94.8384 44.6819C94.8384 42.1199 96.5132 40.325 98.9142 40.325C99.5694 40.3013 100.218 40.4581 100.791 40.7782C101.363 41.0984 101.836 41.5696 102.158 42.1404L102.24 42.2751L104.715 40.5183L104.638 40.3982C103.365 38.4277 101.491 37.4702 98.9142 37.4702C94.7564 37.4702 91.6234 40.571 91.6234 44.679C91.6234 48.869 94.7066 51.9083 98.9435 51.9083C101.11 51.9083 102.893 51.2407 104.097 49.9729C105.388 48.6201 106.006 46.6203 105.886 44.1842L105.889 44.1871ZM84.6225 37.6313V43.5605C84.6225 44.1783 84.5903 44.761 84.6459 45.3027C84.2682 44.8684 83.8613 44.4604 83.4279 44.0817L76.468 37.5493L76.427 37.5083H75.938V51.7209H78.8894V45.7917C78.9105 45.2061 78.9017 44.6196 78.8631 44.0348C79.2411 44.4743 79.648 44.8881 80.0811 45.2734L87.0498 51.8029L87.0908 51.8439H87.5798V37.6313H84.6225ZM29.1306 42.3102C29.1306 43.6249 28.4484 44.2339 26.9844 44.2339H24.9348V40.407H26.9844C28.4484 40.407 29.1306 41.0131 29.1306 42.3102ZM29.7162 46.4095C31.4145 45.6775 32.3514 44.2252 32.3514 42.3102C32.3514 39.3822 30.3779 37.6254 27.081 37.6254H21.8105V51.7121H24.9435V46.9219H26.5188L29.3209 51.7121H32.9107L29.7162 46.4095ZM41.6479 46.9834H40.058L41.2673 43.8738C41.4986 43.2882 41.6479 42.7934 41.6479 42.7934C41.6479 42.7934 41.8002 43.2941 42.0285 43.8738L43.2407 46.9687L41.6479 46.9834ZM41.8763 37.4731H41.4195L35.1301 51.6858H38.2016L39.1181 49.437H44.1777L45.0971 51.6916H48.1657L41.8763 37.4731Z" fill="white"/>
<path d="M66.4595 35.3063H69.6569V21.2196H66.4595V35.3063V35.3063ZM57.1601 21.2196H53.9656V35.3063H63.2475V32.7589H57.1601V21.2196ZM97.0925 28.8003L90.2702 21.0586H89.8427V35.318H92.9259V30.1296C92.9372 29.3319 92.903 28.5341 92.8234 27.7403C92.8234 27.7403 93.3651 28.5719 93.9127 29.2307L96.8817 32.8878H97.3326L100.287 29.2307C100.82 28.5748 101.362 27.7432 101.362 27.7432C101.282 28.5371 101.248 29.3348 101.259 30.1325V35.318H104.342V21.0586H103.915L97.0925 28.8003V28.8003ZM114.971 26.859L114.245 26.5486C113.299 26.1475 112.459 25.6965 112.459 24.824C112.459 24.1183 112.86 23.6528 113.712 23.6528C114.115 23.6631 114.507 23.783 114.846 23.9997C115.186 24.2164 115.46 24.5217 115.639 24.8826L118.034 23.4566C117.024 21.6998 115.399 21 113.642 21C111.047 21 109.428 22.7012 109.381 24.8796C109.332 27.3011 111.056 28.3933 113.153 29.2863L113.879 29.5967C115.208 30.1823 115.832 30.6186 115.808 31.4999C115.782 32.3314 115.223 32.9317 114.025 32.9317C112.593 32.9317 111.75 32.1441 111.244 31.0665L108.714 32.513C109.399 34.1 111.296 35.5581 114.005 35.5581C116.713 35.5581 118.903 34.138 118.997 31.5262C119.076 29.2746 117.568 27.8779 114.974 26.8414L114.971 26.859V26.859ZM18.2526 21.1025L13.0641 32.3461L14.1475 35.3063H14.654L17.7841 28.2527C18.0676 27.683 18.2998 27.0892 18.478 26.4783C18.6578 27.0813 18.8859 27.6689 19.1602 28.2351L22.3079 35.3063H22.8144L23.8949 32.3461L18.7093 21.1025H18.2526ZM12.2911 21.2196H9L12.7303 31.4355L14.4871 27.6056L12.2911 21.2196V21.2196ZM22.4455 27.5705L24.2257 31.4355L27.9677 21.2196H24.6444L22.4455 27.5705V27.5705ZM32.2368 35.3063H35.4313V21.2196H32.2368V35.3063V35.3063ZM44.5667 21.2196H41.3722V35.3063H50.6541V32.7589H44.5667V21.2196V21.2196ZM79.8113 30.5834H78.2185L79.4307 27.4739C79.6591 26.8883 79.8113 26.3934 79.8113 26.3934C79.8113 26.3934 79.9606 26.8941 80.189 27.4739L81.4012 30.5688L79.8113 30.5834V30.5834ZM80.0397 21.0732H79.5829L73.2935 35.2858H76.3621L77.2786 33.0312H82.3411L83.2576 35.2858H86.3291L80.0397 21.0732V21.0732Z" fill="white"/>
</svg>
