<svg width="128" height="128" viewBox="0 0 128 128" fill="none" xmlns="http://www.w3.org/2000/svg">
<rect width="128" height="128" rx="64" fill="#900000"/>
<path d="M64 119C94.3757 119 119 94.3757 119 64C119 33.6243 94.3757 9 64 9C33.6243 9 9 33.6243 9 64C9 94.3757 33.6243 119 64 119Z" fill="white"/>
<path d="M87.0916 32.8613C96.1624 32.8613 103.516 32.1329 103.516 31.2344C103.516 30.3359 96.1624 29.6075 87.0916 29.6075C78.0209 29.6075 70.6676 30.3359 70.6676 31.2344C70.6676 32.1329 78.0209 32.8613 87.0916 32.8613Z" fill="white"/>
<path d="M64 116.754C93.1352 116.754 116.754 93.1352 116.754 64C116.754 34.8648 93.1352 11.246 64 11.246C34.8647 11.246 11.246 34.8648 11.246 64C11.246 93.1352 34.8647 116.754 64 116.754Z" fill="#900000"/>
<path d="M63.9999 100.922C84.3916 100.922 100.922 84.3916 100.922 64C100.922 43.6084 84.3916 27.0777 63.9999 27.0777C43.6083 27.0777 27.0776 43.6084 27.0776 64C27.0776 84.3916 43.6083 100.922 63.9999 100.922Z" fill="white"/>
<path d="M63.9999 99.0598C83.3629 99.0598 99.0597 83.363 99.0597 64C99.0597 44.637 83.3629 28.9402 63.9999 28.9402C44.637 28.9402 28.9402 44.637 28.9402 64C28.9402 83.363 44.637 99.0598 63.9999 99.0598Z" fill="#900000"/>
<path d="M19.6659 61.2064C17.1287 59.2559 16.091 58.4886 15.9557 58.4633C15.8524 58.4439 15.6687 58.4375 15.5476 58.449C15.355 58.4674 15.3277 58.4561 15.3309 58.359C15.333 58.298 15.4377 57.5732 15.5637 56.7484L15.7929 55.2487L20.3552 53.7144C22.8645 52.8706 24.9327 52.1953 24.9513 52.2139C24.9698 52.2324 24.9271 52.7296 24.8562 53.3186L24.7274 54.3895L23.862 54.6651C23.386 54.8166 22.9966 54.9635 22.9966 54.9915C22.9966 55.0642 22.2345 60.3002 22.1986 60.4745C22.1712 60.6073 22.2258 60.6612 22.8565 61.1239C23.2348 61.4015 23.545 61.6568 23.5458 61.6913C23.5495 61.8461 23.2439 63.9177 23.2177 63.9161C23.2015 63.9151 21.6032 62.6958 19.6659 61.2064ZM20.5488 59.193C20.6345 58.8322 21.1428 55.6912 21.1193 55.6677C21.104 55.6525 20.2568 55.9074 19.2365 56.2341C17.7008 56.7258 17.3815 56.8452 17.3815 56.9274C17.3815 56.9936 17.8917 57.4068 18.9154 58.1696C19.759 58.7983 20.4651 59.3135 20.4844 59.3145C20.5037 59.3155 20.5327 59.2608 20.5488 59.193Z" fill="white"/>
<path d="M22.3391 48.0232C18.8516 46.2236 18.7421 46.1717 18.4339 46.1703L18.1168 46.1689L18.721 45.0048C19.0574 44.3566 19.3538 43.8481 19.3898 43.8575C19.4253 43.8667 20.7613 44.5631 22.3587 45.405C23.956 46.247 25.3076 46.9358 25.3622 46.9358C25.4385 46.9358 25.7982 46.262 26.9193 44.0187C27.7211 42.4143 28.3888 41.0893 28.4032 41.0742C28.4176 41.0592 28.7834 41.2315 29.2163 41.4571L30.0032 41.8675L27.9994 45.8396C26.8972 48.0243 25.9802 49.8259 25.9614 49.8432C25.9426 49.8605 24.3126 49.0415 22.3391 48.0232Z" fill="white"/>
<path d="M28.9676 37.154C27.4461 35.694 26.1273 34.4581 26.0369 34.4077C25.9465 34.3572 25.728 34.2758 25.5513 34.2266L25.2301 34.1373L28.5018 30.5801C30.3012 28.6237 31.8139 26.9819 31.8633 26.9318C31.9469 26.847 31.9981 26.8833 32.5966 27.4522L33.24 28.0638L30.799 30.6814C29.1958 32.4007 28.3638 33.3318 28.3752 33.3942C28.391 33.4812 29.8848 34.9387 29.9582 34.9387C29.9757 34.9388 30.7512 34.1149 31.6814 33.108L33.3727 31.2772L33.8407 31.7059C34.0982 31.9417 34.3804 32.21 34.4679 32.3022L34.627 32.4699L34.2129 32.9237C33.9852 33.1733 33.2297 33.9938 32.5341 34.747C31.8384 35.5003 31.2691 36.1318 31.2689 36.1504C31.2686 36.169 31.7122 36.6092 32.2545 37.1285C32.7968 37.6478 33.2405 38.0908 33.2405 38.1129C33.2405 38.1431 32.4065 39.0828 31.7696 39.7704C31.75 39.7915 30.4892 38.6141 28.9676 37.154Z" fill="white"/>
<path d="M59.1893 23.7772C59.1761 23.7546 59.1481 21.9735 59.1269 19.8192L59.0885 15.9024L58.9143 15.5377L58.7401 15.1729L58.9324 15.1411C59.0381 15.1236 60.8486 15.109 62.9558 15.1087C66.6811 15.1081 66.7984 15.1113 67.2013 15.2232C68.1007 15.4729 68.7891 16.0169 69.1355 16.7515C69.3944 17.3005 69.4662 17.6442 69.4665 18.3359C69.4665 18.9818 69.352 19.5481 69.1493 19.9014C68.909 20.3204 68.3786 20.8399 68.0538 20.9745C67.6779 21.1303 67.669 21.2184 67.9877 21.627C68.117 21.7927 68.5375 22.3412 68.9222 22.8459L69.6217 23.7635L68.3448 23.7628L67.0678 23.7622L66.2451 22.5714L65.4223 21.3805L63.4851 21.3661C62.101 21.3558 61.5265 21.3695 61.473 21.4139C61.4138 21.463 61.398 21.7232 61.398 22.6472V23.8183H60.3056C59.7048 23.8183 59.2025 23.7998 59.1893 23.7772ZM66.4299 19.5074C66.9753 19.3129 67.2596 18.873 67.2596 18.2233C67.2596 17.7992 67.1826 17.597 66.9111 17.3082C66.5312 16.9042 66.6226 16.9159 63.8294 16.9159H61.326L61.362 17.8285C61.3818 18.3304 61.398 18.9461 61.398 19.1966V19.6521L63.7947 19.6223C65.7671 19.5977 66.2336 19.5774 66.4299 19.5074Z" fill="white"/>
<path d="M79.1743 26.9405C78.0425 26.6941 77.3137 26.4037 76.3986 25.8346C75.2973 25.1496 74.5178 24.2903 74.1184 23.321C73.9012 22.7938 73.8367 22.5041 73.7798 21.8003C73.7387 21.2922 73.7472 21.185 73.862 20.7558C74.2448 19.3257 75.0453 18.4091 76.399 17.8508C76.9264 17.6333 77.6572 17.5185 78.5129 17.5186C81.073 17.5188 83.591 18.8953 84.7761 20.9423C85.0928 21.4893 85.2825 22.2015 85.2822 22.8425C85.2817 24.1558 84.9675 24.9556 84.1162 25.8102C83.5454 26.3833 83.1536 26.6243 82.4338 26.8449C81.7417 27.0571 81.3936 27.1056 80.6023 27.1003C80.0337 27.0965 79.74 27.0637 79.1743 26.9405ZM81.2188 25.0681C81.5475 24.9853 82.0798 24.6835 82.3374 24.4339C82.4501 24.3247 82.645 24.028 82.7706 23.7746C82.9925 23.3265 82.9988 23.2986 83.0003 22.7581C83.0022 22.0849 82.9324 21.8218 82.6274 21.3503C82.2108 20.7062 81.5099 20.1846 80.5786 19.8254C79.8967 19.5625 79.5196 19.4923 78.7829 19.4914C77.987 19.4904 77.5761 19.5964 77.0731 19.9323C76.6622 20.2067 76.4888 20.4091 76.295 20.8405C75.5007 22.6088 76.645 24.2943 79.1195 25.001C79.7838 25.1907 80.6252 25.2176 81.2188 25.0681Z" fill="white"/>
<path d="M95.2179 38.2268C94.8005 37.8357 94.4515 37.4935 94.4425 37.4664C94.4334 37.4393 95.1817 36.3861 96.1052 35.126C97.6822 32.9744 97.8797 32.6928 97.8118 32.6928C97.7969 32.6928 96.3613 33.0142 94.6216 33.407C92.8819 33.7998 91.4474 34.1101 91.4337 34.0965C91.4201 34.0828 91.5849 32.6006 91.7999 30.8026C92.015 29.0046 92.1834 27.5008 92.1741 27.4609C92.1649 27.4209 91.224 28.2982 90.0833 29.4105C88.9425 30.5228 87.9898 31.4328 87.9662 31.4328C87.9426 31.4328 87.5535 31.0877 87.1016 30.6659L86.28 29.8989L87.0275 29.1669C87.4385 28.7642 88.6747 27.569 89.7744 26.5108C90.8741 25.4525 91.8322 24.5128 91.9034 24.4225C91.9747 24.3323 92.0754 24.0954 92.1272 23.8962L92.2215 23.5341L93.3518 24.5845L94.4822 25.6349L94.4525 25.8633C94.3582 26.5866 93.7881 31.4622 93.7967 31.4724C93.8023 31.4791 95.0681 31.1986 96.6096 30.8492L99.4123 30.2139L100.376 31.104C100.999 31.6791 101.329 32.0214 101.31 32.0715C101.262 32.1979 96.0706 38.9378 96.0218 38.9378C95.9971 38.9378 95.6354 38.6178 95.2179 38.2268Z" fill="white"/>
<path d="M102.244 50.2931C102.171 50.1489 101.149 48.2002 99.9726 45.9626C98.7964 43.7251 97.8213 41.8516 97.8057 41.7993C97.7824 41.7214 98.3912 41.3774 101.173 39.8964C104.663 38.0392 104.786 37.9633 105.113 37.4727C105.192 37.3552 105.297 37.5455 107.465 41.7267C108.713 44.1341 109.729 46.1245 109.722 46.15C109.709 46.1988 108.32 46.9909 108.249 46.9901C108.227 46.9898 107.47 45.5714 106.567 43.8382C105.664 42.1049 104.91 40.6622 104.892 40.6322C104.854 40.5716 103.47 41.2716 103.47 41.3512C103.47 41.3781 103.989 42.3889 104.625 43.5974C105.26 44.806 105.771 45.8009 105.761 45.8085C105.698 45.8567 104.27 46.6034 104.261 46.5928C104.256 46.5856 103.729 45.606 103.09 44.4159C102.451 43.2258 101.91 42.2325 101.886 42.2087C101.863 42.1849 101.52 42.3412 101.124 42.5561L100.405 42.9468L100.52 43.1746C100.583 43.2999 101.371 44.799 102.271 46.506C103.171 48.213 103.908 49.6341 103.908 49.6641C103.908 49.7079 103.477 49.9593 102.417 50.5342C102.396 50.5458 102.318 50.4374 102.244 50.2931Z" fill="white"/>
<path d="M107.475 63.9975C106.347 63.678 105.266 62.7318 104.598 61.4801C104.292 60.9061 103.925 59.8193 103.785 59.0739C103.605 58.1107 103.62 56.8721 103.824 55.9258C103.991 55.1481 104.13 54.7478 104.366 54.3585C105.232 52.9324 106.414 52.1947 107.835 52.1947C108.95 52.1947 109.834 52.5638 110.72 53.3982C111.806 54.4222 112.524 56.0616 112.734 57.9953C112.816 58.7494 112.725 60.1437 112.553 60.7633C112.416 61.2585 112.089 61.9569 111.769 62.4388C110.875 63.783 109.054 64.4444 107.475 63.9975ZM109.018 61.7001C109.695 61.5236 110.304 61.0214 110.579 60.4118C110.853 59.8055 110.919 59.4928 110.919 58.7958C110.92 57.8102 110.704 56.8751 110.299 56.1124C109.965 55.4812 109.256 54.857 108.618 54.632C108.295 54.5181 107.408 54.6077 107.014 54.794C106.343 55.1115 105.841 55.7758 105.628 56.6299C105.499 57.1424 105.548 58.5679 105.715 59.1793C106.234 61.085 107.543 62.0841 109.018 61.7001Z" fill="white"/>
<path d="M40.3229 23.2839L40.381 27.2156L43.5476 25.3901L40.3229 23.2839Z" stroke="white"/>
<path d="M38.4662 32.2665C38.465 32.2634 38.4231 30.252 38.373 27.7966L38.282 23.3323L38.2259 23.2064C38.1635 23.0665 37.9756 22.8368 37.8159 22.7053C37.7593 22.6587 37.713 22.6181 37.713 22.6149C37.713 22.5967 40.6229 20.9967 40.6466 21.0018C40.6625 21.0053 42.5043 22.202 44.7394 23.6612L48.8033 26.3143L47.8275 26.8811C47.2908 27.1929 46.8435 27.448 46.8336 27.448C46.8237 27.448 46.4878 27.2294 46.0872 26.9621C45.594 26.6332 45.3471 26.4793 45.3227 26.4857C45.3028 26.4909 44.1875 27.1301 42.8443 27.9061L40.402 29.317L40.4181 29.9368C40.427 30.2777 40.4342 30.6911 40.4342 30.8556V31.1546L39.4852 31.6942C38.9632 31.9909 38.5209 32.2423 38.5023 32.2528C38.4836 32.2634 38.4674 32.2695 38.4662 32.2665ZM41.9886 26.3331C42.8754 25.8227 43.5984 25.3973 43.5952 25.3878C43.5869 25.3628 40.3058 23.2218 40.294 23.2337C40.2839 23.2438 40.3177 25.8778 40.3395 26.7747C40.3462 27.0489 40.3571 27.2704 40.3639 27.2671C40.3706 27.2638 41.1017 26.8434 41.9886 26.3331Z" fill="white"/>
<path d="M44.5332 93.5275C42.1326 92.0211 40.1362 90.7563 40.0966 90.7168C40.0524 90.6725 40.1594 90.5481 40.3747 90.3935L40.7247 90.1422V79.146V68.1498H34.4107H28.0968L28.0966 67.9367C28.0957 67.2092 28.4976 60.5025 28.5677 60.0733L28.6532 59.5504H34.6889H40.7247V48.4444V37.3384L41.7125 36.4776C42.2557 36.0041 42.9094 35.4273 43.1651 35.1959C43.7276 34.6866 45.973 33.3928 47.8915 32.4726L49.2466 31.8226V45.6865V59.5504H54.5486H59.8505L59.6312 60.0346C59.0312 61.3588 58.6207 63.2165 58.6207 64.607C58.6207 65.6826 58.8679 67.3459 59.127 68.0142C59.1767 68.1424 58.9114 68.1498 54.2131 68.1498H49.2466V81.9371C49.2466 94.7061 49.237 95.7447 49.116 95.9983C49.0442 96.1489 48.9658 96.2708 48.9417 96.2692C48.9177 96.2676 46.9338 95.0338 44.5332 93.5275Z" fill="white"/>
<path d="M76.0224 97.5683L75.5668 97.1606L76.1009 96.6194C77.16 95.5465 77.4985 94.4098 77.1717 93.0234C76.8742 91.7612 75.8705 90.7774 74.5245 90.4286C74.1447 90.3302 73.5817 90.3067 71.6022 90.3067C68.8584 90.3067 68.4481 90.2578 67.2987 89.7946C66.4608 89.4568 65.7082 88.958 64.9841 88.2607C63.3095 86.6478 62.5205 84.2792 62.9114 82.0379C63.1916 80.4315 63.89 79.1391 65.0917 78.0036C66.144 77.0093 67.1364 76.4834 68.5759 76.1577C69.1486 76.0281 69.6074 76.0194 74.6187 76.0438C80.7144 76.0734 80.5178 76.0896 80.7474 75.5401C80.8943 75.1886 80.8382 74.9383 80.5473 74.6474L80.3248 74.4249H74.9906C71.7737 74.4249 69.3959 74.393 69 74.3444C67.4779 74.1578 65.7956 73.4967 64.5398 72.5916C63.766 72.0339 62.4731 70.6834 61.9825 69.9204C61.3321 68.9089 60.8532 67.7227 60.5951 66.4841C60.4073 65.5826 60.4335 63.6363 60.6467 62.6523C61.1939 60.1266 62.5365 58.1203 64.7023 56.5918C65.6131 55.949 66.5663 55.5125 67.8399 55.1552L68.5759 54.9487L73.5728 54.906L78.5698 54.8633L78.9315 54.6851C79.3278 54.4899 79.6266 54.1481 79.8435 53.6418C80.1278 52.9783 79.8562 51.9678 79.2791 51.5421C78.6585 51.0842 79.0949 51.1059 70.5111 51.1059C66.1871 51.1059 62.6493 51.0771 62.6493 51.0418C62.6493 50.8763 63.0705 49.9711 63.401 49.4261C63.8465 48.6918 64.8208 47.6559 65.5473 47.1443L66.0824 46.7675H70.5212C73.5478 46.7675 75.0187 46.7408 75.1446 46.6834C75.6758 46.4414 75.7353 45.5945 75.2488 45.2004C75.0966 45.0772 74.7367 45.0664 70.7061 45.0649L66.3287 45.0631L65.9778 44.8114C64.8568 44.0071 63.4399 42.4312 62.9127 41.4026L62.7241 41.0346H66.5463C70.8822 41.0346 70.9281 41.0295 71.5281 40.4764C71.7162 40.303 71.991 39.9623 72.1385 39.7193C72.4489 39.2084 73.03 38.638 73.4673 38.4149C74.2325 38.0245 74.4631 38.0017 77.3863 38.0277L80.1192 38.0519L80.6032 37.8284C81.3889 37.4655 82.0397 36.5969 82.1517 35.7617C82.2021 35.386 82.0509 34.5848 81.8605 34.219C81.7824 34.0688 81.2442 33.4618 80.6647 32.8701C80.0851 32.2784 79.624 31.7812 79.64 31.7653C79.656 31.7493 80.1713 31.9169 80.7851 32.1376C81.8395 32.5168 82.0188 32.6143 84.0345 33.9037L86.1679 35.2684L87.5982 36.7259C88.8768 38.0288 89.1014 38.2982 89.7154 39.266L90.4023 40.3487L90.1996 40.5603C89.9518 40.819 89.9515 40.8302 90.1842 41.1366C90.8405 42.0007 91.6498 43.8801 92.0481 45.4646C92.4225 46.9547 92.5008 47.7349 92.4567 49.5404C92.4191 51.0771 92.3282 51.6861 91.9001 53.2667C91.5831 54.4375 90.6625 56.3474 89.9145 57.3865C87.3993 60.8803 84.1732 62.9138 80.0805 63.5849C79.2789 63.7164 78.7251 63.7312 74.5568 63.7324C69.4745 63.734 69.5965 63.7231 69.3519 64.1961C69.2103 64.47 69.2037 64.6663 69.327 64.9368C69.5248 65.3709 69.3812 65.3607 75.2927 65.3611C81.1774 65.3616 81.395 65.3737 82.833 65.7889C84.9622 66.4036 87.062 68.1795 88.0981 70.2415C88.7564 71.5516 89.0672 72.8556 89.0672 74.307C89.0672 75.8076 88.7951 76.9141 88.0728 78.3507C87.2403 80.0066 85.6195 81.5624 83.9348 82.3229C83.2012 82.6541 82.0499 83.0011 81.3725 83.0951C80.9817 83.1494 78.7488 83.1793 75.0839 83.1793H69.4012L69.1629 83.3798C68.9557 83.5541 68.9245 83.6307 68.9245 83.9644C68.9245 84.2613 68.9648 84.3886 69.1019 84.5257C69.2685 84.6924 69.3607 84.7062 70.6319 84.7544C71.3759 84.7826 73.0511 84.8058 74.3545 84.8059C76.4792 84.8059 76.7878 84.8224 77.3372 84.9629C79.3629 85.4809 80.9941 87.0711 81.5472 89.0668C81.7848 89.9244 81.7738 91.3644 81.523 92.2271C81.2364 93.2128 80.7799 93.9509 79.9388 94.7881L79.2114 95.5122L79.4088 96.0469C79.5902 96.5383 79.5956 96.5871 79.4753 96.6507C79.2832 96.7524 76.543 97.9764 76.5079 97.9762C76.4915 97.9762 76.273 97.7926 76.0224 97.5683V97.5683Z" fill="white"/>
<path d="M57.3909 53.4585C57.1939 53.4514 56.9847 53.4354 56.9261 53.4231C56.8091 53.3984 56.5775 53.325 56.5775 53.3126C56.5775 53.3083 56.6477 53.17 56.7336 53.0053C56.8954 52.6948 57.0038 52.5492 57.3015 52.2421C57.5861 51.9487 57.72 51.8904 58.1089 51.8904H58.3746L58.4812 51.7499C58.826 51.2961 58.9835 50.7837 59.209 49.3822C59.2637 49.0426 59.3048 48.5757 59.3876 47.3531L59.4096 47.0284L59.3543 46.9227C59.2911 46.802 59.2982 46.8047 58.9968 46.7864C58.7977 46.7743 58.7882 46.7756 58.6676 46.8315C58.5772 46.8734 58.4853 46.9437 58.3303 47.0899C58.0187 47.3838 57.8327 47.4941 57.4328 47.6223L57.1101 47.7258L56.7219 47.726L56.3338 47.7263L56.0828 47.6414C55.7535 47.53 55.4531 47.3533 55.1721 47.1056C54.9119 46.8762 54.8132 46.7311 54.6893 46.3959L54.5977 46.1478L54.6081 45.7895C54.617 45.4818 54.6253 45.4088 54.6667 45.273C54.7405 45.0313 54.9032 44.7722 55.1526 44.4993C55.3616 44.2705 55.3723 44.262 55.5756 44.1637C55.6903 44.1082 55.8991 44.0242 56.0396 43.9771L56.295 43.8914H56.7331C57.1674 43.8914 57.1728 43.8919 57.373 43.9518C57.6747 44.0421 57.989 44.2074 58.1657 44.3688C58.2456 44.4418 58.4124 44.5734 58.5363 44.6613L58.7617 44.8211H59.0116H59.2614L59.3236 44.7184L59.3858 44.6158V44.1495C59.3858 43.7361 59.3781 43.6187 59.3174 43.1143C59.1746 41.9262 59.1601 41.8374 59.0092 41.218C58.8079 40.3919 58.698 40.1045 58.4989 39.8841L58.3868 39.7602L58.1468 39.7421C57.7252 39.7103 57.5208 39.6088 57.1968 39.2703C56.9711 39.0344 56.8641 38.8839 56.6922 38.5605L56.5455 38.2844L56.6438 38.2492C56.807 38.1908 57.2097 38.1204 57.499 38.0997C57.8858 38.0721 58.3289 38.1232 58.6512 38.2325C58.8552 38.3016 58.8951 38.3236 59.0966 38.4776C59.3974 38.7074 60.0785 39.386 60.2705 39.6471C60.369 39.7811 60.4533 39.9259 60.5243 40.0829C60.5827 40.2122 60.6951 40.4374 60.7741 40.5833C60.8531 40.7292 60.9468 40.934 60.9822 41.0384C61.1182 41.4388 61.2687 41.7892 61.5224 42.2963C61.951 43.1527 62.3824 43.7996 62.8708 44.318C63.0366 44.494 63.2004 44.6792 63.2348 44.7295C63.2693 44.7801 63.344 44.8509 63.4018 44.8879C63.4593 44.9247 63.5837 45.039 63.6782 45.142C63.7728 45.245 63.9633 45.4219 64.1016 45.5351C64.2398 45.6484 64.3696 45.7548 64.3899 45.7715C64.4252 45.8005 64.4151 45.812 64.1773 46.0129C63.547 46.5454 63.1435 46.9435 62.7251 47.4454C62.4317 47.7976 62.0399 48.3495 61.914 48.5881C61.8521 48.7053 61.7111 48.9673 61.6005 49.1704C61.4601 49.4283 61.3273 49.7144 61.1602 50.1194C60.5631 51.5668 60.3441 51.9433 59.707 52.6167C59.3334 53.0117 59.1737 53.1301 58.7622 53.3173C58.3888 53.4873 58.3353 53.4928 57.3909 53.4585V53.4585Z" fill="white"/>
<path d="M62.3976 36.2108C62.3826 36.1992 62.3352 36.1717 62.2923 36.1498C62.2218 36.1139 62.2043 36.095 62.1108 35.9546L62.0073 35.7992V35.616C62.0073 35.3597 62.0266 35.312 62.1912 35.1609C62.2585 35.0992 62.354 35.0239 62.4035 34.9937L62.4935 34.9387L67.0198 34.9457L71.546 34.9527L71.6282 34.9868C71.7388 35.0327 71.8305 35.1045 71.8678 35.1745C71.8847 35.2063 71.9256 35.2693 71.9586 35.3147L72.0185 35.3971V35.6011V35.805L71.9716 35.8855C71.8566 36.0825 71.8683 36.0704 71.71 36.1542L71.5611 36.2329L66.9931 36.2325C62.8896 36.2321 62.4222 36.2299 62.3976 36.2108V36.2108Z" fill="white"/>
<path d="M62.998 33.8097C63.5653 33.8097 64.0252 33.3498 64.0252 32.7825C64.0252 32.2152 63.5653 31.7554 62.998 31.7554C62.4307 31.7554 61.9708 32.2152 61.9708 32.7825C61.9708 33.3498 62.4307 33.8097 62.998 33.8097Z" fill="white"/>
<path d="M67.0805 33.8097C67.6478 33.8097 68.1077 33.3498 68.1077 32.7825C68.1077 32.2152 67.6478 31.7554 67.0805 31.7554C66.5132 31.7554 66.0533 32.2152 66.0533 32.7825C66.0533 33.3498 66.5132 33.8097 67.0805 33.8097Z" fill="white"/>
<path d="M71.0454 33.8097C71.6127 33.8097 72.0726 33.3498 72.0726 32.7825C72.0726 32.2152 71.6127 31.7554 71.0454 31.7554C70.4781 31.7554 70.0182 32.2152 70.0182 32.7825C70.0182 33.3498 70.4781 33.8097 71.0454 33.8097Z" fill="white"/>
</svg>
