<svg width="128" height="128" viewBox="0 0 128 128" fill="none" xmlns="http://www.w3.org/2000/svg">
<rect width="128" height="128" rx="64" fill="#6692FF"/>
<mask id="mask0_1002_1744" style="mask-type:luminance" maskUnits="userSpaceOnUse" x="29" y="14" width="71" height="100">
<path d="M100 14H29V113.7H100V14Z" fill="white"/>
</mask>
<g mask="url(#mask0_1002_1744)">
<path d="M52.2229 104.901H44.9011C44.7531 104.901 44.6052 104.752 44.6052 104.602V96.5489C44.6052 96.3998 44.7531 96.2506 44.9011 96.2506H52.2229C52.3709 96.2506 52.5188 96.3998 52.5188 96.5489V104.602C52.5927 104.826 52.4448 104.901 52.2229 104.901Z" fill="white"/>
</g>
<mask id="mask1_1002_1744" style="mask-type:luminance" maskUnits="userSpaceOnUse" x="29" y="14" width="71" height="100">
<path d="M100 14H29V113.7H100V14Z" fill="white"/>
</mask>
<g mask="url(#mask1_1002_1744)">
<path d="M67.8281 44.5737C67.8281 38.2352 62.651 33.1645 56.2906 33.1645C56.0687 33.1645 42.2385 33.1645 42.2385 33.1645V56.2066C42.4604 56.3557 42.6823 56.5794 42.8302 56.7286C44.4573 58.5183 44.5312 61.5011 43.126 63.3653C42.8302 63.7382 42.5344 64.111 42.2385 64.4093V68.7343C42.3864 68.6598 42.5344 68.5852 42.6823 68.4361C42.7562 68.3615 42.9042 68.2869 42.9781 68.2124C43.0521 68.1378 43.2739 67.9886 44.0135 67.3921C45.4187 66.2735 47.1198 64.9313 49.0427 64.4839C49.6344 64.3347 49.9302 64.2601 50.3 64.2601V39.6521H54.4417C57.4739 39.6521 59.7666 41.8892 59.7666 44.7228C59.7666 47.5565 57.326 49.7936 54.2937 49.7936H52.3708V59.0403L54.6635 62.6196C54.8854 62.3959 55.1073 62.2468 55.3291 62.023L55.4031 61.9485L55.4771 61.8739C57.2521 60.3825 59.175 59.7114 61.5417 59.7114C61.6156 59.6368 61.6156 59.6368 61.6896 59.5622L58.8792 55.5355C64.0562 54.4169 67.8281 49.9427 67.8281 44.5737Z" fill="white"/>
</g>
<mask id="mask2_1002_1744" style="mask-type:luminance" maskUnits="userSpaceOnUse" x="29" y="14" width="71" height="100">
<path d="M100 14H29V113.7H100V14Z" fill="white"/>
</mask>
<g mask="url(#mask2_1002_1744)">
<path d="M83.8031 33.1645H70.7125V55.0881C70.9344 54.9389 71.1563 54.7898 71.3781 54.6406C71.8219 54.3424 72.3396 54.0441 72.9313 53.7458L73.0052 53.6712L73.0792 53.5967C74.0406 53.1492 75.224 52.9255 76.4073 52.9255C77.2948 52.9255 78.1084 53.0747 78.8479 53.2984V39.8012H83.9511C86.1698 39.8012 88.0188 41.8892 88.0188 44.1263C88.0188 46.3634 86.1698 48.2276 83.9511 48.2276H81.2886V54.4915C81.5104 54.6406 81.7323 54.7898 81.9542 54.9389L82.0281 55.0135L82.25 55.1626H86.1698C88.9063 55.1626 90.9771 57.3997 90.9771 60.1588C90.9771 61.1282 90.7552 61.9485 90.3115 62.6942C91.4209 64.111 92.9 65.9007 93.7136 67.3175V67.3921C94.0834 68.0632 94.3792 68.8089 94.6011 69.6292C97.4115 67.6158 99.2604 64.4093 99.2604 60.8299C99.2604 56.4303 97.7073 53.2984 92.5302 50.8376C94.6011 48.8987 95.9323 46.2142 95.9323 43.306C95.9323 40.6961 94.8969 38.2352 93.1959 36.371C91.4209 34.283 88.1667 33.1645 83.8031 33.1645Z" fill="white"/>
</g>
<mask id="mask3_1002_1744" style="mask-type:luminance" maskUnits="userSpaceOnUse" x="29" y="14" width="71" height="100">
<path d="M100 14H29V113.7H100V14Z" fill="white"/>
</mask>
<g mask="url(#mask3_1002_1744)">
<path d="M68.124 85.438C68.2719 85.6617 68.4198 85.96 68.5677 86.2583C68.7896 86.7803 69.0115 87.1531 69.2333 87.2277C69.3073 87.2277 69.4552 87.3023 69.5292 87.3023C70.0469 87.3023 70.7125 87.004 71.2302 86.6311C71.526 86.4074 71.4521 86.2583 71.3042 86.0346C71.2302 85.96 71.2302 85.8854 71.1563 85.8109C71.0083 85.5126 70.9344 85.2889 70.8604 84.9906C70.7125 84.4686 70.5646 84.0958 70.0469 84.1703C69.3073 84.2449 68.5677 84.3195 67.7542 84.3195C67.7542 84.3195 67.4583 84.3195 67.3844 84.4686C67.3104 84.6923 67.5323 84.8415 67.7542 85.0652C67.9021 85.2143 68.05 85.3634 68.124 85.438Z" fill="white"/>
</g>
<mask id="mask4_1002_1744" style="mask-type:luminance" maskUnits="userSpaceOnUse" x="29" y="14" width="71" height="100">
<path d="M100 14H29V113.7H100V14Z" fill="white"/>
</mask>
<g mask="url(#mask4_1002_1744)">
<path d="M30.775 87.9734H30.701C30.2573 88.1225 29.7396 88.7191 29.7396 89.0174C29.6656 90.5088 29.5916 90.6579 29.2218 91.1053C29.0739 91.2545 29 91.5527 29.1479 91.6273C29.2218 91.7019 30.701 92.2239 30.8489 92.2239C30.9968 92.1493 31.0708 91.851 31.3666 90.807C31.5146 90.2851 31.7364 89.6139 31.8843 89.0919C31.8843 89.0919 31.8843 89.0174 31.7364 88.7937C31.6625 88.6445 31.0708 87.9734 30.775 87.9734Z" fill="white"/>
</g>
<mask id="mask5_1002_1744" style="mask-type:luminance" maskUnits="userSpaceOnUse" x="29" y="14" width="71" height="100">
<path d="M100 14H29V113.7H100V14Z" fill="white"/>
</mask>
<g mask="url(#mask5_1002_1744)">
<path d="M99.7781 85.5871C99.3343 85.3634 98.8906 85.1397 98.8906 85.1397C97.8551 84.5432 97.2635 83.4992 96.6718 82.5298C96.4499 82.1569 96.2281 81.7095 95.9322 81.4112C95.7843 81.1875 95.4885 80.8892 95.1926 80.6655C95.0447 80.4418 94.8229 80.2181 94.8229 80.1435C93.8614 77.5336 92.826 74.4017 92.6041 70.9714C92.5301 70.4495 92.2343 69.2563 91.7906 68.5106C90.4593 66.2735 87.2051 62.4705 86.9833 62.2468C86.8354 62.0976 86.7614 62.023 86.6135 61.8739L86.5395 61.7993L80.6968 56.8777C79.5135 56.0575 79.1437 55.9083 78.3301 55.61C77.8124 55.3863 77.1468 55.3118 76.4812 55.3118C75.6676 55.3118 74.8541 55.4609 74.1145 55.7592C73.6708 55.9829 73.227 56.2812 72.7833 56.5794C72.0437 57.0269 71.2301 57.5489 70.4166 57.8471C69.751 58.1454 69.0854 58.3691 68.3458 58.5928C67.0145 59.0403 65.6093 59.4131 64.5739 60.4571C64.2781 60.7554 63.9822 60.9791 63.7604 61.2028C62.7249 62.1722 62.651 62.2468 61.8374 62.2468C59.9145 62.2468 58.5833 62.6942 57.1781 63.8873C56.0687 64.9313 54.9593 65.8261 53.702 66.3481C53.1104 66.5718 52.5187 66.6464 51.7791 66.721C50.7437 66.7955 50.5958 66.7955 49.7083 67.0192C48.3031 67.3175 46.8239 68.5106 45.5666 69.48C45.1229 69.7783 44.6051 70.2257 44.3833 70.3749C44.2354 70.4495 44.0874 70.5986 43.9395 70.6732C42.3864 71.568 40.9072 72.4628 39.0583 72.4628C38.9843 72.4628 38.9843 72.4628 38.9104 72.4628C37.5051 72.3883 36.2479 71.4189 35.8041 70.0766C35.4343 68.6598 35.8041 67.1684 36.9874 65.9753C37.5051 65.4533 38.1708 64.9313 38.7624 64.4093C39.7239 63.589 40.6114 62.8433 41.277 61.9485C42.0166 60.9791 41.9426 59.264 41.1291 58.3691C40.3156 57.4743 38.4666 57.0269 37.801 56.8777H37.6531C37.5791 56.8777 37.4312 56.8777 37.4312 56.8032C36.9874 56.7286 36.5437 56.654 36.1739 56.5794C35.0645 56.2812 34.251 55.4609 33.2895 54.9389C32.7718 55.4609 32.6979 56.0575 32.6979 56.7286C32.9197 58.22 34.1031 59.7114 35.4343 60.3079C35.5083 60.3079 35.5822 60.3825 35.5822 60.3825C36.026 60.5317 36.4697 60.6062 36.8395 60.6062C36.9135 60.6062 36.9874 60.6062 37.1354 60.6062C37.2093 60.6062 37.2833 60.6062 37.4312 60.6062C37.727 60.6062 38.0229 60.6062 38.3187 60.6808C38.6145 60.7554 38.8364 60.9791 38.9104 61.3519C38.9104 61.5756 38.8364 61.7248 38.6145 61.8739C38.3926 62.0976 38.1708 62.2468 37.9489 62.4705C36.7656 63.4399 35.5822 64.4093 34.6208 65.6024C33.2895 67.0192 33.2895 69.48 33.8812 71.046C34.6208 73.134 36.7656 74.3271 38.5406 74.5508C38.8364 74.6254 39.2062 74.6254 39.502 74.6254C40.5374 74.6254 41.5729 74.4017 42.5343 74.1034H42.6083C42.6822 74.1034 42.7562 74.1034 42.7562 74.3271C42.7562 74.7745 42.8301 75.2219 42.8301 75.7439C42.8301 76.4896 42.9041 77.2353 42.9781 77.5336C43.126 78.2047 43.4218 79.025 43.6437 79.6216C43.7176 79.8453 43.7916 80.069 43.8656 80.1435C43.9395 80.4418 43.8656 80.8147 43.6437 80.9638C42.9041 81.6349 41.4249 82.1569 41.1291 82.2315C40.6854 82.3061 40.2416 82.3061 39.8718 82.3061C39.7239 82.3061 39.576 82.3061 39.502 82.3061C39.3541 82.3061 39.2062 82.3806 39.0583 82.5298C38.8364 82.7535 38.6145 83.35 38.3187 84.0212C38.1708 84.4686 38.0229 84.8414 37.801 85.2143C37.3572 85.96 36.5437 86.482 35.8041 86.9294C35.5822 87.004 35.4343 87.1531 35.2124 87.2277C34.9166 87.7497 34.6208 88.1971 34.177 88.5699C33.8812 88.8682 33.4374 88.9428 33.0676 88.9428C32.476 89.6139 32.2541 90.5088 32.1062 91.4036C32.1062 91.5527 32.0322 91.7019 32.0322 91.7765V91.9256H32.1062C32.402 91.9256 32.6979 92.0002 33.0676 92.0747C33.5114 92.1493 33.9551 92.2984 34.3989 92.2984C34.8426 92.2984 35.2124 92.2239 35.5083 92.0002C36.0999 91.7019 36.3958 91.1799 36.6916 90.7325C36.9135 90.4342 37.0614 90.0613 37.3572 89.7631C37.5051 89.6139 37.727 89.5394 37.9489 89.5394C38.1708 89.5394 38.3926 89.6139 38.6145 89.6885C38.8364 89.7631 39.0583 89.8376 39.2801 89.8376C40.3156 89.9122 41.277 89.2411 41.7947 88.8682C42.0166 88.7191 42.2385 88.4954 42.3864 88.2717C42.6822 87.9734 43.052 87.6751 43.3479 87.4514C43.7916 87.2277 44.3093 87.1531 44.901 87.1531C45.7145 87.1531 46.5281 87.3023 47.1937 87.4514C47.5635 87.526 47.9333 87.6005 48.3031 87.6005C48.9687 87.6005 49.5604 87.4514 50.0041 87.1531C50.5958 86.8548 51.1874 86.482 51.6312 86.2583C51.927 86.1091 52.1489 85.96 52.3708 85.8854C53.1843 85.438 53.9239 84.1703 54.1458 83.6483C54.3676 83.1263 54.8114 82.0824 54.8114 82.0824V82.0078L53.8499 81.2621L53.776 81.3367C53.776 81.3367 53.1104 82.3806 52.7406 82.9026C51.0395 85.2889 48.2291 85.5871 46.0104 85.5871C45.8624 85.5871 45.7145 85.5871 45.5666 85.5871C42.7562 85.5871 40.5374 86.5566 38.9104 88.3462C38.8364 88.4208 38.6885 88.4208 38.6145 88.3462C38.6145 88.2717 38.5406 88.1971 38.6145 88.1225C38.6885 87.8988 38.6885 87.8988 38.7624 87.6751C40.5374 85.2143 43.4958 84.8414 45.8624 84.7669C47.6374 84.6177 48.8947 84.3195 50.0041 83.7975C51.4093 83.0518 52.5187 81.4112 52.8885 80.1435C53.1843 79.3233 53.3322 78.4284 53.4062 77.5336C53.4801 76.8625 53.6281 76.1168 53.776 75.4456C53.776 75.3711 53.9239 75.2965 53.9979 75.2965H54.0718C54.1458 75.2965 54.3676 75.3711 54.3676 75.5202C54.1458 76.8625 53.776 78.7267 54.4416 80.2927C54.7374 80.8892 55.3291 81.1875 56.2906 81.1875C56.8822 81.1875 57.5479 81.113 58.1395 80.9638C58.6572 80.8892 59.101 80.8147 59.4708 80.8147C59.6187 80.8147 59.8406 80.8147 59.9885 80.8147C60.802 80.8147 61.5416 80.9638 62.2812 81.1129C62.9468 81.2621 63.5385 81.4112 64.2781 81.4112C64.426 81.4112 64.4999 81.4112 64.6479 81.4112C64.8697 81.4112 65.0916 81.4858 65.3874 81.4858C65.9791 81.4858 66.3489 81.3367 66.6447 81.1129C66.8666 80.9638 66.7926 80.6655 66.7187 80.3673V80.2927C66.7187 80.2181 66.7187 80.1435 66.6447 80.1435C66.4968 79.6961 66.3489 79.0996 66.6447 78.8013C66.7187 78.8013 66.7926 78.7267 66.7926 78.7267C66.8666 78.7267 66.9406 78.7267 66.9406 78.8013C66.9406 78.9504 67.0145 79.025 67.0145 79.1741C67.1624 79.6961 67.3104 80.2181 67.6062 80.6655C68.2718 81.5604 69.3812 82.3806 70.6385 83.0518C71.452 83.6483 72.4874 84.6177 72.5614 86.0346C72.5614 86.6311 71.9697 87.0785 71.526 87.3768C70.7864 87.7497 69.751 88.1971 69.0114 88.1225C68.5676 88.1225 68.1979 87.8242 68.1979 87.8242C67.5322 87.1531 67.6062 87.004 67.1624 86.1837C66.9406 85.8109 66.6447 85.3634 66.3489 84.9906C65.9051 84.5432 65.3874 84.3195 64.6479 84.394C63.9822 84.4686 63.3166 84.6177 62.5031 84.7669C62.3551 84.7669 62.2072 84.916 62.1333 85.0652C62.0593 85.2143 62.0593 85.438 62.2072 85.5871C62.577 86.3328 63.0208 86.9294 63.3906 87.6751L63.5385 87.9734C63.6124 88.1225 63.8343 88.1971 63.9822 88.1971C64.0562 88.1971 64.2041 88.1971 64.2781 88.1971C64.426 88.1971 64.4999 88.1971 64.6479 88.1971C65.0176 88.1971 65.2395 88.2717 65.3874 88.4954C65.5354 88.7191 65.6093 88.8682 65.7572 89.0919C66.0531 89.6139 66.2749 90.0613 66.7926 90.4342C67.2364 90.807 67.8281 91.0308 68.4197 91.0308C68.7156 91.0308 68.9374 90.9562 69.2333 90.8816C71.0822 90.2851 72.8572 89.6885 74.5583 88.7937H75.1499C75.2979 88.7937 75.3718 88.7937 75.5197 88.7937C76.1114 88.7191 76.7031 88.7191 77.1468 88.2717C77.6645 87.4514 78.1822 86.7057 78.552 85.8109C78.9218 85.0652 78.9218 84.3195 78.552 83.7229C77.4426 82.0078 77.2947 81.4858 76.851 80.2927C76.7031 80.2181 76.6291 80.2181 76.4812 80.1435C76.1854 80.069 75.9635 79.9198 75.5937 79.9198H75.5197C75.1499 79.9198 74.9281 80.069 74.7801 80.2927L76.777 84.1703C76.9249 84.4686 77.0729 84.7669 76.9989 85.2143C76.9249 85.6617 75.9635 87.2277 75.6676 87.3768C75.5937 87.4514 75.5197 87.4514 75.5197 87.4514C75.5197 87.4514 75.3718 87.4514 75.4458 87.2277C75.5937 86.6311 75.8895 85.0652 75.8156 84.6177C75.7416 84.0958 74.1145 81.3367 74.0406 81.1875V81.1129C73.8187 80.6655 73.5229 80.2927 73.5229 79.7707C73.5229 79.547 73.7447 79.3978 73.8926 79.3233C74.1885 79.2487 74.4843 79.1741 74.7801 79.0996C75.4458 78.9504 76.1854 78.8013 76.4812 78.3539C77.2947 77.1607 77.7385 75.8931 78.0343 74.1779C78.0343 74.1034 78.1083 73.9542 78.1822 73.9542C78.2562 73.9542 78.3301 73.9542 78.3301 74.1034C78.626 75.7439 78.2562 77.459 77.2208 78.8759C77.1468 78.9504 77.1468 79.0996 77.1468 79.2487C77.1468 79.3978 77.2947 79.4724 77.2947 79.4724C77.6645 79.6961 79.0697 79.547 80.0312 79.025C80.7708 79.025 81.5104 78.8759 82.176 78.8013C82.3979 78.7267 82.6197 78.7267 82.8416 78.6521C82.9156 78.7267 82.9895 78.7267 82.9895 78.8013C82.3979 79.4724 82.0281 80.2181 81.8801 81.1875C81.7322 81.3367 81.5104 81.4858 81.3624 81.7095C80.6968 82.3061 80.0312 82.9772 80.0312 83.7975C80.0312 83.7975 80.0312 84.0957 80.327 84.0957C80.401 84.0957 80.5489 84.0212 80.6229 84.0212C80.7708 83.9466 80.8447 83.9466 80.9926 83.9466C81.0666 83.9466 81.1406 84.0212 81.2145 84.1703L80.4749 85.2143C80.1791 85.6617 80.327 86.1091 80.401 86.6311C80.4749 86.8548 80.4749 87.0785 80.5489 87.3023C80.6968 87.8242 81.3624 88.1225 81.8801 88.1225C82.8416 88.048 83.7291 87.7497 84.5426 87.4514C84.6906 87.3768 84.8385 87.3768 84.9864 87.3023C85.8739 86.9294 87.1312 86.8548 88.6104 87.0785C89.7937 87.004 90.6812 86.2583 91.4947 85.438C91.8645 85.438 92.2343 85.6617 92.6041 86.1091C93.8614 87.4514 95.4145 88.1225 97.3374 88.1225C97.4114 88.1225 97.4854 88.1225 97.5593 88.1225H97.7812C98.0031 88.048 98.0031 87.9734 98.077 87.8242C98.077 87.6751 98.0031 87.526 97.7812 87.4514L96.6718 86.8548C95.7843 86.3328 94.8968 85.6617 94.601 84.7669C94.3051 83.7975 93.7874 82.9026 93.4176 82.2315C93.3437 82.0824 93.2697 82.0078 93.1958 81.8586C93.0479 81.6349 92.8999 81.4112 92.752 81.1875C93.9354 81.6349 94.601 82.5298 95.4145 83.9466C96.0062 85.0652 97.5593 86.1837 99.0385 86.1837C99.2604 86.1837 99.4083 86.1837 99.6301 86.1091C99.7781 86.1091 99.926 85.96 99.926 85.8109C99.9999 85.8109 99.926 85.6617 99.7781 85.5871ZM78.7739 67.9886C78.7739 68.1378 78.6999 68.2124 78.626 68.2124C78.626 68.2124 78.4781 68.2124 78.4781 68.0632C78.1822 66.4972 77.9604 65.677 77.6645 65.0058C77.5166 64.7821 77.4426 64.5584 77.2947 64.4093C76.9989 64.0364 76.777 63.7382 77.0729 63.2907C77.1468 63.1416 77.3687 63.067 77.5166 63.067C77.5906 63.067 77.7385 63.067 77.8124 63.1416C78.1083 63.2907 78.4041 63.6636 78.6999 64.2601C79.3656 65.8261 78.7739 67.9886 78.7739 67.9886ZM88.6104 83.7229C88.6104 83.7229 88.5364 84.1703 88.3885 84.394C88.1666 84.5432 87.3531 84.6923 86.9833 84.6923C86.6135 84.6923 86.4656 84.6177 86.3916 84.4686C86.3176 84.3195 86.4656 84.0957 86.4656 84.0957C86.5395 84.0212 86.9833 83.0518 87.8708 82.7535C87.8708 82.7535 88.1666 82.6789 88.4624 82.7535C88.7583 82.9026 88.6104 83.6483 88.6104 83.7229ZM91.2729 77.5336C91.1989 77.9064 91.1249 78.0556 91.051 78.1302C90.977 78.2047 90.9031 78.4284 90.6812 78.4284C90.3854 78.4284 90.3854 78.0556 90.3854 78.0556C90.3854 78.0556 90.3854 77.0862 90.1635 76.7133C89.9416 76.2659 88.9801 74.9982 88.4624 75.0728C88.3145 75.0728 87.9447 75.2965 87.6489 75.6693C87.3531 76.1168 87.3531 76.1168 87.2051 76.1913C87.1312 76.2659 86.9833 76.1913 86.9093 75.9676C86.8354 75.7439 86.8354 75.5202 86.9093 74.9982C87.0572 74.4762 87.1312 74.4017 87.2791 74.0288C87.2791 74.0288 87.5749 73.3577 87.6489 73.2085C87.9447 72.7611 88.3145 72.7611 88.3145 72.7611C88.3885 72.7611 88.7583 72.6865 89.1281 73.2085C89.5718 73.7305 89.4979 73.7305 89.5718 73.8797C89.7197 74.1034 89.7937 74.2525 90.1635 74.6254C90.5333 74.9982 90.9031 75.7439 91.051 76.2659C91.3468 76.7879 91.3468 77.1607 91.2729 77.5336Z" fill="white"/>
</g>
<mask id="mask6_1002_1744" style="mask-type:luminance" maskUnits="userSpaceOnUse" x="29" y="14" width="71" height="100">
<path d="M100 14H29V113.7H100V14Z" fill="white"/>
</mask>
<g mask="url(#mask6_1002_1744)">
<path d="M32.3281 87.9734C32.4021 88.048 32.624 88.1971 32.8458 88.1971C32.9938 88.1971 33.1417 88.1225 33.2896 88.048C34.1031 87.6005 34.9167 86.1091 34.9906 86.0346C35.0646 85.8109 34.7688 85.5871 34.4729 85.2889H34.399C34.251 85.1397 33.9552 85.2143 33.8073 85.2889C33.6594 85.3634 33.5854 85.438 33.4375 85.5126C32.9938 85.8109 32.55 86.1091 32.1063 86.482C31.9583 86.6311 31.8844 86.8548 31.8104 87.0785C31.8104 87.2277 31.8104 87.3768 31.8844 87.4514C31.9583 87.526 32.2542 87.8988 32.3281 87.9734Z" fill="white"/>
</g>
<mask id="mask7_1002_1744" style="mask-type:luminance" maskUnits="userSpaceOnUse" x="29" y="14" width="71" height="100">
<path d="M100 14H29V113.7H100V14Z" fill="white"/>
</mask>
<g mask="url(#mask7_1002_1744)">
<path d="M62.799 28.5411L65.8313 14.2237H62.2073L59.175 28.5411H62.799Z" fill="white"/>
</g>
<mask id="mask8_1002_1744" style="mask-type:luminance" maskUnits="userSpaceOnUse" x="29" y="14" width="71" height="100">
<path d="M100 14H29V113.7H100V14Z" fill="white"/>
</mask>
<g mask="url(#mask8_1002_1744)">
<path d="M79.3656 28.5411L80.1052 26.3786H84.7646L85.2083 28.5411H88.6104L85.6521 14.2983H82.5458C81.8802 14.2983 81.2885 14.7457 80.9927 15.3423L75.5938 28.5411H79.3656ZM83.1375 18.1013L84.2469 23.4704H81.2146L83.1375 18.1013Z" fill="white"/>
</g>
<mask id="mask9_1002_1744" style="mask-type:luminance" maskUnits="userSpaceOnUse" x="29" y="14" width="71" height="100">
<path d="M100 14H29V113.7H100V14Z" fill="white"/>
</mask>
<g mask="url(#mask9_1002_1744)">
<path d="M69.751 25.782C67.902 25.782 66.8666 25.2601 65.9791 24.8872L65.3135 28.0191C66.201 28.392 67.7541 28.7648 69.3812 28.7648C73.227 28.7648 75.7416 26.826 75.7416 23.9178C75.7416 20.1893 70.5645 19.9656 70.6385 18.2505C70.6385 17.7285 71.1562 17.2065 72.1916 17.0574C72.7093 16.9828 74.1885 16.9082 75.8156 17.7285L76.4072 14.5966C75.5197 14.2983 74.4104 14 73.0051 14C69.3812 14 66.8666 15.9388 66.7926 18.6979C66.7926 20.7859 68.6416 21.9044 69.9729 22.5755C71.3781 23.2467 71.8958 23.6941 71.8958 24.3652C71.8958 25.3346 70.7864 25.7075 69.751 25.782Z" fill="white"/>
</g>
<mask id="mask10_1002_1744" style="mask-type:luminance" maskUnits="userSpaceOnUse" x="29" y="14" width="71" height="100">
<path d="M100 14H29V113.7H100V14Z" fill="white"/>
</mask>
<g mask="url(#mask10_1002_1744)">
<path d="M47.9333 17.1319L50.8177 28.5411H54.6635L60.5802 14.2983H56.7344L52.9625 23.9924L51.4094 15.7151C51.2615 14.8203 50.5219 14.2983 49.7083 14.2983H43.4958L43.4219 14.7457C44.6792 15.044 46.1583 15.4914 47.0458 15.9388C47.5635 16.1625 47.7115 16.4608 47.9333 17.1319Z" fill="white"/>
</g>
<mask id="mask11_1002_1744" style="mask-type:luminance" maskUnits="userSpaceOnUse" x="29" y="14" width="71" height="100">
<path d="M100 14H29V113.7H100V14Z" fill="white"/>
</mask>
<g mask="url(#mask11_1002_1744)">
<path d="M63.3167 101.694L62.873 101.396C62.799 101.321 62.6511 101.396 62.5771 101.471C62.2813 101.918 61.7636 102.216 61.2459 102.142C60.2105 102.142 59.6188 101.321 59.6188 100.203C59.6188 99.0843 60.2105 98.264 61.2459 98.264C61.7636 98.264 62.2813 98.4877 62.5771 98.9352C62.6511 99.0097 62.725 99.0097 62.873 99.0097L63.3167 98.7114C63.3907 98.6369 63.3907 98.4877 63.3907 98.4132C62.873 97.742 62.1334 97.2946 61.2459 97.3692C59.6927 97.3692 58.5834 98.5623 58.5834 100.277C58.5834 101.993 59.6927 103.186 61.2459 103.186C62.1334 103.186 62.873 102.813 63.3907 102.067C63.4646 101.918 63.3907 101.769 63.3167 101.694Z" fill="white"/>
</g>
<mask id="mask12_1002_1744" style="mask-type:luminance" maskUnits="userSpaceOnUse" x="29" y="14" width="71" height="100">
<path d="M100 14H29V113.7H100V14Z" fill="white"/>
</mask>
<g mask="url(#mask12_1002_1744)">
<path d="M65.6833 98.8606C65.1656 98.8606 64.6479 99.0097 64.1302 99.2334C64.0562 99.308 63.9823 99.3826 64.0562 99.5317L64.2041 99.9046C64.2781 99.9791 64.3521 100.054 64.5 99.9791C64.8698 99.83 65.2396 99.6809 65.6094 99.6809C65.9791 99.6809 66.3489 99.7554 66.3489 100.128C66.3489 100.501 65.8312 100.576 65.2396 100.65C64.7219 100.725 63.8344 100.874 63.8344 101.918C63.8344 102.738 64.426 103.186 65.2396 103.186C65.8312 103.186 66.1271 102.962 66.4229 102.664V102.887C66.4229 102.962 66.4969 103.111 66.6448 103.111H67.1625C67.2364 103.111 67.3844 103.037 67.3844 102.887V100.277C67.3104 99.2334 66.6448 98.8606 65.6833 98.8606ZM66.275 101.471C66.275 102.067 65.8312 102.365 65.3875 102.365C65.0177 102.365 64.7219 102.216 64.7219 101.843C64.7219 101.471 65.0177 101.321 65.3875 101.247C65.7573 101.172 66.1271 101.098 66.275 101.023V101.471Z" fill="white"/>
</g>
<mask id="mask13_1002_1744" style="mask-type:luminance" maskUnits="userSpaceOnUse" x="29" y="14" width="71" height="100">
<path d="M100 14H29V113.7H100V14Z" fill="white"/>
</mask>
<g mask="url(#mask13_1002_1744)">
<path d="M69.7511 100.501C69.3074 100.427 68.8636 100.352 68.8636 100.054C68.8636 99.7554 69.1594 99.6809 69.5292 99.6809C69.899 99.6809 70.2688 99.83 70.5647 100.054C70.6386 100.128 70.7865 100.128 70.8605 100.054L71.0824 99.7554C71.1563 99.6809 71.1563 99.5317 71.0824 99.4572C70.6386 99.0843 70.1209 98.9352 69.5292 98.9352C68.6417 98.9352 67.9021 99.308 67.9021 100.203C67.9021 101.098 68.6417 101.321 69.3813 101.471C70.1209 101.62 70.4167 101.694 70.4167 101.993C70.4167 102.365 70.1209 102.44 69.6771 102.44C69.2334 102.44 68.8636 102.291 68.4938 102.067C68.4199 101.993 68.2719 101.993 68.198 102.067L67.9021 102.365C67.8282 102.44 67.8282 102.589 67.9021 102.664C68.3459 103.037 68.9376 103.186 69.5292 103.186C70.6386 103.186 71.3042 102.664 71.3042 101.769C71.3042 100.949 70.7126 100.65 69.7511 100.501Z" fill="white"/>
</g>
<mask id="mask14_1002_1744" style="mask-type:luminance" maskUnits="userSpaceOnUse" x="29" y="14" width="71" height="100">
<path d="M100 14H29V113.7H100V14Z" fill="white"/>
</mask>
<g mask="url(#mask14_1002_1744)">
<path d="M74.1146 98.8606C73.5969 98.8606 73.1531 99.0843 72.8573 99.4572V97.6675C72.8573 97.5929 72.7834 97.4438 72.6354 97.4438H72.0438C71.8959 97.4438 71.8219 97.5184 71.8219 97.6675V102.813C71.8219 102.887 71.8959 103.037 72.0438 103.037H72.6354C72.7834 103.037 72.8573 102.962 72.8573 102.813V100.725C72.8573 100.128 73.2271 99.7555 73.8188 99.7555C74.4104 99.7555 74.4844 100.128 74.4844 100.576V102.887C74.4844 102.962 74.5584 103.111 74.7063 103.111H75.2979C75.4459 103.111 75.5198 103.037 75.5198 102.887V100.352C75.4459 99.4572 75.0021 98.8606 74.1146 98.8606Z" fill="white"/>
</g>
<mask id="mask15_1002_1744" style="mask-type:luminance" maskUnits="userSpaceOnUse" x="29" y="14" width="71" height="100">
<path d="M100 14H29V113.7H100V14Z" fill="white"/>
</mask>
<g mask="url(#mask15_1002_1744)">
<path d="M81.0667 97.5929C81.0667 97.5184 80.9927 97.4438 80.8448 97.4438H79.8833C79.8094 97.4438 79.7354 97.5184 79.6614 97.5929L77.7385 102.738V102.813C77.7385 102.962 77.8125 103.037 77.9604 103.037H78.626C78.7 103.037 78.7739 102.962 78.8479 102.887L79.2916 101.62H81.3625L81.8062 102.887C81.8062 102.962 81.8802 103.037 82.0281 103.037H82.7677H82.8417C82.9156 102.962 82.9896 102.887 82.9896 102.813L81.0667 97.5929ZM79.5875 100.799L80.401 98.4132L81.2146 100.799H79.5875Z" fill="white"/>
</g>
<mask id="mask16_1002_1744" style="mask-type:luminance" maskUnits="userSpaceOnUse" x="29" y="14" width="71" height="100">
<path d="M100 14H29V113.7H100V14Z" fill="white"/>
</mask>
<g mask="url(#mask16_1002_1744)">
<path d="M85.6521 98.8606C85.1344 98.8606 84.6906 99.0843 84.3948 99.4572V99.1589C84.3948 99.0843 84.3208 98.9352 84.1729 98.9352H83.5813C83.5073 98.9352 83.3594 99.0097 83.3594 99.1589V104.23C83.3594 104.379 83.4333 104.453 83.5813 104.453H84.1729C84.3208 104.453 84.3948 104.379 84.3948 104.23V102.515C84.6906 102.887 85.1344 103.186 85.6521 103.111C86.7615 103.111 87.501 102.142 87.501 100.949C87.501 99.7554 86.7615 98.8606 85.6521 98.8606ZM85.4302 102.291C84.7646 102.291 84.3948 101.694 84.3948 101.023C84.3948 100.277 84.7646 99.7554 85.4302 99.7554C86.0958 99.7554 86.4656 100.352 86.4656 101.023C86.4656 101.694 86.0958 102.291 85.4302 102.291Z" fill="white"/>
</g>
<mask id="mask17_1002_1744" style="mask-type:luminance" maskUnits="userSpaceOnUse" x="29" y="14" width="71" height="100">
<path d="M100 14H29V113.7H100V14Z" fill="white"/>
</mask>
<g mask="url(#mask17_1002_1744)">
<path d="M90.3115 98.8606C89.7938 98.8606 89.35 99.0843 89.0542 99.4572V99.1589C89.0542 99.0843 88.9803 98.9352 88.8323 98.9352H88.2407C88.1667 98.9352 88.0188 99.0097 88.0188 99.1589V104.23C88.0188 104.379 88.0928 104.453 88.2407 104.453H88.9063C88.9803 104.453 89.1282 104.379 89.1282 104.23V102.515C89.424 102.887 89.8678 103.186 90.3855 103.111C91.4948 103.111 92.2344 102.142 92.2344 100.949C92.1605 99.7554 91.4209 98.8606 90.3115 98.8606ZM90.0896 102.291C89.424 102.291 89.0542 101.694 89.0542 101.023C89.0542 100.277 89.424 99.7554 90.0896 99.7554C90.7553 99.7554 91.125 100.352 91.125 101.023C91.125 101.694 90.8292 102.291 90.0896 102.291Z" fill="white"/>
</g>
<mask id="mask18_1002_1744" style="mask-type:luminance" maskUnits="userSpaceOnUse" x="43" y="94" width="12" height="12">
<path d="M48.451 102.142C49.0426 102.142 49.4124 101.918 49.4124 101.471C49.4124 101.023 49.0426 100.949 48.2291 100.65C47.4156 100.352 46.676 99.9791 46.676 99.0097C46.676 97.8912 47.5635 97.3692 48.6729 97.2946L48.8208 96.7726C48.8208 96.698 48.9687 96.6235 49.0426 96.6235H49.8562C49.8562 96.6235 49.8562 96.6235 49.9301 96.6235C50.0781 96.6235 50.152 96.7726 50.0781 96.8472L49.9301 97.4437C50.3739 97.5929 50.7437 97.8166 51.0395 98.0403C51.1135 98.1149 51.1135 98.264 51.0395 98.3386L50.5958 98.786C50.5218 98.8606 50.3739 98.8606 50.2999 98.786C49.8562 98.4131 49.4124 98.264 48.8208 98.264C48.377 98.264 47.9333 98.4131 47.9333 98.786C47.9333 99.1588 48.377 99.308 48.9687 99.5317C49.9301 99.83 50.7437 100.277 50.7437 101.172C50.7437 102.216 49.9301 102.887 48.6729 102.962L48.5249 103.484C48.5249 103.558 48.377 103.633 48.3031 103.633H47.4895C47.4895 103.633 47.4895 103.633 47.4156 103.633C47.2676 103.633 47.1937 103.484 47.2676 103.335L47.4156 102.738C46.8979 102.589 46.4541 102.365 46.0843 101.992C46.0104 101.918 46.0104 101.769 46.0843 101.694L46.5281 101.247C46.602 101.172 46.7499 101.172 46.8239 101.247C47.3416 101.918 47.8593 102.142 48.451 102.142ZM46.9718 94.8338C45.8624 94.8338 45.3447 94.8338 44.7531 94.9829C44.0874 95.2066 43.5697 95.7286 43.3479 96.3998C43.126 96.9963 43.126 97.5183 43.126 98.6369V101.918C43.126 103.036 43.126 103.558 43.2739 104.155C43.4958 104.826 44.0135 105.348 44.6791 105.572C45.2708 105.796 45.7885 105.796 46.8979 105.796H50.226C51.3354 105.796 51.8531 105.796 52.4447 105.572C53.1104 105.348 53.6281 104.826 53.8499 104.155C54.0718 103.558 54.0718 103.036 54.0718 101.918V98.6369C54.0718 97.5183 54.0718 96.9963 53.8499 96.3998C53.6281 95.7286 53.1104 95.2066 52.4447 94.9829C51.8531 94.7592 51.3354 94.7592 50.226 94.7592H46.9718V94.8338Z" fill="white"/>
</mask>
<g mask="url(#mask18_1002_1744)">
<path d="M54.0718 94.8338H43.2V105.796H54.0718V94.8338Z" fill="url(#paint0_linear_1002_1744)"/>
</g>
<path d="M42.9781 110.792V113.7H43.4219V112.507H44.6052V112.059H43.4219V111.239H44.6052V110.792H42.9781Z" fill="white"/>
<mask id="mask19_1002_1744" style="mask-type:luminance" maskUnits="userSpaceOnUse" x="29" y="14" width="71" height="100">
<path d="M100 14H29V113.7H100V14Z" fill="white"/>
</mask>
<g mask="url(#mask19_1002_1744)">
<path d="M46.972 113.7C46.7501 113.7 46.6022 113.7 46.3803 113.551C46.2324 113.476 46.0105 113.402 45.9365 113.253C45.7886 113.103 45.7147 112.954 45.6407 112.805C45.5668 112.656 45.4928 112.432 45.4928 112.209C45.4928 111.985 45.4928 111.836 45.6407 111.612C45.7147 111.463 45.7886 111.314 45.9365 111.165C46.0845 111.016 46.2324 110.941 46.3803 110.866C46.5282 110.792 46.7501 110.717 46.972 110.717C47.1938 110.717 47.4157 110.792 47.5636 110.866C47.7115 110.941 47.9334 111.016 48.0074 111.165C48.1553 111.314 48.2293 111.463 48.3032 111.612C48.3772 111.761 48.3772 111.985 48.3772 112.209C48.3772 112.432 48.3032 112.581 48.3032 112.805C48.2293 112.954 48.1553 113.103 48.0074 113.253C47.8595 113.402 47.7115 113.476 47.5636 113.551C47.4157 113.7 47.1938 113.7 46.972 113.7ZM46.972 113.327C47.1199 113.327 47.2678 113.327 47.3418 113.253C47.4897 113.178 47.5636 113.103 47.6376 113.029C47.7115 112.954 47.7855 112.805 47.8595 112.656C47.9334 112.507 47.9334 112.358 47.9334 112.209C47.9334 112.059 47.9334 111.91 47.8595 111.761C47.7855 111.612 47.7115 111.537 47.6376 111.463C47.5636 111.388 47.4157 111.314 47.3418 111.239C47.1938 111.165 47.0459 111.165 46.972 111.165C46.824 111.165 46.6761 111.165 46.5282 111.239C46.3803 111.314 46.3063 111.388 46.2324 111.463C46.1584 111.537 46.0845 111.687 46.0105 111.761C45.9365 111.91 45.9365 112.059 45.9365 112.209C45.9365 112.358 45.9365 112.507 46.0105 112.656C46.0845 112.805 46.1584 112.88 46.2324 113.029C46.3063 113.103 46.4543 113.178 46.5282 113.253C46.7501 113.253 46.824 113.327 46.972 113.327Z" fill="white"/>
</g>
<mask id="mask20_1002_1744" style="mask-type:luminance" maskUnits="userSpaceOnUse" x="29" y="14" width="71" height="100">
<path d="M100 14H29V113.7H100V14Z" fill="white"/>
</mask>
<g mask="url(#mask20_1002_1744)">
<path d="M49.6344 110.792H50.5219C50.8177 110.792 51.0396 110.866 51.1875 111.015C51.3354 111.165 51.4094 111.388 51.4094 111.612C51.4094 111.836 51.3354 111.985 51.2615 112.134C51.1875 112.283 51.0396 112.358 50.8177 112.432L51.5573 113.625H51.1875L50.5219 112.507H50.1521V113.625H49.7084V110.792H49.6344ZM50.5219 112.209C50.6698 112.209 50.8177 112.134 50.8917 112.059C50.9656 111.985 51.0396 111.836 51.0396 111.687C51.0396 111.537 50.9656 111.388 50.8917 111.314C50.8177 111.239 50.6698 111.165 50.5219 111.165H50.0781V112.134H50.5219V112.209Z" fill="white"/>
</g>
<mask id="mask21_1002_1744" style="mask-type:luminance" maskUnits="userSpaceOnUse" x="29" y="14" width="71" height="100">
<path d="M100 14H29V113.7H100V14Z" fill="white"/>
</mask>
<g mask="url(#mask21_1002_1744)">
<path d="M55.551 110.792V113.7H55.1812V111.463L54.3677 113.7H53.9979L53.1844 111.463V113.7H52.7406V110.792H53.3323L54.1458 113.103L54.9594 110.792H55.551Z" fill="white"/>
</g>
<mask id="mask22_1002_1744" style="mask-type:luminance" maskUnits="userSpaceOnUse" x="29" y="14" width="71" height="100">
<path d="M100 14H29V113.7H100V14Z" fill="white"/>
</mask>
<g mask="url(#mask22_1002_1744)">
<path d="M57.9916 113.7C57.8437 113.7 57.6957 113.7 57.5478 113.625C57.3999 113.551 57.326 113.476 57.178 113.402C57.1041 113.327 57.0301 113.178 56.9562 113.029C56.8822 112.88 56.8822 112.731 56.8822 112.581V110.792H57.326V112.507C57.326 112.731 57.3999 112.88 57.4739 113.029C57.6218 113.178 57.7697 113.253 57.9176 113.253C58.1395 113.253 58.2874 113.178 58.3614 113.029C58.5093 112.88 58.5093 112.731 58.5093 112.507V110.792H58.953V112.507C58.953 112.656 58.953 112.88 58.8791 112.954C58.8051 113.103 58.7312 113.253 58.6572 113.327C58.5832 113.402 58.4353 113.476 58.2874 113.551C58.2874 113.7 58.1395 113.7 57.9916 113.7Z" fill="white"/>
</g>
<mask id="mask23_1002_1744" style="mask-type:luminance" maskUnits="userSpaceOnUse" x="29" y="14" width="71" height="100">
<path d="M100 14H29V113.7H100V14Z" fill="white"/>
</mask>
<g mask="url(#mask23_1002_1744)">
<path d="M60.3584 110.792H60.8021V113.253H61.9115V113.7H60.3584V110.792Z" fill="white"/>
</g>
<mask id="mask24_1002_1744" style="mask-type:luminance" maskUnits="userSpaceOnUse" x="29" y="14" width="71" height="100">
<path d="M100 14H29V113.7H100V14Z" fill="white"/>
</mask>
<g mask="url(#mask24_1002_1744)">
<path d="M64.5 113.029H63.3166L63.0947 113.7H62.651L63.6864 110.866H64.1302L65.1656 113.7H64.7218L64.5 113.029ZM63.4645 112.656H64.426L63.9823 111.314L63.4645 112.656Z" fill="white"/>
</g>
<mask id="mask25_1002_1744" style="mask-type:luminance" maskUnits="userSpaceOnUse" x="29" y="14" width="71" height="100">
<path d="M100 14H29V113.7H100V14Z" fill="white"/>
</mask>
<g mask="url(#mask25_1002_1744)">
<path d="M69.3073 113.7C69.0854 113.7 68.9375 113.7 68.7156 113.551C68.5677 113.476 68.3458 113.402 68.2719 113.253C68.124 113.103 68.05 112.954 67.976 112.805C67.9021 112.656 67.8281 112.432 67.8281 112.209C67.8281 111.985 67.8281 111.836 67.976 111.612C68.05 111.463 68.124 111.314 68.2719 111.165C68.4198 111.016 68.5677 110.941 68.7156 110.866C68.8635 110.792 69.0854 110.717 69.3073 110.717C69.5292 110.717 69.751 110.792 69.899 110.866C70.0469 110.941 70.2688 111.016 70.3427 111.165C70.4906 111.314 70.5646 111.463 70.6385 111.612C70.7125 111.761 70.7865 111.985 70.7865 112.209C70.7865 112.432 70.7125 112.581 70.6385 112.805C70.5646 112.954 70.4906 113.103 70.3427 113.253C70.1948 113.402 70.0469 113.476 69.899 113.551C69.751 113.7 69.5292 113.7 69.3073 113.7ZM69.3073 113.327C69.4552 113.327 69.6031 113.327 69.6771 113.253C69.825 113.178 69.899 113.103 69.9729 113.029C70.0469 112.954 70.1208 112.805 70.1948 112.656C70.2688 112.507 70.2687 112.358 70.2687 112.209C70.2687 112.059 70.2688 111.91 70.1948 111.761C70.1208 111.612 70.0469 111.537 69.9729 111.463C69.899 111.388 69.751 111.314 69.6771 111.239C69.5292 111.165 69.3812 111.165 69.3073 111.165C69.1594 111.165 69.0115 111.165 68.8635 111.239C68.7156 111.314 68.6417 111.388 68.5677 111.463C68.4937 111.537 68.4198 111.687 68.3458 111.761C68.2719 111.91 68.2719 112.059 68.2719 112.209C68.2719 112.358 68.2719 112.507 68.3458 112.656C68.4198 112.805 68.4937 112.88 68.5677 113.029C68.6417 113.103 68.7896 113.178 68.8635 113.253C69.0115 113.253 69.1594 113.327 69.3073 113.327Z" fill="white"/>
</g>
<mask id="mask26_1002_1744" style="mask-type:luminance" maskUnits="userSpaceOnUse" x="29" y="14" width="71" height="100">
<path d="M100 14H29V113.7H100V14Z" fill="white"/>
</mask>
<g mask="url(#mask26_1002_1744)">
<path d="M74.1145 110.792V113.7H73.6708L72.4135 111.537V113.7H71.9697V110.792H72.4135L73.6708 112.954V110.792H74.1145Z" fill="white"/>
</g>
<mask id="mask27_1002_1744" style="mask-type:luminance" maskUnits="userSpaceOnUse" x="29" y="14" width="71" height="100">
<path d="M100 14H29V113.7H100V14Z" fill="white"/>
</mask>
<g mask="url(#mask27_1002_1744)">
<path d="M75.4459 110.792H77.073V111.239H75.8897V111.985H77.073V112.358H75.8897V113.253H77.147V113.7H75.4459V110.792Z" fill="white"/>
</g>
<mask id="mask28_1002_1744" style="mask-type:luminance" maskUnits="userSpaceOnUse" x="29" y="14" width="71" height="100">
<path d="M100 14H29V113.7H100V14Z" fill="white"/>
</mask>
<g mask="url(#mask28_1002_1744)">
<path d="M80.5489 111.239H79.8093V110.792H81.8802V111.239H80.9927V113.7H80.5489V111.239Z" fill="white"/>
</g>
<mask id="mask29_1002_1744" style="mask-type:luminance" maskUnits="userSpaceOnUse" x="29" y="14" width="71" height="100">
<path d="M100 14H29V113.7H100V14Z" fill="white"/>
</mask>
<g mask="url(#mask29_1002_1744)">
<path d="M82.9156 110.792H84.6167V111.239H83.3594V111.985H84.5427V112.358H83.3594V113.253H84.6907V113.7H82.9156V110.792Z" fill="white"/>
</g>
<mask id="mask30_1002_1744" style="mask-type:luminance" maskUnits="userSpaceOnUse" x="29" y="14" width="71" height="100">
<path d="M100 14H29V113.7H100V14Z" fill="white"/>
</mask>
<g mask="url(#mask30_1002_1744)">
<path d="M87.4271 113.029H86.2438L86.0219 113.7H85.5781L86.6135 110.866H87.0573L88.0927 113.7H87.649L87.4271 113.029ZM86.3917 112.656H87.3531L86.9094 111.314L86.3917 112.656Z" fill="white"/>
</g>
<mask id="mask31_1002_1744" style="mask-type:luminance" maskUnits="userSpaceOnUse" x="29" y="14" width="71" height="100">
<path d="M100 14H29V113.7H100V14Z" fill="white"/>
</mask>
<g mask="url(#mask31_1002_1744)">
<path d="M92.0126 110.792V113.7H91.6428V111.463L90.8292 113.7H90.4594L89.6459 111.463V113.7H89.2021V110.792H89.7938L90.6074 113.103L91.4209 110.792H92.0126Z" fill="white"/>
</g>
<defs>
<linearGradient id="paint0_linear_1002_1744" x1="43.1667" y1="100.262" x2="54.027" y2="100.262" gradientUnits="userSpaceOnUse">
<stop stop-color="#00B03C"/>
<stop offset="0.5687" stop-color="#02B03C"/>
<stop offset="0.814" stop-color="#09B13C"/>
<stop offset="0.9969" stop-color="#16B33C"/>
<stop offset="1" stop-color="#16B33C"/>
</linearGradient>
</defs>
</svg>
