<svg width="56" height="56" viewBox="0 0 56 56" fill="none" xmlns="http://www.w3.org/2000/svg">
<rect width="56" height="56" rx="28" fill="#DC0000"/>
<path d="M45.5315 9.76353V10.68L27.7962 7.56164L10.0626 10.68V9.76353L27.7962 6.62421L45.5315 9.76353Z" fill="white"/>
<path d="M45.5315 8.82517V9.76371L27.7962 6.62439L10.0626 9.76371V8.82517L27.7962 5.6875L45.5315 8.82517Z" fill="#0D8922"/>
<path d="M45.5315 10.6798L27.7962 7.56195L10.0626 10.6798V13.8434L10.2171 13.7568C10.2792 13.7209 16.5717 10.221 27.8319 10.221C39.0916 10.221 45.3116 13.7226 45.3737 13.7568L45.5243 13.8445L45.5315 10.6798Z" fill="#ED1C24"/>
<path d="M27.8318 11.7085C37.9987 11.7085 43.952 14.5782 44.9151 15.0811V24.1886C44.8844 29.2889 43.7007 34.3161 41.4525 38.8943C36.4227 49.3639 28.8565 53.4737 27.7966 54.0114C26.7368 53.4737 19.1634 49.3639 14.1347 38.8943C11.8869 34.316 10.703 29.2888 10.6715 24.1886V15.0822C11.6456 14.5799 17.6611 11.7085 27.8318 11.7085" fill="#FFF200"/>
<path d="M27.8319 10.8336C37.9987 10.8336 43.9521 13.7033 44.9152 14.2062V23.3137C44.8844 28.414 43.7007 33.4412 41.4526 38.0194C36.4227 48.489 28.8565 52.5988 27.7967 53.1365C26.7368 52.5988 19.1635 48.489 14.1348 38.0194C11.8869 33.4411 10.7031 28.4139 10.6716 23.3137V14.2073C11.6457 13.7049 17.6611 10.8336 27.8319 10.8336V10.8336ZM10.217 13.7568L10.0625 13.8433V23.3137C10.0932 28.5052 11.2976 33.6226 13.5856 38.2829C19.0755 49.7165 27.5845 53.7144 27.6708 53.7535L27.7967 53.8125L27.9226 53.7535C28.0078 53.7144 36.5107 49.7142 42.0006 38.283C44.2894 33.6229 45.4942 28.5054 45.5248 23.3137V13.8444L45.3736 13.7568C45.3115 13.7226 39.0915 10.2215 27.8319 10.2215C16.5716 10.2215 10.2791 13.7209 10.2169 13.7568" fill="#0A0A0A"/>
<path d="M23.4656 43.3274C22.6268 43.0009 22.1447 42.8211 22.1337 42.4241C22.1287 41.753 22.9731 41.914 23.166 41.983C23.7925 42.1711 24.3243 42.5899 24.6541 43.1548C24.6541 43.1548 24.4738 42.0822 24.4337 41.8788C24.3941 41.6775 24.2731 41.7017 24.2105 41.7095C24.0846 41.7183 24.0791 41.9411 24.0791 41.9411C24.0791 41.9411 21.3751 40.8018 21.3751 42.5851C21.3751 43.42 22.2645 43.5579 22.6592 43.7663C23.4607 44.1915 24.47 44.4435 24.5557 45.0809C24.6337 45.6506 24.1253 46.2875 23.0275 46.2875C22.6674 46.2891 22.3179 46.1654 22.039 45.9377C21.7601 45.7099 21.5691 45.3922 21.4987 45.039C21.5405 44.8345 21.7428 44.9569 21.9066 44.9569C21.9662 44.9551 22.0244 44.9384 22.0759 44.9083C22.1274 44.8782 22.1705 44.8356 22.2012 44.7845C22.232 44.7334 22.2494 44.6754 22.2519 44.6158C22.2544 44.5562 22.2419 44.497 22.2155 44.4435C22.1133 44.1843 21.2662 44.1628 21.2662 45.0285C21.2662 46.2533 22.4794 46.6233 23.0071 46.6233C23.4203 46.6582 23.8328 46.5475 24.1731 46.3105C24.5134 46.0734 24.7601 45.7249 24.8706 45.3252C25.1306 44.1628 24.5655 43.7608 23.4656 43.3273L23.4656 43.3274ZM34.5956 42.3348C35.1154 42.2959 35.633 42.2309 36.1463 42.1401C36.5889 42.0149 37.004 41.8077 37.37 41.5291C36.7742 41.7259 36.1534 41.8369 35.5263 41.8589C35.0241 41.9378 34.5122 41.9294 34.0129 41.8341C33.4123 41.661 32.7807 41.6231 32.1637 41.7232C31.8992 41.7497 31.6509 41.8627 31.4572 42.0448C31.2636 42.2269 31.1355 42.4678 31.0929 42.7301C31.0307 43.1244 31.4881 43.3577 31.8745 43.2612C32.0074 43.2122 32.1264 43.1315 32.2209 43.0261C32.3155 42.9206 32.3828 42.7937 32.4171 42.6563C32.2547 42.7812 32.0683 42.8713 31.8696 42.9209C31.5898 42.9717 31.4441 42.7754 31.5238 42.5774C31.5677 42.4423 31.6502 42.323 31.7612 42.2344C31.8722 42.1458 32.0068 42.0917 32.1483 42.0789C32.4996 42.033 32.8553 42.0312 33.207 42.0734C33.7397 42.1252 34.008 42.2223 33.865 42.471C33.6096 42.7731 33.4011 43.112 33.2466 43.4762C33.1301 43.7608 33.1598 43.9042 32.9679 43.9042C32.7787 43.8744 32.5852 43.9195 32.4286 44.0299C32.3605 44.0881 32.3069 44.1615 32.2723 44.2441C32.2376 44.3268 32.2228 44.4164 32.2291 44.5058C32.295 44.4072 32.3868 44.3286 32.4945 44.2788C32.6021 44.229 32.7214 44.2098 32.8393 44.2235C32.9415 44.2235 32.8756 44.4881 32.7733 44.6982C32.6733 44.9061 32.1593 46.293 31.0824 46.293C30.9136 46.2992 30.7453 46.2703 30.5883 46.2079C30.4313 46.1455 30.289 46.0511 30.1706 45.9307C30.0521 45.8103 29.96 45.6665 29.9001 45.5085C29.8403 45.3505 29.814 45.1818 29.823 45.0131C29.9341 44.7341 30.1292 44.9877 30.3557 44.9249C30.4204 44.9106 30.4796 44.8782 30.5266 44.8314C30.5735 44.7847 30.6061 44.7255 30.6207 44.6609C30.6352 44.5963 30.631 44.5289 30.6086 44.4665C30.5862 44.4042 30.5466 44.3495 30.4942 44.3089C29.8087 43.8369 29.1573 44.9977 29.8703 46.0184C30.5442 46.9916 31.6151 46.6233 32.1736 46.3288C32.6492 46.023 33.0188 45.5777 33.2318 45.0539C33.4192 44.6729 33.5858 44.2488 33.5858 44.2488C33.7861 44.2491 33.9853 44.2194 34.1767 44.1606C34.3682 44.0745 34.5248 43.9259 34.6209 43.7393C34.3349 43.8562 34.0236 43.8972 33.7172 43.8584C33.6364 43.8584 33.8255 43.4586 34.0036 43.1117C34.1297 42.8055 34.3338 42.5376 34.5956 42.3348Z" fill="#0A0A0A"/>
<path d="M27.0661 13.3172C27.0831 13.3183 27.2992 13.2157 27.2992 13.2157C27.2916 13.14 27.2782 13.0649 27.259 12.9913C27.2552 12.9847 26.7896 12.4387 26.7896 12.4387L26.7671 12.4123L26.7583 12.447L26.7099 12.6676C26.7099 12.6648 26.5598 13.0232 26.5598 13.0232L26.5527 13.037L26.8665 13.1986L27.0661 13.3171L27.0661 13.3172ZM38.4104 24.6387C38.3884 24.6117 38.3703 24.6095 38.3593 24.6133C38.3489 24.6166 38.3329 24.6266 38.3296 24.6602C38.3104 24.8003 38.135 25.162 37.9932 25.2155C37.7348 25.368 37.5442 25.6133 37.4605 25.9015C37.4056 26.0261 37.3522 26.1458 37.311 26.148C37.2918 26.1491 37.2731 26.1303 37.2505 26.089C37.1241 25.7212 37.1241 25.3218 37.2505 24.9541L37.2709 24.8626C37.4187 24.4852 37.6382 24.1401 37.9173 23.8463L38.0146 23.7299C38.1411 23.4602 38.1957 23.1623 38.173 22.8653C38.1694 22.8641 38.1656 22.8642 38.1621 22.8655C38.1586 22.8668 38.1557 22.8693 38.1537 22.8724L38.146 22.8835L38.1427 22.8829V22.8851C38.1296 22.896 38.1213 22.9117 38.1196 22.9287C37.8707 23.3761 37.5247 23.7622 37.1071 24.0586C36.9638 24.2013 36.8343 24.3571 36.7201 24.524C36.6671 24.6079 36.604 24.6849 36.5321 24.7534C36.4151 24.238 36.5066 23.6973 36.7866 23.2491L36.8465 23.1349C37.0555 22.6501 37.3761 22.2216 37.7821 21.8842C37.7876 21.8755 37.7898 21.8652 37.7884 21.855C37.787 21.8448 37.782 21.8355 37.7744 21.8285C37.7497 21.8076 37.7035 21.8175 37.6282 21.8545L37.5875 21.8754C37.0041 22.1424 36.5241 22.5931 36.221 23.1586C35.9435 23.7058 35.7962 24.3097 35.7905 24.9232C35.7844 25.1296 35.8122 25.3357 35.873 25.5331C36.0713 26.1262 36.2379 26.7294 36.3721 27.3402C36.4229 27.8766 36.4427 28.4155 36.4315 28.9542C36.4315 29.2128 36.4304 29.3926 36.4304 29.4003L36.2963 29.8271C36.1763 30.1747 35.9661 30.4841 35.6872 30.7237C35.3624 31.0589 34.9637 31.3135 34.5229 31.4671C34.3645 31.4951 34.2018 31.4872 34.0469 31.4439C34.0469 30.8015 32.9507 29.3082 32.3906 28.8158C31.8333 28.3123 31.2283 27.8643 30.5842 27.478C29.7921 26.9944 28.9131 24.9706 28.9038 24.9502L28.8268 24.6767C28.8268 24.6767 28.7839 24.1302 28.7724 23.9885C28.8015 24.0045 28.8373 24.0277 28.8373 24.0277L29.1077 24.1859C29.1105 24.1865 29.4167 24.3039 29.4167 24.3039C29.4205 24.3067 29.8234 24.385 29.8234 24.385L30.0483 24.5019L30.2583 24.6381L30.5842 24.8736L30.9179 25.0495C30.9251 25.0506 31.3187 25.071 31.3187 25.071L31.3269 25.0384L30.8695 24.8245C30.8695 24.8167 30.7057 24.5344 30.7057 24.5344L30.5139 24.2598C30.5067 24.2548 30.277 24.1164 30.277 24.1164C30.2704 24.1137 29.9856 24.074 29.984 24.074C29.984 24.0729 29.9257 24.0216 29.8955 23.9957C29.9213 23.9813 29.9702 23.9505 29.9702 23.9505C29.9702 23.9543 30.2847 23.9907 30.2857 23.9907C30.2857 23.994 30.5644 24.1848 30.5644 24.1848L30.8695 24.4208C30.875 24.4241 31.1598 24.5339 31.1598 24.5339L31.1961 24.5493L31.0729 24.2229C31.0685 24.2168 30.8355 24.0001 30.8355 24.0001L30.4897 23.7051C30.4886 23.7023 30.2192 23.5644 30.2192 23.5644C30.2159 23.5628 29.9284 23.4657 29.9284 23.4657L29.625 23.2705L29.631 23.2319C29.6679 23.2457 30.0504 23.4001 30.0504 23.4001L30.4177 23.4999L30.7228 23.6174L31.1614 23.8319C31.1653 23.8341 31.5314 23.9135 31.5314 23.9135C31.5363 23.9135 31.9788 23.8341 31.9788 23.8341C31.9865 23.8308 32.4087 23.5363 32.4087 23.5363C32.4142 23.5281 32.4922 23.3527 32.4922 23.3527L32.5093 23.3124L32.3719 23.3692L31.9876 23.5644L31.7232 23.6223L31.4225 23.5628H31.4236C31.4236 23.56 31.1812 23.3328 31.1812 23.3328L30.8354 22.9981L30.5248 22.8377C30.5199 22.8365 30.156 22.777 30.156 22.777C30.156 22.7759 29.9345 22.6639 29.9312 22.6612C29.9323 22.6612 29.9323 22.6573 29.9323 22.6507C29.9323 22.6242 29.9268 22.5658 29.9235 22.5377C29.9625 22.5421 30.3814 22.5768 30.3814 22.5768C30.3847 22.5768 30.8827 22.5371 30.8827 22.5371L31.1653 22.5945L31.4517 22.7136L31.7446 22.7533L31.7968 22.761L31.4703 22.4472C31.4676 22.445 31.1421 22.2096 31.1421 22.2096C31.1383 22.2085 30.8695 22.1097 30.8695 22.1097C30.8645 22.1081 30.4154 22.0706 30.4061 22.0706C30.4099 22.0689 30.4105 22.0618 30.4105 22.0502C30.4105 22.0243 30.4061 21.9846 30.4039 21.9641C30.4319 21.9586 30.6155 21.9289 30.6155 21.9289L30.9541 22.0066L31.2757 22.2007C31.2801 22.2018 31.6242 22.3198 31.6242 22.3198C31.633 22.3198 32.1305 22.2421 32.1305 22.2421L32.1608 22.2377L32.0096 22.0369C32.0013 22.0298 31.7523 21.9526 31.7501 21.9526L31.5451 21.7971L31.2378 21.5803C31.2339 21.5781 31.0042 21.5004 31.0042 21.5004C30.9987 21.4987 30.6375 21.4414 30.637 21.4414C30.637 21.437 30.4578 21.2732 30.4545 21.2693C30.4641 21.2423 30.4713 21.2144 30.4759 21.1861L30.6666 21.239L30.9129 21.357L31.2625 21.4673L31.1867 21.3123C31.1812 21.3085 31.0503 21.1707 31.0503 21.1707C31.0503 21.1707 30.9651 21.0609 30.93 21.0163C30.9541 21.0113 30.9827 21.0036 30.9827 21.0036C30.9827 21.008 31.3549 21.1993 31.3549 21.1993C31.3576 21.1993 31.6424 21.2992 31.6451 21.2992L31.8689 21.5092C31.8727 21.5126 32.2954 21.7519 32.2954 21.7519L32.3372 21.7767L32.2608 21.5688C32.2592 21.5644 32.0283 21.2694 32.0283 21.2694L31.837 20.9385C31.8359 20.9341 31.489 20.5817 31.489 20.5817C31.4852 20.5773 31.0449 20.3413 31.0449 20.3413L30.875 20.1488L30.5683 19.8329C30.5683 19.8285 30.5369 19.722 30.5199 19.6663C30.5721 19.6834 30.8195 19.765 30.8195 19.765L31.1652 19.8626L31.411 20.0176L31.616 20.2696C31.6237 20.2746 31.9491 20.4135 31.9491 20.4135C31.9552 20.4146 32.7841 20.5216 32.7841 20.5216L32.8314 20.5277L32.6038 20.2873C32.5972 20.2828 32.1564 20.0854 32.1564 20.0854L31.8914 19.8919C31.8914 19.8875 31.7425 19.62 31.7425 19.62L31.588 19.3454C31.5852 19.341 31.3368 19.1066 31.3368 19.1066C31.3335 19.1033 31.0256 18.9263 31.0256 18.9263L30.7222 18.6726C30.7222 18.671 30.6485 18.5177 30.6012 18.4168C30.6798 18.4918 30.8112 18.6214 30.8112 18.6214L31.2164 18.9754C31.2208 18.9782 31.5286 19.116 31.5286 19.116L31.7908 19.3289L32.0975 19.6421C32.108 19.6482 32.5873 19.7149 32.5873 19.7149L32.6456 19.7237L32.1597 19.3024C32.1597 19.2936 32.0508 18.9561 32.0508 18.9561C32.047 18.9489 31.7963 18.7124 31.7963 18.7124L31.6633 18.5569C31.6633 18.553 31.5324 18.151 31.5324 18.151C31.5286 18.1433 31.2581 17.8698 31.2581 17.8698C31.2581 17.8665 30.8195 17.4573 30.8195 17.4556V17.4534C30.8195 17.4479 30.8041 17.3851 30.7947 17.3443L30.8733 17.3851L31.2757 17.6194C31.2801 17.6227 31.76 17.7606 31.76 17.7606L32.2597 17.8786L32.8374 17.9723L32.7011 17.6955C32.6923 17.6867 32.4048 17.5692 32.4048 17.5692L32.1388 17.4137C32.1349 17.411 31.81 17.2742 31.81 17.2742L31.5236 17.1568C31.5236 17.1535 31.3367 16.913 31.2339 16.7801C31.3334 16.8469 31.4852 16.9516 31.4852 16.9516C31.4934 16.9544 31.7446 16.9748 31.7446 16.9748H32.5318L32.8506 17.1496L33.1222 17.4441L33.1585 17.4832L33.1244 17.1518C33.1211 17.1419 32.949 16.9263 32.949 16.9263C32.9452 16.9224 32.4834 16.6655 32.4834 16.6655C32.4801 16.6655 32.1162 16.527 32.1162 16.527C32.1129 16.527 31.561 16.4283 31.5572 16.4283V16.4278C31.5572 16.4222 31.4516 16.2954 31.4516 16.2954L31.0476 15.9215C31.0448 15.9193 30.8513 15.8206 30.8513 15.8206C30.8513 15.8195 30.7892 15.7556 30.7529 15.717H30.9596L31.2757 15.9111C31.2801 15.9122 31.7017 16.0495 31.7017 16.0495C31.705 16.0501 32.2421 16.1283 32.2421 16.1283C32.2421 16.1338 32.4416 16.3599 32.4416 16.3599C32.446 16.3616 32.7346 16.5386 32.7346 16.5386C32.7418 16.5414 33.0672 16.5982 33.0672 16.5982L33.1128 16.6059L32.4307 15.7661C32.4252 15.7628 32.0986 15.5857 32.0986 15.5857C32.0959 15.5835 31.7138 15.4655 31.7138 15.4655C31.7138 15.4611 31.3752 15.0773 31.3752 15.0773C31.3719 15.0729 30.9481 14.8181 30.9481 14.8181C30.9448 14.8165 30.7002 14.7569 30.6419 14.7437C30.6611 14.7128 30.7238 14.6075 30.7238 14.6058C30.7249 14.6097 31.063 14.4564 31.063 14.4564L31.5572 14.3605C31.5784 14.3185 31.5959 14.2748 31.6094 14.2298C31.5406 14.1724 31.4681 14.1197 31.3922 14.0721C31.3878 14.0704 31.1383 13.9915 31.1383 13.9915C31.087 14.0151 31.0373 14.0418 30.9893 14.0715L30.5748 14.088L30.0795 13.9706L29.5705 13.5416C29.5666 13.5399 29.3363 13.423 29.3363 13.423C29.3297 13.4208 28.4892 13.3226 28.4859 13.3226C28.4859 13.3111 28.2875 13.0161 28.2875 13.0161C28.2864 13.0127 28.0181 12.7194 28.0181 12.7194C28.017 12.7166 27.6729 12.4067 27.6729 12.4067L27.6619 12.4288L27.547 12.6846L27.4332 12.8583V12.8639C27.4332 12.8953 27.4497 13.0662 27.4497 13.0662C27.4552 13.0767 27.5668 13.1925 27.5685 13.1947C27.563 13.1947 27.5256 13.3723 27.5256 13.3739C27.5245 13.3624 27.0644 13.3806 27.0644 13.3806C27.0644 13.3778 26.6867 13.2052 26.6867 13.2052L26.3981 13.1065C26.3915 13.1065 25.7192 13.1258 25.7192 13.1258C25.7061 13.1341 25.5906 13.3105 25.5906 13.3105L25.5763 13.3331L25.8715 13.3761C25.8715 13.3778 25.9144 13.4054 25.9397 13.4208C25.916 13.4407 25.8638 13.4831 25.8638 13.4831C25.8638 13.4793 25.4515 13.46 25.4515 13.46C25.4455 13.4605 25.1574 13.5785 25.1574 13.5785L25.1278 13.5918L25.2707 13.6877C25.2789 13.6916 25.8935 13.7109 25.8935 13.7109C25.8941 13.7114 26.3465 13.8283 26.3492 13.8289C26.3492 13.8355 26.4366 13.9596 26.4366 13.9596C26.4366 13.9596 26.4982 14.0461 26.5207 14.0809C26.4916 14.0974 26.3256 14.1895 26.3256 14.1895C26.3283 14.1884 25.7709 14.425 25.7709 14.425L24.6193 15.0729L23.8596 15.186C23.8552 15.1871 23.5639 15.3509 23.5639 15.3509C23.5573 15.3547 23.3248 15.679 23.3248 15.679C23.3215 15.6817 23.1895 16.0865 23.1895 16.0865C23.1791 16.7725 23.2066 16.7885 23.217 16.7945C23.2715 16.8299 23.3334 16.8523 23.3979 16.8601C23.4624 16.8678 23.5278 16.8607 23.5892 16.8392C23.8253 16.7359 24.0722 16.6589 24.3252 16.6098C24.4198 16.5905 24.4649 16.6247 24.4731 16.66C24.4835 16.6986 24.455 16.751 24.3835 16.7708L24.3445 16.783C24.0092 16.874 23.6678 16.9848 23.6782 17.1144L23.7382 17.2131C23.9786 17.2953 24.239 17.2986 24.4814 17.2225L24.6969 17.1629C24.8809 17.0918 25.0773 17.058 25.2746 17.0637C25.3807 17.0828 25.4829 17.1189 25.5775 17.1706C25.7519 17.2663 25.9448 17.3239 26.1431 17.3394C26.3907 17.3445 26.6356 17.3911 26.8677 17.4772C26.906 17.6149 26.9032 17.7608 26.8594 17.8969L26.8369 18.021C26.7203 19.0841 25.5374 20.2841 24.9684 20.8609C24.8669 20.9532 24.774 21.0545 24.6908 21.1636L24.6254 21.3141C24.6081 21.3882 24.5737 21.4572 24.5249 21.5155C24.4762 21.5738 24.4143 21.6199 24.3445 21.65C24.1223 21.778 23.9111 21.924 23.7129 22.0867C23.4006 22.3655 23.0448 22.5915 22.6596 22.7556C22.1749 22.5299 21.7155 22.2534 21.2892 21.9306C20.2272 20.9 19.7836 21.1117 19.518 21.2369L19.4752 21.2568C19.1591 21.4007 18.8271 22.3012 18.7963 22.4942L18.6682 23.0489L18.5698 23.4564C18.5407 23.5926 18.4098 23.9312 18.2845 24.2588L18.0289 24.9707C17.9664 25.1704 17.8902 25.3655 17.8008 25.5546L17.687 25.8315C17.5956 26.5857 17.6147 27.3492 17.7436 28.0979L17.7507 28.105L17.7777 28.1128C17.914 28.099 18.2108 27.7929 18.3521 27.6451L18.3851 27.6115C18.5203 27.4448 18.6063 27.2437 18.6336 27.0308C18.6215 26.8658 18.5925 26.7025 18.5473 26.5434C18.4124 26.083 18.3833 25.5982 18.4621 25.1251L18.4763 25.0054C18.5222 24.8519 18.6106 24.7146 18.7314 24.6095L18.8859 24.4314C18.9521 24.3455 19.0427 24.2816 19.1459 24.2483L19.2828 24.1705L19.3026 24.1485C19.44 24.0243 19.5464 23.8696 19.6131 23.6969L19.7434 23.1327L19.7709 22.9833C19.7723 22.9709 19.7776 22.9592 19.786 22.9499C19.7943 22.9406 19.8054 22.9342 19.8176 22.9315C19.8488 22.9291 19.88 22.9346 19.9086 22.9474C19.9371 22.9603 19.9619 22.98 19.9809 23.0048L20.9204 24.0983C21.1085 24.2399 21.2732 24.4101 21.4085 24.6029V24.6067L21.4019 24.6078C21.0972 24.579 20.7954 24.5255 20.4993 24.4479C19.5994 24.1838 19.1888 24.2306 18.8716 24.6282C18.5105 25.0826 18.6242 26.4777 18.6974 26.6305C18.7666 26.7695 19.0948 28.4679 19.1107 28.6945C19.1209 28.9424 19.1858 29.185 19.3009 29.4048L19.3246 29.4301C19.5365 29.616 19.6935 29.8563 19.7786 30.1249C19.9784 30.6239 20.3189 31.054 20.7587 31.3629C20.7778 31.3688 20.7981 31.3699 20.8177 31.3662C20.8374 31.3624 20.8558 31.3539 20.8714 31.3414C21.0665 31.2019 21.1545 30.5258 21.166 30.2396C21.1796 29.9784 21.0895 29.7224 20.9153 29.5272L20.8631 29.4544C20.7601 29.3409 20.6229 29.264 20.4723 29.2355C20.4234 29.2217 20.3558 29.2057 20.3558 29.1908C20.3558 29.1847 20.3409 28.6631 20.1755 28.5627C20.0163 28.3331 19.9209 28.0654 19.899 27.7868C19.8752 27.496 19.8126 27.2096 19.7126 26.9354C19.5892 26.665 19.5408 26.3663 19.5724 26.0708C19.5767 26.0259 19.5967 25.9839 19.6289 25.9524C19.6611 25.9208 19.7034 25.9016 19.7483 25.8982C19.7991 25.8883 19.8515 25.8901 19.9015 25.9033C19.9514 25.9166 19.9978 25.9411 20.0369 25.9748C20.4426 26.2915 20.8846 26.5586 21.3535 26.7705C21.6114 26.9057 21.849 27.0765 22.0593 27.2779C22.1842 27.393 22.3199 27.4958 22.4645 27.585C22.7088 27.6444 22.9604 27.6684 23.2115 27.6561C23.3192 27.6536 23.427 27.6601 23.5336 27.6754C23.421 27.7212 23.4221 27.9203 23.4303 27.9837C23.5468 28.8053 26.529 31.0651 26.7582 31.1925C27.237 31.5745 27.6755 32.0042 28.0671 32.4751C28.159 32.5868 28.2132 32.7246 28.2221 32.8689C28.2148 32.962 28.2267 33.0557 28.2572 33.144C28.2876 33.2323 28.3359 33.3134 28.3991 33.3823C28.4539 33.4496 28.5221 33.5049 28.5993 33.5447C28.6765 33.5844 28.7611 33.6078 28.8477 33.6133C28.9813 33.6133 29.0698 33.4953 29.1352 33.4087L29.1478 33.3889C29.4222 33.0744 29.5893 32.6808 29.625 32.2651C29.6596 31.7114 29.9147 31.4903 29.996 31.476C30.034 31.4688 30.0603 31.4798 30.0702 31.5046C30.0796 31.5311 30.0675 31.5719 30.0186 31.6056C29.8847 31.7739 29.7976 31.9746 29.7662 32.1873L29.7371 32.4559C29.7539 32.6893 29.6776 32.9199 29.5249 33.0972C29.0942 33.6788 28.8429 34.3736 28.8021 35.0962C28.832 35.9527 29.0917 36.7854 29.5541 37.507L29.5931 37.5809L29.742 37.8324C29.9058 38.061 30.0375 38.3109 30.1334 38.5752C30.1098 38.7756 30.0185 38.962 29.8745 39.1034C29.4834 39.6003 29.0611 40.0718 28.6102 40.5151C28.5435 40.5089 28.4762 40.5179 28.4134 40.5412C28.3506 40.5646 28.2938 40.6019 28.2474 40.6502L28.0913 40.7688C27.9817 40.8352 27.9006 40.9399 27.8637 41.0627C27.8447 41.132 27.8023 41.1925 27.7439 41.2342L27.6845 41.2756C27.6724 41.285 27.6378 41.3324 27.2684 41.7046C27.0743 41.8733 26.9232 42.0859 26.8277 42.3247C26.7322 42.5635 26.695 42.8216 26.7192 43.0776C26.7379 43.2249 26.8665 43.2767 27.2436 43.2949C27.7514 43.1959 28.2061 42.9161 28.5234 42.5074L28.5365 42.4335C28.5679 42.2549 28.6245 41.9543 28.7229 41.9119C28.9002 41.7828 29.0577 41.6284 29.1902 41.4536L29.2204 41.4239C29.2825 41.3458 29.3226 41.2525 29.3364 41.1537C29.3478 41.0827 29.3736 41.0147 29.4122 40.954C29.4522 40.9098 29.5022 40.8758 29.5579 40.8548C29.6428 40.8203 29.7191 40.7679 29.7818 40.7012C29.8445 40.6345 29.8921 40.555 29.9213 40.4683C30.2481 40.0601 30.6447 39.7132 31.0927 39.4437C31.2544 39.3395 31.4064 39.221 31.5468 39.0897C31.6159 38.9738 31.6492 38.8401 31.6424 38.7053C31.6538 38.5229 31.5935 38.3432 31.4742 38.2046C31.3015 37.9696 31.1728 37.7053 31.0944 37.4243V37.4199C31.0944 37.3582 31.0894 37.2457 31.079 37.0345C31.0781 37.0249 31.0777 37.0154 31.0779 37.0058C31.0779 36.451 31.9013 35.9084 32.2581 35.6735L32.4192 35.5599C33.7082 34.4207 33.9606 33.5538 34.0078 33.3161L34.0348 33.0305C34.043 32.832 34.0486 32.645 34.1678 32.6197C34.2008 32.6197 34.2333 32.6275 34.2627 32.6422C34.2922 32.6569 34.3179 32.6783 34.3377 32.7046C34.3594 32.726 34.3747 32.753 34.3819 32.7826C34.3891 32.8122 34.3879 32.8433 34.3784 32.8722C34.3206 33.0316 34.2992 34.6396 34.2992 34.7068C34.3036 34.7184 34.4388 34.8756 34.4388 34.8756L34.463 34.9048L34.4696 34.8673C34.4713 34.8491 34.546 34.4107 34.546 34.2553C34.6034 33.9272 34.7204 33.6125 34.8912 33.3266C34.8916 33.3294 34.8925 33.332 34.894 33.3344C34.947 33.5387 34.9725 33.7492 34.9699 33.9602C34.9872 34.2048 34.9288 34.4487 34.8027 34.6589C34.6146 34.9263 34.4639 35.2182 34.3547 35.5263L34.2629 35.7397C34.2526 35.7693 34.248 35.8005 34.2492 35.8318C34.2595 36.0807 34.3184 36.3251 34.4224 36.5514C34.4411 36.5696 34.4548 36.5696 34.4658 36.5652C34.4872 36.5569 34.5087 36.5288 34.5087 36.3584C34.5367 35.9254 34.7345 35.521 35.0589 35.2329C35.2682 35.0197 35.4288 34.7637 35.5297 34.4825C35.6306 34.2013 35.6693 33.9016 35.6433 33.604C35.6433 33.3597 35.6229 33.1159 35.5822 32.875C35.58 32.8689 35.3574 32.5452 35.3525 32.5381C35.3629 32.543 35.4245 32.4918 35.4459 32.4752C35.4663 32.5006 35.6839 32.7923 35.6839 32.7923C35.7447 32.8707 35.7895 32.9603 35.8159 33.0559C35.8157 33.3019 35.8451 33.547 35.9033 33.786L35.9115 33.8262C35.995 34.0879 36.0917 34.3452 36.2012 34.5971L36.2265 34.6578L36.2337 34.5916C36.2554 34.4073 36.2554 34.2212 36.2337 34.0369C36.2226 33.8672 36.2342 33.6967 36.2683 33.5301L36.3101 33.0972C36.33 32.8263 36.2696 32.5554 36.1364 32.3186L36.0726 32.2227C36.0519 32.1966 36.0359 32.1671 36.0253 32.1355L36.0726 32.114C36.44 31.9902 36.7783 31.7927 37.0667 31.5335C37.3551 31.2744 37.5875 30.9591 37.7498 30.6069C37.8954 30.208 37.967 29.7859 37.9609 29.3613C37.9693 28.857 37.9178 28.3535 37.8075 27.8614C37.7391 27.5791 37.7287 27.2859 37.7767 26.9995L37.8086 26.4706C37.8336 26.1411 37.9652 25.8287 38.1835 25.5806L38.4017 25.2404C38.4556 25.1496 38.4848 25.0463 38.4863 24.9407C38.4878 24.8352 38.4617 24.7311 38.4105 24.6388L38.4104 24.6387ZM27.9951 37.7403L28.4382 37.952C28.588 38.0228 28.7593 38.0337 28.917 37.9823C29.0791 37.8558 29.2002 37.6841 29.2649 37.4888C29.2776 37.4519 29.281 37.4125 29.2747 37.374C29.2685 37.3356 29.2529 37.2992 29.2292 37.2682C28.9566 36.7453 28.7573 36.1874 28.6371 35.6101C28.6167 35.2324 28.6327 34.8537 28.685 34.4791C28.7172 34.2662 28.7303 34.0508 28.724 33.8356C28.6926 33.7462 28.5607 33.6602 28.4068 33.5626L28.1644 33.3983C28.1121 33.3456 28.0723 33.2819 28.0478 33.2119C28.0232 33.1419 28.0146 33.0673 28.0225 32.9935L27.9972 32.7514C27.6292 32.2068 27.1656 31.7332 26.629 31.3535C26.374 31.3359 26.3074 31.6166 26.2909 31.7848C26.336 32.1005 26.4053 32.4122 26.4982 32.7172L26.6109 33.1898C26.8968 34.113 27.3135 34.9904 27.8483 35.7954L28.0066 36.0655C28.077 36.2238 28.0489 36.3473 27.9269 36.4157C27.3798 36.4408 26.8318 36.39 26.2987 36.2646C26.0523 36.1977 25.8113 36.1127 25.5774 36.0104C25.3477 35.9016 25.1052 35.8221 24.8557 35.7738C24.7392 35.7608 24.6214 35.7817 24.5165 35.8339L24.4055 35.8643L24.2955 35.8295C23.9523 35.6878 23.5864 35.6088 23.2153 35.5963C22.2088 35.502 22.133 35.7055 22.0923 35.8141C22.0417 35.9547 22.659 36.6109 22.7684 36.698C23.0248 36.8694 23.3295 36.9539 23.6375 36.939C23.9335 36.887 24.2323 36.8527 24.5324 36.8364L24.6347 36.8999L24.732 36.9688C25.0037 37.0112 25.2778 37.0366 25.5527 37.0449C25.7489 37.0554 26.2646 37.1623 26.6406 37.2407L27.0622 37.3272C27.385 37.4364 27.6972 37.5746 27.995 37.7403" fill="#0A0A0A"/>
<path d="M27.2706 36.8593L27.2855 36.8367C27.3124 36.7259 26.7583 36.5538 26.4636 36.4772C26.1844 36.3813 25.8881 36.3454 25.594 36.3718L25.5869 36.3746L25.5731 36.3989C25.5462 36.5086 26.0997 36.6806 26.3944 36.7579C26.6747 36.8507 26.9708 36.8862 27.2651 36.8621L27.2706 36.8593ZM24.9294 36.073C24.837 36.073 24.7639 36.1226 24.7639 36.1871C24.7639 36.2483 24.8371 36.3002 24.9294 36.3002C25.0179 36.3002 25.0916 36.2483 25.0916 36.1871C25.0916 36.1243 25.0179 36.073 24.9294 36.073ZM23.0098 35.9384C22.8801 35.9384 22.774 36.0129 22.774 36.1044C22.774 36.1987 22.8801 36.2698 23.0098 36.2698C23.1412 36.2698 23.2462 36.1987 23.2462 36.1044C23.2462 36.0129 23.1412 35.9384 23.0098 35.9384ZM27.5411 42.2474C27.4452 42.263 27.3581 42.3122 27.2954 42.3864C27.221 42.4513 27.1723 42.5407 27.1579 42.6384C27.1571 42.6497 27.1588 42.661 27.1629 42.6716C27.167 42.6822 27.1734 42.6917 27.1816 42.6996L27.2426 42.7238C27.3388 42.7086 27.4263 42.6591 27.4889 42.5843C27.6103 42.4597 27.6582 42.3285 27.6032 42.27L27.5411 42.2474ZM28.4069 40.994C28.3225 41.0113 28.2463 41.0566 28.1908 41.1225C28.099 41.2146 28.0314 41.3425 28.082 41.3954L28.1298 41.4125C28.2151 41.396 28.2921 41.3504 28.3475 41.2835C28.4377 41.1909 28.5069 41.0651 28.4547 41.0127L28.4069 40.994ZM30.382 39.1649L30.3638 39.1599C30.0783 39.3219 29.8236 39.5333 29.6118 39.7841C29.5849 39.8117 28.9275 40.4894 29.0143 40.5765L29.0181 40.5815L29.0396 40.587C29.3247 40.425 29.5792 40.2143 29.7916 39.9644C29.8196 39.9352 30.4798 39.2603 30.3886 39.1698L30.382 39.1649ZM28.3992 36.5378C28.3789 36.5367 28.3587 36.5398 28.3397 36.5468C28.3207 36.5537 28.3033 36.5645 28.2886 36.5785C28.2739 36.5924 28.2621 36.6092 28.2541 36.6278C28.2461 36.6464 28.242 36.6665 28.242 36.6867C28.242 36.707 28.2461 36.727 28.2541 36.7456C28.2621 36.7642 28.2739 36.781 28.2886 36.795C28.3033 36.8089 28.3207 36.8197 28.3397 36.8267C28.3587 36.8337 28.3789 36.8367 28.3992 36.8356C28.4193 36.8366 28.4394 36.8334 28.4583 36.8264C28.4772 36.8193 28.4945 36.8085 28.5091 36.7946C28.5237 36.7806 28.5353 36.7639 28.5432 36.7454C28.5512 36.7268 28.5553 36.7069 28.5553 36.6867C28.5553 36.6665 28.5512 36.6466 28.5432 36.628C28.5353 36.6095 28.5237 36.5928 28.5091 36.5789C28.4945 36.5649 28.4772 36.5541 28.4583 36.5471C28.4394 36.54 28.4193 36.5369 28.3992 36.5378ZM31.1208 38.7077C31.0973 38.7073 31.0739 38.7115 31.052 38.7202C31.0301 38.7289 31.0102 38.7419 30.9934 38.7584C30.9766 38.7749 30.9633 38.7945 30.9542 38.8162C30.9451 38.8379 30.9404 38.8612 30.9404 38.8847C30.9404 38.9083 30.9451 38.9316 30.9542 38.9533C30.9633 38.975 30.9766 38.9946 30.9934 39.0111C31.0102 39.0276 31.0301 39.0406 31.052 39.0492C31.0739 39.0579 31.0973 39.0622 31.1208 39.0617C31.1443 39.0621 31.1676 39.0578 31.1893 39.049C31.2111 39.0403 31.231 39.0273 31.2477 39.0109C31.2644 38.9944 31.2777 38.9748 31.2868 38.9531C31.2958 38.9314 31.3005 38.9082 31.3005 38.8847C31.3005 38.8613 31.2958 38.838 31.2868 38.8164C31.2777 38.7947 31.2644 38.7751 31.2477 38.7586C31.231 38.7421 31.2111 38.7292 31.1893 38.7204C31.1676 38.7117 31.1443 38.7074 31.1208 38.7077ZM29.9647 37.4262L29.973 37.3777C29.9752 37.3484 30.0626 36.6746 29.8559 36.4143C29.8345 36.3862 29.8075 36.3629 29.7767 36.3456C29.7459 36.3283 29.7118 36.3176 29.6767 36.3139C29.6526 36.3093 29.6277 36.3119 29.6051 36.3215C29.5825 36.331 29.5632 36.347 29.5497 36.3674C29.4238 36.572 29.9175 37.3501 29.9395 37.3848L29.9647 37.4262ZM29.243 35.0082C29.249 35.0153 29.2639 35.044 29.2886 35.0418H29.2985L29.3177 35.0142L29.4755 34.529L29.5997 34.2064L29.7053 33.9621C29.7366 33.8805 29.7366 33.8242 29.7053 33.7933C29.6547 33.7465 29.5497 33.7851 29.5376 33.7895C29.5277 33.7972 29.2397 34.2808 29.2397 34.2808C29.1836 34.3792 29.1565 34.4914 29.1616 34.6045C29.1586 34.7434 29.1863 34.8813 29.243 35.0082H29.243ZM20.6098 30.45C20.5761 30.4509 20.5434 30.4618 20.5159 30.4812C20.4883 30.5006 20.4671 30.5277 20.4549 30.5591C20.4426 30.5905 20.4399 30.6248 20.447 30.6577C20.4541 30.6907 20.4708 30.7208 20.4949 30.7443C20.519 30.7678 20.5496 30.7837 20.5827 30.79C20.6158 30.7963 20.65 30.7927 20.6811 30.7797C20.7122 30.7666 20.7387 30.7447 20.7574 30.7167C20.7761 30.6886 20.7861 30.6557 20.7862 30.622C20.7855 30.5759 20.7665 30.5319 20.7334 30.4997C20.7004 30.4674 20.6559 30.4496 20.6098 30.45ZM18.0558 27.1772C18.0173 27.1758 17.9798 27.1898 17.9515 27.2161C17.9233 27.2423 17.9066 27.2787 17.9052 27.3173C17.9077 27.3549 17.9249 27.3901 17.9531 27.4151C17.9812 27.4402 18.0182 27.4532 18.0558 27.4513C18.0937 27.4531 18.1307 27.4402 18.1592 27.4152C18.1876 27.3901 18.2052 27.355 18.2081 27.3173C18.2062 27.2786 18.1892 27.2422 18.1607 27.216C18.1322 27.1898 18.0945 27.1759 18.0558 27.1772ZM19.0948 26.5734L19.0893 26.5695L19.0596 26.5662C18.9563 26.5899 19.0288 27.0416 19.0816 27.2781C19.1139 27.5088 19.1994 27.7289 19.3312 27.9211L19.3372 27.9249L19.3658 27.9282C19.4702 27.9034 19.396 27.4513 19.3422 27.2164C19.3131 26.9851 19.2282 26.7645 19.0948 26.5734ZM19.1833 24.9764C19.2591 24.8739 19.2751 24.7586 19.2179 24.715L19.1509 24.7007C19.0807 24.7183 19.02 24.7624 18.9815 24.8237C18.9051 24.9251 18.8908 25.0409 18.9469 25.0845L19.0123 25.0977C19.0828 25.0808 19.144 25.0374 19.1833 24.9764L19.1833 24.9764ZM18.9876 23.514C19.1279 23.372 19.2263 23.1939 19.2718 22.9995C19.3658 22.7177 19.4169 22.415 19.3246 22.3825L19.2828 22.3858C19.1421 22.5284 19.0434 22.707 18.9975 22.9019C18.9019 23.1848 18.8529 23.487 18.942 23.5184L18.9876 23.514ZM19.8594 21.6027C19.7165 21.6027 19.6016 21.6722 19.6016 21.7571C19.6016 21.8432 19.7165 21.9115 19.8594 21.9115C20.0057 21.9115 20.1205 21.8431 20.1205 21.7571C20.1205 21.6722 20.0057 21.6027 19.8594 21.6027ZM22.5596 23.3601C22.3556 23.5464 22.2069 23.7853 22.1297 24.0505C22.0351 24.2723 21.9765 24.5078 21.956 24.7481C21.956 24.8258 21.9725 24.881 22.011 24.8975L22.0682 24.8931C22.272 24.7064 22.4212 24.4678 22.4997 24.2027C22.5939 23.9806 22.6525 23.745 22.6734 23.5046C22.6734 23.4258 22.6558 23.3717 22.6195 23.3568L22.5596 23.3601ZM21.0864 23.5658L21.1271 23.5482C21.1793 23.4903 21.06 23.3243 20.9149 23.1914C20.8279 23.0929 20.7118 23.0247 20.5834 22.9967L20.5438 23.0138C20.5355 23.0241 20.5312 23.037 20.5317 23.0502C20.5712 23.1779 20.6494 23.2903 20.7554 23.3717C20.8426 23.4696 20.9584 23.5375 21.0864 23.5658H21.0864ZM21.2265 26.0203C20.9675 25.8854 20.6909 25.7872 20.4047 25.7285L20.3915 25.7605L20.9649 26.1951C21.06 26.2723 21.4778 26.532 21.6124 26.4261C21.6209 26.4195 21.6276 26.4109 21.632 26.4011C21.6364 26.3913 21.6384 26.3806 21.6377 26.3699C21.6344 26.2905 21.491 26.1868 21.2265 26.0203ZM27.004 30.7565C26.9908 30.7389 25.5154 29.1359 25.1976 28.7157C24.8722 28.285 24.7167 28.2514 24.5589 28.3402C24.5473 28.347 24.5375 28.3564 24.5302 28.3677C24.523 28.379 24.5185 28.3919 24.5171 28.4052C24.4946 28.5811 24.8623 29.0046 25.1845 29.3145C25.6347 29.7507 26.9672 30.772 26.9798 30.7825L27.004 30.7565ZM33.2454 32.3132L33.2371 32.311L33.2317 32.3132C33.1676 32.346 33.118 32.4014 33.0926 32.4688C33.0876 32.4997 33.0892 32.5314 33.0972 32.5617C33.1053 32.592 33.1196 32.6203 33.1393 32.6447L33.1756 32.7114L33.1899 32.8393L33.213 33.0318C33.2191 33.0514 33.2316 33.0684 33.2483 33.0802C33.2651 33.0921 33.2853 33.0981 33.3059 33.0974C33.3359 33.0941 33.3641 33.0812 33.3863 33.0607C33.4085 33.0401 33.4235 33.013 33.429 32.9832C33.4579 32.8427 33.4705 32.6993 33.4664 32.5559C33.4664 32.3838 33.2536 32.3165 33.2454 32.3132V32.3132ZM29.2226 30.1086C29.2358 30.1201 29.252 30.1277 29.2693 30.1304C29.2866 30.1332 29.3044 30.1309 29.3205 30.124C29.3493 30.1132 29.3745 30.0945 29.3932 30.07C29.4119 30.0455 29.4232 30.0163 29.426 29.9856C29.4504 29.8623 29.5097 29.7486 29.597 29.658C29.6472 29.6007 29.6734 29.5261 29.6702 29.4499C29.6669 29.3737 29.6344 29.3017 29.5794 29.2489L29.4551 29.1998C29.4014 29.205 29.3511 29.229 29.3133 29.2676C29.3084 29.2775 29.1924 29.8659 29.1924 29.8659V29.8649C29.1808 29.8985 29.1698 30.0574 29.2226 30.1086L29.2226 30.1086ZM36.9889 27.6724L36.9543 27.6784C36.9554 27.6845 36.9631 27.9426 36.9631 28.2734C36.9783 28.7484 36.945 29.2236 36.8636 29.6917C36.6939 30.0627 36.4826 30.4131 36.2336 30.7362L35.9428 31.1729C35.9341 31.1882 35.9296 31.2055 35.9296 31.2231C35.93 31.245 35.9357 31.2665 35.9462 31.2857C35.9568 31.3049 35.9718 31.3213 35.9901 31.3334C36.0198 31.3532 36.1253 31.4056 36.2721 31.2286L36.4584 31.0312C36.8239 30.6962 37.0916 30.2684 37.233 29.7932C37.4705 29.0455 36.9933 27.6856 36.9889 27.6724L36.9889 27.6724ZM29.4519 27.2957C29.6838 27.4044 29.7658 27.4424 29.7998 27.454L29.8015 27.4562L29.8037 27.4551C29.8196 27.4601 29.8246 27.4595 29.8284 27.4524L29.813 27.4336L29.818 27.4264L29.8037 27.4182C29.2547 26.7 28.825 25.898 28.5311 25.0431C28.5223 24.9175 28.465 24.8002 28.3711 24.7162C28.3405 24.7005 28.3068 24.692 28.2725 24.6911C28.2381 24.6902 28.204 24.6971 28.1727 24.7112C28.1627 24.7141 28.1537 24.7196 28.1465 24.7272C28.1394 24.7348 28.1344 24.7441 28.132 24.7542C28.1235 24.7782 28.1201 24.8038 28.1221 24.8292C28.198 25.2944 28.3453 25.745 28.5586 26.1653C29.1501 27.1298 29.4409 27.2902 29.4519 27.2958V27.2957ZM27.2492 23.7341C27.2731 23.7167 27.2917 23.6929 27.3028 23.6656C27.314 23.6382 27.3173 23.6083 27.3124 23.5791C27.297 23.2879 27.2178 23.2549 27.0579 23.2549C26.99 23.2583 26.9254 23.2849 26.8747 23.3301C26.824 23.3753 26.7903 23.4365 26.7792 23.5036C26.7792 23.583 26.8369 23.6519 26.9496 23.7098C26.9944 23.7363 27.0447 23.7523 27.0966 23.7565C27.1485 23.7607 27.2007 23.7531 27.2492 23.7341ZM24.6051 22.3858L24.7997 22.3505C25.0464 22.2902 25.2985 22.2549 25.5522 22.2452C25.782 22.2529 26.0088 22.2989 26.2234 22.3814C26.39 22.4376 26.4724 22.4619 26.5059 22.426C26.5252 22.4034 26.5125 22.3709 26.5021 22.3472C26.4515 22.2386 26.2311 21.8818 25.5137 21.8647C25.3358 21.8645 25.1602 21.9041 24.9996 21.9806C24.8391 22.0572 24.6977 22.1687 24.5858 22.3069C24.5693 22.334 24.5644 22.3544 24.5726 22.3692L24.5803 22.3803L24.6051 22.3858ZM28.7884 22.6406C28.8659 22.6406 28.9307 22.5931 28.9307 22.533C28.9307 22.4746 28.8659 22.426 28.7884 22.426C28.7098 22.426 28.646 22.4746 28.646 22.533C28.646 22.5931 28.7098 22.6406 28.7884 22.6406ZM28.9318 22.3472C29.0132 22.3472 29.0797 22.2998 29.0797 22.2402C29.0797 22.1807 29.0143 22.1338 28.9318 22.1338C28.8477 22.1338 28.7823 22.1807 28.7823 22.2402C28.7823 22.2998 28.8499 22.3472 28.9318 22.3472ZM29.0808 22.0411C29.0999 22.0459 29.1199 22.0462 29.1392 22.0421C29.1584 22.038 29.1765 22.0295 29.192 22.0174C29.2076 22.0052 29.2201 21.9897 29.2287 21.972C29.2374 21.9543 29.2419 21.9348 29.2419 21.9151C29.2419 21.8954 29.2374 21.876 29.2287 21.8583C29.2201 21.8406 29.2076 21.825 29.192 21.8129C29.1765 21.8008 29.1584 21.7923 29.1392 21.7882C29.1199 21.7841 29.0999 21.7844 29.0808 21.7891C29.0618 21.7845 29.0419 21.7843 29.0228 21.7885C29.0036 21.7927 28.9856 21.8012 28.9702 21.8133C28.9548 21.8254 28.9424 21.8409 28.9338 21.8586C28.9253 21.8762 28.9208 21.8955 28.9208 21.9151C28.9208 21.9347 28.9253 21.9541 28.9338 21.9717C28.9424 21.9894 28.9548 22.0048 28.9702 22.017C28.9856 22.0291 29.0036 22.0376 29.0228 22.0418C29.0419 22.0459 29.0618 22.0457 29.0808 22.0411ZM29.2122 21.3419C29.1839 21.3438 29.1568 21.3538 29.1341 21.3708C29.1115 21.3878 29.0943 21.4111 29.0846 21.4378C29.075 21.4644 29.0734 21.4933 29.0799 21.5209C29.0865 21.5484 29.1009 21.5735 29.1215 21.593C29.1421 21.6125 29.1679 21.6255 29.1958 21.6305C29.2237 21.6355 29.2524 21.6323 29.2785 21.6212C29.3046 21.6102 29.3269 21.5917 29.3426 21.5681C29.3584 21.5446 29.3669 21.5169 29.3672 21.4886C29.3661 21.4486 29.3491 21.4107 29.32 21.3832C29.291 21.3557 29.2522 21.3409 29.2122 21.3419ZM29.4909 21.0662C29.4886 21.0257 29.4704 20.9876 29.4403 20.9605C29.4101 20.9333 29.3704 20.9192 29.3298 20.9212C29.3094 20.9189 29.2887 20.9209 29.2692 20.9272C29.2496 20.9334 29.2316 20.9437 29.2163 20.9574C29.201 20.9711 29.1887 20.9879 29.1804 21.0066C29.172 21.0254 29.1676 21.0457 29.1676 21.0662C29.1676 21.0867 29.172 21.107 29.1804 21.1258C29.1887 21.1445 29.201 21.1613 29.2163 21.175C29.2316 21.1887 29.2496 21.199 29.2692 21.2052C29.2887 21.2115 29.3094 21.2135 29.3298 21.2112C29.3499 21.2123 29.37 21.2094 29.389 21.2027C29.408 21.196 29.4255 21.1856 29.4405 21.1722C29.4554 21.1587 29.4676 21.1424 29.4762 21.1242C29.4849 21.106 29.4899 21.0863 29.4909 21.0662ZM29.6525 20.6019C29.6442 20.5555 29.6198 20.5135 29.5836 20.4832C29.5474 20.453 29.5017 20.4364 29.4546 20.4364C29.4074 20.4364 29.3618 20.453 29.3256 20.4832C29.2894 20.5135 29.265 20.5555 29.2567 20.6019C29.2654 20.648 29.29 20.6895 29.3261 20.7194C29.3623 20.7494 29.4077 20.7657 29.4546 20.7657C29.5015 20.7657 29.5469 20.7494 29.583 20.7194C29.6192 20.6895 29.6437 20.648 29.6525 20.6019ZM29.7393 20.1227C29.7487 20.084 29.7458 20.0434 29.731 20.0065C29.7162 19.9696 29.6903 19.9382 29.6568 19.9167C29.6233 19.8952 29.584 19.8847 29.5442 19.8867C29.5045 19.8886 29.4664 19.9029 29.4351 19.9275C29.4039 19.9522 29.3811 19.9859 29.37 20.0241C29.3589 20.0623 29.3599 20.103 29.373 20.1406C29.3861 20.1781 29.4106 20.2107 29.443 20.2337C29.4755 20.2566 29.5143 20.2689 29.5541 20.2688C29.5978 20.2729 29.6414 20.2599 29.6759 20.2327C29.7104 20.2055 29.7331 20.1662 29.7393 20.1227ZM29.9021 19.7411C29.9021 19.6578 29.7905 19.595 29.647 19.595C29.5063 19.595 29.393 19.6578 29.393 19.7411C29.393 19.8222 29.5063 19.8872 29.647 19.8872C29.7905 19.8872 29.9021 19.8222 29.9021 19.7411ZM29.5184 19.2884C29.5184 19.3645 29.6118 19.4268 29.7355 19.4268C29.857 19.4268 29.9504 19.3645 29.9504 19.2884C29.9504 19.2101 29.857 19.1494 29.7355 19.1494C29.6118 19.1494 29.5184 19.2101 29.5184 19.2884ZM29.5277 19.038C29.5879 19.0748 29.6599 19.0872 29.7289 19.0728C29.8542 19.0551 29.9427 18.9862 29.9323 18.9145L29.8955 18.856C29.8356 18.8189 29.7637 18.8063 29.6948 18.8208C29.5706 18.8373 29.4804 18.9079 29.4909 18.9796L29.5277 19.038ZM29.736 18.63C29.8482 18.6206 29.9306 18.5588 29.9235 18.4877L29.8872 18.4226C29.8369 18.3876 29.7754 18.3727 29.7146 18.3807C29.6058 18.3895 29.5261 18.4485 29.5261 18.5164V18.5241L29.5629 18.5864C29.5874 18.6048 29.6154 18.6181 29.6451 18.6256C29.6748 18.6331 29.7057 18.6346 29.736 18.63V18.63ZM29.7971 17.9247C29.6976 17.9247 29.6173 17.9831 29.6173 18.0576C29.6173 18.1309 29.6976 18.1899 29.7971 18.1899C29.8955 18.1899 29.9752 18.1309 29.9752 18.0576C29.9752 17.9831 29.8954 17.9247 29.7971 17.9247ZM29.7905 17.5039C29.7668 17.5096 29.7453 17.5219 29.7282 17.5392C29.7112 17.5566 29.6994 17.5784 29.6942 17.6022C29.689 17.6259 29.6906 17.6507 29.6988 17.6736C29.707 17.6965 29.7214 17.7166 29.7405 17.7317C29.7596 17.7467 29.7826 17.7561 29.8067 17.7588C29.8309 17.7614 29.8553 17.7572 29.8772 17.7466C29.8991 17.736 29.9176 17.7195 29.9305 17.6989C29.9435 17.6783 29.9504 17.6545 29.9504 17.6302C29.9459 17.5923 29.9265 17.5577 29.8965 17.534C29.8666 17.5104 29.8284 17.4995 29.7905 17.5039ZM29.7971 17.1709C29.7757 17.1757 29.7561 17.1865 29.7406 17.202C29.7251 17.2175 29.7143 17.237 29.7094 17.2584C29.7045 17.2797 29.7057 17.302 29.7129 17.3227C29.7201 17.3434 29.733 17.3617 29.7501 17.3754C29.7671 17.3891 29.7878 17.3977 29.8095 17.4002C29.8313 17.4027 29.8533 17.3991 29.8731 17.3896C29.8929 17.3802 29.9096 17.3654 29.9213 17.3469C29.9331 17.3284 29.9393 17.3069 29.9394 17.285C29.9352 17.2512 29.9179 17.2204 29.8914 17.1991C29.8648 17.1778 29.831 17.1677 29.7971 17.1709ZM29.6811 16.9056C29.6814 16.9218 29.6849 16.9377 29.6913 16.9525C29.6978 16.9674 29.7071 16.9807 29.7187 16.992C29.7304 17.0032 29.7441 17.012 29.7591 17.0179C29.7742 17.0238 29.7903 17.0267 29.8064 17.0264C29.8223 17.0266 29.8381 17.0236 29.8529 17.0177C29.8676 17.0117 29.881 17.0029 29.8924 16.9917C29.9037 16.9805 29.9127 16.9672 29.9188 16.9525C29.9249 16.9378 29.9281 16.9221 29.9281 16.9062C29.9281 16.8903 29.9249 16.8745 29.9188 16.8598C29.9127 16.8452 29.9037 16.8318 29.8924 16.8207C29.881 16.8095 29.8676 16.8006 29.8529 16.7947C29.8381 16.7887 29.8223 16.7858 29.8064 16.786C29.7739 16.7853 29.7425 16.7975 29.7191 16.8199C29.6956 16.8424 29.6819 16.8732 29.6811 16.9056ZM29.741 16.4071C29.7176 16.408 29.6949 16.4157 29.6758 16.4293C29.6568 16.4429 29.6421 16.4618 29.6337 16.4837C29.6253 16.5055 29.6235 16.5294 29.6286 16.5523C29.6336 16.5752 29.6453 16.5961 29.6622 16.6124C29.679 16.6287 29.7003 16.6396 29.7233 16.6439C29.7463 16.6482 29.7701 16.6457 29.7917 16.6366C29.8133 16.6274 29.8317 16.6122 29.8447 16.5926C29.8577 16.5731 29.8646 16.5502 29.8647 16.5268C29.8645 16.5108 29.8612 16.4949 29.8549 16.4802C29.8486 16.4655 29.8394 16.4522 29.8279 16.441C29.8164 16.4299 29.8028 16.4212 29.7879 16.4153C29.7729 16.4095 29.757 16.4067 29.741 16.4071ZM27.6235 18.4441L27.5641 18.4375C27.4075 18.4783 27.1398 18.9421 26.9523 19.2856L26.9182 19.3446L26.3548 20.4045L26.1794 20.742C26.1694 20.7584 26.1656 20.7779 26.1685 20.797C26.1714 20.816 26.1809 20.8334 26.1954 20.8462C26.2129 20.8635 26.2361 20.8737 26.2607 20.8748C26.2853 20.8759 26.3094 20.8679 26.3284 20.8523C26.5592 20.6596 26.7596 20.4332 26.9226 20.1806L27.1348 19.8889C27.2908 19.7038 27.4192 19.4971 27.5158 19.2751L27.5477 19.1941C27.7631 18.6355 27.7967 18.55 27.6235 18.4441ZM28.3486 16.9674C28.3376 16.9473 28.3196 16.9319 28.2979 16.9244C28.2763 16.9169 28.2526 16.9176 28.2315 16.9266L28.1304 17.0016C28.0623 17.0674 27.9825 17.1197 27.8951 17.156C27.7087 17.2051 27.4564 17.2889 27.441 17.4179V17.4339C27.4403 17.4469 27.4426 17.4598 27.448 17.4716C27.4534 17.4835 27.4615 17.4938 27.4718 17.5017C27.5422 17.5591 27.7137 17.5254 27.8379 17.4786C28.0092 17.4145 28.1648 17.3145 28.2942 17.1852C28.386 17.1014 28.3816 17.0176 28.3486 16.9674ZM27.4163 17.0391C27.414 17.0589 27.4175 17.0789 27.4265 17.0966C27.4355 17.1144 27.4496 17.1291 27.4669 17.1389C27.4965 17.1499 27.5291 17.15 27.5588 17.1392C27.5885 17.1284 27.6134 17.1074 27.629 17.0799L27.7725 16.9553C27.8629 16.8956 27.944 16.823 28.0133 16.7397C28.0842 16.647 28.054 16.5902 28.0281 16.5665C28.0042 16.544 27.9741 16.5292 27.9417 16.5238C27.9094 16.5184 27.8761 16.5227 27.8462 16.5362L27.8049 16.5638C27.6455 16.6503 27.5163 16.7834 27.4344 16.9454C27.4234 16.9754 27.4173 17.0071 27.4163 17.0391V17.0391ZM26.6885 16.6508L26.4873 16.7931L26.4724 16.8091C26.4585 16.8181 26.4486 16.8321 26.4447 16.8482C26.4408 16.8643 26.4433 16.8813 26.4515 16.8957L26.4757 16.9304L26.5291 16.9188L26.606 16.8918L26.7182 16.8719C26.8199 16.8711 26.9191 16.8409 27.004 16.7848L27.0782 16.6624L27.1882 16.4848C27.242 16.4269 27.2437 16.3856 27.236 16.3635C27.2323 16.3526 27.2255 16.343 27.2166 16.3358C27.2076 16.3286 27.1968 16.3241 27.1854 16.3227C27.1673 16.3192 27.1485 16.3208 27.1313 16.3273C27.114 16.3339 27.0989 16.3451 27.0876 16.3597C26.9601 16.4641 26.8269 16.5613 26.6885 16.6508L26.6885 16.6508ZM24.8453 16.6359C24.8792 16.6355 24.9115 16.6217 24.9352 16.5975C24.9589 16.5734 24.9721 16.5407 24.9717 16.5069C24.9711 16.4821 24.9632 16.4581 24.9491 16.4378C24.9349 16.4176 24.915 16.4019 24.892 16.3928C24.869 16.3838 24.8438 16.3817 24.8196 16.3868C24.7954 16.392 24.7732 16.4042 24.7559 16.4219C24.7386 16.4395 24.7269 16.4619 24.7222 16.4862C24.7175 16.5105 24.7201 16.5357 24.7297 16.5585C24.7392 16.5814 24.7552 16.6009 24.7758 16.6146C24.7964 16.6284 24.8206 16.6358 24.8453 16.6359ZM24.2731 15.8032C24.2439 15.8308 24.2566 15.8898 24.2648 15.9372L24.2698 15.9703L24.2648 15.9902C24.2598 15.9989 24.2572 16.0088 24.2572 16.0189C24.2572 16.0289 24.2598 16.0388 24.2648 16.0475C24.2753 16.0652 24.3055 16.0735 24.3555 16.0735C24.4176 16.0746 24.4248 16.0674 24.4468 16.0112L24.4633 15.9681C24.4703 15.9524 24.474 15.9353 24.4741 15.9181C24.4743 15.9008 24.471 15.8837 24.4644 15.8678C24.4476 15.8462 24.4266 15.8283 24.4027 15.8151C24.3788 15.8019 24.3525 15.7937 24.3253 15.7911C24.3163 15.7883 24.3067 15.7879 24.2975 15.7901C24.2883 15.7922 24.2799 15.7968 24.2731 15.8033L24.2731 15.8032ZM23.7888 15.7476C23.7532 15.7474 23.7183 15.7566 23.6873 15.7741C23.6564 15.7916 23.6305 15.8168 23.6123 15.8474L23.5689 15.8975C23.5319 15.945 23.5051 15.9995 23.4899 16.0577C23.4748 16.116 23.4718 16.1767 23.4809 16.2361C23.4837 16.2847 23.4985 16.3734 23.5469 16.4032C23.6393 16.4595 23.6827 16.4198 23.7778 16.3293C23.7838 16.3233 23.8509 16.267 23.8509 16.267C23.9593 16.1978 24.0363 16.089 24.0653 15.9637C24.0692 15.9389 24.0677 15.9136 24.0607 15.8895C24.0538 15.8654 24.0416 15.8431 24.0251 15.8242C23.9928 15.7963 23.9553 15.7752 23.9147 15.762C23.8741 15.7488 23.8313 15.7439 23.7888 15.7476L23.7888 15.7476ZM25.0993 15.425L25.1389 15.4128L25.461 15.2866L25.9293 14.9789C25.942 14.9695 26.064 14.8757 26.0387 14.8173C26.0222 14.7781 25.9607 14.7842 25.9161 14.7925C25.7803 14.8266 25.6494 14.8777 25.5264 14.9447L25.3362 15.034L25.2532 15.0687C24.9635 15.1884 24.7277 15.2959 24.7711 15.4068C24.7975 15.4718 24.9201 15.479 25.0993 15.425V15.425ZM26.9699 15.586C26.9927 15.5847 27.0149 15.5786 27.0351 15.5681C27.0553 15.5575 27.073 15.5427 27.087 15.5248C27.1236 15.4628 27.1433 15.3922 27.1441 15.3202C27.1449 15.2482 27.1267 15.1773 27.0914 15.1145C27.0646 15.0529 27.0221 14.9993 26.968 14.9594C26.914 14.9194 26.8504 14.8943 26.7836 14.8868L26.7842 14.8879L26.7583 14.8835L26.5346 14.9028C26.4797 14.9132 26.428 14.9367 26.3841 14.9713C26.3401 15.0058 26.305 15.0504 26.2817 15.1013C26.274 15.1203 26.2721 15.1412 26.2762 15.1613C26.2803 15.1814 26.2903 15.1999 26.3048 15.2143C26.4757 15.4129 26.7113 15.5446 26.97 15.586L26.9699 15.586ZM29.4261 15.3869C29.4415 15.339 29.4558 15.2943 29.4321 15.2695C29.4107 15.2485 29.3733 15.2502 29.3079 15.2739C29.2172 15.3201 29.1415 15.3911 29.0896 15.4787C29.0378 15.5663 29.0118 15.6668 29.0149 15.7685L29.0078 15.8215C28.9929 15.8981 29.0325 15.9262 29.0567 15.934C29.1047 15.9409 29.1536 15.9353 29.1988 15.9177C29.244 15.9001 29.2838 15.8711 29.3145 15.8336C29.3508 15.7735 29.5503 15.7194 29.6976 15.6786L29.7537 15.6637C29.8202 15.6438 29.856 15.6196 29.8615 15.5832C29.8675 15.5374 29.8169 15.495 29.7702 15.469C29.729 15.4431 29.6674 15.4602 29.6009 15.4801C29.5447 15.5039 29.4824 15.5097 29.4228 15.4966C29.398 15.4856 29.4074 15.4437 29.4261 15.3869V15.3869ZM29.1424 14.2779C29.1233 14.2892 29.1082 14.3063 29.0995 14.3267C29.0908 14.3472 29.0889 14.3699 29.0941 14.3915L29.1029 14.4263C29.1139 14.4676 29.1182 14.4753 29.1551 14.4803L29.2227 14.4919C29.2708 14.5012 29.3207 14.4967 29.3664 14.4787C29.412 14.4607 29.4516 14.4301 29.4805 14.3904C29.4909 14.3678 29.4992 14.3237 29.4393 14.2823C29.3955 14.2529 29.3442 14.2368 29.2915 14.236C29.2388 14.2352 29.187 14.2498 29.1424 14.2779L29.1424 14.2779ZM29.0341 13.9608L29.1254 14.0083C29.1324 14.024 29.143 14.0379 29.1562 14.0489C29.1694 14.0599 29.185 14.0677 29.2018 14.0717C29.2208 14.0758 29.2405 14.0756 29.2594 14.0709C29.2782 14.0662 29.2958 14.0572 29.3106 14.0447C29.3343 14.0265 29.3398 13.9917 29.3255 13.9454C29.3124 13.9047 29.2881 13.8685 29.2553 13.8411C29.2225 13.8137 29.1826 13.7961 29.1402 13.7905C29.0325 13.7905 28.9352 13.802 28.9352 13.8831C28.9352 13.9272 28.9863 13.9438 29.0341 13.9609V13.9608ZM27.1602 14.7367C27.2258 14.7546 27.2958 14.7467 27.3559 14.7147C27.4647 14.665 27.5279 14.5763 27.5021 14.5145L27.4504 14.4687C27.3858 14.4514 27.317 14.4593 27.258 14.4908C27.164 14.5321 27.1046 14.6005 27.1046 14.6606C27.1041 14.6712 27.1066 14.6817 27.1118 14.6909L27.1602 14.7367Z" fill="white"/>
</svg>
