<svg  viewBox="0 0 128 72" fill="#3D4143" xmlns="http://www.w3.org/2000/svg">
<path d="M49.8024 68.6243C49.0163 68.5168 48.1021 68.049 47.7142 67.5559C47.5515 67.349 47.284 66.7334 47.1198 66.1879C46.4466 63.9518 44.8671 62.4233 42.7026 61.9134C42.0985 61.7711 41.4309 61.7832 38.9251 61.982C30.7915 62.6273 22.3635 62.054 15.0511 60.3582C12.121 59.6787 8.20073 58.6067 7.59522 58.3194C6.82176 57.9523 6.06239 57.0038 5.88688 56.1854C5.53883 54.5625 5.65796 54.262 7.97657 50.915C8.90783 49.5707 9.64923 48.4194 9.62413 48.3566C9.57966 48.2453 7.08784 45.9092 3.13607 42.2738C0.870646 40.1898 0.643427 39.9058 0.263518 38.6831C-0.117173 37.458 -0.098919 36.7546 0.406938 33.1567C1.31571 26.6931 1.36766 26.4842 2.96343 22.8752C4.78725 18.7505 5.31316 17.2843 5.82426 14.8994C6.09627 13.6301 6.40283 12.4291 6.50552 12.2306C6.74811 11.7615 7.73956 10.8686 8.22169 10.685C8.42927 10.606 9.35463 10.4913 10.278 10.4301C12.5078 10.2823 13.6182 9.83513 15.1117 8.48354C17.2726 6.52795 19.102 5.34187 20.9218 4.71646C22.8339 4.05933 23.6765 3.94058 25.8417 4.02298C29.6568 4.16816 31.4555 4.94381 37.0706 8.86509C41.1508 11.7145 42.801 13.27 44.3887 15.7635C45.7258 17.8633 46.6126 19.5988 47.7715 22.3837C49.056 25.4704 49.6257 26.657 50.6604 28.4012C52.3735 31.2887 54.7657 33.7388 57.4767 35.3828C59.8449 36.8188 60.7503 37.2045 63.3036 37.8654C64.8801 38.2734 65.1446 38.3008 67.6408 38.3137C69.3155 38.3224 71.205 38.2335 72.7475 38.0734C74.0941 37.9337 76.0311 37.7392 77.052 37.6413C78.4068 37.5113 78.9784 37.3995 79.1686 37.2274C79.3118 37.0978 80.1765 35.9451 81.09 34.6659C82.0432 33.3312 82.9808 32.1733 83.2903 31.9485C84.2497 31.2519 85.1726 31.0068 87.6831 30.7817C88.9718 30.6662 90.2466 30.5392 90.5159 30.4996C91.6095 30.3384 100.418 29.589 101.218 29.589C103.283 29.589 106.218 30.3591 109.007 31.6327C111.825 32.9194 123.579 39.1803 125.143 40.2284C126.461 41.1108 127.509 42.0734 127.785 42.6543C128.106 43.3321 128.066 44.2271 127.676 45.0648C127.242 45.9965 125.791 48.5103 124.818 50.0158C124.396 50.6699 123.389 52.4957 122.582 54.0731C120.868 57.4213 120.725 57.6481 119.902 58.3357C118.803 59.2546 117.472 59.8301 116.268 59.9073C115.298 59.9695 114.888 59.8928 111.362 58.9911C107.04 57.8856 104.67 57.3611 104.548 57.483C104.503 57.5282 104.546 58.621 104.644 59.9115C104.899 63.2818 104.674 64.0781 102.954 65.8967C101.651 67.2748 100.806 67.4554 95.1329 67.5686C90.4285 67.6625 82.3425 67.865 75.4057 68.0628C72.674 68.1407 66.4096 68.2978 61.4848 68.4119C56.56 68.526 52.0584 68.6399 51.4813 68.6649C50.9041 68.69 50.1486 68.6717 49.8024 68.6243ZM60.0857 64.8445C63.0867 64.7736 69.4456 64.6187 74.2165 64.5004C78.9874 64.3822 86.6853 64.1922 91.323 64.0784C100.27 63.8587 100.166 63.8687 100.8 63.1656C101.048 62.8897 101.078 62.6681 101.067 61.1576C101.06 60.2237 100.976 58.6972 100.879 57.7653C100.713 56.1587 100.718 56.0427 100.982 55.5267C101.383 54.743 102.379 53.812 102.994 53.6465C103.437 53.5272 104.024 53.6146 106.776 54.2086C108.567 54.5955 111.135 55.2018 112.482 55.556C116.302 56.5607 116.449 56.5646 117.471 55.6902C117.907 55.3174 118.317 54.6609 119.2 52.9234C120.352 50.6577 120.902 49.6734 122.997 46.1335C123.6 45.114 124.094 44.1686 124.094 44.0327C124.094 43.6821 122.567 42.7666 117.099 39.838C106.787 34.3159 105.674 33.817 102.525 33.304C101.014 33.058 98.0672 33.2704 86.5405 34.4563L85.573 34.5558L83.8527 36.9343C82.9065 38.2424 81.8623 39.5569 81.5323 39.8554C80.4874 40.8002 80.096 40.8983 75.1959 41.443C67.1774 42.3343 63.887 42.1225 59.5261 40.4343C55.842 39.0082 51.5998 35.8797 49.468 33.0168C47.6024 30.5114 46.4599 28.4064 44.6458 24.1326C43.1909 20.7049 42.9731 20.2592 41.7402 18.1854C40.2721 15.7162 38.7292 14.2969 34.0525 11.1136C31.0955 9.10092 30.1858 8.5789 28.834 8.11911C27.2691 7.58684 25.8347 7.42443 24.2986 7.60559C21.9457 7.88308 20.4777 8.57727 18.3333 10.4265C15.4666 12.8985 13.5057 13.843 10.8751 14.0186L9.65341 14.1002L9.57166 14.6043C9.18121 17.0121 8.25241 19.7088 6.28995 24.1326C4.87444 27.3234 4.67296 28.0435 4.25426 31.4079C4.13456 32.3697 3.91418 33.9944 3.76453 35.0182C3.40537 37.4753 3.41146 37.6408 3.87719 38.0798C4.0888 38.2793 6.19092 40.2275 8.54856 42.4093C13.2587 46.7681 13.2861 46.8026 13.2861 48.3888C13.2861 49.4873 13.1176 49.8202 11.1077 52.6945C10.2816 53.8759 9.59958 54.9327 9.5921 55.0428C9.57618 55.2771 9.87061 55.3726 13.4959 56.3091C16.3531 57.0473 18.2332 57.4403 20.5613 57.786C26.3352 58.6434 32.0505 58.8734 37.8364 58.4811C41.9041 58.2052 43.0026 58.2489 44.469 58.7451C47.0985 59.6347 49.6707 62.1611 50.375 64.5459L50.5549 65.1551L52.5921 65.0643C53.7125 65.0144 57.0846 64.9155 60.0857 64.8445Z" />
<path d="M73.474 60.418L73.4765 61.8854L73.479 63.3529L68.7863 62.6909L64.0935 62.029L68.7838 61.2235L73.474 60.418Z" />
</svg>
