<svg width="128" height="72" viewBox="0 0 128 72" fill="none" xmlns="http://www.w3.org/2000/svg">
<path d="M48.7507 62.6073C48.0365 62.5096 47.2059 62.0846 46.8534 61.6366C46.7056 61.4486 46.4626 60.8893 46.3134 60.3936C45.7018 58.3619 44.2666 56.9731 42.3 56.5099C41.7511 56.3806 41.1445 56.3916 38.8678 56.5722C31.4777 57.1585 23.8201 56.6376 17.176 55.0968C14.5138 54.4794 10.9518 53.5054 10.4017 53.2443C9.69893 52.9108 9.00897 52.049 8.8495 51.3054C8.53327 49.8309 8.64151 49.5579 10.7482 46.5168C11.5943 45.2954 12.2679 44.2493 12.2451 44.1922C12.2047 44.0911 9.94068 41.9685 6.35014 38.6655C4.29179 36.772 4.08535 36.5139 3.74016 35.403C3.39427 34.2899 3.41086 33.6508 3.87047 30.3818C4.69617 24.509 4.74337 24.3192 6.19328 21.0401C7.85039 17.2924 8.32823 15.9602 8.79261 13.7933C9.03975 12.64 9.3183 11.5489 9.4116 11.3684C9.63201 10.9422 10.5328 10.1309 10.9709 9.96417C11.1595 9.89237 12.0003 9.78812 12.8393 9.73252C14.8652 9.59826 15.8741 9.19195 17.2311 7.9639C19.1945 6.18707 20.8566 5.10941 22.5101 4.54117C24.2475 3.94411 25.013 3.83621 26.9803 3.91108C30.4467 4.04299 32.081 4.74774 37.1828 8.31058C40.89 10.8995 42.3893 12.3128 43.832 14.5784C45.0468 16.4862 45.8526 18.0632 46.9055 20.5935C48.0726 23.398 48.5902 24.4762 49.5304 26.0609C51.0869 28.6845 53.2604 30.9107 55.7236 32.4043C57.8753 33.7091 58.6979 34.0595 61.0179 34.66C62.4503 35.0308 62.6906 35.0556 64.9586 35.0674C66.4802 35.0752 68.197 34.9945 69.5985 34.849C70.822 34.7221 72.582 34.5454 73.5095 34.4564C74.7405 34.3383 75.2599 34.2367 75.4326 34.0804C75.5628 33.9626 76.3484 32.9152 77.1784 31.753C78.0445 30.5402 78.8964 29.4882 79.1776 29.284C80.0493 28.6511 80.8878 28.4283 83.1689 28.2239C84.3398 28.1189 85.498 28.0035 85.7427 27.9675C86.7364 27.8211 94.7397 27.1402 95.4667 27.1402C97.3428 27.1402 100.01 27.8399 102.544 28.9971C105.104 30.1662 115.783 35.8548 117.205 36.807C118.402 37.6088 119.354 38.4834 119.605 39.0112C119.897 39.627 119.86 40.4402 119.506 41.2014C119.112 42.0479 117.794 44.3319 116.91 45.6998C116.526 46.2941 115.611 47.953 114.878 49.3863C113.32 52.4284 113.191 52.6345 112.443 53.2591C111.444 54.0941 110.234 54.617 109.141 54.6871C108.26 54.7436 107.887 54.674 104.684 53.8547C100.756 52.8502 98.603 52.3737 98.4922 52.4844C98.4512 52.5255 98.4903 53.5184 98.5791 54.6909C98.8111 57.7532 98.6069 58.4767 97.0442 60.129C95.86 61.3811 95.0922 61.5453 89.9377 61.6481C85.6633 61.7334 78.3165 61.9174 72.0138 62.0971C69.5317 62.1679 63.8399 62.3106 59.3653 62.4143C54.8907 62.518 50.8006 62.6215 50.2762 62.6442C49.7518 62.667 49.0654 62.6504 48.7507 62.6073ZM58.0941 59.173C60.8208 59.1086 66.5984 58.9679 70.9332 58.8604C75.268 58.7529 82.2623 58.5804 86.476 58.4769C94.6053 58.2773 94.5106 58.2864 95.0864 57.6476C95.3123 57.3969 95.3391 57.1956 95.3293 55.8231C95.3232 54.9746 95.2465 53.5876 95.1588 52.7409C95.0076 51.2811 95.0124 51.1757 95.2521 50.7069C95.6162 49.9949 96.5212 49.149 97.0799 48.9986C97.4823 48.8902 98.0165 48.9696 100.516 49.5094C102.144 49.8609 104.477 50.4118 105.701 50.7335C109.171 51.6464 109.306 51.65 110.234 50.8555C110.63 50.5168 111.002 49.9203 111.805 48.3416C112.851 46.283 113.351 45.3887 115.255 42.1723C115.803 41.246 116.252 40.3871 116.252 40.2636C116.252 39.945 114.864 39.1132 109.896 36.4523C100.527 31.435 99.5155 30.9817 96.6539 30.5156C95.2815 30.292 92.6038 30.4851 82.1307 31.5625L81.2517 31.653L79.6886 33.814C78.8289 35.0026 77.8802 36.1969 77.5803 36.4681C76.6309 37.3266 76.2753 37.4157 71.8231 37.9106C64.5376 38.7204 61.5479 38.528 57.5856 36.9941C54.2383 35.6983 50.3839 32.8558 48.447 30.2546C46.7519 27.9783 45.7138 26.0657 44.0655 22.1825C42.7436 19.0681 42.5457 18.6631 41.4255 16.779C40.0916 14.5355 38.6897 13.2459 34.4405 10.3536C31.7539 8.52485 30.9273 8.05055 29.6991 7.63279C28.2772 7.14917 26.9739 7.00161 25.5782 7.16621C23.4404 7.41834 22.1066 8.04907 20.1582 9.72926C17.5536 11.9753 15.7719 12.8334 13.3818 12.993L12.2717 13.0672L12.1975 13.5252C11.8427 15.7129 10.9988 18.1631 9.21573 22.1825C7.92961 25.0817 7.74655 25.7359 7.36612 28.7928C7.25736 29.6667 7.05712 31.1429 6.92115 32.0731C6.59483 34.3056 6.60036 34.456 7.02351 34.8548C7.21578 35.0361 9.12575 36.8062 11.2679 38.7886C15.5475 42.749 15.5724 42.7803 15.5724 44.2215C15.5724 45.2196 15.4193 45.5221 13.5931 48.1337C12.8425 49.2071 12.2228 50.1672 12.216 50.2673C12.2016 50.4801 12.4691 50.5669 15.763 51.4179C18.3591 52.0885 20.0673 52.4456 22.1826 52.7597C27.4287 53.5388 32.6215 53.7477 37.8785 53.3912C41.5745 53.1406 42.5726 53.1803 43.9049 53.6311C46.294 54.4394 48.6311 56.7349 49.271 58.9017L49.4345 59.4552L51.2855 59.3727C52.3035 59.3274 55.3674 59.2375 58.0941 59.173Z" fill="black"/>
<path d="M70.2584 55.1511L70.2606 56.4845L70.2629 57.8178L65.9991 57.2163L61.7353 56.6149L65.9969 55.883L70.2584 55.1511Z" fill="black"/>
</svg>
