<svg width="128" height="72" viewBox="0 0 128 72" fill="none" xmlns="http://www.w3.org/2000/svg">
<path d="M40.2699 68.2262C39.5251 68.0205 37.6207 66.8809 36.5115 65.9773C35.7277 65.3388 4.69211 36.0836 1.61678 33.0844C0.485534 31.9812 0.326894 31.662 0.313177 30.4616C0.305561 29.7951 0.344008 29.5064 0.472034 29.269C0.690072 28.8646 1.23523 28.3212 1.62509 28.1196C1.94856 27.9523 10.2047 25.114 14.8757 23.5642C18.5058 22.3598 19.237 22.172 20.2862 22.1747C21.8981 22.1788 22.4156 22.6283 24.4551 25.7963C26.4579 28.9072 27.2667 30.2508 28.4833 32.488C29.509 34.3744 30.0629 35.2165 30.6306 35.7531C30.9577 36.0622 33.2759 37.0565 34.4111 37.3744C35.0616 37.5567 35.3668 37.5887 36.1062 37.5523C36.9369 37.5115 37.1521 37.4534 38.8388 36.815C41.5573 35.786 41.2368 36.0392 42.1696 34.183C43.0597 32.4119 43.2108 31.7788 42.9711 30.8265C42.9066 30.5707 41.7733 28.0285 40.4525 25.1773C39.1318 22.3261 38.0017 19.8451 37.9412 19.664C37.5568 18.5132 38.2983 16.984 39.4992 16.451C40.4105 16.0465 42.3389 16.1784 43.8657 16.7497C44.6645 17.0485 45.2553 17.5628 46.2818 18.8527C47.3533 20.1991 47.6334 20.6061 48.1968 21.6361C48.6101 22.3916 48.6198 22.4303 48.6766 23.549C48.7204 24.4115 48.7727 24.7289 48.8904 24.8466C49.0078 24.964 49.413 25.0314 50.5336 25.1201C51.3516 25.1848 52.0371 25.2257 52.0568 25.211C52.1652 25.13 51.8396 24.4872 50.5397 22.2165C49.0836 19.6726 48.4882 18.6864 47.0346 16.4104C45.8716 14.5894 45.6538 13.9792 45.8712 13.1514C46.0942 12.3027 46.7333 11.6584 47.578 11.431C48.1403 11.2795 53.9253 11.0486 59.9149 10.9385C73.3723 10.691 72.8838 10.7209 89.3599 9.13813C90.2389 9.05369 93.7694 8.61409 97.2054 8.16124C102.47 7.46733 104.115 7.21049 107.666 6.52776C111.514 5.78793 119.076 4.20129 122.921 3.32717C125.21 2.80682 126.151 2.88888 127.255 3.7052C127.74 4.0636 127.93 4.51135 127.983 5.4195C128.025 6.13861 128 6.32189 127.796 6.82761C127.667 7.14737 127.358 7.69435 127.109 8.04312C126.697 8.62073 123.202 12.2427 113.68 21.962C111.511 24.1759 110.017 25.6222 109.652 25.8627C108.614 26.5453 108.067 26.6578 102.666 27.3007C99.9555 27.6233 97.3321 27.9366 96.8359 27.9968C95.6679 28.1387 95.1089 28.0654 94.3743 27.6738C93.6282 27.2761 93.0101 26.6429 92.6921 25.9501C92.1981 24.8742 92.114 24.7411 91.7912 24.5244C91.5378 24.3543 91.3262 24.3036 90.8711 24.304C89.7564 24.305 89.6562 24.3663 87.9554 26.0862C87.1031 26.9481 86.1442 27.8523 85.8245 28.0953C85.0065 28.7175 83.324 29.5929 82.5792 29.7839C81.8018 29.9833 80.5499 29.9307 80.0554 29.6779C79.8723 29.5843 78.3162 28.683 76.5975 27.675C74.8787 26.6669 73.337 25.795 73.1714 25.7373C72.7239 25.5813 71.2988 25.7011 70.6654 25.9481C70.3728 26.0621 69.6896 26.447 69.1472 26.8034C68.2806 27.3726 68.1022 27.5396 67.6781 28.1778C66.9966 29.2032 66.9392 29.3423 66.5973 30.7986C65.683 34.6921 64.7568 35.5796 60.1907 36.9369C59.1699 37.2404 58.8122 37.5574 58.4168 38.509C57.5118 40.687 56.4721 42.2643 55.4006 43.0848C54.9205 43.4525 53.1441 44.3859 49.0747 46.4089C43.4537 49.2034 43.4122 49.2261 42.7638 49.8746C41.572 51.0663 41.1765 52.0249 41.1854 53.7C41.1909 54.7286 41.2321 54.931 42.3785 59.5599C43.4173 63.7543 43.5677 64.4635 43.5801 65.2261C43.5879 65.7056 43.5386 66.2812 43.4706 66.5054C43.0754 67.8073 41.6084 68.596 40.2699 68.2262V68.2262ZM39.7684 63.7759C39.7684 63.7508 39.6115 63.1515 39.4197 62.4441C39.228 61.7368 38.727 59.7197 38.3064 57.9617C37.4732 54.479 37.4251 54.0674 37.6809 52.6136C37.8652 51.5666 38.4328 49.8861 38.868 49.0992C39.6222 47.7357 41.0935 46.4067 42.8194 45.5301C43.3521 45.2595 45.8583 44.0192 48.3888 42.7739C53.9713 40.0265 53.6375 40.2886 54.9144 37.6498C55.6502 36.129 55.8024 35.8868 56.4642 35.1834C57.3563 34.2351 57.9993 33.8747 59.7696 33.331C60.4622 33.1183 61.3152 32.8072 61.6652 32.6396C62.1971 32.3849 62.3346 32.267 62.5025 31.9214C62.7325 31.448 63.0205 30.4356 63.2644 29.2432C63.5568 27.8137 64.6975 25.8913 65.931 24.7493C66.7655 23.9767 68.397 23.1069 70.0851 22.5346C71.2668 22.134 71.3248 22.1244 72.5065 22.1348C73.4238 22.1429 73.8581 22.1915 74.2984 22.3352C74.6314 22.4439 76.2106 23.3178 77.9968 24.3819C79.7114 25.4033 81.2162 26.2854 81.3408 26.3423C81.5297 26.4283 81.7047 26.3822 82.3885 26.0662C83.3264 25.6328 84.418 24.7322 85.585 23.429C87.1237 21.7108 87.79 21.1794 88.971 20.729C89.4974 20.5283 89.7707 20.4883 90.619 20.4878C91.4966 20.4873 91.729 20.5235 92.3141 20.7512C93.7995 21.3295 95.0883 22.5665 95.6518 23.955C95.8797 24.5165 95.8803 24.517 96.2299 24.4611C96.4223 24.4303 98.9682 24.1203 101.888 23.7721C105.062 23.3935 107.301 23.0843 107.459 23.0028C107.604 22.9278 110.268 20.2804 113.379 17.1196C116.49 13.9589 119.995 10.4047 121.167 9.2214C122.34 8.0381 123.27 7.04009 123.234 7.00361C123.197 6.96712 122.807 7.03127 122.366 7.14615C120.68 7.58579 104.077 10.8469 101.85 11.1758C96.9746 11.8959 88.381 12.8879 82.4859 13.4112C75.6373 14.0191 71.8215 14.2077 60.1086 14.517C53.091 14.7023 50.3259 14.8012 50.3259 14.8667C50.3259 14.8835 50.7678 15.6298 51.3078 16.5251C53.5743 20.2826 55.5735 24.0525 55.7926 24.9821C55.9896 25.8178 55.9815 26.1325 55.7468 26.7597C55.3721 27.7612 54.375 28.5711 53.1729 28.8504C52.746 28.9496 52.4544 28.9313 51.0421 28.7168C47.7658 28.2191 47.4391 28.1115 46.5714 27.2444C45.9398 26.6133 45.7507 26.1797 45.4251 24.6162C45.19 23.4869 45.1256 23.3182 44.659 22.6084C43.8072 21.3129 42.7552 20.0946 42.4584 20.06C42.217 20.0318 42.2051 20.0479 42.2787 20.3044C42.3962 20.714 43.7627 23.8356 45.0257 26.5796C46.2457 29.23 46.4032 29.6367 46.5329 30.4728C46.6524 31.243 46.5218 33.2439 46.3129 33.844C46.1089 34.4299 44.6986 37.1691 44.3107 37.733C43.8126 38.4568 43.0943 38.9768 41.9457 39.4448C39.8795 40.2867 38.1904 40.881 37.4738 41.0181C36.5483 41.1952 35.3321 41.1951 34.4255 41.0179C33.4517 40.8275 30.6716 39.8171 29.6029 39.2652C28.845 38.8738 28.5954 38.6747 27.7812 37.8125C27.0336 37.0208 26.6981 36.5654 26.1653 35.6192C24.9227 33.4128 22.0817 28.6263 21.1625 27.1907C20.1217 25.5652 20.1972 25.6082 19.0027 25.9578C17.4314 26.4176 4.60875 30.8287 4.60875 30.9094C4.60875 31.0428 6.14326 32.506 22.7213 48.1802C31.1649 56.1635 38.3922 62.9487 38.7819 63.2584C39.3927 63.744 39.7684 63.941 39.7684 63.7759V63.7759Z" fill="#3D4143"/>
<path d="M1.21198e-05 40.6206L1.03179 39.6207L2.06356 38.6209L4.78911 42.3759L7.51466 46.131L3.75734 43.3758L1.21198e-05 40.6206Z" fill="#3D4143"/>
</svg>
