<svg width="128" height="72" viewBox="0 0 128 72" fill="none" xmlns="http://www.w3.org/2000/svg">
<path d="M42.2183 68.9415C41.5271 68.7505 39.7597 67.693 38.7304 66.8544C38.003 66.2619 9.20099 39.1121 6.34699 36.3288C5.29716 35.3049 5.14994 35.0087 5.13721 33.8947C5.13014 33.2761 5.16582 33.0083 5.28463 32.7879C5.48698 32.4126 5.9929 31.9083 6.3547 31.7212C6.65489 31.566 14.3168 28.9319 18.6517 27.4937C22.0205 26.376 22.6991 26.2017 23.6728 26.2042C25.1687 26.208 25.6489 26.6252 27.5417 29.5651C29.4004 32.4522 30.1509 33.6991 31.2799 35.7753C32.2319 37.5259 32.7458 38.3074 33.2728 38.8054C33.5763 39.0923 35.7277 40.0149 36.7812 40.31C37.3848 40.4791 37.6681 40.5089 38.3542 40.4751C39.1251 40.4372 39.3249 40.3833 40.8902 39.7909C43.413 38.836 43.1157 39.0709 43.9813 37.3483C44.8073 35.7046 44.9476 35.1171 44.7251 34.2334C44.6653 33.9959 43.6135 31.6367 42.3878 28.9907C41.1621 26.3447 40.1133 24.0423 40.0572 23.8742C39.7004 22.8063 40.3886 21.3871 41.503 20.8924C42.3488 20.5171 44.1384 20.6395 45.5553 21.1696C46.2966 21.447 46.8449 21.9242 47.7976 23.1213C48.7919 24.3708 49.0518 24.7485 49.5747 25.7044C49.9583 26.4055 49.9673 26.4414 50.02 27.4796C50.0606 28.2801 50.1092 28.5746 50.2184 28.6838C50.3273 28.7928 50.7033 28.8554 51.7433 28.9376C52.5025 28.9977 53.1386 29.0357 53.1569 29.022C53.2575 28.9468 52.9553 28.3503 51.749 26.243C50.3977 23.8822 49.8451 22.967 48.4962 20.8547C47.4169 19.1648 47.2147 18.5985 47.4165 17.8303C47.6234 17.0426 48.2165 16.4448 49.0005 16.2337C49.5223 16.0932 54.8909 15.8788 60.4495 15.7766C72.9383 15.547 72.485 15.5747 87.7753 14.1059C88.5911 14.0275 91.8675 13.6195 95.0562 13.1993C99.9424 12.5553 101.469 12.3169 104.764 11.6834C108.335 10.9968 115.353 9.52432 118.921 8.7131C121.045 8.23021 121.918 8.30636 122.943 9.06393C123.393 9.39654 123.569 9.81206 123.619 10.6549C123.657 11.3222 123.635 11.4923 123.445 11.9616C123.325 12.2584 123.038 12.766 122.807 13.0897C122.425 13.6257 119.182 16.987 110.345 26.0068C108.332 28.0614 106.946 29.4036 106.607 29.6268C105.644 30.2602 105.137 30.3646 100.123 30.9613C97.6084 31.2607 95.1739 31.5514 94.7133 31.6073C93.6294 31.739 93.1106 31.6709 92.4289 31.3076C91.7364 30.9385 91.1629 30.3508 90.8677 29.7078C90.4093 28.7094 90.3312 28.5859 90.0317 28.3848C89.7965 28.2269 89.6002 28.1799 89.1778 28.1803C88.1433 28.1812 88.0503 28.238 86.472 29.8342C85.681 30.6341 84.7911 31.4732 84.4944 31.6988C83.7353 32.2761 82.1739 33.0885 81.4826 33.2658C80.7612 33.4508 79.5994 33.402 79.1405 33.1674C78.9705 33.0805 77.5265 32.2441 75.9314 31.3086C74.3364 30.3731 72.9056 29.5639 72.752 29.5104C72.3366 29.3656 71.0141 29.4769 70.4263 29.706C70.1548 29.8119 69.5207 30.1691 69.0173 30.4998C68.2132 31.0281 68.0475 31.183 67.6539 31.7753C67.0215 32.7269 66.9683 32.8559 66.6509 34.2074C65.8025 37.8208 64.9429 38.6444 60.7055 39.904C59.7581 40.1857 59.4262 40.4798 59.0592 41.3629C58.2193 43.3842 57.2544 44.848 56.26 45.6095C55.8145 45.9506 54.1659 46.8169 50.3895 48.6943C45.173 51.2877 45.1345 51.3088 44.5327 51.9106C43.4267 53.0165 43.0597 53.9062 43.0679 55.4606C43.073 56.4152 43.1113 56.6031 44.1752 60.8988C45.1392 64.7914 45.2788 65.4495 45.2903 66.1573C45.2975 66.6022 45.2518 67.1365 45.1886 67.3445C44.8219 68.5527 43.4605 69.2846 42.2183 68.9415ZM41.7529 64.8115C41.7529 64.7881 41.6073 64.2319 41.4293 63.5755C41.2514 62.9191 40.7864 61.0472 40.3961 59.4157C39.6229 56.1837 39.5782 55.8016 39.8157 54.4525C39.9867 53.4808 40.5135 51.9212 40.9173 51.191C41.6172 49.9256 42.9826 48.6922 44.5843 47.8787C45.0787 47.6276 47.4045 46.4766 49.7529 45.3209C54.9337 42.7712 54.6239 43.0145 55.8088 40.5656C56.4917 39.1542 56.6329 38.9295 57.2471 38.2766C58.075 37.3966 58.6717 37.0622 60.3147 36.5576C60.9574 36.3602 61.749 36.0715 62.0738 35.9159C62.5675 35.6796 62.695 35.5702 62.8508 35.2495C63.0643 34.8101 63.3316 33.8705 63.5579 32.764C63.8293 31.4374 64.8879 29.6533 66.0326 28.5935C66.807 27.8765 68.3211 27.0693 69.8877 26.5382C70.9844 26.1664 71.0382 26.1575 72.1349 26.1672C72.9861 26.1747 73.3892 26.2198 73.7978 26.3532C74.1068 26.454 75.5724 27.2651 77.2301 28.2526C78.8212 29.2004 80.2177 30.0191 80.3334 30.0718C80.5087 30.1517 80.6711 30.1089 81.3056 29.8156C82.1761 29.4134 83.1891 28.5777 84.2722 27.3682C85.7001 25.7737 86.3185 25.2806 87.4144 24.8626C87.903 24.6763 88.1566 24.6392 88.9439 24.6387C89.7583 24.6383 89.974 24.6718 90.5169 24.8832C91.8955 25.4198 93.0915 26.5678 93.6145 27.8563C93.826 28.3775 93.8265 28.3779 94.1509 28.3261C94.3295 28.2975 96.6922 28.0098 99.4014 27.6867C102.348 27.3353 104.426 27.0484 104.572 26.9727C104.707 26.9031 107.179 24.4462 110.066 21.5129C112.953 18.5797 116.205 15.2813 117.294 14.1831C118.382 13.085 119.245 12.1588 119.211 12.125C119.177 12.0911 118.815 12.1506 118.406 12.2572C116.842 12.6652 101.433 15.6917 99.3668 15.9969C94.8421 16.6652 86.8669 17.5858 81.396 18.0714C75.0404 18.6356 71.4992 18.8106 60.6293 19.0976C54.1167 19.2696 51.5506 19.3613 51.5506 19.4222C51.5506 19.4377 51.9607 20.1303 52.4619 20.9612C54.5652 24.4483 56.4206 27.9469 56.6239 28.8095C56.8067 29.5851 56.7991 29.8772 56.5813 30.4593C56.2336 31.3886 55.3083 32.1402 54.1927 32.3994C53.7965 32.4915 53.5259 32.4745 52.2152 32.2754C49.1747 31.8136 48.8715 31.7137 48.0663 30.9091C47.4801 30.3233 47.3046 29.9209 47.0025 28.47C46.7843 27.422 46.7245 27.2654 46.2915 26.6067C45.501 25.4044 44.5248 24.2738 44.2492 24.2417C44.0252 24.2155 44.0143 24.2305 44.0825 24.4685C44.1916 24.8487 45.4597 27.7456 46.6319 30.2921C47.764 32.7517 47.9101 33.1292 48.0306 33.9051C48.1415 34.6199 48.0203 36.4768 47.8264 37.0337C47.637 37.5774 46.3283 40.1195 45.9682 40.6428C45.5061 41.3145 44.8394 41.7971 43.7735 42.2314C41.856 43.0127 40.2885 43.5642 39.6235 43.6914C38.7645 43.8558 37.6358 43.8557 36.7945 43.6912C35.8908 43.5146 33.3107 42.5769 32.319 42.0647C31.6156 41.7015 31.384 41.5167 30.6284 40.7166C29.9346 39.9818 29.6233 39.5592 29.1288 38.6812C27.9756 36.6335 25.339 32.1915 24.486 30.8592C23.5201 29.3507 23.5902 29.3906 22.4816 29.715C21.0235 30.1417 9.12363 34.2354 9.12363 34.3103C9.12363 34.4341 10.5477 35.792 25.9326 50.3381C33.7686 57.7468 40.4757 64.0437 40.8374 64.3312C41.4043 64.7818 41.7529 64.9646 41.7529 64.8114V64.8115Z" fill="black"/>
<path d="M4.84655 43.3225L5.80407 42.3946L6.76159 41.4667L9.29099 44.9516L11.8204 48.4364L8.33347 45.8795L4.84655 43.3225Z" fill="black"/>
</svg>
