<svg width="128" height="72" viewBox="0 0 128 72" fill="none" xmlns="http://www.w3.org/2000/svg">
<path d="M53.3243 56.8996C21.0619 56.7625 23.4079 56.7924 22.8818 56.5111C22.106 56.0961 21.761 55.4409 21.8762 54.6008C21.9565 54.0149 22.2129 53.6385 23.5698 52.1142C25.3769 50.0842 25.7082 49.69 25.7082 49.5702C25.7082 49.4482 25.1143 47.7943 24.5836 46.4384C24.3914 45.9474 24.0632 44.9789 23.8542 44.2861C23.5046 43.1268 23.475 42.9528 23.4834 42.104C23.4906 41.3758 24.0595 37.407 26.1843 23.2605C27.6648 13.4039 28.9427 5.12782 29.0241 4.86913C29.3553 3.81681 30.3605 3.13444 31.7209 3.03843C32.6257 2.97458 33.2243 3.10671 33.9195 3.52375C34.5991 3.93146 35.6626 5.00026 36.7435 6.36175C38.2501 8.25969 39.7848 9.95449 41.2674 11.3579C42.7115 12.7247 44.2297 14.0617 44.7336 14.4103C44.8819 14.513 45.7702 14.8978 46.7076 15.2655C48.4678 15.9559 49.0067 16.2346 49.7008 16.8134C50.5318 17.5063 51.0859 18.6313 51.2786 20.0168C51.3563 20.576 51.3447 20.956 51.2158 22.0696C51.1288 22.8212 51.0565 23.9304 51.055 24.5343C51.0527 25.5214 51.0741 25.6768 51.2661 26.0717C51.3848 26.3158 51.736 26.7582 52.0567 27.0675C52.3741 27.3736 54.6301 29.0923 57.0701 30.8868C62.8689 35.1516 63.0415 35.2854 63.2995 35.718C63.6188 36.2534 63.6698 37.3638 63.4007 37.9197C63.1493 38.4391 62.6306 38.8972 61.9126 39.234C60.904 39.7071 60.7429 39.6971 51.5356 38.5946C47.0663 38.0595 42.7179 37.5388 41.8723 37.4375C39.6374 37.1699 38.7836 37.3339 37.6847 38.242C37.3034 38.5571 35.7868 40.5199 35.8621 40.6009C35.8797 40.6198 37.2688 40.7915 38.9491 40.9826L42.0041 41.33L49.2076 41.3994C53.1696 41.4376 61.8734 41.4833 68.5494 41.5009L80.6876 41.5329L80.9355 41.3482C81.0718 41.2465 81.2812 40.9732 81.4008 40.7408C81.5947 40.364 81.6185 40.208 81.621 39.3004C81.624 38.1394 81.4667 37.3828 80.9896 36.2638C80.3803 34.835 79.5536 33.7835 78.2854 32.8242C77.4023 32.1562 76.0219 31.5477 73.7522 30.8259C72.0409 30.2816 70.7902 29.7373 69.96 29.1753C68.7747 28.3731 67.3069 26.578 66.6481 25.1251C66.2217 24.1848 65.9436 22.9597 65.8859 21.7684C65.8035 20.0664 66.0163 19.2538 67.416 15.9252C69.1236 11.8644 69.8567 10.421 70.7336 9.39324C71.8748 8.05577 73.9267 7.02123 75.0987 7.19242C75.7259 7.28403 76.6519 7.79978 77.4437 8.49839C78.0538 9.03666 78.3132 9.35563 78.9251 10.3199C80.158 12.2628 102.854 49.7173 103.428 50.757C104.007 51.8047 104.155 52.2215 104.156 52.8024C104.157 53.2154 103.878 53.827 103.479 54.2912C103.168 54.652 99.5867 56.5275 98.8419 56.7195C97.4159 57.087 97.4115 57.087 53.3243 56.8996ZM97.7936 54.5701C98.1646 54.5017 98.8265 54.2067 100.09 53.5467C101.764 52.6721 101.859 52.609 101.766 52.435C101.712 52.3335 96.017 42.9605 89.1099 31.6061C77.9858 13.3193 76.4852 10.8933 75.9691 10.3623C75.1965 9.56733 75.0003 9.46696 74.4771 9.5987C74.2544 9.65478 73.79 9.87659 73.445 10.0916C72.3981 10.7441 72.2105 11.0524 70.3373 15.1991C68.3346 19.6325 68.1818 20.1072 68.2493 21.6847C68.2866 22.5549 68.3415 22.8803 68.5569 23.5051C68.9784 24.7281 69.4786 25.5212 70.4245 26.4662C71.1393 27.1804 71.3813 27.3604 72.0936 27.7077C72.5518 27.931 73.3615 28.2535 73.893 28.4242C74.4245 28.5949 75.314 28.8816 75.8696 29.0613C77.941 29.7311 79.4908 30.6752 80.9659 32.1655C82.1071 33.3185 82.5993 34.0697 83.2152 35.5978C83.6909 36.7781 83.8626 37.5777 83.9237 38.8975C84.0233 41.0526 83.5109 42.4043 82.2832 43.2247C81.5203 43.7345 81.0173 43.8593 79.5165 43.9112C78.7911 43.9362 70.2122 43.8993 60.4522 43.8291L42.7069 43.7014L38.5091 43.2553C33.9259 42.7681 33.6879 42.7182 33.179 42.1387C32.8848 41.8035 32.7764 41.3745 32.8658 40.8982C32.947 40.4654 35.5101 36.9932 36.1215 36.4878C36.7041 36.006 37.7319 35.4808 38.5365 35.2535C39.9521 34.8537 40.1194 34.8654 50.3021 36.0797C55.3975 36.6873 59.8529 37.1845 60.2029 37.1845C60.7783 37.1845 61.2901 37.0635 61.2847 36.9288C61.2835 36.9003 60.9772 36.6609 60.6039 36.3968C60.2306 36.1327 57.9683 34.4607 55.5766 32.6813C51.0218 29.2924 49.8868 28.3315 49.347 27.4074C48.791 26.4555 48.7014 26.0542 48.7057 24.5343C48.708 23.7435 48.7678 22.8044 48.8483 22.2942C49.2748 19.5926 48.7288 18.4928 46.5865 17.7378C44.2282 16.9068 43.2134 16.3235 41.609 14.8767C39.3401 12.8308 37.9509 11.3876 35.8786 8.92394C33.2414 5.78869 32.8162 5.38339 32.1642 5.38339C31.5424 5.38339 31.2449 5.47454 31.1961 5.6801C31.0357 6.35562 25.7961 41.7073 25.7961 42.1144C25.7961 42.7788 26.4184 44.9311 27.0504 46.4524C27.9164 48.5371 28.1711 49.5369 27.9948 50.1593C27.9309 50.3848 27.3897 51.1076 26.3304 52.3822C25.4671 53.421 24.7861 54.298 24.8172 54.331C24.8614 54.378 61.6317 54.5512 93.1376 54.6529C95.8127 54.6615 97.4563 54.6323 97.7936 54.5701Z" fill="#3D4143"/>
<path d="M73.004 51.4955L73.0186 52.7985L73.0332 54.1015L68.8607 53.5535L64.6882 53.0055L68.8461 52.2505L73.004 51.4955Z" fill="#3D4143"/>
</svg>
