<svg  viewBox="0 0 128 72" fill="#3D4143" xmlns="http://www.w3.org/2000/svg">
<path d="M50.9598 71.8352C7.9432 71.6524 11.0711 71.6923 10.3697 71.3172C9.33532 70.7639 8.87537 69.8902 9.02889 68.7702C9.13596 67.989 9.47785 67.487 11.287 65.4547C13.6965 62.748 14.1383 62.2224 14.1383 62.0627C14.1383 61.9001 13.3464 59.6949 12.6388 57.8869C12.3826 57.2323 11.945 55.941 11.6663 55.0172C11.2001 53.4715 11.1607 53.2395 11.1719 52.1077C11.1815 51.1368 11.9399 45.8451 14.7731 26.9831C16.7471 13.841 18.451 2.80616 18.5595 2.46125C19.0011 1.05816 20.3414 0.148325 22.1552 0.0203177C23.3616 -0.0648191 24.1597 0.111352 25.0867 0.667415C25.9928 1.21102 27.4109 2.63608 28.8519 4.45141C30.8608 6.98199 32.907 9.24174 34.8839 11.1129C36.8094 12.9354 38.8336 14.718 39.5054 15.1828C39.7032 15.3197 40.8877 15.8328 42.1375 16.3231C44.4843 17.2436 45.203 17.6153 46.1284 18.387C47.2364 19.3108 47.9752 20.8108 48.2321 22.6582C48.3358 23.4037 48.3203 23.9104 48.1484 25.3952C48.0324 26.3974 47.936 27.8762 47.9341 28.6815C47.931 29.9976 47.9594 30.2048 48.2154 30.7313C48.3737 31.0568 48.842 31.6466 49.2696 32.0591C49.6928 32.4672 52.7008 34.7588 55.9541 37.1515C63.6859 42.8378 63.9161 43.0163 64.26 43.5931C64.6857 44.3069 64.7538 45.7874 64.395 46.5286C64.0597 47.2212 63.3681 47.832 62.4108 48.2811C61.066 48.9118 60.8512 48.8986 48.5748 47.4286C42.6158 46.715 36.8178 46.0208 35.6904 45.8858C32.7105 45.5289 31.5721 45.7476 30.1069 46.9584C29.5985 47.3785 27.5764 49.9957 27.6768 50.1036C27.7002 50.1288 29.5524 50.3578 31.7927 50.6125L35.8661 51.0757L45.4709 51.1683C50.7535 51.2193 62.3585 51.2802 71.2599 51.3036L87.4442 51.3463L87.7746 51.1C87.9564 50.9645 88.2356 50.6001 88.3951 50.2902C88.6536 49.7878 88.6854 49.5798 88.6886 48.3696C88.6927 46.8215 88.483 45.8128 87.8468 44.3209C87.0344 42.4158 85.9321 41.0137 84.2412 39.7347C83.0637 38.844 81.2232 38.0327 78.1969 37.0702C75.9151 36.3446 74.2476 35.6188 73.1406 34.8695C71.5603 33.7998 69.6032 31.4065 68.7248 29.4692C68.1563 28.2154 67.7854 26.582 67.7085 24.9936C67.5987 22.7243 67.8824 21.6408 69.7487 17.2026C72.0254 11.7883 73.0029 9.86376 74.1722 8.4934C75.6938 6.7101 78.4296 5.33072 79.9922 5.55897C80.8285 5.68112 82.0633 6.36878 83.1189 7.30026C83.9323 8.01796 84.2782 8.44325 85.0941 9.72892C86.738 12.3195 116.999 62.2589 117.765 63.6451C118.537 65.0421 118.735 65.5978 118.736 66.3723C118.737 66.9229 118.365 67.7384 117.832 68.3573C117.418 68.8384 112.643 71.3391 111.65 71.595C109.749 72.085 109.743 72.085 50.9598 71.8352V71.8352ZM110.252 68.7293C110.747 68.6381 111.629 68.2447 113.314 67.3647C115.546 66.1985 115.673 66.1144 115.549 65.8823C115.477 65.747 107.883 53.2497 98.6739 38.1105C83.8417 13.7281 81.8409 10.4935 81.1528 9.78544C80.1226 8.72552 79.8611 8.59168 79.1635 8.76735C78.8666 8.84211 78.2473 9.13786 77.7873 9.42456C76.3915 10.2945 76.1413 10.7056 73.6438 16.2345C70.9735 22.1458 70.7697 22.7786 70.8598 24.882C70.9094 26.0423 70.9827 26.4761 71.2699 27.3092C71.8319 28.9399 72.4989 29.9974 73.76 31.2574C74.713 32.2096 75.0357 32.4496 75.9854 32.9126C76.5964 33.2104 77.676 33.6404 78.3847 33.868C79.0933 34.0956 80.2793 34.4778 81.0201 34.7174C83.782 35.6106 85.8484 36.8693 87.8152 38.8564C89.3368 40.3938 89.9931 41.3953 90.8143 43.4328C91.4486 45.0065 91.6775 46.0727 91.7589 47.8324C91.8918 50.7058 91.2086 52.5082 89.5716 53.6021C88.5545 54.2818 87.8837 54.4482 85.8827 54.5173C84.9155 54.5507 73.4769 54.5014 60.4636 54.4078L36.8032 54.2377L31.2062 53.6428C25.0952 52.9932 24.7779 52.9267 24.0994 52.154C23.707 51.7071 23.5626 51.1351 23.6817 50.5C23.79 49.923 27.2074 45.2934 28.0226 44.6194C28.7995 43.9771 30.1698 43.2768 31.2427 42.9738C33.1302 42.4406 33.3532 42.4563 46.9302 44.0753C53.7241 44.8855 59.6645 45.5483 60.1312 45.5483C60.8984 45.5483 61.5809 45.387 61.5736 45.2074C61.572 45.1695 61.1635 44.8503 60.6658 44.4982C60.1681 44.146 57.1518 41.9167 53.9629 39.5441C47.8897 35.0256 46.3764 33.7444 45.6567 32.5123C44.9153 31.243 44.7959 30.708 44.8017 28.6815C44.8047 27.627 44.8843 26.3749 44.9917 25.6946C45.5604 22.0926 44.8324 20.6261 41.976 19.6195C38.8317 18.5115 37.4786 17.7337 35.3393 15.8046C32.3142 13.0768 30.4619 11.1526 27.6988 7.86766C24.1826 3.68733 23.6156 3.14693 22.7463 3.14693C21.9171 3.14693 21.5206 3.26847 21.4555 3.54255C21.2416 4.44323 14.2555 51.5788 14.2555 52.1216C14.2555 53.0075 15.0852 55.8772 15.9279 57.9057C17.0825 60.6852 17.4222 62.0183 17.187 62.8481C17.1018 63.1488 16.3802 64.1126 14.9679 65.812C13.8168 67.1971 12.9088 68.3664 12.9503 68.4104C13.0092 68.473 62.0363 68.7041 104.044 68.8396C107.611 68.8511 109.802 68.8122 110.252 68.7293V68.7293Z" />
<path d="M77.1991 64.6297L77.2186 66.3671L77.2382 68.1044L71.6748 67.3738L66.1115 66.6431L71.6553 65.6364L77.1991 64.6297Z" />
</svg>
