<svg width="128" height="72" viewBox="0 0 128 72" fill="none" xmlns="http://www.w3.org/2000/svg">
<path d="M115.618 71.9778C115.207 71.8741 114.683 71.5905 110.263 69.0764C99.667 63.0499 97.621 61.8539 90.667 57.621C85.7975 54.6569 80.6497 51.6175 75.0567 48.4043C70.4671 45.7675 64.8063 42.4818 62.4772 41.1027C55.6512 37.061 56.2538 37.3408 51.537 36.0238C46.7232 34.6796 38.4933 32.5026 38.0345 32.4519C37.5297 32.3961 37.3618 32.4592 33.6647 34.0939L30.5925 35.4522L29.7622 35.4416C29.114 35.4333 28.2577 35.3034 25.8596 34.8495C24.1699 34.5297 21.4022 34.015 19.7092 33.7056L16.631 33.1432L13.1081 33.7869C5.83898 35.115 5.73453 35.1286 5.08205 34.8324C4.36643 34.5075 3.64936 33.6626 3.42352 32.8782C3.37093 32.6955 2.68636 28.6228 1.90225 23.8276C0.597502 15.8484 0.455305 15.0648 0.225433 14.5869C-0.116332 13.8763 -0.0771598 13.4476 0.39546 12.7263C0.76204 12.1668 0.836066 12.1083 2.11211 11.3701C3.87857 10.3483 4.69235 9.69795 8.13201 6.55913C10.9335 4.0027 10.866 4.04811 13.0765 3.23107C13.8963 2.92807 16.1925 2.07908 18.179 1.34442L21.791 0.00869051L23.078 0.00287553C24.6004 -0.00400295 24.3252 -0.0810427 27.7278 1.3047C31.2157 2.72518 31.812 2.99386 33.6251 3.96211C34.5146 4.43708 35.8775 5.15604 36.6539 5.55979C37.9693 6.24388 39.3887 7.15495 42.2586 9.15722C43.5618 10.0664 43.7367 10.2194 44.1376 10.8016C44.3811 11.1552 44.4429 11.3301 44.476 11.76C44.5251 12.3984 44.4354 12.6286 43.597 14.0148C43.2657 14.5625 43.0291 15.0396 43.0616 15.0942C43.0937 15.1481 43.3373 15.4741 43.603 15.8188C44.1204 16.4899 44.4175 17.1833 44.4175 17.7197C44.4175 17.9619 44.4799 18.1243 44.6495 18.3237C45.1416 18.9023 45.2041 19.059 45.2052 19.7174C45.2067 20.5427 45.1416 20.7396 44.7153 21.1985C44.0029 21.9654 39.6031 28.382 39.7137 28.4927C39.7354 28.5144 40.0461 28.6069 40.404 28.6981C40.7618 28.7894 41.858 29.1012 42.8399 29.391C44.298 29.8214 53.2 32.2384 56.3817 33.0678C57.6095 33.3878 57.9263 33.2632 58.6395 32.18C59.2841 31.2009 60.329 30.8501 61.6195 31.1796C62.3927 31.3771 68.878 33.8153 69.6181 34.1868C69.8921 34.3244 71.0317 34.969 72.1506 35.6193C73.2694 36.2696 74.6328 37.0385 75.1802 37.328C76.0422 37.7838 76.2325 37.8535 76.6008 37.8481C76.85 37.8445 77.13 37.7806 77.2773 37.6935C77.556 37.5289 77.5886 37.469 78.3536 35.7136C79.129 33.9343 81.1609 30.6647 82.605 28.8723C82.9645 28.4261 83.5699 28.1856 84.4832 28.1261C85.2972 28.0731 84.7651 27.8193 90.667 31.0749C109.086 41.235 111.611 42.6505 113.667 43.9665C114.329 44.3904 116.179 45.5471 117.777 46.537C122.576 49.5087 125.964 51.6373 126.553 52.0496C127.249 52.5364 127.473 52.8024 127.701 53.4069C127.965 54.1091 127.902 54.5591 127.429 55.3387C127.221 55.6812 125.585 58.6704 123.793 61.9813C121.134 66.8958 120.34 68.2921 119.467 69.5851C118.879 70.4562 118.296 71.2628 118.171 71.3775C117.797 71.7208 117.112 71.9599 116.413 71.9914C116.067 72.0069 115.71 72.0008 115.618 71.9778V71.9778ZM116.981 66.9841C117.619 66.0702 118.273 64.9636 119.155 63.3099C119.849 62.0083 120.966 59.9533 121.638 58.743C123.719 54.9951 123.892 54.6701 123.865 54.5528C123.839 54.4397 121.754 53.1154 113.297 47.8416C109.219 45.2984 108.315 44.7788 100.842 40.6827C92.7644 36.2551 85.6175 32.3236 85.1385 32.0441C84.9978 31.962 84.8284 31.9156 84.762 31.9411C84.5272 32.0312 81.8104 36.3484 80.987 37.9399C80.5391 38.8057 79.8864 39.9453 79.5367 40.4724C78.992 41.2932 78.8333 41.4709 78.4301 41.7117C77.8803 42.04 77.0551 42.1503 76.5058 41.969C76.1858 41.8634 73.2489 40.2451 70.7805 38.8141C68.5179 37.5025 68.1719 37.3266 66.5043 36.6408C64.3807 35.7675 61.3945 34.6634 61.1561 34.6634C60.9999 34.6634 60.9289 34.7614 60.7443 35.2318C60.545 35.74 60.5211 36.075 60.6843 36.075C60.716 36.075 61.5247 36.5478 62.4814 37.1257C66.0967 39.3094 68.9429 40.9829 71.0711 42.1759C72.2814 42.8543 74.3551 44.0335 75.6795 44.7963C77.0039 45.5592 79.0286 46.7101 80.179 47.3539C84.1964 49.6024 92.9527 54.7864 95.7633 56.5804C97.7347 57.8386 100.971 59.7467 106.402 62.8524C110.695 65.3074 114.562 67.5349 114.996 67.8024C115.43 68.0699 115.848 68.2895 115.926 68.2903C116.016 68.2913 116.402 67.8136 116.981 66.9841V66.9841ZM32.7299 30.7093L35.5935 29.4123L35.6399 28.8203C35.6655 28.4947 35.7495 28.0789 35.8267 27.8962C35.9039 27.7135 36.9653 26.1255 38.1853 24.3673C41.6285 19.4051 41.3895 19.8047 41.2511 19.2412C41.1977 19.0236 41.0834 18.7443 40.9972 18.6205C40.9109 18.4966 40.7701 18.1911 40.6842 17.9416C40.5984 17.692 40.3238 17.2141 40.0741 16.8797C39.4125 15.9934 39.2694 15.6679 39.2694 15.0485C39.2694 14.544 39.2924 14.4866 39.8929 13.4884C40.2358 12.9184 40.5067 12.3792 40.4949 12.2901C40.4806 12.1822 39.8709 11.7213 38.6679 10.9091C36.6679 9.55875 35.3364 8.77543 33.042 7.59952C30.2871 6.18765 29.5508 5.84507 26.7314 4.66355C24.1446 3.57948 23.9062 3.49547 23.3271 3.464L22.7043 3.43016L18.179 5.0217C15.6901 5.89704 13.4414 6.73129 13.182 6.87558C12.9088 7.02748 11.6156 8.11747 10.1098 9.46489C6.44472 12.7444 5.48847 13.5098 4.29173 14.1215C4.05338 14.2433 3.8965 14.38 3.89525 14.467C3.88997 14.8333 6.67065 31.2289 6.75232 31.313C6.82193 31.3847 7.91967 31.2149 11.1627 30.6307C13.5375 30.203 15.7794 29.8294 16.1447 29.8006C16.9734 29.7352 17.8394 29.8702 24.4065 31.088C27.0781 31.5834 29.3995 31.9927 29.5651 31.9976C29.7881 32.0041 30.6094 31.6698 32.7299 30.7093Z" fill="#3D4143"/>
<path d="M93.6068 66.2399L94.4861 64.7363L95.3655 63.2327L99.7711 66.7304L104.177 70.228L98.8917 68.234L93.6068 66.2399Z" fill="#3D4143"/>
</svg>
