<svg width="128" height="72" viewBox="0 0 128 72" fill="none" xmlns="http://www.w3.org/2000/svg">
<path d="M103.73 58.5956C103.415 58.5162 103.014 58.2991 99.6304 56.3746C91.5195 51.7614 89.9534 50.8459 84.6302 47.6057C80.9028 45.3368 76.9622 43.0102 72.6809 40.5505C69.1676 38.5321 64.8344 36.017 63.0516 34.9613C57.8264 31.8675 58.2877 32.0816 54.6771 31.0735C50.9922 30.0446 44.6924 28.3781 44.3412 28.3393C43.9548 28.2966 43.8262 28.3449 40.9962 29.5962L38.6445 30.636L38.0089 30.6278C37.5127 30.6215 36.8572 30.522 35.0215 30.1746C33.7281 29.9298 31.6095 29.5358 30.3135 29.299L27.9573 28.8685L25.2605 29.3612C19.6962 30.3778 19.6162 30.3882 19.1168 30.1615C18.569 29.9128 18.0201 29.2661 17.8472 28.6656C17.8069 28.5258 17.2829 25.4082 16.6827 21.7376C15.6839 15.6297 15.5751 15.0299 15.3991 14.664C15.1375 14.1201 15.1675 13.7919 15.5293 13.2398C15.8099 12.8115 15.8666 12.7667 16.8433 12.2017C18.1955 11.4195 18.8185 10.9216 21.4514 8.51893C23.5959 6.56203 23.5443 6.59679 25.2364 5.97137C25.8639 5.73942 27.6216 5.08954 29.1422 4.52718L31.9071 3.5047L32.8923 3.50025C34.0577 3.49498 33.847 3.43601 36.4516 4.49677C39.1216 5.58412 39.578 5.78979 40.9659 6.53096C41.6468 6.89454 42.6901 7.44489 43.2844 7.75395C44.2913 8.27761 45.3778 8.97501 47.5747 10.5077C48.5722 11.2037 48.7061 11.3208 49.013 11.7664C49.1994 12.0371 49.2467 12.171 49.272 12.5001C49.3096 12.9887 49.2409 13.1649 48.5992 14.2261C48.3456 14.6453 48.1645 15.0105 48.1893 15.0524C48.2139 15.0936 48.4003 15.3432 48.6037 15.607C48.9998 16.1207 49.2272 16.6515 49.2272 17.0621C49.2272 17.2475 49.275 17.3718 49.4048 17.5245C49.7815 17.9674 49.8294 18.0873 49.8302 18.5913C49.8313 19.2231 49.7815 19.3738 49.4552 19.725C48.9099 20.3121 45.5419 25.2239 45.6266 25.3086C45.6432 25.3253 45.881 25.396 46.1549 25.4659C46.4289 25.5357 47.268 25.7744 48.0196 25.9962C49.1358 26.3257 55.9501 28.1759 58.3856 28.8107C59.3254 29.0557 59.5679 28.9603 60.1139 28.1312C60.6073 27.3817 61.4072 27.1132 62.395 27.3654C62.9869 27.5165 67.9512 29.3829 68.5177 29.6673C68.7275 29.7726 69.5998 30.2661 70.4563 30.7639C71.3128 31.2617 72.3564 31.8503 72.7755 32.0718C73.4353 32.4207 73.581 32.4741 73.8629 32.47C74.0537 32.4672 74.2679 32.4183 74.3807 32.3516C74.5941 32.2256 74.619 32.1798 75.2046 30.836C75.7982 29.4741 77.3535 26.9712 78.459 25.5992C78.7341 25.2576 79.1976 25.0735 79.8967 25.028C80.5198 24.9874 80.1124 24.7932 84.6302 27.2853C98.7292 35.0626 100.662 36.1461 102.236 37.1535C102.743 37.478 104.159 38.3634 105.383 39.1212C109.056 41.396 111.65 43.0254 112.1 43.341C112.633 43.7135 112.805 43.9172 112.979 44.3799C113.181 44.9175 113.133 45.2619 112.77 45.8587C112.611 46.1208 111.359 48.409 109.988 50.9435C107.952 54.7054 107.344 55.7742 106.676 56.764C106.226 57.4308 105.779 58.0482 105.684 58.1361C105.397 58.3988 104.873 58.5819 104.338 58.606C104.074 58.6179 103.8 58.6132 103.73 58.5956ZM104.773 54.773C105.261 54.0734 105.762 53.2263 106.437 51.9604C106.968 50.9641 107.824 49.391 108.338 48.4646C109.931 45.5957 110.063 45.3469 110.042 45.2571C110.023 45.1705 108.426 44.1568 101.953 40.1198C98.8313 38.173 98.1393 37.7753 92.419 34.6398C86.2357 31.2506 80.765 28.2411 80.3983 28.0271C80.2906 27.9643 80.1609 27.9288 80.1101 27.9483C79.9304 28.0173 77.8507 31.322 77.2204 32.5402C76.8775 33.203 76.3779 34.0754 76.1102 34.4788C75.6933 35.1071 75.5718 35.2432 75.2632 35.4275C74.8423 35.6788 74.2107 35.7632 73.7902 35.6245C73.5452 35.5436 71.2971 34.3048 69.4076 33.2094C67.6756 32.2054 67.4107 32.0708 66.1342 31.5458C64.5086 30.8773 62.2228 30.0322 62.0403 30.0322C61.9207 30.0322 61.8664 30.1072 61.7251 30.4673C61.5725 30.8562 61.5542 31.1127 61.6791 31.1127C61.7034 31.1127 62.3224 31.4746 63.0548 31.917C65.8222 33.5886 68.0009 34.8696 69.63 35.7828C70.5564 36.3021 72.1438 37.2048 73.1576 37.7887C74.1714 38.3727 75.7213 39.2537 76.6019 39.7465C79.6771 41.4676 86.3799 45.4359 88.5314 46.8091C90.0404 47.7723 92.5178 49.2329 96.6749 51.6102C99.9609 53.4895 102.921 55.1946 103.253 55.3994C103.585 55.6041 103.906 55.7722 103.966 55.7729C104.035 55.7736 104.33 55.408 104.773 54.773ZM40.2806 27.0054L42.4727 26.0126L42.5082 25.5594C42.5277 25.3102 42.5921 24.9918 42.6511 24.852C42.7102 24.7122 43.5227 23.4966 44.4566 22.1507C47.0923 18.3523 46.9094 18.6582 46.8034 18.2268C46.7625 18.0602 46.6751 17.8464 46.609 17.7516C46.543 17.6568 46.4352 17.423 46.3695 17.2319C46.3038 17.0409 46.0936 16.6751 45.9025 16.4191C45.396 15.7406 45.2865 15.4915 45.2865 15.0174C45.2865 14.6311 45.3041 14.5872 45.7638 13.8231C46.0263 13.3868 46.2336 12.974 46.2246 12.9059C46.2136 12.8233 45.7469 12.4705 44.8261 11.8487C43.2951 10.8151 42.2758 10.2155 40.5195 9.31532C38.4107 8.23457 37.8471 7.97233 35.6889 7.06789C33.7088 6.23807 33.5263 6.17376 33.083 6.14967L32.6063 6.12377L29.1422 7.34205C27.237 8.01211 25.5157 8.65071 25.3171 8.76116C25.108 8.87744 24.118 9.7118 22.9654 10.7432C20.1599 13.2536 19.4279 13.8395 18.5118 14.3078C18.3293 14.401 18.2093 14.5057 18.2083 14.5722C18.2043 14.8526 20.3328 27.4031 20.3953 27.4675C20.4486 27.5224 21.2889 27.3924 23.7714 26.9452C25.5892 26.6178 27.3053 26.3319 27.585 26.3098C28.2194 26.2597 28.8823 26.363 33.9092 27.2953C35.9543 27.6745 37.7313 27.9878 37.8581 27.9915C38.0288 27.9965 38.6575 27.7406 40.2806 27.0054Z" fill="black"/>
<path d="M86.8804 54.2033L87.5536 53.0523L88.2267 51.9014L91.5991 54.5788L94.9715 57.2562L90.926 55.7297L86.8804 54.2033Z" fill="black"/>
</svg>
