<svg width="128" height="72" viewBox="0 0 128 72" fill="none" xmlns="http://www.w3.org/2000/svg">
<path d="M92.6694 54.8977L92.6656 56.2311L92.6618 57.5644L88.4008 56.9435L84.1398 56.3226L88.4046 55.6102L92.6694 54.8977Z" fill="#3D4143"/>
<path d="M22.5417 53.5725C20.996 53.2353 19.6697 52.0333 19.0334 50.3931C18.8173 49.8359 18.7983 49.6596 18.7378 47.6404C18.6674 45.2949 18.6029 44.9376 18.1239 44.2414C17.8468 43.8386 17.3059 43.3602 16.7641 43.0388C16.5911 42.9361 15.1349 42.325 13.5282 41.6807C8.83351 39.7982 8.43903 39.6106 7.23605 38.6892C5.51751 37.3728 4.46777 35.994 3.70108 34.046C2.28815 30.4561 2.92249 26.4851 5.44688 23.1171C6.44369 21.7872 7.25941 20.9944 8.58436 20.0679C11.4615 18.0558 15.3706 16.6374 18.9271 16.3151C19.7044 16.2446 23.3586 16.2222 30.9214 16.2417L41.7978 16.2697L42.3821 16.4829C43.4387 16.8686 44.0189 17.2318 44.7695 17.9771C45.3632 18.5667 45.5761 18.8596 45.9485 19.5987C46.5315 20.7559 46.6728 21.5894 46.5306 23.0345C46.2676 25.7086 44.9743 27.6732 42.3158 29.4371C41.2239 30.1615 40.2106 30.5856 38.7417 30.9328L37.663 31.1878L28.9863 31.2343L20.3096 31.2809L19.8653 31.5096C19.5108 31.6921 19.369 31.8374 19.1637 32.2287C18.9341 32.6663 18.9095 32.7925 18.9363 33.4003C18.962 33.9814 19.0033 34.1298 19.2176 34.4107C19.387 34.6329 21.0251 35.774 24.2513 37.9172C30.4835 42.0575 30.1532 41.8511 31.8653 42.6731C33.0687 43.2508 33.6027 43.4504 34.6967 43.7313C36.9928 44.3208 37.3675 44.351 42.7416 44.3792C47.164 44.4025 47.5775 44.3919 47.8844 44.2474C48.3582 44.0243 48.8214 43.593 49.1046 43.1113L49.3484 42.6966L49.3999 40.2697L49.4513 37.8427L49.8333 36.764C50.0434 36.1708 50.3176 35.5094 50.4427 35.2943C50.5677 35.0791 52.7343 31.9039 55.2574 28.2381C60.1969 21.0615 60.4824 20.6954 61.9776 19.6201C62.9616 18.9125 63.5621 18.6459 64.9464 18.3021C66.224 17.9848 67.0197 17.9506 68.4944 18.1493C69.843 18.331 71.1265 18.8574 72.9116 19.9608C73.7216 20.4615 80.0545 24.241 102.917 37.8685C109.312 41.6804 109.318 41.6831 110.092 41.5378C110.487 41.4637 111.101 40.9362 111.342 40.463C111.516 40.121 111.527 39.9949 111.478 38.8772C111.435 37.8811 111.374 37.4933 111.144 36.7191C110.749 35.3921 110.427 34.7703 109.765 34.0555C108.422 32.6054 107.022 31.8128 104.086 30.8418C102.492 30.3147 101.675 29.8434 100.85 28.9742C99.834 27.905 99.2399 26.4968 99.1304 24.8989C99.0632 23.9181 99.2018 23.2828 99.719 22.2C100.109 21.383 100.257 21.1808 101.045 20.3863C101.73 19.6963 102.066 19.4301 102.517 19.2205C103.672 18.6835 104.002 18.609 105.214 18.6112L106.337 18.6133L112.854 20.8041C116.438 22.009 119.555 23.0863 119.781 23.198C120.343 23.4773 120.81 23.981 121.149 24.6742C121.522 25.4383 121.521 25.6244 121.126 31.1734C120.879 34.6426 120.838 35.5748 120.926 35.6297C120.988 35.6678 121.527 35.7885 122.125 35.8977C123.451 36.1402 123.834 36.3226 124.188 36.8806C124.718 37.7144 124.725 37.8007 124.636 42.1124C124.546 46.4714 124.5 46.8409 123.874 48.298C123.463 49.2537 123.039 49.8905 122.223 50.7786C120.965 52.147 119.672 52.8943 117.573 53.4653L116.854 53.661L69.9776 53.6777C30.7816 53.6918 23.0095 53.6745 22.5417 53.5725ZM116.97 51.3183C119.001 50.9011 120.879 49.4775 121.72 47.7197C122.293 46.5192 122.361 45.932 122.396 41.8471L122.427 38.211L121.179 37.9606C119.658 37.6556 119.074 37.3587 118.739 36.7191C118.515 36.2903 118.533 35.483 118.871 30.8407C119.023 28.7693 119.146 26.699 119.146 26.24C119.146 25.4315 119.138 25.4001 118.899 25.2327C118.636 25.0485 108.384 21.5676 106.66 21.0769C105.778 20.8257 105.541 20.7918 104.953 20.8326C104.039 20.896 103.422 21.1807 102.665 21.8885C101.869 22.6337 101.428 23.5066 101.367 24.4635C101.314 25.286 101.632 26.37 102.138 27.0931C102.686 27.8753 103.234 28.1953 105.214 28.8869C108.736 30.1171 110.158 31.0126 111.797 33.0337C112.431 33.8152 112.934 34.8171 113.253 35.9339C113.838 37.9819 113.938 39.709 113.538 40.8869C113.406 41.2757 113.179 41.7669 113.033 41.9782C112.74 42.4039 112.092 43.0076 111.571 43.3393C110.673 43.9116 109.117 43.9754 108.065 43.4831C107.734 43.3284 99.8483 38.654 90.5408 33.0957C81.2333 27.5374 72.9578 22.5967 72.1509 22.1163C69.7871 20.7092 68.9563 20.3882 67.4417 20.2966C65.3655 20.1712 63.6025 20.8432 62.2203 22.287C61.5195 23.019 52.8012 35.6459 52.3487 36.5843C51.7482 37.8296 51.6405 38.4448 51.6405 40.6321C51.6405 42.4258 51.6271 42.5799 51.4143 43.2318C51.2899 43.613 51.1245 44.0478 51.0468 44.1981C50.8108 44.6544 49.5644 45.8464 49.0549 46.1031C47.9901 46.6395 47.8621 46.6511 43.1911 46.6351C38.4101 46.6186 37.2483 46.5481 35.3772 46.1605C33.4618 45.7636 32.3215 45.3484 30.2023 44.2762C28.5017 43.4157 27.8166 42.9873 23.2881 39.9527C17.4486 36.0395 17.3061 35.9206 16.8441 34.578C16.4259 33.3623 16.8658 31.3698 17.7712 30.3791C18.2748 29.8281 18.7146 29.5398 19.5129 29.2375L20.045 29.036L28.9439 28.9851L37.8428 28.9342L38.6967 28.6608C40.9064 27.9532 42.4374 26.8687 43.5297 25.237C43.8805 24.7129 44.2953 23.4913 44.3887 22.7071C44.4481 22.2086 44.319 21.3967 44.0778 20.7522C43.7116 19.7735 42.4513 18.6948 41.4832 18.5315C40.8547 18.4255 19.3636 18.4487 18.6068 18.5562C14.5475 19.1329 10.8964 20.7318 8.42776 23.0137C7.18545 24.1621 5.9848 26.1431 5.48433 27.8701C5.03802 29.4102 5.10556 31.3048 5.66545 32.951C5.90943 33.6683 6.63574 34.9842 7.13849 35.6197C7.53904 36.126 8.82487 37.2276 9.39335 37.5515C9.61582 37.6783 11.3147 38.394 13.1686 39.1421C17.0321 40.701 18.0378 41.1742 18.7542 41.7704C19.5808 42.4583 20.4036 43.627 20.6773 44.502C20.9848 45.4851 21.0805 46.3441 21.0219 47.5955C20.9577 48.965 21.0572 49.6658 21.4004 50.2612C21.6661 50.7221 22.1631 51.1246 22.6967 51.3109C23.0623 51.4385 27.5799 51.4525 69.6893 51.4564C111.856 51.4603 116.343 51.4472 116.97 51.3183Z" fill="#3D4143"/>
</svg>
