<svg width="128" height="72" viewBox="0 0 128 72" fill="none" xmlns="http://www.w3.org/2000/svg">
<path d="M94.3376 54.6589L94.3336 56.0611L94.3296 57.4633L89.8486 56.8103L85.3676 56.1573L89.8526 55.4081L94.3376 54.6589Z" fill="#3D4143"/>
<path d="M20.5894 53.2652C18.9639 52.9106 17.5691 51.6466 16.9 49.9217C16.6727 49.3357 16.6528 49.1503 16.5891 47.0269C16.5151 44.5603 16.4472 44.1845 15.9435 43.4524C15.6521 43.0288 15.0833 42.5257 14.5136 42.1877C14.3316 42.0797 12.8002 41.437 11.1105 40.7595C6.17346 38.7798 5.75861 38.5825 4.49353 37.6135C2.68626 36.2292 1.58232 34.7792 0.776044 32.7306C-0.709833 28.9554 -0.0427417 24.7793 2.61198 21.2375C3.66026 19.8389 4.51809 19.0052 5.91145 18.0308C8.93715 15.9149 13.0481 14.4232 16.7882 14.0842C17.6057 14.0101 21.4485 13.9866 29.4018 14.0071L40.8397 14.0365L41.4542 14.2608C42.5653 14.6663 43.1755 15.0482 43.9649 15.8321C44.5892 16.4521 44.8131 16.7601 45.2047 17.5374C45.8179 18.7543 45.9664 19.6309 45.8169 21.1505C45.5403 23.9627 44.1802 26.0288 41.3844 27.8838C40.2362 28.6456 39.1706 29.0915 37.6258 29.4567L36.4914 29.7248L27.3667 29.7738L18.242 29.8227L17.7748 30.0633C17.4021 30.2552 17.2529 30.408 17.037 30.8195C16.7955 31.2796 16.7697 31.4124 16.7979 32.0515C16.8249 32.6627 16.8683 32.8187 17.0936 33.1142C17.2718 33.3478 18.9945 34.5478 22.3872 36.8017C28.9413 41.1557 28.5939 40.9387 30.3943 41.8031C31.6599 42.4107 32.2214 42.6205 33.372 42.9159C35.7867 43.5359 36.1806 43.5676 41.8323 43.5973C46.483 43.6218 46.9178 43.6106 47.2405 43.4587C47.7388 43.2241 48.226 42.7705 48.5238 42.2639L48.7801 41.8279L48.8343 39.2756L48.8884 36.7233L49.2901 35.589C49.5111 34.9651 49.7994 34.2695 49.9309 34.0433C50.0624 33.8171 52.3409 30.4779 54.9943 26.6228C60.1888 19.0757 60.489 18.6907 62.0614 17.5599C63.0962 16.8157 63.7277 16.5354 65.1835 16.1739C66.527 15.8402 67.3639 15.8042 68.9147 16.0132C70.3329 16.2043 71.6827 16.7578 73.5599 17.9182C74.4117 18.4447 81.0716 22.4194 105.115 36.7505C111.84 40.7591 111.846 40.762 112.66 40.6092C113.075 40.5313 113.721 39.9765 113.974 39.479C114.158 39.1193 114.169 38.9866 114.118 37.8112C114.072 36.7637 114.009 36.3559 113.766 35.5417C113.35 34.1462 113.012 33.4923 112.316 32.7406C110.904 31.2156 109.431 30.3821 106.344 29.361C104.667 28.8067 103.809 28.311 102.94 27.397C101.872 26.2726 101.248 24.7916 101.132 23.1112C101.062 22.0798 101.207 21.4117 101.751 20.273C102.162 19.4138 102.317 19.2012 103.146 18.3657C103.866 17.64 104.22 17.3601 104.694 17.1396C105.908 16.575 106.255 16.4966 107.53 16.4989L108.711 16.5011L115.565 18.805C119.334 20.0721 122.612 21.205 122.849 21.3225C123.441 21.6162 123.932 22.146 124.287 22.8749C124.68 23.6785 124.679 23.8742 124.264 29.7097C124.004 33.358 123.96 34.3383 124.054 34.396C124.119 34.4362 124.686 34.563 125.314 34.6779C126.708 34.9329 127.111 35.1248 127.484 35.7115C128.041 36.5884 128.049 36.6791 127.955 41.2134C127.86 45.7975 127.812 46.1861 127.153 47.7185C126.721 48.7235 126.275 49.3932 125.417 50.3271C124.094 51.7662 122.734 52.5521 120.527 53.1525L119.771 53.3583L70.4744 53.3759C29.2547 53.3907 21.0814 53.3725 20.5894 53.2652V53.2652ZM119.893 50.8947C122.029 50.4559 124.004 48.9588 124.888 47.1103C125.491 45.8478 125.562 45.2303 125.599 40.9345L125.632 37.1106L124.319 36.8473C122.72 36.5266 122.106 36.2143 121.754 35.5417C121.518 35.0907 121.537 34.2418 121.893 29.3598C122.052 27.1815 122.182 25.0043 122.182 24.5216C122.182 23.6713 122.174 23.6383 121.922 23.4623C121.645 23.2686 110.864 19.608 109.051 19.092C108.123 18.8277 107.874 18.7921 107.255 18.835C106.294 18.9016 105.645 19.201 104.85 19.9454C104.012 20.729 103.549 21.6471 103.485 22.6534C103.429 23.5183 103.763 24.6583 104.296 25.4188C104.871 26.2413 105.448 26.5779 107.53 27.3051C111.234 28.5989 112.729 29.5406 114.453 31.666C115.119 32.4879 115.648 33.5415 115.984 34.7159C116.6 36.8698 116.704 38.6859 116.284 39.9247C116.145 40.3336 115.906 40.8501 115.753 41.0724C115.445 41.52 114.763 42.1549 114.215 42.5037C113.271 43.1056 111.634 43.1727 110.528 42.655C110.18 42.4922 101.887 37.5766 92.0993 31.7313C82.3113 25.886 73.6085 20.6901 72.7599 20.185C70.2741 18.7052 69.4004 18.3676 67.8076 18.2714C65.6243 18.1395 63.7702 18.8462 62.3167 20.3644C61.5796 21.1343 52.4112 34.4131 51.9353 35.3999C51.3038 36.7095 51.1906 37.3566 51.1906 39.6568C51.1906 41.5431 51.1765 41.7051 50.9527 42.3907C50.8219 42.7915 50.648 43.2488 50.5662 43.4069C50.3181 43.8867 49.0073 45.1402 48.4715 45.4102C47.3517 45.9743 47.2171 45.9865 42.3049 45.9696C37.2771 45.9524 36.0553 45.8782 34.0876 45.4705C32.0733 45.0532 30.8741 44.6166 28.6456 43.489C26.8572 42.584 26.1367 42.1335 21.3744 38.9422C15.2333 34.827 15.0834 34.702 14.5977 33.2901C14.1578 32.0116 14.6204 29.9162 15.5726 28.8744C16.1022 28.295 16.5647 27.9918 17.4042 27.6739L17.9638 27.4619L27.3222 27.4084L36.6805 27.3549L37.5785 27.0673C39.9023 26.3233 41.5123 25.1827 42.661 23.4668C43.03 22.9156 43.4662 21.631 43.5644 20.8062C43.6268 20.282 43.491 19.4282 43.2374 18.7504C42.8523 17.7212 41.5269 16.5868 40.5089 16.4151C39.8479 16.3036 17.2472 16.328 16.4514 16.4411C12.1825 17.0475 8.34283 18.729 5.74677 21.1288C4.44032 22.3364 3.17768 24.4197 2.65136 26.2359C2.18201 27.8555 2.25304 29.8479 2.84184 31.579C3.09842 32.3334 3.86222 33.7172 4.39093 34.3856C4.81216 34.918 6.16438 36.0765 6.76221 36.4171C6.99617 36.5504 8.78276 37.3031 10.7324 38.0898C14.7954 39.7292 15.8529 40.2268 16.6064 40.8539C17.4756 41.5772 18.3409 42.8063 18.6287 43.7264C18.9521 44.7603 19.0528 45.6637 18.9911 46.9797C18.9236 48.4199 19.0283 49.1568 19.3892 49.783C19.6686 50.2677 20.1913 50.691 20.7524 50.8869C21.1369 51.0211 25.8878 51.0358 70.1712 51.0399C114.515 51.044 119.234 51.0302 119.893 50.8947V50.8947Z" fill="#3D4143"/>
</svg>
