<svg width="128" height="72" viewBox="0 0 128 72" fill="none" xmlns="http://www.w3.org/2000/svg">
<path d="M59.8235 71.2032C46.9923 70.3873 46.5974 70.3535 45.9118 70.011C44.8088 69.4601 44.0694 68.4039 44.0694 67.3791C44.0694 67.1266 44.374 65.0401 44.7463 62.7423C45.3862 58.7927 45.424 58.3994 45.4393 55.5412L45.4554 52.5179L45.084 52.1458C44.4294 51.49 43.2183 51.6299 42.7912 52.4108C42.5666 52.8214 42.5287 53.5268 42.4606 58.5645C42.3875 63.9732 42.368 64.2932 42.0663 65.039C41.4276 66.618 40.3151 67.7771 38.7223 68.5233C37.9618 68.8795 37.7019 68.9231 36.3369 68.9231C34.9255 68.9231 34.7305 68.8875 33.8567 68.4712C32.617 67.8804 31.5387 66.8897 30.9661 65.8155C30.004 64.0104 30.0594 66.3275 30.1807 32.9413L30.2908 2.64939L30.7265 1.79751C31.3482 0.581793 32.1892 0.0773892 33.6994 0.0144987C34.7343 -0.0286004 34.8556 -0.000592613 35.5952 0.452184C36.2585 0.858296 36.6627 1.32218 38.1143 3.34319C40.7976 7.07904 41.6534 9.0143 42.469 13.1911C42.7719 14.7427 42.7807 15.0839 42.7329 23.4767C42.6764 33.3906 42.6266 32.951 43.8741 33.5549C44.889 34.0462 45.5779 33.8938 46.4093 32.9939C46.9795 32.3767 47.2817 31.7656 48.5849 28.5937C49.5059 26.352 50.2746 24.696 50.5488 24.3629C51.0605 23.7413 52.1146 22.9714 52.7557 22.7509C53.593 22.463 78.0116 17.4708 79.6678 17.2489C80.8858 17.0858 82.0511 17.0449 83.92 17.0995C86.1947 17.1661 86.543 17.1453 86.9123 16.9207C87.3175 16.6742 88.3927 15.2918 92.8263 9.31707C94.5762 6.95885 95.0898 6.36701 95.7887 5.90309C98.8296 3.88462 102.407 4.71189 104.277 7.86594C104.738 8.64386 105.02 9.67121 105.267 11.4819C105.563 13.6516 105.549 14.9818 105.208 17.2762C104.135 24.4843 103.575 28.1119 103.497 28.3623C103.289 29.0328 102.633 29.7888 101.968 30.126C101.425 30.4011 101.041 30.4797 100.239 30.4797H99.2084L95.9304 34.8822C93.3653 38.3273 92.6525 39.3798 92.6525 39.722C92.6525 40.0159 93.1588 41.0151 94.1963 42.7686C96.2378 46.219 96.3519 46.4887 96.3422 47.8412C96.3327 49.1586 96.0589 49.9665 95.2795 50.9767C94.6803 51.7535 93.4513 52.5401 87.1775 56.1624C85.8958 56.9024 84.6062 57.6977 84.3118 57.9296C83.3295 58.7037 82.9526 59.5067 81.4223 64.0855C79.7331 69.1397 79.4349 69.7022 77.9091 70.7134C76.563 71.6055 75.5781 71.9465 74.1967 71.9988C73.5548 72.0231 67.0868 71.6651 59.8235 71.2032V71.2032ZM75.5128 68.6521C76.4476 68.2168 77.1022 67.5604 77.3872 66.7725C77.5108 66.4307 78.1536 64.4856 78.8155 62.4501C80.7513 56.4976 80.7772 56.4675 87.2714 52.6585C92.8578 49.382 92.9128 49.3465 93.1726 48.844C93.5917 48.0337 93.4497 47.4328 92.4166 45.6453C89.4452 40.5038 89.3441 40.2301 89.8291 38.6411C90.0791 37.822 90.5834 37.0762 93.6411 33.0034C97.6793 27.6245 97.78 27.5306 99.6067 27.4381L100.652 27.3852L100.806 26.4887C100.891 25.9956 101.161 24.2463 101.406 22.6014C101.651 20.9564 101.954 19.0196 102.079 18.2974C102.479 15.9931 102.556 14.0909 102.33 12.1146C102.112 10.2069 101.919 9.56927 101.321 8.78548C100.804 8.10729 100.252 7.86594 99.2203 7.86594C98.1852 7.86594 97.5464 8.10284 97.0067 8.68687C96.7937 8.91742 95.1684 11.0756 93.395 13.4829C88.1827 20.5582 88.6359 20.2122 84.7805 20.0613C81.1919 19.9209 79.7548 20.0966 72.9646 21.5058C69.7104 22.1812 64.8157 23.197 62.0874 23.7631C54.3161 25.3757 53.4164 25.5898 53.1157 25.8982C52.9668 26.0509 52.1477 27.8161 51.2954 29.821C50.443 31.8258 49.5449 33.7792 49.2994 34.1617C47.7973 36.5026 45.2504 37.3172 42.8049 36.2391C41.6506 35.7303 40.7033 34.7648 40.123 33.5058L39.6513 32.4825L39.6355 22.9098L39.6196 13.337L39.1521 11.6592C38.5342 9.44166 37.7954 8.02604 35.7953 5.22773C34.4305 3.31818 34.0724 2.9055 33.7801 2.9055C33.5284 2.9055 33.4052 3.00137 33.3581 3.23377C33.3214 3.41431 33.2525 17.0425 33.2049 33.5186L33.1183 63.4752L33.438 64.1153C34.1039 65.4486 35.3863 66.1387 36.7868 65.9173C37.7473 65.7655 38.3069 65.4228 38.8704 64.6416L39.3278 64.0076L39.4119 58.3681C39.4982 52.5788 39.5332 52.2255 40.1396 51.0339C40.8768 49.585 42.2597 48.7166 43.8296 48.7166C46.3378 48.7166 48.0114 50.17 48.4583 52.7362C48.74 54.3541 48.544 57.7746 47.9476 61.647C47.6618 63.5028 47.3371 65.4548 47.226 65.9846C47.0754 66.7032 47.0657 67.0026 47.188 67.1627C47.3215 67.3374 49.7156 67.5246 60.0449 68.1682C67.026 68.6032 73.1974 68.9667 73.7591 68.9761C74.5488 68.9893 74.9464 68.9158 75.5128 68.6521Z" fill="#3D4143"/>
<path d="M26.4678 49.0632L24.9375 49.0717L23.4072 49.0801L24.0789 44.184L24.7506 39.2878L25.6092 44.1755L26.4678 49.0632Z" fill="#3D4143"/>
</svg>
