<svg width="128" height="72" viewBox="0 0 128 72" fill="none" xmlns="http://www.w3.org/2000/svg">
<path d="M65.2741 65.1655C54.0941 64.4546 53.75 64.4251 53.1527 64.1268C52.1916 63.6467 51.5473 62.7265 51.5473 61.8335C51.5473 61.6135 51.8127 59.7955 52.1371 57.7934C52.6947 54.3521 52.7276 54.0094 52.7409 51.519L52.755 48.8847L52.4314 48.5605C51.861 47.9891 50.8058 48.1111 50.4336 48.7914C50.2379 49.1492 50.2049 49.7638 50.1455 54.1533C50.0818 58.8659 50.0649 59.1447 49.802 59.7945C49.2455 61.1703 48.2762 62.1803 46.8883 62.8304C46.2257 63.1408 45.9992 63.1788 44.8099 63.1788C43.5801 63.1788 43.4102 63.1478 42.6489 62.7851C41.5687 62.2703 40.6292 61.4071 40.1303 60.4711C39.292 58.8983 39.3402 60.9172 39.4459 31.8274L39.5419 5.4337L39.9215 4.69144C40.4632 3.63217 41.196 3.19267 42.5118 3.13788C43.4135 3.10032 43.5192 3.12473 44.1636 3.51924C44.7416 3.87309 45.0938 4.27728 46.3586 6.0382C48.6966 9.2933 49.4422 10.9795 50.1528 14.6188C50.4168 15.9708 50.4245 16.268 50.3828 23.5808C50.3335 32.2189 50.2902 31.8359 51.3772 32.3621C52.2615 32.7901 52.8617 32.6573 53.5861 31.8732C54.0829 31.3355 54.3462 30.803 55.4817 28.0393C56.2842 26.0861 56.954 24.6432 57.1929 24.3529C57.6388 23.8114 58.5572 23.1405 59.1158 22.9484C59.8454 22.6975 81.1216 18.3478 82.5647 18.1545C83.6259 18.0123 84.6412 17.9766 86.2696 18.0243C88.2516 18.0823 88.5551 18.0641 88.8769 17.8684C89.23 17.6537 90.1668 16.4492 94.0298 11.2433C95.5545 9.18858 96.002 8.6729 96.611 8.26868C99.2606 6.50996 102.378 7.23077 104.007 9.97894C104.409 10.6567 104.654 11.5519 104.869 13.1295C105.127 15.02 105.115 16.179 104.818 18.1782C103.883 24.4587 103.395 27.6195 103.327 27.8377C103.146 28.4219 102.575 29.0806 101.995 29.3744C101.522 29.6141 101.187 29.6826 100.489 29.6826H99.5906L96.7345 33.5185C94.4995 36.5203 93.8784 37.4373 93.8784 37.7355C93.8784 37.9916 94.3196 38.8622 95.2235 40.3901C97.0023 43.3964 97.1017 43.6315 97.0933 44.8099C97.085 45.9577 96.8464 46.6617 96.1674 47.5419C95.6452 48.2187 94.5744 48.9041 89.1079 52.0602C87.9912 52.705 86.8676 53.3979 86.611 53.6001C85.7552 54.2745 85.4268 54.9741 84.0934 58.9638C82.6215 63.3675 82.3617 63.8577 81.0323 64.7387C79.8594 65.516 79.0012 65.8132 77.7976 65.8587C77.2383 65.8799 71.6027 65.568 65.2741 65.1655ZM78.9444 62.9426C79.7589 62.5634 80.3292 61.9914 80.5775 61.305C80.6853 61.0072 81.2453 59.3124 81.8221 57.5388C83.5087 52.3523 83.5313 52.3261 89.1898 49.0073C94.0573 46.1524 94.1052 46.1215 94.3316 45.6837C94.6967 44.9776 94.573 44.4541 93.6729 42.8966C91.0839 38.4167 90.9958 38.1782 91.4184 36.7937C91.6362 36.0801 92.0756 35.4302 94.7398 31.8815C98.2583 27.1948 98.346 27.113 99.9376 27.0324L100.849 26.9864L100.983 26.2052C101.057 25.7756 101.292 24.2514 101.505 22.8181C101.719 21.3848 101.983 19.6973 102.092 19.068C102.44 17.0603 102.507 15.4028 102.311 13.6809C102.121 12.0187 101.952 11.4631 101.432 10.7801C100.981 10.1892 100.5 9.97894 99.601 9.97894C98.6991 9.97894 98.1425 10.1854 97.6723 10.6942C97.4866 10.8951 96.0705 12.7756 94.5254 14.8731C89.9838 21.0379 90.3787 20.7363 87.0194 20.6049C83.8926 20.4826 82.6405 20.6356 76.7241 21.8635C73.8886 22.452 69.6238 23.3371 67.2467 23.8304C60.4754 25.2354 59.6915 25.422 59.4295 25.6906C59.2998 25.8237 58.586 27.3618 57.8434 29.1086C57.1008 30.8555 56.3182 32.5575 56.1043 32.8908C54.7955 34.9304 52.5763 35.6402 50.4455 34.7009C49.4398 34.2575 48.6144 33.4163 48.1088 32.3193L47.6978 31.4276L47.684 23.0868L47.6701 14.7459L47.2628 13.2841C46.7244 11.3519 46.0807 10.1184 44.338 7.68023C43.1489 6.01642 42.8368 5.65684 42.5821 5.65684C42.3628 5.65684 42.2554 5.74037 42.2144 5.94286C42.1825 6.10018 42.1225 17.9746 42.081 32.3304L42.0055 58.4319L42.2841 58.9897C42.8643 60.1515 43.9816 60.7527 45.2019 60.5598C46.0388 60.4275 46.5264 60.129 47.0174 59.4483L47.4159 58.8959L47.4892 53.9821C47.5644 48.9378 47.5949 48.63 48.1232 47.5917C48.7656 46.3293 49.9705 45.5726 51.3384 45.5726C53.5238 45.5726 54.982 46.839 55.3714 49.075C55.6169 50.4847 55.4461 53.465 54.9265 56.8391C54.6774 58.4561 54.3945 60.1568 54.2977 60.6185C54.1665 61.2446 54.1581 61.5054 54.2646 61.6449C54.3809 61.7972 56.467 61.9603 65.467 62.5211C71.5497 62.9001 76.9269 63.2168 77.4163 63.225C78.1044 63.2365 78.4508 63.1725 78.9444 62.9426Z" fill="black"/>
<path d="M36.2107 45.8747L34.8774 45.882L33.544 45.8893L34.1293 41.6233L34.7145 37.3573L35.4626 41.616L36.2107 45.8747Z" fill="black"/>
</svg>
