<svg  viewBox="0 0 128 72" fill="#3D4143" xmlns="http://www.w3.org/2000/svg">
<g clip-path="url(#clip0_90_503)">
<path d="M2.62499 72.2401C2.14985 72.1125 1.3393 71.6144 0.916101 71.1901C0.30682 70.5793 -0.0992003 69.362 0.021147 68.5071C0.194192 67.2778 0.663422 66.4513 1.83487 65.3123C2.63964 64.5299 7.75427 59.9291 10.2136 57.7753C10.9599 57.1217 11.9988 56.1833 12.5224 55.69L13.4743 54.793L13.3446 54.165C13.2732 53.8196 12.9854 52.8087 12.705 51.9186C12.1019 50.0041 12.0047 49.1737 12.2716 48.2146C12.5397 47.2512 20.7925 24.3051 21.5531 22.4084C22.0466 21.1778 22.6408 20.1813 23.1858 19.6704C23.7871 19.1068 24.3384 18.7785 27.1625 17.3025C30.0752 15.7802 30.5151 15.5033 30.7888 15.0201C30.9138 14.7994 31.0184 14.4831 31.0212 14.3173C31.0314 13.7206 31.3092 12.4449 31.5269 11.9953C31.649 11.7431 31.9905 11.2757 32.2858 10.9567C32.713 10.4953 32.9312 10.3451 33.3534 10.2219C39.6084 8.3968 39.842 8.33746 42.5279 7.89204C44.5554 7.55581 52.6158 6.56961 54.9913 6.36714C59.0483 6.02135 62.2379 6.32197 70.0177 7.78338C71.3168 8.02742 73.4426 8.4214 74.7417 8.6589L77.1037 9.09071L80.7221 9.08295C85.4105 9.07288 95.4213 8.78127 98.0603 8.57789C100.261 8.40826 101.173 8.23033 102.648 7.68261C103.154 7.49487 106.705 6.02048 110.538 4.4062C121.304 -0.126556 121.162 -0.0736158 122.24 0.0270095C123.498 0.144463 124.333 0.623876 125.006 1.61495C125.415 2.21724 127.669 6.84555 127.912 7.58245C128.09 8.12357 127.985 9.32902 127.709 9.8988C127.399 10.5396 126.877 10.9177 125.031 11.8401C123.389 12.6601 117.978 15.2407 117.174 15.5869C116.271 15.9763 114.18 17.9978 109.652 22.8607C106.445 26.3052 103.132 29.558 101.764 30.6069C100.665 31.4489 98.7463 32.6873 97.4572 33.3858C96.9873 33.6405 94.7032 34.718 92.3814 35.7803C85.2564 39.0404 85.5595 38.9131 84.9133 38.9157C83.8533 38.9199 83.1365 38.424 82.7284 37.4041L82.5598 36.9825L81.8922 36.9834C81.5251 36.9838 79.4833 37.0717 77.355 37.1787C75.2267 37.2857 69.0754 37.5643 63.6855 37.7979C52.3431 38.2895 52.8489 38.3019 50.6963 37.4785C49.9628 37.198 49.2722 36.9478 49.1616 36.9226C48.9939 36.8843 48.7833 37.164 47.8884 38.6132C45.9431 41.7637 45.7625 42.0996 45.7694 42.5544C45.7728 42.7812 46.4872 45.7702 47.357 49.1966L48.9383 55.4263L48.9865 57.2446C49.0295 58.8669 49.0106 59.1701 48.8113 60.0589C47.9585 63.8622 46.147 67.8772 44.7058 69.1586C43.9049 69.8707 42.7727 70.2517 41.4576 70.2517C40.9606 70.2517 37.4787 69.7706 31.9742 68.9412C30.8921 68.7782 30.0331 68.7257 28.2553 68.7139C25.9894 68.6989 25.9027 68.706 23.8831 69.0733C22.7498 69.2794 18.0007 70.0901 13.3294 70.8749C4.71752 72.3217 3.50444 72.4764 2.62499 72.2401V72.2401ZM7.47946 69.2923C13.8697 68.1744 24.7779 66.4271 26.3317 66.2725C29.0167 66.0053 31.098 66.1959 38.0049 67.3414C41.5473 67.929 42.5411 67.9011 43.1575 67.1968C44.2134 65.9904 45.8107 62.1851 46.4106 59.4468C46.4852 59.1058 46.5392 58.2758 46.5347 57.5371C46.525 55.9668 46.4983 55.8419 44.6582 48.7926C43.4129 44.0219 43.346 43.7161 43.3392 42.7619C43.332 41.7588 43.333 41.7547 43.8489 40.6319C44.5322 39.1446 46.7786 35.5989 47.3641 35.0836C47.905 34.6075 48.8719 34.3053 49.5218 34.4092C49.7529 34.4462 50.3996 34.6742 50.9589 34.9159C52.9292 35.7675 53.0565 35.7807 57.3028 35.5724C63.7474 35.2562 81.554 34.4698 82.2676 34.4698C83.474 34.4698 84.256 34.9166 84.7477 35.8871C84.885 36.1579 85.0376 36.3795 85.0869 36.3795C85.1363 36.3795 86.2323 35.8781 87.5226 35.2654C88.8129 34.6527 91.2253 33.5396 92.8834 32.7919C96.5785 31.1258 96.8751 30.9768 98.009 30.2184C101.029 28.1982 103.332 26.034 109.53 19.3931C112.809 15.8795 114.039 14.6764 115.047 13.9952C115.627 13.603 119.021 11.9053 122.235 10.3994C125.187 9.0158 125.48 8.85987 125.553 8.63031C125.628 8.39373 123.044 3.02938 122.706 2.72121C122.474 2.50957 122.377 2.48878 121.837 2.53559C121.457 2.56849 120.965 2.70932 120.528 2.91029C120.143 3.08739 118.56 3.75128 117.01 4.3856C115.46 5.01992 112.239 6.37123 109.852 7.3885C103.112 10.26 102.496 10.4842 100.372 10.8396C98.7518 11.1106 97.1029 11.2233 92.8337 11.355C84.087 11.6248 79.1614 11.7181 78.0586 11.6349C76.7643 11.5373 74.0596 11.0876 68.5603 10.0557C62.6402 8.94479 59.3996 8.58987 56.5941 8.74511C52.2611 8.98486 42.3919 10.2944 39.5126 11.0116C37.0226 11.6319 33.9633 12.6177 33.8455 12.8378C33.7944 12.9333 33.6363 13.6189 33.4943 14.3614C33.3394 15.171 33.1327 15.9151 32.9779 16.2204C32.4937 17.1756 31.1787 18.0691 27.7528 19.7711C26.3533 20.4664 25.3217 21.0643 24.9496 21.3958C24.7899 21.5382 24.4892 22.0164 24.2814 22.4587C23.8768 23.3199 21.5461 29.5707 19.578 35.0728C18.9156 36.9248 18.0796 39.2315 17.7203 40.1989C16.26 44.1305 14.703 48.7144 14.6587 49.212C14.6202 49.6446 14.7173 50.0735 15.2363 51.7647C15.7597 53.4701 15.8615 53.9221 15.8685 54.5719C15.8762 55.2829 15.8466 55.4016 15.5082 56.0173C15.3054 56.3863 14.9708 56.8339 14.7647 57.0121C14.5586 57.1903 13.8913 57.8054 13.2818 58.3791C12.6722 58.9527 10.0835 61.2753 7.52897 63.5404C2.65424 67.8628 2.47423 68.052 2.47423 68.8539C2.47423 69.251 2.69767 69.6229 3.01267 69.75C3.45654 69.9292 4.37949 69.8346 7.47946 69.2923V69.2923Z" />
<path d="M95.3858 11.9034L95.398 13.3248L95.4101 14.7462L90.8603 14.1361L86.3105 13.526L90.8481 12.7147L95.3858 11.9034Z" />
</g>
<defs>
<clipPath id="clip0_90_503">
<rect width="128" height="72" fill="white"/>
</clipPath>
</defs>
</svg>
