<svg width="128" height="72" viewBox="0 0 128 72" fill="none" xmlns="http://www.w3.org/2000/svg">
<path d="M5.84534 70.8316C5.39965 70.7119 4.63934 70.2447 4.24237 69.8467C3.67086 69.2737 3.29001 68.1319 3.40289 67.33C3.56521 66.1769 4.00536 65.4016 5.10419 64.3332C5.85907 63.5993 10.6567 59.2837 12.9635 57.2634C13.6636 56.6503 14.6381 55.7701 15.1292 55.3073L16.0221 54.466L15.9005 53.8769C15.8335 53.5529 15.5636 52.6047 15.3006 51.7698C14.7348 49.9739 14.6437 49.195 14.894 48.2953C15.1455 47.3916 22.8867 25.8679 23.6002 24.0888C24.0631 22.9344 24.6205 21.9997 25.1316 21.5205C25.6957 20.9918 26.2128 20.6838 28.8618 19.2993C31.5941 17.8714 32.0067 17.6117 32.2634 17.1584C32.3806 16.9514 32.4788 16.6547 32.4814 16.4992C32.491 15.9394 32.7516 14.7428 32.9557 14.3211C33.0703 14.0845 33.3906 13.6461 33.6676 13.3469C34.0683 12.9141 34.273 12.7732 34.669 12.6577C40.5363 10.9457 40.7555 10.89 43.2748 10.4722C45.1767 10.1568 52.7374 9.23173 54.9657 9.04181C58.7712 8.71745 61.7631 8.99944 69.0607 10.3703C70.2792 10.5992 72.2733 10.9687 73.4919 11.1915L75.7075 11.5966L79.1016 11.5893C83.4993 11.5798 92.8896 11.3063 95.365 11.1155C97.4296 10.9564 98.2849 10.7895 99.6687 10.2757C100.143 10.0996 103.473 8.71664 107.07 7.20242C117.168 2.95062 117.035 3.00028 118.046 3.09467C119.226 3.20484 120.009 3.65454 120.64 4.58418C121.024 5.14914 123.138 9.49056 123.366 10.1818C123.534 10.6894 123.435 11.8201 123.176 12.3546C122.885 12.9556 122.396 13.3103 120.664 14.1755C119.124 14.9447 114.048 17.3653 113.294 17.6901C112.447 18.0554 110.486 19.9515 106.238 24.513C103.23 27.744 100.123 30.7951 98.8391 31.779C97.8086 32.5689 96.0085 33.7305 94.7993 34.3857C94.3586 34.6246 92.216 35.6353 90.0381 36.6318C83.3548 39.6898 83.6391 39.5704 83.033 39.5728C82.0387 39.5768 81.3663 39.1116 80.9835 38.1549L80.8253 37.7595L80.1991 37.7603C79.8548 37.7607 77.9396 37.8431 75.9432 37.9435C73.9468 38.0438 68.1768 38.3052 63.121 38.5243C52.4817 38.9854 52.9561 38.9971 50.9369 38.2247C50.2489 37.9616 49.6011 37.7269 49.4974 37.7032C49.34 37.6674 49.1425 37.9297 48.3031 39.2891C46.4784 42.2443 46.309 42.5593 46.3154 42.986C46.3186 43.1987 46.9888 46.0024 47.8046 49.2164L49.2879 55.06L49.3331 56.7656C49.3734 58.2873 49.3557 58.5718 49.1688 59.4054C48.3688 62.973 46.6696 66.7392 45.3177 67.9411C44.5665 68.6091 43.5045 68.9665 42.2709 68.9665C41.8047 68.9665 38.5386 68.5151 33.3754 67.7372C32.3603 67.5842 31.5546 67.535 29.887 67.5239C27.7615 67.5099 27.6802 67.5165 25.7857 67.8611C24.7227 68.0544 20.268 68.8148 15.8863 69.551C7.80816 70.9081 6.67027 71.0533 5.84534 70.8316ZM10.3989 68.0665C16.393 67.0179 26.6251 65.3789 28.0825 65.2339C30.6011 64.9833 32.5534 65.162 39.0322 66.2366C42.355 66.7877 43.2872 66.7615 43.8654 66.1009C44.8559 64.9692 46.3541 61.3998 46.9168 58.8313C46.9869 58.5115 47.0375 57.7328 47.0332 57.0399C47.0242 55.567 46.9991 55.4499 45.2731 48.8375C44.105 44.3625 44.0422 44.0757 44.0358 43.1807C44.0291 42.2397 44.03 42.2358 44.5139 41.1826C45.1549 39.7875 47.2621 36.4616 47.8112 35.9782C48.3186 35.5316 49.2256 35.2482 49.8353 35.3457C50.052 35.3803 50.6586 35.5942 51.1833 35.821C53.0314 36.6198 53.1508 36.6321 57.1339 36.4367C63.179 36.1402 79.8819 35.4025 80.5513 35.4025C81.6829 35.4025 82.4164 35.8216 82.8776 36.7319C83.0064 36.986 83.1496 37.1938 83.1958 37.1938C83.2421 37.1938 84.2702 36.7236 85.4806 36.1488C86.6909 35.574 88.9537 34.53 90.509 33.8287C93.9751 32.2658 94.2533 32.126 95.3169 31.4146C98.1497 29.5197 100.31 27.4896 106.124 21.2603C109.2 17.9646 110.353 16.8361 111.298 16.197C111.843 15.8291 115.026 14.2367 118.041 12.8241C120.811 11.5263 121.085 11.38 121.153 11.1647C121.224 10.9428 118.8 5.91094 118.483 5.62187C118.266 5.42335 118.174 5.40385 117.667 5.44776C117.311 5.47861 116.85 5.61072 116.44 5.79923C116.079 5.96536 114.594 6.58809 113.14 7.18309C111.687 7.7781 108.665 9.04564 106.425 9.99986C100.104 12.6934 99.5262 12.9037 97.5335 13.237C96.0137 13.4912 94.467 13.597 90.4624 13.7205C82.2578 13.9736 77.6376 14.0611 76.6031 13.9831C75.3891 13.8915 72.852 13.4696 67.6936 12.5017C62.1405 11.4597 59.1007 11.1268 56.4692 11.2724C52.4047 11.4973 43.1473 12.7256 40.4464 13.3984C38.1108 13.9802 35.2411 14.9049 35.1306 15.1114C35.0827 15.201 34.9344 15.8441 34.8012 16.5405C34.6559 17.2999 34.462 17.9979 34.3168 18.2843C33.8626 19.1803 32.6292 20.0184 29.4156 21.6149C28.1028 22.2671 27.1352 22.8279 26.7861 23.1389C26.6363 23.2724 26.3543 23.7211 26.1594 24.1359C25.7799 24.9438 23.5936 30.8071 21.7475 35.9682C21.1261 37.7053 20.342 39.869 20.0049 40.7765C18.6352 44.4644 17.1746 48.7642 17.1331 49.2309C17.097 49.6367 17.1881 50.039 17.6749 51.6253C18.1659 53.225 18.2614 53.649 18.268 54.2586C18.2752 54.9255 18.2474 55.0369 17.93 55.6144C17.7397 55.9605 17.4259 56.3804 17.2326 56.5475C17.0392 56.7146 16.4133 57.2916 15.8415 57.8297C15.2698 58.3678 12.8415 60.5465 10.4453 62.6711C5.87277 66.7256 5.70392 66.9031 5.70392 67.6553C5.70392 68.0278 5.91351 68.3766 6.20898 68.4959C6.62534 68.6639 7.49108 68.5752 10.3989 68.0665Z" fill="black"/>
<path d="M92.8564 14.2349L92.8678 15.5682L92.8791 16.9015L88.6114 16.3292L84.3436 15.7569L88.6 14.9959L92.8564 14.2349Z" fill="black"/>
</svg>
