<svg width="128" height="72" viewBox="0 0 128 72" fill="none" xmlns="http://www.w3.org/2000/svg">
<path d="M52.7508 63.9265C35.7103 59.4983 21.0799 55.5959 20.2389 55.2546C18.3088 54.4712 15.3479 52.3994 13.8845 50.8084C11.258 47.9527 9.64937 43.684 9.64937 39.5698C9.64937 36.2082 10.3991 33.9123 12.5719 30.6206C13.984 28.4812 13.8796 28.1081 11.1363 25.4922C8.42561 22.9074 8 22.2273 8 20.4806C8 17.805 9.90793 15.8834 14.1913 14.2447C15.9683 13.5648 55.0777 2.96507 60.6424 1.65507C63.5456 0.971634 69.8021 0.00258464 71.3281 3.79463e-06C71.9134 -0.0009859 73.7071 0.191748 75.314 0.428301C79.2674 1.01027 101.411 5.91518 103.748 6.72649C107.31 7.96314 110.225 10.3083 112.371 13.6622C113.645 15.6537 116.296 21.2081 117.25 23.8852C118.164 26.4485 119.602 33.481 119.605 35.4026C119.607 36.4015 119.214 38.0384 118.352 40.6256C116.626 45.8081 115.454 48.1835 114.259 48.9222C113.046 49.6719 111.629 49.9017 110.547 49.5243C110.079 49.3614 106.216 47.0889 101.961 44.4743C91.8154 38.2404 90.3245 36.7791 89.2112 31.9789C88.6566 29.5874 89.041 27.1177 90.3863 24.4286C91.2435 22.715 91.8275 22.076 95.7874 18.518C99.4267 15.2482 100.227 14.3959 100.227 13.7922C100.227 13.1471 100.106 13.0455 99.2507 12.9736C97.9821 12.867 92.7255 14.1119 91.2362 14.8716C90.5994 15.1965 88.3416 17.1603 86.2188 19.2357C82.0981 23.2643 81.4077 23.7551 79.4496 24.0488C76.2655 24.5263 73.3713 22.3019 72.7302 18.8845C72.4348 17.3101 72.7892 16.113 74.1493 14.0907C77.2125 9.53589 76.9644 8.79934 72.548 9.33633C69.0501 9.76162 62.2028 11.2103 61.0637 11.766C59.9413 12.3136 58.5077 14.5328 57.8607 16.7243C57.2056 18.9433 57.426 22.3603 58.3123 23.7259C59.0458 24.856 64.8857 29.2309 76.174 37.107C88.1322 45.4504 89.8906 46.9897 91.7422 50.7362C92.6689 52.6113 92.7692 53.0407 92.8785 55.6031C92.9791 57.9602 92.8576 59.1433 92.1251 62.939C91.1599 67.9406 90.9047 68.7158 89.7884 70.0398C88.6516 71.388 87.2016 72.0246 85.3252 71.9993C84.1789 71.9838 75.0649 69.7251 52.7508 63.9265V63.9265ZM86.9121 68.7128C87.8449 68.2136 88.4542 66.4905 89.1957 62.2553C90.1608 56.743 90.1624 53.9248 89.2018 51.9969C87.8114 49.2069 86.2591 47.9223 71.9534 37.7237C64.3746 32.3207 57.6747 27.4053 57.0649 26.8005C55.4172 25.1665 54.6678 23.3794 54.5183 20.7279C54.363 17.972 54.7497 16.0959 55.9921 13.579C57.0472 11.4416 58.6543 9.63324 60.1145 8.94033C60.6312 8.69515 63.1262 8.05008 65.6589 7.50685C73.2937 5.86925 77.0384 6.12006 78.4046 8.36051C79.4821 10.1275 78.8725 12.6181 76.5919 15.766C75.4424 17.3527 75.348 18.4748 76.2512 19.8151C77.0087 20.939 77.9366 21.3082 79.3418 21.0446C80.2109 20.8816 81.0903 20.1701 84.4012 16.9515C86.732 14.6856 88.9952 12.7414 89.8107 12.3045C91.2458 11.5356 97.6885 9.89443 99.2719 9.89443C100.449 9.89443 102.085 10.8486 102.703 11.8959C103.325 12.9478 103.353 14.8487 102.761 15.7525C102.516 16.1257 100.353 18.2259 97.9543 20.4197C94.0793 23.9632 93.5046 24.6034 92.8068 26.1543C92.1601 27.5916 92.0234 28.267 92.033 29.9768C92.0558 34.043 93.5331 35.8181 100.502 40.1539C108.587 45.1838 111.371 46.7677 111.97 46.6784C112.87 46.544 113.459 45.5012 114.966 41.3699C116.785 36.385 116.848 35.536 115.79 30.3209C114.227 22.6224 110.325 14.5119 106.858 11.756C104.15 9.60364 104.121 9.59493 87.4444 5.9392C72.2692 2.61258 71.1724 2.53848 62.7041 4.26768C59.9711 4.82576 22.8358 14.6741 17.496 16.257C13.0909 17.5628 11.0238 18.9193 11.0238 20.5045C11.0238 21.2599 11.3624 21.708 13.3214 23.5457C16.8992 26.9018 17.2286 28.061 15.5105 31.2476C13.1111 35.6978 12.8981 36.256 12.7446 38.4956C12.2878 45.1601 15.9468 50.6777 22.2304 52.7997C25.6241 53.9458 84.0482 68.9554 85.1949 68.9758C85.8474 68.9874 86.6201 68.8691 86.9121 68.7128Z" fill="#3D4143"/>
<path d="M39.2035 2.70194L39.6552 4.07102L40.1069 5.4401L35.5237 6.25928L30.9405 7.07846L35.072 4.8902L39.2035 2.70194Z" fill="#3D4143"/>
</svg>
