<svg width="128" height="72" viewBox="0 0 128 72" fill="none" xmlns="http://www.w3.org/2000/svg">
<path d="M48.8885 62.0487C33.1284 57.9533 19.5973 54.3441 18.8194 54.0284C17.0343 53.3039 14.2959 51.3878 12.9424 49.9162C10.5133 47.2751 9.02557 43.3271 9.02557 39.5221C9.02557 36.413 9.71899 34.2897 11.7285 31.2453C13.0345 29.2666 12.9379 28.9216 10.4008 26.5022C7.89375 24.1116 7.50012 23.4826 7.50012 21.8672C7.50012 19.3927 9.2647 17.6154 13.2263 16.0998C14.8697 15.4711 51.0406 5.66771 56.1872 4.45613C58.8722 3.82404 64.6586 2.92781 66.07 2.92542C66.6113 2.9245 68.2703 3.10276 69.7565 3.32154C73.4127 3.85977 93.8927 8.39615 96.0539 9.1465C99.3481 10.2902 102.045 12.4592 104.029 15.561C105.207 17.403 107.659 22.54 108.542 25.0159C109.387 27.3866 110.717 33.8907 110.72 35.668C110.721 36.5919 110.358 38.1058 109.561 40.4986C107.964 45.2917 106.881 47.4886 105.775 48.1718C104.653 48.8652 103.343 49.0777 102.342 48.7286C101.91 48.578 98.3363 46.4763 94.401 44.0581C85.018 38.2925 83.6391 36.9411 82.6095 32.5016C82.0965 30.2897 82.452 28.0056 83.6962 25.5185C84.489 23.9337 85.0291 23.3427 88.6915 20.0521C92.0573 17.0279 92.7979 16.2397 92.7979 15.6814C92.7979 15.0847 92.6858 14.9908 91.8946 14.9243C90.7213 14.8257 85.8597 15.977 84.4823 16.6796C83.8933 16.9801 81.8051 18.7964 79.8418 20.7158C76.0307 24.4417 75.3923 24.8957 73.5813 25.1672C70.6364 25.6089 67.9597 23.5516 67.3667 20.391C67.0936 18.9349 67.4213 17.8278 68.6792 15.9574C71.5123 11.7448 71.2828 11.0636 67.1982 11.5602C63.9632 11.9536 57.6304 13.2934 56.5768 13.8074C55.5387 14.3138 54.2129 16.3663 53.6145 18.3931C53.0086 20.4454 53.2124 23.6057 54.0322 24.8686C54.7106 25.9138 60.1117 29.9601 70.5518 37.2443C81.6115 44.9609 83.2378 46.3845 84.9502 49.8495C85.8074 51.5837 85.9001 51.9809 86.0012 54.3507C86.0943 56.5307 85.9819 57.6249 85.3044 61.1354C84.4117 65.7612 84.1757 66.4782 83.1433 67.7027C82.0919 68.9496 80.7508 69.5384 79.0154 69.515C77.9553 69.5007 69.526 67.4117 48.8885 62.0487ZM80.4831 66.4754C81.3458 66.0137 81.9093 64.4201 82.5951 60.5031C83.4877 55.405 83.4892 52.7985 82.6007 51.0155C81.3148 48.4351 79.8791 47.247 66.6483 37.8147C59.6389 32.8177 53.4425 28.2715 52.8785 27.7122C51.3546 26.201 50.6615 24.5482 50.5232 22.0959C50.3796 19.5471 50.7373 17.8119 51.8863 15.4842C52.8622 13.5074 54.3485 11.8348 55.699 11.194C56.1768 10.9672 58.4843 10.3706 60.8267 9.86823C67.888 8.35368 71.3512 8.58563 72.6148 10.6577C73.6114 12.292 73.0475 14.5955 70.9383 17.5068C69.8752 18.9743 69.7879 20.0121 70.6232 21.2517C71.3237 22.2912 72.182 22.6326 73.4816 22.3888C74.2854 22.238 75.0987 21.58 78.1608 18.6032C80.3165 16.5076 82.4097 14.7095 83.1639 14.3054C84.4912 13.5943 90.4498 12.0764 91.9142 12.0764C93.0027 12.0764 94.5156 12.9589 95.0877 13.9275C95.6625 14.9004 95.6887 16.6584 95.141 17.4944C94.9149 17.8395 92.9145 19.7819 90.6956 21.8109C87.1117 25.0882 86.5803 25.6802 85.9349 27.1146C85.3368 28.4439 85.2103 29.0685 85.2192 30.6499C85.2403 34.4105 86.6066 36.0523 93.0521 40.0623C100.529 44.7143 103.104 46.1792 103.658 46.0966C104.491 45.9723 105.035 45.0079 106.429 41.187C108.112 36.5766 108.17 35.7913 107.191 30.9682C105.746 23.8481 102.137 16.347 98.9303 13.7981C96.4258 11.8075 96.3989 11.7994 80.9754 8.41837C66.9404 5.3417 65.926 5.27316 58.094 6.87244C55.5663 7.38859 21.2212 16.497 16.2826 17.9609C12.2085 19.1686 10.2968 20.4232 10.2968 21.8893C10.2968 22.5879 10.6099 23.0024 12.4217 24.702C15.7306 27.8059 16.0354 28.878 14.4463 31.8252C12.2272 35.941 12.0302 36.4573 11.8882 38.5286C11.4657 44.6924 14.8498 49.7954 20.6613 51.758C23.8 52.8179 77.8344 66.6998 78.8949 66.7187C79.4984 66.7294 80.2131 66.6199 80.4831 66.4754Z" fill="#3D4143"/>
<path d="M36.3591 5.42434L36.7769 6.69055L37.1947 7.95676L32.9558 8.71439L28.717 9.47203L32.538 7.44818L36.3591 5.42434Z" fill="#3D4143"/>
</svg>
