<svg width="128" height="72" viewBox="0 0 128 72" fill="none" xmlns="http://www.w3.org/2000/svg">
<path d="M9.39326 64.7379C8.10258 64.2934 7.28495 63.3807 6.92173 61.979C6.53883 60.5013 7.40841 58.8335 8.99189 58.0085C9.33624 57.8291 10.8315 57.1552 12.3146 56.511C13.7978 55.8667 16.5685 54.645 18.4719 53.7959C22.0212 52.2127 23.8158 51.5086 25.7079 50.957C27.1234 50.5442 27.7691 50.4648 29.9775 50.4316C31.7891 50.4043 31.8407 50.3982 33.0337 50.0681C33.9228 49.8221 34.4405 49.7291 34.9702 49.7201C35.6416 49.7087 35.7443 49.733 36.4084 50.0599C36.9803 50.3414 37.2776 50.5703 37.8926 51.2029C38.7662 52.1014 39.4023 52.4609 40.2247 52.5208C40.6427 52.5513 40.865 52.4994 41.6629 52.1849C42.182 51.9804 42.7361 51.7556 42.8943 51.6854C43.0524 51.6153 43.4366 51.4922 43.7482 51.4119C44.4356 51.2346 44.8612 50.9852 45.0286 50.6615C45.0976 50.5282 45.1826 50.1175 45.2175 49.7489C45.2944 48.9382 45.5849 48.1792 46.0586 47.5518C46.5819 46.8587 48.5162 45.4297 49.3321 45.1335C50.6408 44.6583 51.6902 44.6141 52.9827 44.9796C53.734 45.1921 54.9645 45.2258 55.5271 45.0493C56.2983 44.8073 57.5202 43.5984 57.8285 42.7723C57.9125 42.5472 57.9609 42.0357 57.9675 41.3034C57.976 40.3447 58.0045 40.1338 58.1614 39.8667C58.3878 39.4814 58.8496 39.1601 59.7303 38.7751C60.5381 38.422 62.2848 37.4386 64.6202 36.022C69.1067 33.3007 69.8625 32.9092 71.2809 32.5727C72.2684 32.3384 72.5043 32.3167 74.0719 32.3157C75.2826 32.315 75.8159 32.283 75.8921 32.2067C76.0714 32.0275 76.0147 31.7315 75.7304 31.3618C74.785 30.1323 74.817 30.2635 75.2453 29.3737C75.4876 28.8703 76.5286 27.962 84.132 21.6196C85.8113 20.2188 88.1372 18.2589 89.3005 17.2641C94.9238 12.456 97.7503 10.3441 103.146 6.91909C106.505 4.78728 110.936 1.87966 111.376 1.51905C111.951 1.04762 113.029 0.584259 113.551 0.584259C114.945 0.584259 116.105 1.52502 116.356 2.85979C116.466 3.43848 116.463 3.45295 115.912 5.54103C114.453 11.0665 114.309 11.5407 113.549 13.3034C112.815 15.0073 112.254 16.0437 111.289 17.4831C109.224 20.5639 107.202 22.5122 102.921 25.5462C100.236 27.4493 98.5563 28.1939 95.5631 28.8072C94.119 29.103 92.8414 29.0579 89.0233 28.5759C85.406 28.1193 84.7659 28.1027 84.0899 28.4476C83.8674 28.5611 82.9977 29.1175 82.1573 29.6839C81.0584 30.4245 80.5743 30.8061 80.4338 31.0423C80.3263 31.223 80.1297 31.7753 79.997 32.2697C79.6817 33.4437 79.3818 34.0456 78.8315 34.6083C78.2053 35.2485 77.5917 35.5247 76.5393 35.6398C73.8183 35.9376 71.2798 36.6465 69.2135 37.6857C68.4921 38.0484 66.9256 39.0508 66.2921 39.5549C65.3794 40.2813 64.3504 41.4203 63.3708 42.7885C61.8497 44.9129 60.4924 46.1809 58.4519 47.3835C57.3378 48.0401 56.4626 48.4125 54.5618 49.0385C53.0715 49.5293 51.7149 50.1904 50.8764 50.8344C50.6292 51.0243 49.3006 52.2734 47.9239 53.6102C45.8437 55.6301 45.2653 56.1398 44.5004 56.6275C42.5104 57.8961 39.5719 58.9217 37.8975 58.9322C36.9502 58.9381 36.7141 58.8988 36.0449 58.6237C35.328 58.329 34.8929 57.9877 34.2467 57.2129C33.9143 56.8144 33.5277 56.4291 33.3875 56.3566C32.994 56.1531 32.5212 56.1972 31.4467 56.5374C29.7901 57.062 28.6278 57.1483 26.6929 56.8905C25.9496 56.7914 25.2298 56.7607 24.3595 56.7909C23.2523 56.8293 22.9662 56.8739 21.9775 57.1626C20.6447 57.5519 20.3011 57.7093 19.2515 58.4114C18.2201 59.1012 17.4034 59.9493 16.3796 61.3933C15.5046 62.6276 15.0753 63.0973 14.256 63.717C12.8354 64.7914 10.7934 65.2202 9.39326 64.7379ZM11.1746 62.8753C12.5523 62.6964 13.4824 62.0167 14.7512 60.2615C16.215 58.2364 17.584 56.9827 19.1652 56.2193C21.1306 55.2704 22.1551 54.9638 23.9663 54.7829C24.8379 54.6958 25.1959 54.7018 26.1236 54.8193C28.8447 55.1638 29.5024 55.125 31.3292 54.5121C32.5817 54.0919 33.1977 54.0543 33.9966 54.3495C34.5329 54.5476 34.8671 54.846 35.9995 56.1381C36.2711 56.4481 36.6352 56.7624 36.8085 56.8366C37.9376 57.3199 40.9406 56.5017 43.305 55.0666C44.1509 54.5532 45.1827 53.6397 47.0784 51.7262C49.1183 49.6671 50.6665 48.4988 52.3146 47.7751C53.1543 47.4064 53.5265 47.189 53.4328 47.122C53.3627 47.0718 52.1478 46.7629 51.7303 46.6891C51.2405 46.6025 50.3879 46.7427 49.8876 46.9922C49.3833 47.2437 47.8056 48.4666 47.5454 48.8077C47.4078 48.9882 47.2796 49.3511 47.1935 49.8042C46.9522 51.0741 46.7104 51.6227 46.1573 52.1552C45.5866 52.7047 44.9769 53.0069 42.8764 53.7812C41.0437 54.4569 40.6454 54.5487 39.767 54.4978C39.1612 54.4628 38.946 54.4018 38.3012 54.0823C37.6487 53.7589 37.4375 53.5902 36.7551 52.8467C36.3204 52.3731 35.8124 51.908 35.6264 51.813C35.2588 51.6255 34.7929 51.5912 34.4393 51.7256C34.3161 51.7725 33.7168 51.919 33.1076 52.0512C32.1754 52.2534 31.6655 52.3026 29.8876 52.3614C27.4567 52.4418 27.0826 52.5109 24.764 53.3079C22.97 53.9245 21.411 54.5656 18.382 55.9322C17.1213 56.5009 14.6379 57.6065 12.8633 58.389C9.02078 60.0833 8.85393 60.2046 8.85393 61.3025C8.85393 62.0227 9.08462 62.4285 9.63255 62.672C10.3711 63.0003 10.2921 62.9899 11.1746 62.8753ZM60.2721 43.5293C60.6333 43.1221 61.4438 42.1007 62.0733 41.2596C62.7028 40.4185 63.4242 39.5296 63.6764 39.2843C63.9285 39.0389 64.1348 38.802 64.1348 38.7577C64.1348 38.6101 63.6803 38.7887 63.163 39.1394C62.489 39.5963 60.6749 40.5667 60.2417 40.702C59.9163 40.8036 59.902 40.8239 59.9549 41.1075C60.0485 41.6096 59.8271 43.0959 59.5811 43.6169C59.376 44.0511 59.3634 44.2697 59.5434 44.2697C59.583 44.2697 59.911 43.9365 60.2721 43.5293ZM78.5371 30.6431C78.9947 29.6803 79.5114 29.1584 81.0787 28.0762C83.1591 26.6396 84.1293 26.2014 85.2265 26.2028C85.4665 26.2031 87.1798 26.3846 89.0337 26.6061C93.4522 27.1342 94.5351 27.1403 96.5247 26.6483C97.3984 26.4323 99.0431 25.7471 99.8202 25.2754C100.762 24.704 103.917 22.4324 105.016 21.5343C108.666 18.5537 111.377 14.4471 112.71 9.87983C112.982 8.94479 113.432 7.2985 113.709 6.22139C113.986 5.14428 114.271 4.09763 114.342 3.89548C114.528 3.3695 114.504 3.12481 114.241 2.86172C114.036 2.6574 113.954 2.63513 113.529 2.67036C113.115 2.7047 112.944 2.78502 112.299 3.25039C110.813 4.32296 108.957 5.55492 104.674 8.3132C97.4188 12.9857 97.1241 13.205 89.9225 19.2908C87.618 21.2381 83.7881 24.4494 81.4116 26.427C79.035 28.4045 77.0879 30.0655 77.0846 30.118C77.0813 30.1706 77.2038 30.3324 77.3567 30.4776C77.5096 30.6228 77.738 30.9438 77.8642 31.191C78.0892 31.6317 78.0955 31.6361 78.1852 31.4157C78.2355 31.2921 78.3939 30.9445 78.5371 30.6431Z" fill="black"/>
<path d="M90.6222 11.8444L91.5502 12.8017L92.4783 13.7591L88.9939 16.2891L85.5095 18.819L88.0658 15.3317L90.6222 11.8444Z" fill="black"/>
</svg>
