<svg  viewBox="0 0 128 72" fill="#3D4143" xmlns="http://www.w3.org/2000/svg">
<path d="M5.86583 71.7799C4.42172 71.2826 3.50689 70.2614 3.10049 68.693C2.67208 67.0397 3.64503 65.1736 5.41675 64.2506C5.80203 64.0499 7.475 63.2958 9.13445 62.575C10.7939 61.8542 13.8941 60.4872 16.0237 59.5372C19.9949 57.7658 22.0029 56.978 24.1198 56.3607C25.7037 55.8989 26.4261 55.81 28.8971 55.7729C30.9239 55.7424 30.9818 55.7356 32.3165 55.3662C33.3113 55.091 33.8905 54.9869 34.4832 54.9769C35.2345 54.9641 35.3493 54.9913 36.0924 55.357C36.7323 55.672 37.065 55.9282 37.7531 56.6359C38.7304 57.6412 39.4422 58.0435 40.3624 58.1105C40.83 58.1446 41.0788 58.0865 41.9715 57.7347C42.5524 57.5058 43.1723 57.2543 43.3493 57.1758C43.5262 57.0973 43.9561 56.9596 44.3047 56.8697C45.0738 56.6714 45.5501 56.3924 45.7373 56.0302C45.8145 55.881 45.9096 55.4215 45.9487 55.009C46.0347 54.102 46.3598 53.2528 46.8897 52.5508C47.4752 51.7753 49.6395 50.1765 50.5524 49.845C52.0167 49.3134 53.1909 49.2639 54.6369 49.6728C55.4776 49.9106 56.8544 49.9483 57.4839 49.7508C58.3467 49.4801 59.7138 48.1275 60.0588 47.2032C60.1528 46.9513 60.207 46.379 60.2143 45.5596C60.2239 44.487 60.2558 44.251 60.4313 43.9521C60.6846 43.521 61.2013 43.1615 62.1867 42.7308C63.0905 42.3357 65.0448 41.2354 67.6578 39.6504C72.6777 36.6056 73.5234 36.1676 75.1104 35.791C76.2152 35.5289 76.4792 35.5046 78.2331 35.5035C79.5878 35.5027 80.1844 35.4669 80.2697 35.3816C80.4703 35.181 80.4069 34.8499 80.0888 34.4362C79.031 33.0606 79.0668 33.2074 79.546 32.2118C79.8171 31.6486 80.9819 30.6323 89.4891 23.536C91.3681 21.9686 93.9704 19.7757 95.2721 18.6627C101.564 13.283 104.726 10.92 110.763 7.08788C114.521 4.70265 119.479 1.44939 119.972 1.04592C120.615 0.518446 121.822 0 122.405 0C123.965 0 125.262 1.05259 125.544 2.54604C125.666 3.19352 125.664 3.2097 125.047 5.54601C123.415 11.7283 123.253 12.2589 122.403 14.2311C121.582 16.1376 120.955 17.2971 119.875 18.9077C117.564 22.3547 115.301 24.5346 110.512 27.9293C107.508 30.0586 105.628 30.8918 102.279 31.5779C100.663 31.909 99.2338 31.8584 94.9619 31.3192C90.9145 30.8083 90.1984 30.7897 89.442 31.1756C89.1931 31.3026 88.22 31.9251 87.2797 32.5589C86.0502 33.3875 85.5085 33.8144 85.3513 34.0787C85.231 34.2809 85.0111 34.8988 84.8626 35.452C84.5098 36.7656 84.1742 37.439 83.5585 38.0686C82.8579 38.785 82.1714 39.0939 80.9939 39.2228C77.9494 39.5559 75.1092 40.3491 72.7972 41.5118C71.99 41.9177 70.2373 43.0393 69.5286 43.6033C68.5074 44.416 67.3559 45.6905 66.2599 47.2213C64.5581 49.5982 63.0394 51.0169 60.7563 52.3625C59.5098 53.0971 58.5305 53.5138 56.4038 54.2142C54.7364 54.7634 53.2185 55.5031 52.2803 56.2237C52.0037 56.4361 50.5171 57.8336 48.9768 59.3293C46.6493 61.5894 46.0022 62.1597 45.1463 62.7053C42.9198 64.1248 39.632 65.2723 37.7586 65.284C36.6986 65.2906 36.4345 65.2467 35.6857 64.9389C34.8836 64.6092 34.3968 64.2273 33.6737 63.3603C33.3018 62.9145 32.8692 62.4833 32.7123 62.4022C32.2721 62.1746 31.7431 62.2239 30.5409 62.6046C28.6873 63.1915 27.3869 63.2881 25.222 62.9996C24.3903 62.8888 23.5849 62.8544 22.6112 62.8882C21.3723 62.9311 21.0522 62.9811 19.9461 63.3041C18.4548 63.7397 18.0704 63.9158 16.896 64.7013C15.742 65.4732 14.8281 66.422 13.6827 68.0377C12.7036 69.4187 12.2233 69.9442 11.3066 70.6376C9.71721 71.8398 7.43239 72.3195 5.86583 71.7799V71.7799ZM7.85891 69.6959C9.40041 69.4958 10.4411 68.7352 11.8607 66.7713C13.4985 64.5055 15.0302 63.1029 16.7994 62.2487C18.9984 61.1869 20.1448 60.8439 22.1713 60.6414C23.1465 60.544 23.547 60.5508 24.585 60.6822C27.6296 61.0677 28.3654 61.0242 30.4094 60.3385C31.8108 59.8683 32.5 59.8263 33.3939 60.1566C33.994 60.3782 34.3679 60.7121 35.6349 62.1578C35.9388 62.5046 36.3461 62.8563 36.54 62.9393C37.8034 63.4801 41.1634 62.5646 43.8088 60.9589C44.7553 60.3844 45.9098 59.3624 48.0308 57.2214C50.3132 54.9175 52.0455 53.6104 53.8894 52.8007C54.8289 52.3881 55.2454 52.1449 55.1406 52.0699C55.0622 52.0138 53.7028 51.6681 53.2357 51.5855C52.6877 51.4886 51.7337 51.6456 51.174 51.9247C50.6096 52.2061 48.8444 53.5744 48.5534 53.956C48.3993 54.1579 48.2559 54.564 48.1596 55.071C47.8895 56.4918 47.619 57.1056 47.0002 57.7014C46.3616 58.3163 45.6795 58.6543 43.3293 59.5208C41.2787 60.2768 40.8331 60.3794 39.8502 60.3226C39.1724 60.2833 38.9317 60.2151 38.2102 59.8576C37.4801 59.4958 37.2439 59.307 36.4803 58.4751C35.9939 57.9452 35.4256 57.4248 35.2174 57.3186C34.8062 57.1088 34.2848 57.0704 33.8893 57.2208C33.7514 57.2732 33.0809 57.4371 32.3993 57.585C31.3562 57.8113 30.7857 57.8663 28.7965 57.9321C26.0765 58.0221 25.658 58.0994 23.0638 58.9911C21.0565 59.6811 19.3121 60.3983 15.9231 61.9274C14.5126 62.5638 11.7339 63.8008 9.74832 64.6763C5.44907 66.572 5.26239 66.7077 5.26239 67.9361C5.26239 68.7419 5.5205 69.1959 6.13357 69.4684C6.95988 69.8358 6.87157 69.8241 7.85891 69.6959V69.6959ZM62.7929 48.0501C63.197 47.5945 64.1039 46.4517 64.8083 45.5106C65.5126 44.5695 66.3197 43.575 66.6018 43.3005C66.884 43.026 67.1148 42.7608 67.1148 42.7113C67.1148 42.5462 66.6062 42.7459 66.0274 43.1383C65.2734 43.6496 63.2436 44.7354 62.7589 44.8867C62.3948 45.0004 62.3788 45.0232 62.4379 45.3404C62.5427 45.9022 62.295 47.5652 62.0198 48.1481C61.7903 48.634 61.7762 48.8785 61.9775 48.8785C62.0219 48.8785 62.3888 48.5057 62.7929 48.0501ZM83.2291 33.6321C83.7412 32.5548 84.3193 31.9709 86.0728 30.76C88.4005 29.1527 89.4861 28.6624 90.7137 28.6639C90.9823 28.6642 92.8992 28.8673 94.9735 29.1152C99.9173 29.706 101.129 29.7128 103.355 29.1624C104.333 28.9207 106.173 28.1541 107.042 27.6263C108.095 26.9869 111.626 24.4454 112.856 23.4404C116.94 20.1055 119.973 15.5108 121.464 10.4006C121.769 9.35439 122.272 7.51239 122.582 6.30724C122.892 5.1021 123.211 3.93102 123.291 3.70484C123.498 3.11634 123.471 2.84256 123.177 2.54819C122.948 2.31958 122.856 2.29467 122.38 2.33408C121.917 2.37251 121.727 2.46238 121.005 2.98307C119.341 4.18314 117.265 5.56155 112.473 8.64772C104.355 13.8757 104.026 14.121 95.9679 20.9302C93.3896 23.1091 89.1044 26.7021 86.4453 28.9147C83.7863 31.1274 81.6077 32.9858 81.604 33.0446C81.6003 33.1034 81.7373 33.2844 81.9084 33.4469C82.0795 33.6093 82.3351 33.9685 82.4763 34.2451C82.728 34.7382 82.735 34.7431 82.8354 34.4966C82.8917 34.3583 83.0689 33.9693 83.2291 33.6321V33.6321Z" />
<path d="M96.7509 12.5987L97.7892 13.6698L98.8276 14.741L94.929 17.5717L91.0304 20.4024L93.8906 16.5006L96.7509 12.5987Z" />
</svg>
