<svg width="128" height="72" viewBox="0 0 128 72" fill="none" xmlns="http://www.w3.org/2000/svg">
<path d="M31.4933 67.8901C31.1917 67.7062 30.5917 66.9846 30.1373 66.2592C28.9461 64.3574 28.7402 64.1419 25.9585 61.8877C24.5629 60.7567 23.2442 59.6788 23.028 59.4923C22.1403 58.7266 21.5138 56.5312 21.4516 53.9682C21.4427 53.6006 21.3234 53.4947 20.7206 53.3188C19.6836 53.0162 17.5511 51.5742 16.4854 50.4549C15.4142 49.3299 14.5763 47.4426 14.5908 46.187C14.5983 45.5273 14.7359 45.2404 15.6096 44.0622C16.1821 43.2901 18.9307 38.4804 21.9541 32.9603C27.2672 23.2595 27.2937 23.2154 28.6108 21.9177C30.0788 20.4713 31.0398 19.972 32.0067 20.1534C33.429 20.4202 36.6591 23.0228 39.153 25.9113C40.0852 26.991 40.9274 27.876 41.0245 27.8781C41.1216 27.8801 41.415 27.4432 41.6764 26.9071C41.9379 26.3711 42.4256 25.4749 42.7601 24.9156C43.5241 23.6383 47.2713 18.3019 47.8637 17.6477C48.4992 16.9458 49.5683 16.4982 50.186 16.6754C50.4576 16.7533 54.7983 19.2576 59.8319 22.2406C64.8655 25.2235 69.289 27.8154 69.6619 28.0004C70.9757 28.6519 72.3476 28.8843 76.4416 29.149C78.679 29.2937 82.1493 29.5243 84.1536 29.6614C92.5472 30.2357 99.4724 30.5972 100.056 30.4914C100.399 30.4292 100.969 30.2328 101.322 30.0549L101.966 29.7315L101.872 28.7642C101.821 28.2322 101.697 26.8873 101.596 25.7754C101.371 23.279 100.946 21.7926 99.2513 17.5562C97.8255 13.9932 97.5436 12.9884 97.5436 11.4698C97.5436 10.2277 98.0048 6.47449 98.2643 5.6049C98.5398 4.6817 99.4977 3.72356 100.383 3.48555C101.758 3.11595 102.828 3.71524 104.154 5.59813C105 6.79813 105.568 7.03325 107.628 7.03434C109.562 7.03536 110.197 7.2879 110.698 8.25531C111.134 9.09788 115.895 43.6839 115.776 45.1475C115.679 46.3484 115.551 46.6036 113.441 49.8312C111.818 52.3129 111.338 52.6953 109.86 52.6799C108.383 52.6644 98.9275 52.1463 95.0631 51.869C92.2053 51.664 91.7201 51.5858 90.98 51.2108C89.4201 50.4203 88.6081 49.1533 88.4158 47.2099L88.3062 46.1023L85.5943 45.9063C84.1028 45.7984 82.4487 45.7031 81.9185 45.6944L80.9546 45.6786L80.3954 48.0748C79.9 50.1974 79.7669 50.5492 79.229 51.1552L78.6219 51.8394L74.1419 51.6291C64.4024 51.1719 64.118 51.1217 62.8037 49.6287C61.8734 48.5717 61.6503 47.7847 61.7442 45.8904L61.8219 44.3226H60.0571C59.0409 44.3226 57.8812 44.2155 57.3233 44.0702C56.0584 43.7408 54.4299 42.9205 53.4752 42.1319C53.0557 41.7853 51.3015 40.3653 49.5769 38.9762C47.8523 37.5871 45.8028 35.8955 45.0225 35.217C43.3556 33.7678 42.9264 33.6609 42.6206 34.6191C42.509 34.9687 41.6913 37.2378 40.8034 39.6615C39.9156 42.0853 38.935 45.0169 38.6244 46.1763C38.3139 47.3356 37.3625 52.3696 36.5102 57.3629C35.658 62.3561 34.8422 66.6985 34.6975 67.0124C34.1756 68.1445 32.6126 68.5726 31.4933 67.8901ZM33.8485 56.6842C35.2963 48.2505 35.9271 45.2843 36.8195 42.7124C38.0263 39.2346 40.8025 31.8563 40.9913 31.6254C41.1143 31.4748 41.124 31.3646 41.0174 31.3285C40.1512 31.0348 39.4312 30.3953 37.8019 28.4721C35.8493 26.1675 34.1323 24.521 32.6351 23.5175C31.8403 22.9848 31.7096 22.9468 31.3445 23.1422C30.2874 23.7079 29.5696 24.8534 24.3871 34.2447C21.4569 39.5545 18.6731 44.4608 18.2008 45.1476L17.3422 46.3964L17.6345 47.1816C17.7953 47.6134 18.1084 48.211 18.3303 48.5094C18.8538 49.2135 21.2149 50.7623 21.7721 50.7671C22.0094 50.7692 22.5304 50.9191 22.9297 51.1004C23.9394 51.5586 24.3136 52.4132 24.3186 54.272C24.3206 55.0365 24.4053 56.0491 24.5068 56.5222C24.6894 57.3737 24.721 57.4064 27.6304 59.7537C30.4623 62.0386 31.187 62.7539 31.8746 63.9432C32.0503 64.247 32.2688 64.4707 32.3603 64.4402C32.4517 64.4097 33.1214 60.9196 33.8485 56.6842ZM111.679 47.5953L113.188 45.2768L110.855 28.0622C109.572 18.5942 108.483 10.5997 108.435 10.2967L108.347 9.74588H106.838C105.578 9.74588 105.197 9.67845 104.53 9.33789C103.196 8.6573 102.308 7.91676 101.762 7.03001C101.258 6.20979 101.044 6.04076 100.868 6.3243C100.689 6.61451 100.228 11.5627 100.312 12.2883C100.361 12.7078 101.028 14.6527 101.795 16.6104C103.825 21.7945 104.114 22.9152 104.444 26.8778L104.72 30.196L104.307 30.9457C103.77 31.9195 102.49 32.6914 100.782 33.0723C99.512 33.3553 99.2877 33.3467 85.7638 32.4946C75.856 31.8703 71.7517 31.5521 71.0178 31.3516C69.2466 30.8676 67.4983 29.9276 58.7863 24.7751C54.1099 22.0094 50.1719 19.7035 50.0353 19.6511C49.7832 19.5544 47.3215 22.7943 45.6185 25.4642C44.9083 26.5777 42.9768 30.2586 42.9556 30.5389C42.9508 30.6027 43.1817 30.7364 43.4688 30.8361C43.7558 30.9358 46.5827 33.1148 49.7508 35.6784C52.9549 38.2712 55.9911 40.5928 56.5929 40.9103C57.6291 41.4569 57.7783 41.486 60.1091 41.5971C62.9272 41.7314 63.4052 41.9041 64.062 43.0249C64.4535 43.6929 64.4923 43.9306 64.4923 45.6588C64.4923 47.4323 64.5191 47.5851 64.8948 47.9609C65.4085 48.4745 65.6499 48.5037 72.0201 48.8219C75.8281 49.012 77.2914 49.0324 77.3755 48.8963C77.4392 48.7933 77.6967 47.8135 77.9478 46.719C78.4786 44.4055 78.8026 43.7873 79.7334 43.3125C80.5527 42.8945 81.6557 42.8766 86.1639 43.2083C89.1451 43.4277 89.3054 43.4579 89.9775 43.9273C90.8115 44.5098 91.2534 45.5825 91.2649 47.0521C91.2737 48.1781 91.737 48.819 92.6523 48.9716C93.3811 49.0931 106.824 49.8624 108.73 49.8917L110.171 49.9138L111.679 47.5953Z" fill="black"/>
<path d="M120.379 39.3486L119.062 39.5538L117.744 39.7589L117.69 35.4532L117.636 31.1475L119.008 35.2481L120.379 39.3486Z" fill="black"/>
</svg>
