<svg  viewBox="0 0 128 72" fill="#3D4143" xmlns="http://www.w3.org/2000/svg">
<path d="M23.7704 71.6363C23.4355 71.4321 22.7693 70.6307 22.2647 69.8251C20.9418 67.7132 20.7131 67.474 17.6241 64.9706C16.0742 63.7146 14.6098 62.5176 14.3698 62.3106C13.384 61.4603 12.6882 59.0223 12.6191 56.1761C12.6092 55.7678 12.4768 55.6502 11.8073 55.4548C10.6558 55.1188 8.28769 53.5175 7.10417 52.2745C5.91459 51.0252 4.98419 48.9294 5.0002 47.5351C5.00862 46.8024 5.16136 46.4839 6.13164 45.1754C6.76739 44.3181 9.81974 38.9769 13.1772 32.8468C19.0773 22.0741 19.1068 22.0251 20.5694 20.584C22.1996 18.9778 23.2668 18.4233 24.3406 18.6247C25.92 18.921 29.5071 21.8112 32.2766 25.0189C33.3118 26.2179 34.247 27.2007 34.3549 27.203C34.4627 27.2052 34.7885 26.72 35.0788 26.1247C35.3692 25.5295 35.9107 24.5343 36.2822 23.9131C37.1306 22.4947 41.292 16.5687 41.9498 15.8421C42.6554 15.0628 43.8427 14.5657 44.5287 14.7624C44.8303 14.8489 49.6506 17.63 55.2404 20.9426C60.8303 24.2551 65.7426 27.1334 66.1566 27.3388C67.6156 28.0623 69.1391 28.3204 73.6856 28.6144C76.1701 28.7751 80.024 29.0311 82.2497 29.1834C91.5707 29.8211 99.2612 30.2225 99.9088 30.1051C100.29 30.036 100.923 29.8179 101.316 29.6204L102.03 29.2612L101.926 28.1871C101.87 27.5963 101.732 26.1027 101.62 24.8679C101.369 22.0957 100.898 20.445 99.0157 15.7406C97.4323 11.7838 97.1193 10.6681 97.1193 8.98159C97.1193 7.60221 97.6314 3.43432 97.9196 2.46864C98.2256 1.44343 99.2893 0.379415 100.273 0.115108C101.799 -0.295331 102.987 0.370175 104.46 2.46113C105.399 3.79373 106.031 4.05483 108.319 4.05604C110.466 4.05716 111.171 4.33762 111.727 5.41192C112.212 6.3476 117.499 44.7553 117.367 46.3806C117.258 47.7142 117.117 47.9977 114.773 51.5819C112.971 54.3378 112.438 54.7625 110.797 54.7454C109.157 54.7282 98.656 54.1528 94.3647 53.8449C91.1911 53.6172 90.6522 53.5304 89.8304 53.1139C88.0981 52.2361 87.1964 50.8291 86.9828 48.6709L86.8611 47.441L83.8496 47.2233C82.1932 47.1035 80.3563 46.9977 79.7676 46.988L78.6972 46.9704L78.0762 49.6314C77.5261 51.9886 77.3782 52.3792 76.781 53.0522L76.1067 53.812L71.1317 53.5785C60.316 53.0707 60.0001 53.015 58.5407 51.357C57.5075 50.1833 57.2598 49.3093 57.3641 47.2057L57.4503 45.4646H55.4905C54.3621 45.4646 53.0742 45.3457 52.4546 45.1844C51.0499 44.8185 49.2416 43.9076 48.1814 43.0318C47.7155 42.647 45.7674 41.07 43.8523 39.5274C41.9371 37.9848 39.6612 36.1063 38.7946 35.3529C36.9436 33.7435 36.4669 33.6248 36.1273 34.6889C36.0034 35.0771 35.0954 37.5969 34.1094 40.2885C33.1234 42.9801 32.0345 46.2357 31.6896 47.5231C31.3447 48.8105 30.2882 54.4008 29.3417 59.9458C28.3953 65.4909 27.4894 70.313 27.3287 70.6617C26.7492 71.9188 25.0135 72.3943 23.7704 71.6363V71.6363ZM26.3859 59.1922C27.9937 49.8265 28.6941 46.5325 29.6852 43.6765C31.0253 39.8144 34.1084 31.6208 34.3179 31.3644C34.4546 31.1971 34.4654 31.0748 34.347 31.0347C33.3851 30.7086 32.5855 29.9983 30.7761 27.8627C28.6078 25.3034 26.7011 23.475 25.0385 22.3606C24.1558 21.7691 24.0106 21.7268 23.6052 21.9438C22.4313 22.572 21.6342 23.844 15.879 34.2731C12.625 40.1696 9.5336 45.6181 9.00919 46.3808L8.05571 47.7676L8.3803 48.6395C8.55883 49.1191 8.90654 49.7826 9.15299 50.1141C9.73434 50.896 12.3563 52.6159 12.975 52.6212C13.2386 52.6235 13.8171 52.79 14.2606 52.9913C15.3819 53.5002 15.7974 54.4492 15.8029 56.5135C15.8052 57.3624 15.8993 58.4869 16.0119 59.0123C16.2147 59.9578 16.2499 59.9942 19.4807 62.6009C22.6256 65.1382 23.4303 65.9326 24.1939 67.2532C24.389 67.5907 24.6317 67.8391 24.7332 67.8052C24.8348 67.7714 25.5785 63.8955 26.3859 59.1922V59.1922ZM112.817 49.0989L114.492 46.5242L111.902 27.4074C110.477 16.8932 109.267 8.01536 109.214 7.67892L109.116 7.06719H107.441C106.042 7.06719 105.618 6.99232 104.877 6.61413C103.396 5.85833 102.41 5.03596 101.804 4.05122C101.244 3.14038 101.006 2.95266 100.811 3.26753C100.612 3.58981 100.1 9.08475 100.194 9.89053C100.248 10.3564 100.989 12.5162 101.84 14.6902C104.094 20.4472 104.415 21.6917 104.782 26.0922L105.089 29.7771L104.63 30.6096C104.033 31.691 102.612 32.5481 100.715 32.9711C99.3052 33.2855 99.0561 33.2759 84.0378 32.3296C73.0353 31.6363 68.4774 31.283 67.6624 31.0603C65.6955 30.5229 63.754 29.479 54.0794 23.7572C48.8862 20.6858 44.513 18.1252 44.3613 18.0669C44.0813 17.9595 41.3476 21.5575 39.4565 24.5224C38.6678 25.759 36.5229 29.8465 36.4993 30.1579C36.494 30.2287 36.7504 30.3772 37.0692 30.4879C37.388 30.5986 40.5273 33.0184 44.0454 35.8653C47.6035 38.7445 50.9752 41.3227 51.6436 41.6753C52.7942 42.2822 52.9599 42.3146 55.5483 42.438C58.6777 42.5871 59.2086 42.7788 59.938 44.0235C60.3727 44.7654 60.4159 45.0293 60.4159 46.9485C60.4159 48.9179 60.4455 49.0877 60.8628 49.5049C61.4332 50.0753 61.7013 50.1077 68.7755 50.461C73.0043 50.6722 74.6292 50.6948 74.7226 50.5437C74.7933 50.4293 75.0793 49.3413 75.3581 48.1258C75.9476 45.5566 76.3074 44.8702 77.341 44.3429C78.2509 43.8787 79.4758 43.8588 84.4821 44.2272C87.7927 44.4708 87.9708 44.5044 88.7171 45.0257C89.6433 45.6725 90.1341 46.8638 90.1468 48.4958C90.1566 49.7461 90.671 50.4579 91.6874 50.6273C92.4968 50.7622 107.425 51.6165 109.542 51.6491L111.142 51.6736L112.817 49.0989Z" />
<path d="M122.478 39.941L121.015 40.1688L119.552 40.3966L119.492 35.6152L119.432 30.8337L120.955 35.3874L122.478 39.941Z" />
</svg>
