<svg  viewBox="0 0 128 72" fill="#3D4143" xmlns="http://www.w3.org/2000/svg">
<path d="M67.6079 60.2532C65.4387 60.1592 62.8223 59.6723 59.9732 58.8325C57.7377 58.1735 56.801 57.8232 55.2333 57.0596C54.4207 56.6638 53.225 56.1295 52.5762 55.8722C51.2915 55.3627 48.9382 54.6618 47.9699 54.5003C46.8797 54.3185 44.3581 54.3182 35.0172 54.4987C23.7265 54.7169 23.2424 54.7197 21.7993 54.5768C19.3965 54.3388 16.3786 53.7477 14.2318 53.0945C11.8445 52.3681 10.8527 52.2156 8.91774 52.2774C8.1932 52.3005 7.19955 52.3792 6.69794 52.4531C5.55801 52.6211 5.0932 52.6215 4.17039 52.455C2.57048 52.1664 1.51906 51.6189 0.839062 50.7203C0.371236 50.102 0.20902 49.5635 0.0363844 48.0554C-0.161622 46.3256 0.458491 44.3797 1.65398 42.9794C2.12086 42.4325 3.59319 41.2575 4.59869 40.6294C6.44935 39.4733 7.87995 39.0272 10.2629 38.8633C12.0266 38.7419 12.8224 38.8621 14.1125 39.4445C15.4387 40.0433 16.0599 40.513 18.0996 42.4596C19.7109 43.9972 20.0815 44.2405 21.0853 44.4195C22.066 44.5944 22.9118 44.5136 24.0864 44.1328C24.9111 43.8654 25.719 43.4312 26.8005 42.6741C28.8675 41.2269 30.7206 40.4665 32.562 40.3098C33.7212 40.2112 35.6178 40.5742 36.6458 41.0914C36.8785 41.2085 38.3705 42.0679 39.9613 43.0011C43.5354 45.0977 44.5471 45.6868 46.7216 46.9371C47.665 47.4795 49.2999 48.4246 50.3547 49.0373C54.0939 51.2091 55.2335 51.7784 57.0807 52.3971C58.9506 53.0235 61.0858 53.3675 62.6436 53.2934C66.1401 53.1271 69.1102 52.2804 71.5391 50.7574C72.2603 50.3053 73.1757 49.3139 73.4971 48.6372C73.9012 47.7862 73.9239 47.6022 73.9311 45.121C73.9376 42.874 73.9382 42.8657 74.122 42.2285C74.361 41.4002 74.4955 41.1303 74.9666 40.534C75.561 39.7815 75.9963 39.4471 78.122 38.1102C79.0704 37.5137 79.5485 36.8638 79.4094 36.36C79.3025 35.9728 78.5647 35.3388 77.4578 34.6829C76.9239 34.3666 71.6137 31.2541 65.6572 27.7663C59.7007 24.2785 54.0122 20.9417 53.016 20.3512C52.0198 19.7607 50.7485 19.0197 50.1908 18.7045C49.6331 18.3893 48.965 18.0013 48.706 17.8422C46.3266 16.3805 42.0868 15.825 38.4121 16.4934C36.3913 16.8611 34.0454 17.7845 31.8208 19.088C30.0137 20.1469 29.8227 20.2334 28.6101 20.5411C27.7164 20.7679 27.5627 20.7868 26.3398 20.82C24.8471 20.8605 24.1809 20.7942 23.1951 20.5072C21.9402 20.1419 21.6996 19.9991 17.6326 17.2037C16.7467 16.5948 15.8745 15.945 15.6943 15.7597C15.087 15.1353 14.855 14.4362 14.9299 13.457C14.9903 12.6678 15.159 12.2696 15.6265 11.8129C16.0762 11.3736 16.4112 11.1899 17.0205 11.0486C17.4887 10.94 16.61 10.9089 47.4615 12.1271C51.6607 12.2929 57.0336 12.5047 59.4014 12.5977C61.7692 12.6908 64.8416 12.8124 66.2289 12.868C67.6163 12.9236 72.9892 13.1354 78.1688 13.3387C83.3483 13.542 89.4931 13.7834 91.8239 13.8753C94.1547 13.9672 99.9211 14.194 104.638 14.3794C109.355 14.5648 115.152 14.7926 117.52 14.8856C124.996 15.1794 125.562 15.2125 126.197 15.3929C126.56 15.496 127.076 16.0384 127.374 16.6302C127.601 17.0808 127.61 17.1236 127.602 17.8074C127.596 18.4753 127.558 18.6612 126.955 20.9722C126.604 22.3226 126.329 23.4612 126.344 23.5024C126.36 23.5437 126.45 23.6128 126.545 23.656C126.744 23.7464 127.501 24.3145 127.628 24.4677C127.774 24.6451 127.92 25.0276 127.981 25.3924C128.057 25.8529 127.933 26.168 127.073 27.7021C125.604 30.3197 124.925 30.958 122.875 31.6508L122.161 31.8921L119.807 31.8779C117.418 31.8635 116.959 31.8967 116.492 32.1183C115.891 32.4033 115.382 33.2312 115.261 34.1201C115.164 34.8336 115.219 35.1329 115.545 35.6445C115.906 36.212 116.674 36.8078 118.321 37.7978C119.634 38.5876 120.436 39.2355 120.843 39.8349C121.165 40.3088 121.288 41.3619 121.08 41.8595C120.8 42.531 120.112 43.1907 119 43.8565C117.745 44.6071 111.449 47.7102 107.732 49.4094C104.445 50.9126 103.925 51.1271 100.199 52.518C96.1048 54.0462 85.4411 57.7579 82.5411 58.664C80.395 59.3346 79.646 59.4983 77.1261 59.8472C75.0241 60.1382 74.3761 60.1896 71.9466 60.2577C69.5807 60.324 69.2342 60.3237 67.6079 60.2532V60.2532ZM73.0152 57.936C76.9562 57.675 78.5196 57.4359 81.1285 56.6952C84.4717 55.746 99.8271 50.4046 102.323 49.3227C106.712 47.4201 115.239 43.38 117.173 42.287C117.901 41.8752 118.808 41.2424 118.859 41.1108C118.942 40.8931 118.751 40.7448 117.049 39.7066C114.65 38.2442 113.951 37.6316 113.353 36.4708C112.967 35.7206 112.887 35.2872 112.934 34.1817C112.981 33.0772 113.052 32.8467 113.633 31.9061C114.507 30.493 115.131 30.0411 116.703 29.6854C117.079 29.6002 117.591 29.5839 119.494 29.5961C122.096 29.6129 122.294 29.59 122.968 29.1941C123.636 28.8023 123.9 28.489 124.736 27.1028C125.625 25.6277 125.601 25.8299 124.939 25.3696C124.582 25.1217 124.3 24.7709 124.174 24.4198C123.949 23.7876 124.121 22.7269 124.99 19.3865C125.316 18.1329 125.364 17.6546 125.171 17.5742C125.107 17.5472 115.503 17.1376 103.831 16.664C92.1586 16.1903 80.6862 15.7244 78.337 15.6286C74.1975 15.4598 65.9263 15.1257 59.0987 14.8516C57.2673 14.7781 54.0587 14.658 51.9684 14.5848C49.8781 14.5116 47.8702 14.434 47.5064 14.4124C46.9086 14.3769 46.8471 14.3841 46.8674 14.4871C46.8955 14.6303 46.9609 14.6628 47.6633 14.882C48.4126 15.1158 49.3583 15.6026 51.3294 16.7694C52.2173 17.2949 56.4248 19.7525 60.6794 22.2305C79.4694 33.1746 79.5589 33.2274 80.0382 33.6399C81.1962 34.6365 81.6547 35.3626 81.7464 36.3452C81.7792 36.6962 81.7525 36.8584 81.5735 37.3956C81.1463 38.6779 80.769 39.1064 79.1879 40.1049C77.3012 41.2964 76.6921 41.8248 76.3792 42.5414C76.2436 42.852 76.236 42.9896 76.2186 45.4237L76.2005 47.9798L75.8319 48.9888C75.6292 49.5437 75.4027 50.0975 75.3285 50.2193C75.0534 50.6709 73.9568 51.7704 73.2489 52.3046C71.9703 53.2692 70.1789 54.1518 68.4979 54.6453C66.8049 55.1422 65.9174 55.3271 64.3119 55.5176C60.4945 55.9705 56.1808 54.9328 52.002 52.5564C51.5951 52.325 50.5659 51.7483 49.715 51.275C48.8641 50.8017 45.4284 48.8185 42.0802 46.8679C38.732 44.9173 35.811 43.2305 35.589 43.1196C34.3416 42.4961 32.3583 42.4067 31.0485 42.9149C30.0326 43.309 28.5694 44.13 27.6472 44.8234C26.9878 45.3191 25.5204 46.0614 24.6245 46.3524C23.4636 46.7294 23.2749 46.7593 22.0347 46.7628C20.9303 46.7659 20.8181 46.7542 20.2185 46.5746C18.7942 46.1478 18.1684 45.7431 16.624 44.2497C14.5363 42.2311 13.7419 41.6485 12.5935 41.2944C12.2064 41.1751 11.9634 41.1524 11.08 41.1535C8.34618 41.1567 6.50882 41.8236 4.32705 43.6048C2.80197 44.8498 2.33824 45.7591 2.32915 47.5224C2.32606 48.1212 2.35505 48.3883 2.49686 49.0677C2.5939 49.5326 3.43789 50.0222 4.44504 50.1978C5.24058 50.3365 5.54333 50.3284 6.87097 50.1325C7.80546 49.9946 8.26294 49.9645 9.42224 49.9649C11.5903 49.9656 11.4863 49.9471 15.6444 51.0684C17.7133 51.6263 19.3284 51.981 20.5549 52.1469C22.7325 52.4415 25.6357 52.505 30.3422 52.361C35.3077 52.209 45.6206 52.0263 46.7552 52.0702C49.0775 52.1599 52.2562 53.1287 55.9035 54.8582C57.4818 55.6066 58.196 55.8958 59.5883 56.3501C61.2519 56.893 64.3334 57.6195 65.9121 57.8411C66.4401 57.9152 68.5596 57.9984 70.5676 58.0238C71.0856 58.0304 72.187 57.9908 73.0152 57.936V57.936ZM27.8869 18.3623C28.6681 18.1884 29.1408 17.9813 30.1879 17.3542C31.6903 16.4544 32.1131 16.2334 33.3473 15.7034C34.4525 15.2289 35.842 14.7559 37.2538 14.3738C37.8981 14.1995 38.0408 14.0438 37.5565 14.0437C37.3993 14.0436 36.302 13.9989 35.1181 13.9442C29.7315 13.6955 26.5368 13.5655 23.5146 13.4722C21.7203 13.4167 19.7004 13.3397 19.026 13.301C17.7059 13.2252 17.3187 13.2679 17.1927 13.5035C17.082 13.7104 17.1136 13.9454 17.2756 14.1194C17.551 14.4153 19.1478 15.533 21.1919 16.8608C23.7769 18.54 23.8443 18.563 26.0371 18.5166C26.9607 18.497 27.4738 18.4542 27.8869 18.3623V18.3623Z" />
<path d="M63.2217 22.6269L63.9477 21.4169L64.6737 20.2069L68.2107 23.0803L71.7477 25.9538L67.4847 24.2903L63.2217 22.6269Z" />
</svg>
