<svg width="128" height="72" viewBox="0 0 128 72" fill="none" xmlns="http://www.w3.org/2000/svg">
<path d="M67.2466 58.7587C65.197 58.6699 62.7247 58.2099 60.0325 57.4163C57.9202 56.7937 57.0351 56.4626 55.5538 55.7411C54.786 55.3672 53.6562 54.8623 53.0432 54.6192C51.8292 54.1377 49.6056 53.4755 48.6907 53.3229C47.6605 53.1511 45.2779 53.1508 36.4517 53.3213C25.7832 53.5275 25.3257 53.5302 23.9621 53.3951C21.6917 53.1702 18.8401 52.6117 16.8116 51.9945C14.5558 51.3082 13.6187 51.1641 11.7904 51.2224C11.1058 51.2443 10.1669 51.3186 9.69289 51.3884C8.61577 51.5472 8.17657 51.5475 7.30461 51.3902C5.79286 51.1175 4.79937 50.6002 4.15684 49.7511C3.71479 49.1669 3.56152 48.658 3.39839 47.233C3.2113 45.5986 3.79724 43.7599 4.92685 42.4367C5.36801 41.92 6.75921 40.8098 7.70931 40.2162C9.45799 39.1238 10.8098 38.7023 13.0614 38.5474C14.7279 38.4328 15.4798 38.5463 16.6989 39.0967C17.952 39.6624 18.539 40.1063 20.4663 41.9456C21.9888 43.3984 22.339 43.6283 23.2875 43.7975C24.2142 43.9628 25.0134 43.8865 26.1232 43.5266C26.9024 43.274 27.6658 42.8636 28.6877 42.1482C30.6409 40.7808 32.3919 40.0623 34.1318 39.9143C35.2271 39.8211 37.0192 40.1641 37.9905 40.6528C38.2104 40.7634 39.6202 41.5754 41.1234 42.4573C44.5005 44.4384 45.4565 44.9949 47.5112 46.1764C48.4026 46.6889 49.9474 47.5819 50.9441 48.1608C54.4773 50.213 55.5541 50.7509 57.2995 51.3356C59.0664 51.9274 61.0839 52.2525 62.5559 52.1825C65.8597 52.0253 68.6661 51.2252 70.9612 49.7862C71.6426 49.359 72.5076 48.4222 72.8113 47.7828C73.1931 46.9787 73.2146 46.8048 73.2214 44.4603C73.2275 42.3372 73.2281 42.3293 73.4018 41.7272C73.6276 40.9446 73.7547 40.6896 74.1998 40.1261C74.7614 39.415 75.1728 39.0991 77.1813 37.8359C78.0775 37.2723 78.5293 36.6581 78.3978 36.1821C78.2968 35.8162 77.5997 35.2172 76.5538 34.5975C76.0493 34.2985 71.0316 31.3576 65.4034 28.0619C59.7751 24.7663 54.4 21.6134 53.4587 21.0554C52.5174 20.4975 51.3161 19.7973 50.7892 19.4995C50.2623 19.2016 49.6309 18.835 49.3862 18.6846C47.1379 17.3035 43.1317 16.7786 39.6596 17.4102C37.7501 17.7576 35.5334 18.6302 33.4314 19.8618C31.7239 20.8624 31.5434 20.9441 30.3977 21.2349C29.5532 21.4492 29.408 21.467 28.2525 21.4984C26.842 21.5366 26.2125 21.474 25.281 21.2028C24.0953 20.8577 23.8679 20.7227 20.025 18.0813C19.188 17.506 18.3638 16.892 18.1935 16.7169C17.6197 16.1269 17.4004 15.4663 17.4713 14.5411C17.5283 13.7954 17.6878 13.4191 18.1295 12.9876C18.5544 12.5725 18.8709 12.3989 19.4467 12.2654C19.889 12.1628 19.0588 12.1334 48.2104 13.2845C52.1781 13.4411 57.255 13.6412 59.4923 13.7292C61.7296 13.8171 64.6327 13.932 65.9436 13.9845C67.2546 14.0371 72.3314 14.2372 77.2256 14.4293C82.1197 14.6214 87.9259 14.8496 90.1283 14.9364C92.3306 15.0232 97.7793 15.2375 102.236 15.4127C106.694 15.5878 112.171 15.8031 114.408 15.891C121.473 16.1686 122.007 16.1999 122.608 16.3703C122.951 16.4678 123.438 16.9802 123.72 17.5395C123.934 17.9652 123.942 18.0057 123.935 18.6518C123.929 19.2829 123.893 19.4585 123.324 21.6422C122.992 22.9182 122.732 23.994 122.746 24.033C122.761 24.072 122.847 24.1373 122.936 24.1781C123.124 24.2635 123.84 24.8003 123.959 24.9451C124.098 25.1127 124.236 25.4742 124.293 25.8188C124.365 26.2539 124.248 26.5517 123.435 28.0013C122.047 30.4746 121.405 31.0777 119.469 31.7323L118.794 31.9604L116.569 31.9469C114.312 31.9333 113.878 31.9648 113.437 32.1742C112.87 32.4434 112.389 33.2257 112.274 34.0656C112.182 34.7398 112.235 35.0226 112.542 35.506C112.884 36.0423 113.609 36.6053 115.165 37.5407C116.406 38.287 117.164 38.8991 117.548 39.4655C117.852 39.9133 117.969 40.9084 117.772 41.3785C117.507 42.0131 116.858 42.6364 115.807 43.2655C114.621 43.9748 108.672 46.9068 105.16 48.5124C102.054 49.9328 101.562 50.1355 98.0415 51.4498C94.1733 52.8938 84.0972 56.4009 81.357 57.2571C79.3291 57.8908 78.6213 58.0454 76.2404 58.3751C74.2542 58.6501 73.6419 58.6986 71.3463 58.763C69.1107 58.8257 68.7833 58.8253 67.2466 58.7587ZM72.356 56.5692C76.0798 56.3226 77.557 56.0967 80.0222 55.3968C83.1812 54.4999 97.6905 49.4528 100.049 48.4306C104.196 46.6327 112.253 42.8153 114.08 41.7825C114.769 41.3934 115.626 40.7955 115.674 40.6711C115.752 40.4654 115.572 40.3253 113.963 39.3443C111.697 37.9625 111.036 37.3836 110.471 36.2868C110.106 35.5779 110.031 35.1684 110.075 34.1239C110.12 33.0802 110.187 32.8624 110.736 31.9736C111.561 30.6384 112.151 30.2114 113.636 29.8753C113.992 29.7948 114.475 29.7793 116.274 29.7909C118.732 29.8068 118.919 29.7851 119.557 29.411C120.187 29.0408 120.437 28.7448 121.227 27.4349C122.066 26.0412 122.044 26.2322 121.418 25.7973C121.081 25.563 120.814 25.2316 120.696 24.8998C120.483 24.3025 120.645 23.3002 121.467 20.1439C121.775 18.9594 121.821 18.5074 121.638 18.4315C121.577 18.406 112.503 18.0189 101.474 17.5714C90.4445 17.1238 79.6043 16.6836 77.3845 16.593C73.4731 16.4335 65.6577 16.1179 59.2063 15.8589C57.4758 15.7894 54.444 15.676 52.4689 15.6068C50.4938 15.5376 48.5965 15.4643 48.2527 15.4439C47.6879 15.4103 47.6298 15.4171 47.6489 15.5145C47.6755 15.6498 47.7373 15.6804 48.401 15.8875C49.109 16.1085 50.0025 16.5685 51.8651 17.671C52.7041 18.1676 56.6797 20.4897 60.6999 22.8312C78.4545 33.1722 78.5391 33.2221 78.992 33.6119C80.0861 34.5536 80.5194 35.2397 80.6061 36.1681C80.637 36.4998 80.6118 36.653 80.4427 37.1606C80.039 38.3723 79.6825 38.7772 78.1885 39.7207C76.4058 40.8465 75.8303 41.3458 75.5346 42.0229C75.4065 42.3163 75.3992 42.4464 75.3829 44.7463L75.3657 47.1616L75.0175 48.115C74.826 48.6394 74.6119 49.1626 74.5418 49.2777C74.2819 49.7044 73.2457 50.7434 72.5767 51.2481C71.3687 52.1596 69.676 52.9935 68.0875 53.4598C66.4878 53.9294 65.6493 54.1041 64.1322 54.2841C60.5252 54.712 56.4491 53.7315 52.5007 51.4861C52.1161 51.2674 51.1437 50.7225 50.3396 50.2753C49.5356 49.828 46.2892 47.9541 43.1255 46.111C39.9618 44.2678 37.2017 42.674 36.992 42.5692C35.8133 41.9801 33.9393 41.8956 32.7017 42.3758C31.7418 42.7482 30.3592 43.524 29.4878 44.1792C28.8647 44.6476 27.4782 45.3489 26.6317 45.6239C25.5347 45.9802 25.3565 46.0084 24.1846 46.0117C23.141 46.0146 23.035 46.0036 22.4685 45.8339C21.1227 45.4306 20.5313 45.0482 19.072 43.637C17.0994 41.7297 16.3487 41.1792 15.2636 40.8446C14.8979 40.7318 14.6682 40.7105 13.8335 40.7114C11.2503 40.7145 9.51419 41.3447 7.45264 43.0277C6.01159 44.2041 5.57341 45.0633 5.56482 46.7295C5.5619 47.2953 5.58929 47.5476 5.72329 48.1896C5.81498 48.6289 6.61247 49.0915 7.56413 49.2574C8.31583 49.3885 8.6019 49.3808 9.85639 49.1957C10.7394 49.0654 11.1717 49.037 12.2671 49.0373C14.3157 49.038 14.2174 49.0205 18.1464 50.08C20.1013 50.6072 21.6274 50.9424 22.7863 51.0992C24.8439 51.3775 27.5871 51.4375 32.0343 51.3014C36.7262 51.1578 46.4709 50.9852 47.543 51.0266C49.7373 51.1114 52.7408 52.0268 56.1872 53.661C57.6785 54.3682 58.3533 54.6414 59.6689 55.0707C61.2408 55.5837 64.1525 56.2702 65.6442 56.4796C66.1432 56.5496 68.1459 56.6282 70.0433 56.6522C70.5327 56.6584 71.5734 56.621 72.356 56.5692ZM29.7143 19.1761C30.4525 19.0118 30.8991 18.8161 31.8885 18.2235C33.3081 17.3733 33.7076 17.1645 34.8739 16.6638C35.9181 16.2153 37.2311 15.7685 38.5651 15.4074C39.1739 15.2426 39.3087 15.0956 38.8511 15.0955C38.7025 15.0954 37.6657 15.0531 36.5471 15.0015C31.4573 14.7665 28.4386 14.6437 25.5829 14.5554C23.8875 14.503 21.9789 14.4303 21.3417 14.3937C20.0943 14.3221 19.7285 14.3625 19.6094 14.585C19.5047 14.7805 19.5346 15.0026 19.6877 15.167C19.9479 15.4466 21.4567 16.5027 23.3882 17.7574C25.8308 19.344 25.8945 19.3658 27.9664 19.3219C28.8391 19.3034 29.3239 19.263 29.7143 19.1761Z" fill="black"/>
<path d="M63.102 23.2057L63.788 22.0624L64.4741 20.919L67.8162 23.6342L71.1583 26.3493L67.1301 24.7775L63.102 23.2057Z" fill="black"/>
</svg>
