<svg width="128" height="72" viewBox="0 0 128 72" fill="none" xmlns="http://www.w3.org/2000/svg">
<path d="M11.6174 60.9158C9.76767 60.1371 8.03324 58.9901 6.52087 57.5452C5.32974 56.4073 4.97363 55.7427 4.97363 54.6577C4.97363 53.7633 5.26011 53.1815 5.96533 52.6436C6.48585 52.2466 6.67102 51.7478 7.05661 49.7041C7.88716 45.3019 10.7412 39.2072 15.4799 31.7165C16.974 29.3548 17.4449 28.7329 20.101 25.6148C21.8259 23.5897 26.0737 19.2917 27.4953 18.133C28.4225 17.3773 29.8931 16.5019 32.4594 15.1781C33.4622 14.6607 34.6063 13.9659 35.0018 13.6339C35.9703 12.821 36.8921 12.2123 37.4669 12.0063C38.1828 11.7496 38.9693 12.0531 40.258 13.0832C40.8389 13.5475 42.8109 15.0637 44.6402 16.4526C47.5578 18.6676 48.5648 19.3383 52.8395 21.9143C57.7125 24.8508 58.5112 25.3869 60.9741 27.3755L62.289 28.4372L65.2128 29.5454C68.6055 30.8313 70.3203 31.5681 71.3161 32.1678C71.7069 32.4031 73.2965 33.5307 74.8485 34.6737C78.4471 37.3237 79.0748 37.7455 79.771 37.9817C81.3842 38.5289 83.0822 38.5763 84.5519 38.1152C86.0157 37.6559 87.3159 35.9852 87.919 33.7885C88.157 32.9216 88.1806 32.6052 88.1065 31.2695C87.9443 28.3436 88.6538 26.5476 90.3615 25.5613C90.9409 25.2267 92.697 24.5856 93.8476 24.2888C95.6765 23.8169 110.901 21.8752 111.907 21.9856C112.8 22.0835 113.461 22.4361 114.001 23.1011C115.107 24.4653 115.346 25.7077 114.784 27.1717C114.733 27.3049 114.82 27.3895 115.068 27.4501C115.265 27.4979 116.512 28.0692 117.841 28.7194C119.951 29.7524 120.375 30.0123 121.197 30.7758C121.718 31.2589 122.242 31.8778 122.37 32.1598C122.804 33.115 122.637 34.1356 121.903 35.0052C121.551 35.4227 115.214 40.9754 112.69 43.0771C110.779 44.6685 107.055 46.719 103.476 48.1501C98.6786 50.0683 97.1324 50.4476 94.0691 50.4578C91.7231 50.4656 91.3795 50.3814 85.3613 48.322C76.4565 45.2748 75.6399 44.9721 73.694 43.9976C70.8961 42.5963 67.1923 40.1958 64.4522 38.0078C62.9368 36.7977 62.6542 36.7143 61.8714 37.2463C61.2415 37.6743 60.6468 37.6562 59.7449 37.1818C58.2428 36.3917 57.4789 35.5097 57.3144 34.3758L57.2329 33.814L49.2954 27.5851C44.9297 24.1592 41.1478 21.2278 40.8911 21.0709C40.1733 20.632 39.4752 20.6922 37.729 21.3435C35.7868 22.0679 34.4194 22.6965 33.66 23.214C32.5388 23.978 30.6086 25.5961 30.007 26.2762C29.0167 27.3958 28.9883 27.4847 28.9801 29.4919C28.9732 31.1732 28.9534 31.3103 28.6223 31.9708C28.4295 32.3553 26.6551 34.9295 24.6791 37.6912C20.8387 43.0585 20.6399 43.2779 19.6097 43.2824C19.3483 43.2835 18.8355 43.1709 18.4701 43.0321C18.0975 42.8905 17.7577 42.8279 17.6962 42.8894C17.6358 42.9498 16.9892 44.2753 16.2591 45.8351C14.7082 49.1487 14.4282 50.181 14.4282 52.5848C14.4282 53.9888 14.4453 54.0764 15.069 55.87C15.6099 57.4258 15.6971 57.8017 15.6288 58.2847C15.5175 59.0727 15.0019 60.0762 14.4129 60.6513C13.9645 61.0892 13.8479 61.1366 13.1253 61.1745C12.5092 61.2068 12.1705 61.1487 11.6174 60.9158ZM12.4598 57.6809C12.4109 57.5585 12.1331 56.7719 11.8424 55.933L11.3138 54.4075L11.3169 52.4371C11.3197 50.6466 11.3566 50.324 11.7214 48.9028C12.3855 46.3157 15.1424 40.5744 16.0548 39.8785C16.6486 39.4256 17.5917 39.3597 18.4113 39.7139C18.7491 39.8599 19.0924 39.9788 19.174 39.9781C19.2556 39.9775 20.0374 38.9359 20.9113 37.6634C21.7853 36.391 23.1683 34.4519 23.9846 33.3544C25.9414 30.7236 25.9274 30.753 25.797 29.5617C25.6019 27.7777 25.6561 27.4236 26.3093 26.2155C27.3386 24.3119 30.224 21.6266 32.7971 20.1776C34.9201 18.9822 38.251 17.7826 39.9056 17.6176C40.3195 17.5764 40.6763 17.4854 40.6984 17.4155C40.7206 17.3456 40.1084 16.8378 39.3381 16.2871C37.754 15.1546 38.0493 15.1638 36.8649 16.2107C36.5853 16.4579 35.3186 17.1872 34.0502 17.8313C29.6578 20.0618 28.0925 21.3463 23.2484 26.6953C19.622 30.6996 16.4671 35.528 13.1595 42.1354C11.4967 45.4572 10.6486 47.8072 10.0612 50.721C9.66719 52.6758 9.33372 53.5391 8.6903 54.2701C8.09032 54.9517 8.06605 54.8886 9.32281 55.9147C10.1614 56.5994 12.198 57.9033 12.4289 57.9033C12.4947 57.9033 12.5086 57.8032 12.4598 57.6809H12.4598ZM98.1369 46.8617C102.522 45.6168 108.136 42.809 111.04 40.4089C112.323 39.348 118.595 33.9602 119.105 33.481C119.35 33.2508 119.349 33.2447 119.049 32.9251C118.882 32.7473 117.805 32.1108 116.656 31.5105C114.811 30.5468 114.531 30.4355 114.259 30.5596C113.708 30.8105 113.582 31.3842 113.582 33.6399C113.582 35.5972 113.567 35.7247 113.269 36.2319C112.518 37.5146 110.832 37.9659 109.634 37.205C108.866 36.7171 108.348 35.938 108.273 35.1605C108.224 34.6483 108.293 34.3576 108.675 33.4785C108.996 32.7373 109.217 31.9348 109.402 30.8267C109.731 28.8637 110.144 27.9363 111.184 26.8242C111.842 26.1205 111.941 25.9517 111.906 25.5894L111.866 25.1698L110.976 25.1887C110.2 25.2052 102.529 26.153 97.2383 26.8862C93.5998 27.3904 91.872 27.9343 91.4273 28.7154C91.3313 28.8841 91.2468 29.9026 91.1995 31.4623C91.128 33.815 91.103 34.0058 90.7081 35.2123C89.8651 37.7882 88.4012 39.6376 86.4418 40.6019C84.2295 41.6907 81.4845 41.8089 78.9745 40.9235C77.3479 40.3497 77.0688 40.1721 72.7743 36.98C71.3399 35.9138 69.824 34.8492 69.4056 34.6144C68.9873 34.3795 67.1863 33.6224 65.4034 32.932C61.1088 31.2689 60.3202 30.886 59.1742 29.9075C57.5549 28.5248 55.9202 27.381 52.96 25.559C50.0855 23.7899 49.3189 23.3785 49.2167 23.5502C49.1859 23.602 51.5006 25.4634 54.3605 27.6866C57.6593 30.2509 59.6771 31.9051 59.8795 32.211C60.0621 32.4869 60.2316 32.9709 60.2755 33.3419C60.3682 34.1245 60.5859 34.2504 61.0996 33.8182C61.5882 33.4071 62.342 33.1879 62.9043 33.2934C63.4165 33.3894 63.4026 33.3802 67.7958 36.5533C69.5913 37.8501 71.5751 39.2314 72.2044 39.6229C73.6314 40.5107 76.0371 41.716 77.6142 42.3334C79.3845 43.0265 91.0199 46.964 91.908 47.1706C92.4456 47.2957 93.2711 47.3349 94.7047 47.3034C96.5202 47.2635 96.8887 47.216 98.1369 46.8617Z" fill="black"/>
<path d="M12.6874 28.749L11.6671 27.8907L10.6467 27.0324L13.8564 24.162L17.0662 21.2917L14.8768 25.0203L12.6874 28.749Z" fill="black"/>
</svg>
