<svg width="128" height="72" viewBox="0 0 128 72" fill="none" xmlns="http://www.w3.org/2000/svg">
<path d="M7.22928 62.3138C5.21654 61.4665 3.32925 60.2183 1.6836 58.6461C0.387489 57.4079 0 56.6848 0 55.5042C0 54.531 0.311725 53.8978 1.07909 53.3125C1.64548 52.8805 1.84697 52.3378 2.26654 50.1139C3.17029 45.3239 6.27589 38.692 11.4322 30.5412C13.0579 27.9713 13.5704 27.2946 16.4605 23.9017C18.3374 21.6982 22.9596 17.0214 24.5065 15.7605C25.5153 14.9382 27.1156 13.9857 29.908 12.5452C30.9993 11.9823 32.2442 11.2262 32.6745 10.865C33.7283 9.98045 34.7315 9.31811 35.3568 9.0939C36.1358 8.81462 36.9917 9.14486 38.394 10.2658C39.026 10.771 41.1718 12.4208 43.1624 13.932C46.3371 16.3423 47.4328 17.0721 52.0842 19.8751C57.3867 23.0703 58.2557 23.6538 60.9358 25.8176L62.3665 26.9728L65.5479 28.1787C69.2397 29.578 71.1056 30.3797 72.1892 31.0322C72.6144 31.2882 74.344 32.5153 76.0329 33.759C79.9486 36.6425 80.6316 37.1015 81.3892 37.3585C83.1446 37.9539 84.9922 38.0055 86.5914 37.5038C88.1843 37.004 89.599 35.1861 90.2553 32.7958C90.5143 31.8525 90.5399 31.5081 90.4593 30.0548C90.2828 26.871 91.0548 24.9167 92.913 23.8436C93.5434 23.4794 95.4544 22.7819 96.7063 22.4588C98.6964 21.9454 115.263 19.8326 116.357 19.9527C117.329 20.0592 118.049 20.4429 118.635 21.1665C119.839 22.651 120.1 24.0028 119.488 25.5958C119.433 25.7408 119.527 25.8329 119.797 25.8988C120.011 25.9508 121.368 26.5724 122.814 27.28C125.11 28.404 125.571 28.6867 126.466 29.5175C127.032 30.0433 127.603 30.7167 127.743 31.0236C128.215 32.0629 128.033 33.1734 127.235 34.1197C126.852 34.574 119.955 40.6161 117.209 42.903C115.13 44.6346 111.078 46.8658 107.183 48.423C101.963 50.5103 100.281 50.923 96.9473 50.9341C94.3946 50.9426 94.0207 50.8509 87.4722 48.6101C77.7826 45.2943 76.8941 44.965 74.7767 43.9045C71.7322 42.3798 67.702 39.7677 64.7203 37.3869C63.0714 36.0702 62.7639 35.9795 61.9121 36.5583C61.2267 37.024 60.5795 37.0043 59.5982 36.4881C57.9638 35.6284 57.1325 34.6686 56.9535 33.4348L56.8648 32.8235L48.2278 26.0457C43.4774 22.3179 39.3622 19.1281 39.0828 18.9573C38.3018 18.4798 37.5421 18.5453 35.642 19.254C33.5287 20.0423 32.0408 20.7262 31.2145 21.2894C29.9945 22.1207 27.8941 23.8814 27.2396 24.6214C26.162 25.8397 26.1311 25.9364 26.1221 28.1205C26.1146 29.95 26.0931 30.0991 25.7328 30.8178C25.523 31.2363 23.5922 34.0373 21.4421 37.0424C17.2633 42.8827 17.0469 43.1214 15.926 43.1263C15.6415 43.1276 15.0835 43.005 14.6859 42.854C14.2805 42.6999 13.9108 42.6318 13.8438 42.6988C13.7781 42.7644 13.0744 44.2068 12.2801 45.904C10.5925 49.5096 10.2878 50.633 10.2878 53.2486C10.2878 54.7763 10.3064 54.8716 10.985 56.8232C11.5737 58.5162 11.6685 58.9252 11.5942 59.4508C11.4731 60.3083 10.9121 61.4002 10.2712 62.026C9.78318 62.5025 9.65632 62.554 8.87003 62.5952C8.19967 62.6304 7.8311 62.5672 7.22928 62.3138V62.3138ZM8.1459 58.7937C8.09275 58.6606 7.79042 57.8047 7.47407 56.8918L6.89887 55.2319L6.90224 53.0879C6.9053 51.1396 6.94547 50.7886 7.34244 49.2421C8.06505 46.427 11.0649 40.1797 12.0577 39.4225C12.7039 38.9296 13.7301 38.8579 14.6219 39.2433C14.9895 39.4022 15.363 39.5316 15.4518 39.5309C15.5406 39.5302 16.3913 38.3967 17.3423 37.0122C18.2932 35.6276 19.7981 33.5177 20.6864 32.3234C22.8157 29.4607 22.8004 29.4927 22.6585 28.1965C22.4462 26.2553 22.5052 25.87 23.216 24.5554C24.3359 22.484 27.4757 19.562 30.2755 17.9854C32.5856 16.6846 36.21 15.3793 38.0105 15.1998C38.4609 15.1549 38.8491 15.0559 38.8732 14.9798C38.8973 14.9038 38.2312 14.3512 37.393 13.752C35.6693 12.5197 35.9906 12.5297 34.7018 13.6689C34.3975 13.9378 33.0193 14.7314 31.6391 15.4323C26.8596 17.8593 25.1563 19.257 19.8853 25.0774C15.9393 29.4347 12.5063 34.6886 8.90726 41.8783C7.0979 45.4928 6.17511 48.05 5.53598 51.2205C5.1072 53.3476 4.74434 54.287 4.04421 55.0824C3.39136 55.8241 3.36495 55.7554 4.73247 56.8719C5.64492 57.6169 7.86107 59.0358 8.11225 59.0358C8.18391 59.0358 8.19905 58.9269 8.1459 58.7937H8.1459ZM101.374 47.0211C106.145 45.6665 112.254 42.6112 115.413 39.9996C116.81 38.8452 123.635 32.9826 124.19 32.4612C124.456 32.2107 124.456 32.2041 124.129 31.8563C123.947 31.6629 122.775 30.9702 121.525 30.317C119.518 29.2684 119.212 29.1473 118.916 29.2823C118.317 29.5553 118.18 30.1796 118.18 32.634C118.18 34.7639 118.163 34.9026 117.84 35.4545C117.022 36.8503 115.188 37.3413 113.884 36.5134C113.049 35.9824 112.484 35.1347 112.403 34.2887C112.349 33.7313 112.425 33.415 112.84 32.4584C113.19 31.652 113.43 30.7787 113.632 29.5729C113.989 27.4369 114.439 26.4278 115.571 25.2177C116.287 24.452 116.394 24.2683 116.356 23.8741L116.313 23.4176L115.344 23.4381C114.5 23.456 106.153 24.4874 100.396 25.2852C96.4367 25.8338 94.5566 26.4256 94.0728 27.2756C93.9683 27.4591 93.8764 28.5674 93.8248 30.2646C93.7471 32.8246 93.7199 33.0322 93.2902 34.3451C92.3729 37.148 90.78 39.1603 88.6479 40.2096C86.2406 41.3944 83.2537 41.523 80.5225 40.5595C78.7525 39.9352 78.4488 39.742 73.7759 36.2686C72.215 35.1084 70.5655 33.95 70.1103 33.6944C69.6551 33.4388 67.6954 32.6151 65.7554 31.8638C61.0823 30.0541 60.2242 29.6375 58.9772 28.5727C57.2152 27.0682 55.4364 25.8235 52.2153 23.8411C49.0876 21.916 48.2533 21.4683 48.1422 21.6552C48.1086 21.7115 50.6273 23.737 53.7393 26.1561C57.3288 28.9464 59.5244 30.7463 59.7447 31.0793C59.9434 31.3795 60.1278 31.9062 60.1756 32.3098C60.2765 33.1614 60.5134 33.2984 61.0722 32.8281C61.6039 32.3807 62.4242 32.1422 63.0361 32.257C63.5934 32.3615 63.5782 32.3514 68.3586 35.8042C70.3123 37.2153 72.471 38.7184 73.1557 39.1444C74.7085 40.1103 77.3262 41.4219 79.0423 42.0937C80.9686 42.8479 93.6294 47.1324 94.5958 47.3572C95.1808 47.4933 96.079 47.536 97.6389 47.5017C99.6145 47.4583 100.015 47.4067 101.374 47.0211V47.0211Z" fill="#3D4143"/>
<path d="M8.39359 27.3122L7.28328 26.3782L6.17298 25.4443L9.66561 22.321L13.1582 19.1976L10.7759 23.2549L8.39359 27.3122Z" fill="#3D4143"/>
</svg>
