<svg width="128" height="72" viewBox="0 0 128 72" fill="none" xmlns="http://www.w3.org/2000/svg">
<path d="M67.3637 57.7216L51.7178 57.5855L51.2431 57.2233C50.982 57.0241 50.6757 56.6666 50.5623 56.4288C50.4489 56.1911 50.3191 55.9965 50.2739 55.9965C50.2287 55.9965 49.5385 56.2297 48.7402 56.5147C47.9419 56.7997 46.6881 57.1834 45.954 57.3673C44.646 57.6951 44.5327 57.7019 40.2972 57.7072C35.6081 57.7131 34.9413 57.6419 32.9242 56.9203C28.8802 55.4735 26.0968 52.8919 23.8827 48.5344C23.0378 46.8714 22.4848 45.4362 22.2392 44.2687C21.8625 42.4782 20.7801 35.9139 20.0856 31.2081C19.6986 28.5862 19.3551 26.3198 19.3221 26.1716C19.2775 25.9707 19.1318 25.8812 18.7502 25.8202C18.3946 25.7633 18.0922 25.5923 17.7601 25.2602C17.3637 24.8638 17.2465 24.6196 17.0747 23.8319C16.9608 23.3093 16.3991 21.7948 15.8267 20.4664C12.6284 13.0448 11.8625 11.1575 11.7959 10.5341C11.6583 9.24672 12.2489 7.69647 13.2629 6.68358C14.2104 5.73699 14.8988 5.47838 17.8604 4.95631C27.82 3.20066 27.4991 3.2374 28.3479 3.75551C29.1054 4.21792 29.7207 5.05931 33.9769 11.4521C36.355 15.024 38.7274 18.4592 39.249 19.0859C39.7706 19.7126 43.9095 23.7957 48.4465 28.1596C52.9836 32.5234 57.5623 36.9357 58.6215 37.9647L60.5472 39.8357L61.3545 39.6348C61.8067 39.5223 62.6931 39.434 63.3695 39.4342C64.3999 39.4344 64.6975 39.4855 65.397 39.7818C66.4784 40.2399 67.2337 40.7591 68.0128 41.5798L68.6517 42.2528L74.4323 42.3885C77.6117 42.4631 87.5349 42.6695 96.4839 42.8472C105.531 43.0269 113.007 43.2268 113.322 43.2974C115.198 43.718 116.8 45.5591 117.154 47.7034C117.714 51.0974 114.77 54.8977 110.42 56.3942C109.396 56.7464 106.955 57.2337 105.446 57.3868C99.8347 57.9562 97.0985 57.9803 67.3637 57.7216ZM99.9802 54.9182C105.481 54.5938 107.824 54.2662 109.799 53.5451C111.571 52.898 113.165 51.6255 113.891 50.278C114.415 49.3043 114.492 47.9026 114.063 47.1654C113.57 46.3188 113.137 46.1163 111.643 46.0323C110.926 45.992 101.445 45.7873 90.5733 45.5774C79.7013 45.3674 70.2911 45.1685 69.6617 45.1354C67.9118 45.0432 67.2944 44.7911 66.1553 43.7032C65.625 43.1967 64.9386 42.6678 64.6299 42.5277C63.9572 42.2226 62.9802 42.1967 61.9076 42.4557C60.7242 42.7414 60.0692 42.7016 59.3315 42.2993C58.8993 42.0635 56.0066 39.3636 50.4473 34.0068C39.6589 23.6116 37.8177 21.7991 36.8851 20.6571C36.4569 20.1327 34.0869 16.7005 31.6184 13.0299C29.1499 9.35926 27.053 6.33877 26.9586 6.31765C26.7746 6.27648 16.9682 7.99538 16.1818 8.20665C15.2531 8.45615 14.6853 9.23127 14.6831 10.2523C14.6827 10.4376 15.6273 12.7786 16.7822 15.4544C18.5036 19.4427 19.2796 21.4513 19.7011 23.01C19.7202 23.0806 20.0078 23.2111 20.3402 23.3C21.0062 23.4781 21.7415 24.1125 21.858 24.6094C21.8974 24.7778 22.5841 28.9485 23.3839 33.8776C24.1837 38.8067 24.9295 43.2309 25.0412 43.7093C25.6838 46.4601 27.6697 49.9636 29.6008 51.753C30.5303 52.6144 32.1448 53.5988 33.4962 54.1283C35.2077 54.7988 36.0127 54.8771 40.7045 54.8294L45.0006 54.7858L47.7973 53.8339C50.8903 52.7812 51.6863 52.6595 52.336 53.1403C52.7017 53.4109 53.1999 54.1978 53.1999 54.505C53.1999 54.6703 54.1567 54.7054 60.6046 54.7766C66.9451 54.8465 84.7038 55.0117 93.9419 55.0867C95.4801 55.0992 98.1973 55.0234 99.9802 54.9182Z" fill="#3D4143"/>
<path d="M101.25 60.0666L101.275 61.3998L101.3 62.7329L97.0266 62.2033L92.7533 61.6738L97.0019 60.8702L101.25 60.0666Z" fill="#3D4143"/>
</svg>
