<svg  viewBox="0 0 128 72" fill="#3D4143" xmlns="http://www.w3.org/2000/svg">
<path d="M3.00314 8.20309C3.00296 8.28758 3.02356 8.36785 3.03161 8.39919L3.03187 8.40021C3.04408 8.44782 3.06037 8.50188 3.07875 8.55885C3.11578 8.67369 3.16849 8.82252 3.23367 8.99827C3.36446 9.35099 3.55221 9.83032 3.78217 10.4002C4.2425 11.541 4.87662 13.0562 5.57366 14.6712C7.64927 19.4802 8.57016 21.8696 9.06746 23.7086C9.10332 23.8412 9.18081 23.927 9.2172 23.964C9.26105 24.0085 9.30709 24.0429 9.34386 24.0677C9.41821 24.118 9.50411 24.1622 9.58704 24.1998C9.75613 24.2766 9.96957 24.3513 10.1912 24.4105C10.504 24.4942 10.8606 24.6957 11.1565 24.951C11.4651 25.2172 11.6279 25.472 11.6625 25.6195C11.6623 25.6187 11.6625 25.6196 11.6631 25.6226C11.6645 25.6299 11.6682 25.6495 11.6751 25.6878C11.6837 25.7353 11.6953 25.8012 11.7097 25.885C11.7386 26.0523 11.7784 26.2875 11.828 26.5835C11.9272 27.1754 12.0652 28.0077 12.2318 29.0197C12.565 31.0436 13.0128 33.7846 13.4946 36.7543C14.456 42.6793 15.3587 48.0375 15.4985 48.6358C16.2937 52.0404 18.7344 56.3529 21.1401 58.5821C22.3123 59.6683 24.3135 60.8857 25.9918 61.5432C27.0538 61.9593 27.8578 62.1994 29.1222 62.3224C30.3611 62.4429 32.0454 62.4513 34.8657 62.4226L40.0429 62.37L40.123 62.3692L40.1989 62.3433L43.569 61.1963C45.4402 60.5595 46.5699 60.2213 47.3224 60.1063C47.6924 60.0498 47.9416 60.0524 48.1255 60.0865C48.3001 60.1189 48.4375 60.1835 48.58 60.289C48.7273 60.398 48.9482 60.6562 49.1408 60.9603C49.233 61.106 49.3084 61.2462 49.3589 61.3629C49.4013 61.461 49.4136 61.5141 49.4171 61.5293C49.4183 61.5347 49.4185 61.5353 49.4185 61.5316C49.4185 61.8682 49.6871 62.0157 49.7831 62.0576C49.8942 62.1061 50.0252 62.1317 50.1482 62.1496C50.4075 62.1873 50.8192 62.2145 51.4479 62.2375C52.7154 62.284 54.9537 62.3161 58.8362 62.3589C66.4776 62.4432 87.8785 62.6423 99.0114 62.7326C100.878 62.7478 104.163 62.656 106.321 62.5288C112.945 62.1381 115.838 61.742 118.296 60.8446C120.519 60.033 122.55 58.4301 123.495 56.6748C123.851 56.0147 124.048 55.2257 124.089 54.4831C124.13 53.75 124.021 52.9957 123.695 52.4353C123.372 51.8822 123.028 51.4688 122.469 51.2068C121.943 50.9606 121.275 50.8729 120.374 50.8222C119.499 50.773 108.058 50.5261 94.9656 50.2733C81.8554 50.0202 70.5298 49.7807 69.7824 49.7414C68.7407 49.6865 68.0969 49.5856 67.5564 49.3648C67.0217 49.1464 66.5465 48.7935 65.876 48.1532C65.5429 47.8351 65.1628 47.5117 64.8166 47.2449C64.4821 46.9871 64.1425 46.7534 63.899 46.6429C62.9475 46.2113 61.6442 46.1995 60.2945 46.5254C59.6024 46.6925 59.1038 46.7542 58.6886 46.729C58.2851 46.7046 57.9364 46.5964 57.5469 46.384L57.5469 46.384C57.546 46.3835 57.5398 46.3799 57.5269 46.3713C57.513 46.3621 57.4946 46.3492 57.4712 46.332C57.4243 46.2975 57.3637 46.2503 57.2883 46.189C57.1375 46.0663 56.9381 45.8957 56.688 45.6748C56.1884 45.2334 55.4984 44.602 54.6126 43.7751C52.8415 42.1221 50.2975 39.697 46.9483 36.4699C33.9288 23.9247 31.7444 21.7723 30.6453 20.4264C30.1481 19.8176 27.3096 15.7086 24.3262 11.2723C22.8379 9.05918 21.461 7.04125 20.4415 5.57261C19.932 4.83866 19.5103 4.23998 19.2081 3.82216C19.0575 3.61388 18.934 3.44693 18.8429 3.32961C18.7981 3.27185 18.7566 3.22016 18.7214 3.17989C18.7046 3.1607 18.6822 3.13596 18.6573 3.11236C18.6452 3.10095 18.6246 3.08212 18.5978 3.06257L18.5966 3.06174C18.5807 3.05003 18.5098 2.9981 18.4051 2.97468C18.3368 2.95939 18.275 2.96161 18.2647 2.96198L18.2636 2.96201C18.2407 2.96263 18.2182 2.96426 18.1992 2.96588C18.1604 2.9692 18.1132 2.97459 18.0613 2.98116C17.9562 2.99444 17.8126 3.01499 17.6383 3.04137C17.2886 3.09429 16.8024 3.17258 16.2247 3.26829C15.0688 3.45983 13.5395 3.72235 11.9884 3.99424C8.90638 4.53447 5.68138 5.12126 5.17943 5.25612C3.82394 5.62027 3.00617 6.7664 3.00314 8.20309ZM3.00314 8.20309L3.50314 8.20417L3.00314 8.20309ZM58.4241 44.2127L58.6235 44.4065L58.8933 44.3393L59.8661 44.0972C60.3581 43.9748 61.3825 43.8701 62.1734 43.8703C62.7929 43.8705 63.1556 43.8865 63.4602 43.9388C63.7551 43.9893 64.0147 44.0771 64.4218 44.2496C65.6641 44.7759 66.5167 45.3629 67.4064 46.3001L68.1764 47.1112L68.3195 47.262L68.5273 47.2668L75.4933 47.4303C79.3257 47.5203 91.2847 47.769 102.069 47.9832C107.519 48.0914 112.496 48.2057 116.157 48.3036C117.988 48.3526 119.488 48.3974 120.554 48.4352C121.088 48.4542 121.511 48.4713 121.811 48.4863C121.962 48.4938 122.079 48.5006 122.163 48.5067C122.24 48.5123 122.268 48.5161 122.268 48.5155C122.268 48.5154 122.265 48.5148 122.26 48.5137C124.292 48.9689 126.095 51.0001 126.494 53.4167C126.803 55.2892 126.151 57.3195 124.754 59.123C123.359 60.9236 121.244 62.4638 118.71 63.3354C117.524 63.7436 114.622 64.325 112.829 64.507C106.101 65.1897 102.839 65.2198 66.9912 64.908L48.3033 64.7454L47.8637 64.4099C47.7411 64.3164 47.5953 64.175 47.4631 64.0208C47.3278 63.8629 47.2327 63.7217 47.1913 63.6348C47.1151 63.475 47.0304 63.3231 46.9514 63.2046C46.9131 63.1472 46.8675 63.0846 46.8177 63.0307C46.7935 63.0046 46.7564 62.9673 46.7081 62.9328C46.6752 62.9094 46.5598 62.8291 46.3925 62.8291C46.3262 62.8291 46.2675 62.8435 46.2618 62.8449L46.2613 62.845C46.241 62.8497 46.2203 62.8552 46.2021 62.8603C46.1646 62.8708 46.118 62.885 46.0658 62.9014C45.9603 62.9347 45.8174 62.9818 45.6487 63.0388C45.3103 63.1531 44.8591 63.3102 44.3762 63.4826C43.4277 63.8213 41.9324 64.2787 41.0652 64.496C40.2887 64.6905 39.8951 64.7829 39.0712 64.8324C38.2207 64.8835 36.9296 64.8874 34.3692 64.8906C31.5364 64.8941 29.9518 64.8738 28.7729 64.748C27.6173 64.6247 26.8506 64.3998 25.6533 63.9715C20.9171 62.2771 17.6539 59.2644 15.0351 54.1102C14.0269 52.126 13.3814 50.4403 13.098 49.0933C12.6476 46.9524 11.3452 39.056 10.5081 33.3843C10.0446 30.2436 9.62644 27.4814 9.58153 27.2794C9.52782 27.0378 9.39597 26.8302 9.16285 26.687C8.96652 26.5664 8.72514 26.5095 8.4832 26.4708C8.18631 26.4233 7.91292 26.2844 7.56462 25.9361C7.34693 25.7184 7.23454 25.5712 7.1474 25.3896C7.05363 25.1942 6.97635 24.9326 6.87369 24.4619C6.72465 23.7785 6.02846 21.9117 5.34036 20.3149C3.41291 15.8423 2.2208 13.0428 1.50061 11.2682C1.14031 10.3803 0.90098 9.75599 0.747374 9.31025C0.590809 8.85593 0.534629 8.61836 0.520978 8.49062C0.373126 7.10699 1.01713 5.38403 2.14501 4.25732C2.6777 3.72518 3.11228 3.40777 3.82752 3.13906C4.5739 2.85866 5.62891 2.63004 7.4188 2.31452C7.75475 2.2553 8.08092 2.19778 8.39763 2.14194C13.7498 1.19818 16.3978 0.731251 17.8251 0.567825C18.5859 0.48071 18.9412 0.488146 19.1538 0.530577C19.3229 0.564316 19.4089 0.617186 19.6249 0.749945C19.6511 0.766033 19.6792 0.783294 19.7096 0.801836C20.077 1.02614 20.4425 1.34984 21.3771 2.62774C22.3097 3.90288 23.7703 6.07153 26.3372 9.9271C29.1948 14.2193 32.0722 18.3879 32.7224 19.1691C33.0568 19.5709 34.4855 21.0132 36.4828 22.9835C38.4934 24.9671 41.1088 27.5134 43.8437 30.144C49.3116 35.4031 54.8282 40.7192 56.1034 41.9582L58.4241 44.2127Z"  stroke="#3D4143"/>
<path d="M107.823 68.2338L107.852 69.8403L107.882 71.4468L102.733 70.8087L97.583 70.1705L102.703 69.2022L107.823 68.2338Z" />
</svg>
