<svg  viewBox="0 0 128 72" fill="#3D4143" xmlns="http://www.w3.org/2000/svg">
<path d="M72.2576 71.8999C71.6409 71.7498 71.2042 71.4657 70.1981 70.5605C68.9292 69.4188 68.2489 68.967 63.7775 66.2969C53.0051 59.8642 51.0741 58.641 47.3093 55.8653C44.3548 53.687 42.9245 52.5222 39.7303 49.6933C37.5649 47.7755 34.8119 45.2749 33.6125 44.1365C30.4162 41.1026 27.0544 38.3807 24.769 36.9763C22.3071 35.4636 15.0279 32.2614 6.47619 28.9294C2.73718 27.4725 2.38301 27.3091 1.84213 26.7917C1.30415 26.2771 0.920342 25.2308 1.01414 24.5344C1.0839 24.0165 1.45919 23.2685 1.90081 22.7672C2.42819 22.1685 7.56422 19.1885 10.4134 17.8281C13.1474 16.5226 17.3237 14.807 19.2569 14.1952C21.9649 13.3381 26.8332 12.1335 30.6445 11.3776C32.5434 11.001 36.1142 10.2316 38.5794 9.66785C41.0447 9.10411 44.1719 8.3968 45.5287 8.09604C48.5298 7.4308 51.1292 6.63574 55.3579 5.08965C59.1838 3.69086 64.9542 1.52802 67.2301 0.639816C68.744 0.048981 68.9421 0.00143199 69.8953 2.94484e-05C70.7963 -0.00129133 71.0019 0.0407792 71.54 0.336699C73.1398 1.21632 74.1317 2.84593 74.1328 4.59637C74.1337 5.35704 73.5178 8.41542 73.1188 9.63445C72.3379 12.0209 71.3815 13.7806 69.7719 15.793C66.3122 20.1182 63.1419 21.8463 55.4185 23.6167C51.2724 24.567 45.0841 26.2047 44.4777 26.5119C43.194 27.1625 42.3601 28.2474 41.8252 29.9628C41.5229 30.9324 41.5126 31.0446 41.6435 31.9425C41.7422 32.6196 41.9137 33.1446 42.2376 33.761C42.6552 34.5555 42.8243 34.7307 44.2706 35.8673C47.3081 38.2542 54.2116 43.4684 54.6916 43.7382C55.8837 44.4083 57.9133 44.57 59.0528 44.0857C59.8537 43.7454 60.8961 42.9456 61.3974 42.2868C62.0429 41.4384 62.0997 41.3088 62.3833 40.0356C62.7079 38.5785 63.4006 36.4341 63.8947 35.3567C65.1174 32.6909 67.5719 29.8049 70.049 28.1205C71.3335 27.2471 72.2583 26.8076 83.2212 21.8608C88.7181 19.3804 96.6943 15.774 100.946 13.8465C109.086 10.1563 110.164 9.74504 111.69 9.74623C114.358 9.74829 116.118 10.676 118.498 13.3343C121.524 16.7147 126.345 22.6414 126.98 23.761C127.34 24.396 127.378 24.5579 127.375 25.4332C127.372 26.6032 127.09 27.2739 125.761 29.2812C123.924 32.0531 121.566 34.5823 118.535 37.0298C114.15 40.5702 105.742 47.2235 91.2403 58.6267C79.7306 67.6774 74.9896 71.3366 74.4066 71.6194C73.586 72.0175 73.0358 72.0893 72.2576 71.8999V71.8999ZM73.9364 67.7911C74.3456 67.4678 82.3943 61.1283 91.8224 53.7033C114.85 35.5679 117.636 33.3477 118.779 32.2173C120.785 30.2333 122.963 27.453 123.7 25.9364C123.945 25.432 123.953 25.3603 123.784 25.1645C123.681 25.0457 121.71 22.6762 119.404 19.8987C115.104 14.7187 114.169 13.7479 113.234 13.4873C112.473 13.2755 110.961 13.3344 110.209 13.6051C108.811 14.1085 73.534 30.1344 72.6401 30.6723C69.9777 32.2744 67.8083 34.9148 66.6702 37.9385C66.5007 38.3888 66.1459 39.5684 65.8818 40.5597C65.145 43.3254 64.37 44.6242 62.6438 45.9865C61.6613 46.7619 59.9108 47.67 58.9711 47.8918C57.7175 48.1877 54.7039 47.7074 53.2737 46.9838C52.662 46.6744 49.9644 44.6672 44.1299 40.1805C40.2858 37.2243 39.8119 36.7662 39.0259 35.2459C38.4911 34.2115 38.2616 33.2569 38.1882 31.7621C38.1151 30.2716 38.2504 29.405 38.7652 28.0681C39.5594 26.0055 41.024 24.3453 42.8864 23.3962C43.9536 22.8524 44.5387 22.6865 51.5419 20.9411C56.2413 19.7699 59.5517 18.881 60.3854 18.5666C62.3072 17.8418 64.2541 16.617 65.5357 15.3265C67.2423 13.608 68.9969 10.7706 69.6987 8.59414C70.4904 6.13903 70.7402 4.15291 70.3162 3.68438C70.1973 3.553 69.979 3.4455 69.8312 3.4455C69.6833 3.4455 67.0887 4.37608 64.0653 5.51345C52.0551 10.0316 52.3848 9.9189 48.0893 10.9743C42.6173 12.3188 37.5198 13.4768 32.4011 14.5381C27.2912 15.5977 22.0714 16.9093 19.6809 17.7344C17.2601 18.5699 13.8169 20.0218 11.5643 21.1568C8.87357 22.5126 5.30735 24.5313 5.35427 24.672C5.37572 24.7364 7.92656 25.7841 11.0228 27.0004C20.9311 30.8926 24.9367 32.824 28.9485 35.6436C31.5037 37.4395 33.5667 39.2054 38.9403 44.1966C43.0157 47.9821 46.5159 50.9491 49.593 53.2268C51.9988 55.0076 58.1904 58.9176 65.6063 63.3394C69.8837 65.8898 71.0221 66.6249 71.9058 67.4075C72.4991 67.9328 73.0312 68.3662 73.0884 68.3707C73.1456 68.3752 73.5272 68.1143 73.9364 67.7911V67.7911Z" />
<path d="M100.836 54.8748L101.906 56.3185L102.976 57.7621L97.8726 60.5243L92.7689 63.2865L96.8025 59.0807L100.836 54.8748Z" />
</svg>
