<svg width="128" height="72" viewBox="0 0 128 72" fill="none" xmlns="http://www.w3.org/2000/svg">
<path d="M69.5731 60.3653C69.1155 60.2539 68.7915 60.0432 68.045 59.3716C67.1034 58.5244 66.5987 58.1892 63.2809 56.208C55.2879 51.435 53.8552 50.5274 51.0618 48.4679C48.8696 46.8516 47.8083 45.9873 45.4382 43.8883C43.8315 42.4653 41.7888 40.6099 40.8989 39.7653C38.5273 37.5141 36.0329 35.4945 34.3371 34.4525C32.5105 33.33 27.1093 30.9541 20.7641 28.4817C17.9898 27.4007 17.727 27.2795 17.3257 26.8956C16.9265 26.5138 16.6417 25.7374 16.7113 25.2207C16.7631 24.8364 17.0415 24.2814 17.3692 23.9094C17.7605 23.4652 21.5714 21.2541 23.6854 20.2447C25.714 19.2761 28.8128 18.0031 30.2472 17.5491C32.2565 16.9132 35.8688 16.0194 38.6967 15.4585C40.1057 15.1791 42.7551 14.6082 44.5843 14.1899C46.4135 13.7716 48.7338 13.2468 49.7406 13.0236C51.9674 12.53 53.8961 11.9401 57.0337 10.7929C59.8725 9.75505 64.1541 8.15025 65.8427 7.49122C66.966 7.05282 67.113 7.01754 67.8203 7.0165C68.4888 7.01552 68.6413 7.04674 69.0407 7.26631C70.2277 7.91897 70.9637 9.12813 70.9645 10.4269C70.9652 10.9913 70.5081 13.2606 70.2121 14.1651C69.6326 15.9358 68.923 17.2415 67.7287 18.7347C65.1617 21.9439 62.8094 23.2262 57.0787 24.5398C54.0023 25.2449 49.4107 26.46 48.9608 26.688C48.0082 27.1707 47.3895 27.9757 46.9926 29.2485C46.7683 29.968 46.7607 30.0512 46.8578 30.7174C46.931 31.2198 47.0583 31.6093 47.2986 32.0667C47.6084 32.6563 47.7339 32.7863 48.8071 33.6296C51.0608 35.4007 56.1831 39.2695 56.5394 39.4697C57.4238 39.9669 58.9298 40.0869 59.7753 39.7276C60.3696 39.475 61.143 38.8816 61.5149 38.3928C61.9939 37.7633 62.0361 37.6671 62.2465 36.7224C62.4873 35.6413 63.0013 34.0501 63.3679 33.2507C64.2752 31.2728 66.0964 29.1314 67.9344 27.8815C68.8874 27.2335 69.5736 26.9074 77.7079 23.2369C81.7866 21.3965 87.7048 18.7206 90.8597 17.2904C96.8996 14.5523 97.6991 14.2472 98.8315 14.2481C100.811 14.2496 102.117 14.938 103.883 16.9104C106.128 19.4186 109.706 23.8161 110.176 24.6468C110.443 25.118 110.472 25.2381 110.47 25.8876C110.467 26.7557 110.258 27.2534 109.272 28.7428C107.909 30.7995 106.159 32.6761 103.91 34.4921C100.657 37.1191 94.418 42.0557 83.6581 50.5168C75.118 57.2323 71.6002 59.9474 71.1676 60.1572C70.5587 60.4526 70.1505 60.5059 69.5731 60.3653ZM70.8188 57.3166C71.1224 57.0768 77.0944 52.373 84.0899 46.8637C101.176 33.4075 103.243 31.7601 104.091 30.9213C105.58 29.4492 107.196 27.3863 107.743 26.261C107.925 25.8867 107.93 25.8335 107.805 25.6882C107.729 25.6001 106.266 23.8419 104.555 21.7811C101.364 17.9375 100.671 17.2173 99.9768 17.0239C99.4128 16.8667 98.2906 16.9104 97.7327 17.1113C96.6953 17.4848 70.5202 29.3758 69.8569 29.7749C67.8814 30.9637 66.2718 32.9228 65.4273 35.1664C65.3016 35.5005 65.0383 36.3757 64.8424 37.1113C64.2956 39.1634 63.7206 40.1271 62.4398 41.1379C61.7107 41.7133 60.4119 42.387 59.7146 42.5516C58.7845 42.7712 56.5484 42.4148 55.4873 41.8779C55.0334 41.6483 53.0318 40.159 48.7027 36.8299C45.8504 34.6365 45.4988 34.2965 44.9156 33.1685C44.5188 32.401 44.3485 31.6927 44.294 30.5836C44.2397 29.4776 44.3402 28.8346 44.7221 27.8427C45.3114 26.3123 46.3981 25.0804 47.78 24.3762C48.5718 23.9727 49.006 23.8496 54.2023 22.5545C57.6892 21.6855 60.1454 21.026 60.7641 20.7927C62.19 20.2549 63.6346 19.3461 64.5855 18.3885C65.8518 17.1134 67.1537 15.0081 67.6744 13.3932C68.2619 11.5716 68.4472 10.0979 68.1326 9.75025C68.0444 9.65276 67.8824 9.573 67.7727 9.573C67.663 9.573 65.7378 10.2635 63.4945 11.1074C54.5831 14.4598 54.8277 14.3762 51.6405 15.1593C47.5803 16.1569 43.7981 17.0161 40 17.8036C36.2086 18.5898 32.3355 19.563 30.5618 20.1752C28.7656 20.7951 26.2108 21.8724 24.5394 22.7146C22.5429 23.7205 19.8968 25.2184 19.9316 25.3228C19.9475 25.3706 21.8402 26.148 24.1376 27.0505C31.4895 29.9384 34.4616 31.3715 37.4382 33.4636C39.3342 34.7961 40.8649 36.1064 44.852 39.8099C47.876 42.6186 50.4731 44.8201 52.7563 46.5101C54.5413 47.8314 59.1354 50.7326 64.6379 54.0135C67.8117 55.9059 68.6564 56.4514 69.3121 57.032C69.7523 57.4218 70.1471 57.7434 70.1895 57.7467C70.232 57.75 70.5151 57.5565 70.8188 57.3166Z" fill="black"/>
<path d="M90.7781 47.7329L91.5721 48.8041L92.3661 49.8752L88.5791 51.9248L84.7922 53.9743L87.7851 50.8536L90.7781 47.7329Z" fill="black"/>
</svg>
