<svg width="128" height="72" viewBox="0 0 128 72" fill="none" xmlns="http://www.w3.org/2000/svg">
<path d="M118.073 64.6006C116.49 64.1091 115.073 63.2123 114.376 62.2619C113.014 60.4023 113.419 58.1513 116.065 52.8646C116.825 51.3464 117.635 49.7619 117.864 49.3436C118.346 48.4643 118.383 48.0869 118.058 47.332C117.809 46.7539 117.464 46.5105 116.892 46.5105C116.515 46.5105 116.011 46.8473 114.659 48.005C113.452 49.0388 111.353 49.9741 109.115 50.476C107.573 50.8217 105.222 50.8706 103.747 50.5876C101.057 50.0715 99.3406 49.3 97.0814 47.592C95.8033 46.6258 94.6194 46.5086 93.5994 47.2475C93.3712 47.4128 93.1126 47.6872 93.0246 47.8574C92.7896 48.3118 92.8271 49.2758 93.1315 50.6052C93.5954 52.6311 93.4706 53.5677 92.616 54.4739C92.0753 55.0471 90.6718 55.2654 89.8287 54.9072C89.6198 54.8185 80.0573 49.9503 68.5787 44.089C57.1 38.2276 47.3313 33.2574 46.8704 33.0441C46.0042 32.6432 45.4796 32.5684 45.0907 32.7902C44.9688 32.8598 44.416 33.3942 43.8624 33.9779C42.3292 35.5942 41.292 36.0758 39.5952 35.9591C38.8898 35.9105 38.3882 35.7703 36.5625 35.1111C33.9155 34.1554 33.2886 33.857 32.3141 33.0889C31.3911 32.3615 30.0282 31.5493 28.1771 30.6235C25.2989 29.1841 24.4047 28.8574 20.8854 27.9593C17.6178 27.1255 16.935 26.9082 14.3911 25.8923C12.5872 25.172 12.1457 24.9364 11.593 24.3992C10.9881 23.8113 10.7669 23.1561 10.6804 21.6954C10.6232 20.7286 10.5824 20.5443 10.377 20.3258C10.2466 20.1869 10.0146 20.0485 9.86159 20.0182C9.70781 19.9877 8.65203 20.1767 7.5013 20.4406C5.57235 20.8829 5.37802 20.9094 4.85868 20.8005C4.147 20.6512 3.68073 20.2953 3.3702 19.6643C3.06724 19.0487 3.07411 18.6765 3.43065 16.3884C3.94562 13.0836 3.98214 12.9779 4.9349 12.0317C5.57708 11.3939 5.95643 11.1812 6.88026 10.9405C8.16088 10.607 9.39352 10.805 11.0486 11.6103C13.3614 12.7355 14.8072 14.1349 16.4882 16.875C17.5808 18.6561 17.5118 18.6051 19.249 18.918C27.7486 20.4489 62.2148 26.811 69.7282 28.2359C71.0683 28.49 72.2697 28.6979 72.3979 28.6979C72.567 28.6979 72.7978 28.4763 73.2382 27.8907C74.0335 26.8333 74.7268 26.1478 75.2235 25.9279C75.7287 25.7042 77.3593 25.6783 77.8766 25.8858C78.5252 26.1459 79.0569 26.5898 79.7917 27.485C80.4635 28.3034 80.5864 28.402 81.3542 28.7378C81.8125 28.9383 83.2656 29.6028 84.5833 30.2145L86.9792 31.3266L88.9287 31.7216C91.1198 32.1655 95.3701 32.961 98.9583 33.5988C106.34 34.9108 117.188 36.95 117.815 37.1434C119.337 37.6128 120.635 38.4402 122.007 39.8171C123.705 41.5199 124.22 42.7819 125.046 47.2757C125.968 52.2828 126.823 57.5229 126.823 58.1594C126.823 58.9958 126.389 60.4433 125.853 61.3954C125.343 62.3016 124.294 63.4011 123.485 63.8779C122.409 64.5122 121.496 64.7625 120.104 64.805C119.02 64.8381 118.75 64.811 118.073 64.6006ZM121.045 61.2856C122.22 60.8999 123.137 59.7964 123.395 58.4579C123.484 57.9929 123.439 57.5721 123.075 55.4688C122.841 54.1224 122.465 51.849 122.238 50.4167C121.706 47.066 121.577 46.4072 121.188 45.0651C120.652 43.2182 120.023 42.2585 118.754 41.3529C117.413 40.3966 117.371 40.3855 110.104 39.0646C106.438 38.3981 102.031 37.5763 100.313 37.2383C98.5938 36.9004 96.0391 36.4313 94.6354 36.196C92.3191 35.8077 87.5733 34.8944 86.4063 34.6123C86.1484 34.55 84.8594 34.0087 83.5417 33.4093C82.224 32.81 80.6771 32.1082 80.1042 31.8497C78.7697 31.2476 78.1701 30.7952 77.3972 29.8075C77.0542 29.3691 76.7413 29.0104 76.7018 29.0104C76.6624 29.0104 76.1937 29.5378 75.6603 30.1823C75.1269 30.8269 74.5726 31.4575 74.4286 31.5837C74.1129 31.8602 72.9723 32.1307 72.3958 32.0656C71.6701 31.9838 68.2894 31.4022 66.9846 31.1347C66.2941 30.9932 55.6979 29.0271 43.4375 26.7657C19.1447 22.2849 17.6678 22.0043 16.8306 21.7112C15.7136 21.3201 15.5442 21.1515 13.8029 18.6979C13.2133 17.8672 12.5224 16.9432 12.2676 16.6445C11.3196 15.5335 9.35661 14.2908 8.32658 14.1496C7.81443 14.0794 7.29249 14.2465 7.186 14.5148C7.09191 14.7518 6.73626 17.0726 6.78555 17.1279C6.80738 17.1524 7.28176 17.0651 7.83972 16.9339C9.21698 16.6099 10.5715 16.6508 11.4083 17.0417C12.2645 17.4416 13.2135 18.3714 13.6152 19.204C13.9093 19.8135 13.9542 20.0237 13.9918 20.969C14.0303 21.9383 14.0569 22.0569 14.266 22.1939C14.6294 22.432 17.9299 23.6579 19.1813 24.0195C19.8035 24.1993 21.1094 24.5304 22.0834 24.7552C24.0091 25.1996 25.9392 25.8398 27.6623 26.6056C29.0681 27.2304 32.4895 29.0966 33.4375 29.7557C33.8386 30.0346 34.4245 30.4437 34.7396 30.6649C35.3372 31.0844 38.9713 32.4768 39.8247 32.6132C40.3985 32.705 40.5183 32.6188 42.1413 30.9472C43.6665 29.3762 44.185 29.0341 45.1766 28.9441C45.7242 28.8944 45.9514 28.9293 46.5434 29.1538C47.1043 29.3664 82.8024 47.4928 88.2973 50.3551C89.0222 50.7327 89.6419 51.0158 89.6743 50.9841C89.7068 50.9524 89.6557 50.3747 89.5609 49.7003C89.3704 48.3448 89.4287 47.7773 89.8771 46.6253C90.2257 45.7293 91.4934 44.5042 92.6956 43.9013L93.6204 43.4375H94.831C96.5511 43.4375 97.3639 43.7232 99.1146 44.9432C100.822 46.1333 101.364 46.4265 102.552 46.8034C103.946 47.2456 104.726 47.3732 106.042 47.3741C107.583 47.3753 108.633 47.1998 109.985 46.7151C111.263 46.2571 112.279 45.6616 113.535 44.6347C115.346 43.1545 116.123 42.7911 117.256 42.8938C118.589 43.0147 120.213 44.1279 120.763 45.2978C121.421 46.6974 121.62 48.5277 121.253 49.8004C121.156 50.1394 120.449 51.6589 119.682 53.1771C117.572 57.3579 116.714 59.7429 117.111 60.3194C117.252 60.5238 118.205 61.1243 118.688 61.3136C119.34 61.5685 120.215 61.5581 121.045 61.2856Z" fill="black"/>
<path d="M72.7527 48.324L72.1216 49.4985L71.4904 50.673L68.0237 48.1189L64.557 45.5647L68.6548 46.9444L72.7527 48.324Z" fill="black"/>
</svg>
