<svg width="128" height="72" viewBox="0 0 128 72" fill="none" xmlns="http://www.w3.org/2000/svg">
<path d="M118.944 63.6988C117.305 63.19 115.838 62.2618 115.118 61.2781C113.708 59.3535 114.127 57.0237 116.866 51.5519C117.652 49.9805 118.49 48.3406 118.728 47.9076C119.227 46.9976 119.264 46.607 118.928 45.8256C118.671 45.2272 118.313 44.9753 117.721 44.9753C117.331 44.9753 116.81 45.3239 115.411 46.5222C114.161 47.5922 111.989 48.5602 109.672 49.0797C108.076 49.4375 105.643 49.4881 104.116 49.1952C101.332 48.661 99.5556 47.8625 97.2173 46.0948C95.8944 45.0947 94.669 44.9734 93.6134 45.7381C93.3772 45.9092 93.1095 46.1933 93.0184 46.3694C92.7752 46.8397 92.814 47.8375 93.1291 49.2134C93.6093 51.3102 93.4801 52.2796 92.5955 53.2175C92.0359 53.8108 90.5833 54.0367 89.7106 53.666C89.4945 53.5742 79.5972 48.5356 67.7167 42.469C55.8362 36.4025 45.7254 31.2583 45.2484 31.0375C44.3519 30.6226 43.8089 30.5451 43.4065 30.7747C43.2802 30.8467 42.7081 31.3999 42.1351 32.004C40.5483 33.6769 39.4747 34.1753 37.7185 34.0545C36.9885 34.0043 36.4693 33.8591 34.5797 33.1769C31.84 32.1877 31.1911 31.8789 30.1825 31.0839C29.2272 30.331 27.8166 29.4903 25.9007 28.5322C22.9218 27.0424 21.9963 26.7043 18.3538 25.7747C14.9717 24.9117 14.2651 24.6868 11.6321 23.6354C9.76508 22.8898 9.30811 22.646 8.73602 22.09C8.10991 21.4815 7.88104 20.8034 7.79151 19.2915C7.73225 18.2909 7.69 18.1001 7.47751 17.8739C7.34246 17.7302 7.10239 17.5869 6.944 17.5555C6.78484 17.524 5.69209 17.7196 4.50108 17.9927C2.5046 18.4506 2.30347 18.478 1.76595 18.3653C1.02936 18.2108 0.546759 17.8424 0.225362 17.1893C-0.0882108 16.5521 -0.0811031 16.1669 0.287918 13.7988C0.820923 10.3783 0.858715 10.2688 1.84484 9.28948C2.5095 8.6294 2.90212 8.40918 3.8583 8.16012C5.18375 7.81489 6.45955 8.01988 8.17258 8.85332C10.5663 10.018 12.0628 11.4663 13.8026 14.3024C14.9335 16.1458 14.8621 16.093 16.6601 16.4168C25.4572 18.0014 61.13 24.5862 68.9065 26.0609C70.2935 26.324 71.5369 26.5392 71.6696 26.5392C71.8447 26.5392 72.0835 26.3098 72.5393 25.7036C73.3624 24.6093 74.0801 23.8998 74.5941 23.6722C75.1171 23.4407 76.8048 23.4139 77.3401 23.6286C78.0115 23.8978 78.5617 24.3573 79.3223 25.2838C80.0176 26.1309 80.1448 26.2329 80.9395 26.5805C81.4138 26.788 82.9178 27.4757 84.2817 28.1088L86.7614 29.2599L88.7792 29.6687C91.047 30.1281 95.446 30.9515 99.1599 31.6116C106.8 32.9695 118.028 35.0801 118.677 35.2804C120.252 35.7661 121.595 36.6225 123.016 38.0476C124.773 39.81 125.306 41.1163 126.161 45.7674C127.115 50.9497 128 56.3732 128 57.0321C128 57.8978 127.551 59.3959 126.996 60.3813C126.468 61.3193 125.382 62.4572 124.545 62.9508C123.431 63.6072 122.486 63.8663 121.046 63.9103C119.924 63.9446 119.645 63.9165 118.944 63.6988V63.6988ZM122.02 60.2677C123.236 59.8685 124.185 58.7264 124.452 57.341C124.544 56.8597 124.498 56.4242 124.12 54.2473C123.879 52.8538 123.489 50.5007 123.254 49.0183C122.704 45.5503 122.571 44.8684 122.168 43.4794C121.613 41.5678 120.962 40.5745 119.648 39.6372C118.261 38.6474 118.218 38.6359 110.696 37.2687C106.901 36.579 102.34 35.7284 100.561 35.3786C98.7826 35.0288 96.1384 34.5433 94.6857 34.2997C92.2883 33.8978 87.3763 32.9525 86.1684 32.6606C85.9016 32.5961 84.5674 32.0358 83.2035 31.4155C81.8397 30.7952 80.2387 30.0688 79.6457 29.8013C78.2645 29.1781 77.6439 28.7099 76.844 27.6876C76.489 27.2339 76.1651 26.8626 76.1242 26.8626C76.0834 26.8626 75.5983 27.4084 75.0462 28.0755C74.4941 28.7426 73.9204 29.3953 73.7714 29.5259C73.4447 29.8122 72.2641 30.0921 71.6675 30.0248C70.9163 29.9401 67.4173 29.3381 66.0669 29.0613C65.3522 28.9148 54.385 26.8799 41.6954 24.5393C16.5521 19.9016 15.0235 19.6112 14.157 19.3078C13.0009 18.9031 12.8256 18.7286 11.0233 16.1891C10.413 15.3293 9.69797 14.3729 9.43422 14.0638C8.45301 12.9139 6.42134 11.6277 5.35526 11.4815C4.82517 11.4089 4.28496 11.5818 4.17474 11.8595C4.07736 12.1048 3.70925 14.5069 3.76027 14.5641C3.78287 14.5895 4.27385 14.4991 4.85135 14.3633C6.27683 14.028 7.67874 14.0703 8.54482 14.4749C9.43099 14.8888 10.4133 15.8512 10.8291 16.7129C11.1334 17.3437 11.1798 17.5612 11.2188 18.5397C11.2587 19.5429 11.2862 19.6657 11.5026 19.8075C11.8787 20.0539 15.2947 21.3227 16.59 21.697C17.2339 21.8831 18.5856 22.2257 19.5936 22.4584C21.5868 22.9184 23.5844 23.581 25.3679 24.3736C26.8229 25.0202 30.3641 26.9518 31.3453 27.634C31.7604 27.9226 32.3668 28.3461 32.693 28.575C33.3114 29.0091 37.0728 30.4503 37.956 30.5915C38.55 30.6865 38.674 30.5973 40.3538 28.8672C41.9324 27.2412 42.469 26.8871 43.4953 26.794C44.0621 26.7425 44.2973 26.7786 44.91 27.011C45.4906 27.2311 82.4384 45.9921 88.1256 48.9545C88.876 49.3454 89.5173 49.6384 89.5509 49.6056C89.5844 49.5728 89.5316 48.9748 89.4335 48.2769C89.2363 46.8739 89.2967 46.2865 89.7607 45.0942C90.1216 44.1668 91.4337 42.8988 92.6779 42.2748L93.6351 41.7948H94.8881C96.6684 41.7948 97.5097 42.0905 99.3216 43.3532C101.089 44.5849 101.65 44.8884 102.879 45.2785C104.322 45.7362 105.129 45.8682 106.491 45.8692C108.086 45.8704 109.173 45.6888 110.573 45.1871C111.895 44.7131 112.947 44.0968 114.247 43.0339C116.121 41.5019 116.925 41.1257 118.098 41.2321C119.478 41.3572 121.159 42.5093 121.728 43.7202C122.409 45.1688 122.615 47.0632 122.235 48.3805C122.134 48.7313 121.403 50.304 120.609 51.8754C118.426 56.2025 117.537 58.671 117.948 59.2677C118.094 59.4792 119.08 60.1008 119.581 60.2966C120.255 60.5605 121.161 60.5498 122.02 60.2677V60.2677Z" fill="#3D4143"/>
<path d="M72.0369 46.8523L71.3836 48.0679L70.7303 49.2835L67.1422 46.64L63.5541 43.9965L67.7955 45.4244L72.0369 46.8523Z" fill="#3D4143"/>
</svg>
