<svg width="128" height="72" viewBox="0 0 128 72" fill="none" xmlns="http://www.w3.org/2000/svg">
<path d="M95.9509 71.8694C95.0241 71.6438 94.3169 71.0604 93.7789 70.0777C93.5699 69.696 93.5447 68.7186 93.4837 58.6451C93.431 49.9371 93.3811 47.5866 93.2453 47.4232C93.1509 47.3094 92.5508 46.9928 91.9117 46.7194C91.2727 46.446 90.0775 45.8965 89.2559 45.4982C87.9418 44.8612 87.6505 44.6547 86.8366 43.7832C86.2249 43.1281 85.7031 42.3892 85.2968 41.6025C84.6137 40.2799 83.6656 39.2915 82.9202 39.1247C82.6789 39.0708 82.2414 38.9667 81.948 38.8933C81.6546 38.82 79.0441 38.7212 76.1468 38.6736L70.8791 38.5873L69.9396 37.9722C69.4228 37.6339 68.8429 37.1704 68.6509 36.9422C68.4589 36.714 67.9641 35.6637 67.5513 34.6082C66.8357 32.7781 66.5571 32.3302 65.9357 32.0109C65.1268 31.5952 56.4711 28.3881 55.676 28.2095C54.1852 27.8745 53.4006 27.8495 40.2588 27.718C31.8829 27.6342 27.6485 27.5453 27.3895 27.448C26.9164 27.2701 25.9233 26.3272 25.6394 25.7863C25.5243 25.5672 24.9432 23.2915 24.3479 20.7291C23.7526 18.1668 23.1965 16.0473 23.1121 16.0191C23.0277 15.991 22.9194 16.0916 22.8714 16.2428C22.6187 17.039 21.4878 17.8186 20.1845 18.0951C19.4266 18.2558 18.9832 18.1723 18.2684 17.7343C17.8164 17.4574 17.7104 17.451 14.9343 17.5347L12.0671 17.621L11.467 17.1631C10.6341 16.5277 10 15.4389 10 14.6443C10 13.8571 10.8134 10.8769 11.2801 9.95415C11.9382 8.65301 12.6404 7.76329 13.8249 6.73009C15.1527 5.57191 16.1465 5.02872 17.6016 4.66586C18.5638 4.42588 19.3548 4.41953 38.4655 4.49838C49.3906 4.54345 59.1426 4.53805 60.1366 4.48637C66.3239 4.16468 71.7755 4.06801 86.5471 4.01804C103.26 3.96152 107.096 4.03037 110.621 4.45013C112.666 4.69382 113.302 4.95355 113.959 5.81394L114.421 6.41906V9.0396V11.6601L115.562 12.0318C116.797 12.4339 117.546 12.9679 117.831 13.6492C118.43 15.0825 118.035 19.7909 117.02 23.3285C116.361 25.6239 115.639 27.4338 112.259 35.2533C106.518 48.5361 104.109 53.9643 102.542 57.15C101.669 58.9245 100.986 60.4587 101.025 60.5594C101.063 60.66 101.528 60.8804 102.057 61.0491C104.43 61.8058 105.091 62.3902 105.08 63.7234C105.068 65.2205 104.929 65.4095 101.483 68.6194C97.8288 72.0222 97.4626 72.2374 95.9509 71.8694V71.8694ZM99.1631 66.7117C100.477 65.4934 101.638 64.4148 101.744 64.3148C101.908 64.1589 101.841 64.0925 101.277 63.8497C99.3038 63.0008 98.7755 62.7107 98.3549 62.2452C97.8706 61.7091 97.6744 61.0504 97.7889 60.3449C97.8274 60.1073 98.8624 57.8452 100.089 55.318C102.525 50.298 103.248 48.6497 109.382 34.1197C114.244 22.6049 114.062 23.066 114.477 21.1501C114.947 18.9801 114.977 18.7644 115.07 16.8144L115.155 15.0455L114.621 14.8499C114.328 14.7423 113.733 14.5253 113.3 14.3675C112.867 14.2098 112.297 13.8833 112.033 13.642L111.554 13.2032L111.487 10.3587L111.421 7.51427L110.087 7.34925C109.153 7.23369 103.618 7.14149 91.6167 7.04156C76.6945 6.91732 73.98 6.92525 70.6124 7.10294C64.0605 7.44865 60.1172 7.49859 38.7392 7.50656L18.0683 7.51427L17.2877 7.87979C16.4334 8.27979 14.8298 9.77735 14.2256 10.7395C13.8886 11.2761 13.0673 13.7668 13.0673 14.2522C13.0673 14.4668 13.2925 14.4925 15.6345 14.5449C17.675 14.5906 18.3248 14.6509 18.8018 14.8385C20.0052 15.3117 20.0575 15.2993 20.5219 14.4286C21.2199 13.1204 21.927 12.5082 22.9652 12.3135C23.86 12.1456 25.0356 12.7297 25.5803 13.6127C25.7426 13.8758 26.3324 16.109 27.0665 19.24C27.7358 22.0951 28.3141 24.4805 28.3515 24.5411C28.3889 24.6016 31.0715 24.6546 34.3128 24.6589C37.5542 24.6632 43.3568 24.7192 47.2076 24.7835C55.7332 24.9257 55.8554 24.9417 59.8102 26.4352C67.9517 29.5099 68.6668 29.8499 69.2027 30.9009C69.3387 31.1676 69.7919 32.226 70.2099 33.2529C70.6279 34.2797 71.0861 35.2399 71.2282 35.3866C71.4759 35.6424 71.6895 35.655 76.4505 35.6937C80.6887 35.7281 81.6148 35.7719 82.7837 35.9929C83.5367 36.1352 84.3468 36.3332 84.584 36.4328C84.8212 36.5324 85.5254 37.1184 86.1489 37.735C87.05 38.6262 87.3985 39.0892 87.8486 39.9926C88.8412 41.9849 89.5149 42.476 93.5082 44.118C94.759 44.6323 95.682 45.4148 96.1021 46.3171L96.415 46.989L96.4166 53.457C96.4183 61.0107 96.5553 68.9268 96.6842 68.9268C96.7337 68.9268 97.8492 67.93 99.1631 66.7117H99.1631Z" fill="#3D4143"/>
<path d="M24.0702 3.05503L24.0816 1.65627L24.093 0.257507L28.5597 0.932608L33.0264 1.60771L28.5483 2.33137L24.0702 3.05503Z" fill="#3D4143"/>
</svg>
