<svg width="128" height="72" viewBox="0 0 128 72" fill="none" xmlns="http://www.w3.org/2000/svg">
<path d="M93.5605 68.5897C92.6771 68.3746 92.003 67.8185 91.4902 66.8818C91.291 66.5179 91.2669 65.5863 91.2088 55.9842C91.1585 47.6836 91.1109 45.4431 90.9816 45.2873C90.8916 45.1789 90.3195 44.8771 89.7104 44.6165C89.1012 44.3559 87.962 43.8321 87.1788 43.4524C85.9262 42.8452 85.6486 42.6484 84.8727 41.8177C84.2896 41.1933 83.7922 40.4889 83.405 39.7391C82.7538 38.4783 81.8501 37.5361 81.1395 37.3772C80.9095 37.3258 80.4925 37.2265 80.2129 37.1566C79.9332 37.0867 77.4448 36.9925 74.6831 36.9472L69.6619 36.8649L68.7663 36.2786C68.2737 35.9562 67.721 35.5143 67.5379 35.2968C67.3549 35.0793 66.8833 34.0781 66.4898 33.072C65.8077 31.3275 65.5421 30.9006 64.9498 30.5962C64.1788 30.2 55.9281 27.143 55.1702 26.9727C53.7491 26.6534 53.0012 26.6296 40.4744 26.5042C32.4904 26.4243 28.4542 26.3396 28.2073 26.2468C27.7563 26.0773 26.8097 25.1785 26.539 24.6629C26.4294 24.4541 25.8754 22.2848 25.308 19.8423C24.7405 17.3999 24.2104 15.3796 24.13 15.3528C24.0495 15.326 23.9463 15.4219 23.9006 15.5659C23.6597 16.3249 22.5818 17.0681 21.3394 17.3316C20.6169 17.4848 20.1943 17.4052 19.5129 16.9877C19.0822 16.7237 18.9811 16.7176 16.3349 16.7974L13.6018 16.8797L13.0298 16.4432C12.2359 15.8375 11.6315 14.7996 11.6315 14.0423C11.6315 13.2919 12.4068 10.4512 12.8516 9.57158C13.4789 8.33132 14.1484 7.48324 15.2774 6.49838C16.5431 5.3944 17.4904 4.87663 18.8773 4.53074C19.7946 4.30199 20.5485 4.29594 38.765 4.3711C49.1789 4.41406 58.4746 4.40891 59.4221 4.35965C65.3199 4.05301 70.5164 3.96086 84.5968 3.91324C100.528 3.85936 104.184 3.92499 107.544 4.32511C109.494 4.55739 110.1 4.80497 110.726 5.6251L111.167 6.2019V8.69983V11.1978L112.254 11.552C113.431 11.9353 114.145 12.4443 114.417 13.0937C114.987 14.46 114.612 18.948 113.644 22.3201C113.016 24.5081 112.327 26.2333 109.105 33.6869C103.633 46.3481 101.337 51.5224 99.8428 54.5591C99.0107 56.2505 98.36 57.7129 98.3968 57.8089C98.4336 57.9048 98.8764 58.1149 99.3808 58.2757C101.643 58.997 102.273 59.5541 102.263 60.8248C102.251 62.2519 102.119 62.432 98.8335 65.4917C95.3506 68.7354 95.0014 68.9405 93.5605 68.5897ZM96.6224 63.6733C97.8748 62.5121 98.9818 61.4839 99.0823 61.3886C99.239 61.24 99.1755 61.1767 98.6374 60.9452C96.7566 60.136 96.2529 59.8595 95.8521 59.4158C95.3904 58.9048 95.2034 58.2769 95.3125 57.6045C95.3492 57.378 96.3358 55.2217 97.5048 52.8128C99.8269 48.0276 100.516 46.4564 106.363 32.6064C110.997 21.6304 110.825 22.0699 111.22 20.2436C111.668 18.1752 111.696 17.9695 111.785 16.1108L111.866 14.4247L111.357 14.2383C111.078 14.1357 110.511 13.9288 110.098 13.7785C109.685 13.6281 109.141 13.3169 108.89 13.0868L108.434 12.6686L108.37 9.95723L108.306 7.24586L107.035 7.08858C106.145 6.97842 100.869 6.89053 89.4291 6.79528C75.2052 6.67685 72.6177 6.68441 69.4076 6.85379C63.1623 7.18332 59.4036 7.23092 39.0259 7.23852L19.3222 7.24586L18.5781 7.59428C17.7638 7.97557 16.2353 9.40305 15.6594 10.3202C15.3381 10.8317 14.5552 13.2058 14.5552 13.6685C14.5552 13.873 14.7699 13.8975 17.0023 13.9475C18.9473 13.9911 19.5667 14.0485 20.0214 14.2273C21.1685 14.6785 21.2183 14.6666 21.6611 13.8367C22.3264 12.5897 23.0004 12.0062 23.99 11.8205C24.8429 11.6605 25.9635 12.2172 26.4827 13.0589C26.6375 13.3097 27.1997 15.4384 27.8994 18.4229C28.5374 21.1444 29.0886 23.4182 29.1242 23.4759C29.1599 23.5336 31.717 23.5842 34.8066 23.5883C37.8963 23.5923 43.4274 23.6458 47.098 23.707C55.2247 23.8426 55.3412 23.8578 59.1109 25.2815C66.8714 28.2123 67.5531 28.5364 68.0639 29.5382C68.1936 29.7924 68.6256 30.8013 69.024 31.7801C69.4225 32.7589 69.8592 33.6742 69.9946 33.814C70.2307 34.0578 70.4344 34.0698 74.9726 34.1067C79.0125 34.1395 79.8952 34.1812 81.0094 34.3919C81.7272 34.5276 82.4994 34.7163 82.7255 34.8112C82.9516 34.9062 83.6229 35.4648 84.2171 36.0525C85.0761 36.902 85.4083 37.3433 85.8374 38.2045C86.7835 40.1036 87.4256 40.5717 91.2322 42.1368C92.4244 42.6271 93.3042 43.373 93.7047 44.233L94.0029 44.8735L94.0044 51.0388C94.0061 58.2391 94.1366 65.7848 94.2595 65.7848C94.3067 65.7848 95.37 64.8346 96.6224 63.6733H96.6224Z" fill="#3D4143"/>
<path d="M25.0433 2.9953L25.0542 1.66199L25.0651 0.328679L29.3227 0.972191L33.5804 1.6157L29.3118 2.3055L25.0433 2.9953Z" fill="#3D4143"/>
</svg>
