<svg width="128" height="72" viewBox="0 0 128 72" fill="none" xmlns="http://www.w3.org/2000/svg">
<path d="M61.8427 61.7619C60.3264 61.3892 58.7302 60.0585 57.7346 58.337C56.6613 56.4813 55.968 55.4325 55.5131 54.9765C55.0302 54.4924 54.4551 54.1939 41.3925 47.6474C29.7363 41.8058 27.2639 40.5322 24.2247 38.8038C21.4849 37.2457 20.2882 36.5069 18.984 35.5687C16.7955 33.9944 16.2532 33.397 15.6709 31.9193C15.4043 31.2429 15.3834 31.1108 15.3773 30.0674C15.3696 28.7439 15.5373 27.9507 16.0424 26.9213C16.8081 25.3607 17.2634 24.9201 19.013 24.0463C21.472 22.8184 23.4862 21.575 24.8778 20.4261C25.186 20.1716 26.0449 19.3547 26.7865 18.6109C27.5281 17.867 28.8206 16.6314 29.6588 15.8651C32.1305 13.6054 32.5109 13.2293 32.6459 12.912C32.8299 12.4799 32.7249 12.1581 32.208 11.5691C31.4422 10.6965 31.1741 9.92094 31.3227 9.00801C31.4932 7.96009 32.089 7.18375 33.8345 5.73469C35.1514 4.64145 36.1221 4.12797 37.9775 3.54296C39.0337 3.20997 39.3017 3.15944 40.0449 3.1532C41.3265 3.14246 40.5916 2.67306 50.4719 9.81306C62.0071 18.1489 63.8511 19.4998 64.1659 19.8453C64.6631 20.391 65.1045 21.3672 65.3184 22.3941C65.4797 23.1688 65.4965 23.4828 65.4511 24.8778C65.4225 25.7561 65.3341 26.9493 65.2546 27.5294C65.1751 28.1096 65.0322 29.1393 64.937 29.8176C64.7581 31.0925 64.7799 31.6627 65.0492 32.7504C65.332 33.8929 66.1782 35.2557 67.679 36.9855C68.131 37.5064 68.7819 38.2764 69.1255 38.6966C69.4692 39.1168 70.1166 39.8854 70.5642 40.4045C72.8534 43.059 73.0581 43.3538 73.3551 44.4219C73.491 44.9111 73.4955 45.046 73.3921 45.5333C73.2435 46.2335 72.7603 46.874 72.1455 47.1856C71.9058 47.307 70.6626 47.7575 69.3829 48.1865C68.1032 48.6156 66.9999 49.0192 66.9311 49.0835C66.8261 49.1816 66.8616 49.2236 67.1525 49.3452C68.7666 50.0196 70.4022 50.4947 71.6585 50.6539C72.6942 50.7853 74.192 50.7797 74.6517 50.6428C75.1059 50.5075 75.7386 49.9201 76.7243 48.7186C77.2914 48.0274 94.5397 27.7966 96.8409 25.1236C98.0343 23.7373 98.3266 23.2421 98.4864 22.3348C98.6011 21.6834 98.4979 21.2104 98.1367 20.732C97.7827 20.2632 97.5359 20.2087 95.5056 20.1502C93.8606 20.1028 93.5929 20.0731 93.01 19.8737C91.5539 19.3755 90.744 18.7368 90.2249 17.6773C89.8946 17.0029 89.8876 16.9674 89.8876 15.955C89.8876 14.9233 89.8884 14.9198 90.265 14.1497C90.6735 13.3144 91.2873 12.5611 91.8474 12.2075C92.9641 11.5026 94.5537 11.4056 95.9996 11.9541C96.6621 12.2054 102.136 14.8192 103.031 15.3117C104.533 16.1378 106.257 17.6834 107.561 19.3708C108.735 20.8915 109.725 23.1425 110.032 24.9887C110.316 26.7006 111.523 36.5564 111.912 40.3434C112.136 42.5275 112.381 44.8202 112.457 45.4382C112.604 46.6435 112.641 48.2277 112.535 48.8102C112.439 49.3405 111.993 50.4221 111.652 50.9513C110.807 52.2645 109.565 53.1907 107.775 53.8434C104.601 55.0005 102.211 55.661 98.6966 56.3517C95.8501 56.9112 94.5786 57.048 88.1483 57.4867C85.7427 57.6508 84.0402 57.8069 83.6989 57.8945C82.9596 58.0845 81.9976 58.5743 80.6522 59.4458C78.379 60.9181 77.791 60.9148 73.3932 59.4053C71.4656 58.7437 71.3255 58.7092 70.4052 58.6699C69.5731 58.6343 69.3514 58.657 68.8004 58.8342C68.2508 59.0109 68.0562 59.1369 67.4134 59.7325C66.4279 60.6454 65.7494 61.0877 64.8157 61.4255C63.58 61.8727 62.699 61.9723 61.8427 61.7619ZM64.2813 58.7912C64.621 58.6051 65.1213 58.2429 65.3932 57.9862C66.0057 57.4079 67.0005 56.696 67.5551 56.4391C68.1965 56.1419 69.6934 55.9205 70.5931 55.9896C71.8056 56.0828 72.5734 56.2817 74.8684 57.0972C76.7391 57.7618 77.1137 57.8667 77.6218 57.8677C78.2426 57.869 78.4505 57.7945 78.977 57.382C79.1559 57.2418 79.5401 56.9905 79.8309 56.8236C80.1217 56.6567 80.6521 56.3522 81.0098 56.1469C81.8769 55.6493 82.4359 55.4375 83.411 55.2371C84.1564 55.084 88.8189 54.702 91.6404 54.563C96.3604 54.3304 101.077 53.3713 105.974 51.6484C107.964 50.9482 108.489 50.6502 109.166 49.8367C109.724 49.1668 109.929 48.4802 109.917 47.3258C109.904 46.0875 108.627 34.7127 107.686 27.4606C107.343 24.8093 107.101 23.8735 106.374 22.382C105.696 20.9924 103.863 18.9893 102.32 17.9534C101.692 17.5323 97.8381 15.6529 95.8851 14.8159C95.377 14.5981 94.7444 14.3798 94.4794 14.3308C93.4986 14.1495 92.8272 14.5217 92.576 15.3859C92.3248 16.25 92.6059 16.8469 93.4314 17.202C93.788 17.3554 94.2463 17.4212 95.7031 17.5281C96.7068 17.6017 97.6899 17.6875 97.8876 17.7188C98.825 17.8669 99.9486 18.6977 100.381 19.5622C100.729 20.2588 101.079 21.5567 101.077 22.1449C101.075 22.9442 100.842 23.8425 100.427 24.6552C100.106 25.2844 99.4755 26.0707 96.496 29.5562C94.544 31.8396 89.5117 37.7326 85.3129 42.6517C81.1142 47.5708 77.473 51.8228 77.2214 52.1007C76.2952 53.1236 75.4576 53.4386 73.6665 53.4374C71.1955 53.4358 69.4381 53.0647 66.5618 51.9372C65.3056 51.4448 64.911 51.2044 64.4702 50.6631C64.0488 50.1457 63.9228 49.7001 63.978 48.9214C64.0431 48.0014 64.5832 47.2451 65.5118 46.7736C66.0516 46.4995 68.5815 45.6357 69.4164 45.4405C70.0075 45.3023 70.2472 45.0282 70.2472 44.4903C70.2472 44.1176 70.1698 44.0145 67.6805 41.0736C64.2831 37.0598 64.1525 36.8965 63.5822 35.9485C62.1113 33.5031 61.8922 31.9393 62.4813 28.0899C62.6833 26.7701 62.7236 26.1984 62.7318 24.5393C62.7412 22.637 62.7336 22.5455 62.531 22.1343C62.2574 21.5786 62.0885 21.4498 53.6629 15.3689C49.9056 12.6572 45.7393 9.64476 44.4045 8.67464C40.8931 6.12264 40.3853 5.79773 39.9081 5.79773C39.4075 5.79773 37.2227 6.59511 36.5966 7.00634C35.3753 7.80848 33.9326 9.12478 33.9326 9.43687C33.9326 9.51454 34.1652 9.78924 34.4494 10.0473C35.3696 10.8826 35.6595 11.2143 35.8758 11.6787C36.1247 12.2134 36.1424 12.5943 35.9491 13.2646C35.8269 13.6885 35.6975 13.8609 34.966 14.5747C34.5026 15.0268 33.484 15.9566 32.7022 16.6409C31.9205 17.3253 30.5564 18.6071 29.671 19.4894C27.5426 21.6101 25.9449 23.0115 24.6952 23.8538C24.064 24.2791 21.6166 25.6588 20.4494 26.2473C19.3218 26.8158 18.7647 27.295 18.4663 27.9529C17.7293 29.5783 17.9268 31.2102 18.9849 32.2391C19.8631 33.0931 23.9124 35.7124 26.3181 36.9826C27.5245 37.6195 49.3202 48.6836 52.502 50.2743C57.2996 52.6726 57.5131 52.8442 59.235 55.6854C60.3439 57.5151 60.6435 57.9378 61.161 58.4031C61.8836 59.0528 62.2648 59.209 63.0229 59.1659C63.5546 59.1357 63.7689 59.0718 64.2813 58.7912Z" fill="black"/>
<path d="M49.8808 6.41422L50.6602 5.33238L51.4396 4.25053L54.5425 7.23612L57.6454 10.2217L53.7631 8.31796L49.8808 6.41422Z" fill="black"/>
</svg>
