<svg  viewBox="0 0 128 72" fill="#3D4143" xmlns="http://www.w3.org/2000/svg">
<path d="M60.9702 71.8704C59.1111 71.4135 57.154 69.7819 55.9334 67.6713C54.6174 65.3961 53.7674 64.1101 53.2097 63.5511C52.6176 62.9576 51.9124 62.5916 35.8968 54.5651C21.6055 47.4029 18.5742 45.8413 14.8478 43.7222C11.4887 41.8118 10.0214 40.9061 8.42231 39.7557C5.73911 37.8255 5.07419 37.093 4.36022 35.2813C4.03344 34.452 4.00777 34.29 4.00031 33.0107C3.99085 31.3881 4.19644 30.4155 4.81568 29.1534C5.75452 27.2399 6.31271 26.6997 8.45794 25.6284C11.4728 24.1229 13.9424 22.5985 15.6485 21.1898C16.0264 20.8777 17.0796 19.8762 17.9888 18.9642C18.898 18.0522 20.4827 16.5373 21.5104 15.5977C24.5409 12.8271 25.0073 12.366 25.1729 11.977C25.3984 11.4471 25.2697 11.0527 24.6359 10.3305C23.697 9.26059 23.3683 8.30971 23.5505 7.1904C23.7596 5.90556 24.49 4.95372 26.6302 3.17707C28.2448 1.83668 29.4349 1.20711 31.7098 0.489853C33.0047 0.081585 33.3333 0.0196205 34.2446 0.0119804C35.8158 -0.00119355 34.9148 -0.57671 47.0288 8.17744C61.1717 18.3978 63.4326 20.0541 63.8186 20.4777C64.4282 21.1468 64.9694 22.3436 65.2316 23.6027C65.4294 24.5525 65.45 24.9375 65.3943 26.6478C65.3593 27.7247 65.2509 29.1877 65.1534 29.899C65.056 30.6103 64.8808 31.8728 64.7641 32.7045C64.5447 34.2676 64.5714 34.9666 64.9015 36.3002C65.2483 37.7011 66.2859 39.372 68.1259 41.4928C68.68 42.1314 69.4781 43.0755 69.8995 43.5907C70.3208 44.106 71.1146 45.0482 71.6634 45.6847C74.4701 48.9394 74.7211 49.3008 75.0852 50.6104C75.2519 51.2102 75.2574 51.3756 75.1306 51.973C74.9484 52.8315 74.3559 53.6169 73.6021 53.9988C73.3082 54.1478 71.784 54.7 70.215 55.226C68.646 55.7521 67.2932 56.247 67.2089 56.3258C67.0801 56.4461 67.1237 56.4976 67.4803 56.6466C69.4594 57.4736 71.4647 58.056 73.005 58.2513C74.2749 58.4123 76.1113 58.4054 76.6749 58.2376C77.2318 58.0717 78.0076 57.3516 79.2162 55.8784C79.9114 55.031 101.059 30.2266 103.881 26.9492C105.344 25.2496 105.702 24.6424 105.898 23.53C106.039 22.7314 105.912 22.1514 105.469 21.5649C105.035 20.9901 104.733 20.9232 102.243 20.8515C100.226 20.7934 99.8982 20.757 99.1835 20.5125C97.3982 19.9016 96.4053 19.1185 95.7689 17.8195C95.3638 16.9927 95.3553 16.9492 95.3553 15.7079C95.3553 14.443 95.3562 14.4387 95.818 13.4944C96.3189 12.4703 97.0713 11.5468 97.7581 11.1132C99.1272 10.2489 101.076 10.13 102.849 10.8025C103.661 11.1106 110.372 14.3153 111.47 14.9192C113.311 15.932 115.426 17.8271 117.024 19.8959C118.464 21.7605 119.678 24.5203 120.054 26.7839C120.402 28.8828 121.882 40.9667 122.358 45.6098C122.633 48.2877 122.934 51.0987 123.027 51.8564C123.208 53.3342 123.253 55.2766 123.123 55.9908C123.005 56.6409 122.458 57.967 122.04 58.6159C121.004 60.226 119.482 61.3615 117.287 62.1618C113.396 63.5804 110.464 64.3903 106.156 65.2372C102.666 65.9231 101.107 66.0909 93.2228 66.6287C90.2733 66.8299 88.1859 67.0213 87.7674 67.1288C86.8611 67.3617 85.6815 67.9622 84.0319 69.0307C81.2449 70.8359 80.5239 70.8319 75.132 68.9811C72.7686 68.1699 72.5968 68.1276 71.4685 68.0794C70.4482 68.0358 70.1764 68.0636 69.5008 68.2809C68.827 68.4975 68.5884 68.652 67.8002 69.3822C66.592 70.5016 65.76 71.0438 64.6153 71.458C63.1002 72.0063 62.0201 72.1284 60.9702 71.8704V71.8704ZM63.9601 68.2282C64.3765 68 64.99 67.5559 65.3234 67.2411C66.0743 66.5322 67.294 65.6593 67.974 65.3443C68.7604 64.9799 70.5957 64.7084 71.6988 64.7932C73.1854 64.9075 74.1268 65.1514 76.9407 66.1512C79.2342 66.9661 79.6935 67.0946 80.3165 67.0959C81.0777 67.0974 81.3326 67.0061 81.978 66.5004C82.1974 66.3285 82.6685 66.0204 83.025 65.8158C83.3815 65.6111 84.0319 65.2377 84.4704 64.9861C85.5336 64.3759 86.219 64.1162 87.4145 63.8706C88.3284 63.6828 94.045 63.2145 97.5043 63.0441C103.291 62.7589 109.074 61.583 115.078 59.4706C117.518 58.612 118.162 58.2467 118.992 57.2493C119.676 56.428 119.927 55.5861 119.913 54.1708C119.897 52.6524 118.331 38.7062 117.178 29.8146C116.756 26.5639 116.46 25.4165 115.568 23.5879C114.738 21.8841 112.49 19.4282 110.598 18.1581C109.829 17.6418 105.103 15.3375 102.709 14.3112C102.086 14.0442 101.31 13.7766 100.985 13.7166C99.7826 13.4943 98.9594 13.9506 98.6514 15.0102C98.3434 16.0695 98.6881 16.8014 99.7002 17.2368C100.137 17.4249 100.699 17.5055 102.485 17.6366C103.716 17.7269 104.921 17.8321 105.164 17.8704C106.313 18.0521 107.691 19.0707 108.221 20.1306C108.647 20.9846 109.077 22.576 109.074 23.2971C109.071 24.2771 108.786 25.3786 108.278 26.3749C107.884 27.1464 107.111 28.1105 103.458 32.384C101.064 35.1836 94.8943 42.4087 89.7464 48.4399C84.5984 54.4711 80.1341 59.6844 79.8256 60.0251C78.69 61.2793 77.663 61.6655 75.467 61.664C72.4374 61.6621 70.2827 61.2071 66.7561 59.8247C65.216 59.2209 64.7322 58.9262 64.1917 58.2626C63.675 57.6281 63.5206 57.0818 63.5882 56.1271C63.668 54.9991 64.3303 54.0718 65.4687 53.4937C66.1306 53.1576 69.2325 52.0986 70.256 51.8593C70.9808 51.6898 71.2747 51.3537 71.2747 50.6942C71.2747 50.2372 71.1798 50.1109 68.1277 46.5052C63.9622 41.5839 63.8021 41.3837 63.1029 40.2213C61.2995 37.2232 61.0309 35.3058 61.7532 30.5861C62.0008 28.968 62.0503 28.267 62.0603 26.2329C62.0718 23.9005 62.0624 23.7883 61.8141 23.2842C61.4786 22.6029 61.2716 22.4449 50.9412 14.9893C46.3345 11.6645 41.2263 7.9711 39.5897 6.78166C35.2845 3.65273 34.6618 3.25436 34.0768 3.25436C33.463 3.25436 30.7843 4.232 30.0167 4.73621C28.5193 5.71968 26.7504 7.33356 26.7504 7.7162C26.7504 7.81144 27.0355 8.14824 27.3841 8.46466C28.5122 9.48883 28.8677 9.89541 29.1329 10.4649C29.4381 11.1205 29.4597 11.5875 29.2228 12.4092C29.0729 12.9291 28.9143 13.1404 28.0174 14.0156C27.4493 14.5698 26.2003 15.7098 25.2419 16.5489C24.2834 17.388 22.611 18.9596 21.5254 20.0413C18.9158 22.6415 16.9569 24.3597 15.4247 25.3923C14.6508 25.9139 11.6501 27.6055 10.2191 28.327C8.83647 29.024 8.15342 29.6115 7.78765 30.4182C6.88406 32.411 7.12612 34.4118 8.42346 35.6734C9.50017 36.7205 14.4649 39.9318 17.4145 41.4892C18.8936 42.2701 45.6167 55.8355 49.5179 57.7858C55.4 60.7264 55.6618 60.9368 57.773 64.4202C59.1326 66.6636 59.4999 67.1819 60.1344 67.7523C61.0204 68.5489 61.4878 68.7404 62.4172 68.6876C63.0691 68.6505 63.3319 68.5723 63.9601 68.2282V68.2282Z" />
<path d="M46.3041 4.0102L47.2597 2.68378L48.2153 1.35737L52.0196 5.01791L55.824 8.67845L51.064 6.34433L46.3041 4.0102Z" />
</svg>
