<svg  viewBox="0 0 128 72" fill="#3D4143" xmlns="http://www.w3.org/2000/svg">
<path d="M92.2821 66.3617C90.1614 66.2333 87.8952 65.5711 84.5813 64.1114C78.8384 61.5817 53.5199 50.2551 52.9166 49.9457C51.5837 49.262 51.0776 48.5317 51.0721 47.2839C51.0697 46.7609 51.1295 46.5755 51.7267 45.2525C51.8367 45.0086 51.9268 44.6876 51.9268 44.5391C51.9268 44.0259 50.9335 35.6813 50.8549 35.5345C50.8116 35.4535 50.5938 34.9098 50.3709 34.3262C50.1481 33.7427 49.8395 33.0412 49.6853 32.7674C48.9228 31.4141 47.3962 29.9491 45.9425 29.1758C45.3142 28.8416 43.9559 28.3806 43.0357 28.1893C42.3496 28.0466 40.8607 28.0912 39.9438 28.2817C38.5724 28.5668 37.23 29.1444 35.9506 29.9999C35.0382 30.6101 34.3647 31.2888 33.7787 32.189C32.878 33.5724 32.5203 34.5678 31.9025 37.4099C31.0847 41.1718 30.456 43.5313 30.0944 44.1958C29.8949 44.5623 29.3079 45.1983 28.8182 45.5786C28.2061 46.0538 27.4177 46.1914 26.3019 46.0174C25.901 45.955 21.4301 45.2769 16.3665 44.5106C2.76678 42.4524 2.82342 42.4614 2.36492 42.2889C1.72032 42.0463 1.13985 41.5421 0.639465 40.7901C-0.0653008 39.7309 -0.13293 39.3329 0.172536 38.0422C0.540966 36.4855 3.3523 26.0455 3.51409 25.6332C3.9464 24.5316 5.33628 22.4437 6.179 21.63C6.33878 21.4757 7.75793 20.2961 9.33267 19.0086C12.417 16.4869 12.4701 16.4529 13.4536 16.3737C13.9102 16.337 14.0634 16.3587 14.451 16.5153C14.7028 16.617 18.0545 18.5531 21.8991 20.8177C25.7437 23.0823 29.0103 24.9929 29.1583 25.0634C29.3316 25.1461 29.47 25.1679 29.5472 25.1247C29.613 25.0879 30.3208 24.5744 31.12 23.9837C32.1571 23.2171 32.657 22.7953 32.8659 22.5104C33.2483 21.9889 33.6151 21.1005 34.3957 18.805C35.2103 16.4094 38.1423 8.16402 38.3317 7.73603C38.532 7.28351 39.1915 6.66554 39.8358 6.32664C40.3016 6.0816 40.4689 6.03557 40.994 6.00784C41.5374 5.97916 41.7662 6.01661 42.9888 6.33422C46.2459 7.18041 47.7018 7.69439 49.8507 8.7567C51.5775 9.61032 51.9723 9.84332 53.653 11.0005C56.2781 12.8079 58.4238 14.815 61.1762 18.0378C61.5907 18.5231 62.3636 19.4035 62.8938 19.9942C64.3551 21.6223 64.8646 22.2533 65.8673 23.6768C67.8929 26.5525 68.3461 27.3771 73.8348 38.1752C75.4379 41.3291 75.6553 41.7149 76.3642 42.6634C77.4136 44.0675 78.0604 44.7786 78.971 45.5297C81.1958 47.3648 83.0539 48.5922 84.4004 49.1159C84.6212 49.2018 85.5328 49.5856 86.4262 49.9688C88.2767 50.7624 88.7748 51.09 89.116 51.7378C89.3029 52.0927 89.3277 52.2221 89.3254 52.8309C89.323 53.4796 89.3016 53.57 88.9718 54.3269C88.7787 54.77 88.4029 55.6331 88.1365 56.245C87.567 57.5533 87.487 58.0202 87.7455 58.527C88.047 59.118 88.3859 59.2487 90.0955 59.4332C91.3784 59.5717 92.2689 59.5721 92.6822 59.4344C93.2212 59.2548 96.0871 58.4265 97.0719 58.1657C98.1547 57.879 98.2294 57.8436 98.4236 57.5251C98.6309 57.1851 98.6133 56.9316 98.2957 55.6848C97.8759 54.0371 97.9353 53.0418 98.5034 52.2096C98.7819 51.8015 99.5086 51.1394 99.8934 50.9431C100.06 50.8582 104.759 49.2316 110.336 47.3285C120.059 44.0109 120.501 43.8679 121.053 43.8627C121.725 43.8564 122.333 44.0568 122.897 44.4705C123.234 44.7179 123.37 44.9561 125.394 48.8493C126.572 51.1137 127.581 53.1085 127.636 53.2822C127.755 53.6549 127.715 54.3483 127.543 54.9073C127.399 55.3741 127.001 55.9041 126.557 56.2227C126.301 56.4065 123.225 57.4327 112.114 61.0407C104.35 63.5621 97.7043 65.7071 97.3457 65.8074C95.6918 66.2696 93.9359 66.4619 92.2821 66.3617V66.3617ZM95.9263 62.5769C96.3485 62.4903 120.552 54.67 123.719 53.597C123.771 53.5792 123.814 53.5308 123.814 53.4896C123.814 53.4484 123.128 52.1268 122.29 50.5527C121.17 48.4492 120.726 47.6846 120.617 47.668C120.49 47.6486 101.752 53.9615 101.658 54.0556C101.568 54.1452 101.66 54.5577 102.094 56.0109C102.352 56.8738 102.562 57.7197 102.561 57.8906C102.554 58.9952 101.836 60.1471 100.897 60.559C100.653 60.6663 99.0287 61.1787 97.2881 61.6979C95.5475 62.2171 94.1234 62.6748 94.1234 62.715C94.1234 62.814 95.1559 62.7349 95.9263 62.5769V62.5769ZM84.7068 60.2655C84.7319 60.2404 84.6355 60.0071 84.4926 59.747C84.118 59.0656 83.972 58.4215 84.0123 57.6288C84.0442 57.0039 84.0798 56.8937 84.7882 55.2297C85.1965 54.2705 85.5306 53.4505 85.5306 53.4076C85.5306 53.3647 85.4916 53.3296 85.4439 53.3296C85.1846 53.3296 81.92 51.8512 80.9759 51.3062C78.4229 49.8325 75.319 47.1679 73.8506 45.1894C72.4743 43.3351 72.154 42.7643 69.4199 37.2948C66.3194 31.0924 65.2725 29.1255 64.1521 27.3978C62.7322 25.2081 61.8137 24.0096 59.9058 21.8571C55.5656 16.9605 54.1148 15.5592 51.5025 13.7398C49.205 12.1398 47.1963 11.1948 44.0189 10.2192C41.7231 9.51433 41.486 9.46006 41.3607 9.61097C41.3132 9.66827 40.3023 12.4768 39.1144 15.8521C36.7492 22.5721 36.4763 23.3009 36.0867 23.9374C35.7501 24.4871 35.0868 25.3111 34.7412 25.6087C34.5936 25.7359 33.6478 26.4373 32.6396 27.1674C30.3612 28.8173 29.9789 28.9646 28.7353 28.672C28.2198 28.5507 27.8061 28.3166 19.6195 23.5127C16.2761 21.5508 13.7415 20.1098 13.6353 20.1106C13.4255 20.1121 9.27383 23.471 8.59947 24.1849C8.00293 24.8164 7.38249 25.7174 7.0528 26.431C6.69463 27.2063 3.52923 38.8734 3.64551 38.9897C3.68487 39.0291 5.33757 39.3032 7.3182 39.5989C13.1343 40.4671 18.3849 41.2503 22.7506 41.9009C24.996 42.2355 26.8798 42.4914 26.9369 42.4695C27.0036 42.4439 27.3934 40.9555 28.0265 38.3086C28.5687 36.0421 29.0952 33.9287 29.1966 33.6122C29.4478 32.8283 30.266 31.145 30.7713 30.3727C31.9543 28.5646 33.7429 27.0177 35.7684 26.051C37.9312 25.0187 39.9869 24.5734 42.1832 24.6615C44.2538 24.7446 45.8791 25.1762 47.5694 26.0919C49.1679 26.9579 50.4965 28.0755 51.6629 29.5354C52.4561 30.5281 52.8752 31.2283 53.5119 32.6244C54.1746 34.0776 54.3256 34.7964 54.7267 38.4073C54.8345 39.3778 54.9882 40.5689 55.0683 41.0542C55.1484 41.5394 55.2497 42.2817 55.2933 42.7037C55.5194 44.8878 55.4805 45.5176 55.0673 46.3707C54.9435 46.6263 54.8422 46.8754 54.8422 46.9242C54.8422 46.973 55.3341 47.2217 55.9354 47.4767C56.5368 47.7318 63.2259 50.7223 70.8002 54.1224C78.3745 57.5224 84.5917 60.3058 84.6164 60.3077C84.641 60.3096 84.6817 60.2906 84.7068 60.2655V60.2655Z" />
<path d="M126.016 58.9435L126.52 60.3929L127.024 61.8423L122.16 62.7915L117.297 63.7406L121.656 61.3421L126.016 58.9435Z" />
</svg>
