<svg width="128" height="72" viewBox="0 0 128 72" fill="none" xmlns="http://www.w3.org/2000/svg">
<path d="M87.1666 60.8243C85.3238 60.7127 83.3547 60.1372 80.4751 58.8688C75.4847 56.6707 53.4843 46.8284 52.9601 46.5596C51.8019 45.9655 51.3621 45.3309 51.3573 44.2466C51.3552 43.7922 51.4072 43.6311 51.9261 42.4814C52.0217 42.2696 52.0999 41.9906 52.0999 41.8616C52.0999 41.4156 51.2368 34.1646 51.1686 34.037C51.1309 33.9666 50.9417 33.4942 50.748 32.9871C50.5543 32.48 50.2862 31.8705 50.1522 31.6326C49.4897 30.4566 48.1631 29.1836 46.8999 28.5117C46.3539 28.2212 45.1737 27.8206 44.374 27.6544C43.7779 27.5305 42.4841 27.5692 41.6874 27.7348C40.4957 27.9824 39.3292 28.4844 38.2175 29.2278C37.4247 29.7579 36.8394 30.3478 36.3302 31.13C35.5476 32.332 35.2367 33.1971 34.6999 35.6667C33.9893 38.9355 33.4429 40.9859 33.1287 41.5632C32.9553 41.8817 32.4453 42.4344 32.0198 42.7648C31.4879 43.1778 30.8028 43.2973 29.8333 43.1462C29.4849 43.0919 25.5999 42.5026 21.1999 41.8367C9.38246 40.0483 9.43168 40.0561 9.03327 39.9062C8.47314 39.6955 7.96874 39.2573 7.53393 38.6039C6.92153 37.6835 6.86276 37.3376 7.1282 36.2161C7.44834 34.8634 9.89124 25.7916 10.0318 25.4333C10.4075 24.4761 11.6152 22.6618 12.3475 21.9547C12.4863 21.8207 13.7195 20.7956 15.0879 19.6768C17.768 17.4856 17.8142 17.4561 18.6687 17.3873C19.0656 17.3554 19.1986 17.3743 19.5354 17.5103C19.7543 17.5987 22.6667 19.2811 26.0074 21.2489C29.3482 23.2167 32.1868 24.8769 32.3154 24.9382C32.4659 25.01 32.5862 25.029 32.6532 24.9915C32.7105 24.9594 33.3255 24.5133 34.02 23.9999C34.9211 23.3339 35.3555 22.9673 35.5371 22.7197C35.8693 22.2666 36.188 21.4946 36.8663 19.5C37.5742 17.4183 40.1219 10.2535 40.2865 9.8816C40.4606 9.48838 41.0336 8.9514 41.5935 8.65691C41.9983 8.44399 42.1436 8.40399 42.5999 8.37989C43.0721 8.35497 43.271 8.38751 44.3333 8.66349C47.1636 9.3988 48.4286 9.84541 50.2959 10.7685C51.7964 11.5103 52.1395 11.7127 53.5999 12.7182C55.881 14.2888 57.7455 16.0328 60.1373 18.8333C60.4974 19.255 61.169 20.02 61.6297 20.5333C62.8995 21.948 63.3422 22.4964 64.2135 23.7333C65.9737 26.2321 66.3675 26.9487 71.1368 36.3316C72.5299 39.0723 72.7188 39.4074 73.3348 40.2316C74.2467 41.4517 74.8087 42.0697 75.5999 42.7223C77.5332 44.317 79.1478 45.3835 80.3178 45.8386C80.5097 45.9132 81.3018 46.2467 82.0782 46.5796C83.6862 47.2693 84.119 47.554 84.4155 48.1168C84.5779 48.4252 84.5994 48.5377 84.5975 49.0667C84.5953 49.6304 84.5768 49.709 84.2902 50.3667C84.1224 50.7517 83.7958 51.5017 83.5643 52.0333C83.0695 53.1702 82.9999 53.5759 83.2246 54.0163C83.4866 54.5299 83.7811 54.6434 85.2666 54.8038C86.3814 54.9241 87.1552 54.9245 87.5143 54.8048C87.9827 54.6487 90.473 53.929 91.3287 53.7024C92.2696 53.4532 92.3345 53.4225 92.5033 53.1457C92.6834 52.8503 92.6681 52.63 92.3921 51.5466C92.0273 50.1148 92.079 49.25 92.5726 48.5268C92.8146 48.1722 93.4461 47.5969 93.7804 47.4263C93.925 47.3525 98.0085 45.9391 102.855 44.2854C111.303 41.4026 111.687 41.2783 112.167 41.2738C112.751 41.2683 113.28 41.4425 113.769 41.802C114.062 42.0169 114.18 42.2239 115.939 45.6069C116.963 47.5745 117.839 49.3079 117.888 49.4589C117.991 49.7827 117.956 50.3852 117.806 50.871C117.681 51.2766 117.336 51.7371 116.95 52.014C116.727 52.1737 114.054 53.0654 104.4 56.2006C97.6533 58.3915 91.8783 60.2554 91.5666 60.3426C90.1295 60.7443 88.6037 60.9113 87.1666 60.8243V60.8243ZM90.3333 57.5355C90.7001 57.4602 111.732 50.6647 114.483 49.7324C114.529 49.7169 114.567 49.6749 114.567 49.6391C114.567 49.6033 113.971 48.4549 113.242 47.087C112.268 45.2593 111.883 44.5948 111.789 44.5804C111.678 44.5636 95.3953 50.0491 95.3135 50.1309C95.2356 50.2088 95.3157 50.5672 95.6928 51.83C95.9167 52.5798 96.0992 53.3148 96.0983 53.4633C96.0925 54.4232 95.4685 55.4241 94.6527 55.782C94.4404 55.8752 93.0291 56.3205 91.5166 56.7717C90.0041 57.2228 88.7666 57.6205 88.7666 57.6555C88.7666 57.7415 89.6638 57.6728 90.3333 57.5355ZM80.5841 55.527C80.6059 55.5051 80.5221 55.3024 80.3979 55.0765C80.0725 54.4843 79.9456 53.9246 79.9806 53.2359C80.0083 52.6928 80.0393 52.5971 80.6548 51.1511C81.0096 50.3176 81.2999 49.6051 81.2999 49.5678C81.2999 49.5305 81.266 49.5 81.2246 49.5C80.9993 49.5 78.1625 48.2153 77.3421 47.7418C75.1237 46.4612 72.4266 44.1458 71.1506 42.4266C69.9547 40.8153 69.6763 40.3193 67.3006 35.5667C64.6064 30.1771 63.6967 28.4679 62.7231 26.9667C61.4893 25.0639 60.6912 24.0225 59.0333 22.1521C55.2619 17.8972 54.0013 16.6795 51.7313 15.0986C49.7349 13.7083 47.9894 12.8871 45.2284 12.0394C43.2335 11.4268 43.0274 11.3797 42.9186 11.5108C42.8773 11.5606 41.9989 14.001 40.9666 16.934C38.9114 22.7734 38.6743 23.4066 38.3357 23.9597C38.0432 24.4374 37.4669 25.1534 37.1666 25.412C37.0383 25.5225 36.2165 26.132 35.3404 26.7664C33.3606 28.2001 33.0284 28.3281 31.9478 28.0739C31.4998 27.9685 31.1403 27.765 24.0266 23.5907C21.1213 21.8859 18.9189 20.6338 18.8266 20.6344C18.6443 20.6357 15.0368 23.5545 14.4508 24.1748C13.9324 24.7236 13.3933 25.5065 13.1068 26.1266C12.7956 26.8003 10.045 36.9384 10.146 37.0394C10.1802 37.0736 11.6163 37.3118 13.3374 37.5687C18.3913 38.3232 22.9538 39.0038 26.7474 39.5691C28.6985 39.8599 30.3354 40.0822 30.385 40.0632C30.443 40.0409 30.7817 38.7476 31.3319 36.4476C31.803 34.4781 32.2605 32.6417 32.3486 32.3667C32.5669 31.6855 33.2779 30.2228 33.717 29.5517C34.7449 27.9805 36.2991 26.6364 38.0592 25.7963C39.9385 24.8993 41.7248 24.5124 43.6333 24.589C45.4325 24.6612 46.8448 25.0362 48.3136 25.8319C49.7026 26.5844 50.8571 27.5556 51.8707 28.8241C52.5599 29.6867 52.924 30.2951 53.4773 31.5083C54.0532 32.7711 54.1844 33.3956 54.5329 36.5333C54.6266 37.3767 54.7602 38.4117 54.8298 38.8333C54.8994 39.255 54.9874 39.9 55.0253 40.2667C55.2217 42.1646 55.188 42.7118 54.8289 43.4531C54.7213 43.6752 54.6333 43.8917 54.6333 43.9341C54.6333 43.9765 55.0608 44.1926 55.5833 44.4142C56.1058 44.6358 61.9183 47.2345 68.4999 50.1889C75.0816 53.1434 80.4841 55.562 80.5055 55.5636C80.5269 55.5653 80.5622 55.5488 80.5841 55.527Z" fill="black"/>
<path d="M116.48 54.3783L116.918 55.6377L117.355 56.8971L113.129 57.7219L108.903 58.5467L112.691 56.4625L116.48 54.3783Z" fill="black"/>
</svg>
