<svg  viewBox="0 0 128 72" fill="#3D4143" xmlns="http://www.w3.org/2000/svg">
<path d="M108.203 71.9628C107.466 71.8762 105.391 71.4084 103.776 70.9647C101.822 70.4281 99.5879 69.4094 97.807 68.2429C96.6419 67.4796 92.3688 64.1986 91.4143 63.3343C90.285 62.3117 89.141 60.9601 87.86 59.1349C87.2648 58.2869 86.3453 56.9887 85.8167 56.25C85.2881 55.5114 84.6168 54.5489 84.3249 54.1112C83.3442 52.6407 81.8705 50.7335 81.2811 50.1723C80.7018 49.6205 79.0605 48.4546 77.9112 47.7783C76.9261 47.1987 76.2222 46.9576 71.423 45.5559C66.9029 44.2358 66.8085 44.2131 65.8522 44.2136C65.3172 44.2139 64.7023 44.2634 64.4858 44.3235C64.2693 44.3836 61.27 45.9435 57.8207 47.7901C54.3714 49.6366 51.1463 51.308 50.6539 51.5043C49.6275 51.9134 48.4791 52.2557 47.1224 52.5566C46.6026 52.6719 45.1925 52.9889 43.9888 53.261C37.7626 54.6684 36.916 54.8063 36.2511 54.521C35.5906 54.2376 34.8865 53.2185 34.8865 52.5459C34.8865 52.3399 34.8529 52.1723 34.8119 52.1734C34.7708 52.1745 29.5562 56.1755 23.2238 61.0645C16.8914 65.9535 11.6058 70.0221 11.4781 70.1058C10.7288 70.5967 9.58949 70.5696 8.90098 70.0444C8.28895 69.5776 7.9845 68.9204 8.00061 68.1007C8.01172 67.5352 8.21342 66.8474 9.41908 63.2633C10.1921 60.9653 10.9618 58.7494 11.1295 58.3391C12.2409 55.6197 14.6948 51.5583 16.4186 49.5849C16.7771 49.1746 19.3133 46.3544 22.0547 43.3178L27.0391 37.7967L27.9938 35.8568C29.0219 33.7677 29.3732 33.2298 30.2756 32.3632C31.6046 31.0868 32.7799 30.4912 35.4679 29.732C37.0218 29.2931 37.2543 29.171 38.4428 28.1712C38.9789 27.7203 41.5204 25.5801 44.0906 23.4154C46.6609 21.2506 49.0927 19.2299 49.4947 18.925C50.4917 18.1687 52.0521 17.2984 53.8905 16.4731C57.6677 14.7776 90.7855 0.254668 91.1419 0.137525C91.3608 0.0656047 91.9657 0.00402123 92.4863 0.000673299C93.3651 -0.00497901 93.4812 0.0184221 94.1111 0.328204C94.912 0.722093 95.3543 1.091 95.882 1.80519C96.3176 2.39494 96.6924 2.63078 97.1937 2.63078C97.3945 2.63078 98.6366 2.19333 100.208 1.5692L102.88 0.507617L104.03 0.4998C105.162 0.492098 105.19 0.497435 105.92 0.859949C106.479 1.13784 106.858 1.43006 107.468 2.0537C109.155 3.77745 118.497 14.0413 118.768 14.4688C119.676 15.8958 119.659 17.9825 118.731 19.184C117.909 20.2486 116.491 21.0344 115.393 21.0344C114.305 21.0344 113.043 20.5691 112.303 19.8951C112.099 19.7101 110.903 18.3055 109.645 16.7737C108.387 15.242 107.254 13.9401 107.129 13.8806C106.651 13.6545 106.297 13.7655 104.433 14.7261C102.696 15.6211 101.966 15.9052 92.5725 19.3426C87.0673 21.3572 82.4127 23.0831 82.2291 23.1781C81.6631 23.4708 80.8854 24.3522 80.6357 24.9841C80.458 25.4336 80.3991 25.813 80.3684 26.7047C80.3232 28.0175 80.4885 30.0628 80.7094 30.9255C81.1785 32.7568 82.8634 34.6254 84.6974 35.3483C84.9627 35.4529 89.0953 36.5315 93.8809 37.7452C103.605 40.2112 103.358 40.1286 104.667 41.3468C105.498 42.1196 105.927 42.8475 106.215 43.9739C106.591 45.4404 106.464 46.4376 105.68 48.1922C105.192 49.2838 105.169 49.375 105.172 50.1818C105.179 51.6072 105.564 52.1188 107.125 52.7714C107.998 53.1367 110.868 54.4367 115.365 56.5038C116.659 57.0986 117.217 57.4917 117.722 58.1641C118.195 58.7953 118.408 59.289 118.545 60.0734C118.695 60.931 118.673 61.3086 118.437 62.0079C118.191 62.7366 114.844 68.9915 114.434 69.4899C113.927 70.1044 112.939 70.8808 112.222 71.2277C110.991 71.8228 109.434 72.1076 108.203 71.9628V71.9628ZM110.54 68.6833C111.58 68.2834 111.997 67.7704 113.468 65.0825C115.158 61.994 115.548 61.2286 115.622 60.8603C115.697 60.4862 115.476 60.0233 115.093 59.7507C114.942 59.643 112.893 58.6724 110.54 57.5938C104.361 54.7612 104.489 54.8275 103.762 54.0784C102.669 52.9527 102.134 51.6573 102.134 50.1349C102.134 49.0291 102.306 48.3327 102.885 47.0917C103.278 46.2489 103.328 46.0604 103.328 45.4402C103.328 45.0552 103.278 44.588 103.216 44.402C103.06 43.9328 102.294 43.1691 101.741 42.9311C101.487 42.8218 97.6102 41.8141 93.1265 40.6917C88.6427 39.5693 84.6161 38.5345 84.1784 38.392C81.9011 37.6508 79.8907 35.9508 78.5231 33.6099C78.0741 32.8413 77.7286 31.8007 77.5019 30.5347C77.2762 29.274 77.2376 25.3974 77.4445 24.7649C77.8546 23.5108 78.646 22.2284 79.4699 21.4828C80.3956 20.6451 81.0906 20.2636 82.5307 19.8026C94.4636 15.9834 97.038 15.0284 101.738 12.6773C103.369 11.8614 104.981 11.1004 105.32 10.9862C106.454 10.6044 107.705 10.7586 108.831 11.419C109.173 11.6192 109.943 12.4644 111.821 14.6997C113.212 16.3557 114.469 17.7646 114.614 17.8306C114.759 17.8966 115.072 17.9506 115.31 17.9506C115.648 17.9506 115.808 17.8887 116.045 17.6673C116.212 17.5115 116.379 17.2612 116.417 17.1111C116.586 16.4387 116.477 16.3022 111.218 10.5614C104.879 3.6412 104.789 3.54788 104.358 3.46707C103.872 3.37592 103.627 3.44368 102.011 4.11566C99.7552 5.05348 98.1732 5.6224 97.6481 5.68459C96.2379 5.85161 94.4074 4.92413 93.4763 3.57087C93.1541 3.10258 92.6608 2.86917 92.1916 2.96301C91.8773 3.02587 54.7533 19.3559 53.542 19.9641C52.5905 20.4419 51.2378 21.3396 50.5544 21.9468C49.1561 23.1893 39.8509 30.9653 39.3256 31.3305C38.3804 31.9873 37.8037 32.2388 36.1089 32.7331C34.0826 33.3242 33.3013 33.7072 32.4098 34.5469C31.7431 35.1748 31.6526 35.3168 30.7102 37.2104C29.5304 39.5812 30.011 38.9842 23.152 46.6006C20.5652 49.473 18.1743 52.1938 17.8388 52.6468C16.4588 54.5102 14.7958 57.3515 14.0414 59.1349C13.7123 59.9128 11.7073 66.0317 11.7632 66.0875C11.7848 66.1091 11.8595 66.0819 11.9292 66.0271C11.9989 65.9722 14.0704 64.3682 16.5326 62.4627C21.3616 58.7253 30.0106 52.0248 32.7477 49.9007C33.8008 49.0834 34.5838 48.5485 34.8231 48.4829C35.5908 48.2723 36.611 48.6286 37.2619 49.3346C37.6857 49.7945 37.8694 50.2812 37.8703 50.9469C37.8706 51.1762 37.9157 51.3915 37.9705 51.4254C38.1413 51.531 48.1784 49.2023 49.2115 48.8174C50.4981 48.3381 51.8536 47.6468 57.3688 44.657C62.9816 41.6143 62.8563 41.678 63.5978 41.4928C65.8172 40.9386 66.5015 41.0144 71.0993 42.3242C77.857 44.2494 78.5776 44.53 80.9444 46.1587C82.8798 47.4904 83.583 48.1282 84.8869 49.7342C85.2722 50.2087 87.9128 53.9354 90.0862 57.0721C92.0598 59.9204 92.9194 60.811 95.9229 63.1201C100.983 67.0102 101.837 67.4306 107.407 68.7753C108.514 69.0424 109.697 69.0077 110.54 68.6833V68.6833Z" />
<path d="M31.669 58.7731L32.564 59.9463L33.459 61.1195L29.2996 63.4453L25.1401 65.771L28.4046 62.272L31.669 58.7731Z" />
</svg>
