<svg width="128" height="72" viewBox="0 0 128 72" fill="none" xmlns="http://www.w3.org/2000/svg">
<path d="M108.989 69.164C108.323 69.0858 106.449 68.6631 104.989 68.2622C103.223 67.7773 101.205 66.8569 99.5955 65.8028C98.5426 65.1131 94.6816 62.1485 93.8191 61.3675C92.7987 60.4435 91.765 59.2222 90.6075 57.573C90.0696 56.8067 89.2388 55.6337 88.7612 54.9663C88.2836 54.2988 87.677 53.4292 87.4132 53.0337C86.5271 51.7049 85.1955 49.9816 84.663 49.4745C84.1395 48.976 82.6564 47.9224 81.6179 47.3114C80.7278 46.7876 80.0918 46.5697 75.7553 45.3033C71.671 44.1104 71.5857 44.0899 70.7216 44.0904C70.2382 44.0906 69.6826 44.1353 69.4869 44.1896C69.2913 44.2439 66.5812 45.6535 63.4645 47.322C60.3477 48.9905 57.4337 50.5007 56.9887 50.6781C56.0613 51.0478 55.0236 51.357 53.7977 51.629C53.328 51.7332 52.0539 52.0196 50.9662 52.2654C45.3404 53.5372 44.5754 53.6617 43.9746 53.4039C43.3778 53.1479 42.7415 52.227 42.7415 51.6193C42.7415 51.4332 42.7112 51.2817 42.6741 51.2827C42.637 51.2837 37.9252 54.8989 32.2033 59.3165C26.4815 63.7341 21.7055 67.4105 21.5901 67.4861C20.9131 67.9297 19.8836 67.9052 19.2615 67.4306C18.7085 67.0088 18.4334 66.415 18.4479 65.6743C18.458 65.1633 18.6402 64.5418 19.7296 61.3033C20.4281 59.2269 21.1236 57.2247 21.2752 56.8539C22.2794 54.3967 24.4967 50.7269 26.0543 48.9438C26.3782 48.573 28.6699 46.0247 31.147 43.2809L35.6508 38.2921L36.5134 36.5393C37.4424 34.6516 37.7598 34.1656 38.5752 33.3826C39.7761 32.2292 40.8381 31.6911 43.2669 31.005C44.6709 30.6084 44.8811 30.4982 45.955 29.5947C46.4394 29.1873 48.7358 27.2535 51.0583 25.2974C53.3807 23.3413 55.578 21.5155 55.9412 21.24C56.8422 20.5566 58.2521 19.7702 59.9133 19.0245C63.3263 17.4925 93.2509 4.36982 93.573 4.26398C93.7707 4.19899 94.3174 4.14334 94.7877 4.14032C95.5818 4.13521 95.6867 4.15636 96.2559 4.43627C96.9796 4.79218 97.3792 5.12551 97.856 5.77085C98.2496 6.30373 98.5882 6.51684 99.0413 6.51684C99.2227 6.51684 100.345 6.12157 101.765 5.55761L104.18 4.59838L105.218 4.59132C106.241 4.58436 106.266 4.58918 106.926 4.91674C107.432 5.16784 107.774 5.43189 108.325 5.9954C109.849 7.55294 118.29 16.8272 118.536 17.2135C119.356 18.5029 119.341 20.3884 118.502 21.474C117.759 22.436 116.478 23.146 115.486 23.146C114.503 23.146 113.362 22.7256 112.693 22.1166C112.51 21.9494 111.429 20.6802 110.292 19.2962C109.155 17.9121 108.132 16.7358 108.018 16.682C107.587 16.4776 107.267 16.578 105.582 17.446C104.013 18.2546 103.353 18.5114 94.8656 21.6174C89.8912 23.4377 85.6854 24.9972 85.5195 25.083C85.0081 25.3475 84.3054 26.1439 84.0797 26.7149C83.9192 27.121 83.8659 27.4638 83.8382 28.2696C83.7974 29.4558 83.9467 31.3039 84.1464 32.0834C84.5702 33.7381 86.0927 35.4267 87.7499 36.0799C87.9896 36.1743 91.7237 37.1489 96.0479 38.2456C104.834 40.4739 104.611 40.3993 105.794 41.5C106.545 42.1983 106.933 42.856 107.193 43.8738C107.532 45.1988 107.418 46.0999 106.709 47.6854C106.268 48.6717 106.247 48.7541 106.251 49.4831C106.256 50.7711 106.605 51.2333 108.015 51.823C108.804 52.1531 111.397 53.3278 115.461 55.1955C116.63 55.733 117.134 56.0882 117.59 56.6957C118.018 57.2661 118.21 57.7122 118.334 58.421C118.469 59.1959 118.45 59.5371 118.237 60.1689C118.014 60.8274 114.99 66.4793 114.619 66.9296C114.162 67.4848 113.269 68.1863 112.62 68.4998C111.508 69.0375 110.101 69.2949 108.989 69.164ZM111.101 66.2008C112.041 65.8394 112.418 65.3759 113.746 62.9471C115.273 60.1564 115.626 59.4648 115.693 59.132C115.76 58.794 115.561 58.3757 115.215 58.1294C115.078 58.032 113.227 57.1551 111.101 56.1805C105.518 53.6209 105.634 53.6809 104.976 53.004C103.989 51.9868 103.506 50.8163 103.506 49.4407C103.506 48.4416 103.661 47.8123 104.183 46.6909C104.538 45.9294 104.584 45.7591 104.584 45.1987C104.584 44.8508 104.539 44.4286 104.483 44.2606C104.342 43.8366 103.65 43.1465 103.15 42.9315C102.92 42.8327 99.4176 41.9222 95.3662 40.908C91.3148 39.8939 87.6764 38.9588 87.2809 38.8301C85.2231 38.1603 83.4066 36.6242 82.1709 34.509C81.7651 33.8145 81.4529 32.8743 81.2481 31.7303C81.0442 30.5912 81.0093 27.0883 81.1962 26.5168C81.5668 25.3837 82.2819 24.2249 83.0263 23.5512C83.8628 22.7943 84.4908 22.4495 85.792 22.033C96.5744 18.5821 98.9006 17.7191 103.148 15.5947C104.621 14.8574 106.078 14.1698 106.384 14.0666C107.408 13.7217 108.539 13.861 109.557 14.4577C109.866 14.6387 110.562 15.4023 112.258 17.4221C113.515 18.9184 114.651 20.1915 114.782 20.2511C114.913 20.3107 115.195 20.3595 115.41 20.3595C115.716 20.3595 115.861 20.3037 116.075 20.1036C116.226 19.9628 116.377 19.7366 116.411 19.601C116.564 18.9934 116.466 18.8701 111.714 13.6828C105.986 7.42984 105.904 7.34552 105.515 7.27249C105.076 7.19013 104.854 7.25136 103.394 7.85855C101.356 8.70595 99.9263 9.22001 99.4518 9.27621C98.1776 9.42712 96.5236 8.58907 95.6823 7.36629C95.3911 6.94315 94.9454 6.73224 94.5215 6.81703C94.2374 6.87383 60.6929 21.6293 59.5983 22.1789C58.7386 22.6106 57.5163 23.4218 56.8988 23.9704C55.6353 25.0931 47.2273 32.1194 46.7526 32.4494C45.8986 33.0429 45.3775 33.2701 43.8461 33.7168C42.0152 34.2509 41.3092 34.597 40.5037 35.3557C39.9013 35.9231 39.8194 36.0514 38.968 37.7624C37.9019 39.9046 38.3361 39.3652 32.1385 46.2472C29.8011 48.8427 27.6407 51.3011 27.3376 51.7104C26.0906 53.3942 24.588 55.9615 23.9062 57.573C23.6089 58.2759 21.7973 63.8048 21.8477 63.8553C21.8673 63.8748 21.9348 63.8502 21.9978 63.8006C22.0608 63.751 23.9325 62.3017 26.1573 60.5799C30.5207 57.2028 38.3358 51.1484 40.8089 49.2291C41.7605 48.4907 42.468 48.0073 42.6842 47.948C43.378 47.7577 44.2998 48.0796 44.8879 48.7176C45.2709 49.1331 45.4368 49.5729 45.4377 50.1744C45.4379 50.3816 45.4787 50.5762 45.5282 50.6068C45.6825 50.7022 54.7519 48.598 55.6853 48.2503C56.8479 47.8172 58.0727 47.1925 63.0561 44.491C68.1278 41.7416 68.0145 41.7992 68.6846 41.6319C70.69 41.1311 71.3083 41.1996 75.4628 42.3831C81.569 44.1227 82.2201 44.3763 84.3587 45.8479C86.1075 47.0512 86.7429 47.6275 87.9211 49.0786C88.2692 49.5074 90.6552 52.8748 92.6191 55.7091C94.4024 58.2827 95.1791 59.0875 97.893 61.1739C102.465 64.6889 103.237 65.0688 108.27 66.2838C109.27 66.5252 110.339 66.4939 111.101 66.2008Z" fill="#3D4143"/>
<path d="M39.8343 57.246L40.643 58.3062L41.4517 59.3663L37.6933 61.4678L33.9349 63.5692L36.8846 60.4076L39.8343 57.246Z" fill="#3D4143"/>
</svg>
