<svg width="128" height="72" viewBox="0 0 128 72" fill="none" xmlns="http://www.w3.org/2000/svg">
<path d="M113.651 68.207C112.134 67.8502 111.631 67.2823 108.514 62.4128C106.897 59.8865 105.443 57.7629 105.282 57.6938C105.121 57.6246 104.099 57.5083 103.011 57.4353C100.761 57.2842 99.8193 56.9415 98.7206 55.8743C97.7709 54.9519 97.4436 54.2226 96.6183 51.1894C95.6531 47.6421 95.3343 47.3759 92.045 47.3699C89.545 47.3653 87.9502 46.7435 86.4356 45.1829C85.3456 44.0598 84.873 42.8937 84.8815 41.3483C84.8872 40.3062 85.0322 39.6998 85.7251 37.82C87.2878 33.5807 86.7348 32.4076 82.421 30.8107C79.4953 29.7276 76.64 29.9158 73.8041 31.3786C72.1604 32.2264 71.2676 33.0908 68.1543 36.8487C66.2355 39.1647 64.9192 40.5929 64.4455 40.8726C63.8158 41.2445 63.296 41.3404 60.7994 41.545C53.7315 42.1242 53.2404 41.9254 52.5274 38.1952C52.1867 36.4128 52.1111 36.2197 51.6944 36.0686C51.4422 35.9772 47.1376 34.4414 42.1286 32.6557C26.0018 26.9066 22.7804 25.5097 17.5281 21.9884C9.92907 16.8936 7.58985 14.3943 7.61309 11.3947C7.64066 7.83543 10.4778 5.87912 15.3617 6.0517C16.7545 6.10091 17.2481 6.19722 17.9762 6.56181C19.1984 7.1738 19.8042 8.05065 21.0351 10.9897C23.6679 17.2759 24.3376 18.5371 25.853 20.0632C27.6097 21.8324 30.969 23.4965 34.7784 24.4845C36.2657 24.8702 36.7579 24.9172 38.4719 24.8368C43.4047 24.6055 44.358 23.9442 48.0812 18.1708C49.3703 16.1719 50.6234 14.3501 50.8659 14.1223C51.4443 13.5789 52.6271 13.3647 53.4589 13.6526C54.3353 13.9561 55.1206 14.9711 55.2298 15.9416C55.3056 16.6154 55.1602 17.0625 54.1396 19.294C53.4919 20.7102 52.913 22.2068 52.8531 22.6199C52.776 23.152 53.038 24.9163 53.752 28.6742C54.3063 31.591 54.8268 34.0446 54.9087 34.1266C55.4302 34.6484 57.5794 34.3532 59.8053 33.4542C62.3191 32.4388 63.5546 31.5078 69.2896 26.307C72.6263 23.2811 74.6443 21.8427 75.5528 21.8427C76.2057 21.8427 77.014 22.1947 77.3835 22.6398C77.7877 23.127 78.4959 22.951 79.936 22.0055C80.7033 21.5018 81.6383 21.016 82.0138 20.926C82.9587 20.6996 85.0485 20.7054 86.0834 20.9373C88.3708 21.4499 91.0627 22.9806 92.7938 24.7529C93.4034 25.377 99.6203 32.8854 106.609 41.4382C116.04 52.9792 119.462 57.2901 119.88 58.1573C120.756 59.9721 120.763 61.4326 119.909 64.0709C119.324 65.8798 119.148 66.2162 118.41 66.9473C117.117 68.2268 115.526 68.648 113.651 68.207ZM116.245 64.9155C116.511 64.6475 116.868 63.8269 117.182 62.7608C117.675 61.0906 117.682 61.0105 117.414 60.0892C117.262 59.5668 116.872 58.7703 116.546 58.3192C116.221 57.8681 110.147 50.4513 103.048 41.8373C89.1546 24.9797 89.4315 25.2806 86.9637 24.3572C84.9002 23.585 83.2262 23.4999 82.0398 24.1068C81.7774 24.2411 81.0566 24.7571 80.4379 25.2536C78.6543 26.6851 77.6313 26.7932 76.339 25.687C75.9481 25.3524 75.5676 25.0787 75.4934 25.0787C75.1803 25.0787 73.1182 26.8013 69.6922 29.925C66.0607 33.2359 64.2598 34.576 61.8427 35.7658C60.4103 36.4709 57.8509 37.2517 56.4213 37.4198L55.4538 37.5335L55.571 38.1825C55.6354 38.5394 55.6977 38.8447 55.7093 38.8608C55.7209 38.8769 57.1056 38.7776 58.7865 38.6401C60.4674 38.5026 62.0976 38.3883 62.4092 38.3861C62.924 38.3824 63.2508 38.0529 65.9954 34.7706C69.2805 30.8417 70.5909 29.6204 72.586 28.6282C75.1124 27.3718 75.958 27.168 78.6517 27.1667C80.8353 27.1656 81.2229 27.2153 82.5169 27.6614C85.0383 28.5307 86.5512 29.3814 87.8474 30.6589C88.8063 31.604 89.1001 32.0291 89.3306 32.8053C89.8355 34.5057 89.7194 35.5459 88.7047 38.4105C87.4488 41.9563 87.573 42.815 89.4949 43.8732C90.2247 44.275 90.6481 44.3636 92.1916 44.4373C95.272 44.5844 97.3184 45.5204 98.3201 47.2404C98.5634 47.6582 99.0626 49.0517 99.4295 50.3371C99.7963 51.6225 100.204 52.8888 100.336 53.1512C100.763 54.0007 101.57 54.3265 103.773 54.5378C105.998 54.7513 106.786 55.0492 107.715 56.0292C108.028 56.3592 109.513 58.5304 111.016 60.854C112.518 63.1776 113.839 65.1381 113.952 65.2108C114.065 65.2834 114.531 65.3441 114.987 65.3456C115.627 65.3477 115.914 65.2494 116.245 64.9155ZM50.68 28.5843C49.8268 24.14 49.7168 23.126 49.9436 21.7978C50.0238 21.3281 50.0222 20.9438 49.94 20.9438C49.8579 20.9438 49.4291 21.5304 48.9872 22.2472C47.4217 24.7871 45.0026 26.7018 42.6068 27.2974C42.0135 27.4449 40.8012 27.6587 39.9128 27.7726C38.2366 27.9875 37.978 28.0636 38.4013 28.2174C40.1835 28.8649 51.4234 32.7688 51.4448 32.7477C51.4608 32.732 51.1166 30.8584 50.68 28.5843H50.68ZM22.3278 20.4495C21.0841 18.6775 20.86 18.2293 18.9416 13.679C18.07 11.6115 17.1729 9.72211 16.9481 9.48041C16.5527 9.05528 16.4749 9.04346 14.5618 9.1177C11.966 9.21844 11.0024 9.60531 10.6818 10.6754C10.4952 11.2981 10.5106 11.5273 10.7879 12.2532C10.9663 12.7203 11.4344 13.4521 11.8283 13.8793C13.4922 15.6845 22.1029 21.7746 23.0686 21.8293C23.199 21.8367 22.8656 21.2157 22.3278 20.4495Z" fill="black"/>
<path d="M96.7455 24.0662L97.7268 23.1636L98.7082 22.2609L101.146 25.8104L103.584 29.3598L100.165 26.713L96.7455 24.0662Z" fill="black"/>
</svg>
