<svg width="128" height="72" viewBox="0 0 128 72" fill="none" xmlns="http://www.w3.org/2000/svg">
<path d="M120.188 71.4614C118.469 71.057 117.898 70.4132 114.366 64.894C112.533 62.0306 110.884 59.6236 110.702 59.5452C110.519 59.4668 109.361 59.335 108.128 59.2522C105.578 59.0811 104.511 58.6926 103.265 57.483C102.189 56.4375 101.818 55.6108 100.882 52.1729C99.7884 48.1523 99.4271 47.8505 95.6989 47.8437C92.8653 47.8385 91.0577 47.1338 89.341 45.3649C88.1055 44.0919 87.5698 42.7702 87.5795 41.0186C87.586 39.8374 87.7503 39.1501 88.5357 37.0195C90.3068 32.2145 89.68 30.8848 84.7906 29.0748C81.4745 27.8472 78.2383 28.0605 75.0239 29.7185C73.1608 30.6795 72.1489 31.6592 68.6201 35.9186C66.4453 38.5437 64.9534 40.1624 64.4164 40.4795C63.7027 40.9009 63.1135 41.0096 60.2838 41.2415C52.2727 41.8981 51.7161 41.6727 50.908 37.4447C50.5219 35.4245 50.4361 35.2056 49.9638 35.0344C49.678 34.9307 44.799 33.19 39.1215 31.166C20.8427 24.6497 17.1915 23.0665 11.2383 19.0752C2.62522 13.3007 -0.026142 10.4678 0.000193877 7.06789C0.0314429 3.0337 3.24715 0.816328 8.78276 1.01193C10.3615 1.06772 10.921 1.17688 11.7462 1.59011C13.1315 2.28378 13.8181 3.27763 15.2133 6.6089C18.1974 13.7339 18.9564 15.1634 20.674 16.8932C22.6652 18.8985 26.4728 20.7846 30.7905 21.9044C32.4763 22.3416 33.0342 22.3948 34.9769 22.3037C40.5679 22.0416 41.6485 21.292 45.8685 14.7482C47.3295 12.4827 48.7499 10.4177 49.0247 10.1595C49.6804 9.54356 51.0209 9.30075 51.9637 9.62716C52.9571 9.97106 53.8472 11.1216 53.971 12.2216C54.0569 12.9853 53.8921 13.4921 52.7353 16.0213C52.0012 17.6265 51.345 19.3229 51.2772 19.791C51.1898 20.3941 51.4867 22.3939 52.296 26.6532C52.9242 29.9593 53.5142 32.7403 53.607 32.8332C54.1981 33.4246 56.6341 33.0901 59.157 32.071C62.0063 30.9202 63.4066 29.8649 69.9069 23.9701C73.6889 20.5405 75.9762 18.9101 77.006 18.9101C77.7459 18.9101 78.6621 19.3091 79.0809 19.8136C79.5391 20.3658 80.3417 20.1663 81.974 19.0947C82.8437 18.5237 83.9035 17.9731 84.3291 17.8711C85.4001 17.6145 87.7688 17.6211 88.9417 17.8839C91.5343 18.465 94.5855 20.1999 96.5476 22.2087C97.2386 22.9161 104.285 31.4264 112.207 41.1205C122.896 54.2016 126.774 59.0877 127.248 60.0707C128.241 62.1276 128.249 63.7829 127.281 66.7734C126.618 68.8236 126.419 69.2049 125.582 70.0336C124.116 71.4838 122.313 71.9612 120.188 71.4614V71.4614ZM123.128 67.7306C123.429 67.4269 123.834 66.4968 124.19 65.2884C124.749 63.3953 124.757 63.3046 124.453 62.2603C124.281 61.6682 123.838 60.7654 123.47 60.2542C123.101 59.7429 116.216 51.3363 108.17 41.5729C92.4228 22.4658 92.7366 22.8068 89.9396 21.7601C87.6007 20.8849 85.7033 20.7884 84.3586 21.4764C84.0612 21.6285 83.2441 22.2135 82.5429 22.7762C80.5213 24.3987 79.3618 24.5212 77.897 23.2674C77.454 22.8882 77.0227 22.5779 76.9386 22.5779C76.5837 22.5779 74.2465 24.5304 70.3632 28.0709C66.2472 31.8237 64.206 33.3425 61.4664 34.6911C59.8427 35.4904 56.9419 36.3754 55.3215 36.5658L54.2249 36.6947L54.3577 37.4303C54.4308 37.8349 54.5013 38.1809 54.5144 38.1991C54.5276 38.2174 56.0971 38.1048 58.0024 37.949C59.9076 37.7932 61.7553 37.6636 62.1084 37.6611C62.6919 37.6569 63.0623 37.2835 66.1731 33.5631C69.8967 29.11 71.382 27.7257 73.6432 26.6011C76.5067 25.177 77.4652 24.9461 80.5184 24.9446C82.9933 24.9434 83.4327 24.9996 84.8993 25.5053C87.7572 26.4905 89.472 27.4548 90.9412 28.9028C92.028 29.974 92.361 30.4558 92.6223 31.3356C93.1946 33.2629 93.063 34.4419 91.9129 37.6887C90.4894 41.7077 90.6302 42.6811 92.8085 43.8805C93.6357 44.3359 94.1156 44.4363 95.865 44.5198C99.3565 44.6866 101.676 45.7475 102.811 47.697C103.087 48.1705 103.653 49.75 104.069 51.2069C104.485 52.6638 104.947 54.0991 105.096 54.3965C105.58 55.3594 106.495 55.7286 108.991 55.9681C111.514 56.2101 112.407 56.5478 113.46 57.6586C113.815 58.0326 115.498 60.4935 117.201 63.1271C118.904 65.7608 120.402 67.983 120.529 68.0653C120.657 68.1477 121.185 68.2164 121.702 68.2181C122.427 68.2205 122.753 68.1092 123.128 67.7306ZM48.8141 26.5513C47.847 21.514 47.7223 20.3646 47.9794 18.8592C48.0703 18.3269 48.0685 17.8913 47.9754 17.8913C47.8822 17.8913 47.3962 18.5561 46.8954 19.3686C45.121 22.2474 42.3791 24.4176 39.6635 25.0927C38.9911 25.2599 37.617 25.5023 36.6101 25.6314C34.7101 25.8749 34.4171 25.9612 34.8968 26.1355C36.9169 26.8694 49.6566 31.2942 49.6809 31.2703C49.699 31.2525 49.3089 29.129 48.8141 26.5513H48.8141ZM16.6785 17.331C15.2688 15.3226 15.0148 14.8146 12.8404 9.65708C11.8525 7.31364 10.8357 5.17213 10.5809 4.89818C10.1327 4.41632 10.0446 4.40292 7.87619 4.48707C4.93401 4.60125 3.84177 5.03975 3.47838 6.25262C3.26693 6.9584 3.28439 7.2182 3.59862 8.04099C3.80082 8.57045 4.33147 9.39985 4.77785 9.88411C6.66388 11.9302 16.4235 18.8329 17.5181 18.8949C17.6659 18.9033 17.2881 18.1995 16.6785 17.331V17.331Z" fill="#3D4143"/>
<path d="M101.027 21.4304L102.139 20.4072L103.251 19.3841L106.014 23.4073L108.778 27.4304L104.902 24.4304L101.027 21.4304Z" fill="#3D4143"/>
</svg>
