<svg  viewBox="0 0 128 72" fill="#3D4143" xmlns="http://www.w3.org/2000/svg">
<path d="M68.935 58.9816C67.2354 58.6706 65.5982 58.1546 61.014 56.4849C56.0505 54.677 52.5102 53.0893 48.8964 51.0508C45.9267 49.3756 44.6049 48.492 42.1486 46.5405C40.0605 44.8814 35.2454 40.8533 34.3702 40.0333C33.5488 39.2638 33.4778 38.054 34.1734 36.6814C34.8369 35.3719 34.1562 34.5605 28.7956 30.2714C23.7746 26.254 19.9169 23.6534 16.2978 21.8464C12.8263 20.1131 11.8933 19.7992 7.22087 18.7923C1.79461 17.623 1.43144 17.5055 0.646112 16.666C0.148561 16.134 -0.000583335 15.7231 1.71303e-06 14.8857C0.000727737 13.8461 0.665233 12.8102 1.66174 12.2952C2.02243 12.1088 2.32299 12.0393 2.90906 12.007C3.8705 11.954 4.85741 12.1927 7.32743 13.0761C8.27538 13.4151 9.29157 13.7376 9.58563 13.7927C9.96736 13.8643 10.7726 13.8606 12.4012 13.7797C15.0998 13.6455 17.8048 13.7583 26.5053 14.3677C29.4535 14.5742 32.2078 14.7431 32.6259 14.7431C33.4926 14.7431 34.2387 14.8933 43.7643 16.9856C71.2151 23.0149 78.5963 24.654 78.9139 24.7913C79.5713 25.0754 80.2174 26.0839 80.229 26.8441C80.236 27.3009 80.2053 27.2879 82.3029 27.7172C86.7274 28.6226 106.35 32.9436 107.821 33.3366C110.535 34.0613 113.575 35.5276 118.133 38.3097C119.1 38.9 120.009 39.4451 120.154 39.5211C120.415 39.6582 120.425 39.6525 121.399 38.7504C122.095 38.106 122.566 37.7546 123.018 37.5429C123.607 37.2673 123.716 37.2474 124.435 37.2852C125.09 37.3196 125.308 37.3765 125.812 37.6453C126.847 38.1966 127.553 39.1255 127.87 40.3525C128.266 41.8827 127.8 43.0803 125.85 45.536C124.571 47.1465 122.083 49.7197 121.032 50.5182C119.657 51.5625 116.19 53.3054 111.575 55.2725C109.36 56.2168 109.019 56.3059 108.055 56.194C107.139 56.0877 106.906 55.9615 105.827 54.9865C105.338 54.5455 104.882 54.1845 104.812 54.1845C104.742 54.1845 103.102 54.5939 101.168 55.0944C99.2342 55.5949 97.4941 56.0449 97.3013 56.0944C97.1086 56.144 96.4884 56.4901 95.9232 56.8635C94.6571 57.7 93.7784 58.1144 92.6908 58.3877C91.5615 58.6715 88.87 58.6978 87.9102 58.4343C86.8513 58.1437 84.6722 57.2149 80.9478 55.4668C77.0822 53.6523 77.0757 53.6504 77.0757 54.3258C77.0757 55.4868 76.5718 56.5904 75.6536 57.4406C74.9117 58.1275 74.2229 58.526 73.1623 58.8818C72.5008 59.1038 72.3013 59.1257 71.0239 59.1164C70.2491 59.1107 69.3091 59.0501 68.935 58.9816V58.9816ZM71.8461 55.6106C72.1204 55.5586 72.5924 55.3657 72.895 55.1819L73.4451 54.8477L73.5547 54.2073C73.8347 52.5718 74.2772 51.6804 75.1353 51.0229C75.6573 50.623 76.6036 50.288 77.2109 50.288C78.0081 50.288 78.9996 50.6771 83.0157 52.566C87.609 54.7264 88.3933 55.0259 89.7133 55.1236C91.4528 55.2523 92.3272 55.0263 93.7699 54.0753C95.0992 53.199 95.7478 52.9292 97.8894 52.3615C98.8564 52.1052 100.631 51.6337 101.834 51.3138C103.7 50.8171 104.144 50.731 104.876 50.7239C105.667 50.7163 105.784 50.7406 106.388 51.0379C106.812 51.2461 107.302 51.6075 107.775 52.0595C108.178 52.4442 108.539 52.759 108.577 52.759C108.615 52.759 110.128 52.1082 111.94 51.3129C114.185 50.3275 115.824 49.5361 117.086 48.8286C118.879 47.8236 118.978 47.7519 120.185 46.5919C121.778 45.0613 123.661 42.8798 124.298 41.8294C124.523 41.4582 124.566 40.9246 124.377 40.852C124.309 40.826 123.769 41.2512 123.176 41.797C120.923 43.8715 120.513 43.8421 116.327 41.3051C111.919 38.6331 111.296 38.3092 108.67 37.3196C107.161 36.7509 108.218 36.9959 91.4267 33.3241C85.0757 31.9354 79.5586 30.7123 79.1666 30.6061C77.726 30.2158 76.8098 29.2753 76.7948 28.1711C76.791 27.8996 76.7513 27.8557 76.4342 27.773C76.2382 27.7219 73.2123 27.0544 69.7101 26.2898C66.2079 25.5252 59.8355 24.1087 55.5492 23.1421C47.2243 21.2645 36.9201 18.9905 34.7355 18.5486C34.0037 18.4006 33.0201 18.2523 32.5496 18.2191C21.4195 17.4332 15.4478 17.1297 15.2384 17.339C15.2034 17.374 15.4926 17.5495 15.8811 17.729C17.4249 18.4423 20.6749 20.2404 22.4754 21.3774C23.5209 22.0375 25.615 23.4932 27.1291 24.6121C30.305 26.9592 35.4216 31.1417 36.1501 31.9862C37.7741 33.869 38.3105 35.8866 37.6077 37.4692C37.4772 37.763 37.3977 38.0453 37.431 38.0963C37.5571 38.2892 45.8 45.0081 46.663 45.6213C48.2133 46.7229 49.6325 47.5171 53.3633 49.3706C56.8015 51.0788 57.1892 51.2459 61.4417 52.8523C66.2331 54.6623 67.5539 55.1063 69.0449 55.408C70.6572 55.7343 71.0457 55.7624 71.8461 55.6106V55.6106Z" />
<path d="M103.137 41.3272L103.428 39.9478L103.719 38.5684L107.996 40.1286L112.273 41.6887L107.705 41.508L103.137 41.3272Z" />
</svg>
