<svg width="128" height="72" viewBox="0 0 128 72" fill="none" xmlns="http://www.w3.org/2000/svg">
<path d="M69.0196 52.0426C67.4121 51.7485 65.8637 51.2604 61.528 49.6812C56.8336 47.9713 53.4851 46.4697 50.0673 44.5417C47.2586 42.9573 46.0084 42.1216 43.6853 40.2759C41.7104 38.7068 37.1563 34.897 36.3285 34.1215C35.5517 33.3937 35.4845 32.2495 36.1424 30.9512C36.7699 29.7128 36.1261 28.9454 31.0561 24.8887C26.3073 21.0891 22.6587 18.6295 19.2359 16.9205C15.9525 15.2811 15.0701 14.9842 10.651 14.0319C5.51885 12.926 5.17538 12.8149 4.43262 12.0208C3.96204 11.5178 3.82098 11.1291 3.82153 10.3371C3.82222 9.35388 4.4507 8.37413 5.39319 7.887C5.73433 7.71068 6.0186 7.64499 6.5729 7.61442C7.48222 7.56427 8.41562 7.79012 10.7517 8.62555C11.6483 8.94618 12.6094 9.25119 12.8875 9.30337C13.2486 9.3711 14.0102 9.36756 15.5505 9.291C18.1027 9.16415 20.6611 9.27082 28.89 9.84716C31.6784 10.0425 34.2833 10.2022 34.6788 10.2022C35.4985 10.2022 36.2042 10.3443 45.2134 12.3231C71.176 18.0256 78.1571 19.5759 78.4575 19.7057C79.0793 19.9744 79.6904 20.9282 79.7014 21.6472C79.708 22.0792 79.6789 22.067 81.6628 22.473C85.8475 23.3293 104.406 27.4161 105.798 27.7878C108.364 28.4732 111.24 29.86 115.55 32.4913C116.465 33.0496 117.325 33.5651 117.462 33.637C117.709 33.7667 117.718 33.7613 118.639 32.9081C119.297 32.2987 119.743 31.9663 120.171 31.7661C120.728 31.5054 120.831 31.4866 121.511 31.5223C122.131 31.5548 122.337 31.6087 122.814 31.8629C123.792 32.3843 124.46 33.2629 124.76 34.4234C125.135 35.8706 124.693 37.0033 122.849 39.3258C121.64 40.849 119.286 43.2827 118.292 44.0379C116.992 45.0257 113.713 46.6741 109.348 48.5345C107.253 49.4276 106.931 49.5119 106.019 49.4061C105.153 49.3056 104.933 49.1862 103.911 48.2641C103.45 47.8469 103.018 47.5056 102.952 47.5055C102.885 47.5055 101.335 47.8927 99.5055 48.3661C97.6763 48.8394 96.0305 49.2651 95.8482 49.3119C95.6659 49.3588 95.0794 49.6861 94.5448 50.0393C93.3474 50.8305 92.5163 51.2224 91.4877 51.4809C90.4195 51.7493 87.8739 51.7742 86.9662 51.525C85.9646 51.2501 83.9037 50.3716 80.3812 48.7183C76.7252 47.0022 76.719 47.0004 76.719 47.6392C76.719 48.7373 76.2425 49.781 75.374 50.5851C74.6723 51.2347 74.0209 51.6116 73.0178 51.9482C72.3921 52.1581 72.2034 52.1788 70.9953 52.17C70.2624 52.1647 69.3734 52.1073 69.0196 52.0426ZM71.7729 48.8543C72.0324 48.8051 72.4788 48.6227 72.7649 48.4488L73.2852 48.1328L73.3889 47.5271C73.6537 45.9802 74.0722 45.1371 74.8838 44.5153C75.3775 44.1371 76.2725 43.8202 76.8469 43.8202C77.6009 43.8202 78.5386 44.1882 82.337 45.9747C86.6813 48.018 87.4231 48.3013 88.6715 48.3937C90.3168 48.5154 91.1438 48.3017 92.5082 47.4022C93.7654 46.5735 94.3789 46.3182 96.4044 45.7813C97.319 45.5389 98.9976 45.093 100.135 44.7905C101.9 44.3207 102.32 44.2393 103.013 44.2326C103.76 44.2253 103.871 44.2483 104.443 44.5295C104.843 44.7264 105.307 45.0682 105.754 45.4957C106.135 45.8596 106.476 46.1573 106.512 46.1573C106.548 46.1573 107.98 45.5418 109.693 44.7896C111.816 43.8576 113.367 43.1091 114.561 42.4399C116.256 41.4894 116.35 41.4217 117.492 40.3245C118.998 38.8768 120.779 36.8137 121.382 35.8202C121.594 35.4691 121.635 34.9644 121.456 34.8958C121.392 34.8712 120.881 35.2733 120.32 35.7895C118.189 37.7516 117.801 37.7238 113.843 35.3243C109.673 32.7972 109.084 32.4908 106.601 31.5548C105.174 31.017 106.174 31.2487 90.292 27.776C84.2853 26.4626 79.0673 25.3057 78.6965 25.2053C77.3341 24.8362 76.4676 23.9466 76.4533 22.9023C76.4498 22.6455 76.4122 22.604 76.1123 22.5258C75.9269 22.4774 73.0651 21.8462 69.7527 21.123C66.4404 20.3999 60.4134 19.0601 56.3595 18.1459C48.4858 16.3701 38.7402 14.2193 36.6741 13.8014C35.9819 13.6614 35.0516 13.5212 34.6067 13.4897C24.0799 12.7465 18.4319 12.4594 18.2339 12.6574C18.2008 12.6905 18.4743 12.8565 18.8417 13.0263C20.3018 13.7009 23.3756 15.4015 25.0786 16.4768C26.0673 17.1012 28.048 18.4779 29.48 19.5362C32.4837 21.7561 37.3229 25.7118 38.0119 26.5106C39.548 28.2913 40.0553 30.1996 39.3905 31.6963C39.2671 31.9743 39.1919 32.2412 39.2234 32.2895C39.3426 32.4719 47.1388 38.8265 47.955 39.4065C49.4212 40.4484 50.7635 41.1995 54.292 42.9526C57.5439 44.5682 57.9105 44.7262 61.9325 46.2455C66.4642 47.9574 67.7134 48.3773 69.1235 48.6627C70.6484 48.9713 71.0159 48.9979 71.7729 48.8543Z" fill="black"/>
<path d="M101.367 35.3453L101.642 34.0406L101.918 32.736L105.963 34.2116L110.008 35.6872L105.688 35.5162L101.367 35.3453Z" fill="black"/>
</svg>
