<svg width="128" height="72" viewBox="0 0 128 72" fill="none" xmlns="http://www.w3.org/2000/svg">
<path d="M4.3477 62.5961C1.4675 61.4714 -0.432427 58.3499 0.0848815 55.5924C0.293304 54.4815 7.81369 43.0386 10.7271 39.3995C13.1714 36.3464 14.9893 34.5403 23.3414 26.8668C31.3394 19.5188 31.5422 19.3505 34.3265 17.7548C38.3955 15.4228 41.9785 14.3574 46.8462 14.0323L49.2231 13.8735L49.5066 12.1568C49.8237 10.2361 50.193 9.39213 50.822 9.15076C51.9632 8.71284 53.0429 9.11 58.4118 11.9427C61.4923 13.5679 67.4592 16.5852 71.6716 18.6478C75.884 20.7104 82.4798 24.0566 86.3291 26.0838C90.1783 28.111 98.2369 32.3577 104.237 35.5208C110.237 38.684 116.731 41.9707 118.668 42.8247C125.469 45.8228 127.625 47.367 127.969 49.4853C128.182 50.7978 127.271 52.5687 125.891 53.5249C124.814 54.2715 124.76 54.2798 121.477 54.2042C112.078 53.988 101.991 53.3534 99.9066 52.8471C97.4004 52.2384 94.4413 51.0987 91.8708 49.7521C89.6388 48.5829 88.0397 48.3749 85.9511 48.9821C83.6696 49.6453 82.4315 50.9464 80.5265 54.6832C78.2625 59.1237 77.5161 59.8948 74.9338 60.4604C73.2449 60.8303 61.3376 61.6206 60.3225 61.4302C59.003 61.1826 57.3805 59.8806 57.0163 58.7771C56.7745 58.0444 56.7682 54.2491 56.9891 42.3196C57.1471 33.7917 57.3493 25.4179 57.4385 23.7112L57.6006 20.608H56.2526C55.2397 20.608 53.7766 21.0314 50.3687 22.3105C47.874 23.2469 45.6058 24.2401 45.3283 24.5176C44.6076 25.2382 44.3561 27.7063 44.3459 34.157C44.3335 42.054 43.6066 44.592 41.0036 45.8272C40.0286 46.2899 39.8675 46.2915 37.2152 45.8648C33.8504 45.3236 32.8351 44.8547 31.7975 43.3627C31.0231 42.2492 31.0004 42.1296 31.0031 39.1906L31.006 36.1648L30.0788 36.3006C29.5688 36.3753 28.082 36.5119 26.7747 36.6041C25.4674 36.6964 24.1459 36.9306 23.838 37.1247C23.3038 37.4613 21.7526 39.0463 19.2399 41.8229L18.0857 43.0982L16.1872 50.6846C14.7071 56.5988 14.1073 58.5656 13.466 59.6078C11.595 62.6487 7.72796 63.916 4.3477 62.5961H4.3477ZM9.31653 59.2064C9.73711 58.9666 10.3027 58.4732 10.5733 58.1101C10.8552 57.7319 11.9056 54.1373 13.032 49.6967C14.1135 45.4325 15.167 41.689 15.3729 41.3776C15.5789 41.0663 17.1268 39.3064 18.8128 37.4666C20.9404 35.145 22.1529 34.0309 22.7758 33.8253C23.2695 33.6624 25.4924 33.3629 27.7157 33.1597C33.8989 32.5946 34.3015 32.8993 34.3015 38.1425C34.3015 40.6565 34.3914 41.5241 34.6821 41.8147C35.018 42.1506 38.2287 42.7924 39.5731 42.7924C40.5523 42.7924 40.8488 40.8499 41.0409 33.1765C41.2297 25.6333 41.3947 24.526 42.6014 22.7025C43.4414 21.4332 43.7831 21.2572 49.5602 19.1186C53.8201 17.5416 54.4222 17.386 56.2554 17.3888C58.6951 17.3924 59.6667 17.8272 60.325 19.2099C60.7799 20.1654 60.7874 20.9895 60.4868 36.9822C60.3135 46.2059 60.1742 54.733 60.1774 55.9313L60.1833 58.1101H61.6326C64.2869 58.1101 74.3025 57.3012 74.9912 57.0311C75.6957 56.7549 76.8158 55.0082 78.4231 51.6797C80.0792 48.2502 82.3731 46.3835 85.9584 45.5478C88.5369 44.9468 89.8476 45.1921 93.7239 47.0011C99.4465 49.6718 100.507 49.9163 108.117 50.3192C121.851 51.0463 123.946 51.0809 124.356 50.5873C124.622 50.2672 124.649 50.0198 124.455 49.7028C124.101 49.1263 120.051 46.9352 117.299 45.8311C115.177 44.98 108.415 41.4774 85.5426 29.382C79.3725 26.1191 73.272 22.9931 71.9861 22.4353C70.7001 21.8776 65.9775 19.515 61.4914 17.1852C57.0052 14.8554 53.2118 12.9491 53.0616 12.9491C52.9114 12.9491 52.7885 13.4958 52.7885 14.164C52.7885 15.1935 52.6515 15.5159 51.8905 16.2768C51.0528 17.1146 50.8771 17.1747 49.2687 17.1747C43.974 17.1747 38.182 18.9168 34.0374 21.7558C31.7194 23.3437 17.2312 36.8192 14.5586 39.8731C11.6981 43.1418 3.40162 55.619 3.40289 56.6505C3.40608 59.2337 6.74084 60.675 9.31653 59.2064H9.31653Z" fill="#3D4143"/>
<path d="M62.0886 27.8845L63.4736 27.8852L64.8586 27.8858L64.2243 32.3136L63.59 36.7414L62.8393 32.313L62.0886 27.8845Z" fill="#3D4143"/>
</svg>
