<svg width="128" height="72" viewBox="0 0 128 72" fill="none" xmlns="http://www.w3.org/2000/svg">
<path d="M5.10557 59.6158C2.33289 58.5331 0.503881 55.5282 1.00188 52.8736C1.20252 51.8041 8.44217 40.7884 11.2468 37.2852C13.5999 34.346 15.3499 32.6073 23.3902 25.2203C31.0897 18.1466 31.2849 17.9846 33.9653 16.4484C37.8823 14.2035 41.3316 13.1779 46.0177 12.8649L48.3058 12.712L48.5787 11.0594C48.884 9.21042 49.2395 8.39794 49.845 8.16558C50.9436 7.74401 51.983 8.12634 57.1515 10.8533C60.117 12.4178 65.8611 15.3225 69.9163 17.3081C73.9714 19.2937 80.3211 22.515 84.0266 24.4665C87.7322 26.4181 95.4899 30.5062 101.266 33.5513C107.042 36.5963 113.294 39.7604 115.159 40.5825C121.706 43.4687 123.781 44.9552 124.112 46.9945C124.317 48.2579 123.44 49.9627 122.112 50.8833C121.075 51.6019 121.023 51.6099 117.862 51.5372C108.814 51.3291 99.1037 50.7181 97.0973 50.2308C94.6847 49.6448 91.836 48.5476 89.3614 47.2513C87.2128 46.1257 85.6734 45.9255 83.6627 46.51C81.4664 47.1485 80.2746 48.401 78.4406 51.9983C76.2612 56.273 75.5426 57.0153 73.0567 57.5598C71.4309 57.9159 59.968 58.6767 58.9909 58.4934C57.7206 58.2551 56.1587 57.0017 55.808 55.9394C55.5753 55.234 55.5692 51.5804 55.7819 40.0962C55.934 31.8867 56.1286 23.8255 56.2145 22.1825L56.3706 19.1951H55.0728C54.0978 19.1951 52.6893 19.6027 49.4086 20.8341C47.007 21.7355 44.8235 22.6916 44.5563 22.9588C43.8626 23.6525 43.6204 26.0285 43.6107 32.2383C43.5987 39.8406 42.899 42.2838 40.3931 43.4729C39.4545 43.9183 39.2994 43.9198 36.7461 43.5091C33.507 42.9881 32.5296 42.5367 31.5307 41.1004C30.7852 40.0285 30.7633 39.9133 30.766 37.084L30.7687 34.1712L29.8761 34.3019C29.3852 34.3738 27.9539 34.5053 26.6954 34.5941C25.4369 34.6829 24.1647 34.9084 23.8683 35.0952C23.3541 35.4193 21.8607 36.9451 19.4418 39.618L18.3308 40.8458L16.5031 48.1489C15.0783 53.8424 14.5009 55.7358 13.8835 56.7391C12.0823 59.6664 8.35964 60.8864 5.10557 59.6158H5.10557ZM9.88892 56.3526C10.2938 56.1218 10.8382 55.6469 11.0988 55.2973C11.3701 54.9332 12.3814 51.4728 13.4656 47.198C14.5069 43.093 15.521 39.4891 15.7192 39.1894C15.9175 38.8898 17.4076 37.1955 19.0307 35.4244C21.0788 33.1895 22.2461 32.117 22.8458 31.9191C23.321 31.7622 25.461 31.4739 27.6013 31.2783C33.5536 30.7343 33.9412 31.0276 33.9412 36.075C33.9412 38.4952 34.0278 39.3304 34.3076 39.6102C34.6309 39.9335 37.7218 40.5514 39.016 40.5514C39.9587 40.5514 40.2441 38.6814 40.429 31.2944C40.6108 24.0328 40.7696 22.9668 41.9313 21.2115C42.7399 19.9895 43.0689 19.8201 48.6303 17.7613C52.7311 16.2432 53.3108 16.0934 55.0756 16.096C57.4242 16.0995 58.3595 16.5181 58.9932 17.8492C59.4312 18.7691 59.4384 19.5623 59.149 34.9581C58.9822 43.8374 58.8481 52.0462 58.8512 53.1998L58.8568 55.2973H60.252C62.8073 55.2973 72.449 54.5185 73.1119 54.2586C73.7901 53.9927 74.8685 52.3112 76.4158 49.107C78.01 45.8054 80.2183 44.0084 83.6697 43.2039C86.152 42.6254 87.4138 42.8615 91.1453 44.603C96.6543 47.1739 97.6756 47.4094 105.001 47.7972C118.223 48.4971 120.24 48.5304 120.634 48.0553C120.89 47.7471 120.916 47.509 120.729 47.2039C120.388 46.6488 116.49 44.5396 113.84 43.4766C111.798 42.6573 105.288 39.2854 83.2695 27.6416C77.3297 24.5005 71.457 21.4912 70.219 20.9542C68.9811 20.4173 64.4347 18.1429 60.1161 15.9001C55.7974 13.6572 52.1456 11.8222 52.001 11.8222C51.8564 11.8222 51.7381 12.3484 51.7381 12.9917C51.7381 13.9827 51.6062 14.2931 50.8736 15.0256C50.0672 15.8321 49.898 15.89 48.3496 15.89C43.2526 15.89 37.6768 17.567 33.687 20.3001C31.4555 21.8287 17.5081 34.8011 14.9353 37.741C12.1816 40.8877 4.1948 52.8992 4.19603 53.8921C4.1991 56.3789 7.40937 57.7664 9.88891 56.3526H9.88892Z" fill="black"/>
<path d="M60.6909 26.2L62.0243 26.2006L63.3576 26.2012L62.747 30.4637L62.1364 34.7262L61.4136 30.4631L60.6909 26.2Z" fill="black"/>
</svg>
