<svg  viewBox="0 0 128 72" fill="#3D4143" xmlns="http://www.w3.org/2000/svg">
<path d="M78.6753 71.8538C76.7607 71.2857 75.3401 69.815 75.0168 68.0661C74.8239 67.0228 75.185 65.7631 76.5602 62.6812C78.3945 58.5702 79.5746 55.2031 79.9155 53.1071C80.0436 52.3194 80.0718 51.5745 80.0603 49.2863L80.046 46.4439L80.2998 45.6518C80.5311 44.9298 80.6145 44.7958 81.2421 44.1369C81.6207 43.7394 82.145 43.2931 82.407 43.1453C82.669 42.9974 83.9108 42.456 85.1666 41.9423C88.0812 40.7498 88.704 40.4676 88.9732 40.2171C89.3204 39.8942 89.5466 39.3646 89.5463 38.8758C89.5456 37.995 88.9452 37.4563 87.8794 37.38C87.2952 37.3382 87.1293 37.3777 85.3022 37.9941C79.4165 39.9795 75.6138 40.8434 72.772 40.8409C71.0217 40.8393 69.5414 40.6384 65.9595 39.9165C64.5552 39.6335 62.9239 39.317 62.3345 39.2133C60.9754 38.974 58.7947 38.8825 57.8613 39.0256C55.9997 39.311 52.6862 40.8631 50.7905 42.3376C48.5767 44.0595 44.9787 45.3835 42.1464 45.5184C41.4396 45.5521 39.1387 45.4689 35.7747 45.288C31.1567 45.0397 30.3876 44.9768 29.519 44.7767C28.3411 44.5052 27.3861 44.1224 26.456 43.549C25.4354 42.9197 24.9248 42.4522 24.1807 41.4655C22.5085 39.2482 21.9095 37.4451 22.0109 34.9347C22.1091 32.5032 22.5569 31.5686 25.8875 26.8427C26.6042 25.8259 27.4091 24.641 27.6762 24.2097C28.0853 23.5492 32.047 15.6437 32.047 15.4879C32.047 15.3229 32.9508 14.117 33.2549 13.8761C33.7285 13.501 34.497 13.1666 35.1723 13.0418C36.2867 12.8358 39.3589 13.0007 41.1375 13.362C44.7745 14.1008 47.6229 15.535 50.0167 17.8327C51.9102 19.6501 52.371 21.0385 51.5948 22.5867C50.9858 23.8015 49.3223 25.1666 47.6101 25.8567C47.277 25.991 46.3334 26.2198 45.5133 26.3652C41.2144 27.1275 40.2309 27.3621 38.4918 28.0398C36.9071 28.6574 36.3859 28.983 35.8536 29.6878C35.4747 30.1894 35.4095 30.3431 35.3535 30.866C35.2279 32.0387 35.5821 33.0516 36.2874 33.5369C36.8052 33.8932 37.4611 34.0397 39.5956 34.2763C44.7715 34.8499 48.4255 34.7931 53.9068 34.0538C58.7538 33.4001 61.7616 32.6745 66.6213 30.9866C71.2537 29.3776 74.3918 28.012 76.8353 26.5417C78.281 25.6718 78.6091 25.5223 79.072 25.5223C80.0284 25.5223 80.6575 26.0062 81.4347 27.3395C81.7036 27.8008 82.0138 28.2767 82.1239 28.397C82.452 28.7553 83.0216 28.9971 83.5348 28.9959C84.1966 28.9944 84.6397 28.779 84.9507 28.3077C85.1854 27.9521 85.2116 27.8354 85.198 27.2054C85.1849 26.595 82.4158 10.4536 81.8157 7.48958C81.4858 5.85993 81.6259 4.56446 82.2803 3.19559C82.9581 1.77764 84.4507 0.685226 86.2033 0.324448C86.5813 0.246626 87.6665 0.139024 88.6147 0.0853335C95.562 -0.308035 99.2983 0.630182 102.184 3.49264C103.253 4.55396 103.865 5.36764 104.451 6.50672C105.476 8.50225 105.895 10.2252 105.893 12.4288C105.892 14.1186 105.637 15.4527 105.021 16.9932C102 24.5462 83.5979 69.7288 83.4406 69.978C83.057 70.5857 82.0412 71.4288 81.3643 71.7014C80.537 72.0346 79.4856 72.0942 78.6753 71.8538V71.8538ZM80.7939 69.3263C81.0205 69.1746 81.3013 68.9083 81.418 68.7347C81.6271 68.4231 96.396 32.18 100.85 21.049C102.35 17.2989 103.192 15.0709 103.287 14.6037C104.213 10.0078 102.185 5.51427 98.3127 3.58089C96.8744 2.86282 95.9331 2.64392 93.4835 2.45792C92.1641 2.35772 91.2545 2.3488 89.4297 2.41816C87.2807 2.49983 87.0086 2.52913 86.2863 2.75658C85.6011 2.97238 85.4251 3.07467 84.9666 3.52353C84.4921 3.98797 84.4126 4.12377 84.1963 4.83841C84.0636 5.27673 83.9551 5.75194 83.9551 5.89443C83.9551 6.03693 84.7277 10.4596 85.672 15.7225C87.6457 26.7226 87.7135 27.1417 87.6314 27.8471C87.4227 29.642 85.5017 31.293 83.6013 31.3108C82.8168 31.3181 82.3155 31.1895 81.5316 30.7794C80.7394 30.3651 80.2527 29.8807 79.6102 28.867C79.3212 28.4113 79.0502 28.0384 79.0079 28.0384C78.9656 28.0384 78.7719 28.1475 78.5774 28.2807C78.1527 28.5717 74.5368 30.3928 73.207 30.9854C69.1334 32.8009 61.9289 35.0957 58.1874 35.7694C53.3199 36.6458 48.0685 37.1485 44.861 37.0451C42.0786 36.9554 38.1491 36.5819 36.8231 36.281C35.593 36.0019 34.3609 35.1624 33.7153 34.1636C33.0337 33.109 32.7999 31.8862 33.0199 30.5268C33.3001 28.7962 34.3123 27.485 36.1475 26.4753C36.7457 26.1462 38.7034 25.3932 39.64 25.1321C40.6376 24.8539 42.1743 24.536 44.0347 24.2229C46.8149 23.7552 47.7055 23.3972 48.7924 22.3106C49.1642 21.9389 49.4919 21.5226 49.529 21.3749C49.7527 20.4837 47.4195 18.3741 44.7687 17.0709C43.5733 16.4832 41.8369 15.914 40.3876 15.6346C39.1404 15.3943 35.7303 15.2723 35.1951 15.4489C34.5942 15.6472 34.2537 16.1885 32.962 18.9988C32.0135 21.0626 30.2493 24.5248 29.6855 25.4291C29.4778 25.7622 28.821 26.7268 28.2261 27.5725C25.5516 31.3743 25.0511 32.1881 24.664 33.3643C24.407 34.1451 24.3775 34.352 24.3799 35.354C24.3832 36.7361 24.5971 37.6125 25.2016 38.7216C26.2957 40.7287 27.6864 41.8717 29.6706 42.3947C30.4267 42.5939 33.017 42.7876 38.2616 43.0372C41.8155 43.2063 42.7335 43.1783 44.0314 42.8614C46.1124 42.3532 47.6021 41.6706 49.588 40.315C51.4362 39.0535 52.5339 38.4182 53.8571 37.8445C55.8124 36.9968 57.2082 36.6473 59.0262 36.5502C60.3998 36.4769 61.8268 36.6686 65.4977 37.4194C69.6466 38.268 70.6822 38.4095 72.8186 38.4199C74.123 38.4262 74.8469 38.3847 75.5678 38.2622C77.5424 37.9269 80.3875 37.1515 83.5823 36.0779C86.7549 35.0119 86.8091 34.9975 87.6828 34.9894C88.5199 34.9817 88.6075 35.0001 89.2918 35.3268C90.539 35.9224 91.4494 36.9539 91.7448 38.1063C92.0902 39.4535 91.6623 40.8297 90.5758 41.866C89.9212 42.4904 89.4262 42.7357 85.9255 44.1706C83.3596 45.2223 82.9989 45.4438 82.6533 46.179C82.4223 46.6704 82.4163 46.7777 82.4507 49.7988C82.483 52.6294 82.2934 53.8832 81.3963 56.7711C80.9141 58.3235 79.4231 62.1173 78.4477 64.2737C77.2995 66.8122 77.1635 67.4254 77.5661 68.2483C77.9856 69.1058 78.7919 69.6022 79.7652 69.6022C80.2936 69.6022 80.4408 69.5627 80.7939 69.3263V69.3263Z" />
<path d="M96.9117 44.8221L98.1825 45.3662L99.4532 45.9104L97.1335 49.7247L94.8137 53.5389L95.8627 49.1805L96.9117 44.8221Z" />
</svg>
