<svg width="128" height="72" viewBox="0 0 128 72" fill="none" xmlns="http://www.w3.org/2000/svg">
<path d="M77.5591 69.7223C75.7124 69.1744 74.3422 67.7559 74.0303 66.069C73.8443 65.0626 74.1925 63.8476 75.5189 60.875C77.2883 56.9098 78.4265 53.6621 78.7553 51.6405C78.8788 50.8806 78.9061 50.1621 78.895 47.9551L78.8812 45.2135L79.1259 44.4495C79.3491 43.7531 79.4295 43.6238 80.0348 42.9883C80.4001 42.6049 80.9057 42.1744 81.1584 42.0318C81.4112 41.8892 82.6089 41.367 83.8202 40.8715C86.6314 39.7213 87.2321 39.4491 87.4919 39.2075C87.8267 38.896 88.0449 38.3852 88.0446 37.9137C88.0439 37.0642 87.4649 36.5446 86.4368 36.471C85.8733 36.4307 85.7133 36.4688 83.951 37.0633C78.274 38.9783 74.6061 39.8116 71.8651 39.8091C70.1769 39.8076 68.7491 39.6139 65.2941 38.9176C63.9396 38.6446 62.3662 38.3393 61.7977 38.2392C60.4868 38.0084 58.3834 37.9202 57.4831 38.0582C55.6875 38.3335 52.4915 39.8306 50.6631 41.2528C48.5278 42.9137 45.0573 44.1907 42.3254 44.3208C41.6437 44.3533 39.4244 44.2731 36.1797 44.0986C31.7254 43.8591 30.9836 43.7984 30.1458 43.6054C29.0097 43.3435 28.0885 42.9743 27.1914 42.4212C26.207 41.8143 25.7145 41.3633 24.9968 40.4116C23.3839 38.273 22.8061 36.5338 22.9039 34.1124C22.9987 31.7671 23.4305 30.8656 26.6431 26.3074C27.3343 25.3266 28.1107 24.1837 28.3684 23.7677C28.763 23.1306 32.5842 15.5054 32.5842 15.3551C32.5842 15.196 33.4559 14.0328 33.7493 13.8005C34.206 13.4387 34.9473 13.1162 35.5987 12.9958C36.6736 12.7971 39.6368 12.9561 41.3524 13.3046C44.8603 14.0172 47.6078 15.4006 49.9167 17.6168C51.743 19.3698 52.1875 20.7089 51.4389 22.2022C50.8514 23.374 49.247 24.6906 47.5955 25.3563C47.2741 25.4858 46.364 25.7065 45.573 25.8468C41.4265 26.582 40.4779 26.8083 38.8004 27.462C37.2719 28.0577 36.7692 28.3717 36.2558 29.0515C35.8904 29.5354 35.8274 29.6836 35.7734 30.1879C35.6523 31.3191 35.9939 32.2961 36.6743 32.7641C37.1737 33.1078 37.8063 33.2492 39.8651 33.4773C44.8575 34.0306 48.3819 33.9758 53.6689 33.2628C58.344 32.6322 61.2451 31.9323 65.9325 30.3043C70.4007 28.7524 73.4274 27.4352 75.7844 26.017C77.1788 25.1779 77.4952 25.0337 77.9417 25.0337C78.8642 25.0337 79.471 25.5004 80.2207 26.7865C80.48 27.2315 80.7792 27.6905 80.8854 27.8065C81.2019 28.1521 81.7512 28.3853 82.2463 28.3842C82.8846 28.3827 83.312 28.175 83.612 27.7204C83.8383 27.3774 83.8636 27.2649 83.8505 26.6571C83.8379 26.0685 81.1669 10.4994 80.5881 7.64045C80.2699 6.06859 80.4051 4.81905 81.0362 3.49872C81.69 2.13105 83.1297 1.07737 84.8201 0.729386C85.1848 0.654323 86.2314 0.550537 87.146 0.498751C93.847 0.11933 97.4508 1.02428 100.234 3.78524C101.266 4.80892 101.856 5.59375 102.42 6.69244C103.409 8.61721 103.814 10.2791 103.812 12.4045C103.81 14.0344 103.564 15.3212 102.97 16.807C100.057 24.0923 82.3071 67.6727 82.1554 67.9131C81.7854 68.4992 80.8057 69.3124 80.1527 69.5754C79.3548 69.8968 78.3407 69.9542 77.5591 69.7223ZM79.6025 67.2845C79.8211 67.1382 80.092 66.8814 80.2045 66.7138C80.4062 66.4133 94.6514 31.4554 98.9471 20.7191C100.394 17.102 101.207 14.9529 101.298 14.5023C102.191 10.0693 100.235 5.73518 96.5001 3.87036C95.1129 3.17775 94.2049 2.96661 91.8422 2.7872C90.5695 2.69056 89.6922 2.68196 87.9321 2.74885C85.8594 2.82763 85.5968 2.8559 84.9002 3.07528C84.2393 3.28343 84.0695 3.38209 83.6273 3.81503C83.1697 4.26301 83.0929 4.39399 82.8843 5.08329C82.7563 5.50606 82.6516 5.96442 82.6516 6.10186C82.6516 6.23931 83.3969 10.5051 84.3077 15.5815C86.2114 26.1914 86.2767 26.5957 86.1976 27.2761C85.9963 29.0074 84.1434 30.5998 82.3104 30.617C81.5537 30.6241 81.0702 30.4999 80.3141 30.1044C79.55 29.7048 79.0806 29.2376 78.4608 28.2599C78.1821 27.8203 77.9207 27.4607 77.8799 27.4607C77.8391 27.4607 77.6522 27.5658 77.4646 27.6943C77.055 27.975 73.5674 29.7315 72.2847 30.3032C68.3555 32.0543 61.4065 34.2677 57.7977 34.9175C53.1027 35.7628 48.0376 36.2477 44.9438 36.148C42.26 36.0615 38.4699 35.7012 37.191 35.411C36.0045 35.1417 34.816 34.332 34.1933 33.3686C33.5359 32.3514 33.3104 31.172 33.5226 29.8608C33.7928 28.1916 34.7691 26.9269 36.5393 25.953C37.1163 25.6355 39.0046 24.9093 39.9079 24.6573C40.8702 24.389 42.3523 24.0824 44.1468 23.7805C46.8284 23.3293 47.6874 22.984 48.7358 21.9359C49.0944 21.5774 49.4105 21.1759 49.4462 21.0335C49.662 20.1738 47.4116 18.139 44.8548 16.882C43.7017 16.3152 42.0269 15.7661 40.629 15.4967C39.426 15.2648 36.1368 15.1472 35.6207 15.3175C35.041 15.5088 34.7126 16.0309 33.4667 18.7416C32.5518 20.7321 30.8502 24.0716 30.3064 24.9438C30.106 25.2652 29.4726 26.1955 28.8987 27.0112C26.3191 30.6782 25.8363 31.4632 25.463 32.5977C25.2151 33.3508 25.1866 33.5503 25.1889 34.5169C25.1922 35.8499 25.3984 36.6953 25.9815 37.765C27.0368 39.7009 28.3782 40.8034 30.2921 41.3078C31.0213 41.5 33.5198 41.6869 38.5784 41.9276C42.0063 42.0907 42.8917 42.0637 44.1436 41.758C46.1509 41.2679 47.5877 40.6094 49.5032 39.3019C51.2859 38.0851 52.3447 37.4724 53.6209 36.919C55.5069 36.1013 56.8532 35.7642 58.6067 35.6707C59.9316 35.5999 61.308 35.7848 64.8488 36.509C68.8505 37.3275 69.8494 37.464 71.9101 37.474C73.1682 37.4801 73.8665 37.44 74.5618 37.3219C76.4663 36.9985 79.2105 36.2505 82.2921 35.2151C85.3522 34.1868 85.4045 34.1729 86.2472 34.1652C87.0546 34.1577 87.1391 34.1755 87.7991 34.4906C89.0021 35.0651 89.8802 36.06 90.1652 37.1715C90.4983 38.4709 90.0856 39.7983 89.0376 40.7979C88.4062 41.4001 87.9288 41.6368 84.5522 43.0208C82.0773 44.0352 81.7293 44.2488 81.396 44.958C81.1732 45.4319 81.1674 45.5354 81.2006 48.4494C81.2317 51.1796 81.0488 52.389 80.1836 55.1745C79.7184 56.6718 78.2803 60.3311 77.3395 62.4111C76.2321 64.8596 76.1009 65.451 76.4892 66.2447C76.8938 67.0718 77.6715 67.5506 78.6103 67.5506C79.12 67.5506 79.262 67.5125 79.6025 67.2845Z" fill="black"/>
<path d="M95.1488 43.6492L96.3745 44.174L97.6002 44.6989L95.3627 48.3779L93.1252 52.0569L94.137 47.853L95.1488 43.6492Z" fill="black"/>
</svg>
