<svg width="56" height="56" viewBox="0 0 56 56" fill="none" xmlns="http://www.w3.org/2000/svg">
<rect width="56" height="56" rx="28" fill="#2B4562"/>
<path d="M31.7765 37.0863C31.9328 37.2497 32.121 37.3012 32.3359 37.2248V40.0574C32.3359 40.0574 32.3359 40.0521 32.0038 40.0521C29.4963 39.9953 27.1789 39.1659 25.2804 37.7896C26.3121 36.827 27.454 35.3158 28.1289 33.8347C28.5586 33.8489 29.0914 33.8418 29.8088 33.7583C30.1764 33.7157 30.3931 33.7122 30.7607 33.698C30.9099 33.6926 31.1781 33.6038 31.1372 33.3286C31.1141 33.1634 31.0253 32.9361 30.9561 32.7585C30.8744 32.5507 31.1425 32.4318 31.2473 32.5951C31.3077 32.691 31.4391 33.0018 31.4835 33.1048C31.5705 33.3037 31.805 33.5399 31.9754 33.6642C32.121 33.7708 32.2791 33.8543 32.4496 33.9164C32.7923 34.0389 33.0925 34.2378 33.3553 34.4882C33.437 34.5664 33.5098 34.6552 33.5773 34.7457C33.8135 35.0547 33.8792 35.2075 33.5524 35.5786C33.2576 35.9143 32.8989 36.1167 32.4603 36.1789C32.1655 36.2197 31.9382 36.1238 31.8121 35.8379C31.789 35.7864 31.7606 35.7367 31.7322 35.6869C31.6771 35.5893 31.6238 35.488 31.5599 35.3939C31.4693 35.259 31.3432 35.1826 31.1745 35.2092C30.9028 35.2501 30.6329 35.2927 30.3629 35.3442C30.3167 35.3531 30.2049 35.4259 30.2351 35.4508C30.3789 35.6994 30.537 35.9249 30.7199 36.1291C30.8069 36.2268 30.9117 36.273 31.0466 36.2677C31.3095 36.257 31.3201 36.2677 31.4284 36.5056C31.4799 36.6175 31.5297 36.7312 31.5918 36.8359C31.6433 36.9247 31.7055 37.01 31.7765 37.0863L31.7765 37.0863ZM32.7675 34.7617C32.5259 34.7706 32.2897 34.815 32.0412 34.8736C32.05 35.092 32.1264 35.2732 32.2081 35.4507C32.2809 35.607 32.3537 35.6496 32.5224 35.6283C32.6148 35.6159 32.7089 35.5875 32.7906 35.5449C32.954 35.4525 33.0126 35.2927 32.9699 35.108C32.9415 34.9855 32.8811 34.8807 32.7675 34.7617L32.7675 34.7617ZM39.6687 31.2259C39.603 31.0199 39.484 30.8547 39.3118 30.7251C39.1679 30.6185 39.0258 30.5102 38.8767 30.409C38.8145 30.3663 38.7417 30.3433 38.6707 30.3148C38.5801 30.2775 38.5037 30.3077 38.4451 30.3823C38.3936 30.4498 38.351 30.5244 38.2977 30.5919C38.2338 30.6753 38.1468 30.6984 38.0456 30.6682C37.9532 30.6416 37.9053 30.5688 37.9017 30.4498C37.8999 30.4019 37.8999 30.3521 37.9106 30.3077C37.9905 29.9916 38.1219 29.7004 38.3226 29.4429C38.351 29.4056 38.3865 29.3736 38.4238 29.3452C38.5215 29.2706 38.6138 29.2742 38.708 29.3488C39.0472 29.6915 39.3366 29.965 39.6456 30.2154C39.9795 30.4853 40.0701 30.8725 40.1287 31.2649C40.118 31.3218 40.1163 31.3697 40.1003 31.4123C40.0754 31.478 40.0239 31.5189 39.9493 31.5242C39.8818 31.5295 39.8125 31.5224 39.7752 31.4567C39.7344 31.3839 39.6954 31.3058 39.6687 31.2259V31.2259ZM38.9779 33.0657C39.1075 33.0302 39.1946 33.103 39.2141 33.2362C39.2212 33.293 39.2212 33.3481 39.223 33.3747C39.223 33.7512 39.1182 33.9306 38.6724 33.9625C38.486 33.9519 38.4309 33.9021 38.4132 33.8062C38.3723 33.563 38.4451 33.3552 38.644 33.2113C38.7399 33.1403 38.8607 33.0994 38.9779 33.0657V33.0657ZM52.0625 16.1877L49.2868 23.8895H45.7457V28.1215C45.742 28.2351 45.7475 28.3488 45.7457 28.4624C45.7012 34.7758 40.6275 39.8954 34.3605 40.0481L33.7762 40.057V36.5443L33.9893 36.4502C34.1669 36.3756 34.3196 36.2708 34.419 36.0985C34.5309 35.9085 34.6961 35.8321 34.9181 35.8339C35.2235 35.8357 35.2803 35.7789 35.3389 35.4894C35.3922 35.1733 35.4331 34.9105 35.4881 34.6512C35.5396 34.4079 35.513 34.1788 35.378 33.9692C35.14 33.5945 34.9021 33.218 34.6535 32.8504C34.4812 32.5983 34.3906 32.5858 34.1562 32.7972L34.3711 33.1967C34.5415 33.4347 34.7156 33.6727 34.8807 33.9159C34.934 33.9923 34.982 34.0811 34.9962 34.1699C35.0583 34.5464 35.0015 34.9069 34.8204 35.2425C34.7973 35.2834 34.7404 35.3065 34.6872 35.3455C34.657 35.2834 34.6268 35.2443 34.6179 35.2017C34.6037 35.1165 34.5948 35.0312 34.5966 34.946C34.5966 34.6316 34.4953 34.3581 34.2964 34.1095C34.0532 33.8076 33.8276 33.4915 33.6003 33.1772C33.3783 32.8735 33.4068 32.5521 33.6749 32.2839C33.7903 32.1721 33.9111 32.0655 34.0301 31.9554C34.1952 31.8062 34.3178 31.6286 34.3924 31.4209C34.451 31.261 34.5042 31.0976 34.5415 30.9325C34.6321 30.524 34.657 30.1085 34.6517 29.6894L34.6553 29.3768C34.6553 29.2987 34.6837 29.2294 34.7388 29.1726C34.8275 29.082 34.9643 29.0891 35.0318 29.1975C35.0708 29.2596 35.1028 29.3306 35.1188 29.4035C35.2005 29.7657 35.2449 30.1316 35.204 30.5027C35.1525 30.9662 35.0584 31.4173 34.9181 31.8613C34.8897 31.9483 34.8418 32.0318 34.8631 32.1454C34.9359 32.1454 34.9998 32.1525 35.0637 32.1454C35.1952 32.1295 35.3266 32.1028 35.458 32.0868C35.9055 32.0371 36.2944 31.8684 36.6087 31.5363C36.7526 31.3854 36.9106 31.2486 37.0634 31.1048C37.122 31.0497 37.1895 31.0231 37.2694 31.0568C37.344 31.0888 37.3884 31.1705 37.3635 31.2717C37.3386 31.3818 37.3067 31.4919 37.2569 31.5932C37.1752 31.7636 37.0847 31.9306 36.9817 32.0886C36.7632 32.4225 36.5786 32.7723 36.4383 33.147C36.353 33.3779 36.2536 33.6034 36.1737 33.8343C36.0938 34.0687 36.1506 34.1344 36.3868 34.1042C36.575 34.0811 36.6265 34.122 36.6389 34.3084C36.6443 34.383 36.6371 34.4594 36.6389 34.534C36.6408 34.6192 36.6389 34.7062 36.6531 34.7897C36.7117 35.1289 37.0829 35.3456 37.4043 35.2266C37.5552 35.1697 37.6973 35.0934 37.8394 35.0188C37.9477 34.9602 38.0489 34.8892 38.1537 34.8234C38.445 34.6388 38.7628 34.5215 39.1092 34.4931C39.2512 34.4825 39.3933 34.4825 39.5354 34.486C39.7805 34.4949 39.9758 34.4043 40.1339 34.2179C40.2191 34.1184 40.3079 34.0172 40.4073 33.9302C40.5761 33.7792 40.7021 33.7686 40.8957 33.8893C41.0484 33.9835 41.194 34.0918 41.3414 34.1948C41.5741 34.3582 41.8174 34.5056 42.0802 34.6157C42.3182 34.7151 42.565 34.7773 42.8261 34.7506C42.8598 34.7453 42.89 34.7293 42.9504 34.708C42.8882 34.6512 42.8509 34.6103 42.8083 34.5784C42.6893 34.486 42.5579 34.4061 42.446 34.3049C42.2862 34.1593 42.1264 34.0083 41.9861 33.8432C41.8085 33.6354 41.6469 33.4134 41.4817 33.1932C41.3841 33.0653 41.2864 32.9375 41.2029 32.8007C41.1621 32.7315 41.1408 32.6427 41.1354 32.561C41.1266 32.4473 41.2384 32.3674 41.3468 32.4083C41.4249 32.4384 41.503 32.4828 41.5634 32.5379C41.7872 32.7439 42.0056 32.9535 42.2223 33.1648C42.3572 33.298 42.4815 33.4418 42.6183 33.5715C42.7763 33.7224 42.9504 33.8538 43.1635 33.9213C43.3943 33.9923 43.5204 33.9906 43.8064 33.8805C43.8383 33.8414 43.659 33.7597 43.659 33.7597C43.0569 33.4542 42.6112 33.044 42.2187 32.4935C41.9488 32.1134 41.7303 31.705 41.5385 31.2823C41.3165 30.7904 41.1532 30.2754 40.972 29.7675C40.7518 29.153 40.5298 28.5404 40.299 27.9294C40.1462 27.5263 39.9047 27.1765 39.6348 26.8426C39.2778 26.404 38.8392 26.0612 38.3792 25.7415C37.9122 25.4148 37.4114 25.1502 36.9142 24.8731C36.0866 24.4149 35.2217 24.026 34.4261 23.5092C34.2894 23.4293 34.2255 23.3974 34.1615 23.3707C34.1313 23.3583 34.023 23.3157 33.9111 23.2873L33.7762 23.2624V16.1875L52.0625 16.1877ZM33.9838 25.7562C33.9252 25.71 33.8702 25.655 33.8276 25.5946C33.7619 25.5023 33.7619 25.3993 33.8169 25.2998C33.872 25.2021 33.9608 25.1524 34.0744 25.1542C34.1206 25.156 34.1703 25.1595 34.213 25.1773C34.3089 25.2146 34.4083 25.2501 34.4953 25.3051C34.9162 25.5751 35.2536 25.9267 35.4987 26.3618C35.607 26.5536 35.6638 26.7685 35.6656 26.9372C35.655 27.01 35.6656 27.1023 35.5679 27.1449C35.4987 27.1734 35.4241 27.1432 35.3619 27.0402C35.0973 26.598 34.7137 26.2818 34.3017 25.9924C34.1934 25.916 34.0851 25.8397 33.9838 25.7562V25.7562ZM24.0707 36.7863C23.8807 36.9657 23.6854 37.1397 23.4847 37.3067C23.2822 37.4754 23.0744 37.6352 22.8613 37.7897C20.8954 39.2139 18.4802 40.0575 15.8714 40.0575C9.29163 40.0575 3.9375 34.7016 3.9375 28.1218C3.9375 21.5401 9.29163 16.1878 15.8714 16.1878C18.4802 16.1878 20.8955 17.0278 22.8613 18.4538C21.0393 20.2262 19.7144 22.5082 19.1213 25.0691C18.3061 24.2025 17.1519 23.6608 15.8714 23.6608C13.4118 23.6608 11.4104 25.6622 11.4104 28.1218C11.4104 30.5815 13.4118 32.5829 15.8714 32.5829C17.1519 32.5829 18.3062 32.0412 19.1213 31.1746C19.361 30.9206 19.5706 30.6382 19.7464 30.331C20.1193 29.6793 20.3342 28.9263 20.3342 28.1218C20.3342 24.7121 21.771 21.6329 24.0707 19.4557C24.2607 19.2763 24.4561 19.1041 24.6568 18.9372C24.8592 18.7685 25.067 18.6086 25.2801 18.4541C27.246 17.0281 29.647 16.1881 32.3373 16.1881L32.3355 23.4889C32.3355 23.4889 32.2804 23.544 32.1845 23.5848C32.1419 23.6026 31.9377 23.6701 31.7743 23.6878C30.6945 23.8068 29.7285 24.3147 29.0199 25.0695C28.7801 25.3234 28.5706 25.6076 28.3948 25.9113C28.0218 26.5648 27.8069 27.3178 27.8069 28.1223C27.8069 31.5302 26.3702 34.6111 24.0705 36.787" fill="#F5FBFD"/>
</svg>
