<svg width="56" height="56" viewBox="0 0 56 56" fill="none" xmlns="http://www.w3.org/2000/svg">
<rect width="56" height="56" rx="28" fill="white"/>
<path fill-rule="evenodd" clip-rule="evenodd" d="M29.0891 6.5625C23.4598 6.5625 18.0611 8.79873 14.0806 12.7792C10.1001 16.7598 7.86383 22.1585 7.86383 27.7878V29.0188H5.12153C5.05761 29.0205 4.99554 29.0406 4.94281 29.0768C4.89008 29.1129 4.84894 29.1636 4.82437 29.2226C4.77343 29.333 2.31979 33.6629 2.2264 33.7309C2.13301 33.7988 2.2264 33.9091 2.3113 33.9091H8.76379C9.8983 37.6758 12.0573 41.0531 14.9997 43.664C17.9421 46.2749 21.5523 48.0168 25.4271 48.6951C29.302 49.3735 33.2892 48.9616 36.9436 47.5055C40.598 46.0495 43.7759 43.6065 46.1225 40.4492C48.4691 37.292 49.8921 33.5447 50.2328 29.6257C50.5734 25.7066 49.8182 21.77 48.0515 18.2553C46.2848 14.7405 43.576 11.7859 40.2276 9.72115C36.8792 7.65642 33.0229 6.56285 29.0891 6.5625V6.5625ZM13.9173 33.9431H19.5717L16.8464 38.6551C15.6161 37.2572 14.6263 35.665 13.9173 33.9431V33.9431ZM29.0891 44.1312C24.8135 44.1367 20.7067 42.4628 17.6529 39.4702H22.2461C22.2461 39.4702 35.4567 16.2073 35.4991 16.1139C35.5416 16.0205 35.4991 15.9611 35.4397 15.9611H30.0485C29.9381 15.9611 29.9296 15.9611 29.8957 16.0375C29.8617 16.1139 22.4498 28.9934 22.4498 28.9934H12.7626C12.7626 28.5859 12.7202 28.1444 12.7202 27.7623C12.7224 24.5043 13.6979 21.3212 15.5215 18.6213C17.345 15.9214 19.9335 13.8278 22.955 12.609C25.9765 11.3902 29.2931 11.1018 32.4796 11.7807C35.6661 12.4596 38.5772 14.075 40.8394 16.4195C39.5829 18.6015 33.7587 28.4415 32.9776 29.8763C32.5276 28.8321 30.4306 29.0273 29.3693 29.0273C28.8938 29.8084 26.7034 33.9516 26.7034 33.9516H29.0042C30.091 33.9516 30.1928 35.0723 29.7683 35.7685C29.3438 36.4647 27.6203 39.5041 27.6203 39.5041H33.1813L43.8789 20.8259C44.9157 23.0001 45.4524 25.379 45.4496 27.7878C45.4473 32.1269 43.7232 36.2878 40.6557 39.3569C37.5883 42.4259 33.4283 44.1522 29.0891 44.1567V44.1312Z" fill="#3C3C3C"/>
</svg>
