<svg width="56" height="56" viewBox="0 0 56 56" fill="none" xmlns="http://www.w3.org/2000/svg">
<rect width="56" height="56" rx="28" fill="#00D2BD"/>
<path d="M51.5361 28C51.5361 41.0088 41.0088 51.5361 28 51.5361C14.9912 51.5361 4.46387 41.0088 4.46387 28C4.46387 14.9912 14.9912 4.46387 28 4.46387C41.0088 4.46387 51.5361 14.9912 51.5361 28ZM28 5.89258C15.7432 5.89258 5.89258 15.7432 5.89258 28C5.89258 40.2568 15.8184 50.1074 28 50.1074C40.2568 50.1074 50.1074 40.1816 50.1074 28C50.1074 15.7432 40.2568 5.89258 28 5.89258Z" fill="url(#paint0_linear_78_501)"/>
<path d="M28 5.89258C15.7431 5.89258 5.89255 15.7432 5.89255 28C5.89255 40.2568 15.8183 50.1074 28 50.1074C40.2568 50.1074 50.1074 40.1816 50.1074 28C50.1074 15.7432 40.2568 5.89258 28 5.89258ZM28 48.6787C16.5703 48.6787 7.32126 39.4297 7.32126 28C7.32126 16.5703 16.5703 7.32129 28 7.32129C39.4297 7.32129 48.6787 16.5703 48.6787 28C48.6787 39.4297 39.4297 48.6787 28 48.6787Z" fill="url(#paint1_linear_78_501)"/>
<path d="M28 51.5361C41.0088 51.5361 51.5361 41.0088 51.5361 28C51.5361 14.9912 41.0088 4.46387 28 4.46387C14.9912 4.46387 4.46387 14.9912 4.46387 28C4.46387 41.0088 14.9912 51.5361 28 51.5361ZM28 3.9375C41.2344 3.9375 52.0625 14.7656 52.0625 28C52.0625 41.2344 41.2344 52.0625 28 52.0625C14.7656 52.0625 3.9375 41.2344 3.9375 28C3.9375 14.7656 14.7656 3.9375 28 3.9375Z" fill="url(#paint2_linear_78_501)"/>
<path d="M5.5918 28.0752C5.5918 15.7432 15.5928 5.5918 28 5.5918C40.4072 5.5918 50.4082 15.668 50.4082 28.0752C50.4082 40.4072 40.4072 50.4082 28 50.4082C15.5928 50.4082 5.5918 40.4072 5.5918 28.0752ZM12.585 12.585C8.59961 16.5703 6.11816 22.0596 6.11816 28.0752C6.11816 34.0908 8.59961 39.5801 12.5098 43.4902C16.4951 47.4004 21.9844 49.8818 28 49.8818C34.0156 49.8818 39.5049 47.4756 43.415 43.4902C47.4004 39.5801 49.8066 34.0908 49.8066 28.0752C49.8066 22.0596 47.3252 16.5703 43.415 12.585C39.5049 8.59961 34.0156 6.11816 28 6.11816C21.9844 6.11816 16.4951 8.59961 12.585 12.585Z" fill="white"/>
<path d="M28.0001 48.7539C22.4357 48.7539 17.2472 46.5732 13.337 42.6631C9.42688 38.7529 7.24622 33.5645 7.24622 28C7.24622 22.4355 9.42688 17.2471 13.337 13.3369C17.2472 9.42676 22.4357 7.24609 28.0001 7.24609C33.5646 7.24609 38.7531 9.42676 42.6632 13.3369C46.5734 17.2471 48.754 22.4355 48.754 28C48.754 33.5645 46.5734 38.7529 42.6632 42.6631C38.7531 46.5732 33.5646 48.7539 28.0001 48.7539ZM28.0001 48.1523C33.339 48.1523 38.4523 46.0469 42.212 42.2871C46.047 38.4522 48.0773 33.4141 48.0773 28.0752C48.0773 22.7363 45.9718 17.623 42.212 13.8633C38.3771 10.0283 33.339 7.99805 28.0001 7.99805C22.6613 7.99805 17.548 10.1035 13.7882 13.8633C9.95325 17.5479 7.84778 22.6611 7.84778 28C7.84778 33.3389 9.95325 38.4522 13.713 42.2119C17.548 46.0469 22.6613 48.1523 28.0001 48.1523Z" fill="url(#paint3_linear_78_501)"/>
<path d="M46.2725 37.7754C45.8965 37.4746 31.3838 25.9697 31.3838 25.9697L28 6.64453C27.7744 6.71973 27.4737 6.94531 27.3233 7.24609L24.917 26.0449L9.95316 37.5498C9.95316 37.5498 9.65237 37.9258 9.50198 38.1514C9.42679 38.3018 9.42679 38.5273 9.42679 38.7529L27.9248 31.1582L46.4229 38.7529C46.5733 38.3769 46.4229 38.001 46.2725 37.7754Z" fill="white"/>
<path d="M28.1503 28.6016L27.9999 32.0606L44.9941 38.9034C45.5956 39.2041 46.0468 39.0537 46.498 38.753L28.3759 28.5264C28.3007 28.4512 28.1503 28.5264 28.1503 28.6016Z" fill="#565F64"/>
<path d="M28.1505 28.6016C28.1505 28.6016 29.128 30.3311 30.2559 31.5342C31.835 33.2637 33.9405 34.4668 33.9405 34.4668L44.9942 38.9034C45.5958 39.2041 46.0469 39.0537 46.4981 38.753L28.376 28.5264C28.3008 28.4512 28.1505 28.5264 28.1505 28.6016Z" fill="url(#paint4_linear_78_501)"/>
<path d="M46.4229 38.0762C46.4229 38.001 46.3477 37.9258 46.2725 37.7754L30.7823 26.4209L28.6768 27.7744C28.6768 27.7744 28.8272 27.8496 28.9024 27.7744C29.128 27.6992 29.5792 27.624 30.0303 27.7744C30.4063 27.9248 46.4229 38.1514 46.4229 38.1514V38.0762Z" fill="#A4AAAE" fill-opacity="0.6"/>
<path d="M45.8965 37.3994L31.459 25.9697L30.7822 26.4209L46.2725 37.8506C46.1973 37.7002 46.0469 37.5498 45.8965 37.3994Z" fill="#333E46"/>
<path d="M28.376 27.4736L28.3008 27.5488C28.3008 27.5488 28.3008 27.6992 28.4512 27.624C28.5264 27.5488 30.707 26.4209 31.459 25.9697L28.8271 7.92285C28.752 7.24609 28.4512 6.94531 27.9248 6.71973L28.2256 27.624L28.376 27.4736Z" fill="#565F64"/>
<path d="M27.0977 7.92285V8.90039L25.4434 25.5186C25.4434 25.7441 25.5186 25.9697 25.7441 26.1201L26.7217 26.8721L27.3984 8.52441L27.4736 7.0957C27.248 7.24609 27.1729 7.54688 27.0977 7.92285Z" fill="#A4AAAE" fill-opacity="0.6"/>
<path d="M26.1952 27.1728L25.2928 26.4208L10.0282 37.4745C10.0282 37.4745 9.577 37.7753 9.5018 38.0761L10.0282 37.7753L26.0448 27.6992C26.3456 27.5488 26.4207 27.3984 26.1952 27.1728Z" fill="#A4AAAE" fill-opacity="0.6"/>
<path d="M27.7745 28.6016C27.7745 28.5264 27.6993 28.4512 27.6241 28.5264L9.42679 38.8282C9.87796 39.1289 10.3291 39.2041 10.9307 38.9785L27.9248 32.1358L27.7745 28.6016Z" fill="#565F64"/>
<path d="M28.3008 27.5488L28.376 27.4736L28.3008 27.5488C28.3008 27.5488 28.3008 27.624 28.376 27.624H28.4512C28.5264 27.5488 30.707 26.4209 31.459 25.9697L31.1582 23.7891L28.8271 7.92285C28.8271 7.62207 28.752 7.39648 28.6016 7.24609C28.6016 7.24609 29.7295 22.4355 29.7295 24.0898C29.7295 26.2705 28.3008 27.5488 28.3008 27.5488Z" fill="url(#paint5_linear_78_501)"/>
<path d="M27.7745 28.6016C27.7745 28.5264 27.6993 28.4512 27.6241 28.5264L9.42679 38.8282C9.87796 39.1289 10.3291 39.2041 10.9307 38.9785L27.9248 32.1358L27.7745 28.6016Z" fill="url(#paint6_linear_78_501)"/>
<path d="M10.9308 38.9033L27.9249 32.0605L27.7745 28.752C27.4737 29.6543 26.9474 30.6318 25.5186 31.3838C24.4659 31.9854 14.3897 36.9482 10.7804 38.6777C10.5548 38.8281 10.254 38.9033 10.1036 38.9785C10.4044 39.1289 10.63 39.0537 10.9308 38.9033Z" fill="url(#paint7_linear_78_501)"/>
<path d="M28.376 27.4736L28.3008 27.5488C28.3008 27.5488 28.3008 27.6992 28.4512 27.624C28.5264 27.5488 30.707 26.4209 31.459 25.9697L28.8271 7.92285C28.752 7.24609 28.4512 6.94531 27.9248 6.71973L28.2256 27.624L28.376 27.4736Z" fill="url(#paint8_linear_78_501)"/>
<path d="M28.376 27.4736L28.3008 27.5488C28.3008 27.5488 28.3008 27.6992 28.4512 27.624C28.5264 27.5488 30.707 26.4209 31.459 25.9697L28.8271 7.92285C28.752 7.24609 28.4512 6.94531 27.9248 6.71973L28.2256 27.624L28.376 27.4736Z" fill="url(#paint9_linear_78_501)"/>
<path d="M7.77246 37.3242C7.24609 36.1211 4.23828 30.2559 7.54688 18.9766H6.26855C5.5918 21.2324 5.06543 22.5859 4.76465 24.6162C4.76465 24.6162 4.61426 25.3682 4.53906 26.1953C4.46387 27.0225 4.46387 27.4736 4.46387 28C4.46387 32.5117 5.5918 35.1436 5.5918 35.1436C6.79492 38.9033 8.90039 42.2871 11.7578 44.8438C14.2393 47.0244 18.0742 48.6787 21.2324 49.2803C20.7061 49.2051 11.6826 45.3701 7.77246 37.3242Z" fill="url(#paint10_linear_78_501)"/>
<path d="M28.3008 28.4512H27.624C27.6992 28.4512 27.7744 28.4512 27.7744 28.5264L27.9248 31.9854H28L28.1504 28.5264C28.1504 28.4512 28.2256 28.376 28.3008 28.4512Z" fill="url(#paint11_linear_78_501)"/>
<path d="M35.5195 5.66699C43.415 8.67481 50.8593 16.9463 50.8593 27.3984C50.8593 40.0313 40.7831 50.333 27.9999 50.333V51.5361C40.7831 51.5361 51.5361 41.0088 51.5361 28C51.5361 17.623 44.9189 8.90039 35.5195 5.66699Z" fill="url(#paint12_linear_78_501)"/>
<path d="M48.1523 19.127C42.8887 7.02051 31.0078 6.34375 30.3311 6.26855H30.2559C39.3545 7.92285 45.1445 13.8633 47.1748 20.1045V20.1797C48.0772 22.5859 48.5283 25.1426 48.6035 27.9248C48.6787 30.5566 48.0772 33.4893 46.9492 36.1963C46.874 36.5723 46.7988 37.0234 46.7236 37.0234H47.9268C51.5361 30.2559 49.957 23.4131 48.1523 19.127Z" fill="url(#paint13_linear_78_501)"/>
<path d="M5.5918 28.0752C5.5918 15.7432 15.5928 5.5918 28 5.5918C40.4072 5.5918 50.4082 15.668 50.4082 28.0752C50.4082 40.4072 40.4072 50.4082 28 50.4082C15.5928 50.4082 5.5918 40.4072 5.5918 28.0752ZM12.585 12.585C8.59961 16.5703 6.11816 22.0596 6.11816 28.0752C6.11816 34.0908 8.59961 39.5801 12.5098 43.4902C16.4951 47.4004 21.9844 49.8818 28 49.8818C34.0156 49.8818 39.5049 47.4756 43.415 43.4902C47.4004 39.5801 49.8066 34.0908 49.8066 28.0752C49.8066 22.0596 47.3252 16.5703 43.415 12.585C39.5049 8.59961 34.0156 6.11816 28 6.11816C21.9844 6.11816 16.4951 8.59961 12.585 12.585Z" fill="#FBFBFB"/>
<path d="M9.8779 37.625L25.2177 26.5713C26.0449 27.0225 27.3984 27.624 27.5488 27.624C27.6992 27.6992 27.6992 27.5488 27.6992 27.5488L25.8193 25.9697C25.5937 25.8193 25.5185 25.5938 25.5185 25.3682L27.3232 7.24609C27.248 7.32129 27.248 7.47168 27.1728 7.54688C27.0976 7.69727 27.0976 7.77246 27.0976 7.92285L24.4658 26.0449L10.0283 37.3994C9.95309 37.4746 9.8779 37.5498 9.8779 37.625Z" fill="#333F47"/>
<defs>
<linearGradient id="paint0_linear_78_501" x1="9.95312" y1="12.8857" x2="46.0469" y2="43.1143" gradientUnits="userSpaceOnUse">
<stop stop-color="white"/>
<stop offset="0.1" stop-color="#CDD0D0"/>
<stop offset="0.2" stop-color="#A5ACAF"/>
<stop offset="0.3" stop-color="#98A0A4"/>
<stop offset="0.4" stop-color="#828A8F"/>
<stop offset="0.5" stop-color="#667075"/>
<stop offset="0.6" stop-color="#535C63"/>
<stop offset="0.7" stop-color="#475158"/>
<stop offset="0.8" stop-color="#434D54"/>
<stop offset="1" stop-color="#475157"/>
</linearGradient>
<linearGradient id="paint1_linear_78_501" x1="11.081" y1="13.7881" x2="44.9189" y2="42.2119" gradientUnits="userSpaceOnUse">
<stop stop-color="#0B1F2A"/>
<stop offset="0.2" stop-color="#333F47"/>
<stop offset="0.5" stop-color="#81898D"/>
<stop offset="0.7" stop-color="#B3B8B8"/>
<stop offset="0.8" stop-color="#DEE0DD"/>
<stop offset="1" stop-color="#FBFBFB"/>
</linearGradient>
<linearGradient id="paint2_linear_78_501" x1="36.2512" y1="50.639" x2="19.7834" y2="5.37147" gradientUnits="userSpaceOnUse">
<stop stop-color="#E1E3E1" stop-opacity="0.4"/>
<stop offset="0.1" stop-color="#C1C5C4" stop-opacity="0.4"/>
<stop offset="0.3" stop-color="#9BA1A2" stop-opacity="0.4"/>
<stop offset="0.5" stop-color="#7D8487" stop-opacity="0.4"/>
<stop offset="0.7" stop-color="#687074" stop-opacity="0"/>
<stop offset="0.8" stop-color="#5B6469" stop-opacity="0"/>
<stop offset="1" stop-color="#576065" stop-opacity="0"/>
</linearGradient>
<linearGradient id="paint3_linear_78_501" x1="17.6232" y1="10.0283" x2="38.3771" y2="45.9717" gradientUnits="userSpaceOnUse">
<stop stop-color="#E1E3E1" stop-opacity="0.4"/>
<stop offset="0.1" stop-color="#C1C5C4" stop-opacity="0.4"/>
<stop offset="0.3" stop-color="#9BA1A2" stop-opacity="0.4"/>
<stop offset="0.5" stop-color="#7D8487" stop-opacity="0.4"/>
<stop offset="0.7" stop-color="#687074" stop-opacity="0"/>
<stop offset="0.8" stop-color="#5B6469" stop-opacity="0"/>
<stop offset="1" stop-color="#576065" stop-opacity="0"/>
</linearGradient>
<linearGradient id="paint4_linear_78_501" x1="37.3995" y1="33.5645" x2="36.1212" y2="35.6699" gradientUnits="userSpaceOnUse">
<stop stop-color="#27343C"/>
<stop offset="1" stop-color="#00111E" stop-opacity="0"/>
</linearGradient>
<linearGradient id="paint5_linear_78_501" x1="33.7148" y1="25.8193" x2="31.6094" y2="22.4355" gradientUnits="userSpaceOnUse">
<stop stop-color="#02131F"/>
<stop offset="0.1" stop-color="#02131F"/>
<stop offset="0.9" stop-color="#02131F" stop-opacity="0"/>
<stop offset="1" stop-color="#02131F" stop-opacity="0"/>
</linearGradient>
<linearGradient id="paint6_linear_78_501" x1="28" y1="31.3086" x2="24.8418" y2="32.211" gradientUnits="userSpaceOnUse">
<stop stop-color="#02131F" stop-opacity="0.8"/>
<stop offset="0.2" stop-color="#02131F" stop-opacity="0.8"/>
<stop offset="0.9" stop-color="#02131F" stop-opacity="0"/>
<stop offset="1" stop-color="#02131F" stop-opacity="0"/>
</linearGradient>
<linearGradient id="paint7_linear_78_501" x1="19.5782" y1="35.4443" x2="19.127" y2="34.3164" gradientUnits="userSpaceOnUse">
<stop stop-color="#02131F" stop-opacity="0.8"/>
<stop offset="0.1" stop-color="#02131F" stop-opacity="0.8"/>
<stop offset="1" stop-color="#02131F" stop-opacity="0"/>
</linearGradient>
<linearGradient id="paint8_linear_78_501" x1="30.707" y1="16.8711" x2="28.1504" y2="17.1719" gradientUnits="userSpaceOnUse">
<stop stop-color="#02131F"/>
<stop offset="0.3" stop-color="#02131F"/>
<stop offset="0.8" stop-color="#02131F" stop-opacity="0"/>
<stop offset="1" stop-color="#02131F" stop-opacity="0"/>
</linearGradient>
<linearGradient id="paint9_linear_78_501" x1="30.7822" y1="16.7959" x2="29.0527" y2="17.0215" gradientUnits="userSpaceOnUse">
<stop stop-color="#27343C"/>
<stop offset="0.4" stop-color="#27343C"/>
<stop offset="1" stop-color="#3B474E" stop-opacity="0"/>
</linearGradient>
<linearGradient id="paint10_linear_78_501" x1="3.63672" y1="28.6768" x2="24.6162" y2="40.7832" gradientUnits="userSpaceOnUse">
<stop stop-color="#25323B" stop-opacity="0"/>
<stop offset="0.1" stop-color="#27343C"/>
<stop offset="1" stop-color="#27343C"/>
</linearGradient>
<linearGradient id="paint11_linear_78_501" x1="28" y1="32.0606" x2="28" y2="28.4512" gradientUnits="userSpaceOnUse">
<stop stop-color="#A5ABAF"/>
<stop offset="0.3" stop-color="#A5ABAF"/>
<stop offset="1" stop-color="#A5ABAF" stop-opacity="0"/>
</linearGradient>
<linearGradient id="paint12_linear_78_501" x1="39.8056" y1="5.66699" x2="39.8056" y2="51.5361" gradientUnits="userSpaceOnUse">
<stop stop-color="#6B7378"/>
<stop offset="0.2" stop-color="#333F47"/>
<stop offset="0.5" stop-color="#27343C"/>
<stop offset="0.8" stop-color="#333F47"/>
<stop offset="1" stop-color="#434D54"/>
</linearGradient>
<linearGradient id="paint13_linear_78_501" x1="47.0244" y1="10.0283" x2="36.873" y2="24.917" gradientUnits="userSpaceOnUse">
<stop stop-color="#27343C"/>
<stop offset="0.7" stop-color="#49545B"/>
<stop offset="0.8" stop-color="white" stop-opacity="0"/>
<stop offset="1" stop-color="white" stop-opacity="0"/>
</linearGradient>
</defs>
</svg>
