<svg width="56" height="56" viewBox="0 0 56 56" fill="none" xmlns="http://www.w3.org/2000/svg">
<rect width="56" height="56" rx="28" fill="#0800EF"/>
<path d="M28.0555 37.0607C33.0946 37.0607 37.1796 32.9757 37.1796 27.9366C37.1796 22.8975 33.0946 18.8125 28.0555 18.8125C23.0163 18.8125 18.9313 22.8975 18.9313 27.9366C18.9313 32.9757 23.0163 37.0607 28.0555 37.0607Z" fill="#FCD700"/>
<path d="M51.8987 34.048C51.8987 34.005 51.8557 34.005 51.8557 33.9619C51.8557 33.9189 51.8557 33.8759 51.8127 33.7898C51.8127 33.6607 51.7696 33.4885 51.7266 33.3594C51.6405 33.1442 51.4253 32.972 51.1671 32.929C51.1671 32.8429 51.1241 32.7569 51.081 32.7138C50.9089 32.4986 50.6937 32.3265 50.5215 32.2404C50.4785 32.1974 50.4354 32.1543 50.3924 32.1543L50.3494 32.1113C50.2202 32.0252 50.0911 31.9822 49.962 31.9822C49.7038 31.9822 49.4886 32.1113 49.3164 32.3265C49.2734 32.2404 49.2304 32.1113 49.2304 32.0252C49.1873 31.8961 49.1443 31.767 49.1443 31.6809V31.6379C49.1013 31.4657 48.9291 31.0784 48.4987 30.9923C48.3696 30.9923 48.2405 30.9493 48.1544 30.9493C47.9392 30.9493 47.8531 30.9062 47.8101 30.9062C47.8101 30.9062 47.8101 30.8632 47.8531 30.8201C47.8962 30.7341 47.9392 30.648 47.9392 30.5619C48.0253 30.2606 48.1114 29.8303 48.0253 29.4429C48.1114 29.4429 48.2405 29.486 48.3696 29.486C48.7139 29.486 49.1012 29.3999 49.4456 29.2708C50.0911 28.9695 50.7367 28.2378 50.6937 27.334V27.291C50.6076 26.5163 50.1772 25.7847 49.3595 25.053C49.5747 25.01 49.7899 24.9239 50.0051 24.7948C50.6076 24.4074 50.8658 23.6758 50.6937 22.8581V22.815C50.6076 22.3846 50.2633 22.3416 50.1772 22.3416C50.0481 22.3416 49.919 22.3846 49.8329 22.4707L49.7899 22.5138L49.6607 22.6429C49.5316 22.729 49.3595 22.772 49.1443 22.815C49.0152 22.8581 48.843 22.9011 48.6709 22.9441C47.9392 23.2024 47.4658 23.5897 47.2936 24.1062C47.1645 24.4074 47.2506 24.7948 47.4228 25.1821V25.2252C47.638 25.5695 47.9392 25.8707 48.2405 26.129C48.6278 26.5163 49.0152 26.8606 49.1013 27.291C49.1013 27.3771 49.1443 27.5062 48.8861 27.7214C48.8 27.7644 48.6278 27.8075 48.4987 27.8075C48.2835 27.8075 48.0253 27.7214 47.8101 27.6353C47.5088 27.4632 47.1645 27.248 46.8633 27.0328C46.3468 26.6885 45.8303 26.3442 45.2278 26.129C44.9265 25.9999 44.6683 25.9568 44.367 25.9138C44.0227 25.8277 43.7215 25.7847 43.5063 25.6125L43.4632 25.5695C43.3772 25.5264 43.248 25.4404 43.162 25.3543C42.8607 25.1391 42.5164 24.8809 42.1291 24.7948C41.9569 24.7518 41.8278 24.7087 41.6987 24.7087C41.5265 24.6657 41.4404 24.6657 41.3974 24.6226C41.3113 24.5796 41.2683 24.5366 41.1822 24.4935C40.924 24.2783 40.6227 24.1062 40.3214 23.934C39.805 23.6758 39.2885 23.5467 38.729 23.4176C38.686 23.4176 38.6429 23.3315 38.5569 23.2454C38.4708 23.1593 38.3847 23.0302 38.2126 22.9011C37.7822 22.5568 37.3088 22.2555 36.6632 22.2555H36.491C36.1037 22.2986 35.7594 22.5568 35.5442 22.729C35.0708 23.1593 34.5543 23.5036 34.0379 23.891C33.2632 24.4505 32.4454 25.053 31.7568 25.8277C31.0252 26.6024 30.7669 27.5492 30.5087 28.367C30.4657 28.4961 30.4226 28.6252 30.4226 28.7543C30.3796 28.9695 30.2935 29.2277 30.2505 29.4429C29.9492 30.6049 29.691 31.7239 28.615 32.4126C28.4429 32.5417 28.3568 32.7138 28.3568 32.929C28.3998 33.1442 28.529 33.3164 28.7011 33.4024C28.7872 33.4455 28.9163 33.4885 29.1315 33.4885C29.1315 33.6176 29.1745 33.7037 29.2606 33.7898C29.3467 33.8759 29.4758 34.005 29.734 34.005C30.4657 34.005 31.0252 33.5746 31.4556 33.1442C31.6277 33.2733 31.8429 33.4455 32.1011 33.4885H32.2733C32.5315 33.4455 32.7897 33.4024 33.0049 33.4455C33.2201 33.5315 33.4353 33.6176 33.6935 33.7037C33.8657 33.7467 34.0378 33.8328 34.21 33.8759L34.2961 33.9189H34.3822C34.8556 33.9189 35.1568 33.4885 35.2429 33.3164V33.2303C35.2429 33.1872 35.286 33.1442 35.286 33.1012L35.329 33.1872C35.372 33.4024 35.4581 33.6607 35.5872 33.8328C35.7163 34.005 35.9315 34.091 36.1467 34.091H36.405L36.448 34.1341C36.5341 34.2202 36.6632 34.3493 36.8784 34.4353C37.0936 34.5214 37.2657 34.5645 37.4809 34.6075C37.7391 34.6505 37.9543 34.7366 38.2126 34.8227H38.2556C38.4278 34.8657 38.643 34.9518 38.8151 34.9518C39.1164 34.9518 39.3316 34.8227 39.5037 34.6936C39.7619 34.4784 39.8911 34.2202 39.9341 34.005C39.9771 34.005 40.0202 34.005 40.0632 33.9619C40.4075 33.8328 40.7088 33.2303 40.7088 33.2303C40.7518 33.1872 40.7518 33.1442 40.7949 33.1012C40.8809 32.972 40.924 32.8429 40.924 32.7138C40.924 32.4126 40.6657 32.1543 40.3645 32.1113H39.5037C39.4176 32.1113 39.3746 32.1113 39.2885 32.1543C39.2455 32.1113 39.2024 31.9822 39.1164 31.9391H39.6759C40.0632 31.9391 40.4506 31.8531 40.7949 31.81C41.0961 31.767 41.3974 31.767 41.7417 31.767H41.8278C41.9569 31.767 42.086 31.767 42.2582 31.81C42.3873 31.81 42.5594 31.8531 42.7316 31.8531H42.9037C43.0759 31.8531 43.205 31.81 43.3772 31.767C43.3772 31.8531 43.4202 31.9391 43.4202 32.0682L43.4632 32.1543C43.5493 32.4986 43.6784 33.0151 44.281 33.4455L44.367 33.4885C44.6683 33.6607 44.8405 33.7898 45.2708 33.8759H45.7443C46.3038 33.7467 46.9063 33.9189 47.3797 34.2632L47.4228 34.3062L47.5519 34.4353C47.681 34.5214 47.8101 34.6505 47.9823 34.7366C48.1114 34.7797 48.2405 34.8227 48.3696 34.8227C48.6278 34.8227 48.8 34.7366 48.8861 34.6936C48.8861 34.7366 48.9291 34.7366 48.9291 34.7797C49.0152 34.9088 49.1012 35.0379 49.2304 35.167C49.4886 35.4252 49.8329 35.4683 50.0481 35.4683H50.6076C50.6937 35.4683 50.7367 35.4683 50.7367 35.4252C50.8658 35.5113 50.9949 35.5113 51.038 35.5113H51.1671L51.6836 35.3392C51.8127 35.2961 51.9418 35.167 52.0279 35.0379C52.1139 34.4353 52.0279 34.2202 51.8987 34.048ZM35.5012 31.4657L35.4581 31.4227C35.4581 31.3796 35.4151 31.3796 35.4151 31.3366C35.329 31.2075 35.286 31.1214 35.2429 31.0353C35.4151 31.0353 35.5442 31.0784 35.7163 31.0784L35.5012 31.4657ZM27.7543 32.1543L27.496 32.0252C27.2808 31.8961 27.1087 31.6379 26.9365 31.3366L26.6783 30.9493C26.5922 30.8201 26.4631 30.7341 26.377 30.648L26.334 30.6049C26.0327 29.7872 25.7315 28.8404 25.6454 27.8505C25.6454 27.5923 25.4732 27.1619 25.3011 26.8606C24.8277 26.0859 23.7517 24.8378 23.6656 24.7517L23.5365 24.6226L23.4935 24.5796L21.5567 22.9872L21.5137 22.9441C21.1264 22.6429 20.9542 22.5998 20.6529 22.4707C20.1365 22.2986 19.4479 22.2986 18.9745 22.5138H18.9314C18.7593 22.5998 18.5871 22.6859 18.458 22.815C18.2428 22.9441 18.0276 23.1163 17.7694 23.1593H17.6833C17.5111 23.2454 17.296 23.3315 17.0808 23.3745C16.6073 23.5036 16.0909 23.6758 15.6605 24.0631L15.4023 24.3214C15.3162 24.4074 15.1871 24.4935 15.144 24.5366H15.058C14.3263 24.5366 13.8099 24.7087 13.2504 25.1821C12.906 25.4834 12.6048 25.7416 12.2605 25.8707C12.1314 25.9138 11.9592 25.9568 11.744 25.9568C11.3997 25.9999 11.3567 25.9999 11.0554 26.0859C10.4959 26.2151 9.97945 26.6454 9.54907 26.9467C9.37691 27.0758 9.2478 27.2049 9.20476 27.2049C9.16172 27.248 9.11868 27.248 9.07564 27.291C8.60222 27.5492 8.21488 27.8075 7.69842 27.8075H7.65538C7.39715 27.7644 7.13892 27.5923 7.05285 27.3771C6.96677 27.0758 7.05284 26.7745 7.31107 26.5163C7.48322 26.3442 7.65538 26.172 7.87057 26.0429C8.21488 25.7416 8.51614 25.4834 8.73134 25.1821C9.11868 24.7087 9.07564 23.934 8.64526 23.4606C8.34399 23.1163 7.7845 22.9441 7.35411 22.815H7.18196C7.13892 22.815 7.09588 22.815 7.05285 22.772C6.96677 22.772 6.88069 22.729 6.79461 22.729C6.62246 22.6859 6.49335 22.5998 6.3212 22.4707L5.93385 22.2125L5.58954 22.0403L5.37435 22.3846C5.2022 22.6429 5.11612 22.9441 5.15916 23.2885V23.3315C5.24523 23.934 5.71866 24.5796 6.3212 24.8378C6.92373 25.0961 6.36423 24.8378 6.36423 24.8809C6.49335 24.9239 6.62246 24.9669 6.75158 24.9669C6.45031 25.2252 6.106 25.5264 5.84777 25.8707C5.28827 26.4733 5.28827 27.4201 5.50346 28.0657C5.80473 28.9265 6.6655 29.3999 7.39715 29.486C7.52627 29.486 7.65538 29.529 7.7845 29.529C7.99969 29.529 8.21488 29.486 8.43007 29.4429C8.43007 29.7442 8.47311 29.9594 8.47311 30.0885C8.51615 30.3467 8.64526 30.648 8.73134 30.8632C8.55918 30.9493 8.344 31.0784 8.25792 31.0784C8.1288 31.0784 7.99969 31.1214 7.91361 31.1214H7.74145C7.61234 31.1214 7.44019 31.2075 7.35411 31.2936C7.225 31.4227 7.13892 31.6379 7.0098 31.9391C6.96677 32.0682 6.92373 32.1974 6.88069 32.2834C6.83765 32.3265 6.79462 32.4126 6.75158 32.4556C6.6655 32.3265 6.53638 32.1974 6.45031 32.1543C6.23511 31.9822 5.93385 31.9822 5.71866 32.1543C5.67562 32.1974 5.63258 32.1974 5.63258 32.2404H5.58954C5.46043 32.3265 5.28828 32.4556 5.11612 32.5847C4.98701 32.6708 4.94397 32.7999 4.90093 32.9721C4.85789 32.9721 4.81485 32.9721 4.77182 33.0151C4.51359 33.1442 4.21232 33.4455 4.16928 33.7467C4.16928 33.8759 4.12624 34.048 4.12624 34.1341L4.0832 34.1771C3.91105 34.3923 3.86801 34.7366 4.0832 34.9518C4.25535 35.124 4.81485 35.2531 4.94397 35.2531H5.11612C5.15916 35.2531 5.2022 35.21 5.2022 35.21H5.33131C5.41739 35.21 5.50346 35.2531 5.58954 35.2531C5.76169 35.2961 5.93385 35.3392 6.106 35.3392C6.3212 35.3392 6.49334 35.2961 6.6655 35.21C6.96677 35.0809 7.09588 34.8227 7.225 34.6075C7.26803 34.5645 7.26803 34.4784 7.31107 34.4353H7.35411C7.44019 34.4784 7.52626 34.4784 7.65538 34.4784C8.1288 34.5214 8.55919 34.2202 8.77438 34.048C8.86045 33.9619 8.94653 33.9189 8.98957 33.8328C9.07564 33.7467 9.16172 33.7037 9.20476 33.6176C9.29084 33.5746 9.37691 33.5746 9.50603 33.5746C9.72122 33.5746 9.93641 33.6176 10.1516 33.6607C10.582 33.7467 11.0124 33.7037 11.3567 33.5315C11.5288 33.4455 11.744 33.3164 11.8731 33.2303H11.9162C12.0022 33.1872 12.0883 33.1442 12.1314 33.1012C12.4757 32.929 12.7339 32.4986 12.906 32.1974C12.9921 32.0252 13.1212 31.767 13.1212 31.6809H13.2073C13.4225 31.6809 13.6807 31.6379 13.8959 31.5948C14.025 31.5518 14.1972 31.5518 14.2833 31.5518H14.4124C14.6276 31.5518 14.9289 31.5948 15.144 31.5948C15.3162 31.5948 15.4453 31.6379 15.7035 31.6379H16.0909C16.3491 31.6379 16.5643 31.5948 16.7365 31.5088C16.7795 31.5518 16.8656 31.6809 16.9086 31.7239H16.8656C16.6934 31.7239 16.5643 31.81 16.4352 31.8961C16.3061 31.81 16.0478 31.81 15.8327 31.8531C15.5744 31.8531 15.3592 31.8961 15.101 31.9822C14.9289 32.0252 14.7567 32.1113 14.6706 32.2834C14.5845 32.4556 14.5845 32.6708 14.7137 32.8429C14.8428 33.0581 14.9719 33.2733 15.101 33.5315L15.144 33.6176C15.1871 33.7037 15.3592 33.8759 15.6605 33.8759H15.7896C15.7896 33.8759 15.7896 33.9189 15.8327 33.9189C15.9187 34.091 16.0478 34.3062 16.263 34.4784C16.4782 34.6505 16.7795 34.7797 17.0808 34.7797C17.2099 34.7797 17.339 34.7797 17.4681 34.7366C18.0706 34.5645 18.6301 34.3493 19.1896 34.091H19.4479C19.6631 34.091 20.0074 34.048 20.2656 33.7898L20.3086 33.7467V33.7037C20.3947 33.5746 20.5238 33.4024 20.6099 33.2733V33.3164C20.739 33.7037 21.1264 33.8759 21.4707 33.8759C21.858 33.8759 22.1593 33.7467 22.4606 33.6176C22.5036 33.6176 22.5466 33.5746 22.5897 33.5746H22.6327C22.8479 33.4885 23.1922 33.4455 23.5795 33.5315H23.6656C24.053 33.4885 24.3973 33.3164 24.6555 33.1012C25.1289 33.6176 25.7745 33.8759 26.5062 33.8759H26.7644C27.0226 33.8328 27.1517 33.6176 27.1948 33.4024V33.2733C27.2378 33.2733 27.2808 33.2733 27.3239 33.2303C27.5391 33.1872 27.7112 33.0151 27.7543 32.7569C28.0555 32.4556 27.9694 32.2404 27.7543 32.1543ZM21.2985 30.9062C21.2985 30.9062 21.2555 30.9493 21.2124 30.9493C21.0833 31.0784 20.9542 31.2075 20.8251 31.3796C20.739 31.2505 20.696 31.1214 20.6529 31.0353C20.8681 30.9923 21.0403 30.9493 21.2124 30.8632C21.2985 30.9062 21.2985 30.8632 21.2985 30.9062Z" fill="#FCD700"/>
<path d="M5.03016 33.2733C5.03016 33.2733 5.03016 33.3164 5.03016 33.2733C4.85801 33.3164 4.68585 33.5316 4.68585 33.6177C4.64281 34.0911 4.64281 34.1341 4.51369 34.3063C4.47066 34.3493 4.47066 34.4354 4.51369 34.4784C4.55673 34.5215 5.03015 34.6506 5.07319 34.6506C5.11623 34.6506 5.15927 34.5215 5.24535 34.2202C5.28839 34.048 5.37446 33.8328 5.4175 33.6607C5.4175 33.6607 5.4175 33.6177 5.37446 33.5746C5.28838 33.4885 5.15927 33.2733 5.03016 33.2733ZM5.58965 33.2733C5.63269 33.3164 5.67573 33.3594 5.76181 33.3594C5.80485 33.3594 5.84789 33.3594 5.89092 33.3164C6.14915 33.1873 6.40738 32.7138 6.45042 32.6708C6.49345 32.5847 6.40738 32.4987 6.27827 32.4126C6.23523 32.3695 6.14915 32.3695 6.06307 32.4126C6.02004 32.4556 5.977 32.4556 5.93396 32.4987C5.80484 32.5847 5.67573 32.6708 5.50358 32.7999C5.46054 32.843 5.4175 32.929 5.4175 33.0151C5.4175 33.0582 5.4175 33.1012 5.46054 33.1442C5.46054 33.1442 5.54661 33.2733 5.58965 33.2733ZM27.5392 32.5417C27.4101 32.4556 27.2379 32.4126 27.2379 32.4126C26.8936 32.1974 26.6784 31.8961 26.5063 31.5518C26.4202 31.4227 26.3341 31.2936 26.2911 31.1645C26.248 31.0784 26.162 30.9923 26.0759 30.9062C25.9898 30.8632 25.9468 30.7771 25.9037 30.7341C25.6025 29.8733 25.2581 28.8834 25.1721 27.7644C25.1721 27.5923 25.043 27.2049 24.9138 26.9897C24.4835 26.2581 23.4075 25.053 23.3645 24.9669L23.2353 24.8378L23.1923 24.7948L21.2986 23.2024C20.9113 22.9441 20.7822 22.9011 20.5239 22.772C20.3518 22.7289 20.1366 22.6859 19.9214 22.6859C19.6632 22.6859 19.3619 22.7289 19.1467 22.815C18.9746 22.9011 18.8454 22.9872 18.7163 23.0732C18.4581 23.2454 18.1999 23.3745 17.9416 23.4606C17.7265 23.5467 17.5113 23.6327 17.2961 23.6758C16.8657 23.8049 16.4353 23.934 16.048 24.2783L15.7897 24.5366C15.4454 24.8378 15.4454 24.8809 15.1442 24.8809C14.5416 24.8809 14.0682 25.053 13.6378 25.3973C13.2935 25.7416 12.9062 26.0429 12.4758 26.172C12.3036 26.2581 12.0884 26.2581 11.8732 26.3011C11.572 26.3442 11.5289 26.3442 11.2277 26.3872C10.7542 26.4733 10.2808 26.8606 9.89348 27.1619C9.76436 27.248 9.59221 27.4201 9.50614 27.4632C9.4631 27.5062 9.42006 27.5062 9.37702 27.5492C8.86056 27.8505 8.38714 28.1087 7.78461 28.1087H7.74156C7.26814 28.0657 6.8808 27.7644 6.75169 27.334C6.62257 26.8606 6.75169 26.3872 7.13903 25.9999C7.31118 25.8277 7.52638 25.6556 7.69853 25.4834C7.9998 25.2252 8.30106 24.9669 8.51625 24.7087C8.77448 24.4074 8.73145 23.8479 8.47322 23.5467C8.21499 23.2454 7.61245 23.1163 7.39726 23.0732H7.26815C7.13903 23.0302 7.00992 23.0302 6.83776 22.9872C6.49346 22.9011 6.19219 22.5998 5.89092 22.4277C5.76181 22.5998 5.71877 22.815 5.76181 23.0302C5.80485 23.5036 6.23522 23.9771 6.66561 24.1922C6.66561 24.1922 6.70865 24.1922 6.70865 24.2353C6.83776 24.2783 7.00992 24.3214 7.13903 24.3214H7.31118C7.39726 24.3214 7.48334 24.3214 7.56941 24.3644C7.65549 24.4074 7.74156 24.4505 7.74156 24.5796C7.74156 24.6226 7.74157 24.7087 7.65549 24.7517C7.56941 24.7948 7.52637 24.8809 7.4403 24.9239C7.05295 25.2252 6.66561 25.5695 6.36434 25.9568C5.93396 26.4302 5.93396 27.2049 6.10612 27.7214C6.36434 28.41 7.05295 28.7974 7.65549 28.8404C7.74157 28.8404 7.87068 28.8834 7.95676 28.8834C8.30106 28.8834 8.60233 28.7974 8.94664 28.7113H8.98968C8.98968 28.7113 9.03271 28.7113 9.03271 28.7974C9.03271 28.9265 9.03272 29.0986 9.07575 29.2708C9.07575 29.529 9.11879 29.7442 9.11879 29.8733C9.16183 30.0885 9.29095 30.3467 9.33399 30.5619C9.37702 30.648 9.37702 30.691 9.37702 30.7341C9.42006 30.8202 9.37702 30.9493 9.29095 30.9923C9.03272 31.2075 8.5593 31.3797 8.47322 31.3797C8.34411 31.3797 8.17195 31.4227 8.08587 31.4227H7.95676C7.91372 31.4227 7.87068 31.4657 7.82765 31.4657C7.74157 31.5518 7.69853 31.724 7.61245 31.9392C7.56942 32.0683 7.52637 32.1974 7.4403 32.3265C7.26814 32.5847 7.05295 32.7138 6.79472 32.886C6.75169 32.929 6.66561 32.9721 6.62257 33.0151C6.5365 33.1873 6.40738 33.3164 6.27827 33.4455C6.19219 33.5316 6.06307 33.5746 5.93396 33.5746C5.76181 33.7898 5.67573 34.0911 5.63269 34.3923C5.63269 34.4354 5.63269 34.4784 5.58965 34.5215V34.5645H5.63269C5.71877 34.5645 5.84788 34.6075 5.93396 34.6075C6.06307 34.6506 6.23523 34.6506 6.36434 34.6506C6.49346 34.6506 6.62257 34.6075 6.70865 34.5645C6.8808 34.4784 7.00991 34.3063 7.09599 34.1341C7.13903 34.048 7.22511 33.9189 7.31118 33.8328C7.35422 33.7898 7.4403 33.7468 7.52637 33.7468C7.61245 33.7468 7.65549 33.7468 7.74156 33.7898C7.82764 33.7898 7.87068 33.8328 7.95676 33.8328C8.30106 33.8328 8.60233 33.6177 8.77449 33.5316C8.86056 33.4885 8.9036 33.4025 8.98968 33.3594C9.07576 33.2733 9.20487 33.1442 9.29095 33.1012C9.42006 33.0151 9.59221 33.0151 9.8074 33.0151C10.0656 33.0151 10.3239 33.0582 10.5391 33.1012C10.6682 33.1442 10.7542 33.1442 10.8834 33.1442C11.0986 33.1442 11.2707 33.1012 11.4429 33.0151C11.615 32.929 11.8302 32.7999 11.9593 32.7138C12.0454 32.6708 12.1315 32.6278 12.1745 32.5847C12.4327 32.4556 12.691 32.0252 12.777 31.8531C12.8631 31.6809 12.9922 31.3366 12.9922 31.3366L12.691 31.0784V31.1214C12.691 31.1214 12.4758 31.4657 12.3467 31.6379C11.7872 32.4126 10.8834 32.4987 10.1517 32.4987H9.97956C9.07576 32.4987 8.34411 32.7999 7.82765 33.4025C7.78461 33.4455 7.74156 33.4455 7.74156 33.4025V33.3164C7.74156 33.2733 7.74157 33.2303 7.78461 33.1873C8.3441 32.3695 9.33398 32.2835 10.1087 32.2404C10.6682 32.1974 11.0986 32.1113 11.4859 31.8961C11.9593 31.6379 12.3036 31.1214 12.4327 30.7341C12.5188 30.4759 12.5619 30.1746 12.6049 29.8733C12.6479 29.6581 12.691 29.3999 12.734 29.1847C12.734 29.1417 12.777 29.1417 12.777 29.1417H12.8201C12.8631 29.1417 12.9062 29.1847 12.9062 29.2277C12.8201 29.6581 12.734 30.2607 12.9062 30.7771C12.9922 30.9923 13.2074 31.0784 13.5087 31.0784C13.6809 31.0784 13.896 31.0354 14.1112 30.9923C14.2834 30.9493 14.4125 30.9493 14.5416 30.9493H14.7138C14.972 30.9493 15.2302 30.9923 15.4454 31.0354C15.6606 31.0784 15.8758 31.1214 16.091 31.1214H16.4353C16.6075 31.1214 16.7366 31.0784 16.8657 30.9923C16.9518 30.9493 16.9087 30.8632 16.8657 30.7341V30.691C16.8226 30.5619 16.7796 30.3467 16.8657 30.2607H16.9087C16.9087 30.2607 16.9518 30.2607 16.9518 30.3037C16.9518 30.3467 16.9948 30.3898 16.9948 30.4328C17.0378 30.605 17.0809 30.7771 17.21 30.9062C17.4252 31.2075 17.7695 31.4657 18.1999 31.6809C18.4581 31.8531 18.8024 32.1974 18.8454 32.6278C18.8454 32.843 18.6302 32.9721 18.5011 33.0582C18.2859 33.1873 17.8986 33.3164 17.6834 33.3164C17.5543 33.3164 17.4252 33.2303 17.4252 33.1873C17.21 32.9721 17.21 32.929 17.0809 32.6708L16.8226 32.2835C16.6935 32.1113 16.5214 32.0683 16.2631 32.0683C16.048 32.0683 15.8328 32.1113 15.5745 32.1974C15.5315 32.1974 15.4885 32.2404 15.4454 32.2835C15.4024 32.3265 15.4454 32.4126 15.4454 32.4556L15.8328 33.1012L15.8758 33.1873C15.9188 33.2303 15.9619 33.2303 16.048 33.2303H16.2631C16.3923 33.2303 16.4353 33.2733 16.4783 33.3164C16.5214 33.3594 16.5644 33.4455 16.6075 33.4885C16.6935 33.6607 16.7796 33.7898 16.9518 33.9189C17.0809 34.048 17.2961 34.0911 17.5113 34.0911C17.5973 34.0911 17.6834 34.0911 17.7695 34.048C18.372 33.8759 18.9315 33.6607 19.491 33.3594H19.7923C19.9644 33.3594 20.1796 33.3164 20.3087 33.1873C20.4809 32.929 20.6531 32.6708 20.7822 32.4126C20.9113 32.1544 20.9113 31.9392 20.7822 31.724C20.4379 31.1645 20.3518 30.9923 20.2227 30.648C20.1796 30.648 20.1366 30.605 20.0936 30.605C20.0075 30.5619 19.9214 30.5189 19.7923 30.5189C19.6632 30.5189 19.5771 30.5619 19.5771 30.648L20.2227 31.8961C20.2657 31.9822 20.3087 32.1113 20.2657 32.2404C20.2227 32.3695 19.9214 32.886 19.8353 32.929C19.7923 32.929 19.7923 32.9721 19.7923 32.9721C19.7923 32.9721 19.7492 32.9721 19.7923 32.886C19.8353 32.6708 19.9214 32.1974 19.9214 32.0252C19.8784 31.8531 19.3619 30.9493 19.3189 30.9062C19.2328 30.7771 19.1467 30.648 19.1467 30.4759C19.1467 30.3898 19.2328 30.3467 19.2758 30.3467C19.3619 30.3037 19.448 30.3037 19.5341 30.2607C19.7492 30.2176 20.0075 30.1746 20.0936 30.0455C20.3518 29.6581 20.5239 29.2708 20.61 28.6682C20.61 28.6252 20.653 28.5822 20.653 28.5822C20.653 28.5822 20.6961 28.5822 20.6961 28.6252C20.7822 29.1417 20.6531 29.7012 20.3518 30.1746C20.3518 30.2176 20.3087 30.2607 20.3087 30.3037C20.3087 30.3467 20.3518 30.3898 20.3518 30.3898C20.4809 30.4759 20.9113 30.4328 21.2556 30.2607C21.5138 30.2607 21.729 30.2176 21.9442 30.1746C22.0303 30.1746 22.0733 30.1315 22.1594 30.1315C22.2024 30.1315 22.2024 30.1746 22.2024 30.1746C22.0303 30.3898 21.9012 30.648 21.8151 30.9493L21.6429 31.1214C21.4277 31.2936 21.2125 31.5088 21.2125 31.81C21.2125 31.81 21.2125 31.8961 21.2986 31.8961C21.3417 31.8961 21.3847 31.8961 21.3847 31.8531C21.4277 31.8531 21.4708 31.81 21.5138 31.81C21.5569 31.81 21.5569 31.8531 21.5569 31.8961L21.2986 32.2404C21.2125 32.3695 21.2556 32.5417 21.2986 32.6708C21.3417 32.7569 21.2986 32.7999 21.3417 32.886C21.3847 33.0582 21.5999 33.1442 21.772 33.1442C22.0733 33.1442 22.3746 33.0151 22.6328 32.929C22.6759 32.929 22.7189 32.886 22.7619 32.886C23.0632 32.7569 23.4505 32.7139 23.924 32.7999C24.3113 32.7569 24.6126 32.5417 24.8708 32.2835C24.9999 32.2835 25.129 32.3695 25.2582 32.4987C25.6885 32.929 26.162 33.1442 26.8075 33.1442H26.9366C27.0227 33.1442 27.0227 33.1012 27.0227 33.0582C27.0227 33.0151 26.9797 32.9721 26.9366 32.929L26.5923 32.7569C26.2911 32.5847 25.9898 32.3695 25.9037 32.0683C25.8176 31.767 25.6455 31.4657 25.5164 31.2505C25.4733 31.2075 25.4733 31.1645 25.4303 31.1214C25.3873 31.0354 25.3442 30.9923 25.3012 30.9062C25.6885 31.0354 25.9037 31.3366 26.162 31.81C26.3341 32.1543 26.8506 32.5417 27.324 32.5417H27.5392C27.5392 32.5417 27.5822 32.4987 27.5822 32.4556C27.5392 32.5847 27.5392 32.5417 27.5392 32.5417ZM20.653 26.8606C20.653 26.9037 20.61 26.9037 20.61 26.9037C20.61 26.9037 20.567 26.9037 20.567 26.8606C20.4809 26.3442 20.3948 26.0859 20.3087 25.8707C20.2657 25.7847 20.2227 25.7416 20.1796 25.6556C20.0936 25.5264 20.0075 25.4404 20.0936 25.3112C20.1366 25.2682 20.1796 25.2252 20.2657 25.2252H20.3518C20.4379 25.2682 20.567 25.3973 20.653 25.5695C20.8682 26.129 20.653 26.8606 20.653 26.8606ZM23.8809 31.9392C23.8809 31.9392 23.8809 32.0683 23.7948 32.1544C23.7088 32.1974 23.4936 32.2404 23.3645 32.2404C23.2353 32.2404 23.1923 32.1974 23.1493 32.1974C23.1062 32.1544 23.1493 32.0683 23.1493 32.0683C23.1493 32.0252 23.3214 31.724 23.6227 31.6379C23.6227 31.6379 23.7088 31.5948 23.7948 31.6379C23.8809 31.6809 23.8809 31.8961 23.8809 31.9392ZM24.7417 29.9164C24.7417 30.0455 24.6987 30.0885 24.6987 30.1315C24.6987 30.1746 24.6556 30.2176 24.5695 30.2176C24.4835 30.2176 24.4835 30.0885 24.4835 30.0885C24.4835 30.0885 24.4835 29.7872 24.3974 29.6581C24.3113 29.529 24.01 29.0986 23.8379 29.1417C23.7948 29.1417 23.6657 29.2277 23.5797 29.3138C23.4936 29.4429 23.4936 29.486 23.4505 29.486C23.4075 29.486 23.3645 29.486 23.3645 29.3999C23.3645 29.3138 23.3214 29.2708 23.3645 29.0986C23.4075 28.9265 23.4505 28.9265 23.4936 28.7974C23.4936 28.7974 23.5797 28.5822 23.6227 28.5391C23.7088 28.41 23.8379 28.41 23.8379 28.41C23.8809 28.41 23.967 28.41 24.0961 28.5391C24.2252 28.7113 24.2252 28.7113 24.2252 28.7543C24.2683 28.7974 24.3113 28.8834 24.4404 29.0125C24.5695 29.1417 24.6987 29.3999 24.6987 29.529C24.7417 29.6581 24.7417 29.7872 24.7417 29.9164ZM17.21 32.4987L17.3391 32.7569C17.4252 32.929 17.4682 33.0582 17.5543 33.0582H17.6404C17.8125 33.0582 18.0277 32.9721 18.1999 32.843C18.2859 32.7569 18.2429 32.7138 18.2429 32.6278C18.2429 32.5847 18.1999 32.5847 18.1999 32.5417C18.1568 32.4556 18.1138 32.3695 18.1138 32.2835C18.0708 32.1113 18.0277 31.9822 17.8556 32.0252C17.5973 32.0683 17.3821 32.0683 17.1239 32.0683C17.1239 32.0683 17.0378 32.0683 16.9948 32.1113C16.9518 32.1974 17.0378 32.2404 17.1239 32.3265C17.167 32.4126 17.21 32.4556 17.21 32.4987ZM51.5115 34.2202C51.4685 34.1772 51.4685 34.0911 51.4685 34.048C51.4685 33.962 51.4254 33.9189 51.4254 33.8328C51.4254 33.7037 51.3824 33.6177 51.3394 33.5316C51.2963 33.4455 51.1672 33.3594 51.0381 33.3594C50.995 33.3594 50.952 33.3594 50.909 33.4025C50.7368 33.4885 50.6077 33.5746 50.6507 33.7898C50.7368 34.0911 50.7799 34.3063 50.8659 34.5645C50.8659 34.6075 50.909 34.7367 50.952 34.7367L51.4685 34.5645C51.5115 34.5645 51.5115 34.5215 51.5115 34.5215C51.6406 34.4354 51.5976 34.3493 51.5115 34.2202ZM50.7798 32.9721C50.6938 32.843 50.4786 32.7138 50.3495 32.6278C50.2634 32.5847 50.2203 32.5417 50.1773 32.4987H50.1343C50.0912 32.4556 50.0482 32.4556 50.0052 32.4556C49.833 32.4556 49.6608 32.6708 49.6608 32.7138C49.6608 32.7999 49.79 32.9721 49.9621 33.1873L50.0052 33.2303C50.0912 33.3594 50.1773 33.4025 50.3064 33.4025C50.3925 33.4025 50.4786 33.3594 50.6077 33.2733C50.6507 33.1873 50.8229 33.0582 50.7798 32.9721ZM38.7291 32.1974H37.9975C37.9114 32.1974 37.8253 32.5417 37.8253 32.7138C37.8684 32.929 38.0836 32.9721 38.2557 33.0151C38.2987 33.0151 38.3848 33.0582 38.4709 33.0582C38.6 33.0582 38.6861 33.0151 38.7291 32.929C38.8152 32.6708 38.9013 32.4556 38.9013 32.2835V32.2404C38.8152 32.1974 38.7722 32.1974 38.7291 32.1974ZM50.3495 33.7037C50.0482 33.7037 49.833 33.4885 49.6608 33.2303C49.6178 33.1442 49.5317 33.1012 49.4887 33.0151C49.4026 32.929 49.2735 32.7999 49.1874 32.7569C49.1014 32.6708 48.9722 32.5847 48.9722 32.4987C48.9292 32.4126 48.8862 32.2404 48.8431 32.0683C48.8001 31.9392 48.8001 31.8531 48.7571 31.767V31.724C48.714 31.5949 48.6279 31.4227 48.4558 31.3797C48.3697 31.3797 48.2406 31.3797 48.1545 31.3366C47.8963 31.3366 47.595 31.2936 47.4659 31.0784C47.3368 30.9062 47.3798 30.7341 47.4659 30.5619C47.5089 30.4759 47.5089 30.4328 47.552 30.3467C47.6381 30.0024 47.6811 29.6151 47.595 29.3569C47.595 29.3138 47.552 29.2708 47.552 29.2277C47.5089 29.0986 47.4659 28.9265 47.5089 28.8834C47.552 28.8404 47.552 28.8404 47.6381 28.8404C47.6811 28.8404 47.7241 28.8404 47.8102 28.8834C47.8532 28.8834 47.8963 28.8834 47.8963 28.9265C48.0254 28.9695 48.2406 29.0125 48.4127 29.0125C48.714 29.0125 49.0153 28.9265 49.3165 28.8404C49.833 28.5822 50.3495 28.0227 50.3064 27.334C50.2203 26.6454 49.79 25.9568 48.9722 25.2252L48.9292 25.1821C48.8001 25.0961 48.671 24.9669 48.671 24.8809C48.671 24.7948 48.9292 24.7087 49.1014 24.6657C49.1444 24.6657 49.1874 24.6657 49.1874 24.6226H49.2305C49.4457 24.5796 49.6609 24.4935 49.833 24.4074C50.4355 24.0201 50.3925 23.2884 50.3495 22.9011V22.8581C50.3495 22.815 50.3064 22.7289 50.2634 22.7289H50.2204L50.1773 22.772C50.0912 22.8581 50.0482 22.9011 49.9621 22.9441C49.79 23.0732 49.5317 23.1163 49.3165 23.1593C49.1874 23.2024 49.0153 23.2024 48.8862 23.2454C48.2836 23.4606 47.9393 23.7619 47.8102 24.1492C47.7241 24.3644 47.7672 24.6226 47.8963 24.8378C48.1115 25.1391 48.3697 25.3973 48.6279 25.6556C49.0583 26.0859 49.4887 26.4733 49.6178 27.0758C49.6609 27.4201 49.5317 27.6784 49.1874 27.9366C49.0153 28.0227 48.8001 28.1087 48.5419 28.1087C48.2406 28.1087 47.8963 28.0227 47.6381 27.8935C47.2938 27.7214 46.9494 27.5062 46.6482 27.291C46.1747 26.9467 45.6583 26.6454 45.0988 26.4302C44.8406 26.3011 44.5823 26.2581 44.3241 26.2151C43.9368 26.129 43.5925 26.0429 43.2481 25.8277C43.1621 25.7416 43.033 25.6986 42.9469 25.6125C42.6886 25.3973 42.3874 25.1821 42.0431 25.1391C41.914 25.0961 41.7848 25.0961 41.6988 25.053C41.5266 25.01 41.3545 25.01 41.1823 24.8809C41.0962 24.8378 41.0532 24.7948 40.9671 24.7087C40.7089 24.5366 40.4507 24.3214 40.1924 24.1922C39.719 23.9771 39.2456 23.8479 38.6861 23.7188C38.5139 23.6758 38.3848 23.5467 38.2987 23.4176L38.0405 23.1593C37.6101 22.815 37.2228 22.5998 36.7494 22.5998H36.6203C36.362 22.5998 36.1038 22.815 35.9316 22.9441C35.4582 23.3745 34.8987 23.7619 34.3823 24.1492C33.6076 24.7087 32.8329 25.2682 32.1443 25.9999C31.4987 26.6885 31.2405 27.5492 31.0253 28.367C30.9822 28.4961 30.9392 28.6252 30.9392 28.7543C30.8962 28.9695 30.8101 29.2277 30.767 29.4429C30.4658 30.648 30.1645 31.8961 28.9164 32.6708C28.8303 32.7138 28.8734 32.843 28.9594 32.843C29.0025 32.843 29.562 33.0151 29.9924 32.4987C30.2936 32.1113 30.4658 31.767 30.8531 31.3797C30.8531 31.3797 30.8962 31.3366 30.9392 31.3366C30.9822 31.3366 30.9822 31.3797 30.9822 31.4227C30.9392 31.5948 30.8531 31.724 30.724 31.8531C30.6379 31.9822 30.5088 32.1543 30.4658 32.2835C30.3367 32.6278 30.0354 32.929 29.7341 33.1873C29.7341 33.1873 29.6911 33.2303 29.6481 33.2303L29.605 33.2733C29.605 33.3594 29.6481 33.4025 29.7772 33.4025C30.4658 33.4025 30.9392 32.929 31.4126 32.4556C31.4126 32.4556 31.4557 32.4126 31.4987 32.4126H31.5848C31.6278 32.4126 31.6709 32.4987 31.7569 32.5417C31.9291 32.6708 32.0582 32.7999 32.2734 32.843C32.5316 32.7999 32.7468 32.7999 32.962 32.7999H33.1341C33.3924 32.886 33.6506 32.9721 33.8658 33.0582C34.038 33.1012 34.2101 33.1873 34.3823 33.2303C34.5975 33.2303 34.7696 33.0151 34.8987 32.843C34.9418 32.7138 34.9418 32.5847 34.8987 32.4556C34.8987 32.3695 34.8557 32.2835 34.8557 32.2404C34.8987 32.1974 34.9418 32.2404 35.0278 32.2404H35.2C35.2 32.2404 35.3291 32.1543 35.2861 32.0683C35.243 31.8531 35.1139 31.6809 35.0278 31.5088C34.9418 31.3797 34.8126 31.2075 34.7696 31.0784C34.6835 30.8632 34.5544 30.691 34.3823 30.5189C34.2101 30.3037 34.038 30.1315 33.9949 29.9164V29.8303C33.9949 29.7872 34.081 29.8303 34.081 29.8303C34.1671 29.8733 34.2531 29.9594 34.3392 30.0024C34.5975 30.2176 34.8557 30.4328 35.2 30.4759C35.5013 30.5189 35.8456 30.5619 36.1468 30.5189C36.2329 30.5189 36.2759 30.4328 36.2759 30.3467C36.1468 30.0885 36.0177 29.7872 35.9316 29.4429C35.8456 29.1847 35.7164 28.5822 35.8456 28.0657C35.8456 28.0227 35.8886 28.0227 35.9316 28.0227C35.9747 28.0227 36.0177 28.1087 36.0177 28.1518V28.1948C36.0608 28.8404 36.1038 29.486 36.4911 30.0024C36.5772 30.1746 36.7494 30.2607 36.8785 30.3467C36.9646 30.3898 37.0937 30.4759 37.1798 30.5619C37.2658 30.648 37.2658 30.8632 37.2228 30.9493L36.7494 31.6809C36.6203 31.8531 36.5342 32.0252 36.4911 32.1974C36.4481 32.3695 36.4911 32.5417 36.4911 32.7138V32.7569C36.4911 32.7569 36.4481 32.7569 36.4481 32.7138C36.2329 32.3695 36.1899 32.0683 36.319 31.81C36.4051 31.6379 36.7924 31.0784 36.8785 30.9062C36.9215 30.8632 36.9646 30.7771 36.9215 30.7341C36.8785 30.691 36.5772 30.5619 36.4911 30.5619C36.4051 30.5619 36.362 30.648 36.319 30.691C36.319 30.691 36.319 30.7341 36.2759 30.7341L35.6734 31.81V31.8531C35.6304 31.9822 35.5873 32.0683 35.6304 32.1974C35.6734 32.3695 35.7164 32.5417 35.7595 32.6708C35.7595 32.7138 35.7595 32.7569 35.8025 32.7999C35.8456 32.9721 35.8886 33.1873 35.9747 33.2733C36.0177 33.3164 36.1038 33.3594 36.1899 33.3594H36.5342C36.6203 33.4025 36.7063 33.4455 36.7494 33.5316C36.8354 33.6177 36.8785 33.6607 36.9646 33.7037C37.1367 33.7468 37.3519 33.8328 37.5241 33.8759C37.7823 33.962 38.0405 34.005 38.2987 34.0911C38.4279 34.1341 38.6 34.1772 38.7291 34.1772C38.9013 34.1772 38.9874 34.1341 39.1165 34.005C39.3317 33.8328 39.3747 33.7037 39.4177 33.4455C39.4608 33.2303 39.5469 33.2303 39.676 33.2303C39.7621 33.2303 39.762 33.2303 39.8481 33.1873C39.9342 33.1442 40.1494 32.886 40.2355 32.6708C40.2785 32.6278 40.3215 32.5417 40.3215 32.4987C40.3646 32.4556 40.3646 32.4126 40.3646 32.3695C40.3646 32.2404 40.2785 32.2404 40.2355 32.2404H39.3747C39.1165 32.2404 38.9874 32.4987 38.9013 32.7138L38.7722 32.9721C38.6861 33.1012 38.557 33.1873 38.3848 33.1873C38.3418 33.1873 38.2127 33.1442 38.1696 33.1442C37.8253 33.0582 37.481 32.9721 37.3089 32.6278C37.3089 32.5847 37.2658 32.4556 37.3519 32.3265C37.5241 32.1113 37.7823 31.8531 38.0405 31.6379C38.3848 31.5518 38.7291 31.2936 38.9443 30.9923C38.9874 30.9493 38.9874 30.8632 39.0304 30.8202C39.0734 30.7341 39.0734 30.648 39.2025 30.5619C39.2456 30.5189 39.2886 30.5619 39.3317 30.605C39.3747 30.7771 39.2886 30.9493 39.2456 31.1214C39.2456 31.1645 39.2025 31.2075 39.2025 31.2505V31.2936H39.5469C39.8912 31.2936 40.2355 31.2505 40.5798 31.1645C40.9241 31.1214 41.2684 31.0354 41.6127 31.0354H41.7418C41.914 31.0354 42.0431 31.0354 42.2152 31.0784C42.3443 31.0784 42.5165 31.1214 42.6456 31.1214H42.8178C43.2481 31.1214 43.5925 30.9062 43.6785 30.5619C43.7646 30.3037 43.7646 29.8303 43.6355 29.1417V29.0986C43.6355 29.0556 43.6355 29.0556 43.6785 29.0125C43.7216 28.9695 43.7646 29.0125 43.7646 29.0556C43.9368 29.529 44.0228 30.0885 44.0659 30.4759C44.1089 30.8632 44.2811 31.2075 44.5393 31.5949C44.8406 32.0683 45.4001 32.3695 46.0026 32.3695C46.1317 32.3695 46.3039 32.3265 46.433 32.3265H46.6482C47.4229 32.3265 48.0684 32.6708 48.5849 33.2733V33.3164C48.5849 33.3164 48.5419 33.3594 48.4988 33.3594L48.4127 33.3164C47.9824 32.9721 47.552 32.6278 46.9925 32.5847C46.9064 32.5847 46.7773 32.5417 46.6912 32.5417C46.5191 32.5417 46.3899 32.5417 46.2178 32.5847C46.0456 32.5847 45.9165 32.6278 45.7874 32.6278C45.6152 32.6278 45.4431 32.5847 45.271 32.5417C44.6254 32.3265 44.1089 31.5949 43.9368 31.1214C43.9368 31.1214 43.8937 31.0784 43.8507 31.0784H43.8076C43.7216 31.1214 43.7216 31.1645 43.7216 31.2075C43.7216 31.2505 43.7646 31.5949 43.8076 31.724C43.8937 32.0683 43.9368 32.4987 44.4532 32.843C44.7975 33.0582 44.8836 33.1442 45.271 33.2303H45.5722C45.7444 33.1873 45.9165 33.1873 46.0887 33.1873C46.6051 33.1873 47.1646 33.3594 47.595 33.7037C47.6811 33.7468 47.7241 33.7898 47.8102 33.8759C47.8963 33.962 48.0254 34.048 48.1115 34.0911C48.1976 34.1341 48.2836 34.1341 48.3697 34.1341C48.5849 34.1341 48.6279 34.0911 48.7571 34.005C48.8001 33.962 48.8862 33.962 48.9292 33.962C49.1014 33.962 49.1874 34.0911 49.3165 34.2632C49.4026 34.3493 49.4457 34.4784 49.5748 34.5645C49.7039 34.6936 49.9191 34.7367 50.0912 34.7367H50.6938C50.6077 34.3063 50.4786 34.048 50.3495 33.7037ZM33.1772 32.1974C33.1342 32.2404 33.0911 32.2835 32.962 32.2835C32.8759 32.2835 32.7898 32.2404 32.7468 32.2404C32.6177 32.1543 32.5747 32.0252 32.5316 31.81C32.5316 31.767 32.5316 31.724 32.5747 31.6809H32.6607C32.7898 31.6809 32.962 31.767 33.0481 31.8961C33.1342 31.8531 33.2633 32.0252 33.1772 32.1974ZM33.3924 29.486C33.3493 29.529 33.2633 29.572 33.2202 29.572C33.1772 29.529 33.0911 29.486 33.0911 29.3999C33.0481 29.3138 33.005 29.2708 32.919 29.2708C32.8329 29.2708 32.7468 29.3138 32.7038 29.3569C32.6607 29.3999 32.5316 29.486 32.4886 29.529C32.3164 29.7012 32.1012 29.8733 32.0582 30.0885C32.0582 30.1746 32.0582 30.1746 32.0152 30.2176C32.0152 30.3037 31.9721 30.3898 31.9291 30.4328C31.886 30.4759 31.9291 30.4328 31.886 30.4328C31.843 30.4328 31.843 30.4328 31.8 30.3898C31.7569 30.3898 31.7569 30.3467 31.7569 30.3037C31.7139 29.9164 31.843 29.572 32.1443 29.3138C32.3164 29.1847 32.4455 28.9695 32.6177 28.7974C32.7038 28.7113 32.7468 28.6252 32.8329 28.5391C32.8759 28.4961 32.962 28.5391 33.1341 28.7113C33.1772 28.7974 33.3924 29.0986 33.4785 29.3138C33.3924 29.3999 33.3924 29.486 33.3924 29.486ZM36.6203 24.9669L36.4051 25.1821C36.1468 25.4404 35.8456 25.6986 35.6734 25.9999C35.5873 26.129 35.5013 26.2581 35.4582 26.3872L35.4152 26.4302H35.3291C35.2861 26.3872 35.3291 25.9999 35.3721 25.8277C35.5013 25.4404 35.8456 25.01 36.319 24.6657C36.362 24.6226 36.4481 24.6226 36.4911 24.6226C36.5772 24.6226 36.6203 24.6657 36.6633 24.7087C36.6633 24.7517 36.6633 24.8809 36.6203 24.9669Z" fill="#EA1C2D"/>
</svg>
